<?xml version="1.0" standalone="no"?>
<!DOCTYPE svg PUBLIC "-//W3C//DTD SVG 20010904//EN"
 "http://www.w3.org/TR/2001/REC-SVG-20010904/DTD/svg10.dtd">
<svg version="1.0" xmlns="http://www.w3.org/2000/svg"
 width="1357.000000pt" height="1357.000000pt" viewBox="0 0 1357.000000 1357.000000"
 preserveAspectRatio="xMidYMid meet">

<g transform="translate(0.000000,1357.000000) scale(0.100000,-0.100000)"
fill="#000000" stroke="none">
<path d="M0 6785 l0 -6785 6785 0 6785 0 0 6785 0 6785 -6785 0 -6785 0 0
-6785z m6441 3925 c14 -8 19 -21 19 -51 0 -32 -4 -41 -25 -51 -42 -19 -75 3
-75 50 0 57 32 78 81 52z m1437 -2 c7 -7 12 -29 12 -50 0 -32 -4 -40 -25 -48
-44 -17 -75 5 -75 52 0 48 57 77 88 46z m416 -40 c25 -29 46 -56 46 -60 0 -14
-78 -8 -94 7 -8 8 -19 15 -24 15 -5 0 -15 -7 -22 -15 -13 -15 -100 -22 -100
-7 0 4 22 31 49 60 65 69 85 69 145 0z m392 24 c28 -56 -22 -110 -72 -77 -28
18 -32 65 -8 90 23 22 66 15 80 -13z m1004 -217 l5 -240 27 -3 c31 -4 49 -39
27 -53 -22 -13 -139 -4 -150 12 -5 8 -9 9 -9 3 0 -14 -29 -24 -86 -30 -54 -5
-101 25 -131 86 -45 87 -23 257 39 303 32 24 116 34 147 17 29 -15 35 -9 33
36 -2 41 -19 67 -39 60 -16 -7 -28 17 -19 39 5 13 20 15 78 13 l73 -3 5 -240z
m-4132 208 c5 -34 59 -32 72 2 7 19 17 25 40 25 37 0 47 -19 30 -60 -20 -48
-56 -64 -133 -61 -40 1 -87 51 -87 91 0 30 1 31 38 28 30 -2 38 -7 40 -25z
m-3256 2 c6 -6 -16 -172 -24 -180 -3 -3 -17 -3 -30 0 -23 6 -26 13 -32 67 -12
118 -12 118 37 118 24 0 46 -2 49 -5z m131 -47 c-12 -107 -18 -131 -34 -133
-9 -2 -22 0 -28 4 -12 8 -31 103 -31 154 0 26 2 27 50 27 l49 0 -6 -52z m812
-23 l0 -70 -30 0 c-25 0 -30 5 -36 34 -4 18 -13 38 -21 43 -14 9 -114 6 -124
-5 -4 -3 -8 -40 -10 -81 l-4 -75 88 -3 c86 -3 87 -3 86 -28 -1 -14 -2 -27 -3
-30 0 -3 -33 -4 -72 -2 -39 3 -75 0 -80 -5 -16 -16 -22 -101 -9 -132 9 -23 19
-31 43 -33 27 -2 32 -7 32 -28 l0 -25 -120 0 -120 0 0 25 c0 20 6 26 30 30
l30 5 2 185 c2 102 -1 191 -5 197 -4 7 -19 14 -32 16 -26 4 -35 19 -26 43 5
12 35 14 193 12 l188 -3 0 -70z m1601 -7 c-8 -88 -21 -114 -53 -104 -16 5 -22
22 -31 87 -7 45 -9 85 -6 90 3 5 26 9 51 9 l46 0 -7 -82z m3602 5 c3 -39 5
-42 35 -45 27 -2 33 -8 35 -31 4 -35 -13 -57 -41 -54 -21 2 -22 -1 -22 -113
l0 -115 33 -3 c19 -2 32 -9 32 -17 0 -11 8 -13 33 -8 17 3 35 11 40 17 4 6 6
65 5 131 l-3 120 -28 13 c-20 10 -27 20 -25 35 3 20 9 22 76 22 l73 0 0 -157
c0 -162 2 -172 44 -180 14 -2 20 -11 20 -28 l0 -25 -125 -1 -125 0 -5 -55 c-7
-64 -33 -119 -58 -119 -31 0 -56 25 -47 46 4 10 11 42 15 69 7 46 6 52 -19 72
-25 20 -26 25 -31 160 -4 100 -8 138 -17 139 -7 1 -22 2 -34 3 -17 1 -20 7
-17 39 3 34 6 37 36 40 30 3 32 6 32 41 0 47 6 53 50 49 33 -3 35 -5 38 -45z
m-4250 -5 l3 -37 117 -3 117 -3 3 -149 c1 -90 7 -155 14 -163 17 -21 82 -16
104 8 18 20 21 65 15 230 -1 9 -12 20 -26 23 -18 5 -25 13 -25 31 0 24 2 25
75 25 l75 0 0 -157 c0 -87 4 -163 8 -169 4 -7 16 -13 27 -15 14 -3 20 -12 20
-29 0 -24 -2 -25 -62 -24 -34 0 -69 7 -78 14 -8 7 -15 8 -15 2 0 -18 -60 -35
-110 -30 -93 9 -112 44 -119 218 l-6 125 -58 0 c-33 0 -63 -3 -68 -6 -6 -3 -8
-62 -7 -135 l3 -129 45 -5 c38 -4 45 -8 46 -28 2 -29 -5 -33 -68 -37 -105 -8
-130 30 -128 202 2 154 3 145 -22 141 -18 -2 -24 2 -26 24 -3 22 2 27 28 33
17 4 33 12 35 18 23 66 25 68 53 65 23 -3 27 -8 30 -40z m2470 0 c3 -38 3 -38
48 -38 45 0 45 0 42 -32 -3 -31 -5 -33 -43 -33 l-40 0 -3 -124 c-2 -79 1 -128
8 -137 7 -7 28 -14 48 -16 27 -2 38 -8 40 -22 6 -27 -9 -36 -70 -42 -49 -5
-59 -3 -84 19 l-29 25 -5 148 -5 149 -25 0 c-20 0 -25 5 -25 25 0 18 7 26 25
30 17 3 31 19 45 48 16 34 24 42 45 39 21 -2 25 -8 28 -39z m972 2 l0 -40 48
-1 c26 0 82 0 125 1 l77 1 0 -159 c0 -166 2 -176 45 -184 14 -2 20 -11 20 -28
0 -25 0 -25 -110 -27 -60 -1 -140 -4 -177 -5 -59 -3 -70 0 -90 20 -21 21 -23
33 -28 170 l-5 147 -25 0 c-20 0 -25 5 -25 25 0 17 6 26 20 28 29 6 44 21 60
59 11 25 20 33 39 33 24 0 26 -4 26 -40z m-4134 -45 c52 -21 64 -60 64 -205 0
-118 1 -121 24 -129 16 -7 23 -17 22 -33 -1 -21 -6 -23 -56 -26 -41 -2 -57 1
-66 13 -11 15 -15 14 -45 -4 -87 -53 -189 6 -189 108 0 74 53 120 150 128 l60
6 0 38 c0 28 -5 41 -20 49 -31 17 -59 3 -68 -33 -7 -27 -13 -32 -36 -30 -40 3
-58 21 -54 57 6 65 124 99 214 61z m434 -2 c56 -38 78 -92 79 -187 1 -89 -14
-137 -55 -177 -26 -25 -42 -32 -87 -36 -33 -2 -58 0 -62 6 -3 6 -13 11 -21 11
-12 0 -14 -12 -12 -57 3 -52 5 -58 28 -63 18 -4 25 -12 25 -30 0 -25 -1 -25
-100 -27 -55 -1 -105 3 -111 8 -20 16 -4 48 25 51 l26 3 0 220 0 220 -33 10
c-25 7 -32 14 -30 30 3 18 11 20 76 23 58 2 73 0 78 -12 5 -14 10 -13 31 4 33
25 108 27 143 3z m1383 1 c39 -20 47 -31 47 -66 0 -18 -8 -33 -25 -44 -32 -21
-65 -10 -65 21 0 31 -32 50 -60 35 -43 -23 -54 -207 -15 -250 26 -29 98 -28
119 1 20 29 46 18 46 -20 0 -37 -20 -57 -68 -71 -85 -23 -158 3 -192 70 -28
54 -29 209 -1 260 39 74 137 103 214 64z m902 -1 c57 -27 63 -100 10 -115 -40
-11 -55 -4 -55 25 0 30 -23 51 -48 43 -33 -11 -47 -54 -47 -141 0 -106 17
-135 77 -135 29 0 49 7 65 22 28 26 46 14 41 -27 -7 -64 -118 -96 -197 -56
-60 31 -80 80 -81 194 0 102 21 155 73 187 40 25 114 26 162 3z m803 -3 c52
-32 73 -75 70 -145 l-3 -60 -105 -3 c-57 -2 -106 -5 -109 -8 -3 -2 4 -26 15
-52 19 -45 21 -47 64 -50 35 -2 50 2 68 18 31 29 54 19 50 -22 -5 -51 -53 -78
-130 -74 -73 5 -104 25 -135 86 -38 73 -29 227 15 277 46 54 140 69 200 33z
m2180 6 c52 -28 62 -61 62 -199 0 -127 0 -128 25 -137 28 -11 34 -44 9 -54
-31 -12 -103 -6 -111 9 -8 13 -14 12 -48 -5 -46 -24 -74 -25 -120 -6 -85 36
-87 178 -3 222 17 9 58 19 90 21 l58 6 0 39 c0 31 -5 41 -24 50 -34 15 -55 4
-62 -31 -8 -38 -36 -48 -70 -26 -20 13 -24 23 -22 48 5 48 54 77 132 77 34 -1
71 -6 84 -14z m1242 -1 c54 -28 66 -84 25 -111 -34 -22 -57 -14 -67 23 -9 35
-41 52 -63 33 -40 -33 -48 -208 -11 -249 26 -29 101 -30 116 -1 15 28 38 25
46 -5 13 -52 -21 -80 -111 -90 -53 -6 -64 -4 -94 17 -59 39 -75 79 -75 183 0
106 19 156 73 192 40 27 117 31 161 8z m340 -3 c51 -25 81 -84 78 -152 l-3
-55 -105 -2 -105 -2 2 -37 c4 -51 27 -74 76 -74 28 0 48 7 64 22 22 20 25 21
40 6 21 -21 11 -61 -21 -81 -15 -10 -50 -17 -91 -18 -72 -2 -99 10 -139 64
-40 55 -38 228 4 287 41 58 131 77 200 42z m-5097 -25 c42 -32 45 -46 49 -227
l3 -135 -45 2 c-25 1 -49 2 -55 3 -5 0 -31 -4 -57 -11 -42 -11 -50 -10 -95 12
-40 20 -51 31 -63 67 -33 95 37 172 157 172 28 0 55 4 58 10 9 15 -14 50 -38
59 -23 9 -77 -5 -77 -19 0 -21 -30 -36 -64 -32 -42 5 -46 21 -17 68 28 46 75
65 147 61 48 -2 69 -9 97 -30z m767 -137 l5 -165 26 -3 c20 -2 28 -10 32 -28
2 -14 -1 -27 -7 -30 -6 -2 -56 -3 -111 -2 -99 3 -100 3 -100 28 0 17 6 26 20
28 41 8 45 20 45 132 0 123 -4 138 -36 151 -17 6 -24 16 -24 34 0 26 1 26 73
23 l72 -3 5 -165z m930 155 c39 -20 70 -62 70 -96 0 -28 -2 -29 -45 -29 -32 0
-45 4 -45 14 0 23 -29 46 -59 46 -30 0 -67 -32 -57 -49 4 -6 38 -20 76 -31 38
-11 83 -32 99 -46 63 -53 46 -148 -32 -180 -40 -17 -42 -19 -39 -55 3 -25 -4
-54 -18 -84 -23 -48 -42 -55 -75 -31 -18 13 -18 18 -7 48 6 19 12 50 12 69 0
30 -5 36 -40 51 -58 24 -104 112 -69 133 15 10 79 -4 79 -17 0 -27 34 -48 77
-48 77 0 71 54 -8 78 -121 36 -157 71 -146 139 7 41 21 59 62 85 37 22 124 24
165 3z m872 -180 c3 -193 3 -196 -18 -201 -12 -3 -33 -4 -45 -2 l-24 3 -3 185
c-1 101 0 190 2 197 3 8 22 13 45 13 l40 0 3 -195z m1636 41 c1 -90 7 -155 14
-163 6 -7 28 -13 49 -13 55 0 69 26 73 137 4 103 -3 128 -39 137 -20 5 -26 12
-23 29 3 20 9 22 80 25 l78 3 2 -168 3 -167 25 -6 c18 -4 25 -13 25 -30 0 -23
-4 -25 -55 -28 -30 -2 -64 2 -77 9 -18 9 -26 9 -38 -1 -23 -19 -125 -22 -152
-4 -49 31 -58 60 -63 199 -5 127 -6 130 -28 133 -26 4 -37 24 -28 47 5 13 20
15 78 13 l73 -3 3 -149z m-7238 -46 l0 -40 -95 0 -95 0 0 33 c0 19 3 37 7 40
3 4 46 7 95 7 l88 0 0 -40z m1271 -500 c74 -38 101 -128 59 -197 -20 -34 -94
-93 -116 -93 -8 0 -14 -16 -16 -42 -3 -38 -6 -43 -28 -43 -24 0 -25 3 -28 62
-3 60 -2 63 26 77 51 26 82 72 82 120 0 52 -13 66 -61 66 -41 0 -49 -7 -59
-54 -5 -26 -10 -30 -31 -28 -30 4 -59 37 -59 66 0 22 27 53 65 74 33 19 122
14 166 -8z m-1468 -124 c35 -24 39 -89 6 -106 -36 -20 -64 -9 -67 27 -4 37
-20 46 -52 30 -49 -25 -64 -161 -26 -235 15 -29 21 -32 61 -32 32 0 50 6 64
21 25 27 41 17 41 -27 0 -46 -44 -74 -116 -74 -103 0 -164 77 -164 208 0 144
59 216 170 209 31 -2 67 -11 83 -21z m325 5 c51 -26 73 -68 75 -143 l2 -63
-113 -3 -112 -3 6 -27 c15 -62 41 -86 91 -84 22 1 45 10 60 24 24 23 25 23 39
4 19 -27 18 -42 -6 -66 -27 -27 -63 -40 -110 -40 -111 0 -170 77 -170 219 0
157 115 245 238 182z m782 4 c50 -26 60 -59 60 -200 0 -125 0 -125 25 -137 18
-8 25 -18 23 -32 -3 -18 -11 -21 -58 -24 -42 -3 -57 1 -67 14 -12 16 -14 16
-32 0 -51 -46 -160 -24 -186 38 -45 106 12 183 143 194 l53 5 -3 41 c-3 39 -4
41 -40 44 -35 3 -38 1 -46 -30 -10 -38 -33 -46 -67 -24 -43 28 -28 86 28 110
43 19 131 20 167 1z m-490 -25 c0 -23 -4 -30 -20 -30 -14 0 -20 -7 -20 -23 0
-20 53 -184 63 -194 6 -5 77 173 77 192 0 9 -12 20 -26 25 -19 7 -25 16 -22
33 3 21 7 22 88 22 82 0 85 -1 86 -23 1 -16 -6 -26 -21 -32 -18 -7 -34 -37
-70 -132 -87 -224 -78 -210 -127 -206 l-43 3 -60 164 c-48 129 -66 166 -83
172 -21 8 -30 38 -15 52 3 4 48 7 100 7 l93 0 0 -30z m802 -277 c38 -34 11
-103 -40 -103 -57 0 -85 73 -40 104 29 21 57 20 80 -1z m1336 -359 c29 -20 31
-79 3 -94 -46 -24 -91 3 -85 52 1 13 3 27 3 31 1 7 35 24 51 26 3 1 16 -6 28
-15z m1012 -229 c3 -132 7 -241 8 -242 1 -1 14 -3 30 -5 21 -2 27 -8 27 -28 0
-24 -3 -25 -69 -28 -45 -2 -72 1 -77 9 -5 9 -13 7 -30 -5 -59 -41 -166 -7
-201 64 -28 55 -25 202 5 260 36 72 99 93 195 64 21 -6 22 -3 22 40 0 44 -2
47 -30 53 -23 4 -30 11 -30 28 0 30 12 34 85 32 l60 -2 5 -240z m-3307 212
c40 -17 55 -35 63 -74 5 -24 1 -35 -17 -52 -32 -30 -60 -23 -73 17 -6 18 -18
37 -26 42 -23 15 -69 12 -101 -7 -81 -48 -90 -269 -13 -346 47 -47 119 -47
175 1 30 25 32 25 45 7 14 -19 10 -49 -9 -73 -32 -39 -165 -56 -230 -28 -61
26 -101 76 -126 155 -16 51 -13 161 6 216 19 58 83 126 133 142 49 16 135 15
173 0z m1094 -6 c3 -11 11 -22 19 -25 21 -8 41 3 47 25 4 15 14 19 47 19 41 0
42 -1 35 -27 -11 -45 -32 -70 -70 -83 -65 -21 -133 7 -155 65 -13 35 -6 45 37
45 26 0 36 -5 40 -19z m3213 5 c0 -21 27 -38 50 -31 11 3 20 15 20 26 0 16 7
19 41 19 41 0 41 0 35 -32 -12 -60 -64 -94 -131 -84 -49 8 -82 38 -91 84 -6
32 -6 32 35 32 28 0 41 -4 41 -14z m471 -11 c38 -20 59 -63 59 -123 0 -51 -22
-95 -77 -154 -14 -14 -28 -41 -32 -60 -6 -31 -10 -33 -46 -33 -31 0 -41 4 -43
18 -8 42 10 85 58 139 37 41 50 64 50 86 0 37 -23 62 -56 62 -27 0 -64 -32
-64 -55 0 -11 -11 -15 -39 -15 -22 0 -42 4 -45 9 -12 19 8 73 36 101 50 50
130 60 199 25z m-4439 -117 c49 -28 80 -92 76 -156 l-3 -47 -109 -3 -109 -3 6
-37 c7 -40 46 -82 76 -82 10 0 35 12 57 26 36 25 39 25 51 8 16 -22 16 -29 2
-56 -23 -44 -127 -62 -194 -34 -19 8 -46 32 -62 57 -26 39 -28 50 -28 133 0
151 42 207 163 213 22 1 51 -7 74 -19z m533 -8 c29 -27 32 -61 9 -84 -26 -27
-52 -19 -68 19 -8 19 -21 35 -28 35 -26 0 -40 -18 -36 -46 2 -22 15 -35 58
-60 73 -42 91 -65 97 -117 10 -88 -43 -137 -147 -137 -44 0 -56 5 -81 29 -31
32 -37 66 -16 95 19 27 61 18 65 -14 8 -51 49 -67 75 -29 23 32 9 56 -49 89
-95 55 -124 114 -92 186 29 62 161 83 213 34z m954 2 c26 -19 26 -19 54 1 20
16 43 21 87 21 55 0 63 -3 93 -32 l32 -32 5 -134 c3 -74 8 -138 12 -142 15
-14 91 -7 104 10 13 18 19 187 8 230 -3 15 -17 29 -34 34 -22 8 -27 15 -23 35
5 24 8 25 76 24 l72 -2 3 -162 c2 -142 5 -164 20 -172 9 -5 22 -9 27 -10 6 0
11 -12 13 -26 l3 -25 -185 0 -186 0 0 143 c0 165 -8 187 -65 187 -55 0 -65
-25 -65 -156 0 -112 0 -112 26 -118 19 -5 25 -12 22 -29 -3 -20 -8 -22 -72
-22 l-69 0 -2 135 c-3 164 -11 190 -59 190 -55 0 -66 -25 -66 -153 l0 -108 31
-11 c23 -8 29 -16 27 -32 -3 -20 -9 -21 -109 -24 -101 -3 -107 -2 -112 18 -4
17 1 24 27 35 19 8 35 22 38 32 2 10 1 70 -2 133 -5 105 -7 115 -25 118 -29 6
-38 17 -30 41 5 17 14 20 63 20 31 -1 62 -5 68 -10 7 -6 24 -4 45 5 43 19 114
13 148 -12z m970 22 c17 -4 45 -19 61 -34 l30 -28 0 -130 c0 -105 3 -134 16
-146 8 -9 20 -16 25 -16 6 0 9 -10 7 -22 -3 -20 -10 -23 -60 -26 -47 -2 -58 0
-58 13 0 20 -10 19 -40 -5 -28 -22 -98 -27 -133 -9 -42 22 -57 50 -57 116 0
56 3 63 30 87 17 14 45 28 63 31 65 11 82 14 100 14 11 1 17 9 17 27 0 43 -17
64 -54 64 -29 0 -34 -4 -42 -32 -7 -23 -17 -34 -32 -36 -34 -5 -52 16 -52 60
0 36 3 40 43 58 44 20 83 24 136 14z m1289 -21 c36 -27 43 -86 12 -103 -36
-19 -64 -9 -70 25 -4 24 -11 31 -32 33 -34 4 -55 -27 -64 -90 -20 -144 53
-232 135 -162 37 31 51 25 51 -21 0 -47 -34 -68 -114 -73 -77 -4 -114 17 -146
82 -19 40 -21 59 -18 139 3 81 7 99 29 134 17 24 40 44 60 51 48 16 125 9 157
-15z m-2869 -11 c49 -35 60 -74 62 -227 l2 -140 -59 0 c-32 -1 -76 -5 -97 -9
-83 -18 -156 29 -164 107 -10 84 37 129 147 142 81 10 82 10 69 39 -21 46 -94
43 -119 -5 -9 -16 -19 -19 -53 -17 -38 3 -42 5 -39 27 10 69 83 115 171 107
31 -3 66 -13 80 -24z m2301 -130 c4 -137 7 -155 24 -168 37 -27 80 -13 104 33
16 29 16 205 0 221 -7 7 -20 12 -31 12 -14 0 -18 6 -15 28 3 27 4 27 73 27
l70 0 5 -160 5 -160 28 -13 c18 -9 27 -21 27 -38 0 -23 -3 -24 -63 -24 -35 0
-68 5 -73 10 -7 7 -20 6 -40 -5 -38 -20 -123 -19 -152 1 -42 29 -52 65 -52
184 0 118 -9 150 -40 150 -14 0 -20 7 -20 23 0 35 8 38 80 35 l65 -3 5 -153z
m916 133 c43 -28 51 -60 56 -223 l4 -153 -60 2 c-34 0 -83 -2 -111 -6 -64 -8
-111 15 -138 68 -50 97 32 187 171 187 31 0 42 4 42 15 0 23 -37 55 -63 55
-28 0 -67 -26 -67 -46 0 -19 -78 -20 -86 0 -7 17 17 65 45 90 41 37 157 44
207 11z m-2931 -152 l0 -38 -95 0 -95 0 -3 28 c-5 46 8 52 105 50 l88 -1 0
-39z m-2045 -29 l0 -45 -92 3 -93 3 -3 28 c-6 50 0 53 97 55 l91 1 0 -45z
m5270 -124 c22 -41 -17 -89 -61 -75 -27 9 -42 50 -29 76 15 27 75 26 90 -1z
m-4120 -361 c33 -61 -31 -118 -82 -72 -21 19 -24 66 -5 81 30 25 72 21 87 -9z
m766 21 c11 0 14 -42 16 -237 l3 -238 33 -10 c25 -7 32 -14 30 -30 -3 -18 -11
-20 -72 -23 -42 -2 -72 1 -76 8 -4 7 -16 6 -36 -5 -71 -37 -166 -7 -200 63
-26 53 -30 167 -9 231 25 75 61 101 140 101 35 0 67 -5 70 -10 12 -19 21 -1
21 41 -1 41 -8 50 -48 63 -10 3 -18 14 -18 25 0 17 8 21 53 24 28 2 58 2 65 0
8 -2 20 -3 28 -3z m1988 0 c22 -8 26 -16 26 -48 0 -45 -14 -62 -50 -62 -36 0
-50 17 -50 62 0 50 25 67 74 48z m1454 -44 c4 -45 -11 -66 -47 -66 -35 0 -51
17 -51 55 0 50 23 68 70 55 20 -5 26 -14 28 -44z m-4578 9 c5 -14 14 -25 19
-25 23 0 41 14 41 31 0 15 7 19 39 19 22 0 43 -4 46 -10 11 -18 -33 -87 -65
-100 -35 -14 -103 -8 -127 12 -20 17 -46 76 -38 88 4 6 22 10 41 10 28 0 36
-5 44 -25z m4897 -3 c50 -26 67 -63 61 -137 -5 -62 -32 -99 -96 -131 -46 -24
-52 -31 -52 -71 0 -28 -3 -33 -25 -33 -24 0 -25 2 -25 64 0 63 1 65 35 85 91
53 101 181 14 181 -34 0 -55 -20 -64 -60 -8 -34 -14 -36 -55 -15 -24 12 -30
22 -30 48 0 17 7 40 14 49 35 46 151 56 223 20z m-5164 -7 c55 -27 72 -61 70
-137 -2 -80 -20 -117 -73 -147 -21 -11 -62 -24 -91 -28 l-54 -8 -3 -47 c-3
-41 0 -49 22 -64 14 -9 33 -14 41 -10 11 4 15 -2 15 -24 l0 -30 -120 0 c-118
0 -120 0 -120 23 0 17 8 25 33 32 l32 10 3 184 c3 195 -1 211 -44 211 -19 0
-24 5 -24 25 l0 25 141 0 c106 0 149 -4 172 -15z m3629 -62 c3 -37 4 -38 46
-41 39 -3 42 -5 42 -33 0 -28 -2 -29 -45 -29 l-45 0 0 -124 c0 -140 7 -156 66
-156 26 0 34 -4 34 -18 0 -31 -22 -42 -80 -42 -43 0 -61 5 -78 20 -29 27 -32
43 -35 190 l-2 125 -27 3 c-41 5 -38 42 5 62 18 9 38 29 46 48 11 25 21 32 42
32 25 0 28 -4 31 -37z m970 0 c3 -43 -9 -40 160 -42 l88 -1 2 -162 3 -163 33
-10 c25 -7 32 -14 30 -30 -3 -19 -13 -20 -173 -28 -183 -8 -204 -4 -224 40 -6
14 -11 81 -11 158 l0 134 -27 3 c-20 2 -29 9 -31 25 -2 16 4 24 32 33 26 8 38
19 46 46 10 28 16 34 40 34 26 0 29 -4 32 -37z m-4259 -42 c49 -12 85 -45 97
-90 5 -20 10 -94 11 -166 l2 -130 -64 -2 c-35 -1 -85 -5 -110 -9 -66 -9 -121
21 -143 77 -16 40 -16 46 -1 86 21 53 67 80 155 90 54 5 61 8 58 27 -2 11 -15
27 -29 35 -22 12 -31 12 -57 2 -16 -7 -32 -21 -35 -32 -4 -15 -14 -19 -45 -19
-51 0 -58 10 -36 56 31 66 109 95 197 75z m302 -159 c0 -171 3 -181 48 -182
12 0 17 -8 17 -25 l0 -26 -112 3 c-105 3 -113 4 -116 23 -2 16 5 23 30 30 l33
10 3 124 c3 129 -3 151 -39 151 -13 0 -19 7 -19 24 0 27 16 31 110 31 l45 -1
0 -162z m1105 153 c40 -21 62 -66 68 -142 l5 -63 -113 0 -112 0 6 -37 c8 -43
46 -83 80 -83 12 0 37 11 56 25 39 29 63 19 58 -24 -5 -40 -60 -71 -126 -71
-105 0 -161 65 -170 195 -5 88 23 166 72 196 39 24 134 26 176 4z m561 -6 c22
-16 29 -28 29 -54 0 -37 -20 -55 -63 -55 -20 0 -26 6 -31 35 -6 28 -12 35 -30
35 -13 0 -31 -9 -40 -19 -32 -36 -33 -192 -2 -234 8 -10 29 -20 48 -23 27 -5
40 -1 64 20 23 19 34 22 42 14 13 -13 15 -38 6 -63 -19 -48 -146 -62 -205 -22
-52 35 -68 77 -69 179 0 155 40 208 158 208 49 0 71 -5 93 -21z m335 4 c38
-25 64 -84 64 -148 l0 -55 -111 0 -111 0 7 -32 c12 -58 37 -83 84 -82 28 0 49
8 64 22 18 17 26 19 35 10 19 -19 14 -53 -13 -78 -36 -33 -134 -40 -185 -12
-58 32 -80 82 -80 186 0 102 20 159 67 188 38 23 144 24 179 1z m552 -3 c26
-16 32 -26 32 -55 0 -38 -20 -55 -64 -55 -20 0 -26 5 -26 23 -1 59 -54 64 -83
7 -27 -53 -19 -180 13 -215 30 -32 70 -32 108 0 34 28 52 19 52 -27 0 -41 -48
-68 -120 -68 -113 0 -159 62 -160 213 0 97 13 136 58 174 37 31 141 32 190 3z
m222 -151 l0 -160 34 -14 c27 -11 33 -19 29 -35 -5 -19 -13 -20 -114 -20
l-109 0 0 25 c0 18 5 25 19 25 42 0 51 25 51 141 0 117 -9 149 -40 149 -14 0
-20 7 -20 24 0 30 5 32 85 28 l65 -4 0 -159z m580 151 c39 -28 60 -78 60 -144
l0 -56 -110 0 c-60 0 -110 -3 -110 -7 0 -32 25 -86 45 -99 31 -20 85 -12 110
16 14 15 21 17 32 9 21 -18 15 -53 -13 -80 -22 -21 -35 -24 -99 -24 -68 0 -76
2 -106 30 -45 43 -59 83 -59 172 0 89 21 147 65 181 38 30 144 31 185 2z m368
-8 c28 -18 52 -62 52 -97 0 -23 -4 -25 -40 -25 -34 0 -42 4 -50 25 -13 35 -57
51 -90 33 -50 -28 -27 -51 80 -83 67 -20 96 -46 104 -90 10 -54 -15 -102 -66
-125 -41 -18 -42 -20 -39 -59 3 -45 -22 -107 -49 -121 -13 -7 -24 -5 -41 9
-21 17 -22 22 -11 45 7 15 12 45 12 66 0 35 -4 41 -32 54 -46 19 -78 57 -85
100 l-6 36 44 0 c40 0 46 -3 56 -29 8 -23 19 -31 46 -36 44 -9 79 9 75 37 -4
25 -16 33 -89 53 -116 31 -153 108 -86 181 18 20 47 39 67 44 44 10 118 2 148
-18z m-4878 -183 l0 -40 -92 3 -93 3 -3 28 c-6 50 -1 52 97 49 l91 -3 0 -40z
m1352 -96 c43 -38 10 -142 -57 -180 -53 -30 -75 -30 -75 2 0 17 9 29 29 40 42
21 46 32 20 59 -26 27 -34 63 -18 82 16 19 79 17 101 -3z m4279 -30 c9 -44
-13 -73 -55 -73 -40 0 -56 15 -56 55 0 42 17 56 65 53 35 -3 40 -6 46 -35z
m-2823 -345 c29 -29 6 -98 -33 -98 -45 0 -55 10 -55 54 0 24 3 46 7 49 11 12
68 8 81 -5z m-1148 -23 c6 -15 17 -25 30 -25 13 0 24 10 30 25 8 20 16 25 44
25 45 0 51 -12 29 -58 -23 -48 -55 -64 -116 -59 -55 5 -82 26 -96 74 -11 38
-7 43 36 43 27 0 35 -5 43 -25z m-1101 0 c62 -32 59 -130 -4 -130 -25 0 -32 5
-39 32 -17 58 -86 68 -141 20 -28 -24 -55 -106 -55 -168 0 -90 49 -181 107
-195 36 -9 89 4 121 31 30 25 48 22 53 -10 10 -66 -50 -99 -169 -94 -72 4 -84
7 -119 35 -56 44 -86 111 -91 205 -8 131 35 226 120 268 53 26 173 29 217 6z
m2011 -75 l0 -40 125 0 125 0 0 -165 0 -165 30 -6 c23 -5 30 -12 30 -29 0 -21
-3 -22 -171 -28 -109 -4 -178 -3 -190 3 -34 19 -41 50 -43 189 l-1 136 -27 3
c-40 5 -39 44 2 59 20 7 35 24 45 47 13 30 20 36 45 36 28 0 30 -2 30 -40z
m-1671 -44 c38 -20 52 -73 50 -202 -2 -107 -1 -108 26 -130 43 -34 28 -54 -39
-54 -42 0 -57 4 -65 18 -7 11 -13 13 -18 6 -15 -21 -52 -34 -97 -34 -64 0
-106 38 -113 103 -11 92 33 136 143 145 l64 5 0 43 c0 39 -3 44 -27 50 -32 8
-57 -6 -61 -35 -4 -26 -23 -35 -56 -27 -47 12 -46 84 2 110 36 20 154 21 191
2z m535 -7 c29 -23 34 -60 10 -83 -25 -26 -54 -20 -65 13 -14 40 -39 48 -62
20 -15 -19 -16 -25 -4 -43 8 -11 35 -32 61 -46 25 -14 56 -35 67 -47 26 -26
36 -93 19 -133 -21 -51 -55 -70 -122 -70 -84 0 -127 27 -128 81 0 61 70 84 80
25 10 -60 72 -60 78 0 3 26 -3 33 -40 54 -93 51 -117 81 -118 144 0 30 7 45
34 72 32 32 38 34 99 34 50 0 70 -5 91 -21z m361 -19 c36 -33 44 -76 47 -228
l3 -133 -60 2 c-33 0 -79 -2 -103 -6 -90 -16 -162 37 -162 118 0 81 46 119
158 132 34 4 65 11 68 16 7 13 -42 59 -63 59 -25 0 -63 -28 -63 -46 0 -10 -12
-14 -44 -14 -25 0 -47 4 -50 8 -8 14 32 86 56 101 54 35 172 29 213 -9z m551
-3 c26 -24 36 -41 37 -67 2 -34 1 -35 -38 -38 -37 -3 -41 0 -51 27 -8 19 -20
31 -35 33 -40 6 -68 -3 -75 -25 -8 -24 10 -36 80 -55 27 -7 64 -22 82 -33 73
-45 61 -153 -19 -189 -37 -17 -39 -20 -41 -66 -1 -51 -37 -124 -60 -124 -7 0
-22 9 -34 20 -19 18 -20 23 -8 52 7 18 12 48 12 67 -1 29 -6 36 -31 44 -42 14
-56 26 -76 71 -23 52 -16 66 32 66 33 0 41 -4 49 -24 16 -43 77 -60 114 -33
36 26 12 53 -67 77 -95 29 -127 59 -127 118 0 38 5 50 36 78 34 32 39 34 110
34 70 0 76 -2 110 -33z m684 -114 c0 -159 7 -183 56 -183 65 0 84 37 84 165
l0 97 -30 11 c-21 8 -30 18 -30 34 0 22 4 23 75 23 l75 0 0 -161 0 -161 30
-11 c21 -8 30 -18 30 -34 0 -22 -4 -23 -69 -23 -45 0 -71 4 -73 12 -3 8 -11 7
-28 -5 -32 -22 -122 -23 -160 0 -42 24 -50 53 -50 171 0 129 -5 150 -36 158
-17 4 -24 13 -24 30 0 23 3 24 75 24 l75 0 0 -147z m5755 -48 c39 -18 93 -40
122 -50 65 -20 65 -22 61 -240 l-3 -160 -25 3 c-14 2 -37 12 -52 23 -15 10
-32 19 -37 19 -11 0 -50 16 -148 61 l-63 29 0 181 0 181 38 -7 c20 -4 69 -22
107 -40z m-8784 25 c1 -5 1 -19 1 -30 0 -11 0 -25 -1 -30 -1 -7 -35 -10 -93
-8 l-93 3 -3 38 -3 37 95 0 c57 0 96 -4 97 -10z m3467 -132 c7 -7 12 -26 12
-43 0 -17 -5 -36 -12 -43 -7 -7 -26 -12 -43 -12 -17 0 -36 5 -43 12 -13 13
-16 56 -6 82 7 19 74 22 92 4z m-680 -370 c17 -17 15 -73 -2 -87 -8 -7 -30
-11 -48 -9 -30 3 -33 6 -36 42 -2 21 -1 44 2 52 7 17 67 19 84 2z m220 0 c7
-7 12 -26 12 -43 0 -17 -5 -36 -12 -43 -14 -14 -57 -16 -76 -3 -14 9 -19 71
-7 90 9 15 68 14 83 -1z m-1368 -23 c6 -15 17 -25 30 -25 13 0 24 10 30 25 8
20 16 25 44 25 44 0 50 -11 32 -53 -19 -46 -51 -67 -104 -67 -52 0 -90 23
-109 67 -17 42 -11 53 33 53 28 0 36 -5 44 -25z m-1081 -3 c66 -33 62 -124 -6
-130 -28 -3 -32 0 -38 27 -18 84 -121 77 -167 -12 -27 -51 -30 -178 -7 -242
17 -48 68 -85 116 -85 37 0 103 26 103 41 0 21 38 8 42 -14 13 -68 -45 -101
-167 -95 -76 3 -87 6 -122 34 -53 44 -85 109 -91 192 -9 136 35 238 121 281
55 27 166 29 216 3z m2766 4 c46 -19 75 -69 75 -127 0 -60 -30 -105 -97 -144
-48 -28 -52 -33 -53 -67 0 -34 -3 -38 -25 -38 -24 0 -25 2 -25 65 0 57 3 66
23 76 65 34 98 98 77 150 -25 58 -104 48 -116 -16 -7 -39 -25 -45 -62 -19 -40
27 -27 95 23 122 29 16 140 14 180 -2z m-775 -76 l0 -40 125 0 125 0 0 -158
c0 -110 4 -162 12 -170 17 -17 78 -15 100 5 15 14 18 32 18 120 0 113 -8 139
-46 154 -16 6 -24 15 -22 27 3 14 16 17 81 20 l77 3 0 -159 c0 -163 4 -182 42
-182 13 0 18 -8 18 -25 l0 -25 -220 -2 c-399 -4 -360 -7 -384 25 -18 24 -20
42 -21 165 l-1 137 -27 3 c-39 5 -37 44 3 59 20 7 35 24 45 47 13 30 20 36 45
36 28 0 30 -2 30 -40z m-1654 -55 c39 -30 67 -97 62 -151 l-3 -39 -107 -3
c-119 -3 -120 -4 -97 -71 19 -53 84 -69 132 -31 32 25 44 25 52 0 8 -27 -18
-68 -51 -80 -14 -6 -52 -10 -84 -10 -49 0 -64 4 -91 27 -72 61 -93 201 -44
299 32 64 64 83 139 84 48 0 65 -5 92 -25z m498 15 c60 -23 57 -110 -4 -110
-22 0 -30 5 -30 18 0 10 -6 26 -13 36 -11 15 -17 17 -35 7 -27 -14 -29 -52 -4
-73 9 -9 36 -25 60 -37 60 -30 84 -73 79 -135 -4 -40 -11 -55 -36 -78 -28 -25
-39 -28 -102 -28 -61 0 -73 3 -94 25 -30 29 -33 75 -6 99 27 25 55 17 59 -16
4 -35 26 -52 57 -44 20 5 25 13 25 39 0 29 -6 36 -60 66 -74 40 -95 70 -95
132 0 49 21 83 60 100 28 11 109 11 139 -1z m930 -29 c30 -28 50 -75 42 -96
-3 -10 -19 -15 -44 -15 -32 0 -41 5 -50 25 -17 36 -58 50 -88 30 -49 -32 -31
-50 77 -80 59 -16 102 -52 112 -94 12 -50 -35 -122 -87 -132 -14 -3 -18 -15
-20 -56 -3 -53 -37 -123 -60 -123 -7 0 -22 9 -34 20 -18 17 -20 25 -12 40 6
11 13 39 15 64 4 42 4 43 -35 59 -44 17 -80 66 -80 110 0 25 3 27 40 27 30 0
42 -5 47 -17 13 -36 36 -53 73 -53 44 0 69 23 53 48 -5 10 -43 28 -84 42 -93
32 -98 35 -115 76 -18 42 -1 98 38 127 54 40 169 39 212 -2z m-549 -1 c36 -33
44 -75 47 -228 l3 -133 -60 1 c-33 1 -81 -2 -106 -6 -96 -14 -159 35 -159 123
0 76 49 113 167 128 29 4 55 11 59 16 8 14 -42 59 -67 59 -11 0 -34 -13 -49
-30 -21 -22 -37 -30 -63 -30 -47 0 -53 12 -26 59 30 55 68 71 156 68 60 -2 76
-6 98 -27z m6901 -70 c5 -5 41 -21 79 -35 39 -15 75 -30 80 -34 6 -5 33 -16
60 -26 28 -10 56 -23 63 -28 9 -7 12 -57 12 -188 0 -150 -2 -179 -15 -179 -18
0 -100 32 -181 71 -34 16 -68 29 -76 29 -7 0 -24 7 -36 16 -21 15 -22 21 -22
193 0 189 5 212 36 181z m-8675 -65 c3 -2 3 -20 1 -40 l-4 -35 -94 0 -94 0 0
40 0 40 93 0 c52 0 96 -2 98 -5z m3277 -137 c7 -7 12 -26 12 -43 0 -41 -16
-55 -61 -55 -40 0 -49 11 -49 59 0 35 17 51 55 51 17 0 36 -5 43 -12z m-290
-370 c7 -7 12 -26 12 -43 0 -38 -16 -55 -51 -55 -52 0 -73 54 -38 96 14 17 61
18 77 2z m-2433 -24 c68 -32 67 -125 -2 -132 -28 -3 -32 0 -38 28 -10 46 -46
66 -95 51 -51 -15 -74 -46 -90 -121 -15 -70 -2 -172 27 -217 20 -31 63 -53
103 -53 35 0 100 27 100 41 0 5 8 9 19 9 12 0 20 -9 24 -27 12 -62 -41 -93
-158 -93 -86 0 -117 12 -162 64 -72 81 -85 250 -28 355 28 51 76 92 121 104
45 11 147 6 179 -9z m3061 -66 c-10 -101 -13 -108 -45 -108 -27 0 -28 1 -37
86 -5 47 -8 87 -5 90 2 2 24 4 49 4 l45 0 -7 -72z m136 67 c2 -3 0 -42 -6 -87
l-11 -83 -30 0 -30 0 -11 83 c-6 45 -8 84 -6 87 3 3 24 5 47 5 23 0 44 -2 47
-5z m-1002 -75 l0 -40 43 -1 c23 -1 79 0 125 1 l82 2 0 -166 0 -166 30 -6 c23
-5 30 -12 30 -29 0 -22 -3 -22 -176 -29 -231 -9 -227 -13 -230 194 -1 105 -5
135 -15 136 -8 1 -20 2 -26 3 -7 0 -13 12 -13 26 0 18 5 25 18 25 23 0 47 25
61 63 8 21 17 27 41 27 28 0 30 -2 30 -40z m-1863 -50 c42 -25 62 -65 70 -140
l6 -60 -110 0 c-60 0 -112 -3 -115 -6 -9 -8 12 -77 30 -96 21 -25 83 -23 115
2 14 11 30 20 35 20 17 0 24 -37 12 -59 -20 -38 -51 -51 -121 -51 -59 0 -72 4
-100 27 -17 15 -40 45 -50 68 -21 45 -25 139 -9 197 12 43 53 96 84 108 39 16
119 11 153 -10z m613 3 c44 -25 54 -57 60 -193 5 -124 5 -125 33 -138 16 -8
27 -21 27 -33 0 -17 -7 -19 -80 -19 l-80 0 0 149 c0 144 -1 151 -22 165 -32
23 -65 20 -94 -9 -24 -24 -25 -29 -22 -137 3 -110 3 -112 28 -118 16 -4 26
-14 28 -28 3 -22 1 -22 -106 -22 -60 0 -111 3 -114 6 -14 13 6 42 33 48 l29 6
0 131 0 131 -30 11 c-22 9 -30 17 -28 32 3 17 12 20 67 23 41 2 67 -1 71 -8 5
-9 15 -8 36 4 39 21 128 20 164 -1z m270 -148 c3 -82 9 -156 13 -162 5 -7 26
-13 47 -13 60 0 75 30 76 149 1 52 0 101 -3 107 -2 7 -17 17 -33 23 -19 6 -28
15 -26 28 3 16 13 18 77 18 l74 0 5 -160 5 -160 28 -13 c15 -7 27 -21 27 -32
0 -16 -10 -19 -66 -22 -49 -2 -68 1 -74 11 -6 12 -11 11 -31 -3 -16 -11 -44
-16 -87 -16 -58 0 -67 3 -92 30 -34 36 -40 65 -40 196 l0 103 -30 16 c-29 15
-38 34 -23 49 4 4 39 5 78 4 l70 -3 5 -150z m754 126 c29 -28 50 -75 42 -96
-3 -10 -19 -15 -45 -15 -35 0 -42 4 -47 25 -10 40 -86 49 -108 12 -15 -24 10
-42 80 -58 30 -7 68 -25 89 -41 30 -26 35 -35 35 -74 0 -56 -22 -91 -69 -110
-34 -13 -36 -17 -33 -52 4 -42 -34 -125 -60 -130 -8 -2 -25 5 -37 15 -21 17
-21 20 -7 55 9 21 16 51 16 67 0 25 -6 31 -34 41 -54 18 -103 87 -89 128 7 20
82 15 90 -5 13 -36 36 -53 73 -53 44 0 69 23 53 48 -5 9 -45 29 -87 43 -86 29
-102 41 -115 86 -12 42 18 105 62 127 49 25 158 18 191 -13z m686 -118 c0
-164 7 -183 65 -183 57 0 70 26 73 152 l4 109 -31 12 c-22 8 -31 18 -31 34 0
22 4 23 75 23 l75 0 0 -158 c0 -163 4 -182 42 -182 13 0 18 -8 18 -25 0 -24
-2 -25 -69 -25 -47 0 -71 4 -74 13 -3 9 -9 7 -24 -5 -24 -22 -140 -25 -165 -5
-41 33 -48 58 -48 179 0 105 -2 120 -20 138 -11 11 -24 20 -29 20 -10 0 -21
36 -13 44 3 3 38 6 79 6 l73 0 0 -147z m5529 67 c9 -4 41 -18 71 -30 30 -12
79 -33 108 -46 l52 -25 0 -179 c0 -98 -3 -181 -7 -183 -5 -3 -39 9 -78 25 -38
17 -98 41 -133 54 -34 13 -74 31 -87 40 l-25 16 0 177 c0 98 3 180 6 183 5 6
51 -10 93 -32z m-8739 -120 l0 -40 -95 0 -95 0 0 33 c0 19 3 37 7 40 3 4 46 7
95 7 l88 0 0 -40z m3928 -102 c7 -7 12 -26 12 -43 0 -41 -16 -55 -61 -55 -40
0 -49 11 -49 59 0 35 17 51 55 51 17 0 36 -5 43 -12z m-2424 -1174 c33 -32 8
-104 -36 -104 -25 0 -58 35 -58 62 0 49 61 76 94 42z m2186 -223 c5 -247 4
-240 53 -255 12 -4 17 -14 15 -28 -3 -21 -9 -23 -71 -26 -54 -2 -68 0 -73 13
-5 13 -10 13 -39 -5 -68 -42 -160 -14 -197 60 -23 44 -25 204 -4 253 25 59 60
82 124 82 31 0 67 -4 80 -8 22 -8 23 -7 20 40 -3 41 -6 48 -26 51 -26 4 -37
24 -28 47 5 13 20 15 73 13 l68 -3 5 -234z m4244 223 c33 -33 6 -104 -39 -104
-25 0 -55 33 -55 60 0 49 61 77 94 44z m220 0 c21 -20 20 -68 0 -85 -41 -34
-94 -8 -94 45 0 47 61 73 94 40z m-7939 -114 c98 -278 93 -266 103 -240 5 14
28 77 51 140 24 63 50 134 58 158 l16 42 88 0 c48 0 90 -4 93 -8 12 -20 -7
-51 -33 -54 l-26 -3 -3 -192 -2 -192 30 -8 c16 -4 30 -11 30 -15 0 -5 0 -17 0
-28 0 -19 -7 -20 -103 -20 -57 0 -106 2 -109 5 -13 13 5 54 26 57 20 3 21 8
23 163 l2 160 -30 -85 c-111 -316 -101 -295 -134 -295 -30 0 -30 0 -96 193
-37 106 -69 195 -73 199 -8 8 -6 -192 3 -272 5 -52 9 -60 29 -63 17 -3 22 -10
22 -33 l0 -30 -92 3 c-91 3 -93 4 -93 27 0 19 7 27 33 33 l32 9 -2 192 -3 192
-28 3 c-30 4 -43 22 -33 47 5 13 22 15 96 13 l91 -3 34 -95z m2305 81 c54 -28
80 -74 80 -141 0 -96 -52 -152 -158 -172 l-63 -12 3 -55 c3 -56 3 -56 38 -61
29 -4 35 -9 35 -30 l0 -25 -117 -3 -118 -3 0 31 c0 25 4 30 25 30 16 0 28 7
33 19 4 11 5 100 2 198 l-5 178 -26 3 c-19 2 -28 10 -32 27 -2 14 -2 27 1 30
3 3 64 5 136 5 109 0 137 -3 166 -19z m2433 -8 c8 -16 38 -94 67 -176 29 -81
55 -145 58 -142 3 3 33 81 67 173 l62 167 91 3 92 3 0 -31 c0 -25 -4 -30 -25
-30 -14 0 -29 -8 -35 -19 -6 -11 -10 -90 -10 -183 0 -172 5 -193 45 -200 13
-2 21 -12 23 -31 l3 -28 -108 3 c-108 3 -108 3 -108 28 0 18 6 26 22 28 31 5
34 24 31 187 l-3 140 -65 -190 -65 -190 -30 0 c-30 0 -31 2 -81 145 -28 80
-60 168 -70 195 l-19 50 -3 -95 c-1 -52 1 -126 5 -165 7 -63 10 -70 31 -73 19
-3 23 -9 20 -30 l-3 -27 -90 0 c-89 0 -90 0 -90 25 0 17 6 26 20 28 43 8 45
17 45 197 0 96 -3 180 -6 189 -3 9 -17 16 -30 16 -26 0 -40 20 -30 45 4 12 24
15 90 15 83 0 86 -1 99 -27z m3692 -3 c0 -20 -6 -26 -30 -30 l-30 -5 -3 -192
-2 -192 32 -9 c26 -6 33 -14 33 -33 0 -24 -1 -24 -111 -27 -108 -3 -112 -2
-117 19 -8 30 -1 39 29 39 17 0 27 8 34 26 13 34 13 330 0 355 -6 10 -21 19
-34 19 -17 0 -25 7 -28 25 -3 13 -3 27 0 30 3 3 56 4 116 3 111 -3 111 -3 111
-28z m253 3 c-2 -22 -9 -29 -33 -33 l-30 -5 -3 -192 -2 -192 32 -9 c26 -6 33
-14 33 -33 0 -24 -1 -24 -112 -27 l-113 -3 0 31 c0 25 4 30 25 30 14 0 29 8
35 19 11 22 12 310 1 351 -5 18 -15 26 -34 28 -22 3 -27 8 -27 33 l0 29 116 0
115 0 -3 -27z m-1196 -45 c3 -39 6 -43 33 -48 26 -4 30 -10 33 -42 3 -35 2
-37 -30 -40 -18 -2 -32 -6 -30 -10 1 -5 2 -57 2 -117 l0 -110 33 -3 c19 -2 31
-8 29 -16 -2 -12 20 -10 66 4 10 3 12 35 10 136 -3 128 -4 133 -25 136 -24 4
-41 38 -26 53 6 6 41 9 79 7 l69 -3 5 -165 5 -165 55 0 c65 0 68 4 69 143 1
99 -8 132 -38 132 -20 0 -33 30 -21 49 4 8 31 11 76 9 l69 -3 5 -165 5 -165
28 -3 c24 -3 28 -7 25 -30 l-3 -27 -225 -2 c-124 -1 -230 -2 -237 -3 -7 0 -9
-13 -6 -37 5 -44 -33 -126 -61 -131 -28 -6 -56 26 -46 52 4 12 9 38 11 57 2
19 7 39 12 46 5 7 1 14 -12 18 -36 11 -46 45 -51 180 l-5 130 -30 0 c-28 0
-30 2 -30 40 0 38 2 40 33 43 30 3 32 6 32 41 0 47 4 51 51 51 37 0 38 -1 41
-42z m-6791 -54 c46 -23 58 -64 58 -198 -1 -72 4 -123 10 -129 15 -15 82 -12
92 5 5 7 9 68 9 136 l0 123 -31 11 c-23 8 -29 16 -27 32 3 18 11 21 63 24 48
3 62 0 73 -15 8 -12 15 -14 20 -7 24 38 114 46 155 14 21 -17 26 -18 31 -4 5
12 20 14 78 12 l73 -3 5 -165 5 -165 50 0 50 0 3 133 3 133 -31 11 c-24 8 -30
16 -28 32 3 19 10 21 67 24 44 2 67 -1 72 -10 7 -10 14 -9 38 5 40 23 117 22
158 -3 52 -31 63 -64 63 -192 0 -62 4 -118 8 -124 4 -7 16 -13 27 -15 14 -3
20 -12 20 -29 0 -24 -3 -25 -69 -28 -49 -2 -72 1 -77 10 -5 7 -9 76 -9 154 0
95 -4 144 -12 152 -7 7 -31 12 -55 12 -65 0 -74 -22 -71 -156 3 -106 3 -108
28 -114 18 -4 25 -13 25 -30 l0 -25 -215 0 -215 0 0 25 c0 20 6 26 30 30 l30
5 0 134 0 135 -27 7 c-22 6 -27 3 -32 -15 -5 -22 -43 -46 -72 -46 -8 0 -19 11
-24 25 -14 36 -46 32 -66 -6 -12 -24 -16 -57 -15 -128 1 -52 5 -99 9 -102 4
-4 18 -9 32 -11 19 -2 25 -9 25 -28 0 -25 0 -25 -108 -28 -104 -3 -108 -2
-117 20 l-9 23 0 -22 c-1 -21 -6 -23 -57 -23 -47 0 -57 3 -61 19 -5 18 -7 18
-40 -5 -88 -59 -193 -3 -193 103 0 79 69 133 172 133 38 0 38 0 38 40 0 31 -5
42 -22 51 -13 7 -23 12 -23 12 0 0 -10 -5 -22 -11 -12 -7 -23 -24 -25 -39 -2
-22 -9 -29 -29 -31 -66 -8 -79 89 -16 121 42 21 139 22 178 1z m2033 -3 c20
-17 21 -75 1 -91 -8 -6 -29 -13 -47 -13 -25 -2 -33 2 -36 18 -6 30 -18 38 -41
26 -30 -16 -43 -74 -39 -176 l3 -90 33 -5 c33 -5 37 -11 28 -43 -4 -16 -15
-17 -108 -15 l-103 3 -3 28 c-3 22 1 27 18 27 30 0 41 40 39 149 -1 108 -7
126 -44 135 -19 5 -24 12 -21 29 3 19 10 22 62 25 46 2 61 -1 71 -14 11 -15
14 -15 40 6 23 18 37 21 80 18 28 -3 59 -10 67 -17z m287 -4 c48 -32 70 -80
67 -147 l-3 -55 -108 -3 -108 -3 6 -32 c12 -57 31 -77 74 -77 24 0 48 8 65 21
33 26 56 18 56 -19 0 -73 -145 -109 -218 -55 -56 42 -67 68 -70 168 -5 117 16
173 75 204 53 28 121 27 164 -2z m789 8 c54 -28 60 -47 60 -187 0 -126 0 -128
26 -144 16 -11 24 -24 22 -38 -3 -18 -11 -21 -56 -24 -40 -2 -54 1 -58 12 -6
17 -34 22 -34 8 0 -13 -48 -32 -81 -32 -37 0 -83 23 -103 52 -10 14 -16 44
-16 78 0 46 4 61 23 77 32 31 93 53 143 53 44 0 44 0 44 35 0 26 -6 39 -24 50
-31 21 -60 7 -74 -35 -12 -33 -36 -39 -66 -17 -13 9 -17 23 -14 52 3 34 8 43
38 57 43 22 131 23 170 3z m1670 -7 c63 -43 75 -70 78 -174 3 -80 1 -100 -18
-138 -29 -60 -88 -90 -164 -84 -66 5 -107 34 -136 93 -19 39 -21 59 -18 133 3
79 6 93 32 126 35 47 75 65 142 66 37 0 60 -6 84 -22z m424 1 c20 -16 25 -27
21 -47 -10 -57 -80 -81 -100 -34 -14 31 -46 25 -65 -13 -15 -32 -26 -169 -16
-209 5 -19 14 -25 39 -28 27 -2 32 -7 32 -28 l0 -25 -110 0 c-105 0 -110 1
-113 22 -2 15 5 25 25 35 l28 13 0 125 0 125 -28 13 c-20 10 -27 20 -25 35 3
20 9 22 68 22 47 0 64 -4 63 -12 -4 -17 1 -16 39 7 44 27 107 26 142 -1z m304
2 c59 -30 86 -89 87 -186 0 -106 -27 -164 -89 -194 -82 -40 -183 -16 -226 54
-44 71 -38 227 12 290 43 55 145 72 216 36z m432 -2 l38 -22 28 22 c31 24 104
29 143 8 55 -28 66 -58 71 -200 5 -130 5 -131 30 -137 18 -4 25 -12 25 -30 0
-24 -2 -25 -75 -25 l-75 0 -3 151 c-3 166 -6 175 -62 176 -51 2 -58 -14 -61
-142 l-3 -115 28 -13 c19 -10 26 -20 24 -35 -3 -20 -9 -22 -73 -22 l-70 0 -5
152 c-3 99 -9 156 -17 164 -15 15 -72 14 -87 -1 -11 -11 -24 -192 -18 -237 2
-17 10 -23 27 -23 28 0 45 -37 24 -51 -8 -5 -59 -8 -114 -7 -99 3 -100 3 -100
28 0 19 6 26 25 29 14 1 28 8 32 15 4 6 8 66 8 134 l0 123 -31 11 c-23 8 -29
16 -27 32 3 18 11 21 61 24 33 2 65 -2 72 -8 10 -9 21 -7 42 4 40 22 99 20
143 -5z m608 1 c40 -24 72 -94 72 -155 0 -53 -4 -55 -127 -55 l-96 0 6 -36 c3
-20 14 -45 23 -55 24 -26 84 -25 118 2 25 20 29 20 43 6 40 -40 -34 -107 -118
-107 -47 0 -99 26 -130 63 -44 53 -50 208 -12 277 43 77 147 105 221 60z
m-2959 -25 c35 -18 41 -32 41 -102 0 -47 -4 -59 -29 -84 -45 -44 -136 -35
-160 17 -14 32 -14 106 0 138 21 44 93 60 148 31z m-4469 -651 c0 -16 -14 -42
-34 -65 -46 -51 -66 -121 -66 -235 0 -112 24 -188 73 -231 29 -26 41 -62 25
-78 -10 -10 -86 33 -119 68 -60 61 -74 108 -74 247 0 106 3 132 21 170 24 53
72 103 123 130 47 25 51 25 51 -6z m297 11 c44 -31 28 -92 -26 -97 -19 -2 -26
3 -31 22 -8 32 -44 39 -59 11 -12 -21 -10 -55 3 -68 4 -4 53 -8 109 -8 74 0
102 -3 103 -12 1 -7 2 -16 3 -20 0 -3 12 4 26 17 20 19 36 23 81 23 60 0 82
-13 89 -54 11 -58 -77 -94 -100 -41 -16 36 -44 27 -65 -20 -14 -30 -20 -66
-20 -119 0 -82 10 -106 50 -111 19 -2 25 -9 25 -28 l0 -25 -112 -3 c-111 -3
-113 -2 -114 20 l-2 23 -4 -22 c-4 -22 -8 -23 -124 -23 l-120 0 3 27 c2 19 10
27 28 30 13 2 28 9 32 16 4 6 8 67 8 134 l0 122 -32 3 c-29 3 -33 6 -33 33 0
27 3 30 30 30 27 1 30 4 37 44 8 49 20 66 63 93 37 22 122 24 152 3z m1973
-10 c94 -48 140 -144 140 -295 0 -151 -46 -247 -140 -295 -27 -14 -54 -25 -59
-25 -20 0 -3 52 26 83 52 54 64 90 70 206 7 134 -9 199 -67 266 -39 45 -47 65
-33 78 9 10 8 10 63 -18z m-945 -115 c3 -5 33 -10 66 -10 33 0 69 -5 80 -10
14 -8 26 -7 46 3 34 18 118 12 151 -9 21 -14 27 -13 66 5 53 26 102 27 143 1
52 -31 63 -64 63 -192 0 -62 4 -118 8 -124 4 -7 16 -13 27 -15 14 -3 20 -12
20 -29 0 -24 -2 -25 -75 -25 l-75 0 -3 149 c-1 90 -7 155 -14 163 -17 21 -85
17 -98 -6 -5 -11 -10 -71 -10 -135 0 -111 1 -115 23 -118 16 -2 22 -10 22 -28
0 -24 -2 -25 -70 -25 l-70 0 -5 150 c-3 83 -9 156 -13 163 -10 14 -65 16 -87
2 -12 -7 -15 -34 -15 -132 0 -122 0 -122 25 -128 18 -4 25 -13 25 -30 l0 -25
-113 0 -112 0 0 -35 c0 -83 -78 -140 -191 -140 -74 0 -119 22 -144 69 -25 49
-20 98 15 132 24 24 28 36 23 59 -3 18 0 36 7 45 10 12 8 23 -9 58 -38 79 -21
159 42 197 34 21 106 27 135 11 12 -6 26 -5 42 5 30 16 66 18 75 4z m-448 -27
c33 -22 43 -65 43 -195 0 -115 1 -119 24 -127 16 -7 23 -17 22 -33 -1 -21 -6
-23 -56 -26 -42 -2 -57 1 -67 14 -11 15 -14 15 -39 -5 -31 -24 -95 -28 -132
-7 -59 32 -80 122 -42 183 21 35 72 54 148 57 l43 1 -3 45 c-3 43 -4 45 -37
48 -35 4 -56 -14 -56 -48 0 -22 -43 -25 -66 -4 -40 36 -16 94 47 114 38 12
143 1 171 -17z m1275 -296 c13 -20 9 -65 -8 -81 -19 -19 -68 -21 -81 -3 -40
50 -9 115 50 103 17 -4 35 -12 39 -19z"/>
<path d="M9490 10497 c-30 -15 -38 -42 -39 -132 -1 -94 12 -119 66 -123 62 -5
76 21 72 137 -4 94 -12 112 -54 125 -11 3 -31 0 -45 -7z"/>
<path d="M7736 10513 c-4 -4 -23 -8 -44 -9 -20 -1 -40 -2 -44 -3 -14 -2 -9
-246 4 -259 19 -19 134 -16 142 4 3 9 6 67 6 129 0 106 -1 115 -22 129 -25 18
-32 19 -42 9z"/>
<path d="M3393 10350 c-24 -10 -37 -43 -31 -81 2 -19 10 -25 36 -27 48 -5 72
20 72 75 0 40 -2 43 -27 42 -16 0 -38 -4 -50 -9z"/>
<path d="M3809 10491 c-21 -17 -24 -29 -27 -104 -5 -112 11 -147 67 -147 52 0
63 17 69 105 5 86 -1 118 -28 145 -25 25 -51 25 -81 1z"/>
<path d="M6911 10489 c-10 -11 -21 -31 -24 -45 -4 -23 -3 -24 59 -24 68 0 70
2 53 47 -18 48 -55 57 -88 22z"/>
<path d="M9087 10348 c-9 -7 -21 -26 -27 -41 -15 -41 2 -67 44 -67 44 0 66 26
66 78 0 41 -1 42 -33 42 -18 0 -41 -6 -50 -12z"/>
<path d="M10686 10498 c-14 -13 -28 -35 -32 -50 l-6 -28 65 0 66 0 -9 30 c-11
38 -17 48 -40 60 -15 8 -24 5 -44 -12z"/>
<path d="M5545 10338 c-38 -22 -45 -47 -19 -72 38 -38 128 1 122 53 -3 23 -8
26 -43 28 -22 2 -49 -2 -60 -9z"/>
<path d="M2671 9674 c-12 -15 -21 -35 -21 -45 0 -17 8 -19 61 -19 l62 0 -7 33
c-12 59 -60 75 -95 31z"/>
<path d="M3466 9540 c-35 -11 -46 -25 -46 -65 0 -56 37 -71 84 -34 21 17 26
29 26 65 0 48 -6 51 -64 34z"/>
<path d="M6013 8864 c-36 -56 -25 -212 18 -234 36 -20 79 -2 96 38 21 50 13
174 -12 202 -27 30 -80 27 -102 -6z"/>
<path d="M3152 8883 c-12 -10 -24 -30 -28 -45 l-6 -28 62 0 63 0 -7 33 c-10
53 -47 71 -84 40z"/>
<path d="M5658 8743 c-49 -8 -78 -84 -43 -113 39 -32 105 23 105 89 0 33 -2
33 -62 24z"/>
<path d="M3986 8711 c-24 -26 -17 -53 17 -69 40 -19 91 10 95 56 l3 32 -49 0
c-36 0 -54 -5 -66 -19z"/>
<path d="M7201 8711 c-25 -25 -17 -55 16 -70 20 -9 32 -8 62 6 29 14 37 24 39
51 l3 32 -50 0 c-37 0 -56 -5 -70 -19z"/>
<path d="M4095 8060 c-21 -23 -31 -106 -21 -175 12 -76 83 -100 122 -40 31 48
17 202 -20 227 -21 14 -63 8 -81 -12z"/>
<path d="M2744 8187 c-3 -8 -4 -54 -2 -103 l3 -89 35 3 c53 5 80 40 80 108 0
41 -5 59 -20 74 -23 23 -88 28 -96 7z"/>
<path d="M7540 8081 l-45 -6 -3 -121 c-3 -144 2 -154 78 -154 75 0 80 10 80
149 0 149 2 147 -110 132z"/>
<path d="M3126 7904 c-24 -23 -19 -51 10 -71 25 -16 28 -16 63 3 28 15 37 26
39 52 l3 32 -50 0 c-32 0 -55 -6 -65 -16z"/>
<path d="M4527 8078 c-19 -15 -40 -66 -31 -79 6 -10 107 -13 116 -3 4 3 2 20
-3 37 -9 32 -33 57 -54 57 -6 0 -19 -6 -28 -12z"/>
<path d="M5413 8068 c-12 -13 -23 -34 -25 -48 -3 -24 0 -25 51 -28 69 -4 79 6
55 55 -23 46 -51 53 -81 21z"/>
<path d="M6767 8072 c-8 -9 -20 -30 -26 -45 -13 -34 -3 -39 65 -35 47 3 49 4
47 32 -4 56 -54 84 -86 48z"/>
<path d="M4998 7273 l-48 -4 0 -128 c0 -85 4 -131 12 -139 7 -7 36 -12 64 -12
75 0 84 16 84 151 0 90 -3 108 -18 122 -10 10 -25 16 -33 15 -8 -1 -35 -3 -61
-5z"/>
<path d="M3181 7118 c-52 -9 -61 -19 -61 -70 0 -32 4 -39 26 -44 53 -13 89 27
82 92 -3 29 -4 30 -47 22z"/>
<path d="M4012 7094 c-29 -20 -28 -50 3 -70 20 -13 30 -14 59 -4 36 12 46 26
46 66 0 22 -4 24 -43 24 -23 0 -53 -7 -65 -16z"/>
<path d="M4978 6463 l-48 -4 0 -128 c0 -151 1 -153 86 -149 70 4 72 7 73 148
1 101 -13 142 -47 138 -9 -1 -38 -3 -64 -5z"/>
<path d="M3163 6457 c-19 -8 -43 -52 -43 -78 0 -5 27 -9 60 -9 54 0 60 2 60
21 0 49 -40 83 -77 66z"/>
<path d="M3992 6284 c-27 -18 -28 -45 -4 -67 24 -22 46 -21 83 0 23 14 29 25
29 50 0 32 -1 33 -43 33 -23 0 -53 -7 -65 -16z"/>
<path d="M5178 5653 l-48 -4 0 -128 c0 -85 4 -131 12 -139 7 -7 38 -12 70 -12
54 0 59 2 68 26 6 14 10 70 10 125 0 86 -3 102 -20 119 -11 11 -26 19 -32 18
-7 -1 -34 -3 -60 -5z"/>
<path d="M3153 5642 c-12 -7 -33 -54 -33 -73 0 -5 27 -9 60 -9 56 0 60 2 60
23 0 49 -49 83 -87 59z"/>
<path d="M5873 4029 c-45 -16 -58 -195 -17 -240 23 -26 76 -25 100 2 29 32 32
163 5 205 -20 33 -54 46 -88 33z"/>
<path d="M4778 4152 c-16 -3 -18 -16 -18 -104 l0 -100 38 7 c55 10 73 33 75
92 1 78 -35 118 -95 105z"/>
<path d="M10155 3730 c3 -5 8 -10 11 -10 2 0 4 5 4 10 0 6 -5 10 -11 10 -5 0
-7 -4 -4 -10z"/>
<path d="M3173 3880 c-33 -13 -47 -78 -23 -104 14 -15 60 -9 80 9 14 13 20 31
20 62 0 40 -2 43 -27 42 -16 0 -38 -4 -50 -9z"/>
<path d="M5490 4020 c-11 -11 -20 -24 -20 -29 0 -5 -3 -16 -6 -25 -5 -14 4
-16 60 -16 l66 0 -6 28 c-14 60 -57 79 -94 42z"/>
<path d="M6305 3883 c-32 -8 -55 -34 -55 -62 0 -34 10 -48 35 -52 51 -7 85 30
85 91 0 31 -13 36 -65 23z"/>
<path d="M7952 4043 c-33 -13 -57 -107 -47 -188 9 -66 33 -95 80 -95 54 0 70
33 70 147 0 79 -3 95 -20 112 -21 20 -62 32 -83 24z"/>
<path d="M8692 4043 c-44 -9 -71 -113 -51 -201 13 -59 34 -82 74 -82 51 0 68
28 73 119 5 95 -9 148 -45 162 -13 5 -25 8 -26 8 -1 -1 -12 -4 -25 -6z"/>
<path d="M9718 4023 c-8 -10 -18 -30 -22 -45 l-6 -28 60 0 c56 0 60 2 60 23 0
56 -59 87 -92 50z"/>
<path d="M2628 3223 l-48 -4 0 -123 c0 -99 3 -126 15 -136 22 -18 114 -17 126
1 5 8 8 70 7 139 l-3 125 -25 1 c-14 0 -46 -1 -72 -3z"/>
<path d="M3527 3224 c-10 -10 -9 -106 2 -122 5 -8 21 -12 37 -10 29 3 29 4 29
68 l0 65 -30 3 c-17 2 -34 0 -38 -4z"/>
<path d="M3745 3221 c-3 -6 -15 -11 -26 -11 -16 0 -19 -7 -19 -40 0 -86 -55
-150 -127 -150 -22 0 -33 -5 -33 -14 0 -20 25 -26 87 -23 42 2 56 -2 77 -22
14 -14 26 -31 26 -40 0 -11 4 -10 15 6 8 12 25 23 38 25 22 3 22 6 22 138 l0
135 -27 3 c-14 2 -29 -2 -33 -7z"/>
<path d="M3497 2904 c-4 -4 -7 -27 -7 -50 0 -36 5 -47 25 -60 22 -14 32 -15
64 -5 50 15 63 31 59 78 l-3 38 -65 3 c-36 2 -69 0 -73 -4z"/>
<path d="M3160 3067 c-36 -13 -50 -41 -42 -85 6 -32 47 -40 80 -15 21 16 28
30 30 67 3 52 -3 55 -68 33z"/>
</g>
</svg>
