<?xml version="1.0" standalone="no"?>
<!DOCTYPE svg PUBLIC "-//W3C//DTD SVG 20010904//EN"
 "http://www.w3.org/TR/2001/REC-SVG-20010904/DTD/svg10.dtd">
<svg version="1.0" xmlns="http://www.w3.org/2000/svg"
 width="1159.000000pt" height="1273.000000pt" viewBox="0 0 1159.000000 1273.000000"
 preserveAspectRatio="xMidYMid meet">

<g transform="translate(0.000000,1273.000000) scale(0.100000,-0.100000)"
fill="#000000" stroke="none">
<path d="M0 6365 l0 -6365 5795 0 5795 0 0 6365 0 6365 -5795 0 -5795 0 0
-6365z m3094 3959 c61 -109 118 -120 179 -34 28 40 67 54 82 30 9 -15 -29 -72
-75 -114 -33 -30 -48 -36 -84 -36 -24 0 -51 3 -60 6 -29 11 -96 105 -96 134 0
42 34 51 54 14z m1781 -226 l0 -43 -127 -3 -128 -3 -2 -357 -3 -357 -52 -3
-53 -3 0 360 0 360 -127 3 -128 3 -3 33 c-2 19 -1 39 1 45 3 9 88 12 313 10
l309 -1 0 -44z m961 36 c36 -15 40 -27 24 -68 -8 -22 -16 -26 -47 -26 -65 0
-83 -9 -83 -40 0 -16 -6 -30 -12 -33 -10 -3 -10 -7 -1 -19 14 -17 6 -119 -10
-130 -7 -4 -7 -11 1 -21 7 -8 14 -65 17 -138 8 -207 19 -234 88 -220 18 4 52
3 75 -2 50 -10 126 -2 140 16 15 18 17 46 8 100 -8 55 10 97 43 97 34 0 44
-27 48 -143 5 -108 4 -113 -20 -141 -22 -25 -34 -29 -113 -37 -58 -6 -113 -6
-157 1 -38 6 -72 8 -77 5 -5 -3 -51 -7 -104 -9 -82 -4 -99 -2 -118 14 -33 27
-16 69 39 95 24 12 47 25 53 31 13 13 -8 544 -22 562 -6 7 -26 11 -43 10 -34
-2 -65 15 -65 36 0 6 8 25 19 41 l18 31 133 1 c93 0 143 -3 166 -13z m-2581
-33 c20 -30 28 -57 35 -122 4 -46 13 -95 18 -109 5 -14 17 -70 26 -125 10 -55
24 -131 32 -169 8 -38 14 -82 14 -99 0 -32 33 -77 56 -77 7 0 24 -4 39 -10 22
-8 24 -13 15 -30 -6 -11 -20 -20 -30 -20 -11 0 -20 -4 -20 -9 0 -14 -91 -20
-133 -7 -60 17 -67 37 -29 80 36 42 41 80 13 113 -21 26 -105 33 -161 15 -28
-10 -38 -20 -48 -52 -17 -54 -16 -57 17 -74 24 -13 48 -53 37 -63 -8 -9 -196
-21 -226 -15 -48 10 -54 44 -11 66 16 9 36 16 43 16 19 0 37 33 44 82 3 24 9
52 14 63 17 40 22 61 24 85 10 123 20 197 26 205 4 6 10 30 13 55 3 25 14 72
26 104 11 33 21 69 21 82 0 26 11 35 54 44 57 11 64 9 91 -29z m755 15 c32
-10 63 -48 86 -106 3 -8 10 -23 15 -32 5 -10 9 -47 9 -84 0 -59 -3 -69 -28
-92 -15 -15 -38 -42 -51 -60 l-22 -32 20 -55 c12 -31 21 -73 21 -95 0 -49 27
-120 46 -120 8 0 19 11 24 25 18 47 80 21 80 -33 0 -15 -8 -43 -18 -62 -25
-46 -66 -57 -134 -34 -64 21 -77 50 -87 189 -9 119 -28 162 -76 170 -50 8
-144 0 -157 -13 -16 -16 -29 -181 -17 -204 5 -10 32 -29 59 -43 53 -27 61 -46
36 -80 -11 -16 -33 -20 -141 -26 -135 -8 -150 -6 -159 18 -9 23 7 36 58 52 25
7 50 19 56 26 8 9 13 105 17 274 5 299 1 324 -54 347 -26 11 -34 20 -31 37 5
37 43 47 176 46 68 -1 126 2 130 5 8 9 94 -2 142 -18z m1317 11 c3 -4 14 -2
25 4 27 15 56 2 74 -34 16 -30 16 -32 -9 -52 -19 -17 -35 -21 -75 -19 -42 2
-54 -2 -74 -23 -26 -28 -27 -37 -25 -268 1 -82 0 -181 -1 -219 -1 -39 3 -75 9
-83 8 -9 37 -13 91 -13 72 0 79 -2 87 -22 12 -32 -5 -73 -35 -87 -14 -6 -29
-9 -33 -6 -5 2 -97 5 -205 6 -213 3 -228 6 -219 53 8 40 35 59 67 46 35 -13
106 2 126 28 12 15 15 58 14 253 -1 266 -7 325 -36 340 -14 8 -23 8 -31 0 -17
-17 -113 -14 -131 4 -12 12 -13 22 -4 45 5 17 15 33 21 38 25 16 349 24 364 9z
m-2714 -12 c47 -20 76 -19 99 2 28 25 70 7 85 -37 12 -38 7 -258 -8 -274 -4
-5 -18 -6 -32 -3 -17 5 -34 27 -63 83 -44 86 -86 122 -153 131 -45 6 -129 -28
-137 -56 -3 -9 -11 -29 -19 -46 -33 -74 -35 -290 -3 -380 31 -87 40 -95 110
-95 89 0 150 34 182 103 14 28 26 75 28 102 3 50 3 50 39 53 30 3 39 -2 54
-24 24 -37 16 -117 -14 -145 -11 -11 -21 -30 -21 -43 0 -45 -59 -102 -140
-136 -87 -38 -136 -36 -178 4 -15 13 -44 39 -64 56 -20 17 -47 51 -60 76 -13
25 -29 56 -36 70 -18 33 -20 172 -5 294 9 77 18 108 48 163 20 37 46 72 58 79
71 38 171 48 230 23z m4159 -23 c28 -25 34 -43 42 -123 3 -25 8 -52 11 -60 9
-24 -12 -69 -33 -69 -36 0 -50 31 -54 115 l-4 80 -80 -5 c-43 -3 -118 -5 -167
-5 -48 0 -87 -3 -87 -7 0 -5 -7 -8 -15 -8 -15 0 -21 -47 -19 -162 2 -78 4 -80
81 -72 38 4 71 12 75 18 4 6 8 35 8 64 0 47 2 52 23 52 50 0 52 -8 44 -185 0
-5 3 -37 7 -70 6 -46 4 -65 -8 -80 -20 -28 -49 -9 -57 36 -8 53 -15 59 -75 59
-91 0 -93 -3 -93 -125 1 -74 5 -107 14 -115 16 -13 51 -15 198 -12 133 3 146
12 148 100 1 83 10 106 40 110 14 2 31 -4 39 -12 26 -33 7 -203 -29 -248 -21
-25 -96 -37 -256 -38 -55 0 -131 -5 -169 -10 -129 -19 -178 24 -100 88 l37 30
3 184 c2 101 6 215 8 253 5 90 -10 129 -58 149 -42 18 -55 41 -34 63 20 19
142 29 363 30 168 1 170 0 197 -25z m-2162 -876 c0 -39 -7 -68 -28 -107 -30
-58 -53 -69 -86 -44 -19 15 -19 17 -3 63 9 26 17 65 17 88 0 22 3 44 7 47 3 4
26 7 50 7 l43 0 0 -54z m-178 -310 c18 -8 29 -29 34 -66 2 -20 14 -397 18
-590 1 -39 4 -45 21 -42 11 1 64 4 117 6 90 4 99 3 112 -16 39 -55 -64 -110
-148 -78 -26 10 -80 12 -161 6 -27 -3 -87 -7 -132 -11 -45 -3 -99 -3 -118 1
-35 6 -36 8 -33 48 l3 41 95 5 c70 4 104 10 124 24 l29 18 -8 183 c-5 134 -4
189 5 205 9 16 9 25 1 33 -6 6 -11 38 -11 72 0 33 -4 65 -8 70 -4 6 -50 11
-102 13 -52 1 -103 5 -112 8 -27 8 -23 51 6 66 27 14 238 17 268 4z m544 -21
c21 -45 59 -75 95 -75 21 0 38 12 70 50 30 36 49 50 63 48 32 -5 30 -31 -6
-78 -46 -60 -78 -81 -131 -87 -43 -5 -49 -3 -84 33 -47 47 -73 87 -73 112 0
46 44 44 66 -3z m193 -203 c84 -41 93 -64 103 -251 12 -235 14 -241 54 -198
43 46 74 31 55 -26 -8 -23 -23 -39 -47 -50 -47 -23 -63 -21 -107 8 -30 21 -41
24 -57 15 -40 -21 -143 -50 -180 -50 -56 0 -135 29 -166 61 -36 37 -41 105
-12 166 28 60 75 83 167 83 38 0 72 4 75 9 3 5 30 15 58 21 29 7 59 17 66 23
23 18 14 64 -22 101 -30 32 -39 36 -85 36 -65 0 -91 -23 -91 -79 0 -30 -6 -44
-22 -55 -35 -25 -83 -20 -107 10 -27 34 -26 62 1 118 20 41 26 46 87 65 117
36 144 35 230 -7z m-2529 12 c36 -3 71 -11 78 -16 8 -7 12 -38 12 -90 0 -62
-3 -80 -16 -85 -22 -8 -62 16 -66 41 -4 24 -66 69 -86 61 -8 -3 -41 0 -74 7
l-59 12 -24 -29 c-32 -40 -31 -48 10 -90 l36 -35 95 0 c63 0 104 -5 123 -14
36 -19 89 -79 97 -112 17 -65 -51 -172 -121 -189 -59 -14 -158 -17 -201 -5
-41 12 -45 11 -74 -14 -40 -33 -56 -33 -73 2 -16 32 -16 207 -1 222 17 17 59
-23 72 -68 17 -55 56 -72 158 -70 68 1 83 4 108 25 17 14 36 36 43 50 11 22
11 30 -3 50 -21 33 -89 63 -145 63 -26 0 -59 6 -75 14 -19 10 -33 12 -45 5
-46 -24 -84 3 -112 81 -24 69 -15 100 51 163 36 34 115 40 292 21z m1241 4
c19 -6 46 -20 61 -31 51 -37 61 -77 69 -266 5 -96 13 -179 18 -184 6 -6 19 0
35 18 18 19 31 25 45 20 24 -7 25 -11 11 -52 -11 -29 -62 -63 -97 -63 -9 0
-35 11 -58 25 -23 13 -45 22 -47 19 -15 -15 -121 -45 -173 -50 -119 -11 -215
51 -215 138 0 60 28 116 71 144 31 19 52 24 108 24 40 0 81 6 98 14 15 8 47
20 71 26 24 6 46 18 49 26 9 25 -7 66 -39 96 -24 22 -39 28 -77 28 -66 0 -91
-20 -91 -75 0 -34 -5 -47 -22 -59 -35 -25 -83 -20 -107 10 -27 34 -26 62 1
118 19 39 28 47 77 64 64 23 162 28 212 10z m-615 -34 c61 -21 112 -58 126
-93 6 -14 14 -35 18 -46 34 -85 35 -178 4 -253 -19 -46 -91 -128 -122 -140
-62 -24 -129 -22 -193 4 -41 17 -65 22 -72 15 -18 -18 -27 -110 -14 -149 10
-32 17 -38 50 -43 45 -7 60 -20 55 -45 -3 -17 -16 -19 -128 -22 -94 -2 -130 1
-144 11 -27 20 -14 33 48 51 l53 16 7 160 c4 89 4 166 0 172 -4 6 -6 66 -5
133 1 138 1 138 -77 165 -58 19 -67 44 -20 58 59 17 123 13 152 -9 17 -13 35
-19 49 -16 26 7 162 45 163 46 0 1 23 -6 50 -15z m3836 -978 c12 -20 14 -59
24 -451 6 -229 7 -231 24 -226 13 4 125 11 188 13 30 0 52 -19 52 -48 0 -50
-72 -66 -205 -46 -33 6 -63 8 -67 5 -22 -12 -313 -21 -325 -9 -11 11 -3 80 10
88 7 4 51 8 98 8 72 0 91 3 113 21 l26 21 -6 182 c-5 125 -4 188 4 202 8 15 8
24 0 32 -6 6 -11 35 -10 64 2 83 0 86 -71 88 -34 1 -77 1 -95 1 -68 -2 -96 43
-48 75 19 12 38 14 78 9 29 -3 73 -2 98 3 54 10 96 -2 112 -32z m-2669 20 c49
-20 70 -49 62 -84 -14 -67 -78 -91 -145 -57 -25 13 -30 22 -30 51 0 50 32 93
78 103 1 1 17 -5 35 -13z m-518 -219 c22 -12 53 -30 68 -41 35 -25 75 -106 83
-168 6 -39 3 -49 -15 -65 -19 -16 -42 -18 -184 -19 -233 -1 -251 -9 -212 -83
31 -61 92 -95 187 -104 44 -4 51 -2 98 39 42 36 59 44 91 44 34 0 39 -3 39
-24 0 -36 -36 -74 -104 -108 -54 -29 -70 -32 -146 -32 -80 0 -88 2 -132 32
-104 72 -154 176 -142 298 12 127 60 198 159 232 102 36 138 36 210 -1z m1275
-3 c55 -27 110 -74 110 -93 0 -9 6 -26 14 -37 8 -12 18 -43 22 -71 5 -43 3
-53 -15 -70 -19 -17 -34 -19 -158 -17 -171 2 -253 -10 -253 -38 0 -53 80 -133
144 -142 109 -17 103 -18 157 30 41 36 57 44 89 44 37 0 40 -2 40 -28 0 -35
-36 -70 -110 -108 -47 -24 -67 -28 -140 -29 l-85 0 -60 45 c-103 79 -141 161
-129 285 11 119 53 188 140 227 89 39 160 40 234 2z m-2541 8 c40 -10 64 -25
92 -56 45 -48 55 -82 39 -131 -14 -41 -35 -55 -84 -55 -30 0 -39 6 -61 37 -14
21 -25 52 -25 70 0 41 -21 53 -95 53 -52 0 -60 -3 -88 -34 -75 -80 -76 -84
-61 -161 7 -39 11 -79 8 -90 -3 -14 8 -33 35 -62 22 -23 42 -39 45 -35 3 3 17
0 30 -8 39 -20 119 13 178 73 43 45 68 54 68 24 0 -7 14 -20 30 -29 17 -9 30
-21 30 -25 -1 -17 -52 -65 -84 -78 -19 -8 -37 -19 -41 -25 -4 -6 -22 -17 -41
-25 -40 -16 -158 -10 -177 10 -7 6 -24 15 -38 18 -35 9 -95 71 -125 129 -29
56 -31 125 -9 213 23 91 35 115 57 115 11 0 18 5 16 12 -6 18 46 58 75 58 14
0 29 5 32 11 9 14 128 9 194 -9z m747 -2 c34 -17 46 -30 63 -72 25 -61 26 -76
5 -106 -12 -18 -25 -22 -63 -22 -56 0 -68 10 -77 68 -6 37 -10 42 -34 42 -39
0 -126 -74 -156 -133 -22 -44 -23 -56 -17 -135 3 -48 11 -90 17 -94 6 -4 31
-8 54 -8 35 0 45 -4 49 -19 3 -13 10 -18 21 -14 12 5 14 2 9 -11 -4 -10 -7
-22 -7 -28 0 -6 -15 -7 -40 -3 -33 6 -40 4 -40 -9 0 -14 -19 -15 -152 -12 -84
2 -154 4 -155 5 -2 1 -3 7 -3 15 0 24 30 46 61 46 37 0 84 23 93 45 3 9 6 85
6 169 0 180 -3 186 -77 190 -74 3 -104 34 -67 70 12 12 37 16 102 16 85 0 88
0 113 -31 l25 -31 62 31 c34 17 72 31 84 31 13 0 30 5 38 10 22 14 39 12 86
-10z m2551 1 c32 -15 46 -29 62 -66 24 -54 26 -74 9 -110 -10 -22 -17 -25 -64
-25 -61 0 -74 14 -74 74 0 34 -2 36 -34 36 -46 0 -127 -68 -160 -134 -23 -45
-25 -58 -19 -130 3 -45 10 -87 16 -93 5 -7 30 -13 54 -13 36 0 46 -4 50 -19 3
-13 10 -18 21 -14 12 5 14 2 9 -11 -4 -10 -7 -22 -7 -28 0 -6 -15 -7 -40 -3
-33 6 -40 4 -40 -9 0 -14 -18 -16 -146 -14 -104 2 -148 6 -156 15 -16 20 18
53 56 53 17 0 46 9 64 20 l32 20 0 163 c0 195 -3 202 -79 202 -34 0 -56 5 -67
17 -16 16 -16 18 0 42 16 25 21 26 102 26 83 0 86 -1 114 -31 l28 -31 63 31
c34 17 72 31 83 31 12 0 28 5 36 10 22 14 40 12 87 -9z m305 -18 c19 -20 21
-31 20 -170 -1 -81 -3 -167 -4 -190 -5 -77 57 -109 148 -78 63 21 113 59 129
99 14 32 12 131 -2 216 -8 42 -11 45 -52 55 -51 12 -72 36 -55 62 14 23 45 31
121 32 53 1 64 -2 73 -20 8 -13 12 -91 11 -217 0 -124 4 -201 11 -209 6 -7 23
-13 39 -13 31 0 69 -34 69 -62 0 -37 -36 -58 -101 -58 -54 0 -64 3 -91 31
l-31 31 -66 -31 c-36 -16 -87 -33 -114 -36 -42 -7 -52 -4 -88 21 -22 15 -51
46 -64 68 -23 40 -24 46 -18 196 7 187 3 200 -62 200 -34 0 -47 5 -59 22 -18
25 -7 54 27 68 39 17 135 6 159 -17z m-1817 -3 c57 -13 76 -41 75 -109 -1 -97
15 -305 24 -319 6 -10 25 -12 75 -8 62 6 69 4 114 -24 26 -16 47 -36 47 -44 0
-14 -26 -46 -37 -46 -20 0 -92 27 -111 41 -24 19 -66 13 -126 -18 -18 -9 -54
-15 -94 -14 -42 0 -71 -4 -85 -14 -12 -8 -40 -15 -62 -15 -33 0 -47 6 -70 30
-24 25 -27 34 -19 48 9 14 32 18 128 22 89 4 119 9 126 20 5 8 9 90 8 182 -1
150 -3 170 -20 184 -16 15 -24 16 -71 4 -65 -15 -154 -4 -171 23 -14 22 2 49
35 58 36 10 189 10 234 -1z m3217 -257 c10 -9 18 -24 18 -33 0 -10 10 -24 23
-33 33 -22 30 -119 -8 -215 -15 -40 -31 -72 -35 -72 -3 0 -27 -29 -53 -64 -39
-53 -53 -65 -84 -71 -31 -6 -39 -3 -55 17 -9 13 -18 29 -18 37 0 13 46 61 103
108 19 15 27 31 27 52 0 28 -3 31 -23 26 -16 -5 -30 3 -55 28 -29 29 -33 41
-35 94 -2 49 2 67 19 90 36 48 139 70 176 36z m-379 -1551 c9 -10 19 -36 23
-60 15 -96 -58 -159 -115 -98 -31 33 -35 124 -7 155 24 26 77 28 99 3z m1031
-4 c3 -13 10 -50 17 -83 6 -33 16 -63 23 -67 8 -5 8 -10 -1 -19 -18 -18 -43
-3 -40 23 3 31 -37 33 -41 1 -4 -24 -30 -39 -45 -24 -6 6 -4 15 5 25 9 8 18
38 22 66 9 67 22 100 41 100 8 0 17 -10 19 -22z m254 -11 c3 -23 8 -27 37 -27
45 0 70 -35 61 -85 -8 -42 -34 -58 -81 -49 l-35 6 0 73 c0 52 -4 76 -15 85
-18 15 -10 32 13 28 10 -2 18 -15 20 -31z m-498 9 c0 -8 -4 -17 -8 -20 -13 -8
-35 11 -28 23 10 16 36 14 36 -3z m1020 0 c0 -15 -24 -28 -34 -19 -13 14 -5
33 14 33 11 0 20 -6 20 -14z m-1660 -46 c12 -12 20 -33 20 -53 0 -18 5 -38 12
-45 6 -6 10 -14 7 -16 -4 -4 -78 -9 -111 -7 -25 1 -33 39 -13 61 11 12 13 20
6 25 -15 9 -14 21 5 39 21 22 50 20 74 -4z m346 -5 c34 -34 27 -49 -26 -55
-48 -6 -62 -23 -31 -40 15 -8 27 -8 42 0 11 7 24 9 27 5 10 -9 -28 -35 -50
-35 -29 0 -68 45 -68 77 0 33 8 46 35 61 30 17 43 15 71 -13z m-148 -35 c2
-25 7 -49 13 -54 24 -25 7 -32 -68 -30 -94 3 -88 1 -76 17 9 10 10 64 3 92 -5
21 2 23 63 21 l62 -1 3 -45z m321 31 c5 -9 11 -38 14 -64 5 -51 -6 -66 -40
-53 -12 5 -14 9 -5 18 15 15 16 85 2 93 -12 8 -37 -10 -50 -35 -6 -11 -4 -26
5 -43 15 -29 11 -37 -20 -37 -29 0 -37 10 -23 27 14 17 13 72 -1 86 -20 20
-12 24 49 24 46 1 62 -3 69 -16z m118 11 c6 -4 13 -27 15 -52 2 -37 7 -45 26
-50 42 -9 18 -24 -45 -27 -65 -3 -86 10 -32 21 28 5 30 8 27 43 -3 33 -7 38
-30 41 -16 2 -28 9 -28 18 0 15 46 20 67 6z m451 -19 c4 -26 -9 -29 -39 -10
-17 10 -22 9 -35 -7 -19 -27 -18 -42 8 -66 16 -14 18 -20 7 -21 -8 -1 -29 -3
-46 -5 -33 -4 -46 12 -18 22 10 4 15 20 15 50 0 32 -4 44 -15 44 -8 0 -15 4
-15 9 0 5 30 9 68 8 61 -2 67 -4 70 -24z m290 11 c26 -18 30 -69 6 -102 -36
-52 -133 -4 -120 60 11 54 67 75 114 42z m183 0 c6 -7 8 -18 4 -24 -9 -14 -32
-13 -38 3 -3 9 -9 9 -23 1 -26 -15 -30 -55 -7 -71 15 -12 16 -15 3 -23 -19
-12 -67 -13 -75 -1 -3 5 4 12 15 16 29 9 29 84 0 92 -36 10 -12 20 49 20 39 1
64 -4 72 -13z m97 4 c7 -7 12 -31 12 -54 0 -38 3 -43 25 -46 14 -2 24 -7 23
-12 -4 -13 -125 -19 -133 -6 -4 6 6 10 24 10 30 0 31 1 31 45 0 41 -2 45 -24
45 -26 0 -40 12 -29 24 11 10 58 7 71 -6z m-1150 -273 l3 -40 -29 28 c-39 37
-64 32 -74 -13 -18 -90 43 -135 76 -56 12 28 14 29 21 12 11 -25 -13 -66 -43
-77 -37 -14 -82 36 -82 91 0 42 14 78 34 93 6 4 29 6 51 5 39 -3 40 -4 43 -43z
m87 25 c5 -8 11 -7 21 1 19 16 30 3 14 -16 -11 -13 -10 -18 2 -28 9 -7 18 -32
21 -57 3 -24 11 -46 16 -48 6 -2 11 -7 11 -12 0 -12 -103 -19 -122 -9 -19 10
-25 54 -9 63 4 3 6 16 4 30 -4 18 1 27 17 36 16 9 19 15 11 23 -6 6 -11 15
-11 19 0 12 18 10 25 -2z m302 -7 c4 -10 11 -22 17 -26 8 -6 7 -10 -1 -14 -16
-6 -18 -103 -3 -103 6 0 10 -7 10 -15 0 -8 -6 -15 -13 -15 -25 0 -37 24 -37
76 0 40 -4 53 -17 59 -17 6 -17 7 0 16 9 6 17 17 17 24 0 21 19 19 27 -2z
m121 0 c-2 -10 -10 -18 -18 -18 -8 0 -16 8 -18 18 -2 12 3 17 18 17 15 0 20
-5 18 -17z m-5717 -21 c34 -1 49 -7 55 -19 4 -10 8 -160 8 -334 1 -297 2 -318
20 -338 11 -12 31 -21 46 -21 15 0 33 -7 40 -15 49 -59 -116 -98 -178 -42 -19
18 -26 19 -40 9 -39 -27 -103 -52 -136 -52 -45 0 -154 50 -187 86 -37 40 -89
164 -89 211 0 21 9 71 20 111 24 88 71 138 156 167 52 18 58 18 127 2 40 -10
80 -17 89 -17 24 0 38 31 38 86 0 65 -19 85 -74 78 -33 -5 -47 -1 -68 16 -33
25 -34 34 -9 59 19 19 28 19 182 13z m5530 -33 c8 -15 6 -21 -7 -26 -9 -3 -20
0 -25 8 -14 22 -43 -3 -47 -40 -3 -23 1 -31 13 -31 33 0 8 -25 -28 -28 -37 -3
-52 13 -22 24 10 4 15 20 15 46 0 31 -4 41 -20 45 -37 10 -10 21 50 21 49 0
62 -4 71 -19z m187 9 c7 -7 12 -31 12 -55 0 -39 2 -43 25 -43 14 0 25 -6 25
-12 0 -9 -21 -14 -65 -15 -38 -2 -65 1 -65 7 0 6 8 10 19 10 29 0 40 21 32 60
-6 29 -11 34 -29 32 -15 -2 -22 2 -22 12 0 19 50 22 68 4z m-108 -157 c0 -20
-13 -35 -23 -25 -7 8 4 44 14 44 5 0 9 -9 9 -19z m-5007 -58 c28 -15 63 -37
75 -48 25 -21 65 -100 76 -147 16 -68 -28 -110 -99 -97 -45 8 -295 -4 -313
-15 -23 -14 -12 -56 23 -95 44 -48 83 -67 158 -75 57 -6 58 -6 103 36 37 34
52 41 87 42 36 1 42 -2 45 -21 5 -36 -51 -89 -128 -119 -59 -23 -79 -26 -138
-22 -56 4 -78 11 -124 41 -100 64 -144 159 -133 286 12 134 54 196 159 237 84
32 143 31 209 -3z m3206 -957 c6 -7 14 -49 17 -92 9 -114 15 -120 121 -129
104 -9 133 -18 133 -44 0 -25 -19 -31 -96 -31 -79 0 -131 -20 -144 -55 -12
-33 -2 -194 16 -259 23 -82 62 -105 124 -73 21 11 24 19 22 48 -3 32 1 39 37
63 52 36 85 32 89 -11 5 -50 -34 -169 -64 -192 -29 -23 -105 -41 -175 -41 -42
0 -56 5 -80 27 -16 16 -29 36 -29 45 0 10 -8 22 -18 27 -10 5 -26 36 -35 69
-17 56 -17 64 -1 175 10 64 15 120 11 123 -3 4 -27 10 -52 15 -53 10 -104 45
-104 72 -1 20 50 46 109 56 l35 6 5 82 c4 68 9 86 29 107 28 30 34 31 50 12z
m583 -42 c25 -51 67 -79 104 -70 13 4 36 23 51 44 35 46 42 52 71 52 40 0 27
-42 -32 -104 -53 -55 -56 -56 -109 -56 -54 0 -56 1 -101 51 -51 56 -65 91 -46
114 21 25 38 17 62 -31z m-4578 21 c61 -26 72 -89 25 -136 -17 -17 -30 -20
-66 -16 -61 7 -88 34 -79 80 4 22 18 46 37 61 36 30 36 30 83 11z m3472 -6
c24 -11 46 -29 49 -40 10 -29 -13 -84 -40 -99 -29 -16 -90 -7 -116 16 -43 39
-3 134 60 143 3 1 24 -8 47 -20z m2207 7 c70 -29 84 -81 35 -133 -30 -33 -117
-26 -140 10 -28 44 12 123 70 136 1 1 17 -5 35 -13z m-471 -78 l3 -73 55 -5
55 -5 3 -37 3 -37 -58 -3 -58 -3 -3 -194 c-3 -226 0 -238 70 -243 43 -3 43 -3
43 -43 0 -37 -2 -40 -35 -47 -66 -14 -137 11 -163 56 -8 14 -14 97 -17 246
l-5 225 -52 3 -53 3 0 39 0 39 53 3 52 3 3 60 c4 83 5 85 56 85 l45 0 3 -72z
m-471 -126 c108 -41 121 -66 130 -256 10 -218 22 -262 57 -205 8 13 21 19 35
17 18 -2 22 -9 20 -33 -5 -66 -99 -99 -156 -55 -27 22 -47 25 -62 11 -22 -19
-113 -41 -172 -41 -92 0 -141 18 -174 63 -25 34 -27 44 -22 90 7 62 34 112 73
132 16 8 62 17 103 19 40 2 88 11 105 20 17 9 41 16 52 16 63 0 80 55 34 109
-37 44 -58 53 -108 46 -61 -10 -70 -17 -68 -64 2 -56 -23 -81 -83 -81 -39 0
-46 4 -60 30 -20 38 -18 56 8 109 20 40 28 47 87 67 78 27 140 29 201 6z
m-3814 -14 c7 -6 21 -34 32 -63 18 -49 19 -65 11 -186 -10 -148 -4 -171 52
-219 24 -20 29 -31 26 -59 l-3 -34 -60 -4 c-70 -4 -141 13 -150 35 -3 8 7 33
22 56 26 40 27 43 24 181 -2 156 -6 181 -28 189 -19 8 -50 -9 -63 -34 -20 -37
-32 -125 -31 -218 2 -88 3 -95 29 -117 39 -34 22 -57 -52 -69 -99 -16 -144 17
-90 67 17 16 27 35 26 54 -7 321 -7 323 -38 323 -9 0 -32 -17 -52 -37 l-37
-38 2 -90 c3 -153 12 -214 34 -225 25 -14 24 -47 -2 -61 -12 -6 -58 -12 -103
-12 -76 -2 -81 -1 -84 20 -2 14 9 33 31 55 l34 34 -2 169 c-2 165 -3 169 -26
187 -59 45 -60 50 -17 76 25 15 31 15 78 0 50 -16 52 -16 103 8 63 29 83 30
121 5 27 -18 32 -18 59 -5 56 30 124 35 154 12z m2121 2 c34 -15 46 -29 62
-65 38 -90 21 -134 -54 -136 -56 -3 -75 17 -76 74 0 35 -1 37 -34 37 -46 0
-127 -68 -160 -134 -23 -45 -25 -58 -19 -130 3 -45 10 -87 16 -93 5 -7 30 -13
54 -13 36 0 46 -4 50 -19 3 -12 11 -17 19 -14 15 6 19 -14 5 -35 -6 -9 -19
-11 -45 -7 -29 6 -36 4 -36 -8 0 -13 -21 -15 -145 -14 -156 2 -183 10 -151 46
10 11 36 21 63 24 80 9 86 21 85 196 -1 83 -4 162 -8 175 -6 27 -26 39 -49 30
-27 -11 -84 6 -96 27 -8 16 -7 25 7 40 14 16 31 19 103 19 84 0 87 0 112 -31
l25 -31 62 31 c34 17 72 31 84 31 13 0 30 5 38 10 22 14 40 12 88 -10z m-1088
-16 c17 -16 20 -38 24 -139 3 -69 0 -142 -6 -172 -8 -40 -8 -59 2 -83 13 -32
55 -60 87 -60 51 1 152 55 179 95 21 33 25 118 10 213 l-11 66 -44 11 c-69 16
-83 63 -26 85 41 16 150 13 165 -5 8 -10 12 -72 12 -217 -1 -128 3 -207 10
-215 6 -7 24 -13 40 -13 31 0 67 -32 68 -59 0 -8 -10 -25 -22 -38 -18 -19 -32
-23 -81 -23 -53 0 -62 3 -88 31 l-29 32 -59 -27 c-33 -14 -84 -31 -115 -38
-52 -10 -58 -9 -91 13 -19 13 -46 41 -60 61 -24 36 -25 43 -25 207 0 192 -3
201 -70 201 -68 0 -87 65 -27 90 37 16 135 6 157 -16z m-1949 -4 c48 -14 78
-68 61 -113 -8 -22 -8 -35 1 -51 6 -12 14 -77 17 -146 l5 -125 67 3 c57 2 76
-2 118 -24 53 -28 66 -58 35 -84 -18 -15 -83 2 -126 33 -25 18 -27 18 -85 -4
-32 -12 -88 -24 -124 -26 -36 -2 -79 -11 -97 -19 -54 -25 -95 -18 -133 21 -28
29 -31 37 -20 50 10 12 35 15 119 15 153 0 145 -11 144 201 0 157 -2 174 -19
186 -14 10 -30 12 -59 7 -84 -17 -178 -6 -189 22 -9 22 10 52 36 57 46 9 214
7 249 -3z m1568 -18 c46 -24 91 -67 91 -88 0 -8 4 -22 9 -32 64 -122 22 -299
-91 -382 -19 -14 -54 -25 -92 -30 -53 -7 -68 -5 -115 16 -83 37 -86 36 -101
-45 -14 -74 5 -113 62 -126 34 -9 44 -16 46 -34 2 -13 -1 -27 -7 -30 -6 -4
-66 -6 -133 -4 -98 2 -125 6 -137 19 -18 19 -21 16 59 44 l45 15 7 105 c3 58
4 190 1 294 -6 166 -9 192 -25 208 -10 10 -27 18 -38 18 -29 0 -70 21 -70 37
0 20 44 33 113 33 48 0 65 -4 83 -21 l22 -21 78 26 c89 29 134 29 193 -2z
m1939 -8 c21 -24 24 -34 18 -80 -4 -31 -2 -55 4 -59 6 -4 10 -53 10 -115 0
-60 5 -121 10 -135 10 -27 11 -27 78 -21 63 6 70 5 115 -24 51 -33 57 -48 28
-74 -17 -15 -24 -16 -63 -5 -23 7 -51 21 -61 31 -20 20 -39 18 -120 -13 -27
-11 -73 -19 -106 -19 -33 0 -71 -7 -87 -15 -47 -24 -91 -19 -125 14 -32 33
-37 56 -13 65 9 3 62 6 119 6 81 0 107 3 119 16 14 13 16 43 15 184 -1 152 -3
170 -20 186 -16 15 -26 15 -76 5 -106 -21 -197 9 -167 56 17 27 50 33 178 29
117 -3 120 -4 144 -32z m2219 2 c19 -23 24 -39 23 -84 -1 -97 15 -306 24 -320
6 -10 24 -12 71 -7 57 6 67 5 109 -20 25 -15 49 -31 52 -36 8 -14 -5 -46 -22
-53 -22 -9 -95 14 -120 36 -21 19 -23 19 -96 -6 -45 -16 -96 -26 -130 -26 -31
0 -69 -7 -84 -15 -49 -26 -98 -20 -128 16 -51 60 -38 67 122 71 78 2 105 7
112 18 5 8 9 90 8 183 -2 203 -4 207 -95 188 -106 -21 -197 9 -167 56 17 27
49 32 178 29 116 -2 119 -3 143 -30z m523 -233 c42 -7 70 -20 70 -33 0 -6 -9
-10 -20 -10 -30 0 -24 -14 15 -33 48 -23 49 -65 3 -101 -24 -19 -28 -26 -15
-26 23 0 22 -12 -5 -37 -31 -28 -120 -38 -159 -17 -23 11 -63 64 -59 76 1 2
-2 11 -6 21 -3 10 -4 38 -1 63 8 71 70 123 127 107 8 -3 31 -7 50 -10z m408
-4 c24 -5 48 -11 53 -14 16 -11 10 -25 -11 -25 -29 0 -24 -16 9 -30 50 -20 50
-84 0 -111 -19 -10 -19 -12 -4 -23 27 -20 -19 -52 -86 -60 -48 -5 -61 -3 -90
17 -19 12 -35 32 -37 42 -2 11 -7 29 -12 40 -17 39 -18 67 -5 98 24 57 81 94
125 79 8 -2 34 -8 58 -13z m-1372 -381 c-9 -63 -35 -126 -64 -151 -19 -18 -22
-18 -46 -2 -30 20 -30 18 -12 70 8 22 18 61 21 88 l6 47 51 0 51 0 -7 -52z"/>
<path d="M3155 9856 c-8 -18 -16 -76 -17 -127 l-3 -94 42 2 c59 2 87 19 78 46
-4 12 -14 58 -22 102 -9 44 -20 86 -25 93 -18 21 -39 13 -53 -22z"/>
<path d="M3764 10031 c-33 -14 -38 -28 -40 -128 -3 -101 4 -112 60 -97 16 4
32 1 41 -6 21 -18 130 14 167 48 58 53 58 124 0 167 -22 16 -45 20 -117 22
-49 2 -100 -1 -111 -6z"/>
<path d="M6350 9743 c0 -5 12 -16 25 -26 21 -15 25 -16 25 -3 0 8 -9 20 -19
26 -23 12 -31 13 -31 3z"/>
<path d="M5135 8404 c-22 -7 -73 -18 -113 -25 -133 -20 -192 -105 -109 -154
48 -29 175 -28 214 1 50 37 73 81 73 140 0 59 -1 60 -65 38z"/>
<path d="M3875 8404 c-22 -7 -75 -19 -118 -25 -71 -11 -80 -15 -113 -51 -22
-25 -34 -47 -32 -61 7 -48 130 -81 215 -58 32 9 51 23 78 58 30 39 35 54 35
99 0 59 -1 60 -65 38z"/>
<path d="M3082 8560 c-53 -50 -60 -80 -54 -231 3 -85 53 -132 152 -143 45 -5
61 -3 88 14 48 30 88 99 96 167 6 50 3 66 -21 119 -37 82 -75 108 -158 111
-58 1 -63 -1 -103 -37z"/>
<path d="M3765 7418 c-16 -6 -39 -18 -50 -28 -11 -9 -28 -20 -38 -23 -21 -8
-42 -50 -34 -71 10 -26 73 -35 203 -29 69 3 127 10 130 14 2 4 2 26 -2 48 -6
36 -10 41 -63 64 -72 32 -109 38 -146 25z"/>
<path d="M5033 7416 c-17 -6 -40 -19 -50 -27 -10 -9 -26 -19 -36 -22 -21 -8
-42 -50 -34 -71 3 -8 22 -19 42 -25 42 -11 283 -2 291 11 3 5 3 26 -1 47 -6
36 -11 41 -63 64 -73 32 -109 38 -149 23z"/>
<path d="M7192 5638 c-19 -19 -15 -92 6 -111 23 -21 46 -22 61 -3 16 19 17 92
1 111 -15 18 -51 20 -68 3z"/>
<path d="M8270 5585 c0 -14 5 -25 10 -25 6 0 10 11 10 25 0 14 -4 25 -10 25
-5 0 -10 -11 -10 -25z"/>
<path d="M8571 5586 c-7 -8 -11 -27 -9 -43 2 -22 9 -29 30 -31 21 -3 30 2 39
21 21 47 -29 91 -60 53z"/>
<path d="M7366 5584 c-4 -9 -4 -19 -2 -21 9 -10 46 9 46 23 0 19 -36 18 -44
-2z"/>
<path d="M7360 5539 c-24 -10 -24 -11 -6 -25 25 -18 31 -18 50 2 32 32 9 44
-44 23z"/>
<path d="M7697 5593 c-15 -15 -5 -23 28 -23 36 0 47 13 19 24 -20 8 -39 8 -47
-1z"/>
<path d="M7525 5578 c-9 -22 -2 -68 10 -71 14 -3 19 63 6 76 -7 7 -12 5 -16
-5z"/>
<path d="M7575 5578 c-9 -22 -2 -68 10 -71 14 -3 19 63 6 76 -7 7 -12 5 -16
-5z"/>
<path d="M8717 5583 c-11 -11 -8 -48 5 -61 18 -18 56 -15 66 6 16 29 -3 62
-36 62 -16 0 -32 -3 -35 -7z"/>
<path d="M8006 5284 c-8 -22 -5 -24 22 -17 25 6 25 26 0 31 -9 2 -18 -5 -22
-14z"/>
<path d="M8015 5243 c-31 -8 -42 -22 -25 -33 8 -5 20 -10 27 -10 17 0 44 30
38 41 -6 9 -8 10 -40 2z"/>
<path d="M2500 5003 c-76 -7 -130 -76 -130 -166 0 -24 -5 -48 -12 -55 -10 -10
-8 -15 9 -27 12 -8 24 -28 28 -45 7 -33 53 -77 91 -86 44 -11 107 5 143 37 24
23 37 46 47 87 17 72 17 159 1 192 -12 25 -90 70 -117 68 -8 -1 -35 -3 -60 -5z"/>
<path d="M3170 5023 c-27 -10 -120 -74 -120 -83 0 -4 -3 -16 -6 -24 -4 -12 3
-20 28 -30 41 -18 291 -17 308 0 6 6 8 27 4 50 -5 37 -10 41 -69 67 -60 25
-111 32 -145 20z"/>
<path d="M7275 3619 c-22 -10 -54 -19 -72 -19 -69 0 -130 -20 -162 -54 -68
-70 -18 -126 111 -126 86 0 108 9 147 61 26 37 31 52 31 101 0 32 -3 58 -7 57
-5 0 -26 -9 -48 -20z"/>
<path d="M3888 3780 c-50 -48 -58 -75 -58 -195 l0 -103 41 -35 c31 -27 53 -37
97 -43 71 -9 78 -8 117 22 40 30 72 94 80 161 6 43 2 61 -20 112 -35 78 -77
107 -160 113 -57 3 -62 2 -97 -32z"/>
<path d="M8718 3473 c7 -3 16 -2 19 1 4 3 -2 6 -13 5 -11 0 -14 -3 -6 -6z"/>
<path d="M9118 3473 c7 -3 16 -2 19 1 4 3 -2 6 -13 5 -11 0 -14 -3 -6 -6z"/>
</g>
</svg>
