<?xml version="1.0" standalone="no"?>
<!DOCTYPE svg PUBLIC "-//W3C//DTD SVG 20010904//EN"
 "http://www.w3.org/TR/2001/REC-SVG-20010904/DTD/svg10.dtd">
<svg version="1.0" xmlns="http://www.w3.org/2000/svg"
 width="1012.000000pt" height="654.000000pt" viewBox="0 0 1012.000000 654.000000"
 preserveAspectRatio="xMidYMid meet">

<g transform="translate(0.000000,654.000000) scale(0.100000,-0.100000)"
fill="#000000" stroke="none">
<path d="M0 3270 l0 -3270 5060 0 5060 0 0 3270 0 3270 -5060 0 -5060 0 0
-3270z m7097 1219 c16 -31 36 -31 43 1 5 23 11 26 40 22 15 -3 12 -45 -6 -70
-11 -16 -25 -22 -51 -22 -44 0 -73 24 -73 60 0 47 26 52 47 9z m-4880 -91 c18
-17 23 -33 23 -70 0 -48 -1 -49 -27 -46 -23 2 -29 9 -31 33 -6 54 -43 73 -76
39 -33 -33 -20 -62 47 -105 72 -44 87 -69 87 -138 0 -86 -59 -126 -150 -101
-43 12 -55 26 -65 83 -8 41 6 67 35 67 20 0 30 -19 30 -55 0 -50 74 -57 86 -9
9 35 -10 72 -47 92 -18 9 -47 30 -65 46 -30 25 -34 34 -34 78 0 27 5 58 11 69
26 50 131 60 176 17z m263 4 c16 -13 24 -32 28 -70 l5 -52 -32 0 c-26 0 -31 4
-31 24 0 44 -10 56 -46 56 -46 0 -54 -23 -54 -159 0 -122 9 -145 55 -139 26 3
31 8 39 45 10 46 25 58 51 39 15 -10 16 -21 11 -60 -6 -39 -13 -51 -39 -67
-18 -10 -45 -19 -60 -19 -45 0 -96 26 -107 55 -13 35 -13 274 1 312 13 38 40
51 105 52 36 1 59 -5 74 -17z m252 -172 c35 -242 35 -230 -2 -230 -31 0 -36 9
-42 75 -3 27 -7 30 -40 33 -39 3 -40 3 -51 -88 -1 -8 -14 -16 -30 -18 -35 -4
-35 0 -2 211 37 232 27 209 88 205 l52 -3 27 -185z m138 10 l5 -175 35 0 35 0
6 145 c4 80 7 160 8 178 1 30 4 33 29 30 l27 -3 0 -183 0 -184 -28 -24 c-39
-34 -115 -34 -154 0 -25 22 -28 31 -31 106 -3 45 -1 129 3 187 l7 104 27 -3
26 -3 5 -175z m306 75 c18 -55 36 -109 40 -120 5 -12 10 29 13 100 6 120 6
120 31 120 l25 0 0 -205 0 -205 -30 0 c-29 0 -31 2 -69 118 -22 64 -41 115
-44 112 -5 -5 -7 -41 -11 -172 -1 -59 -2 -63 -25 -63 -13 0 -26 7 -30 15 -3 8
-3 103 1 211 l6 195 31 -3 c29 -3 31 -7 62 -103z m242 -72 c2 -155 4 -174 21
-182 10 -6 27 -8 38 -5 19 5 21 17 29 182 l9 177 25 0 25 0 3 -155 c4 -238 -4
-260 -106 -260 -50 0 -62 4 -83 26 -24 26 -24 28 -21 201 1 97 5 180 8 185 3
5 16 8 27 6 21 -3 22 -7 25 -175z m272 -8 l5 -180 60 -5 c48 -4 61 -9 63 -24
2 -10 -2 -22 -10 -27 -18 -12 -149 -11 -168 1 -13 8 -14 40 -12 207 2 109 6
202 9 206 3 5 15 7 26 5 21 -3 22 -8 27 -183z m435 150 c22 -21 25 -33 25 -98
0 -95 -16 -118 -86 -126 l-49 -6 -5 -80 c-5 -77 -6 -80 -30 -80 l-25 0 -3 208
-2 207 75 0 c67 0 79 -3 100 -25z m273 -2 c-3 -27 -5 -28 -71 -31 l-68 -3 3
-57 3 -57 53 -3 c35 -2 55 -8 59 -18 10 -26 -17 -44 -68 -44 l-49 0 0 -60 0
-59 68 -3 c64 -3 67 -4 67 -28 0 -25 0 -25 -95 -25 l-95 0 -3 208 -2 207 100
0 101 0 -3 -27z m332 12 c32 -17 43 -44 38 -96 -2 -29 -7 -34 -28 -34 -20 0
-26 6 -28 30 -5 38 -19 55 -47 55 -41 0 -46 -19 -43 -161 l3 -134 37 -3 c39
-3 40 -2 50 63 2 14 11 20 28 20 23 0 25 -4 28 -47 3 -40 -1 -52 -22 -73 -36
-36 -122 -36 -163 -1 l-28 24 3 154 c2 84 5 161 8 171 13 42 108 61 164 32z
m236 0 c10 -24 61 -395 56 -400 -3 -3 -18 -5 -33 -5 -25 0 -28 4 -34 51 -8 54
-20 65 -60 55 -18 -5 -25 -13 -25 -31 0 -45 -18 -75 -45 -75 -28 0 -29 2 -15
85 6 33 19 118 30 188 11 71 22 133 25 138 10 15 95 11 101 -6z m269 1 c27
-12 36 -23 45 -57 13 -49 6 -101 -17 -124 -14 -14 -14 -18 2 -34 12 -14 17
-40 18 -101 1 -45 -2 -85 -8 -90 -5 -4 -20 -4 -32 1 -21 8 -23 15 -23 82 0 83
-10 101 -57 95 l-28 -3 -3 -87 -3 -88 -29 0 -30 0 0 203 c0 112 3 207 7 210
12 13 123 7 158 -7z m315 -21 c0 -23 -3 -24 -67 -27 l-68 -3 0 -60 c0 -46 3
-60 15 -61 8 -1 34 -2 58 -2 39 -2 43 -4 40 -24 -3 -20 -10 -24 -58 -28 l-55
-5 0 -60 0 -60 68 -3 c68 -3 68 -3 65 -30 l-3 -27 -95 0 -95 0 -3 208 -2 207
100 0 c100 0 100 0 100 -25z m321 12 c24 -19 39 -52 39 -90 0 -27 -5 -36 -22
-40 -29 -8 -38 -1 -38 32 0 36 -21 53 -57 49 -24 -3 -28 -8 -31 -39 -3 -35 0
-38 61 -76 51 -32 67 -49 77 -78 15 -46 5 -117 -20 -140 -25 -22 -89 -30 -132
-16 -40 13 -58 44 -58 101 0 38 2 40 30 40 27 0 30 -3 30 -34 0 -40 19 -59 57
-54 25 3 28 7 31 45 3 40 1 44 -38 70 -96 65 -104 75 -104 138 0 50 3 60 27
81 22 19 39 24 80 24 29 0 59 -6 68 -13z m274 -17 c0 -22 -5 -25 -37 -28 l-38
-3 -2 -177 -3 -177 -27 -3 c-18 -2 -28 2 -29 10 0 7 -2 87 -2 178 l-2 165 -35
5 c-29 4 -36 9 -38 33 l-3 28 108 -3 c108 -3 108 -3 108 -28z m161 19 c12 -19
62 -394 54 -402 -4 -5 -18 -7 -31 -5 -19 2 -25 12 -34 53 -10 48 -11 50 -45
50 -32 0 -35 -3 -38 -30 -5 -63 -12 -75 -37 -75 -13 0 -26 4 -29 8 -5 8 49
372 59 400 5 15 91 16 101 1z m172 -201 l2 -208 -30 0 -30 0 0 203 c0 112 3
207 7 211 4 4 16 6 28 4 19 -3 20 -10 23 -210z m459 186 c25 -16 36 -47 31
-90 -2 -23 -9 -30 -30 -32 -25 -3 -28 0 -28 27 0 30 -22 61 -44 61 -27 0 -48
-26 -44 -55 2 -22 16 -38 63 -70 33 -22 65 -51 72 -65 17 -33 16 -83 -1 -125
-19 -44 -76 -64 -135 -47 -52 16 -65 35 -66 96 0 48 2 51 25 51 21 0 26 -6 31
-39 8 -49 32 -66 73 -50 11 4 16 19 16 50 0 42 -2 46 -47 72 -81 47 -93 63
-93 130 0 48 4 62 23 79 35 34 106 37 154 7z m238 -16 c24 -142 52 -375 46
-381 -13 -13 -56 -4 -58 13 -11 91 -12 91 -51 88 -35 -3 -37 -5 -42 -43 -3
-22 -9 -46 -13 -52 -9 -14 -43 -18 -50 -5 -5 7 49 374 58 400 3 7 23 12 54 12
49 0 50 -1 56 -32z m302 -83 c20 -63 41 -115 45 -115 4 0 8 52 8 116 l0 115
28 -3 27 -3 3 -185 c3 -220 2 -230 -37 -230 -28 0 -30 4 -65 113 -21 61 -40
119 -44 127 -4 8 -9 -41 -12 -110 l-5 -125 -25 0 -25 0 -3 195 c-1 107 0 200
2 207 3 7 19 13 35 13 29 0 31 -3 68 -115z m233 83 c1 -18 1 -94 0 -169 -1
-149 4 -163 57 -157 l28 3 5 175 5 175 26 3 c19 2 27 -2 30 -15 2 -10 2 -96
-1 -191 -5 -170 -6 -174 -30 -194 -20 -16 -35 -19 -83 -16 -91 7 -91 8 -95
214 -2 97 -1 182 2 190 3 8 17 14 31 14 21 0 25 -5 25 -32z m-1115 -349 c-8
-97 -12 -109 -35 -109 -24 0 -26 11 -22 108 l4 82 30 0 31 0 -8 -81z m-2005
-104 c12 -31 38 -33 42 -2 5 33 42 30 46 -5 9 -76 -116 -94 -133 -19 -3 17 -4
35 0 41 11 18 35 10 45 -15z m1147 -20 c12 -22 23 -43 23 -47 0 -17 -40 -6
-54 14 l-16 22 -16 -22 c-16 -24 -54 -30 -54 -9 0 7 12 29 26 50 33 49 60 47
91 -8z m2129 -16 c8 -16 14 -33 14 -39 0 -19 -37 -10 -52 12 l-15 22 -12 -22
c-12 -23 -51 -31 -51 -9 0 19 38 71 57 78 22 8 39 -5 59 -42z m-5663 -49 c20
0 25 -50 5 -51 -7 0 -35 -1 -63 -2 l-50 -2 0 -60 0 -60 55 -5 c51 -5 55 -7 55
-30 0 -23 -4 -25 -45 -27 -25 -1 -51 -2 -57 -2 -9 -1 -13 -25 -13 -85 0 -88
-6 -102 -40 -91 -19 6 -20 15 -20 210 0 232 -7 216 95 210 33 -3 68 -4 78 -5z
m115 -209 l-3 -206 -25 0 -25 0 -3 200 c-2 175 0 201 14 212 9 6 22 9 30 6 12
-4 14 -41 12 -212z m262 179 c0 -29 0 -29 -67 -32 l-68 -3 0 -55 0 -55 58 -3
c53 -3 57 -5 57 -27 0 -26 -3 -28 -60 -26 -53 2 -62 -8 -58 -70 l3 -54 68 -3
67 -3 0 -30 0 -30 -97 3 -98 3 -3 195 c-1 107 0 200 2 207 4 9 32 13 101 13
l95 0 0 -30z m257 -90 c21 -66 41 -120 46 -120 4 0 7 54 7 121 l0 120 28 -3
27 -3 3 -185 c3 -221 2 -230 -37 -230 -28 0 -30 3 -66 113 -20 61 -40 119 -43
127 -4 8 -9 -41 -12 -110 l-5 -125 -25 0 -25 0 -3 195 c-1 107 0 200 2 207 3
7 19 13 35 13 30 0 31 -2 68 -120z m236 93 c3 -14 2 -109 -1 -210 l-5 -184
-26 3 -26 3 -3 195 c-1 107 0 200 2 207 3 7 16 13 30 13 18 0 25 -7 29 -27z
m246 3 c22 -20 35 -77 26 -107 -5 -15 -14 -19 -33 -17 -23 3 -28 9 -32 43 -4
35 -8 40 -35 43 -47 6 -55 -16 -55 -152 0 -123 3 -138 30 -148 31 -11 55 8 60
48 4 33 9 39 32 42 32 4 42 -20 32 -73 -9 -51 -44 -75 -111 -75 -44 0 -58 5
-78 25 -24 23 -25 28 -25 177 0 164 6 188 54 209 32 13 113 4 135 -15z m145 8
c8 -20 8 -116 -1 -276 l-6 -128 -29 0 -28 0 0 198 c0 141 3 201 12 210 17 17
45 15 52 -4z m209 5 c56 -15 67 -49 67 -204 0 -157 -11 -189 -69 -205 -29 -8
-52 -8 -81 0 -64 17 -70 34 -70 200 0 164 7 189 60 207 44 15 47 15 93 2z
m323 -24 c25 -25 25 -26 22 -185 -3 -150 -4 -161 -26 -182 -20 -20 -33 -23
-105 -23 l-82 0 -3 195 c-1 107 0 200 2 207 4 9 30 13 86 13 73 0 83 -2 106
-25z m228 3 c8 -35 56 -367 56 -384 0 -20 -56 -19 -64 2 -3 9 -6 26 -6 39 0
42 -10 55 -46 55 -31 0 -34 -3 -39 -37 -11 -66 -15 -73 -41 -73 -31 0 -31 9 1
215 35 225 27 205 85 205 43 0 50 -3 54 -22z m274 -5 c-2 -23 -9 -29 -38 -33
l-35 -5 -5 -175 -5 -175 -25 0 -25 0 -3 178 -2 177 -36 0 c-36 0 -51 17 -40
45 4 12 26 15 111 15 l106 0 -3 -27z m167 5 c7 -30 55 -365 55 -384 0 -20 -56
-18 -64 2 -3 9 -6 26 -6 39 0 40 -11 55 -40 55 -34 0 -39 -6 -48 -62 -6 -37
-11 -43 -35 -46 -34 -4 -34 -2 -2 210 35 229 27 208 85 208 43 0 50 -3 55 -22z
m294 -60 c14 -43 27 -78 31 -78 3 0 17 35 31 78 21 63 29 78 48 80 12 2 29 -2
38 -10 14 -11 15 -32 9 -153 -3 -77 -6 -166 -6 -197 0 -58 0 -58 -30 -58 l-30
0 -1 128 c-1 126 -1 127 -16 84 -15 -43 -41 -66 -60 -54 -5 4 -17 27 -26 52
l-15 45 -1 -115 c-1 -63 -5 -121 -10 -128 -4 -8 -19 -12 -32 -10 l-24 3 0 190
c0 105 3 198 7 208 6 13 16 17 35 15 25 -3 30 -10 52 -80z m362 65 c10 -12 62
-382 55 -399 -7 -17 -42 -19 -53 -1 -4 6 -10 30 -13 52 -5 37 -7 40 -41 43
-35 3 -36 2 -45 -44 -10 -51 -35 -77 -55 -57 -10 10 -6 54 16 200 15 104 32
195 36 205 7 12 19 15 51 12 23 -2 45 -7 49 -11z m177 -183 c3 -206 0 -230
-27 -230 -28 0 -38 20 -36 75 0 28 2 117 3 198 l2 148 28 -3 27 -3 3 -185z
m217 -20 l0 -205 -27 -3 c-34 -4 -34 -5 -30 231 l3 188 27 -3 27 -3 0 -205z
m180 85 l40 -120 5 120 5 120 28 3 27 3 -2 -208 -3 -208 -30 0 c-29 0 -30 2
-71 125 l-42 125 -1 -112 c-1 -61 -4 -118 -7 -127 -8 -22 -51 -21 -55 2 -2 9
-3 104 -1 210 l3 193 32 -3 c31 -3 33 -5 72 -123z m310 113 c7 -19 55 -355 55
-384 0 -20 -5 -24 -29 -24 -28 0 -30 3 -38 53 -8 51 -9 52 -43 52 -34 0 -35
-2 -45 -50 -10 -44 -14 -50 -38 -53 -21 -3 -27 1 -27 15 0 31 58 381 65 392 9
16 95 14 100 -1z m163 -169 l2 -176 38 -7 c20 -3 49 -6 65 -6 22 0 27 -4 27
-25 0 -25 0 -25 -95 -25 l-95 0 0 203 c0 112 3 207 7 211 4 4 16 6 28 4 19 -3
20 -10 23 -179z m321 167 c19 -23 2 -46 -35 -46 l-34 0 0 -134 c0 -171 -7
-223 -30 -229 -36 -9 -40 12 -40 190 l0 173 -34 0 c-35 0 -46 12 -38 43 4 15
17 17 102 17 71 0 101 -4 109 -14z m432 -22 c24 -25 24 -29 21 -181 -1 -85 -7
-164 -12 -174 -14 -25 -74 -41 -140 -37 l-55 3 -3 208 -2 207 83 0 c77 0 85
-2 108 -26z m277 -1 c-3 -27 -5 -28 -70 -31 l-68 -3 0 -59 0 -59 57 -3 c47 -2
58 -6 61 -22 5 -26 -15 -36 -70 -36 l-48 0 0 -60 0 -59 68 -3 c65 -3 67 -4 70
-31 l3 -28 -98 3 -98 3 -3 208 -2 207 100 0 101 0 -3 -27z m222 12 c32 -17 43
-44 38 -96 -2 -29 -7 -34 -28 -34 -17 0 -26 6 -28 20 -9 62 -11 65 -47 65 -44
0 -47 -9 -43 -170 l3 -125 34 -3 c39 -4 51 9 51 56 0 29 3 32 30 32 29 0 30
-2 30 -44 0 -24 -3 -52 -6 -61 -18 -45 -131 -61 -178 -24 l-26 20 0 160 c0 94
4 169 11 180 20 39 106 52 159 24z m246 1 c9 -23 62 -391 57 -398 -2 -5 -17
-8 -32 -8 -26 0 -29 4 -37 53 -9 51 -10 52 -44 52 -23 0 -35 -5 -37 -15 -11
-86 -13 -90 -43 -90 -17 0 -30 3 -30 8 0 15 61 388 65 400 6 17 94 16 101 -2z
m279 -6 c9 -29 -2 -40 -40 -40 l-35 0 -2 -177 -3 -178 -27 -3 c-37 -4 -39 10
-36 198 l3 155 -37 3 c-35 3 -38 6 -38 33 l0 29 104 0 c96 0 105 -2 111 -20z
m-1379 -351 c-9 -91 -21 -121 -44 -117 -14 3 -17 16 -20 82 -2 44 -1 85 2 93
3 7 20 13 37 13 l32 0 -7 -71z m-1900 -114 c8 -32 41 -34 46 -2 2 14 10 22 23
22 16 0 20 -6 18 -33 -2 -44 -19 -62 -61 -62 -43 0 -72 24 -72 60 0 46 35 58
46 15z m-2718 -84 c58 -1 74 -4 79 -17 8 -21 -21 -44 -47 -37 -11 3 -22 -1
-25 -8 -3 -8 -9 -90 -13 -184 l-7 -170 -25 0 -25 0 -5 180 -5 180 -32 3 c-27
3 -33 8 -33 27 0 25 14 35 45 30 11 -2 53 -4 93 -4z m310 -25 c6 -27 -15 -36
-81 -36 l-58 0 3 -57 3 -58 55 -5 c47 -4 55 -8 55 -25 0 -17 -8 -21 -55 -25
l-55 -5 -3 -62 -3 -62 68 -3 c65 -3 68 -4 68 -28 0 -25 0 -25 -95 -25 l-95 0
-3 208 -2 208 97 -3 c86 -3 98 -5 101 -22z m197 15 c6 -11 55 -354 55 -388 0
-19 -6 -23 -29 -23 -28 0 -30 3 -38 53 -8 51 -9 52 -43 52 -34 0 -35 -2 -45
-50 -9 -40 -15 -51 -33 -53 -12 -2 -24 3 -27 10 -6 14 51 383 61 399 7 12 91
11 99 0z m210 -116 l40 -120 2 100 c4 131 8 147 36 143 22 -3 22 -5 25 -211
l2 -208 -32 3 c-31 3 -32 5 -72 123 l-41 120 -5 -120 -5 -120 -27 -3 -28 -3 0
204 c0 112 3 207 7 211 4 4 19 6 33 4 23 -3 29 -14 65 -123z m332 115 c38 -14
55 -46 51 -96 -3 -34 -6 -39 -28 -39 -20 0 -26 6 -28 30 -5 38 -19 55 -46 55
-41 0 -46 -17 -46 -157 0 -129 1 -134 22 -142 45 -17 60 -3 70 64 2 14 11 20
28 20 23 0 25 -4 28 -47 3 -40 -1 -52 -22 -73 -34 -33 -120 -36 -160 -4 l-26
20 0 162 c1 172 4 187 51 206 32 13 70 13 106 1z m161 -165 c2 -145 5 -172 19
-182 20 -15 33 -16 53 -3 12 7 16 43 20 182 l5 173 25 0 25 0 0 -188 c0 -186
0 -189 -24 -208 -36 -30 -124 -27 -156 6 -25 24 -25 26 -25 203 0 98 3 182 7
186 4 4 16 6 28 4 19 -3 20 -10 23 -173z m274 -12 l3 -178 63 -3 c62 -3 63 -3
60 -30 -3 -26 -5 -27 -73 -30 -125 -5 -115 -24 -115 213 l0 205 30 0 30 0 2
-177z m455 153 c28 -24 28 -25 31 -164 5 -209 -12 -236 -147 -230 l-66 3 -3
195 c-1 107 0 200 2 207 4 9 29 13 80 13 65 0 79 -3 103 -24z m278 -6 c0 -24
-4 -25 -65 -30 l-65 -5 0 -55 0 -55 55 -5 c51 -5 55 -7 55 -30 0 -23 -4 -25
-57 -28 l-58 -3 0 -59 0 -59 68 -3 c65 -3 67 -4 70 -31 l3 -28 -98 3 -98 3 -3
195 c-1 107 0 200 3 208 3 9 28 12 97 10 92 -3 93 -3 93 -28z m320 16 c37 -16
55 -56 47 -108 -4 -25 -9 -29 -31 -26 -22 3 -27 9 -31 43 -4 35 -9 40 -33 43
-52 6 -57 -8 -57 -147 0 -69 4 -132 9 -139 5 -8 22 -12 42 -10 31 3 34 6 39
43 4 35 9 40 33 43 27 3 27 2 27 -52 0 -47 -4 -57 -26 -75 -40 -32 -126 -29
-159 4 -24 23 -25 28 -25 177 0 125 3 158 16 176 29 42 89 53 149 28z m250 3
c4 -5 18 -85 31 -177 13 -92 26 -182 29 -199 6 -31 4 -33 -25 -33 -32 0 -35 3
-45 63 -5 34 -8 37 -41 37 -37 0 -39 -3 -49 -63 -5 -34 -9 -38 -33 -35 -32 4
-32 -14 4 223 15 99 32 183 38 187 17 12 84 9 91 -3z m287 -10 c41 -22 52
-129 19 -170 -18 -23 -18 -25 -3 -43 13 -14 17 -38 17 -104 0 -78 -2 -87 -19
-90 -31 -6 -46 26 -46 99 0 75 -12 92 -57 87 -28 -3 -28 -3 -33 -93 -5 -94 -4
-92 -50 -86 -15 2 -13 394 1 408 13 13 143 7 171 -8z m288 -14 c0 -25 -28 -40
-61 -33 -12 2 -15 -28 -19 -177 l-5 -180 -25 0 -25 0 -5 180 -5 180 -37 3
c-33 3 -38 7 -38 28 0 24 0 24 110 24 l110 0 0 -25z m95 3 c3 -13 2 -106 -2
-208 l-8 -185 -25 0 -25 0 -3 195 c-1 107 0 200 2 207 3 7 17 13 30 13 18 0
27 -7 31 -22z m340 -1 c21 -18 28 -34 32 -82 7 -78 -14 -132 -54 -140 -95 -20
-88 -12 -91 -98 l-3 -78 -27 3 -27 3 -3 195 c-1 107 0 200 2 207 4 9 28 13 75
13 58 0 74 -4 96 -23z m274 9 c6 -7 9 -21 5 -30 -5 -12 -20 -16 -69 -16 l-63
0 -4 -56 c-1 -31 -1 -58 1 -60 2 -2 29 -4 58 -4 53 0 54 -1 51 -27 -3 -26 -7
-28 -58 -33 l-55 -5 0 -55 0 -55 62 -3 c48 -2 65 -7 72 -21 19 -34 -1 -42
-100 -39 l-94 3 -3 185 c-1 102 0 195 3 208 5 21 10 22 94 22 63 0 92 -4 100
-14z m316 -1 c39 -16 58 -51 53 -99 -2 -25 -8 -32 -30 -34 -18 -2 -28 1 -29
10 -3 55 -17 78 -49 78 -39 0 -45 -16 -48 -135 -4 -136 0 -161 30 -168 32 -9
58 10 58 41 0 51 54 74 66 28 8 -33 -13 -104 -36 -116 -33 -18 -125 -12 -151
9 -23 18 -24 26 -27 168 -4 168 3 197 50 218 42 18 70 18 113 0z m244 -4 c11
-18 63 -390 56 -401 -8 -14 -39 -12 -53 2 -7 7 -12 24 -12 39 0 46 -10 59 -45
59 -34 0 -45 -16 -45 -67 0 -23 -33 -48 -50 -38 -6 3 -10 18 -10 33 1 57 58
374 69 381 18 11 82 5 90 -8z m306 -16 c32 -31 36 -120 6 -156 -18 -23 -18
-24 1 -49 16 -22 18 -40 16 -106 -3 -77 -4 -79 -28 -79 -24 0 -25 3 -30 82 -3
45 -8 84 -12 88 -4 4 -22 8 -40 8 l-33 2 -5 -82 c-5 -89 -18 -115 -48 -97 -15
10 -17 32 -17 185 -1 249 -9 229 87 229 70 0 82 -3 103 -25z m280 15 c3 -6 3
-19 0 -30 -5 -17 -15 -20 -71 -20 l-64 0 0 -60 0 -60 54 0 c57 0 71 -11 54
-42 -6 -14 -21 -18 -58 -18 l-50 0 0 -60 0 -60 64 0 c66 0 83 -11 70 -45 -5
-12 -26 -15 -99 -15 -53 0 -97 4 -100 10 -4 6 -3 100 1 210 l7 200 93 0 c52 0
96 -4 99 -10z m213 -172 l2 -178 53 0 c60 0 80 -10 75 -36 -3 -17 -14 -19 -94
-22 -80 -2 -92 0 -98 15 -4 9 -4 104 0 211 l7 193 26 -3 26 -3 3 -177z m367
152 c0 -24 -3 -25 -67 -28 l-68 -3 0 -59 0 -60 54 0 c56 0 72 -12 60 -45 -5
-11 -21 -15 -61 -15 l-54 0 3 -62 3 -62 50 2 c57 3 92 -15 82 -42 -6 -14 -20
-16 -104 -14 l-98 3 4 200 c2 110 6 204 8 208 3 4 46 6 96 5 91 -3 92 -3 92
-28z m169 -226 c10 -27 -3 -34 -64 -34 -59 0 -76 9 -66 35 8 22 122 21 130 -1z
m-2689 -174 c10 -16 -5 -89 -22 -106 -33 -33 -60 46 -33 97 11 20 45 26 55 9z
m-3251 -167 c16 -80 55 -376 50 -384 -9 -15 -51 -10 -58 7 -3 9 -6 26 -6 39 0
42 -10 55 -45 55 -35 0 -45 -13 -45 -55 0 -39 -11 -55 -36 -55 -20 0 -24 5
-24 31 0 30 47 352 55 377 3 7 23 12 54 12 46 0 50 -2 55 -27z m162 16 c3 -6
3 -101 -1 -210 l-7 -200 -27 3 -26 3 -3 195 c-1 107 0 200 2 207 6 16 52 17
62 2z m337 -9 c43 -34 49 -130 8 -130 -24 0 -38 18 -43 55 -2 25 -8 31 -33 33
-47 6 -55 -16 -55 -154 0 -134 6 -148 57 -142 24 3 29 8 33 43 5 37 8 40 35
40 30 0 30 -1 28 -50 -2 -67 -33 -95 -104 -95 -43 0 -55 5 -80 30 l-30 30 3
156 3 156 28 24 c37 32 112 34 150 4z m155 -160 c2 -96 0 -190 -3 -208 -5 -29
-10 -33 -33 -30 l-27 3 -3 175 c-2 96 0 190 3 208 5 29 10 33 33 30 l27 -3 3
-175z m250 148 c3 -24 0 -27 -35 -30 l-38 -3 -3 -177 -2 -178 -30 0 -30 0 0
180 0 180 -35 0 c-37 0 -52 17 -41 45 5 13 23 15 108 13 l103 -3 3 -27z m110
-158 c3 -220 1 -232 -36 -228 l-27 3 -2 189 c-2 201 3 229 40 224 22 -3 22 -6
25 -188z m240 183 c6 -3 12 -16 12 -28 0 -20 -6 -24 -37 -27 l-38 -3 -3 -177
-2 -178 -30 0 -30 0 0 179 0 180 -37 3 c-28 2 -39 8 -41 22 -2 10 2 23 10 27
13 9 173 10 196 2z m90 -375 c-3 -40 -5 -43 -33 -43 -28 0 -30 3 -33 43 l-3
42 36 0 36 0 -3 -42z"/>
<path d="M2636 4288 c-4 -29 -9 -68 -12 -85 -6 -31 -4 -33 23 -33 l28 0 -9 85
c-5 47 -12 85 -16 85 -4 0 -10 -24 -14 -52z"/>
<path d="M4010 4285 l0 -65 34 0 c37 0 46 12 46 65 0 53 -9 65 -46 65 l-34 0
0 -65z"/>
<path d="M4907 4310 c-4 -14 -10 -56 -13 -93 -7 -68 -7 -69 17 -65 22 3 24 6
21 58 -2 30 -7 71 -11 90 -7 33 -7 34 -14 10z"/>
<path d="M5137 4343 c-4 -3 -7 -31 -7 -60 l0 -54 43 3 c42 3 42 3 45 46 2 24
-2 50 -9 58 -12 14 -60 19 -72 7z"/>
<path d="M6248 4295 c-4 -16 -10 -59 -14 -93 -7 -63 -7 -64 17 -60 23 3 24 6
21 65 -2 34 -7 74 -11 90 l-7 28 -6 -30z"/>
<path d="M7102 4252 c-18 -104 -17 -112 14 -112 l26 0 -7 73 c-11 111 -20 121
-33 39z"/>
<path d="M3597 3742 c-14 -15 -17 -41 -17 -136 0 -127 8 -156 43 -156 42 0 47
16 47 161 0 116 -2 138 -16 143 -26 10 -40 7 -57 -12z"/>
<path d="M3881 3751 c-8 -5 -14 -156 -12 -278 1 -19 7 -23 36 -23 24 0 37 6
45 19 12 23 13 250 1 269 -9 15 -54 23 -70 13z"/>
<path d="M4156 3689 c-4 -30 -10 -71 -13 -91 -5 -36 -4 -38 22 -38 l27 0 -7
78 c-9 100 -20 119 -29 51z"/>
<path d="M4592 3648 c-7 -48 -8 -86 -3 -91 16 -16 46 -3 44 18 -1 11 -5 50 -9
88 -4 37 -10 67 -13 67 -4 0 -12 -37 -19 -82z"/>
<path d="M5256 3658 c-4 -35 -10 -73 -13 -85 -4 -19 -1 -23 21 -23 23 0 26 4
26 33 0 54 -12 137 -20 137 -4 0 -11 -28 -14 -62z"/>
<path d="M6148 3715 c-5 -8 -22 -126 -23 -160 0 -5 11 -10 25 -10 24 0 25 2
21 50 -5 74 -16 131 -23 120z"/>
<path d="M6996 3733 c-3 -3 -6 -73 -6 -155 l0 -148 33 0 c18 0 38 5 45 12 17
17 17 277 0 282 -35 11 -66 15 -72 9z"/>
<path d="M7807 3693 c-3 -18 -9 -62 -13 -98 l-7 -65 27 0 c30 0 31 6 13 120
-11 66 -14 71 -20 43z"/>
<path d="M2597 3120 c-11 -40 -25 -144 -21 -151 2 -3 13 -5 26 -4 21 2 23 6
20 56 -2 30 -7 70 -11 89 -8 33 -8 34 -14 10z"/>
<path d="M3962 3003 l3 -148 40 0 40 0 0 145 0 145 -43 3 -43 3 3 -148z"/>
<path d="M4878 3105 c-4 -16 -10 -58 -14 -92 l-7 -63 28 0 27 0 -7 65 c-3 35
-10 77 -14 92 l-7 28 -6 -30z"/>
<path d="M5106 3134 c-11 -29 -7 -104 7 -105 34 -3 63 4 75 19 16 20 9 81 -10
94 -22 13 -65 9 -72 -8z"/>
<path d="M5838 3083 c-5 -72 -2 -83 27 -83 35 0 46 23 43 82 -3 51 -4 53 -35
56 l-31 3 -4 -58z"/>
<path d="M6711 3035 c-14 -99 -15 -95 15 -95 27 0 27 0 20 61 -3 34 -6 73 -6
85 0 52 -18 19 -29 -51z"/>
<path d="M6966 3133 c-3 -4 -6 -33 -6 -65 0 -57 0 -58 29 -58 16 0 37 7 45 16
16 16 21 71 8 90 -8 13 -67 26 -76 17z"/>
<path d="M2102 2480 c-16 -112 -16 -110 14 -110 l27 0 -7 68 c-13 127 -21 137
-34 42z"/>
</g>
</svg>
