<?xml version="1.0" standalone="no"?>
<!DOCTYPE svg PUBLIC "-//W3C//DTD SVG 20010904//EN"
 "http://www.w3.org/TR/2001/REC-SVG-20010904/DTD/svg10.dtd">
<svg version="1.0" xmlns="http://www.w3.org/2000/svg"
 width="1080.000000pt" height="1080.000000pt" viewBox="0 0 1080.000000 1080.000000"
 preserveAspectRatio="xMidYMid meet">
<metadata>
Created by potrace 1.16, written by Peter Selinger 2001-2019
</metadata>
<g transform="translate(0.000000,1080.000000) scale(0.100000,-0.100000)"
fill="#000000" stroke="none">
<path d="M1 9743 c1 -582 4 -1049 6 -1037 2 13 103 94 280 225 409 303 575
426 607 451 16 13 36 28 45 34 12 10 8 13 -25 18 -35 6 -350 37 -674 66 -63 6
-126 13 -139 16 l-24 5 7 106 c3 59 8 109 11 112 3 3 85 -3 183 -12 97 -10
406 -40 686 -67 280 -27 513 -53 517 -57 4 -4 5 -20 2 -35 -4 -21 -37 -52
-127 -122 -66 -52 -200 -157 -296 -232 -191 -150 -218 -171 -368 -288 -102
-78 -117 -96 -84 -96 9 0 91 -7 182 -15 91 -8 253 -21 360 -29 107 -9 214 -18
237 -21 l43 -6 -6 -107 c-4 -59 -10 -110 -13 -114 -4 -4 -83 -1 -176 7 -94 8
-233 19 -310 25 -77 5 -185 15 -240 20 -55 5 -210 19 -345 30 -135 11 -266 22
-292 25 l-48 6 0 -140 0 -139 83 -6 c95 -7 555 -31 867 -46 374 -18 440 -22
444 -28 2 -4 1 -56 -2 -116 l-5 -109 -106 7 c-58 4 -189 12 -291 17 -248 14
-276 16 -327 24 -76 11 -59 -4 107 -92 36 -19 70 -39 77 -45 14 -12 124 -78
129 -78 2 0 43 -23 91 -52 95 -56 173 -100 213 -120 14 -7 27 -15 30 -19 3 -3
20 -14 38 -25 19 -11 30 -24 27 -32 -3 -8 -5 -27 -5 -43 0 -21 -6 -32 -22 -39
-254 -103 -505 -215 -511 -226 -4 -8 -18 -14 -30 -14 -24 1 -247 -91 -247
-101 0 -9 257 -22 270 -14 6 4 25 2 43 -4 17 -5 93 -12 167 -16 74 -4 169 -10
210 -13 l75 -7 -4 -105 c-1 -58 -7 -109 -11 -114 -10 -10 -204 4 -705 49 -93
8 -251 22 -350 30 -99 8 -197 17 -218 20 l-37 5 0 -230 0 -231 67 57 c76 65
198 126 299 150 91 22 276 22 366 1 179 -43 323 -137 434 -282 47 -61 103
-221 113 -323 21 -205 -36 -412 -156 -559 -55 -68 -55 -68 -113 -114 -208
-167 -521 -209 -774 -102 -73 30 -159 84 -204 126 l-32 31 0 -232 c0 -190 2
-232 14 -232 7 0 19 -7 26 -15 10 -11 7 -21 -12 -47 -22 -32 -23 -41 -26 -240
l-3 -207 38 -16 c53 -23 132 -16 171 16 50 41 172 242 172 286 0 7 4 13 8 13
4 0 25 30 46 67 22 37 61 91 88 120 37 38 48 57 43 72 -7 22 13 40 25 21 6 -9
15 -8 39 4 33 17 39 31 19 40 -7 4 1 4 19 1 18 -2 35 0 38 5 6 10 -7 14 -39
10 -11 -1 -15 3 -12 9 4 6 21 11 39 11 28 0 29 1 12 13 -10 8 -15 19 -11 25
13 21 -50 13 -69 -8 -10 -11 -23 -20 -28 -20 -17 0 33 38 80 61 52 25 104 21
164 -13 35 -20 67 -68 61 -94 -1 -6 27 -23 63 -38 91 -39 148 -93 189 -179 87
-181 68 -424 -49 -657 -59 -115 -46 -110 -169 -60 -58 24 -106 48 -106 55 0 6
6 19 14 30 40 58 89 165 107 232 50 196 -7 339 -138 350 -89 8 -152 -51 -233
-216 -91 -185 -106 -214 -147 -269 -24 -31 -44 -59 -45 -62 -4 -9 -129 -90
-138 -90 -5 0 -21 -5 -37 -11 -37 -16 -171 -21 -194 -8 -17 8 -19 6 -19 -21 0
-25 4 -30 25 -30 31 0 33 -17 2 -22 -18 -2 -23 -10 -25 -45 l-3 -43 65 0 c54
0 67 3 80 21 13 20 15 20 20 2 3 -10 3 -1 0 19 -5 36 -4 38 22 36 35 -3 41
-24 15 -52 -13 -13 -19 -26 -14 -29 4 -3 114 -8 243 -11 129 -3 346 -9 483
-12 l247 -6 0 -33 c0 -28 -12 -44 -91 -116 -50 -46 -114 -105 -142 -132 -28
-26 -55 -47 -59 -47 -4 0 -8 -3 -8 -7 0 -12 59 -43 81 -43 10 0 19 -6 20 -12
1 -7 5 3 9 22 5 19 6 48 3 64 -5 26 -4 28 13 22 10 -5 31 -12 45 -16 14 -4 38
-14 55 -23 16 -8 65 -25 109 -36 84 -23 109 -40 178 -121 l37 -44 -29 -12
c-19 -8 -42 -9 -65 -4 -27 6 -36 5 -36 -5 0 -8 8 -11 20 -8 14 4 23 -2 31 -21
10 -21 19 -26 50 -26 21 0 41 5 44 10 9 14 58 13 73 -2 9 -9 7 -17 -10 -35
-19 -20 -20 -25 -8 -33 8 -5 27 -10 41 -10 16 0 43 -15 70 -39 24 -21 59 -42
77 -45 30 -7 36 -15 33 -42 -1 -14 42 -34 73 -34 13 0 29 -6 35 -13 6 -8 32
-15 58 -16 34 -1 50 -7 60 -21 8 -11 19 -20 24 -20 21 0 50 -38 52 -68 1 -21
7 -32 17 -32 12 -1 12 -3 -2 -14 -10 -7 -18 -25 -18 -39 0 -44 -97 -135 -153
-143 -12 -2 -35 -7 -51 -11 -41 -12 -153 16 -176 45 -10 12 -23 22 -29 22 -6
0 -18 11 -26 24 -21 32 -57 40 -101 21 -34 -14 -36 -14 -41 4 -3 12 -17 21
-39 26 -19 3 -32 10 -29 16 8 12 -8 12 -21 -1 -8 -8 -32 -8 -75 -2 -35 6 -77
9 -93 8 -26 -1 -31 4 -40 32 -10 37 -30 38 -33 1 -1 -13 -5 -63 -8 -111 l-7
-88 -539 0 -539 0 0 -150 0 -150 319 0 c271 0 322 2 335 15 17 17 42 20 51 5
4 -6 21 -11 38 -11 18 0 95 -1 172 -2 l140 -2 -4 -120 c-1 -66 -6 -123 -10
-127 -7 -7 -475 -17 -818 -18 l-223 0 0 -711 0 -712 88 7 c48 4 663 9 1367 12
l1280 5 7 122 c4 67 14 284 22 482 13 337 12 452 -8 483 -4 7 1 26 13 45 18
29 20 56 26 282 3 138 8 262 11 277 4 22 2 27 -10 22 -11 -4 -17 2 -22 22 -6
22 -3 31 14 42 16 11 22 25 22 53 0 22 -4 39 -9 39 -17 0 -91 76 -91 92 0 9
-4 19 -9 22 -4 3 -11 19 -14 36 -5 20 -12 30 -25 30 -27 0 -56 54 -42 80 7 13
7 20 0 20 -5 0 -10 -7 -10 -15 0 -21 -13 -19 -35 5 -10 11 -21 17 -26 15 -9
-6 -49 48 -49 67 1 9 5 8 14 -4 7 -10 16 -15 19 -11 11 10 8 48 -4 60 -12 12
-52 5 -44 -7 3 -5 0 -12 -7 -16 -7 -4 -10 -4 -6 1 4 4 0 14 -10 21 -14 10 -15
15 -4 25 19 20 14 32 -10 26 -30 -8 -63 10 -48 27 15 20 1 48 -21 41 -15 -5
-18 -1 -17 25 1 17 -4 36 -10 42 -9 9 -12 8 -12 -5 0 -9 -7 -17 -16 -17 -11 0
-14 6 -9 21 7 20 4 21 -34 14 -34 -6 -41 -4 -41 10 0 9 -4 14 -8 11 -4 -2 -14
-1 -22 5 -11 6 -8 9 12 9 18 0 40 12 63 35 35 36 44 55 25 55 -5 0 -10 9 -10
19 0 11 -9 23 -21 26 -17 6 -19 9 -8 16 10 6 5 10 -17 15 -28 5 -34 12 -44 53
-28 112 -36 133 -49 144 -11 10 -12 3 -7 -43 6 -51 6 -53 -8 -30 -8 14 -17 24
-21 22 -20 -9 -91 122 -101 185 -6 40 -24 70 -24 41 0 -9 -3 -9 -10 2 -7 12
-12 12 -22 2 -28 -28 -29 -23 -10 106 7 51 5 70 -8 100 -9 20 -20 66 -23 101
-8 70 -41 133 -67 128 -8 -1 -15 -13 -16 -27 0 -14 -7 -42 -14 -62 l-14 -38
-11 33 c-10 32 -10 32 -70 29 -87 -5 -132 15 -172 72 -21 31 -33 60 -33 81 0
41 23 107 51 146 11 17 23 48 26 69 6 45 18 45 27 0 4 -22 10 -29 18 -24 7 5
44 8 83 9 65 0 74 3 113 34 23 19 39 38 36 42 -3 5 -1 9 4 9 22 0 23 -35 1
-51 -15 -11 -18 -18 -10 -23 6 -4 18 0 27 8 21 22 25 20 18 -9 -4 -15 -2 -25
5 -25 6 0 11 5 11 10 0 6 7 10 15 10 12 0 13 -4 6 -18 -11 -20 -4 -62 10 -62
5 0 9 -8 9 -17 0 -10 7 -27 15 -37 8 -11 15 -30 15 -42 0 -27 18 -72 38 -96 8
-10 12 -24 9 -31 -3 -8 1 -24 9 -35 17 -25 37 -111 39 -172 3 -66 4 -70 20
-70 16 0 20 -16 6 -24 -12 -8 -1 -56 13 -56 7 0 24 26 40 57 92 189 181 299
263 327 78 27 136 18 265 -42 88 -40 158 -66 164 -60 2 3 7 104 10 224 3 125
2 214 -3 207 -14 -19 -65 -19 -96 1 -19 13 -38 17 -62 13 -54 -9 -105 2 -105
23 0 9 -11 22 -25 28 -14 6 -25 18 -25 27 0 21 -9 19 -29 -7 -24 -28 -57 -19
-41 12 13 25 4 43 -18 36 -10 -3 -39 1 -66 9 -47 14 -84 44 -106 85 -6 11 -17
20 -25 20 -8 0 -15 5 -15 10 0 6 -11 16 -25 22 -18 8 -24 16 -19 30 4 14 0 21
-16 25 -16 4 -20 11 -15 27 3 11 8 32 10 46 1 14 10 45 19 69 23 61 13 62 -15
2 -28 -63 -42 -66 -23 -6 7 25 11 52 7 61 -5 13 -8 13 -25 -3 -17 -15 -21 -15
-29 -3 -5 8 -6 22 -3 30 4 8 6 34 6 56 0 28 6 49 19 63 23 25 24 29 3 33 -11
2 -2 17 34 56 27 28 52 52 57 52 4 0 2 -7 -5 -15 -13 -16 -6 -35 13 -35 19 0
46 53 50 97 5 55 13 66 38 52 12 -6 22 -9 23 -7 1 2 7 19 14 39 15 43 15 72 2
85 -7 7 -5 23 5 48 9 21 14 44 11 52 -3 7 0 14 6 16 5 2 16 20 23 41 10 29 10
39 0 47 -6 5 -15 7 -19 3 -4 -4 -11 -1 -16 7 -13 20 -12 30 2 27 6 -1 14 7 16
18 4 17 3 18 -13 5 -10 -8 -21 -14 -24 -13 -18 4 -61 -34 -61 -54 0 -24 -15
-32 -22 -11 -3 7 -12 9 -22 5 -12 -5 -16 -13 -12 -23 5 -14 4 -15 -8 -5 -8 7
-20 10 -26 6 -7 -4 -6 2 2 15 7 12 28 28 46 36 32 13 38 39 7 27 -8 -3 -15 0
-15 6 0 19 29 24 47 10 13 -11 15 -11 9 -1 -12 20 9 38 60 52 24 7 49 21 55
31 8 15 6 18 -8 13 -12 -4 -8 3 9 18 17 14 29 36 31 53 1 17 20 65 41 108 21
43 35 81 31 85 -14 14 -60 -24 -63 -53 -4 -32 -24 -49 -57 -50 -11 0 -20 -7
-21 -15 -4 -54 -4 -55 -14 -40 -8 13 -11 12 -24 -5 -9 -11 -16 -29 -16 -40 0
-15 -2 -17 -9 -6 -5 8 -14 10 -22 6 -9 -6 -11 -3 -6 8 3 10 3 18 -1 18 -41 7
-62 6 -62 -1 0 -5 -7 -7 -15 -4 -8 4 -15 1 -15 -6 0 -6 -5 -8 -10 -5 -7 4 -3
14 10 25 20 17 20 19 3 29 -12 7 -13 10 -4 11 7 0 24 11 36 24 24 26 37 25 29
-2 -3 -10 6 -3 20 13 14 17 26 26 26 21 0 -5 10 0 23 12 13 12 26 19 30 16 11
-12 57 26 57 46 0 11 3 19 8 18 4 -1 22 2 40 6 35 8 44 36 12 36 -11 0 -20 -4
-20 -10 0 -5 -7 -10 -15 -10 -8 0 -14 5 -12 12 1 6 -6 14 -15 16 -23 5 -120
-78 -113 -96 7 -19 -5 -38 -15 -23 -4 8 -17 2 -39 -18 -18 -17 -40 -31 -48
-31 -8 0 -11 -4 -8 -10 3 -5 -3 -10 -14 -10 -11 0 -23 -5 -26 -10 -9 -15 -88
-54 -102 -52 -7 2 -13 -4 -13 -12 0 -9 -10 -20 -21 -27 -16 -8 -20 -8 -14 1 4
6 -1 17 -10 24 -16 11 -14 16 20 49 21 20 34 37 29 37 -6 0 -15 -5 -22 -12 -6
-6 -15 -9 -19 -5 -3 4 0 13 8 20 22 17 52 68 45 75 -3 3 -17 -5 -31 -18 -14
-13 -28 -20 -32 -17 -4 4 9 22 28 41 19 18 41 43 49 56 8 12 26 33 40 46 13
13 21 27 16 31 -4 4 -22 -9 -39 -28 -35 -39 -76 -49 -97 -23 -11 12 -8 20 15
44 35 37 29 65 -11 50 -21 -8 -29 -8 -35 2 -6 9 1 15 22 21 16 4 32 14 36 22
3 8 10 15 15 15 6 0 22 12 37 28 15 15 35 33 46 40 19 12 18 12 -5 7 -14 -4
-20 -3 -14 2 6 4 16 18 23 31 7 12 16 20 22 16 5 -3 22 3 37 13 15 10 32 20
37 23 25 13 131 84 136 92 3 5 12 8 19 6 7 -2 15 3 17 10 3 8 -1 10 -12 5 -14
-5 -16 -2 -10 18 7 22 7 22 -9 6 -10 -9 -26 -17 -36 -17 -10 0 -20 -6 -23 -12
-2 -7 -8 -9 -13 -5 -5 4 -2 12 5 16 7 5 11 13 7 19 -3 6 16 30 44 53 27 23 50
46 50 50 0 12 -44 -3 -56 -19 -6 -8 -16 -12 -21 -9 -6 4 -22 -2 -36 -13 l-26
-20 -15 22 c-19 27 -20 38 -3 38 14 0 44 46 35 55 -3 3 -22 -12 -43 -32 -21
-20 -35 -30 -32 -22 3 8 11 31 18 52 7 20 17 37 23 37 6 0 6 4 -2 8 -10 7 -7
21 13 63 13 30 25 59 25 66 0 6 6 13 13 16 6 2 9 8 4 12 -4 5 -12 4 -18 -2
-15 -15 -59 -123 -59 -144 0 -10 -16 -52 -36 -95 -20 -44 -42 -94 -50 -111 -7
-18 -20 -33 -28 -33 -12 0 -10 10 8 48 22 43 59 135 107 267 22 58 22 55 10
55 -5 0 -14 -13 -21 -30 -7 -16 -19 -35 -27 -41 -12 -11 -13 -8 -7 17 6 28 5
27 -35 -16 -22 -25 -41 -48 -41 -52 0 -5 -7 -8 -15 -8 -8 0 -15 -4 -15 -9 0
-5 -7 -12 -16 -15 -12 -4 -14 -1 -9 14 4 11 2 20 -4 20 -6 0 -11 -4 -11 -10 0
-12 -40 -34 -47 -26 -3 3 -1 11 4 18 6 7 7 22 4 32 -7 17 -9 16 -30 -10 -13
-16 -22 -24 -20 -17 7 20 81 103 92 103 6 0 -2 -13 -17 -29 -19 -20 -24 -31
-16 -36 14 -8 71 44 91 83 8 15 20 33 27 40 6 7 12 19 12 25 0 7 -16 -6 -36
-28 -19 -22 -30 -30 -25 -18 19 39 12 47 -17 17 -29 -32 -85 -45 -75 -17 3 8
11 12 19 9 14 -5 40 21 30 31 -3 4 -12 1 -18 -5 -7 -7 -16 -12 -22 -12 -6 0
-5 5 2 12 14 14 16 42 2 33 -14 -9 -13 8 2 23 6 6 9 15 5 18 -4 4 -15 -3 -26
-14 -28 -33 -33 -26 -11 13 11 20 20 38 20 41 0 7 -44 -41 -64 -69 -13 -19
-13 -16 1 23 9 25 23 52 30 61 7 8 13 19 13 22 0 16 -21 4 -55 -32 -40 -42
-75 -59 -75 -35 0 8 -4 14 -9 14 -4 0 -5 19 0 43 4 23 8 45 9 49 0 4 -16 -9
-35 -30 -19 -21 -35 -31 -35 -23 0 8 7 22 16 32 9 10 14 30 12 47 -3 29 -4 30
-23 16 -14 -11 -16 -17 -8 -22 8 -5 9 -13 3 -22 -8 -13 -10 -12 -10 3 0 9 -4
17 -10 17 -5 0 -10 -4 -10 -10 0 -5 -11 -12 -25 -16 -16 -4 -25 -13 -25 -25 0
-23 -16 -25 -24 -3 -9 22 -8 24 9 24 9 0 15 9 15 21 0 15 -4 19 -16 15 -13 -5
-14 -1 -9 24 7 34 -7 60 -33 60 -8 0 -28 -14 -44 -32 -18 -20 -28 -26 -28 -16
0 8 9 23 21 34 12 10 27 31 35 46 8 16 20 28 27 28 7 0 27 30 45 68 l32 67 -5
-53 c-4 -36 -2 -52 5 -47 5 3 10 14 10 24 0 10 9 28 20 41 11 13 20 26 20 30
0 4 9 10 20 13 17 4 18 1 13 -27 -3 -17 -10 -32 -15 -34 -4 -2 -8 -10 -8 -18
0 -21 47 14 57 41 6 19 7 18 13 -5 4 -14 3 -29 -2 -34 -4 -6 -8 -14 -8 -18 0
-15 18 -8 49 18 24 20 31 22 31 10 0 -27 28 -7 61 45 17 27 35 49 39 49 11 0
0 -40 -17 -65 -7 -11 -13 -28 -13 -39 0 -16 5 -13 25 15 36 48 81 89 72 65 -4
-10 -9 -28 -11 -39 -2 -12 -1 -17 1 -10 7 21 37 25 50 7 10 -14 9 -21 -7 -42
-37 -46 -21 -59 16 -14 20 23 41 42 47 42 7 0 6 -5 -3 -11 -13 -9 -13 -10 0
-6 8 2 16 15 18 30 4 34 25 52 40 34 9 -10 6 -29 -10 -73 -11 -32 -24 -63 -29
-68 -5 -6 -9 -16 -9 -23 0 -11 5 -11 20 -3 11 6 19 16 17 23 -1 8 8 11 25 9
22 -2 29 2 33 21 4 14 18 30 31 36 34 15 36 14 29 -8 -7 -23 13 -39 21 -17 12
31 25 16 19 -21 -5 -28 -4 -34 4 -23 26 37 -6 -62 -37 -114 -3 -5 0 -6 5 -3 6
4 22 31 36 61 28 58 49 81 39 44 -5 -23 -5 -23 16 -5 20 18 20 18 24 0 3 -14
10 -8 31 25 26 40 47 54 47 32 0 -5 4 -10 10 -10 5 0 7 7 4 15 -4 9 4 23 17
34 l24 19 7 -31 c5 -27 -1 -45 -45 -117 -29 -47 -64 -98 -79 -113 -28 -29 -37
-57 -18 -57 7 0 7 -6 0 -20 -6 -11 -7 -20 -1 -20 12 0 22 27 15 44 -5 14 105
120 115 110 3 -2 -7 -15 -22 -28 -15 -13 -27 -28 -27 -34 0 -5 -6 -12 -14 -15
-12 -5 -30 -57 -19 -57 4 0 59 57 81 84 15 18 37 22 26 4 -5 -8 -2 -9 10 -5
14 6 17 3 12 -8 -3 -9 -2 -13 3 -10 5 3 13 1 16 -5 4 -6 15 -8 26 -5 24 8 26
-13 2 -22 -19 -7 -73 -63 -73 -75 0 -15 19 -8 29 10 9 14 12 14 19 4 7 -11 13
-9 28 10 22 25 64 53 64 41 0 -17 -18 -35 -28 -29 -5 3 -12 -4 -16 -17 -3 -12
-39 -56 -81 -96 -41 -40 -75 -77 -75 -81 0 -5 -18 -28 -40 -51 -34 -37 -48
-59 -37 -59 8 0 154 149 170 173 9 15 22 27 27 27 12 0 -16 -46 -48 -79 -17
-17 -20 -26 -12 -31 8 -5 29 8 56 35 36 37 50 44 88 46 48 3 61 -8 31 -26 -49
-28 -68 -54 -62 -85 5 -23 2 -32 -14 -41 -11 -6 -22 -9 -23 -7 -1 2 -8 11 -15
21 -12 15 -11 20 4 37 14 16 15 20 4 20 -8 0 -34 -20 -59 -45 -25 -24 -52 -45
-60 -45 -10 -1 -11 -3 -2 -7 18 -7 15 -23 -4 -23 -9 0 -23 -8 -30 -17 -7 -10
-16 -14 -20 -10 -5 4 -2 12 6 17 10 6 11 13 5 19 -7 7 -14 2 -22 -15 -8 -18
-8 -24 0 -24 7 0 3 -7 -7 -15 -11 -8 -15 -15 -10 -15 16 0 64 24 64 32 0 4 14
15 30 23 17 9 28 20 25 25 -4 6 -2 10 3 10 5 0 20 9 33 21 22 19 24 19 30 3 4
-14 -7 -27 -45 -54 -70 -48 -196 -152 -196 -162 0 -11 35 9 105 62 86 65 113
81 120 71 3 -5 -4 -13 -16 -16 -11 -4 -18 -9 -15 -12 8 -9 57 27 51 37 -3 5 7
16 23 24 16 8 34 22 41 30 8 9 24 16 37 16 13 0 24 5 24 11 0 6 8 8 18 5 11
-4 35 11 72 44 30 28 58 50 62 50 5 0 8 7 8 15 0 18 20 20 21 3 0 -7 5 0 10
17 10 35 36 566 44 905 3 135 8 268 10 295 14 164 76 1421 90 1835 3 91 8 199
11 241 l6 76 -134 12 c-358 34 -1209 120 -1388 141 -49 6 -412 10 -857 10
l-773 0 1 -1057z m625 897 c214 -22 452 -47 529 -55 321 -33 360 -38 368 -44
4 -4 4 -53 1 -109 l-7 -102 -29 0 c-25 0 -509 49 -1028 105 -80 8 -179 18
-220 22 -41 3 -78 11 -83 17 -7 10 -4 58 9 164 5 40 7 42 38 42 19 0 208 -18
422 -40z m1303 -144 c6 -7 10 -24 9 -37 -3 -22 1 -24 56 -29 42 -4 60 -2 63 7
12 31 23 8 23 -47 0 -62 -5 -71 -24 -44 -9 12 -32 16 -89 17 -62 2 -77 5 -77
18 0 8 -5 20 -12 27 -8 8 -8 15 1 25 6 8 9 22 5 31 -14 37 20 62 45 32z m29
-213 c3 -48 5 -53 26 -53 34 0 50 24 43 65 -7 42 4 45 32 9 28 -35 26 -77 -3
-111 -21 -24 -31 -28 -77 -27 -45 0 -56 5 -81 32 -49 55 -29 147 30 140 25 -3
27 -7 30 -55z m-1628 -83 c107 -11 285 -29 395 -40 371 -37 656 -66 733 -76
l42 -5 0 -63 c0 -35 -3 -85 -7 -111 l-6 -47 -76 6 c-42 4 -137 13 -211 21 -74
8 -207 22 -295 31 -425 42 -539 53 -650 65 -66 6 -124 15 -129 20 -12 11 -4
219 8 219 1 0 89 -9 196 -20z m1624 -68 c61 -7 79 -6 83 5 10 24 21 13 28 -27
4 -23 3 -46 -3 -53 -5 -7 -6 -21 -2 -32 9 -24 -5 -64 -28 -81 -9 -8 -38 -14
-63 -14 -41 0 -51 4 -78 35 -17 20 -32 43 -32 53 -1 9 -2 26 -3 37 -1 18 -8
20 -60 20 -58 0 -60 1 -73 33 -7 18 -11 36 -9 41 5 7 56 3 240 -17z m97 -280
c-3 -53 -8 -63 -21 -42 -11 18 -116 30 -136 15 -9 -6 -12 -18 -9 -27 8 -21
134 -36 145 -18 4 7 10 8 12 4 8 -14 -4 -224 -12 -224 -4 0 -13 7 -21 16 -9
11 -29 15 -82 13 -64 -2 -71 0 -83 22 -27 49 -22 53 80 45 78 -5 95 -4 99 9
12 29 -21 45 -94 45 -66 0 -70 1 -80 27 -5 14 -7 34 -3 42 4 9 6 20 5 26 -1 5
-3 23 -3 39 -2 46 24 59 108 51 50 -4 74 -3 79 5 12 20 19 1 16 -48z m-54
-316 c26 -23 28 -30 32 -115 1 -51 0 -104 -4 -119 l-7 -27 -17 24 c-16 21 -30
24 -139 34 -114 10 -123 9 -143 -9 l-21 -19 4 102 c3 81 7 106 22 122 27 30
89 29 112 -2 l17 -22 28 27 c35 35 78 37 116 4z m23 -401 c0 -12 -5 -26 -10
-31 -8 -8 -7 -19 0 -39 14 -36 -9 -75 -44 -75 -28 0 -44 17 -61 67 -10 29 -19
39 -39 41 -32 4 -36 -27 -6 -46 22 -14 27 -52 7 -52 -19 0 -45 30 -58 68 -8
24 -7 37 3 59 13 27 17 28 87 29 60 0 75 3 83 19 11 18 11 18 24 0 8 -10 14
-28 14 -40z m-17 -213 c-7 -55 -8 -58 -25 -45 -7 6 -39 13 -70 16 -44 4 -60 2
-70 -10 -10 -13 -9 -18 7 -30 15 -11 38 -14 89 -10 l68 4 -7 -111 c-8 -121
-12 -137 -30 -113 -14 20 -91 33 -131 23 -24 -6 -25 -8 -9 -20 13 -9 16 -20
12 -38 -7 -25 -5 -26 50 -33 47 -6 59 -4 69 10 23 31 29 8 22 -87 -3 -51 -7
-112 -7 -135 -1 -24 -5 -43 -11 -43 -5 0 -10 6 -10 14 0 23 -9 25 -146 35
-127 10 -129 10 -146 -12 -17 -21 -18 -20 -18 56 0 76 10 95 30 58 8 -16 25
-20 87 -25 43 -4 102 -8 131 -10 49 -4 54 -3 64 20 17 36 1 45 -85 47 -75 2
-76 2 -91 35 -14 29 -14 33 -1 38 11 5 12 11 4 26 -8 14 -7 25 4 41 12 19 12
28 1 60 l-13 38 87 -1 c117 -2 112 -3 112 19 0 26 -28 34 -102 29 l-60 -3 -16
39 c-12 30 -13 41 -4 44 8 2 10 15 6 37 -3 18 -1 42 5 54 11 19 21 21 96 21
46 0 87 5 90 10 14 23 24 -4 18 -48z m-57 -1847 c-6 -17 9 -20 20 -4 5 8 10 6
16 -5 5 -9 13 -14 18 -11 5 3 18 2 28 -4 14 -7 18 -24 20 -83 2 -51 8 -76 18
-85 14 -10 13 -14 -5 -32 -12 -12 -22 -24 -23 -28 -5 -14 -93 -2 -101 13 -4 8
-19 14 -33 14 -13 0 -32 9 -41 20 -10 11 -25 20 -34 20 -19 0 -42 24 -32 33 9
10 41 9 45 -1 2 -5 13 11 24 36 21 42 21 44 3 39 -16 -4 -18 -1 -13 21 9 37
13 42 33 42 9 0 26 7 37 15 24 18 27 18 20 0z m386 -911 c-23 -16 -31 -40 -9
-29 6 4 3 -1 -7 -9 -11 -9 -26 -16 -33 -16 -7 0 -13 -4 -13 -9 0 -10 -96 -75
-167 -113 -37 -20 -51 -24 -47 -13 9 21 -10 19 -31 -5 -14 -15 -15 -20 -4 -20
8 0 23 -7 33 -15 15 -11 17 -17 7 -29 -14 -17 -48 -10 -74 15 -11 10 -27 15
-40 11 -24 -6 -27 -10 39 67 46 53 54 61 70 61 8 0 14 7 14 15 0 8 8 15 18 15
10 0 13 -3 7 -8 -15 -10 -33 -55 -28 -69 6 -16 23 -17 23 -2 0 16 42 48 63 49
11 0 15 4 11 12 -5 8 0 9 14 6 17 -5 23 -1 28 16 3 13 21 30 42 40 20 10 48
24 62 31 35 18 49 18 22 -1z m-460 -524 c2 -6 26 -13 55 -16 47 -6 52 -9 57
-36 3 -16 1 -38 -4 -48 -9 -16 -6 -19 17 -17 28 2 28 1 31 -63 l2 -65 -21 25
c-15 17 -23 21 -26 12 -3 -7 -10 -18 -17 -25 -7 -6 -21 -25 -31 -40 l-18 -28
-33 38 c-19 21 -34 43 -34 49 0 6 -13 26 -30 44 -16 18 -30 38 -30 43 0 6 -8
3 -18 -6 -37 -34 -66 -11 -32 25 25 27 44 67 41 87 -2 9 3 12 14 7 9 -3 26 1
38 9 25 18 34 19 39 5z m-1503 -3551 c9 -21 12 -51 8 -90 -3 -32 -3 -59 0 -59
3 0 18 9 34 21 27 19 56 18 44 -2 -4 -5 1 -12 9 -15 9 -3 16 -12 16 -19 0 -9
-24 -12 -92 -10 -51 1 -96 3 -100 4 -16 3 -7 29 11 34 16 4 20 16 23 66 2 44
0 61 -9 61 -8 0 -13 -13 -13 -30 0 -38 -47 -91 -61 -69 -6 10 -2 16 11 21 14
5 20 17 20 40 0 37 33 78 64 78 14 0 26 -11 35 -31z"/>
<path d="M7521 9353 c-17 -11 -26 -12 -34 -4 -6 6 -17 11 -24 11 -20 0 -15
-27 8 -43 20 -15 20 -15 -14 -26 -49 -17 -58 -41 -55 -151 3 -89 4 -95 25 -98
16 -2 23 3 28 26 7 33 20 39 80 38 36 -1 40 -4 43 -28 3 -22 8 -28 29 -28 l25
0 -4 97 c-4 95 -4 96 -38 125 -19 15 -43 28 -54 28 -17 0 -18 2 -4 18 36 41
29 64 -11 35z"/>
<path d="M6545 9321 c-3 -5 6 -18 20 -29 l26 -20 -31 -7 c-60 -13 -84 -95 -64
-217 8 -49 37 -52 50 -5 9 31 12 32 65 35 56 3 56 3 62 -28 5 -22 12 -30 28
-30 21 0 22 3 17 91 -6 106 -23 137 -84 156 -21 6 -31 12 -22 12 10 1 22 10
28 20 14 27 13 31 -10 31 -11 0 -20 -4 -20 -10 0 -5 -7 -10 -15 -10 -8 0 -15
5 -15 10 0 13 -27 13 -35 1z"/>
<path d="M7253 9278 c-6 -7 -27 -46 -49 -85 -21 -40 -43 -73 -49 -73 -5 0 -34
37 -63 81 -56 83 -77 95 -76 41 3 -222 2 -214 27 -210 20 3 22 9 22 56 -1 28
1 52 3 52 7 0 42 -43 60 -72 25 -42 45 -35 75 27 15 30 31 55 37 55 5 0 10
-25 10 -55 0 -53 1 -55 26 -55 l27 0 -7 73 c-16 180 -20 195 -43 165z"/>
<path d="M6280 9251 c-75 -5 -95 -9 -95 -21 0 -10 14 -17 45 -20 l45 -5 5 -95
c5 -89 6 -95 28 -98 22 -3 22 -1 22 97 l0 100 38 3 c30 2 38 7 40 26 3 16 -1
22 -15 20 -10 -1 -61 -4 -113 -7z"/>
<path d="M5920 9138 c0 -122 6 -148 31 -148 18 0 20 6 23 50 1 8 13 16 27 18
20 2 32 -4 49 -27 17 -24 29 -31 56 -31 27 0 34 4 34 20 0 12 -7 20 -16 20 -8
0 -23 7 -31 16 -15 14 -15 18 0 44 26 44 22 95 -9 119 -21 17 -41 21 -95 21
l-69 0 0 -102z"/>
<path d="M5640 9217 c-40 -20 -50 -53 -48 -147 3 -78 5 -85 24 -88 17 -2 23 4
27 27 6 30 8 31 67 31 56 0 60 -1 60 -23 0 -30 6 -36 31 -30 16 5 19 14 19 72
0 125 -29 170 -110 171 -25 0 -56 -6 -70 -13z"/>
<path d="M0 7735 c0 -330 3 -505 10 -505 9 0 228 94 395 170 28 12 100 45 160
72 61 27 126 57 145 66 19 9 82 37 140 63 57 26 105 51 107 55 1 5 -28 27 -65
48 -37 22 -141 85 -232 141 -134 83 -345 211 -420 256 -8 4 -63 38 -122 74
-59 36 -110 65 -113 65 -3 0 -5 -227 -5 -505z"/>
<path d="M465 6563 c-183 -29 -323 -132 -394 -288 -24 -53 -32 -100 -32 -184
-1 -250 208 -451 470 -451 89 0 260 34 302 59 133 82 198 161 235 288 20 69
15 194 -11 267 -48 138 -189 261 -335 295 -46 10 -199 19 -235 14z m160 -603
c3 -5 19 -7 35 -3 24 4 30 2 30 -11 0 -9 -7 -19 -15 -22 -23 -9 -18 -26 5 -19
15 5 22 0 30 -19 5 -14 20 -28 35 -32 17 -4 25 -13 24 -28 -1 -16 -2 -17 -6
-3 -2 9 -7 17 -10 17 -4 0 -15 -8 -26 -17 -19 -17 -19 -17 -12 5 6 22 5 23
-14 13 -27 -15 -27 -37 0 -52 17 -8 23 -8 29 1 4 7 13 9 19 6 15 -10 14 -36
-1 -37 -10 0 -10 -2 0 -6 19 -7 14 -30 -8 -36 -17 -4 -19 -1 -14 18 4 18 1 25
-15 30 -11 3 -26 3 -31 0 -6 -4 -17 -1 -25 5 -8 7 -15 9 -15 4 -1 -16 -40 41
-40 58 0 9 7 18 15 20 11 2 8 9 -12 28 l-26 25 7 -28 c5 -20 2 -29 -9 -33 -8
-4 -15 -15 -15 -25 0 -11 -7 -19 -16 -19 -8 0 -12 5 -9 10 3 6 -1 13 -9 16 -9
3 -16 12 -16 19 0 7 -6 15 -14 18 -9 3 -12 15 -9 31 5 26 12 30 46 26 9 -1 16
4 15 11 -2 7 8 18 22 26 30 15 47 16 55 3z"/>
<path d="M4075 4580 c0 -71 3 -89 13 -85 8 3 32 5 54 5 79 0 124 84 77 144
-18 23 -27 26 -82 26 l-62 0 0 -90z"/>
<path d="M4768 4005 c-18 -36 -35 -65 -38 -65 -4 0 -19 27 -35 60 -43 90 -60
82 -60 -30 0 -65 3 -90 13 -90 8 0 12 19 12 63 l1 62 30 -57 c16 -32 33 -58
37 -58 4 0 18 26 32 57 l24 57 8 -34 c4 -19 5 -47 2 -62 -5 -23 -3 -26 16 -21
13 4 19 11 16 20 -3 8 -6 48 -6 89 0 43 -4 74 -10 74 -6 0 -25 -29 -42 -65z"/>
<path d="M0 3636 c1 -264 6 -289 38 -223 7 15 21 27 32 27 14 0 21 9 25 38 11
69 39 112 138 214 32 34 85 59 141 67 22 3 41 11 43 17 2 7 -16 24 -41 40 -25
16 -47 36 -49 46 -4 15 -16 18 -69 18 -34 0 -107 3 -161 7 l-98 6 1 -257z"/>
<path d="M5934 3702 c-31 -3 -31 -3 -26 -53 4 -45 3 -49 -17 -49 -17 0 -21 6
-21 34 0 19 -3 41 -6 50 -7 19 -45 21 -62 4 -19 -19 -14 -33 6 -15 10 10 22
17 25 17 9 0 9 -75 1 -83 -14 -13 -25 5 -12 20 10 13 9 15 -7 12 -12 -3 -21
-14 -23 -27 -3 -21 0 -22 70 -22 l73 0 -3 45 c-3 35 0 46 13 51 24 10 37 -14
31 -58 -3 -31 -1 -38 13 -38 14 0 17 9 17 48 -1 41 2 47 19 47 17 0 20 -6 19
-48 0 -38 3 -47 15 -45 12 2 15 14 13 48 -2 25 -8 50 -13 55 -10 10 -64 13
-125 7z"/>
<path d="M9458 2635 c-7 -17 -8 -28 -1 -37 6 -7 9 -37 7 -65 -4 -65 15 -82 71
-62 62 23 54 79 -11 79 -43 0 -52 16 -14 23 23 5 31 14 38 39 7 29 6 34 -12
40 -44 13 -66 8 -78 -17z"/>
<path d="M10142 1978 c-18 -18 -15 -29 15 -60 29 -30 24 -50 -7 -30 -14 9 -20
9 -23 -1 -6 -18 -16 -4 -21 29 -6 50 -16 64 -47 64 -29 0 -50 -23 -34 -38 4
-4 10 -1 12 6 7 19 33 14 33 -7 0 -12 -9 -21 -26 -25 -19 -5 -25 -12 -22 -29
3 -19 9 -22 58 -23 30 -1 60 -2 67 -3 7 -1 15 -17 19 -36 5 -29 9 -33 20 -24
18 15 18 24 -1 43 -13 13 -13 15 5 21 28 9 25 40 -5 63 -31 25 -33 46 -4 37
15 -5 20 -3 17 6 -6 19 -40 23 -56 7z"/>
<path d="M6603 1922 c-7 -4 -11 -38 -11 -94 1 -74 4 -88 18 -93 41 -13 96 29
85 65 -5 16 -15 20 -47 20 -27 0 -38 4 -35 13 2 6 9 13 15 13 7 1 17 2 22 3 6
0 17 16 25 34 13 30 12 32 -8 39 -31 9 -50 9 -64 0z"/>
<path d="M8946 1222 c3 -22 7 -67 8 -100 1 -56 3 -62 23 -62 19 0 21 4 17 33
-5 29 -2 34 28 47 43 20 58 59 34 94 -14 22 -24 26 -66 26 l-50 0 6 -38z"/>
<path d="M7433 1233 c-3 -7 -2 -16 1 -21 3 -5 6 -46 7 -91 1 -73 3 -81 21 -81
16 0 18 5 13 34 -6 30 -4 35 17 41 38 12 58 36 58 70 0 18 -7 39 -17 46 -20
17 -94 18 -100 2z"/>
<path d="M6604 1230 c-19 -8 -21 -15 -19 -92 1 -46 5 -89 9 -96 10 -17 57 -15
84 4 43 30 22 74 -36 74 -38 0 -41 23 -3 28 12 2 25 11 27 20 3 9 10 25 15 34
5 9 5 19 1 21 -19 11 -59 14 -78 7z"/>
<path d="M6228 918 c-3 -38 -6 -43 -29 -46 -46 -5 -65 -76 -30 -111 24 -24
109 -25 102 -1 -2 8 -6 57 -9 108 -3 67 -8 92 -18 92 -8 0 -14 -15 -16 -42z"/>
<path d="M3657 862 c-2 -4 -5 -33 -5 -64 -1 -51 1 -58 18 -58 17 0 20 7 20 49
0 57 15 74 32 37 8 -19 8 -32 0 -50 -12 -27 -7 -36 20 -36 15 0 18 8 18 50 0
37 4 50 15 50 20 0 31 -48 16 -72 -9 -15 -8 -20 4 -24 30 -12 45 3 34 34 -5
16 -9 33 -8 38 1 5 1 19 0 30 -1 20 -6 22 -81 22 -44 1 -81 -2 -83 -6z"/>
</g>
</svg>
