<?xml version="1.0" standalone="no"?>
<!DOCTYPE svg PUBLIC "-//W3C//DTD SVG 20010904//EN"
 "http://www.w3.org/TR/2001/REC-SVG-20010904/DTD/svg10.dtd">
<svg version="1.0" xmlns="http://www.w3.org/2000/svg"
 width="960.000000pt" height="960.000000pt" viewBox="0 0 960.000000 960.000000"
 preserveAspectRatio="xMidYMid meet">

<g transform="translate(0.000000,960.000000) scale(0.100000,-0.100000)"
fill="#000000" stroke="none">
<path d="M5418 9108 c15 -15 16 -114 1 -124 -8 -4 -8 -9 0 -17 15 -15 14 -154
-1 -163 -12 -8 13 -22 42 -23 11 -1 11 2 2 11 -8 8 -12 60 -12 170 0 156 0
158 -22 158 -17 0 -19 -3 -10 -12z"/>
<path d="M4060 9107 c0 -1 -1 -95 -3 -210 l-2 -207 23 0 c13 0 21 4 18 9 -6 9
-10 368 -4 390 2 7 -5 15 -14 16 -10 2 -18 3 -18 2z"/>
<path d="M4307 9103 c-13 -12 -7 -43 7 -43 19 0 28 14 20 34 -7 17 -16 20 -27
9z"/>
<path d="M4858 8914 c2 -140 0 -200 -9 -210 -10 -12 -4 -14 37 -13 37 1 43 3
24 8 l-25 7 -2 159 c-3 179 1 223 23 232 8 3 24 -3 34 -12 28 -25 28 -107 0
-135 -19 -19 -19 -20 -2 -20 30 0 50 -31 57 -85 9 -66 -9 -133 -38 -145 -15
-6 -17 -9 -6 -9 9 -1 27 8 40 18 21 16 24 30 27 98 4 74 2 80 -23 105 -25 25
-26 30 -15 62 14 45 4 102 -23 121 -12 8 -40 15 -62 15 l-40 0 3 -196z"/>
<path d="M5067 9094 c-9 -10 4 -34 19 -34 8 0 14 9 14 20 0 19 -19 27 -33 14z"/>
<path d="M4145 8882 c0 -100 1 -107 20 -107 19 0 20 5 16 83 -2 64 1 88 13
108 16 24 16 24 -3 12 -14 -9 -23 -9 -33 -1 -11 9 -13 -8 -13 -95z"/>
<path d="M4234 8973 c4 -12 2 -24 -3 -27 -14 -9 -2 -36 15 -36 20 0 18 54 -2
71 -15 12 -16 11 -10 -8z"/>
<path d="M4296 8983 c-3 -4 -1 -12 5 -19 7 -8 10 -46 8 -98 -4 -74 -2 -86 13
-90 20 -5 34 9 18 19 -5 3 -10 45 -10 95 0 66 -3 89 -14 93 -8 3 -17 3 -20 0z"/>
<path d="M4385 8980 c-3 -5 -1 -10 5 -10 9 0 11 -29 8 -98 -3 -103 -3 -103 41
-93 2 1 -2 7 -8 15 -16 19 -8 150 9 171 16 19 25 19 44 -1 20 -19 23 -159 4
-170 -8 -5 -2 -11 17 -16 33 -8 44 -3 27 14 -7 7 -12 43 -12 89 0 57 -4 82
-16 93 -20 21 -60 20 -72 0 -8 -14 -10 -14 -25 0 -10 10 -18 12 -22 6z"/>
<path d="M4648 8978 c7 -7 12 -44 12 -98 0 -84 8 -110 36 -110 6 0 14 6 17 14
3 8 -1 13 -10 12 -12 -1 -16 15 -20 84 -4 81 -13 110 -36 110 -7 0 -7 -4 1
-12z"/>
<path d="M5065 8885 c0 -58 3 -105 7 -105 3 0 14 -3 23 -7 15 -5 16 -2 9 18
-5 13 -9 62 -9 109 0 67 -3 85 -15 88 -13 2 -15 -15 -15 -103z"/>
<path d="M5155 8880 c0 -97 2 -106 19 -105 16 1 18 12 20 95 1 75 4 95 18 103
12 8 21 7 32 -2 21 -17 23 -176 4 -184 -7 -3 2 -6 19 -6 31 -1 32 0 23 25 -6
14 -10 54 -10 89 0 44 -5 68 -16 79 -19 19 -45 21 -62 4 -9 -9 -17 -10 -30 -2
-16 10 -17 3 -17 -96z"/>
<path d="M5348 8968 c-18 -33 -17 -153 2 -172 13 -14 15 -6 11 70 -2 71 0 88
15 105 15 17 15 19 1 19 -9 0 -22 -10 -29 -22z"/>
<path d="M5534 8982 c-46 -30 -45 -188 1 -206 10 -4 10 2 -1 22 -20 38 -17 58
9 78 14 10 16 14 5 11 -22 -8 -30 18 -20 58 7 23 14 30 33 30 19 0 25 -6 27
-29 2 -16 -2 -32 -9 -37 -8 -4 -11 -11 -7 -14 10 -11 38 26 38 50 0 34 -47 57
-76 37z"/>
<path d="M5640 8981 c0 -5 5 -13 10 -16 13 -8 13 -158 -1 -172 -7 -7 -3 -12
16 -15 14 -3 28 -1 31 3 3 5 0 9 -7 9 -20 0 -6 155 17 181 19 22 19 22 -3 10
-17 -8 -29 -9 -43 -1 -12 7 -20 7 -20 1z"/>
<path d="M4587 8973 c-14 -13 -7 -63 8 -63 11 0 14 9 12 35 -2 34 -7 41 -20
28z"/>
<path d="M5736 8958 c-9 -36 -7 -48 8 -48 18 0 26 22 19 49 -7 27 -19 27 -27
-1z"/>
<path d="M4591 8864 c-17 -14 -31 -34 -31 -43 0 -23 31 -51 56 -51 17 0 16 1
-4 16 -30 21 -28 58 4 83 15 12 22 21 16 21 -6 0 -24 -12 -41 -26z"/>
<path d="M798 8051 c-21 -25 -10 -36 14 -14 17 15 19 15 38 -2 26 -24 39 -11
15 15 -23 25 -46 25 -67 1z"/>
<path d="M783 7984 c-21 -9 -15 -34 7 -34 19 0 20 -7 20 -119 0 -112 -1 -119
-21 -124 -21 -6 -22 -33 -1 -31 7 1 30 2 52 3 42 1 53 15 20 26 -19 6 -20 14
-17 128 2 119 3 122 25 125 39 6 18 27 -29 29 -24 1 -50 0 -56 -3z"/>
<path d="M4104 7978 c-9 -13 -13 -209 -6 -245 5 -27 22 -31 22 -5 0 64 49 143
76 121 19 -15 18 -79 -2 -107 -19 -28 -32 -28 -44 1 -10 22 -10 22 -7 -3 3
-35 49 -40 71 -8 20 29 21 97 0 126 -20 29 -27 28 -62 -10 l-30 -31 5 86 c4
59 2 87 -5 87 -6 0 -14 -5 -18 -12z"/>
<path d="M1914 7969 c-4 -7 -24 -9 -50 -6 -24 2 -44 3 -44 1 0 -2 11 -11 24
-19 19 -13 28 -13 49 -4 14 6 28 18 31 25 6 17 0 18 -10 3z"/>
<path d="M2103 7972 c-6 -4 -11 -16 -10 -27 1 -14 -5 -21 -20 -23 -13 -2 -23
-7 -23 -12 0 -5 10 -10 23 -12 21 -3 22 -6 18 -95 -2 -76 0 -93 11 -93 12 0
15 20 17 92 1 59 6 95 14 100 6 4 29 6 49 4 21 -2 38 0 38 5 0 9 -39 22 -56
18 -33 -6 -46 2 -42 26 5 26 1 30 -19 17z"/>
<path d="M2904 7966 c-3 -7 -4 -19 -2 -27 2 -8 -7 -15 -19 -17 -29 -4 -30 -22
-2 -22 19 0 20 -5 19 -77 -2 -110 -2 -113 14 -113 11 0 13 10 9 39 -9 66 5
148 26 154 11 2 24 1 31 -3 6 -4 22 -5 35 -2 20 3 22 7 12 23 -9 15 -19 17
-56 12 -43 -6 -44 -6 -39 20 6 29 -18 40 -28 13z"/>
<path d="M3635 7965 c-3 -8 -7 -22 -10 -30 -2 -8 -14 -15 -25 -15 -12 0 -18
-4 -15 -10 3 -5 16 -10 27 -10 20 0 21 -4 15 -95 -5 -84 -4 -95 11 -95 15 0
17 13 17 90 0 103 7 114 68 104 21 -3 37 -2 37 4 0 14 -25 22 -66 22 -30 0
-34 3 -34 25 0 27 -18 34 -25 10z"/>
<path d="M5225 7965 c-3 -8 -7 -22 -10 -30 -2 -8 -14 -15 -25 -15 -12 0 -18
-4 -15 -10 3 -5 15 -10 26 -10 19 0 20 -4 13 -95 -6 -80 -4 -95 8 -95 12 0 15
18 16 87 2 103 12 118 77 109 38 -6 39 -5 20 9 -11 9 -33 15 -50 13 -26 -3
-30 1 -33 25 -4 29 -20 36 -27 12z"/>
<path d="M6515 7965 c-3 -8 -7 -22 -10 -30 -2 -8 -14 -15 -25 -15 -12 0 -18
-4 -15 -10 3 -5 15 -10 27 -10 20 0 20 -3 13 -95 -6 -88 -6 -95 12 -95 16 0
18 9 18 89 0 49 3 93 7 97 4 4 28 7 53 6 45 0 59 10 29 22 -9 3 -31 6 -50 6
-30 0 -34 3 -34 25 0 27 -18 34 -25 10z"/>
<path d="M8146 7958 c-3 -13 -6 -74 -6 -135 0 -84 3 -113 13 -113 8 0 12 18
12 57 0 32 3 93 7 136 6 62 5 77 -6 77 -7 0 -16 -10 -20 -22z"/>
<path d="M2336 7953 c7 -7 26 -13 42 -13 16 0 34 6 40 13 8 9 -1 12 -42 12
-42 0 -50 -2 -40 -12z"/>
<path d="M7181 7948 c11 -10 27 -18 34 -18 7 0 23 8 34 18 22 17 21 17 -34 17
-55 0 -56 0 -34 -17z"/>
<path d="M1400 7952 c0 -7 -10 -22 -21 -33 -14 -14 -17 -24 -11 -28 6 -4 12
-44 14 -90 2 -67 7 -86 20 -95 14 -8 21 -7 34 6 16 16 16 17 -5 11 -21 -5 -21
-4 -20 112 0 64 -2 119 -5 122 -3 4 -6 1 -6 -5z"/>
<path d="M1487 7933 c-11 -10 -8 -33 4 -33 5 0 7 5 4 10 -3 6 3 10 15 10 12 0
18 5 15 10 -7 11 -28 13 -38 3z"/>
<path d="M2507 7933 c-11 -10 -8 -33 4 -33 5 0 7 5 3 12 -5 8 -2 9 9 5 11 -4
17 -1 17 8 0 15 -21 20 -33 8z"/>
<path d="M4873 7924 c-3 -8 0 -21 7 -27 10 -10 12 -8 7 6 -5 12 -1 17 14 17
11 0 17 5 14 10 -9 15 -35 12 -42 -6z"/>
<path d="M8637 7925 c-4 -8 -2 -17 3 -20 6 -4 10 -1 10 5 0 7 7 10 15 6 9 -3
15 0 15 9 0 19 -36 19 -43 0z"/>
<path d="M8714 7925 c-4 -9 -1 -22 6 -28 10 -10 12 -8 6 7 -5 15 -2 17 14 13
14 -3 20 -1 17 6 -6 19 -36 20 -43 2z"/>
<path d="M1819 7892 c-15 -13 -20 -25 -15 -37 8 -21 22 -11 28 20 2 10 14 22
28 26 22 6 23 7 4 8 -12 1 -32 -7 -45 -17z"/>
<path d="M2329 7892 c-16 -14 -20 -24 -15 -38 7 -17 9 -15 21 14 9 20 21 32
33 32 34 0 43 -24 41 -105 -2 -83 7 -104 38 -86 10 6 12 11 6 11 -9 0 -13 22
-13 75 0 62 -4 79 -20 95 -25 25 -61 26 -91 2z"/>
<path d="M2800 7893 c19 -10 37 -14 39 -10 5 12 1 14 -39 22 l-35 6 35 -18z"/>
<path d="M7217 7900 c12 -5 23 -17 26 -27 9 -38 7 -122 -2 -128 -7 -4 -4 -14
8 -27 22 -23 46 -16 32 10 -5 9 -9 48 -9 87 0 74 -13 96 -56 94 -20 0 -20 0 1
-9z"/>
<path d="M1897 7815 c2 -99 11 -123 39 -107 10 6 13 12 7 12 -9 0 -13 22 -13
78 0 70 -9 102 -29 102 -4 0 -5 -38 -4 -85z"/>
<path d="M2736 7884 c-29 -28 -17 -58 33 -84 53 -27 65 -44 51 -71 -10 -17 -9
-20 2 -17 7 3 17 16 22 31 11 31 -2 50 -55 77 -41 21 -55 46 -38 66 16 19 4
18 -15 -2z"/>
<path d="M7156 7884 c-18 -18 -20 -30 -7 -39 5 -3 16 8 24 25 17 32 8 40 -17
14z"/>
<path d="M1245 7857 c-17 -14 -28 -36 -32 -63 -6 -50 8 -80 42 -86 26 -5 65
15 65 34 0 6 -8 4 -18 -5 -24 -22 -35 -21 -55 1 -18 20 -13 32 13 32 22 0 60
42 60 66 0 23 -18 44 -36 44 -7 0 -25 -10 -39 -23z m55 -15 c-1 -21 -20 -46
-42 -55 -25 -9 -23 23 3 57 22 27 39 27 39 -2z"/>
<path d="M1682 7868 c-34 -17 -40 -57 -12 -80 12 -10 30 -18 41 -18 26 0 35
-21 15 -35 -18 -13 -56 -9 -56 6 0 5 -4 9 -10 9 -5 0 -10 -9 -10 -19 0 -28 53
-38 86 -16 34 22 27 46 -19 68 -47 22 -56 43 -29 69 21 21 42 17 42 -8 0 -18
16 -18 23 0 12 31 -28 44 -71 24z"/>
<path d="M2603 7858 c-36 -38 -45 -74 -29 -112 8 -18 22 -35 33 -38 23 -6 63
8 63 22 0 7 -6 8 -19 0 -11 -5 -26 -7 -35 -4 -23 9 -28 34 -8 40 34 11 47 21
61 49 26 53 -26 86 -66 43z m57 -17 c0 -21 -47 -64 -61 -56 -7 5 2 43 17 66
10 18 44 9 44 -10z"/>
<path d="M3341 7856 c-29 -31 -39 -103 -19 -130 24 -31 98 -18 98 17 0 5 -8 3
-18 -6 -23 -21 -36 -21 -56 -1 -23 22 -20 34 8 34 27 0 66 42 66 69 0 44 -45
53 -79 17z m59 -15 c0 -24 -21 -49 -45 -53 -26 -4 -22 28 7 59 23 24 38 22 38
-6z"/>
<path d="M4461 7863 c-27 -22 -43 -86 -30 -120 11 -30 47 -44 77 -30 12 6 22
14 22 19 0 5 -9 4 -19 -2 -25 -13 -27 -13 -45 6 -24 24 -20 78 8 111 24 27 50
27 27 0 -9 -11 -8 -17 5 -28 13 -11 17 -10 25 2 12 19 11 33 -3 47 -17 17 -42
15 -67 -5z"/>
<path d="M6232 7873 c-7 -3 -19 -17 -26 -31 -29 -57 -20 -117 20 -132 29 -11
45 -6 62 21 12 19 12 19 -11 4 -13 -8 -31 -13 -40 -9 -23 9 -29 34 -9 40 34
11 47 21 60 47 22 45 -9 79 -56 60z m46 -26 c5 -23 -46 -73 -60 -59 -7 7 -4
21 12 47 23 37 42 42 48 12z"/>
<path d="M7499 7867 c-53 -40 -52 -141 1 -159 19 -7 60 8 60 22 0 7 -6 8 -19
0 -23 -12 -47 -5 -55 16 -4 9 6 19 29 29 41 16 61 56 45 86 -12 22 -37 24 -61
6z m51 -22 c0 -21 -47 -68 -60 -60 -11 7 5 56 23 67 20 13 37 9 37 -7z"/>
<path d="M7765 7857 c-18 -15 -28 -36 -32 -64 -5 -35 -2 -45 20 -67 26 -26 56
-26 78 0 14 17 5 18 -20 2 -15 -9 -23 -9 -35 1 -22 19 -20 41 4 41 45 0 83 89
44 104 -24 9 -31 8 -59 -17z m55 -21 c0 -27 -18 -46 -42 -46 -24 0 -23 21 3
54 23 29 39 26 39 -8z"/>
<path d="M1073 7810 c3 -34 13 -72 22 -86 16 -24 18 -25 35 -9 34 31 67 162
39 153 -6 -2 -12 -20 -14 -40 -2 -41 -23 -98 -36 -98 -14 0 -18 16 -20 78 -2
47 -6 62 -17 62 -12 0 -14 -11 -9 -60z"/>
<path d="M1493 7863 c-9 -3 -13 -29 -13 -79 0 -59 3 -74 15 -74 11 0 15 12 15
49 0 27 3 63 6 80 6 30 2 35 -23 24z"/>
<path d="M2183 7859 c-18 -18 -18 -149 0 -149 8 0 13 14 13 39 0 39 26 91 44
91 6 0 10 -7 10 -15 0 -8 4 -15 9 -15 16 0 20 28 6 46 -13 18 -14 18 -32 1
-24 -21 -31 -21 -35 -1 -2 12 -5 13 -15 3z"/>
<path d="M2507 7863 c-4 -3 -7 -40 -7 -80 0 -53 3 -74 12 -71 7 3 13 34 16 81
3 70 -2 89 -21 70z"/>
<path d="M2993 7863 c-20 -7 -18 -153 1 -153 11 0 15 19 18 76 3 78 2 84 -19
77z"/>
<path d="M3200 7860 c0 -6 -11 -8 -25 -4 -25 6 -25 6 -25 -63 0 -39 -3 -98 -6
-132 -6 -52 -5 -61 10 -61 13 0 16 11 16 67 0 63 1 65 18 50 25 -23 48 -21 66
5 40 57 22 148 -29 148 -14 0 -25 -5 -25 -10z m48 -60 c4 -56 -17 -91 -45 -74
-22 13 -29 74 -13 104 7 14 19 20 33 18 18 -2 22 -10 25 -48z"/>
<path d="M3764 7853 c-13 -13 -19 -14 -22 -5 -2 6 -10 12 -18 12 -11 0 -14
-17 -14 -75 0 -86 14 -100 23 -24 7 53 20 79 42 79 8 0 15 -8 18 -17 4 -17 4
-17 12 0 8 19 0 47 -14 47 -5 0 -17 -8 -27 -17z"/>
<path d="M3840 7845 c-20 -52 -7 -126 24 -138 8 -3 26 3 40 14 22 17 26 18 26
5 0 -9 6 -16 13 -16 8 0 13 24 15 80 2 67 0 80 -13 80 -10 0 -15 -10 -15 -32
0 -58 -19 -108 -40 -108 -24 0 -35 36 -27 91 6 46 -9 62 -23 24z"/>
<path d="M4282 7861 c-9 -5 -12 -27 -10 -71 2 -51 7 -65 25 -77 19 -13 24 -12
42 6 25 25 35 27 27 6 -3 -9 0 -15 9 -15 12 0 15 16 15 80 0 44 -4 80 -9 80
-9 0 -13 -14 -26 -92 -3 -22 -14 -42 -25 -48 -29 -15 -42 17 -34 85 7 58 7 60
-14 46z"/>
<path d="M4586 7862 c-13 -21 -17 -85 -6 -116 13 -40 40 -48 72 -19 17 15 18
15 18 0 0 -10 6 -17 14 -17 10 0 14 20 15 80 1 66 -1 80 -14 80 -11 0 -15 -10
-15 -35 0 -46 -25 -105 -44 -105 -21 0 -30 41 -22 96 5 39 -4 58 -18 36z"/>
<path d="M4753 7859 c-8 -8 -13 -40 -13 -82 0 -51 3 -67 13 -64 6 2 11 10 9
16 -4 19 19 95 32 103 17 12 26 9 26 -7 0 -8 4 -15 9 -15 16 0 20 28 6 46 -13
18 -14 18 -32 1 -24 -21 -31 -21 -35 -1 -2 12 -5 13 -15 3z"/>
<path d="M4883 7863 c-16 -6 -18 -139 -2 -148 15 -10 16 -8 22 78 7 75 5 81
-20 70z"/>
<path d="M4977 7842 c-15 -15 -29 -42 -33 -59 -12 -60 35 -96 74 -56 16 16 17
16 20 0 2 -9 9 -17 15 -17 8 0 12 24 11 75 -1 85 -16 104 -24 32 -9 -74 -70
-119 -70 -51 0 30 17 66 36 77 15 9 19 27 6 27 -5 0 -20 -13 -35 -28z"/>
<path d="M5320 7840 c-31 -33 -41 -66 -29 -99 11 -29 35 -36 66 -20 21 11 27
11 30 2 12 -34 21 -5 22 70 1 74 -1 80 -14 63 -8 -11 -15 -35 -15 -54 0 -23
-7 -41 -21 -53 -28 -25 -39 -16 -39 31 0 29 6 43 25 58 27 21 32 32 14 32 -6
0 -23 -13 -39 -30z"/>
<path d="M5782 7861 c-9 -5 -12 -27 -10 -71 2 -51 7 -65 25 -77 20 -13 24 -13
40 6 21 25 33 27 33 6 0 -8 5 -15 10 -15 6 0 10 33 10 80 0 86 -14 107 -25 38
-10 -65 -25 -98 -46 -98 -16 0 -19 10 -21 70 -2 54 -6 68 -16 61z"/>
<path d="M6036 7859 c-2 -8 -7 -69 -10 -136 -6 -106 -4 -123 9 -123 12 0 15
13 15 60 0 55 10 75 25 50 21 -34 85 24 85 78 0 40 -28 82 -54 82 -14 0 -26
-6 -29 -12 -3 -10 -7 -10 -20 1 -14 11 -17 11 -21 0z m92 -59 c4 -56 -17 -91
-45 -74 -22 13 -29 74 -13 104 7 14 19 20 33 18 18 -2 22 -10 25 -48z"/>
<path d="M6644 7856 c-3 -8 -12 -17 -21 -20 -11 -4 -13 -2 -9 9 3 9 0 15 -8
15 -10 0 -15 -16 -18 -47 -7 -100 15 -147 24 -52 3 29 13 58 22 67 16 16 18
16 31 -2 13 -17 15 -17 21 -3 3 10 4 24 0 32 -7 19 -35 20 -42 1z"/>
<path d="M6726 7862 c-2 -4 -7 -24 -11 -44 -16 -84 26 -138 73 -95 19 18 22
18 22 4 0 -9 6 -17 13 -17 8 0 12 24 14 80 1 45 -3 80 -8 80 -12 0 -16 -12
-24 -72 -3 -26 -13 -55 -22 -64 -15 -15 -18 -15 -31 2 -10 13 -12 36 -9 77 5
50 -3 72 -17 49z"/>
<path d="M6976 7859 c-3 -8 -6 -69 -8 -137 -2 -92 0 -122 10 -122 8 0 12 19
12 60 0 60 11 75 37 49 30 -30 73 22 73 90 0 55 -46 91 -78 59 -8 -8 -15 -8
-26 2 -13 10 -17 10 -20 -1z m97 -36 c6 -35 -11 -93 -30 -100 -26 -10 -45 26
-38 72 9 64 57 84 68 28z"/>
<path d="M7384 7849 c-19 -21 -19 -22 3 -15 15 5 24 2 32 -11 9 -17 10 -17 16
0 9 22 -1 47 -18 47 -8 0 -22 -10 -33 -21z"/>
<path d="M7666 7854 c-21 -20 -20 -23 3 -17 13 3 21 -1 24 -14 4 -17 4 -17 12
0 8 19 0 47 -14 47 -5 0 -17 -7 -25 -16z"/>
<path d="M7922 7854 c-73 -51 -51 -174 24 -134 21 12 28 12 31 3 11 -33 19 -6
21 70 2 75 1 80 -13 63 -8 -11 -15 -34 -15 -51 0 -37 -33 -77 -56 -68 -21 8
-12 57 17 96 25 34 21 42 -9 21z"/>
<path d="M8223 7863 c-17 -6 -17 -125 -1 -141 17 -17 47 -15 66 5 16 16 17 16
20 0 2 -9 8 -17 13 -17 5 0 9 32 9 70 0 39 0 73 1 77 0 4 -4 9 -9 11 -5 1 -13
-22 -16 -51 -8 -64 -26 -93 -50 -84 -14 6 -17 18 -15 67 3 64 1 70 -18 63z"/>
<path d="M8450 7850 c-11 -11 -20 -24 -20 -30 0 -5 -4 -10 -10 -10 -5 0 -10
11 -10 25 0 16 -6 25 -15 25 -12 0 -15 -15 -15 -76 0 -89 13 -94 40 -17 23 65
28 73 46 73 11 0 14 -15 14 -65 0 -36 4 -65 9 -65 6 0 15 27 22 61 11 56 30
82 47 64 4 -3 7 -32 7 -63 0 -35 5 -57 13 -60 9 -3 12 13 12 56 0 33 -3 67 -6
76 -8 20 -38 21 -54 1 -16 -19 -30 -19 -30 -1 0 23 -29 27 -50 6z"/>
<path d="M8653 7863 c-15 -5 -18 -153 -4 -153 11 0 24 93 19 131 -2 15 -8 24
-15 22z"/>
<path d="M8723 7863 c-16 -6 -18 -139 -2 -148 6 -4 12 -5 13 -4 7 8 14 159 8
158 -4 0 -13 -3 -19 -6z"/>
<path d="M922 7851 c-17 -10 -12 -133 5 -138 7 -3 18 17 28 50 9 31 22 61 30
67 13 11 15 3 15 -54 0 -46 4 -66 13 -66 8 0 13 20 14 62 4 92 -30 119 -63 51
l-19 -38 -5 37 c-4 28 -8 35 -18 29z"/>
<path d="M3467 7853 c-4 -3 -7 -37 -7 -75 0 -88 18 -90 45 -6 23 71 39 74 41
8 2 -68 3 -70 17 -70 14 0 18 116 4 138 -15 22 -38 12 -53 -23 -8 -19 -18 -35
-24 -35 -5 0 -6 16 -3 35 5 32 -4 45 -20 28z"/>
<path d="M5622 7848 c-14 -14 -16 -106 -3 -127 11 -17 31 -6 31 17 1 26 39
106 47 98 4 -4 6 -34 5 -67 -3 -48 0 -59 12 -59 13 0 16 13 16 63 0 86 -34
119 -60 57 -17 -40 -34 -51 -28 -17 6 33 -4 51 -20 35z"/>
<path d="M6345 7851 c-13 -13 -6 -143 7 -139 6 2 20 29 32 61 11 31 26 56 31
54 6 -1 10 -25 11 -54 0 -49 8 -73 19 -62 7 8 8 125 1 138 -15 23 -42 11 -55
-24 -7 -19 -16 -35 -21 -35 -5 0 -6 16 -3 35 5 34 -3 44 -22 26z"/>
<path d="M7337 7793 c-5 -60 3 -96 17 -82 3 3 7 37 9 77 4 53 1 72 -8 72 -8 0
-14 -23 -18 -67z"/>
<path d="M7610 7785 c0 -43 4 -75 10 -75 6 0 10 13 10 29 0 16 4 41 9 54 12
31 3 67 -15 67 -11 0 -14 -18 -14 -75z"/>
<path d="M2342 7808 c-42 -26 -52 -63 -24 -91 17 -17 25 -19 44 -9 23 10 23
11 2 11 -45 2 -46 62 -1 90 17 11 28 20 22 20 -5 0 -25 -10 -43 -21z"/>
<path d="M1816 7795 c-33 -30 -33 -60 -2 -80 19 -13 29 -14 45 -5 25 13 28 25
5 16 -20 -8 -44 10 -44 32 0 9 10 26 22 39 29 31 8 30 -26 -2z"/>
<path d="M7157 7792 c-21 -23 -22 -56 -1 -76 18 -18 24 -19 44 -6 13 8 13 10
-2 10 -29 0 -42 37 -23 66 18 28 6 32 -18 6z"/>
<path d="M2720 7733 c0 -16 8 -22 36 -28 20 -3 39 -4 42 -1 3 3 -4 6 -16 6
-12 0 -30 10 -42 22 -20 22 -20 22 -20 1z"/>
<path d="M5445 7729 c-5 -6 -1 -16 8 -21 9 -5 14 -16 11 -26 -5 -14 -3 -13 10
3 9 11 15 26 14 35 -4 19 -34 25 -43 9z"/>
<path d="M8776 7725 c-3 -9 0 -15 10 -15 12 0 15 -6 11 -21 -4 -16 -3 -18 9
-8 21 18 18 59 -5 59 -10 0 -21 -7 -25 -15z"/>
<path d="M1403 7656 c1 -21 6 -32 14 -29 19 8 23 32 7 48 -21 21 -23 20 -21
-19z"/>
<path d="M2777 7683 c-4 -3 -2 -12 4 -19 6 -8 8 -21 5 -30 -5 -14 -4 -15 9 -4
8 7 15 18 15 25 0 16 -25 37 -33 28z"/>
<path d="M2428 7375 l4 -64 -35 6 c-33 5 -38 2 -56 -28 -27 -43 -27 -100 -2
-123 22 -20 56 -14 65 11 6 14 8 14 20 -3 8 -10 16 -17 19 -14 3 3 7 67 9 143
4 122 3 137 -12 137 -13 0 -15 -10 -12 -65z m-13 -95 c14 -28 14 -33 0 -64
-17 -35 -39 -51 -56 -40 -18 11 -10 89 11 112 12 12 23 22 25 22 3 0 12 -14
20 -30z"/>
<path d="M1617 7423 c-4 -3 -7 -17 -7 -30 0 -18 -5 -23 -26 -23 -14 0 -23 -4
-19 -10 3 -5 16 -10 27 -10 20 0 21 -3 14 -95 -7 -88 -6 -95 11 -95 16 0 18
10 18 90 1 49 4 93 8 97 5 4 28 7 53 7 37 -1 42 1 32 13 -7 9 -25 13 -47 11
-33 -3 -36 0 -39 25 -3 26 -12 34 -25 20z"/>
<path d="M3357 7423 c-4 -3 -7 -17 -7 -30 0 -18 -5 -23 -26 -23 -14 0 -23 -4
-19 -10 3 -5 15 -10 27 -10 19 0 20 -4 13 -95 -7 -89 -6 -95 11 -95 17 0 19 8
18 91 -2 102 5 111 76 102 26 -3 32 -1 24 7 -7 7 -30 14 -53 17 -35 5 -41 9
-41 29 0 23 -10 31 -23 17z"/>
<path d="M5467 7423 c-4 -3 -7 -17 -7 -30 0 -18 -5 -23 -26 -23 -14 0 -23 -4
-19 -10 3 -5 15 -10 27 -10 19 0 20 -4 13 -95 -7 -89 -6 -95 11 -95 17 0 19 9
19 89 0 49 3 92 7 96 4 4 30 7 59 7 43 0 49 2 33 11 -10 7 -35 12 -54 12 -31
0 -35 3 -38 28 -3 26 -12 34 -25 20z"/>
<path d="M6827 7318 c-7 -118 -3 -158 17 -158 7 0 11 23 11 62 0 35 4 96 8
136 8 67 7 72 -11 72 -17 0 -20 -11 -25 -112z"/>
<path d="M8035 7415 c-3 -8 -7 -22 -10 -30 -2 -8 -14 -15 -25 -15 -12 0 -18
-4 -15 -10 3 -5 16 -10 27 -10 20 0 21 -3 14 -95 -6 -87 -5 -95 11 -95 16 0
18 11 18 89 0 49 3 93 7 97 4 4 28 7 53 6 60 0 58 16 -2 20 -44 3 -48 5 -51
31 -4 29 -20 36 -27 12z"/>
<path d="M6921 7373 c-14 -16 -19 -29 -12 -31 7 -2 11 -35 11 -87 0 -87 12
-114 46 -101 16 6 16 7 0 19 -14 10 -18 30 -19 90 -2 69 0 77 18 80 19 4 19 4
-1 6 -17 1 -20 6 -16 26 6 31 3 31 -27 -2z"/>
<path d="M8280 7389 c0 -6 -10 -19 -22 -30 -20 -16 -20 -18 -5 -19 15 0 17
-11 17 -84 0 -89 12 -115 47 -101 17 7 17 8 -1 14 -17 7 -19 18 -19 119 0 62
-4 112 -9 112 -4 0 -8 -5 -8 -11z"/>
<path d="M6237 7384 c-4 -4 -7 -14 -7 -23 0 -13 2 -14 9 -2 5 8 16 11 26 7 11
-4 15 -2 13 6 -5 15 -31 22 -41 12z"/>
<path d="M7447 7383 c-4 -3 -7 -13 -7 -22 0 -12 3 -12 12 -3 16 16 31 15 22 0
-5 -10 -4 -10 6 -1 7 6 9 16 6 22 -8 12 -29 15 -39 4z"/>
<path d="M8377 7383 c-12 -12 -7 -31 9 -37 15 -6 15 -4 3 11 -12 15 -12 16 4
10 11 -4 17 -2 17 8 0 15 -21 20 -33 8z"/>
<path d="M1317 7302 c-46 -48 -34 -132 20 -145 23 -5 63 17 63 35 0 6 -9 3
-19 -6 -12 -11 -27 -15 -39 -12 -26 8 -36 35 -17 41 8 3 21 7 29 9 8 3 22 17
32 31 13 21 15 31 6 50 -15 33 -42 32 -75 -3z m63 -11 c0 -24 -50 -65 -63 -52
-14 14 20 71 43 71 13 0 20 -7 20 -19z"/>
<path d="M2516 7299 c-43 -51 -32 -135 19 -139 35 -4 44 0 56 21 11 21 10 21
-12 5 -29 -20 -34 -20 -53 0 -23 22 -20 34 7 34 42 0 81 66 57 95 -19 23 -46
18 -74 -16z m61 -6 c6 -18 -46 -68 -59 -55 -14 14 19 74 39 70 9 -2 18 -8 20
-15z"/>
<path d="M3215 7305 c-14 -13 -25 -31 -25 -39 0 -20 39 -46 67 -46 16 0 23 -6
23 -19 0 -26 -28 -34 -57 -16 -21 14 -24 14 -29 0 -8 -20 -4 -23 32 -31 42 -8
81 24 66 53 -6 11 -23 24 -36 27 -39 10 -51 41 -26 66 24 24 47 22 42 -4 -2
-9 4 -16 13 -16 18 0 20 21 3 38 -19 19 -47 14 -73 -13z"/>
<path d="M3847 7319 c-22 -13 -47 -61 -47 -91 0 -52 53 -89 87 -61 17 13 17
14 -3 8 -27 -7 -54 18 -54 50 0 30 18 77 33 87 18 11 29 -2 16 -19 -18 -21 10
-38 31 -17 30 30 -22 67 -63 43z"/>
<path d="M3982 7307 c-45 -48 -46 -122 -3 -143 29 -15 59 -7 72 18 10 19 9 19
-14 3 -13 -8 -31 -13 -40 -9 -23 9 -29 34 -9 40 52 16 81 59 62 94 -14 27 -41
25 -68 -3z m58 -12 c0 -9 -12 -28 -26 -42 -35 -35 -54 -17 -28 26 19 32 54 42
54 16z"/>
<path d="M5187 7319 c-41 -24 -60 -106 -33 -141 15 -21 66 -24 84 -6 21 21 13
29 -12 13 -25 -17 -51 -12 -60 10 -6 16 -2 20 35 28 32 8 58 60 42 86 -13 20
-33 24 -56 10z m43 -26 c0 -24 -10 -38 -37 -52 -21 -10 -23 -9 -23 10 0 26 27
59 47 59 7 0 13 -8 13 -17z"/>
<path d="M7805 7306 c-48 -48 -40 -135 14 -149 21 -5 61 17 61 34 0 6 -7 3
-16 -5 -18 -19 -20 -19 -45 -6 -25 14 -25 40 1 40 46 0 84 89 44 104 -25 10
-34 7 -59 -18z m55 -20 c0 -27 -18 -46 -42 -46 -23 0 -23 7 2 48 22 35 40 35
40 -2z"/>
<path d="M883 7313 c-14 -5 -18 -120 -5 -139 15 -21 41 -23 66 -3 22 17 26 18
26 5 0 -9 5 -16 10 -16 6 0 10 33 10 80 0 88 -15 108 -25 33 -9 -67 -21 -93
-44 -93 -18 0 -20 8 -23 68 -2 50 -6 68 -15 65z"/>
<path d="M1137 7313 c-3 -4 -8 -65 -12 -135 -7 -115 -6 -128 9 -128 13 0 16 9
15 43 -1 23 -1 52 -1 64 2 21 3 22 31 5 24 -13 32 -14 45 -3 43 36 37 145 -10
157 -13 3 -30 1 -37 -5 -10 -7 -17 -7 -24 0 -6 6 -13 7 -16 2z m93 -57 c0 -45
-10 -74 -27 -80 -44 -17 -62 80 -21 115 27 24 48 9 48 -35z"/>
<path d="M1695 7308 c-2 -7 -5 -43 -7 -81 -2 -48 0 -67 10 -67 7 0 12 14 12
36 0 19 5 45 11 57 9 15 9 22 1 25 -6 2 -9 9 -6 17 3 7 1 16 -5 20 -6 3 -13 0
-16 -7z"/>
<path d="M1746 7304 c-20 -19 -20 -28 -1 -20 8 3 19 -2 24 -12 9 -16 10 -16
16 1 8 20 0 47 -14 47 -5 0 -17 -7 -25 -16z"/>
<path d="M1825 7310 c-4 -6 -9 -35 -12 -64 -5 -46 -2 -57 16 -75 20 -20 25
-21 44 -8 11 7 23 20 26 28 4 12 2 12 -12 0 -9 -7 -24 -10 -33 -7 -14 5 -16
17 -12 71 5 60 -1 80 -17 55z"/>
<path d="M1907 7267 c-6 -62 1 -107 17 -107 7 0 11 28 12 80 0 55 -3 80 -11
80 -7 0 -14 -22 -18 -53z"/>
<path d="M2104 7296 c-23 -19 -28 -32 -28 -71 -1 -57 20 -79 55 -57 15 10 24
11 32 3 21 -21 25 -11 26 71 2 91 -12 98 -28 14 -15 -80 -61 -103 -61 -30 0
24 8 43 25 60 41 41 24 50 -21 10z"/>
<path d="M2697 7283 l-22 -38 -3 33 c-2 20 -9 32 -18 32 -11 0 -14 -17 -14
-76 0 -89 13 -94 40 -15 36 101 60 101 60 -1 0 -65 14 -77 24 -20 3 20 8 46
12 57 5 20 -27 65 -47 65 -5 0 -20 -17 -32 -37z"/>
<path d="M2922 7311 c-35 -23 -43 -110 -12 -141 26 -26 36 -25 65 5 44 43 28
136 -23 140 -12 1 -25 -1 -30 -4z m52 -27 c17 -44 -3 -114 -33 -114 -17 0 -33
49 -26 82 9 40 48 62 59 32z"/>
<path d="M3444 7312 c-11 -6 -19 -73 -15 -129 2 -38 21 -26 21 12 0 62 41 120
56 80 8 -20 24 -9 24 16 0 29 -28 35 -51 10 -25 -26 -32 -27 -24 -1 7 22 6 23
-11 12z"/>
<path d="M3581 7285 c-32 -37 -39 -72 -21 -106 13 -23 33 -24 65 -3 23 15 25
15 25 0 0 -9 6 -16 13 -16 9 0 12 21 10 77 -1 87 -14 100 -25 26 -7 -47 -39
-90 -59 -77 -19 11 -9 72 16 95 13 13 25 27 25 32 0 16 -20 5 -49 -28z"/>
<path d="M4097 7278 c15 -115 48 -147 81 -81 26 50 39 127 22 121 -7 -2 -14
-19 -17 -38 -5 -48 -23 -100 -34 -100 -12 0 -16 13 -24 83 -4 38 -11 57 -20
57 -10 0 -12 -11 -8 -42z"/>
<path d="M4269 7291 c-22 -22 -29 -39 -29 -68 0 -59 38 -83 74 -47 15 14 17
14 22 0 14 -37 24 -11 24 65 0 85 -13 99 -24 25 -13 -83 -66 -115 -66 -40 0
24 8 43 25 60 28 27 30 34 14 34 -6 0 -24 -13 -40 -29z"/>
<path d="M4732 7308 c-7 -7 -12 -38 -12 -70 0 -51 3 -59 26 -75 26 -16 27 -16
44 5 21 26 30 28 30 7 0 -8 5 -15 10 -15 6 0 10 30 10 70 0 39 0 73 1 77 0 4
-4 9 -9 11 -5 1 -13 -22 -17 -53 -7 -57 -35 -102 -56 -89 -6 3 -9 34 -8 70 3
69 -1 80 -19 62z"/>
<path d="M4986 7309 c-3 -8 -7 -69 -11 -136 -5 -107 -4 -123 10 -123 12 0 15
13 15 61 0 54 2 60 18 54 41 -17 50 -16 71 11 49 62 -3 186 -57 132 -8 -8 -15
-8 -26 2 -13 10 -17 10 -20 -1z m94 -62 c0 -55 -21 -87 -47 -71 -44 27 -15
147 29 123 13 -7 18 -22 18 -52z"/>
<path d="M5591 7299 c-12 -20 -11 -21 8 -16 13 3 21 -1 24 -12 4 -14 5 -14 12
2 18 41 -20 64 -44 26z"/>
<path d="M5677 7313 c-9 -14 -11 -106 -3 -130 8 -24 29 -35 50 -27 27 10 25
30 -3 29 -25 0 -26 2 -26 62 0 58 -7 84 -18 66z"/>
<path d="M5757 7260 c-6 -67 0 -100 17 -100 7 0 12 28 13 80 2 61 -1 80 -11
80 -9 0 -15 -20 -19 -60z"/>
<path d="M5951 7289 c-63 -62 -24 -171 41 -113 16 16 18 16 24 0 14 -37 24
-11 24 65 0 86 -13 99 -25 23 -6 -46 -38 -90 -55 -79 -20 13 -11 75 15 101 14
14 25 27 25 29 0 13 -22 2 -49 -26z"/>
<path d="M6242 7311 c-9 -5 -12 -28 -10 -76 4 -95 24 -97 30 -3 5 77 1 92 -20
79z"/>
<path d="M6471 7294 c-12 -15 -21 -31 -21 -36 0 -5 -4 -7 -9 -4 -4 3 -6 17 -3
31 3 20 0 25 -16 25 -18 0 -20 -7 -20 -75 -1 -59 3 -75 14 -75 8 0 14 6 14 13
0 28 50 117 65 117 9 0 13 -5 10 -10 -8 -13 5 -120 15 -120 4 0 10 20 14 45 7
55 22 85 41 85 10 0 15 -17 17 -67 4 -81 21 -86 26 -8 4 82 -29 124 -64 78
-12 -17 -14 -17 -29 5 -21 28 -29 28 -54 -4z"/>
<path d="M6673 7313 c-14 -5 -18 -120 -5 -139 15 -22 42 -23 62 -2 17 19 20
19 26 5 14 -38 24 -12 24 64 0 59 -3 80 -12 77 -7 -3 -14 -22 -16 -44 -6 -59
-28 -105 -47 -98 -21 8 -29 45 -21 99 4 25 6 45 4 44 -2 0 -9 -3 -15 -6z"/>
<path d="M7032 7311 c-9 -5 -12 -27 -10 -71 2 -51 7 -65 24 -77 18 -12 24 -11
47 8 22 17 27 18 27 5 0 -9 5 -16 10 -16 6 0 10 33 10 80 0 88 -15 108 -25 33
-7 -58 -26 -98 -45 -98 -11 0 -16 18 -20 72 -4 56 -8 71 -18 64z"/>
<path d="M7203 7313 c-9 -3 -13 -29 -13 -80 0 -88 13 -93 41 -13 33 94 59 94
59 -1 0 -32 4 -59 9 -59 4 0 15 27 23 60 12 49 12 60 1 60 -7 0 -13 6 -13 14
0 19 -30 29 -46 15 -7 -6 -16 -19 -19 -30 -9 -28 -23 -23 -27 9 -2 18 -8 27
-15 25z"/>
<path d="M7454 7312 c-9 -6 -11 -57 -6 -129 4 -50 19 -19 25 49 6 73 1 94 -19
80z"/>
<path d="M7617 7313 c-3 -4 -6 -66 -6 -136 -2 -99 1 -128 11 -125 8 3 11 21 9
55 -3 54 10 73 34 53 33 -28 75 18 75 83 0 58 -46 97 -78 65 -8 -8 -15 -8 -26
1 -8 7 -16 8 -19 4z m99 -40 c14 -53 -29 -124 -57 -96 -6 6 -12 29 -13 51 -1
69 55 105 70 45z"/>
<path d="M8120 7293 c-22 -28 -26 -67 -11 -106 13 -34 45 -40 77 -14 24 18 26
25 22 74 -5 60 -8 65 -43 68 -17 2 -31 -5 -45 -22z m68 -41 c3 -46 -11 -82
-33 -82 -20 0 -26 14 -27 62 0 29 5 45 18 55 27 20 39 11 42 -35z"/>
<path d="M8383 7313 c-19 -7 -18 -153 1 -153 10 0 14 16 15 57 0 32 3 65 6 74
6 19 -4 29 -22 22z"/>
<path d="M8770 7301 c-18 -34 -12 -109 10 -131 17 -17 24 -19 43 -8 l22 12
-25 6 c-24 6 -25 10 -25 73 0 69 -7 81 -25 48z"/>
<path d="M8854 7255 c-5 -36 -6 -65 -2 -65 5 0 8 -7 8 -15 0 -8 5 -15 10 -15
9 0 12 29 14 127 2 54 -20 32 -30 -32z"/>
<path d="M722 7298 c-14 -14 -16 -106 -3 -127 10 -15 31 -7 31 12 0 25 34 97
45 97 10 0 12 -15 8 -60 -5 -49 -3 -60 9 -60 22 0 25 122 3 140 -12 10 -18 10
-30 0 -8 -7 -15 -18 -15 -24 0 -6 -7 -20 -16 -31 -14 -19 -14 -17 -8 23 7 42
-1 53 -24 30z"/>
<path d="M1453 7303 c-9 -3 -13 -28 -13 -74 0 -88 19 -93 44 -10 10 33 25 62
33 66 14 5 15 -3 10 -60 -5 -54 -4 -65 9 -65 24 0 16 143 -8 148 -12 2 -23 -8
-35 -32 -21 -45 -30 -46 -25 -1 2 19 3 35 1 34 -2 0 -10 -3 -16 -6z"/>
<path d="M2797 7303 c-12 -12 -7 -23 7 -17 11 4 16 -6 21 -40 4 -25 5 -52 2
-60 -3 -8 1 -20 9 -26 12 -11 14 -2 14 57 0 67 -10 93 -35 93 -7 0 -15 -3 -18
-7z"/>
<path d="M3053 7303 c-9 -3 -13 -27 -13 -74 0 -88 18 -91 45 -8 11 33 25 59
30 57 6 -2 9 -29 8 -60 -2 -49 0 -58 15 -58 15 0 16 8 12 72 -4 59 -8 73 -22
76 -12 2 -23 -9 -35 -34 l-18 -37 -5 35 c-3 22 -10 33 -17 31z"/>
<path d="M4572 7301 c-19 -12 -12 -136 8 -136 8 0 19 17 26 41 29 101 57 105
47 7 -5 -45 -3 -53 11 -53 23 0 23 121 0 141 -14 11 -19 9 -35 -11 -10 -14
-19 -30 -19 -37 0 -6 -5 -15 -11 -19 -7 -4 -10 6 -8 29 4 41 -1 49 -19 38z"/>
<path d="M5297 7303 c-4 -3 -7 -37 -7 -75 0 -54 3 -68 15 -68 8 0 15 4 15 10
0 25 43 120 52 114 5 -3 8 -31 6 -62 -2 -36 1 -57 9 -59 13 -5 22 111 10 133
-14 24 -36 15 -56 -23 l-20 -38 -1 38 c0 35 -8 45 -23 30z"/>
<path d="M5540 7235 c0 -43 4 -75 10 -75 6 0 10 13 10 29 0 16 5 42 10 57 7
18 7 30 0 39 -5 6 -7 15 -3 18 3 4 -1 7 -10 7 -14 0 -17 -12 -17 -75z"/>
<path d="M7345 7300 c-3 -5 1 -10 9 -10 15 0 30 -49 26 -86 -4 -31 -1 -44 10
-44 14 0 13 123 -2 138 -15 15 -35 16 -43 2z"/>
<path d="M8617 7303 c-4 -3 -7 -37 -7 -75 0 -87 18 -90 43 -9 11 33 26 62 34
65 13 5 14 -3 8 -59 -6 -56 -4 -65 10 -65 24 0 18 143 -7 148 -11 2 -24 -10
-37 -35 l-20 -38 -1 38 c0 35 -8 45 -23 30z"/>
<path d="M6110 7293 c-55 -10 -42 -23 23 -23 53 0 67 3 67 15 0 15 -33 18 -90
8z"/>
<path d="M4397 7176 c-3 -8 1 -17 8 -20 9 -3 12 -12 8 -23 -6 -16 -5 -16 10
-4 24 19 22 61 -2 61 -10 0 -21 -6 -24 -14z"/>
<path d="M8436 7175 c-3 -9 0 -15 10 -15 11 0 15 -6 11 -20 -6 -24 8 -27 17
-4 12 31 6 54 -13 54 -10 0 -21 -7 -25 -15z"/>
<path d="M8293 7106 c1 -20 7 -34 12 -33 16 6 17 43 1 56 -13 11 -14 7 -13
-23z"/>
<path d="M6944 7100 c1 -36 20 -34 24 3 2 18 -1 27 -11 27 -9 0 -14 -10 -13
-30z"/>
<path d="M2277 6826 l6 -65 -36 6 c-33 5 -38 2 -56 -28 -25 -40 -27 -101 -5
-123 21 -21 37 -20 59 4 21 24 37 26 29 5 -4 -9 0 -15 10 -15 14 0 16 16 18
110 1 61 2 122 2 137 1 19 -5 29 -16 31 -16 3 -17 -4 -11 -62z m-17 -95 c16
-30 12 -66 -10 -91 -28 -33 -50 -20 -50 30 0 47 14 80 35 80 8 0 19 -9 25 -19z"/>
<path d="M2870 6827 l0 -64 -29 5 c-22 3 -33 -2 -50 -23 -26 -34 -29 -106 -5
-129 20 -21 26 -20 58 5 21 17 26 18 26 5 0 -9 6 -16 14 -16 11 0 14 27 15
140 2 120 0 140 -14 140 -12 0 -15 -13 -15 -63z m-10 -96 c16 -31 12 -63 -12
-88 -27 -29 -44 -29 -52 0 -5 22 5 74 19 97 10 16 33 12 45 -9z"/>
<path d="M1467 6873 c-4 -3 -7 -17 -7 -30 0 -18 -5 -23 -26 -23 -14 0 -23 -4
-19 -10 3 -5 16 -10 27 -10 20 0 21 -3 14 -95 -6 -87 -5 -95 11 -95 16 0 18
11 18 90 0 103 4 109 68 103 34 -4 40 -2 29 8 -6 7 -29 13 -50 14 -33 0 -37 3
-40 28 -3 26 -12 34 -25 20z"/>
<path d="M4057 6873 c-4 -3 -7 -17 -7 -30 0 -18 -5 -23 -26 -23 -14 0 -23 -4
-19 -10 3 -5 15 -10 26 -10 17 0 19 -8 19 -95 0 -80 3 -95 16 -95 11 0 14 6 9
20 -4 12 -3 55 0 96 l7 75 32 -1 c17 -1 42 -2 56 -1 l24 1 -21 21 c-15 16 -25
19 -39 12 -33 -16 -49 -10 -49 20 1 25 -13 35 -28 20z"/>
<path d="M5345 6865 c-3 -8 -7 -22 -10 -30 -2 -8 -14 -15 -25 -15 -11 0 -20
-4 -20 -10 0 -5 12 -10 26 -10 l26 0 -7 -95 c-6 -88 -6 -95 12 -95 16 0 18 7
14 51 -1 28 0 70 4 95 l6 44 52 0 c48 1 50 2 33 15 -11 8 -35 15 -53 15 -29 0
-33 3 -33 25 0 27 -18 34 -25 10z"/>
<path d="M2943 6824 c-3 -8 -1 -20 5 -26 7 -7 10 -4 9 8 -2 13 4 18 17 16 11
-2 15 1 11 7 -9 16 -35 13 -42 -5z"/>
<path d="M3263 6833 c-7 -2 -13 -12 -12 -21 0 -11 2 -12 6 -4 8 19 26 14 19
-5 -7 -17 -6 -17 10 -1 24 24 9 44 -23 31z"/>
<path d="M6653 6824 c-3 -8 0 -21 6 -27 9 -9 11 -8 6 6 -8 19 10 24 18 5 3 -7
6 -3 6 10 1 26 -26 31 -36 6z"/>
<path d="M7916 6823 c-9 -24 8 -37 31 -24 16 11 16 11 -4 6 -14 -4 -23 -2 -23
4 0 6 9 11 21 11 11 0 17 5 14 10 -10 16 -32 12 -39 -7z"/>
<path d="M3882 6774 c-15 -32 -6 -50 43 -77 49 -28 63 -50 46 -71 -18 -22 -43
-20 -74 4 -25 20 -26 20 -24 1 2 -28 68 -39 102 -17 43 28 33 60 -30 102 -47
31 -54 40 -49 60 8 32 0 31 -14 -2z"/>
<path d="M3967 6780 c10 -11 19 -20 20 -20 2 0 3 9 3 20 0 13 -7 20 -20 20
-19 0 -19 -1 -3 -20z"/>
<path d="M1177 6760 c-29 -23 -43 -74 -33 -115 12 -47 83 -54 100 -10 5 14 4
14 -16 0 -28 -19 -33 -19 -52 1 -23 22 -20 34 8 34 27 0 66 42 66 69 0 20 -19
41 -36 41 -6 0 -23 -9 -37 -20z m48 -10 c11 -17 -4 -46 -30 -58 -30 -14 -40
-1 -24 30 18 35 42 47 54 28z"/>
<path d="M2663 6765 c-29 -20 -47 -84 -34 -118 18 -48 74 -57 99 -17 11 18 10
18 -18 2 -27 -16 -30 -16 -46 0 -19 18 -11 38 15 38 35 0 67 61 49 94 -11 20
-37 21 -65 1z m51 -21 c8 -20 -41 -71 -56 -56 -6 6 -4 20 6 41 18 33 40 41 50
15z"/>
<path d="M3143 6765 c-33 -23 -49 -85 -32 -121 11 -23 22 -30 50 -32 28 -2 38
1 43 15 6 14 5 16 -5 6 -44 -44 -90 38 -58 100 7 12 17 25 23 29 17 11 28 -3
15 -18 -19 -23 6 -43 27 -22 13 12 14 20 5 37 -14 25 -38 27 -68 6z"/>
<path d="M3527 6769 c-24 -14 -47 -62 -47 -98 0 -20 8 -36 26 -50 34 -27 37
-26 71 4 l28 25 -31 -17 c-27 -14 -34 -15 -48 -4 -24 20 -20 41 9 41 31 0 58
39 53 77 -3 31 -30 41 -61 22z m41 -36 c-2 -17 -12 -32 -28 -40 -31 -15 -36
-4 -15 36 20 40 48 42 43 4z"/>
<path d="M3756 6758 c-31 -27 -45 -92 -27 -127 17 -30 76 -30 92 2 12 21 11
21 -8 5 -25 -23 -36 -23 -58 2 -17 19 -17 20 1 26 54 16 87 61 68 91 -17 27
-39 27 -68 1z m51 -31 c-6 -23 -49 -52 -61 -40 -6 7 10 41 32 66 20 22 37 7
29 -26z"/>
<path d="M4331 6767 c-27 -14 -43 -47 -32 -66 5 -7 26 -18 47 -26 48 -16 51
-39 7 -43 -19 -2 -33 1 -33 7 0 6 -4 11 -10 11 -19 0 -10 -39 11 -45 24 -8 75
11 83 31 6 16 -4 26 -51 54 -38 22 -43 54 -13 70 25 13 40 5 40 -21 0 -11 5
-17 10 -14 16 10 12 42 -6 49 -21 8 -25 8 -53 -7z"/>
<path d="M5049 6751 c-23 -23 -29 -39 -29 -70 0 -45 31 -87 57 -77 8 3 19 6
23 6 5 0 14 10 21 21 11 21 10 21 -12 5 -29 -20 -34 -20 -53 0 -23 22 -20 34
8 34 27 0 66 42 66 69 0 21 -19 41 -38 41 -7 0 -27 -13 -43 -29z m61 -6 c0
-21 -47 -68 -60 -60 -11 7 5 56 23 67 20 13 37 9 37 -7z"/>
<path d="M6076 6749 c-31 -37 -36 -98 -8 -121 30 -26 50 -28 74 -7 l23 19 -27
-11 c-38 -16 -58 2 -58 53 0 44 12 73 34 81 11 4 14 -1 13 -20 -2 -32 18 -41
32 -14 8 15 7 23 -5 35 -24 24 -50 19 -78 -15z"/>
<path d="M6954 6773 c-55 -5 -77 -31 -77 -88 0 -24 5 -51 13 -59 14 -18 56
-21 66 -5 14 24 22 -15 10 -55 -9 -30 -18 -42 -34 -44 -18 -3 -23 3 -28 27 -7
32 -24 33 -24 2 0 -27 35 -54 60 -46 40 13 53 50 58 166 3 60 3 108 1 107 -2
-1 -23 -3 -45 -5z m9 -30 c19 -32 16 -70 -8 -98 -25 -30 -25 -30 -41 -10 -14
19 -13 82 2 107 6 10 41 11 47 1z"/>
<path d="M7070 6760 c-29 -29 -42 -68 -35 -102 12 -54 76 -71 103 -28 11 18
10 18 -17 2 -24 -14 -32 -14 -45 -3 -24 20 -20 41 7 41 31 0 60 32 60 66 0 45
-40 57 -73 24z m50 -23 c0 -28 -17 -47 -42 -47 -22 0 -22 3 -3 40 19 36 45 40
45 7z"/>
<path d="M7567 6760 c-70 -56 -40 -180 37 -150 13 4 26 16 30 25 5 15 4 15
-16 0 -28 -19 -33 -19 -52 1 -23 22 -20 32 11 36 14 2 35 15 46 30 17 23 19
31 9 53 -14 30 -31 32 -65 5z m53 -17 c-1 -24 -22 -50 -44 -55 -27 -5 -30 15
-6 45 24 31 50 36 50 10z"/>
<path d="M7807 6769 c-22 -13 -47 -61 -47 -91 0 -61 67 -90 106 -47 l19 21
-32 -18 c-41 -24 -63 -7 -63 46 0 39 34 95 51 84 6 -3 5 -11 -2 -20 -15 -19 1
-37 24 -28 32 12 13 64 -22 64 -9 0 -24 -5 -34 -11z"/>
<path d="M8176 6757 c-56 -56 -39 -147 27 -147 21 0 36 7 44 19 12 19 11 19
-16 3 -24 -14 -32 -14 -45 -3 -21 18 -20 41 2 41 10 0 28 7 40 16 18 12 22 24
20 52 -4 47 -36 55 -72 19z m54 -22 c0 -15 -10 -31 -25 -41 -34 -22 -42 -11
-22 31 20 41 47 47 47 10z"/>
<path d="M986 6759 c-2 -8 -7 -69 -10 -136 -5 -105 -4 -123 9 -123 12 0 15 14
15 61 0 54 2 60 18 54 44 -18 51 -17 72 16 24 39 22 101 -4 128 -13 12 -22 13
-45 4 -21 -7 -33 -7 -40 0 -7 7 -12 6 -15 -4z m94 -62 c0 -86 -61 -106 -68
-23 -4 51 21 90 48 76 15 -8 20 -21 20 -53z"/>
<path d="M1589 6748 c-10 -18 -9 -20 5 -15 9 4 19 -1 25 -11 9 -16 10 -16 16
1 17 42 -25 65 -46 25z"/>
<path d="M1670 6746 c-33 -89 13 -175 67 -125 19 19 23 20 23 6 0 -9 6 -17 13
-17 8 0 12 23 13 80 0 55 -3 80 -11 80 -7 0 -15 -23 -18 -57 -7 -64 -39 -111
-58 -83 -5 8 -8 41 -7 72 3 64 -6 84 -22 44z"/>
<path d="M1949 6739 c-60 -64 -20 -170 43 -113 16 16 18 16 24 0 13 -35 21
-12 23 65 2 88 -13 101 -25 22 -6 -42 -32 -83 -53 -83 -15 0 -22 47 -11 74 5
14 18 31 30 38 22 14 27 28 9 28 -6 0 -24 -14 -40 -31z"/>
<path d="M2390 6762 c-34 -6 -49 -30 -50 -79 0 -30 6 -49 20 -63 25 -25 31
-25 65 2 25 19 27 26 23 70 -6 56 -22 76 -58 70z m40 -73 c0 -35 -20 -69 -40
-69 -15 0 -30 36 -30 69 0 19 8 35 22 45 30 21 48 4 48 -45z"/>
<path d="M2485 6718 c4 -29 13 -68 21 -86 11 -28 16 -32 33 -23 20 11 44 65
55 124 6 30 4 37 -9 37 -11 0 -15 -10 -15 -35 0 -40 -24 -105 -38 -105 -12 0
-22 49 -22 101 0 29 -4 39 -16 39 -13 0 -15 -8 -9 -52z"/>
<path d="M2953 6763 c-9 -3 -13 -29 -13 -80 0 -55 3 -74 13 -71 12 4 28 147
17 153 -3 1 -11 0 -17 -2z"/>
<path d="M4143 6763 c-19 -7 -18 -153 0 -153 10 0 14 17 16 58 1 31 4 64 7 74
5 18 -5 28 -23 21z"/>
<path d="M4482 6754 c-56 -39 -66 -128 -16 -140 14 -4 31 -1 40 6 11 10 18 10
26 2 7 -7 14 -12 18 -12 3 0 6 36 7 80 1 44 -2 80 -6 80 -12 0 -21 -26 -21
-56 0 -46 -30 -87 -57 -77 -24 9 -15 63 16 94 32 32 27 47 -7 23z"/>
<path d="M4613 6763 c-17 -6 -17 -125 -1 -141 17 -17 57 -15 64 3 4 8 10 15
15 15 5 0 9 -7 9 -15 0 -8 5 -15 10 -15 6 0 10 33 10 80 0 92 -15 107 -25 25
-8 -60 -34 -103 -54 -91 -8 5 -12 30 -10 72 2 68 1 74 -18 67z"/>
<path d="M4915 6760 c-3 -6 -17 -7 -31 -4 -24 6 -24 5 -24 -63 0 -39 -3 -98
-6 -132 -6 -51 -4 -61 8 -61 12 0 17 22 23 111 6 91 10 114 27 131 26 26 48 8
48 -38 0 -53 -17 -87 -40 -81 -27 7 -26 -10 1 -18 49 -16 85 74 54 134 -15 31
-47 42 -60 21z"/>
<path d="M5470 6750 c-12 -23 -35 -27 -26 -5 3 9 0 15 -9 15 -12 0 -15 -16
-15 -75 0 -43 4 -75 10 -75 6 0 10 16 10 36 0 60 35 107 57 77 12 -15 13 -15
19 0 15 41 -26 65 -46 27z"/>
<path d="M5555 6760 c-3 -6 -9 -34 -12 -63 -4 -44 -1 -56 16 -74 27 -28 35
-29 61 -1 17 18 20 19 20 5 0 -9 6 -17 13 -17 9 0 13 23 15 80 2 63 -1 80 -12
80 -9 0 -15 -17 -18 -55 -9 -110 -73 -124 -66 -14 3 57 -4 81 -17 59z"/>
<path d="M5829 6739 c-60 -64 -20 -170 43 -113 16 16 18 16 24 0 13 -35 21
-12 23 65 2 88 -13 101 -25 22 -4 -25 -16 -55 -27 -66 -20 -20 -20 -20 -34 -1
-18 25 -9 63 22 91 27 24 31 33 14 33 -6 0 -24 -14 -40 -31z"/>
<path d="M6213 6744 c-7 -12 -16 -38 -20 -57 -4 -29 -1 -40 20 -61 20 -20 31
-24 49 -17 43 16 61 82 34 130 -18 32 -63 35 -83 5z m73 -63 c-12 -75 -66 -77
-66 -2 0 40 8 55 30 63 24 9 42 -23 36 -61z"/>
<path d="M6506 6713 c7 -59 28 -113 43 -113 22 0 77 140 64 163 -11 19 -21 3
-26 -43 -3 -27 -13 -62 -21 -77 l-14 -28 -11 28 c-6 16 -11 51 -11 78 0 38 -4
49 -16 49 -13 0 -14 -9 -8 -57z"/>
<path d="M6663 6763 c-9 -3 -13 -28 -13 -79 0 -76 14 -100 25 -41 10 51 2 124
-12 120z"/>
<path d="M7425 6760 c-3 -6 -17 -7 -31 -4 -24 6 -24 5 -24 -63 0 -39 -3 -98
-6 -132 -6 -52 -5 -61 10 -61 13 0 16 11 16 65 0 37 4 65 10 65 6 0 10 -4 10
-9 0 -5 9 -13 21 -16 49 -16 85 74 54 134 -15 31 -47 42 -60 21z m45 -64 c0
-88 -62 -104 -68 -18 -2 31 2 46 18 62 29 29 50 11 50 -44z"/>
<path d="M7924 6762 c-12 -8 -13 -136 -1 -148 12 -12 14 -3 20 79 7 75 4 85
-19 69z"/>
<path d="M8290 6757 c0 -31 23 -133 32 -144 20 -24 47 5 68 73 11 36 17 70 14
75 -11 19 -24 8 -25 -23 -1 -40 -22 -101 -36 -105 -12 -4 -23 42 -23 98 0 28
-4 39 -15 39 -8 0 -15 -6 -15 -13z"/>
<path d="M8469 6742 c-21 -19 -32 -38 -34 -62 -5 -55 41 -90 73 -58 9 9 15 9
24 0 7 -7 14 -12 18 -12 3 0 6 36 8 80 1 44 -2 80 -7 80 -11 0 -21 -25 -21
-55 0 -32 -19 -73 -37 -79 -43 -17 -46 53 -4 95 38 38 21 48 -20 11z"/>
<path d="M1293 6748 c-15 -20 -4 -138 13 -138 8 0 14 7 14 16 0 27 42 114 52
108 5 -3 8 -31 6 -62 -2 -37 1 -56 10 -59 20 -7 17 133 -4 141 -21 8 -29 2
-44 -34 -15 -37 -31 -30 -23 10 6 31 -7 40 -24 18z"/>
<path d="M1540 6685 c0 -43 4 -75 10 -75 6 0 10 16 10 36 0 19 4 43 9 53 13
23 3 61 -15 61 -11 0 -14 -18 -14 -75z"/>
<path d="M3257 6753 c-11 -11 -8 -131 4 -138 15 -10 16 -8 22 73 4 55 3 72 -7
72 -7 0 -16 -3 -19 -7z"/>
<path d="M3343 6753 c-9 -3 -13 -27 -13 -74 0 -88 20 -93 46 -12 26 79 42 80
46 1 4 -80 18 -82 23 -4 6 99 -31 131 -63 54 l-17 -43 -5 41 c-3 27 -9 39 -17
37z"/>
<path d="M5180 6750 c-12 -6 -14 -23 -12 -74 4 -80 24 -89 41 -19 25 99 58
104 46 7 -6 -48 -4 -54 12 -54 16 0 18 8 15 69 -3 53 -7 71 -20 76 -17 6 -50
-28 -53 -55 -1 -8 -5 2 -8 22 -5 29 -9 35 -21 28z"/>
<path d="M6352 6751 c-9 -5 -12 -28 -10 -72 4 -83 25 -87 48 -9 23 79 46 79
42 0 -3 -47 -1 -60 11 -60 10 0 14 15 16 61 3 93 -34 121 -63 49 -20 -49 -29
-51 -23 -5 5 38 -1 48 -21 36z"/>
<path d="M6734 6748 c-5 -7 -8 -23 -7 -35 1 -13 1 -41 2 -63 1 -28 5 -40 16
-40 8 0 15 4 15 10 0 25 43 120 52 114 5 -3 8 -31 6 -62 -2 -38 1 -56 10 -59
20 -7 17 133 -4 141 -21 8 -29 2 -44 -34 -17 -40 -27 -38 -22 5 4 35 -9 47
-24 23z"/>
<path d="M8002 6751 c-9 -5 -12 -27 -10 -72 4 -80 24 -87 45 -14 25 85 37 88
43 11 3 -36 10 -66 15 -66 6 0 11 28 13 63 2 50 -1 67 -14 78 -14 12 -19 10
-35 -10 -11 -13 -19 -29 -19 -37 0 -30 -19 -12 -22 21 -2 25 -6 32 -16 26z"/>
<path d="M8601 6640 c-19 -11 -6 -41 14 -34 16 6 20 29 7 38 -4 2 -14 1 -21
-4z"/>
<path d="M3926 6575 c-3 -8 0 -15 5 -15 6 0 9 -9 6 -19 -3 -14 -1 -18 9 -14
18 7 18 37 0 52 -10 9 -15 8 -20 -4z"/>
<path d="M780 6405 c-18 -19 -20 -25 -8 -25 9 0 21 7 28 15 12 14 15 14 30 0
25 -23 32 -18 14 10 -9 14 -22 25 -28 25 -7 0 -23 -11 -36 -25z"/>
<path d="M2220 6278 c0 -56 -3 -69 -12 -60 -29 29 -67 4 -87 -59 -23 -73 22
-126 71 -82 16 15 21 15 28 3 5 -8 11 -12 13 -10 3 3 8 67 12 143 6 122 5 137
-9 137 -13 0 -16 -13 -16 -72z m-14 -85 c21 -28 16 -67 -10 -93 -32 -29 -56
-21 -56 20 0 36 25 90 42 90 6 0 17 -8 24 -17z"/>
<path d="M757 6333 c-13 -12 -7 -23 13 -23 23 0 23 0 20 -140 -1 -69 -5 -98
-16 -106 -26 -20 -17 -37 17 -30 17 3 41 6 53 6 21 1 21 1 1 16 -18 13 -20 27
-20 134 0 118 0 120 23 120 13 0 22 6 22 15 0 11 -13 15 -53 15 -30 0 -57 -3
-60 -7z"/>
<path d="M6096 6332 c-9 -15 -19 -218 -12 -246 3 -14 12 -26 19 -26 9 0 11 20
9 75 -5 101 1 125 34 125 l26 0 -3 -97 c-3 -82 -2 -98 11 -98 11 0 14 10 12
39 -2 21 -1 65 3 97 l7 59 50 0 c30 0 47 4 43 10 -3 6 -26 10 -51 10 -41 0
-44 2 -44 26 0 31 -23 28 -28 -4 -2 -16 -10 -22 -28 -22 -22 0 -25 4 -22 27 3
25 -15 43 -26 25z"/>
<path d="M7823 6333 c-7 -3 -13 -16 -13 -29 0 -19 -5 -24 -25 -24 -31 0 -33
-17 -4 -22 21 -3 22 -8 20 -102 -2 -77 1 -97 11 -94 9 3 15 34 18 99 l5 94 53
3 c63 4 60 22 -3 22 -41 0 -44 2 -47 28 -2 18 -8 27 -15 25z"/>
<path d="M8803 6328 c-4 -7 -6 -21 -5 -30 5 -27 -63 -25 -80 2 -17 26 -30 25
-58 -5 -14 -15 -18 -25 -10 -25 7 0 19 8 25 17 12 17 14 17 32 1 10 -9 34 -20
53 -25 l35 -9 -3 -97 c-3 -76 -1 -97 10 -97 10 0 13 22 15 90 1 49 4 94 8 100
3 5 29 10 58 10 62 0 52 17 -13 22 -40 3 -45 6 -42 25 3 25 -13 39 -25 21z"/>
<path d="M1957 6323 c-4 -3 -7 -15 -7 -25 0 -26 -48 -24 -76 3 -22 21 -25 21
-49 5 -14 -9 -25 -21 -25 -26 0 -14 11 -12 31 5 15 14 18 14 31 1 8 -8 32 -18
52 -21 l36 -7 0 -100 c0 -76 3 -99 13 -95 6 2 11 11 9 18 -2 7 0 51 3 96 l7
83 49 0 c27 0 49 5 49 10 0 6 -22 10 -50 10 -47 0 -50 2 -50 25 0 24 -10 32
-23 18z"/>
<path d="M3760 6305 c0 -18 -5 -25 -20 -25 -11 0 -20 -4 -20 -10 0 -5 9 -10
21 -10 20 0 20 -4 17 -94 -1 -52 0 -98 4 -101 12 -12 26 5 21 25 -3 11 -2 54
2 95 l7 75 49 0 c31 0 48 4 44 10 -3 6 -27 10 -52 10 -43 0 -45 1 -41 25 4 19
1 25 -13 25 -14 0 -19 -7 -19 -25z"/>
<path d="M4310 6325 c0 -2 7 -11 16 -19 21 -22 57 -20 79 4 18 20 18 20 -14 9
-24 -8 -39 -9 -57 0 -13 6 -24 9 -24 6z"/>
<path d="M2892 6311 c-1 -8 -12 -25 -24 -38 -12 -13 -16 -23 -10 -23 8 0 12
-26 12 -83 0 -67 3 -87 18 -100 15 -13 19 -14 36 -1 19 14 19 14 -2 14 -21 0
-22 4 -22 84 0 80 1 85 23 89 22 4 22 4 0 6 -17 1 -23 9 -26 34 -2 17 -5 26
-5 18z"/>
<path d="M1362 6279 c-13 -16 -19 -29 -13 -29 7 0 11 -32 11 -88 0 -75 3 -89
19 -99 15 -9 23 -9 37 2 18 14 18 14 -4 15 -22 0 -22 2 -21 111 0 61 -1 112
-3 113 -1 2 -13 -10 -26 -25z"/>
<path d="M1470 6285 c-12 -15 -6 -35 10 -35 5 0 6 8 3 17 -5 12 -2 15 10 10 9
-3 17 -2 17 2 0 16 -28 20 -40 6z"/>
<path d="M2980 6285 c-14 -17 -5 -35 18 -34 11 0 12 3 5 6 -7 2 -13 9 -13 15
0 6 7 8 15 4 8 -3 15 -1 15 3 0 16 -28 20 -40 6z"/>
<path d="M5483 6275 c-12 -14 -17 -25 -12 -25 5 0 9 -35 9 -78 0 -55 5 -84 16
-100 9 -13 13 -29 10 -37 -3 -8 -1 -17 5 -21 5 -3 7 -15 3 -27 -6 -22 -6 -22
10 -2 18 23 21 45 6 45 -16 0 -12 22 8 36 15 12 15 13 1 14 -23 0 -29 21 -29
96 0 58 2 66 23 74 l22 9 -22 0 c-13 1 -23 8 -25 21 -3 18 -4 18 -25 -5z"/>
<path d="M5595 6283 c-7 -19 9 -38 24 -29 16 10 14 33 -3 39 -8 3 -17 -1 -21
-10z m25 -13 c0 -5 -4 -10 -10 -10 -5 0 -10 5 -10 10 0 6 5 10 10 10 6 0 10
-4 10 -10z"/>
<path d="M8316 6293 c-10 -10 -7 -43 4 -43 5 0 6 8 3 17 -5 12 -2 15 10 10 9
-3 17 -2 17 2 0 11 -26 22 -34 14z"/>
<path d="M4310 6240 c-12 -12 -18 -25 -15 -30 11 -17 23 -11 27 13 3 24 42 37
60 19 17 -17 19 -130 2 -147 -21 -21 -51 -19 -64 4 -13 26 -4 48 29 66 14 8
22 14 16 15 -5 0 -25 -9 -42 -20 -25 -15 -33 -27 -33 -49 0 -43 23 -58 67 -42
28 11 37 11 43 1 5 -8 15 -10 26 -6 13 5 15 9 6 18 -7 7 -12 42 -12 83 0 42
-5 76 -12 83 -19 19 -76 14 -98 -8z"/>
<path d="M8157 6242 c-10 -10 -17 -25 -17 -34 0 -16 40 -58 57 -58 22 0 45
-39 39 -65 -8 -32 -1 -32 20 0 23 35 9 62 -47 91 -40 20 -50 29 -47 47 4 29
56 37 75 11 12 -17 13 -16 13 4 0 19 -6 22 -38 22 -25 0 -45 -7 -55 -18z"/>
<path d="M1250 6234 c-24 -7 -60 -68 -60 -102 0 -34 29 -72 56 -72 22 0 54 19
54 32 0 9 -3 9 -12 0 -19 -19 -56 -14 -68 8 -6 11 -9 20 -8 21 2 0 13 2 25 3
33 4 63 35 63 66 0 24 -17 52 -29 49 -4 -1 -13 -3 -21 -5z m30 -36 c0 -25 -27
-58 -47 -58 -17 0 -17 14 2 50 18 35 45 40 45 8z"/>
<path d="M1659 6211 c-38 -39 -42 -111 -7 -135 30 -21 51 -20 73 4 17 19 17
19 -14 7 -38 -14 -51 -3 -56 47 -2 24 3 43 17 61 25 32 40 32 32 0 -5 -21 -3
-25 15 -25 28 0 29 45 2 60 -27 14 -29 14 -62 -19z"/>
<path d="M2324 6222 c-47 -38 -59 -107 -24 -142 23 -23 48 -25 74 -5 17 13 16
14 -17 8 -29 -4 -37 -2 -46 16 -7 11 -10 21 -9 22 2 0 14 2 28 5 48 8 78 72
48 102 -16 16 -29 15 -54 -6z m44 -26 c4 -20 -25 -56 -45 -56 -18 0 -17 31 3
58 18 26 37 25 42 -2z"/>
<path d="M3337 6220 c-28 -22 -50 -81 -40 -108 17 -47 67 -68 92 -38 9 11 6
12 -15 8 -46 -9 -69 45 -43 102 12 25 37 41 48 31 3 -3 -1 -10 -9 -15 -20 -12
2 -35 24 -27 22 9 20 44 -3 57 -25 13 -24 13 -54 -10z"/>
<path d="M3887 6231 c-27 -10 -57 -62 -57 -98 0 -35 29 -73 56 -73 22 0 54 19
54 32 0 7 -5 7 -14 -2 -22 -17 -61 -9 -61 14 0 11 8 20 18 22 30 4 57 35 57
65 0 32 -25 50 -53 40z m33 -33 c0 -25 -27 -58 -47 -58 -18 0 -17 25 3 55 20
31 44 32 44 3z"/>
<path d="M4770 6211 c-16 -16 -32 -40 -36 -55 -9 -36 13 -85 41 -92 25 -6 65
10 65 26 0 6 -9 5 -20 -2 -15 -10 -25 -10 -38 -2 -22 15 -22 36 1 40 47 7 75
72 45 102 -18 18 -26 15 -58 -17z m53 -5 c7 -18 -29 -66 -49 -66 -20 0 -17 23
7 54 23 29 34 33 42 12z"/>
<path d="M5039 6211 c-24 -24 -29 -38 -29 -75 0 -38 4 -48 26 -63 23 -15 29
-15 52 -2 14 8 27 21 29 29 3 10 1 9 -7 -2 -15 -24 -57 -23 -70 2 -13 24 -3
85 17 105 22 22 31 18 25 -11 -4 -21 -1 -25 14 -22 25 5 30 39 8 55 -25 18
-32 17 -65 -16z"/>
<path d="M5201 6226 c-48 -26 -66 -100 -35 -144 20 -28 56 -28 80 0 14 17 15
19 2 10 -9 -8 -27 -12 -40 -10 -26 4 -38 38 -13 38 25 0 65 46 65 74 0 33 -28
48 -59 32z m39 -30 c0 -22 -32 -56 -52 -56 -13 0 -9 34 8 58 20 30 44 28 44
-2z"/>
<path d="M6990 6232 c-22 -7 -60 -43 -60 -57 0 -19 32 -42 68 -50 39 -8 42
-32 5 -41 -19 -5 -30 -2 -40 12 -12 16 -15 17 -23 4 -20 -32 37 -53 81 -30 32
18 23 47 -21 70 -41 21 -51 45 -28 68 19 19 48 15 48 -8 0 -11 5 -20 10 -20 6
0 10 9 10 20 0 22 -27 40 -50 32z"/>
<path d="M8520 6227 c-30 -15 -50 -52 -50 -94 0 -54 59 -95 88 -60 8 9 3 12
-21 12 -30 0 -32 3 -37 40 -4 29 -1 47 13 68 23 34 39 35 31 2 -5 -19 -2 -25
10 -25 21 0 32 28 19 48 -13 22 -24 24 -53 9z"/>
<path d="M1048 6225 c-5 -6 15 -119 27 -148 4 -10 15 -17 24 -15 33 6 78 146
52 162 -7 5 -11 -3 -11 -22 0 -35 -29 -122 -40 -122 -10 0 -18 41 -22 104 -3
36 -16 55 -30 41z"/>
<path d="M2586 6223 c-4 -4 -19 -7 -34 -8 l-27 0 -5 -111 c-5 -120 -4 -144 11
-144 5 0 9 24 9 53 0 30 3 56 6 59 3 3 19 1 35 -6 28 -10 33 -8 50 13 26 32
26 100 -1 129 -22 23 -32 27 -44 15z m36 -38 c14 -30 0 -83 -25 -99 -26 -16
-50 18 -43 62 9 62 47 82 68 37z"/>
<path d="M2786 6218 c-20 -63 -10 -168 14 -153 13 8 13 152 0 160 -6 3 -12 0
-14 -7z"/>
<path d="M4153 6220 c-36 -15 -27 -23 17 -17 22 3 43 1 46 -4 3 -5 -13 -34
-35 -66 -23 -31 -41 -60 -41 -65 0 -4 25 -8 55 -8 44 0 55 3 55 16 0 13 -8 15
-40 12 -22 -2 -40 -1 -40 2 0 3 18 28 40 55 22 28 40 55 40 61 0 22 -58 30
-97 14z"/>
<path d="M4636 6223 c-4 -4 -19 -7 -34 -8 -27 0 -27 -1 -29 -80 -2 -44 -4
-101 -6 -127 -3 -36 -1 -48 9 -48 10 0 14 16 14 60 0 55 10 75 25 50 11 -18
53 -11 69 12 23 33 21 103 -4 128 -21 21 -32 24 -44 13z m36 -38 c17 -39 -5
-105 -36 -105 -18 0 -25 7 -29 29 -15 74 37 136 65 76z"/>
<path d="M5355 6220 c-3 -6 -17 -7 -31 -4 l-24 6 -1 -88 c0 -49 -3 -108 -5
-131 -4 -34 -2 -43 10 -43 13 0 16 12 16 60 0 55 10 75 25 50 3 -5 17 -10 30
-10 43 0 70 82 44 133 -19 35 -51 49 -64 27z m41 -22 c11 -17 6 -89 -7 -104
-15 -19 -45 -18 -53 2 -23 59 30 150 60 102z"/>
<path d="M6452 6212 c-26 -26 -32 -27 -32 -6 0 9 -6 14 -12 12 -9 -3 -13 -28
-13 -76 0 -76 19 -107 22 -36 0 23 6 51 12 63 12 21 41 29 41 11 0 -15 17 -12
23 4 3 8 0 22 -7 32 -12 16 -14 16 -34 -4z"/>
<path d="M7176 6218 c-18 -58 -10 -175 11 -154 12 12 15 153 4 161 -6 3 -13 0
-15 -7z"/>
<path d="M7306 6223 c-4 -4 -19 -7 -34 -8 -25 0 -27 -3 -29 -50 -1 -27 -4 -85
-7 -127 -3 -62 -1 -78 10 -78 10 0 14 14 14 53 0 59 6 72 26 56 21 -17 57 -6
72 21 30 57 -14 171 -52 133z m30 -24 c11 -19 8 -88 -6 -104 -21 -25 -48 -18
-55 15 -14 61 34 132 61 89z"/>
<path d="M1466 6212 c-7 -13 -2 -139 7 -148 12 -12 14 -3 21 79 6 64 4 77 -8
77 -8 0 -17 -4 -20 -8z"/>
<path d="M1799 6189 c-34 -36 -38 -76 -10 -110 18 -22 19 -23 46 -5 26 17 27
17 41 -1 7 -10 14 -16 14 -13 1 3 2 40 3 83 1 56 -1 77 -10 77 -8 0 -13 -14
-13 -37 0 -50 -20 -87 -48 -91 -19 -3 -22 1 -22 34 0 27 7 46 27 66 15 16 21
28 14 28 -7 0 -26 -14 -42 -31z"/>
<path d="M2695 6210 c-13 -20 -10 -117 4 -134 16 -19 42 -21 59 -4 18 18 14
33 -4 17 -28 -23 -47 15 -39 79 6 49 -4 69 -20 42z"/>
<path d="M2977 6207 c-8 -20 5 -149 13 -140 4 4 11 41 14 81 6 59 5 72 -7 72
-8 0 -17 -6 -20 -13z"/>
<path d="M3116 6197 c-7 -12 -19 -31 -25 -42 -10 -17 -11 -15 -8 18 2 31 0 37
-15 37 -17 0 -19 -7 -16 -67 2 -37 8 -68 14 -70 6 -2 21 24 33 57 29 78 45 74
42 -9 -2 -47 1 -62 10 -59 13 4 23 87 14 124 -7 32 -32 37 -49 11z"/>
<path d="M3455 6190 c-30 -59 -8 -130 40 -130 32 0 55 35 55 83 0 54 -15 77
-50 77 -23 0 -33 -7 -45 -30z m70 -44 c0 -78 -50 -94 -59 -19 -5 36 19 75 42
71 13 -3 17 -15 17 -52z"/>
<path d="M3658 6203 c-8 -10 -18 -26 -21 -35 -10 -29 -24 -20 -19 12 3 23 0
30 -12 30 -13 0 -16 -12 -16 -70 0 -89 20 -95 46 -13 27 81 44 81 44 -1 0 -83
15 -86 24 -4 5 52 3 65 -12 81 -18 17 -19 17 -34 0z"/>
<path d="M4010 6200 c-21 -21 -40 -61 -40 -85 0 -7 8 -23 19 -36 18 -23 19
-23 46 -5 25 17 29 17 37 2 17 -31 23 -16 26 64 2 45 -1 80 -6 80 -13 0 -22
-25 -22 -60 0 -37 -31 -75 -55 -67 -26 11 -12 76 23 104 21 18 23 23 10 23
-10 0 -27 -9 -38 -20z"/>
<path d="M4888 6202 c-10 -37 -3 -135 10 -139 8 -3 12 10 12 44 1 47 17 83 38
83 6 0 12 -6 15 -12 3 -10 7 -10 17 -1 7 6 10 19 7 27 -8 20 -43 21 -51 1 -3
-8 -10 -15 -16 -15 -5 0 -10 7 -10 15 0 21 -17 19 -22 -3z"/>
<path d="M5590 6140 c0 -44 4 -80 9 -80 15 0 21 28 21 96 0 50 -3 64 -15 64
-12 0 -15 -16 -15 -80z"/>
<path d="M5686 6189 c-54 -64 -21 -155 41 -114 23 16 26 15 39 -2 12 -16 13
-8 14 65 0 89 -13 110 -24 37 -8 -59 -22 -85 -46 -85 -31 0 -27 60 6 99 19 23
22 31 11 31 -8 0 -27 -14 -41 -31z"/>
<path d="M5950 6200 c-22 -22 -40 -61 -40 -86 0 -8 9 -23 21 -35 19 -19 22
-20 46 -4 24 16 27 16 35 1 17 -31 23 -15 25 65 1 57 -2 79 -10 76 -7 -2 -15
-25 -19 -52 -7 -53 -28 -81 -52 -72 -31 12 -14 75 28 109 18 15 19 18 4 18
-10 0 -27 -9 -38 -20z"/>
<path d="M6255 6190 c-43 -82 23 -173 80 -110 22 24 26 100 6 123 -23 28 -68
22 -86 -13z m75 -10 c8 -14 8 -32 0 -61 -9 -33 -15 -40 -33 -37 -19 3 -22 10
-25 55 -2 43 0 52 15 56 31 8 32 8 43 -13z"/>
<path d="M6550 6200 c-22 -22 -40 -61 -40 -86 0 -8 9 -23 21 -35 19 -19 22
-20 46 -4 24 16 27 16 35 1 17 -31 23 -16 25 65 1 58 -2 79 -10 76 -7 -2 -14
-25 -17 -50 -7 -53 -29 -83 -56 -73 -23 9 -12 75 16 98 11 9 20 19 20 22 0 13
-21 5 -40 -14z"/>
<path d="M6796 6189 c-18 -21 -26 -42 -26 -70 0 -33 3 -39 27 -45 15 -4 34 -2
45 5 17 10 22 9 34 -6 12 -16 13 -8 14 65 0 48 -4 82 -10 82 -5 0 -11 -8 -11
-17 -4 -50 -7 -66 -19 -89 -8 -13 -22 -24 -32 -24 -29 0 -24 61 8 99 19 23 22
31 11 31 -8 0 -27 -14 -41 -31z"/>
<path d="M7078 6208 c-3 -7 -6 -33 -7 -57 -3 -72 45 -118 80 -75 11 13 9 14
-14 9 -22 -6 -27 -3 -33 20 -3 14 -4 46 -1 71 3 31 1 44 -8 44 -7 0 -15 -6
-17 -12z"/>
<path d="M7417 6213 c-11 -11 -8 -153 3 -153 6 0 10 15 10 34 0 19 4 46 9 59
15 39 -1 81 -22 60z"/>
<path d="M7460 6205 c-10 -13 -9 -15 9 -15 11 0 21 -5 21 -12 0 -9 3 -9 11 -1
14 14 5 43 -14 43 -8 0 -20 -7 -27 -15z"/>
<path d="M7559 6189 c-30 -32 -36 -66 -19 -100 12 -21 50 -25 68 -7 9 9 15 8
27 -8 8 -10 15 -17 15 -14 1 3 2 40 3 83 2 88 -17 110 -25 28 -5 -51 -25 -81
-52 -81 -27 0 -20 63 10 99 34 40 11 40 -27 0z"/>
<path d="M7919 6207 c-25 -19 -39 -52 -39 -92 0 -44 33 -63 63 -37 17 15 19
15 28 -1 19 -32 25 -17 28 63 2 83 -13 111 -24 43 -8 -50 -27 -87 -47 -91 -39
-7 -29 67 13 107 25 23 6 30 -22 8z"/>
<path d="M8310 6140 c0 -81 12 -106 24 -49 12 61 7 129 -9 129 -12 0 -15 -16
-15 -80z"/>
<path d="M8650 6200 c-41 -41 -48 -103 -14 -131 11 -9 20 -7 40 6 24 16 26 16
40 -2 7 -10 14 -16 14 -13 9 42 9 160 1 160 -5 0 -13 -17 -16 -37 -9 -53 -22
-83 -41 -90 -43 -16 -40 69 4 104 21 18 23 23 10 23 -10 0 -27 -9 -38 -20z"/>
<path d="M897 6203 c-9 -8 -9 -80 -1 -110 7 -27 22 -30 30 -5 20 61 40 101 49
99 6 -2 9 -30 7 -65 -3 -52 -1 -62 13 -62 13 0 15 11 13 73 -3 65 -5 72 -25
75 -16 2 -26 -5 -38 -32 -22 -45 -28 -46 -19 -1 5 27 3 35 -8 35 -8 0 -18 -3
-21 -7z"/>
<path d="M8140 6086 c0 -20 6 -25 35 -28 19 -2 35 0 35 4 0 4 -7 8 -15 8 -8 0
-24 9 -35 20 l-20 20 0 -24z"/>
<path d="M1380 6031 c0 -6 4 -12 10 -16 5 -3 7 -12 3 -20 -3 -8 -1 -15 5 -15
16 0 23 31 11 46 -13 16 -29 18 -29 5z"/>
<path d="M2890 6031 c0 -6 4 -12 10 -16 5 -3 6 -13 3 -23 -5 -16 -5 -16 12 0
15 14 16 20 5 32 -14 18 -30 21 -30 7z"/>
<path d="M8190 6031 c0 -6 5 -13 11 -16 6 -4 8 -13 5 -21 -3 -8 -1 -14 5 -14
16 0 22 29 9 45 -14 17 -30 20 -30 6z"/>
<path d="M6590 5855 c-18 -19 -20 -25 -8 -25 9 0 21 7 28 15 12 14 15 14 30 0
26 -23 33 -18 13 10 -23 31 -34 31 -63 0z"/>
<path d="M869 5793 c0 -5 0 -33 1 -64 1 -54 -11 -82 -25 -59 -22 36 -75 -18
-83 -86 -7 -67 33 -98 73 -57 16 16 18 16 27 0 5 -10 13 -15 18 -12 12 8 13
285 0 285 -5 0 -10 -3 -11 -7z m-17 -155 c22 -40 -4 -108 -41 -108 -33 0 -33
76 0 116 16 20 26 18 41 -8z"/>
<path d="M5654 5741 c8 -68 2 -88 -19 -71 -35 29 -85 -29 -85 -100 0 -57 39
-79 76 -43 13 13 19 14 22 5 2 -6 10 -12 17 -12 10 0 14 26 15 113 1 61 2 123
3 137 1 17 -4 26 -17 28 -17 4 -18 -1 -12 -57z m-18 -98 c22 -29 17 -71 -12
-100 -26 -26 -27 -26 -41 -7 -15 21 -10 72 10 105 15 24 26 24 43 2z"/>
<path d="M1607 5783 c-9 -15 -19 -203 -13 -238 4 -19 12 -35 19 -35 8 0 11 19
9 66 -2 36 -1 82 3 101 5 28 10 34 28 31 21 -3 22 -8 22 -97 0 -66 4 -95 13
-98 9 -4 12 15 12 74 0 118 3 123 62 123 30 0 47 4 43 10 -3 6 -26 10 -51 10
-42 0 -44 1 -44 30 0 22 -4 28 -15 24 -8 -4 -15 -17 -15 -30 0 -19 -5 -24 -25
-24 -22 0 -25 4 -23 26 3 26 -15 44 -25 27z"/>
<path d="M2315 5776 c-3 -9 -7 -23 -10 -31 -2 -8 -14 -15 -25 -15 -27 0 -26
-18 3 -22 21 -3 22 -6 18 -100 -3 -83 -1 -98 12 -98 12 0 15 17 16 91 1 50 4
95 7 100 3 5 29 9 57 9 37 0 48 3 37 10 -8 5 -32 10 -52 10 -34 0 -38 3 -38
24 0 29 -18 44 -25 22z"/>
<path d="M3593 5775 c-13 -9 -24 -31 -28 -57 -4 -24 -13 -46 -19 -50 -8 -6 -8
-10 0 -15 6 -5 15 -38 18 -75 4 -38 12 -68 17 -68 5 0 9 34 9 75 0 73 1 75 25
75 14 0 25 5 25 10 0 6 -11 10 -25 10 -21 0 -25 5 -25 29 0 31 25 65 41 55 5
-3 7 -10 4 -15 -4 -5 -1 -9 5 -9 6 0 15 -10 20 -22 7 -18 9 -19 9 -5 1 9 6 17
12 17 6 0 8 -7 5 -16 -5 -14 -4 -15 9 -4 16 14 11 30 -9 30 -8 0 -21 11 -30
25 -19 29 -33 31 -63 10z"/>
<path d="M3933 5783 c-7 -3 -13 -16 -13 -29 0 -19 -5 -24 -25 -24 -14 0 -25
-4 -25 -10 0 -5 12 -10 26 -10 l26 0 -4 -97 c-2 -70 0 -97 10 -100 9 -4 12 15
12 74 0 118 3 123 62 123 30 0 47 4 43 10 -3 6 -26 10 -50 10 -41 0 -44 2 -47
28 -2 18 -8 27 -15 25z"/>
<path d="M4687 5783 c-3 -5 -8 -58 -12 -120 -6 -105 1 -153 23 -153 4 0 7 45
8 99 1 55 4 118 8 140 5 32 3 41 -8 41 -8 0 -17 -3 -19 -7z"/>
<path d="M5983 5783 c-7 -3 -13 -16 -13 -29 0 -19 -5 -24 -25 -24 -14 0 -25
-4 -25 -10 0 -5 12 -10 26 -10 l26 0 -3 -97 c-3 -81 -1 -98 11 -98 11 0 14 11
11 48 -1 27 0 71 4 99 l7 50 35 -5 c42 -7 63 0 56 19 -4 11 -16 13 -49 8 -42
-6 -43 -5 -46 23 -2 19 -8 28 -15 26z"/>
<path d="M6567 5783 c-14 -14 -6 -31 12 -26 24 6 28 -20 23 -145 -3 -75 -7
-95 -21 -100 -9 -4 -17 -13 -19 -20 -2 -10 11 -12 53 -10 36 2 55 7 55 15 0 7
-7 13 -15 13 -13 0 -15 21 -15 125 0 118 1 125 20 125 11 0 20 7 20 15 0 11
-13 15 -53 15 -30 0 -57 -3 -60 -7z"/>
<path d="M2860 5772 c0 -32 68 -44 91 -16 12 15 10 16 -18 10 -18 -4 -41 -3
-52 4 -12 6 -21 7 -21 2z"/>
<path d="M3299 5760 c28 -24 50 -25 77 -5 18 15 17 16 -12 10 -17 -3 -44 -1
-60 5 l-29 10 24 -20z"/>
<path d="M5390 5760 c0 -25 -27 -37 -50 -22 -13 8 -22 7 -36 -3 -26 -18 -10
-30 39 -30 l41 0 -3 -97 c-2 -83 0 -98 13 -98 13 0 16 17 18 98 l3 97 53 3
c63 4 60 22 -4 22 -40 0 -44 2 -44 25 0 16 -6 25 -15 25 -8 0 -15 -9 -15 -20z
m-60 -40 c0 -5 -4 -10 -10 -10 -5 0 -10 5 -10 10 0 6 5 10 10 10 6 0 10 -4 10
-10z"/>
<path d="M7697 5769 c-10 -6 -35 -8 -55 -5 -35 6 -36 5 -18 -9 11 -8 26 -15
32 -15 20 0 64 22 64 32 0 10 -1 10 -23 -3z"/>
<path d="M8720 5755 c0 -18 -5 -25 -20 -25 -11 0 -20 -4 -20 -10 0 -5 9 -10
21 -10 20 0 21 -4 17 -97 -2 -82 -1 -98 12 -98 11 0 14 10 12 39 -2 21 -1 65
3 98 l7 60 37 -6 c20 -3 42 -2 50 3 24 15 1 31 -42 29 -37 -3 -42 0 -45 20 -5
31 -32 29 -32 -3z"/>
<path d="M4772 5729 c-13 -17 -18 -30 -12 -34 5 -3 10 -42 10 -86 0 -94 14
-119 52 -97 l23 13 -22 3 c-22 3 -23 8 -23 87 0 79 1 84 23 88 22 4 22 4 0 6
-15 1 -23 9 -25 24 l-3 24 -23 -28z"/>
<path d="M7191 5753 c0 -7 -10 -22 -21 -33 -11 -11 -15 -20 -10 -20 6 0 10
-32 10 -76 0 -41 6 -85 12 -97 7 -12 14 -33 15 -47 6 -52 5 -52 21 -37 11 12
12 18 1 35 -12 19 -11 24 6 37 20 15 20 16 0 13 -18 -3 -20 4 -23 84 -3 83 -2
87 20 91 22 4 22 4 1 6 -16 1 -23 9 -26 29 -2 15 -5 21 -6 15z"/>
<path d="M3745 5736 c-10 -7 -15 -18 -11 -24 10 -17 26 -15 20 3 -4 8 -2 15 4
15 6 0 13 -6 15 -12 3 -8 6 -7 6 4 1 24 -13 30 -34 14z"/>
<path d="M7279 5734 c-18 -22 4 -42 26 -24 19 16 19 26 1 33 -8 3 -20 -1 -27
-9z m26 -14 c-3 -5 -11 -10 -16 -10 -6 0 -7 5 -4 10 3 6 11 10 16 10 6 0 7 -4
4 -10z"/>
<path d="M8181 5737 c-15 -15 -14 -37 2 -37 14 0 37 19 37 31 0 13 -28 17 -39
6z m19 -17 c0 -5 -4 -10 -10 -10 -5 0 -10 5 -10 10 0 6 5 10 10 10 6 0 10 -4
10 -10z"/>
<path d="M2857 5692 c-20 -22 -22 -46 -4 -39 6 2 11 9 10 15 -4 17 24 34 49
30 22 -3 23 -7 24 -86 2 -93 11 -111 46 -94 18 8 19 11 6 11 -16 1 -18 11 -18
75 0 54 -4 79 -16 90 -21 22 -77 20 -97 -2z"/>
<path d="M3286 5694 c-9 -8 -16 -22 -16 -31 0 -22 25 -10 28 15 3 17 10 22 32
22 36 0 42 -17 39 -105 -2 -70 8 -92 38 -80 12 5 14 9 6 12 -9 3 -13 29 -13
78 0 85 -13 105 -65 105 -18 0 -41 -7 -49 -16z"/>
<path d="M7606 5691 c-10 -11 -15 -25 -11 -30 10 -18 25 -13 25 9 0 10 8 24
18 29 14 9 15 10 1 11 -9 0 -24 -9 -33 -19z"/>
<path d="M7673 5698 c12 -9 17 -30 19 -73 1 -33 -1 -65 -4 -70 -11 -18 19 -48
39 -40 12 5 14 9 6 12 -9 3 -13 29 -13 82 0 81 -9 101 -44 101 -18 0 -18 -1
-3 -12z"/>
<path d="M8557 5692 c-31 -34 -16 -61 56 -105 33 -21 35 -49 5 -70 l-23 -16
22 6 c34 8 56 38 49 68 -4 17 -22 33 -57 50 -40 21 -50 30 -47 48 4 28 64 38
74 13 9 -23 23 -20 17 4 -7 27 -73 28 -96 2z"/>
<path d="M2433 5680 c-43 -17 -67 -83 -49 -137 13 -42 76 -41 97 0 9 20 9 20
-4 5 -17 -22 -50 -23 -67 -3 -14 17 -5 36 13 29 36 -14 80 72 51 100 -8 9 -16
16 -17 15 -1 0 -12 -4 -24 -9z m29 -41 c-4 -25 -27 -49 -49 -49 -18 0 -16 9 7
48 23 37 47 38 42 1z"/>
<path d="M7493 5682 c-26 -4 -53 -37 -53 -64 0 -10 10 -22 23 -27 79 -31 79
-31 67 -46 -14 -17 -60 -20 -60 -5 0 6 -7 10 -15 10 -8 0 -15 -6 -15 -14 0
-28 69 -36 94 -10 25 24 19 40 -19 58 -44 21 -59 47 -41 71 16 22 52 16 48 -9
-4 -23 22 -16 26 7 4 19 -25 34 -55 29z"/>
<path d="M8439 5676 c-30 -15 -49 -51 -49 -98 0 -42 21 -68 54 -68 24 0 54 26
42 37 -3 3 -6 1 -6 -5 0 -16 -43 -15 -58 0 -16 16 -15 28 3 28 26 0 63 29 69
55 12 47 -14 72 -55 51z m39 -29 c4 -19 -32 -57 -54 -57 -11 0 -14 6 -8 23 15
49 55 71 62 34z"/>
<path d="M957 5662 c-9 -10 -22 -33 -28 -50 -15 -42 4 -90 37 -98 26 -7 74 18
74 38 0 6 -8 4 -18 -5 -22 -20 -43 -22 -60 -5 -17 17 -15 28 6 28 41 1 84 69
61 96 -16 20 -53 17 -72 -4z m53 -20 c0 -21 -7 -32 -25 -40 -33 -15 -35 -15
-35 2 0 16 38 66 51 66 5 0 9 -13 9 -28z"/>
<path d="M1520 5641 c0 -57 -25 -114 -47 -109 -15 3 -18 14 -18 71 0 71 -17
93 -29 36 -16 -80 9 -138 52 -125 12 4 22 12 22 17 0 5 5 9 10 9 6 0 10 -7 10
-15 0 -8 5 -15 10 -15 9 0 12 30 14 137 1 14 -5 28 -11 31 -9 2 -13 -9 -13
-37z"/>
<path d="M1861 5651 c-31 -43 -29 -106 4 -127 29 -19 70 -12 79 13 6 15 5 16
-5 6 -24 -24 -56 -15 -68 18 -8 23 -7 39 5 70 18 44 49 56 38 14 -5 -21 -3
-25 14 -25 11 0 22 6 25 13 17 53 -57 68 -92 18z"/>
<path d="M2703 5672 c-13 -2 -23 -9 -23 -17 0 -10 7 -11 35 -2 57 17 61 -1 15
-65 -22 -31 -40 -61 -40 -67 0 -7 23 -11 56 -11 40 0 54 3 51 13 -2 6 -19 12
-38 13 -41 1 -40 9 6 70 37 49 42 63 23 65 -33 4 -65 4 -85 1z"/>
<path d="M3131 5654 c-27 -35 -14 -60 40 -74 29 -8 39 -16 37 -28 -5 -24 -46
-27 -70 -5 -20 18 -20 17 -17 -7 3 -21 10 -26 40 -28 25 -2 40 3 53 17 22 24
16 36 -35 61 -40 21 -50 45 -27 68 19 19 48 15 48 -8 0 -11 5 -20 10 -20 6 0
10 11 10 25 0 22 -4 25 -34 25 -25 0 -40 -7 -55 -26z"/>
<path d="M4097 5673 c-2 -4 -8 -31 -12 -60 -8 -62 -25 -89 -50 -79 -15 5 -17
16 -13 71 3 48 1 65 -9 65 -17 0 -26 -42 -20 -97 7 -63 39 -82 75 -43 l19 21
8 -23 c6 -17 10 -1 15 57 6 72 1 111 -13 88z"/>
<path d="M4606 5658 c-3 -13 -7 -40 -10 -61 -3 -22 -10 -45 -17 -53 -32 -38
-55 6 -43 83 5 36 4 45 -7 41 -18 -6 -25 -124 -8 -144 15 -19 43 -18 60 2 11
14 13 14 21 0 19 -34 28 -12 28 69 0 49 -4 85 -10 85 -5 0 -12 -10 -14 -22z"/>
<path d="M4969 5643 c0 -59 -21 -108 -44 -108 -18 0 -20 7 -20 68 0 55 -3 67
-15 65 -23 -5 -27 -120 -5 -142 22 -21 40 -20 63 4 l19 21 8 -23 c6 -17 10 -3
16 52 9 79 6 100 -11 100 -5 0 -10 -17 -11 -37z"/>
<path d="M5748 5663 c-44 -51 -47 -122 -7 -144 26 -13 65 -4 73 17 5 14 4 15
-9 4 -19 -15 -65 -5 -65 15 0 8 6 15 14 15 7 0 25 10 40 21 21 16 26 28 24 53
-2 25 -8 32 -29 34 -15 2 -31 -4 -41 -15z m52 -23 c0 -23 -6 -33 -25 -42 -35
-16 -42 -3 -20 37 23 44 45 46 45 5z"/>
<path d="M6301 5654 c-14 -18 -21 -41 -21 -70 0 -69 43 -95 91 -54 27 22 19
27 -11 8 -15 -9 -25 -10 -37 -2 -27 17 -25 28 10 44 39 18 64 64 47 86 -19 22
-56 17 -79 -12z m60 4 c4 -38 -18 -68 -48 -68 -19 0 -16 24 8 54 22 28 38 34
40 14z"/>
<path d="M6864 5623 c11 -98 41 -135 71 -89 19 29 44 116 38 134 -9 24 -23 12
-24 -20 -1 -44 -21 -110 -35 -115 -13 -4 -24 42 -24 103 0 34 -4 44 -16 44
-14 0 -16 -8 -10 -57z"/>
<path d="M7033 5658 c-41 -44 -42 -117 -2 -139 28 -15 66 -4 80 24 12 22 12
22 -9 4 -27 -25 -66 -19 -70 10 -3 17 1 21 12 17 24 -9 68 41 64 74 -4 37 -45
42 -75 10z m57 -12 c0 -27 -24 -56 -46 -56 -18 0 -18 14 1 50 19 37 45 40 45
6z"/>
<path d="M7936 5673 c-4 -4 -19 -7 -34 -8 l-27 0 -3 -127 c-2 -83 1 -128 8
-128 6 0 10 26 10 60 0 55 10 75 25 50 11 -18 53 -11 69 12 23 33 21 103 -4
128 -21 21 -32 24 -44 13z m37 -34 c13 -21 1 -84 -20 -105 -16 -15 -18 -15
-35 6 -22 27 -23 52 -2 91 16 32 40 35 57 8z"/>
<path d="M8096 5659 c-23 -18 -26 -18 -26 -4 0 9 -6 15 -12 13 -9 -3 -14 -31
-16 -82 -2 -60 0 -77 10 -74 7 3 12 16 10 30 -4 35 23 98 42 98 9 0 16 -4 16
-10 0 -5 5 -10 10 -10 12 0 13 47 1 54 -5 3 -20 -4 -35 -15z"/>
<path d="M8246 5671 c-14 -22 23 -161 42 -161 26 1 72 97 72 151 0 41 -25 12
-31 -38 -7 -55 -25 -96 -39 -88 -5 3 -12 37 -16 75 -6 65 -15 83 -28 61z"/>
<path d="M1170 5596 c0 -59 3 -76 14 -76 8 0 18 14 21 32 9 39 37 90 53 96 7
2 12 -19 14 -65 3 -77 20 -91 28 -23 7 53 26 93 43 87 7 -2 13 -30 15 -70 2
-45 7 -67 15 -67 10 0 12 18 9 68 -6 92 -25 114 -63 70 -15 -19 -18 -20 -19
-6 0 21 -37 33 -55 18 -8 -7 -17 -20 -20 -31 -9 -28 -24 -23 -22 8 1 19 -3 28
-15 31 -16 3 -18 -5 -18 -72z"/>
<path d="M2005 5646 c-29 -44 -20 -120 16 -131 59 -19 100 59 67 130 -15 34
-61 35 -83 1z m69 -12 c11 -30 6 -72 -12 -94 -17 -21 -19 -21 -35 -5 -23 23
-23 91 1 104 25 15 39 13 46 -5z"/>
<path d="M2546 5639 c-30 -35 -35 -89 -10 -113 19 -20 24 -20 51 -1 18 13 22
13 33 0 22 -26 25 -17 22 65 -2 44 -8 80 -13 80 -5 0 -9 -14 -9 -30 0 -48 -26
-100 -49 -100 -17 0 -21 6 -21 30 0 37 19 80 37 80 7 0 13 5 13 10 0 20 -29 9
-54 -21z"/>
<path d="M3667 5663 c-11 -10 -8 -141 3 -148 13 -8 18 7 23 88 3 48 1 67 -7
67 -7 0 -16 -3 -19 -7z"/>
<path d="M3740 5590 c0 -90 14 -107 24 -27 10 83 8 107 -9 107 -12 0 -15 -16
-15 -80z"/>
<path d="M4259 5665 c0 -3 0 -37 -1 -77 0 -74 16 -105 27 -51 9 40 43 113 54
113 14 0 21 -27 21 -86 0 -30 5 -54 10 -54 6 0 10 10 10 23 0 13 7 44 16 70
17 49 43 64 45 25 3 -97 5 -112 17 -116 10 -3 12 13 10 68 -2 58 -7 75 -21 84
-15 9 -22 7 -37 -12 -19 -23 -19 -23 -30 -2 -16 30 -47 25 -67 -12 l-18 -33
-3 33 c-2 20 -9 32 -18 32 -8 0 -14 -2 -15 -5z"/>
<path d="M5040 5590 c0 -91 14 -104 36 -32 15 53 43 97 54 86 5 -5 10 -35 12
-67 4 -69 21 -80 28 -17 6 47 25 90 39 90 14 0 21 -28 21 -86 0 -31 4 -54 10
-54 7 0 10 27 8 71 -2 56 -7 74 -21 83 -15 9 -21 6 -37 -14 -15 -19 -20 -21
-20 -8 0 25 -38 33 -61 12 -10 -9 -19 -23 -19 -31 0 -7 -5 -13 -10 -13 -6 0
-9 12 -8 27 2 19 -2 28 -14 31 -16 3 -18 -6 -18 -78z"/>
<path d="M5300 5590 c0 -90 14 -107 24 -27 10 83 8 107 -9 107 -12 0 -15 -16
-15 -80z"/>
<path d="M6050 5590 c0 -90 14 -107 24 -27 10 83 8 107 -9 107 -12 0 -15 -16
-15 -80z"/>
<path d="M6192 5657 c-5 -6 -13 -22 -16 -34 -11 -35 -30 -28 -22 8 5 25 3 30
-12 27 -14 -3 -17 -14 -17 -68 0 -50 4 -65 15 -68 11 -2 20 15 33 58 9 33 22
60 27 60 12 0 13 -9 10 -77 -1 -43 1 -53 14 -53 13 0 16 13 16 70 0 58 -3 71
-19 79 -13 8 -22 7 -29 -2z"/>
<path d="M6766 5645 c-9 -13 -16 -29 -16 -34 0 -5 -5 -13 -12 -17 -8 -5 -9 3
-5 30 5 31 3 37 -11 34 -14 -3 -17 -15 -17 -73 0 -55 3 -70 15 -70 8 0 16 9
18 20 5 36 34 105 43 105 10 0 12 -13 9 -82 -1 -35 2 -48 12 -48 11 0 15 18
16 70 2 59 -1 71 -17 79 -15 9 -22 6 -35 -14z"/>
<path d="M7279 5668 c-5 -15 -7 -110 -3 -131 9 -45 21 -19 29 61 6 62 5 72 -9
72 -9 0 -16 -1 -17 -2z"/>
<path d="M8170 5596 c0 -41 5 -78 10 -81 13 -8 18 7 23 88 4 61 3 67 -14 67
-17 0 -19 -8 -19 -74z"/>
<path d="M8800 5590 c0 -84 13 -107 24 -42 11 69 7 122 -9 122 -12 0 -15 -16
-15 -80z"/>
<path d="M2134 5645 c-9 -21 9 -130 21 -130 5 0 14 18 20 40 12 49 34 89 43
80 4 -4 7 -32 7 -62 0 -37 4 -58 13 -61 10 -3 12 13 10 70 -3 65 -5 73 -23 76
-15 2 -26 -8 -43 -40 l-23 -43 6 43 c4 33 2 42 -10 42 -9 0 -18 -7 -21 -15z"/>
<path d="M2856 5599 c-50 -39 -20 -101 40 -84 l29 8 -30 6 c-36 7 -46 43 -19
72 23 25 13 24 -20 -2z"/>
<path d="M3280 5598 c-22 -24 -25 -40 -10 -69 11 -20 35 -24 67 -12 15 6 13 8
-12 13 -36 6 -46 42 -19 71 9 10 12 19 6 19 -6 0 -20 -10 -32 -22z"/>
<path d="M7613 5603 c-16 -11 -23 -25 -23 -50 0 -38 16 -49 58 -37 l27 8 -25
4 c-43 7 -52 40 -20 72 24 24 14 25 -17 3z"/>
<path d="M6417 5536 c-4 -9 -2 -18 3 -21 13 -8 41 6 37 19 -6 17 -34 19 -40 2z"/>
<path d="M8540 5535 c0 -16 22 -30 39 -23 5 1 -2 11 -15 21 -21 16 -24 16 -24
2z"/>
<path d="M4794 5474 c3 -9 6 -23 6 -31 0 -13 3 -13 15 -3 11 9 12 17 4 31 -12
23 -34 26 -25 3z"/>
<path d="M8596 5482 c-3 -6 -1 -14 5 -17 5 -4 8 -13 5 -21 -3 -8 -1 -14 5 -14
5 0 12 7 16 16 7 18 -21 51 -31 36z"/>
<path d="M4700 5178 c0 -56 -3 -69 -12 -60 -47 47 -111 -65 -82 -142 8 -20 48
-21 64 -1 17 20 30 19 30 -2 0 -11 3 -13 9 -7 5 5 13 71 16 147 7 122 6 137
-9 137 -13 0 -16 -12 -16 -72z m-14 -85 c21 -28 16 -67 -10 -93 -32 -29 -56
-21 -56 20 0 36 25 90 42 90 6 0 17 -8 24 -17z"/>
<path d="M5830 5180 c0 -68 -1 -70 -20 -60 -12 6 -29 9 -39 5 -38 -12 -67
-125 -39 -153 17 -17 53 -15 68 3 17 20 30 19 30 -2 0 -11 3 -13 9 -7 15 15
18 277 4 281 -10 4 -13 -14 -13 -67z m-16 -95 c26 -39 -3 -105 -46 -105 -15 0
-18 8 -18 43 0 40 21 87 39 87 5 0 16 -11 25 -25z"/>
<path d="M1756 5232 c-4 -7 -8 -142 -7 -234 1 -43 21 -53 21 -10 1 36 35 111
56 119 31 12 46 -51 22 -102 -13 -29 -33 -32 -47 -7 -9 14 -10 14 -11 2 0 -21
20 -40 41 -40 27 0 49 40 49 88 0 80 -38 108 -78 57 -11 -14 -22 -25 -24 -25
-3 0 -3 36 0 80 3 53 1 80 -6 80 -6 0 -13 -4 -16 -8z"/>
<path d="M4451 5226 c-15 -18 -11 -258 5 -263 7 -2 11 13 10 44 -1 26 3 90 7
141 8 90 3 108 -22 78z"/>
<path d="M5433 5232 c-7 -4 -12 -42 -13 -97 -3 -147 -1 -175 13 -175 8 0 12
19 12 63 1 34 4 97 8 140 8 75 5 85 -20 69z"/>
<path d="M7160 5205 c0 -18 -5 -25 -20 -25 -27 0 -26 -18 1 -22 21 -3 22 -8
20 -100 -2 -81 0 -98 13 -98 12 0 14 11 10 53 -3 28 -1 72 3 97 l9 45 47 0
c61 0 55 19 -7 23 -45 3 -48 5 -43 28 3 18 0 24 -14 24 -14 0 -19 -7 -19 -25z"/>
<path d="M8320 5205 c0 -18 -5 -25 -20 -25 -11 0 -20 -4 -20 -10 0 -5 9 -10
21 -10 20 0 21 -4 17 -97 -3 -86 -1 -98 14 -101 14 -3 16 3 11 32 -3 19 -2 65
2 102 l7 66 36 -6 c41 -6 69 5 57 23 -4 8 -22 10 -51 5 -42 -6 -44 -5 -44 20
0 16 -5 26 -15 26 -9 0 -15 -9 -15 -25z"/>
<path d="M2772 5178 c-13 -15 -19 -28 -13 -28 7 0 11 -31 11 -84 0 -88 14
-122 45 -110 19 8 19 24 0 24 -12 0 -15 16 -15 84 0 80 1 85 23 89 22 4 22 4
0 6 -15 1 -23 9 -25 24 l-3 24 -23 -29z"/>
<path d="M6140 5185 c-19 -20 -20 -25 -7 -25 9 0 20 7 25 17 9 15 11 14 28 -5
9 -12 22 -18 27 -15 8 5 -30 53 -43 53 -4 0 -17 -11 -30 -25z"/>
<path d="M1510 5185 c-12 -15 -6 -35 10 -35 5 0 6 8 3 17 -5 12 -2 15 10 10 9
-3 17 -2 17 2 0 16 -28 20 -40 6z"/>
<path d="M1920 5170 c0 -13 6 -20 18 -19 10 0 12 3 5 6 -21 8 -14 25 7 18 11
-4 20 -2 20 4 0 6 -11 11 -25 11 -18 0 -25 -5 -25 -20z"/>
<path d="M2510 5170 c0 -25 20 -27 21 -2 0 15 1 15 8 -2 7 -18 8 -18 14 -2 10
25 10 26 -18 26 -18 0 -25 -5 -25 -20z"/>
<path d="M3300 5170 c0 -13 6 -20 18 -19 10 0 12 3 5 6 -22 8 -14 25 8 18 15
-5 19 -4 15 4 -12 19 -46 13 -46 -9z"/>
<path d="M4770 5169 c0 -25 33 -22 38 4 2 12 -3 17 -17 17 -15 0 -21 -6 -21
-21z m30 1 c0 -5 -4 -10 -10 -10 -5 0 -10 5 -10 10 0 6 5 10 10 10 6 0 10 -4
10 -10z"/>
<path d="M5494 5179 c-11 -18 13 -34 31 -19 8 7 15 16 15 21 0 13 -38 11 -46
-2z m26 -9 c0 -5 -5 -10 -11 -10 -5 0 -7 5 -4 10 3 6 8 10 11 10 2 0 4 -4 4
-10z"/>
<path d="M7770 5176 c0 -8 5 -18 10 -21 13 -8 42 14 34 26 -9 15 -44 10 -44
-5z m30 -6 c0 -5 -4 -10 -10 -10 -5 0 -10 5 -10 10 0 6 5 10 10 10 6 0 10 -4
10 -10z"/>
<path d="M3146 5141 c-25 -28 -13 -54 44 -95 49 -35 56 -57 26 -78 -8 -6 -8
-8 0 -8 20 0 46 38 42 62 -2 16 -18 31 -51 48 -67 35 -77 80 -18 80 19 0 34
-8 44 -22 l14 -23 -1 25 c-1 22 -6 25 -42 28 -30 2 -45 -2 -58 -17z"/>
<path d="M8156 5138 c-9 -12 -16 -28 -16 -34 0 -12 30 -39 83 -76 30 -21 26
-50 -6 -66 -12 -6 -17 -11 -11 -11 22 -2 64 41 64 63 0 17 -14 33 -52 57 -62
40 -72 72 -23 77 18 3 33 -2 41 -13 8 -10 14 -12 19 -6 11 19 -5 31 -45 31
-29 0 -43 -6 -54 -22z"/>
<path d="M1134 5123 c-37 -26 -47 -119 -16 -146 10 -10 28 -17 39 -17 20 0 53
29 53 46 0 5 -5 1 -11 -8 -16 -28 -57 -23 -71 8 -15 33 8 107 35 112 16 3 17
1 7 -17 -9 -17 -8 -22 5 -27 21 -8 38 9 33 32 -3 20 -53 31 -74 17z"/>
<path d="M1346 5123 c-3 -3 -6 -23 -6 -44 0 -48 -15 -88 -36 -96 -25 -10 -35
17 -30 80 5 46 3 57 -9 57 -12 0 -15 -15 -15 -68 0 -40 5 -73 12 -80 16 -16
43 -15 58 3 7 8 16 15 21 15 5 0 9 -7 9 -15 0 -8 5 -15 10 -15 6 0 10 33 10
79 0 74 -7 100 -24 84z"/>
<path d="M1675 5083 c-9 -70 -24 -103 -46 -103 -21 0 -24 15 -20 93 2 37 0 47
-13 47 -13 0 -16 -12 -16 -68 0 -40 5 -73 12 -80 17 -17 55 -15 62 3 3 8 10
15 17 15 6 0 9 -7 5 -15 -3 -9 0 -15 9 -15 12 0 15 16 15 79 0 90 -15 116 -25
44z"/>
<path d="M2158 5113 c-59 -67 -42 -153 30 -153 11 0 25 7 32 15 11 13 8 14
-20 9 -22 -5 -35 -3 -41 7 -13 21 -11 39 4 33 7 -2 26 5 41 17 21 16 26 28 24
53 -2 25 -8 32 -29 34 -15 2 -31 -4 -41 -15z m52 -17 c0 -27 -24 -56 -46 -56
-19 0 -18 16 3 51 21 35 43 38 43 5z"/>
<path d="M2366 5121 c-7 -11 10 -115 24 -141 6 -11 17 -20 24 -20 16 0 52 71
61 123 6 30 4 37 -9 37 -12 0 -16 -10 -16 -35 0 -43 -26 -109 -39 -100 -6 3
-13 37 -17 75 -6 65 -15 83 -28 61z"/>
<path d="M3527 5119 c-9 -6 -26 -8 -36 -4 -16 5 -18 -5 -25 -120 -3 -70 -4
-131 -1 -136 14 -22 25 6 25 62 0 54 10 74 25 49 3 -5 17 -10 29 -10 42 0 70
85 45 133 -20 36 -34 42 -62 26z m41 -61 c2 -38 -1 -51 -19 -69 -21 -21 -23
-21 -36 -4 -30 42 -7 128 32 123 16 -2 21 -12 23 -50z"/>
<path d="M3672 5124 c-20 -9 -42 -60 -42 -97 0 -38 25 -67 58 -67 19 0 52 24
52 38 0 3 -5 1 -12 -6 -19 -19 -56 -14 -68 8 -6 11 -9 20 -8 21 2 0 14 2 27 3
56 6 84 99 31 103 -14 1 -31 -1 -38 -3z m48 -24 c0 -23 -33 -60 -55 -60 -20 0
-19 8 5 48 22 36 50 43 50 12z"/>
<path d="M5292 5123 c-18 -7 -42 -57 -42 -90 0 -52 54 -97 75 -63 9 14 25 12
25 -2 0 -7 -5 -30 -11 -50 -8 -31 -15 -38 -34 -38 -21 0 -25 5 -25 33 -1 30
-1 31 -15 13 -32 -42 36 -86 76 -50 21 19 26 42 33 165 l6 86 -38 0 c-20 0
-43 -2 -50 -4z m46 -25 c19 -19 15 -82 -8 -103 -30 -27 -50 -13 -50 35 0 67
27 99 58 68z"/>
<path d="M6501 5113 c-30 -25 -40 -94 -17 -128 21 -31 56 -33 82 -3 14 17 15
19 2 10 -9 -8 -27 -12 -40 -10 -20 3 -23 10 -26 52 -3 51 16 86 47 86 12 0 12
-3 3 -12 -19 -19 -14 -38 9 -38 16 0 20 5 17 28 -4 34 -44 42 -77 15z"/>
<path d="M6931 5101 c-25 -35 -28 -103 -5 -125 19 -19 58 -21 73 -3 8 11 5 13
-17 9 -17 -2 -33 2 -41 12 -13 16 -6 40 9 31 15 -9 41 7 56 36 32 62 -35 97
-75 40z m61 -11 c-3 -31 -20 -50 -43 -50 -24 0 -24 7 1 48 23 37 47 38 42 2z"/>
<path d="M7261 5109 c-39 -42 -37 -130 4 -145 23 -9 62 4 69 22 5 14 4 15 -8
5 -20 -17 -60 -10 -64 12 -2 10 3 17 11 17 8 0 26 10 41 21 21 16 26 28 24 53
-2 25 -8 32 -30 34 -17 2 -33 -4 -47 -19z m59 -11 c0 -25 -27 -58 -47 -58 -18
0 -16 27 5 55 21 30 42 32 42 3z"/>
<path d="M7530 5120 c-8 -5 -25 -7 -37 -4 -22 6 -22 4 -25 -125 -3 -111 -1
-131 12 -131 12 0 14 10 12 45 -5 56 4 83 20 67 20 -20 55 -14 72 13 23 35 21
100 -4 125 -22 22 -29 24 -50 10z m41 -33 c16 -35 -5 -107 -31 -107 -38 0 -47
57 -18 113 12 24 36 21 49 -6z"/>
<path d="M7847 5123 c-7 -11 11 -121 24 -144 16 -32 39 -22 60 27 30 67 36
114 15 114 -9 0 -16 -6 -14 -12 5 -27 -14 -107 -27 -118 -19 -16 -24 -3 -27
74 -3 53 -17 81 -31 59z"/>
<path d="M8015 5105 c-30 -29 -35 -104 -9 -129 19 -20 58 -21 73 -2 9 11 6 12
-14 8 -24 -4 -55 12 -55 28 0 5 14 11 31 15 39 9 70 65 49 90 -18 22 -47 19
-75 -10z m63 -8 c4 -19 -32 -57 -53 -57 -20 0 -19 8 5 48 21 34 43 38 48 9z"/>
<path d="M1510 5040 c0 -47 4 -80 10 -80 6 0 10 12 10 28 0 15 3 51 6 80 6 44
4 52 -10 52 -13 0 -16 -13 -16 -80z"/>
<path d="M1920 5040 c0 -64 3 -80 15 -80 12 0 15 13 15 58 0 31 3 67 6 80 5
18 2 22 -15 22 -20 0 -21 -5 -21 -80z"/>
<path d="M2007 5113 c-11 -11 -8 -153 3 -153 6 0 10 16 10 35 0 20 7 49 15 65
16 32 45 41 45 14 0 -8 5 -12 10 -9 6 3 10 17 10 31 0 29 -24 32 -52 7 -17
-15 -18 -15 -18 0 0 17 -11 22 -23 10z"/>
<path d="M2510 5040 c0 -64 3 -80 15 -80 10 0 15 10 15 34 0 18 3 54 6 80 6
42 5 46 -15 46 -20 0 -21 -5 -21 -80z"/>
<path d="M2616 5093 c-33 -32 -42 -67 -27 -99 15 -34 38 -40 62 -18 19 17 21
18 30 1 18 -32 24 -17 26 63 1 44 -2 80 -6 80 -12 0 -21 -26 -21 -60 0 -37
-31 -75 -55 -66 -14 5 -16 14 -12 44 4 20 16 44 27 54 11 9 20 19 20 22 0 13
-19 4 -44 -21z"/>
<path d="M2896 5089 c-53 -63 -22 -155 40 -114 22 14 25 14 30 0 14 -36 24 -9
24 65 0 88 -14 107 -25 33 -12 -80 -65 -117 -65 -46 0 26 8 45 27 65 20 21 23
28 11 28 -9 0 -28 -14 -42 -31z"/>
<path d="M3300 5040 c0 -48 4 -80 10 -80 15 0 18 15 22 93 4 59 2 67 -14 67
-16 0 -18 -10 -18 -80z"/>
<path d="M3883 5098 c-20 -41 -22 -71 -8 -105 18 -42 54 -45 84 -7 24 30 26
56 10 103 -9 26 -16 31 -43 31 -24 0 -36 -6 -43 -22z m72 -31 c9 -47 -9 -89
-38 -85 -18 2 -23 10 -25 48 -3 33 1 47 14 57 29 21 43 15 49 -20z"/>
<path d="M4020 5040 c0 -44 3 -80 8 -80 4 0 19 31 33 68 34 89 53 89 57 0 3
-78 17 -89 27 -22 8 57 25 96 39 91 6 -2 12 -34 14 -70 2 -51 6 -67 17 -67 22
0 21 123 -1 144 -21 21 -31 20 -46 -4 -7 -11 -16 -20 -19 -20 -4 0 -9 9 -12
20 -8 32 -44 25 -64 -12 l-18 -33 -3 33 c-2 20 -9 32 -18 32 -11 0 -14 -17
-14 -80z"/>
<path d="M4270 5059 c0 -33 5 -69 10 -80 13 -23 43 -25 60 -4 7 8 16 15 21 15
5 0 9 -7 9 -15 0 -8 5 -15 10 -15 6 0 10 33 10 80 0 61 -3 80 -14 80 -9 0 -15
-17 -18 -56 -3 -34 -11 -62 -22 -72 -16 -16 -18 -16 -32 3 -11 15 -13 34 -8
72 5 45 4 53 -10 53 -13 0 -16 -11 -16 -61z"/>
<path d="M4770 5040 c0 -64 3 -80 15 -80 12 0 15 14 15 64 0 35 3 71 6 80 4
12 0 16 -15 16 -20 0 -21 -5 -21 -80z"/>
<path d="M4903 5080 c-20 -49 -30 -51 -25 -5 3 27 1 35 -12 35 -13 0 -16 -13
-16 -76 0 -85 16 -97 36 -27 29 100 57 111 52 22 -2 -43 1 -63 10 -66 16 -6
17 128 0 145 -20 20 -29 14 -45 -28z"/>
<path d="M5121 5093 c-28 -35 -36 -69 -22 -99 15 -33 38 -40 62 -19 19 18 20
18 33 -1 13 -17 15 -10 18 64 3 90 -12 109 -24 27 -7 -53 -28 -81 -52 -72 -25
10 -19 61 10 96 19 23 22 31 11 31 -9 0 -25 -12 -36 -27z"/>
<path d="M5490 5040 c0 -64 3 -80 15 -80 11 0 15 11 15 43 0 23 3 59 6 80 6
33 4 37 -15 37 -20 0 -21 -5 -21 -80z"/>
<path d="M5636 5097 c-7 -12 -18 -31 -24 -42 -10 -17 -11 -15 -12 18 0 26 -4
37 -12 35 -8 -3 -14 -29 -16 -71 -2 -54 0 -67 12 -67 8 0 17 10 21 23 12 42
38 97 47 97 4 0 8 -29 8 -65 0 -47 4 -65 13 -65 13 0 20 80 11 126 -6 32 -31
37 -48 11z"/>
<path d="M5916 5089 c-30 -35 -36 -99 -11 -119 13 -11 21 -10 43 1 15 7 30 15
35 17 4 2 7 -3 7 -12 0 -9 5 -16 10 -16 6 0 10 33 10 80 0 87 -14 107 -23 35
-8 -54 -26 -85 -49 -85 -29 0 -24 65 7 96 29 29 30 34 11 34 -8 0 -26 -14 -40
-31z"/>
<path d="M6150 5040 c0 -44 4 -80 9 -80 15 0 21 28 21 96 0 50 -3 64 -15 64
-12 0 -15 -16 -15 -80z"/>
<path d="M6280 5080 c-25 -49 -33 -51 -24 -5 6 35 0 42 -24 26 -10 -6 -11 -25
-6 -75 8 -75 22 -82 40 -19 15 53 34 87 42 78 4 -4 7 -32 7 -62 0 -36 5 -58
13 -60 16 -6 17 128 0 145 -19 19 -26 15 -48 -28z"/>
<path d="M6658 5106 c-10 -7 -25 -29 -33 -49 -26 -63 13 -120 56 -81 19 17 21
18 30 1 19 -33 27 -16 28 63 1 44 -3 80 -8 80 -12 0 -21 -25 -21 -59 0 -51
-49 -94 -64 -55 -10 26 5 68 33 91 28 25 10 33 -21 9z"/>
<path d="M6787 5113 c-4 -3 -7 -39 -7 -80 0 -58 3 -73 15 -73 11 0 15 12 15
46 0 50 14 84 34 84 8 0 17 -8 21 -17 6 -17 7 -17 17 0 5 10 7 25 4 33 -7 19
-42 18 -50 -1 -3 -8 -10 -15 -16 -15 -5 0 -10 7 -10 15 0 16 -12 20 -23 8z"/>
<path d="M7647 5113 c-4 -3 -7 -40 -7 -80 0 -55 3 -74 13 -71 6 3 13 16 13 29
1 13 3 38 4 54 6 64 -3 89 -23 68z"/>
<path d="M7692 5108 c-18 -18 -15 -27 8 -21 11 3 20 0 20 -6 0 -6 5 -11 10
-11 6 0 10 11 10 25 0 27 -26 35 -48 13z"/>
<path d="M7770 5040 c0 -48 4 -80 10 -80 14 0 18 14 23 93 4 61 3 67 -14 67
-17 0 -19 -8 -19 -80z"/>
<path d="M8400 5040 c0 -44 4 -80 9 -80 15 0 21 28 21 96 0 50 -3 64 -15 64
-12 0 -15 -16 -15 -80z"/>
<path d="M3130 4989 c0 -11 7 -22 15 -25 27 -11 30 1 8 23 -22 22 -23 22 -23
2z"/>
<path d="M8140 4988 c0 -24 4 -28 28 -28 23 1 24 2 10 11 -10 5 -22 17 -27 27
-9 14 -10 13 -11 -10z"/>
<path d="M8473 4993 c-20 -8 -15 -33 6 -33 19 0 35 23 24 34 -7 7 -13 7 -30
-1z"/>
<path d="M2794 4924 c3 -8 6 -22 6 -30 0 -8 5 -14 10 -14 17 0 11 47 -6 54
-12 5 -15 2 -10 -10z"/>
<path d="M3185 4930 c-3 -5 -1 -12 5 -15 6 -4 8 -16 4 -28 -6 -19 -5 -20 10
-8 9 7 16 21 16 31 0 20 -26 35 -35 20z"/>
<path d="M8197 4932 c-6 -11 19 -53 26 -45 12 12 7 41 -8 46 -8 4 -16 3 -18
-1z"/>
<path d="M5342 4305 c-17 -19 -34 -52 -38 -72 -3 -21 -13 -58 -21 -83 -8 -25
-17 -58 -19 -75 -3 -16 -9 -52 -14 -78 -12 -60 -12 -57 3 -54 17 3 10 -56 -9
-66 -17 -10 -10 -70 12 -104 19 -31 58 -29 86 2 12 14 28 25 35 25 7 0 13 4
13 10 0 5 11 20 25 34 14 14 25 31 25 38 -1 8 -5 7 -14 -4 -18 -25 -29 -22
-21 5 6 21 6 21 -9 3 -9 -11 -16 -30 -16 -43 0 -16 -7 -24 -25 -29 -31 -8 -45
3 -25 17 12 8 9 9 -10 5 -35 -7 -54 7 -45 33 3 11 12 21 19 21 14 0 73 106 64
115 -12 12 -38 -8 -38 -30 0 -13 -7 -26 -16 -29 -24 -9 -28 -1 -17 31 7 18 7
36 1 49 -8 17 -6 26 11 43 28 28 27 44 -1 36 -21 -6 -20 -4 6 20 16 15 29 35
30 46 1 11 6 18 11 17 6 -2 9 -10 7 -18 -2 -8 -4 -31 -5 -50 -1 -20 -10 -41
-19 -48 -20 -15 -13 -42 11 -42 10 0 22 13 28 33 14 39 43 206 43 247 0 42
-29 40 -68 -5z"/>
<path d="M3585 4145 c-66 -68 -105 -128 -105 -163 0 -10 -5 -23 -11 -29 -6 -6
-11 -34 -11 -61 0 -42 5 -57 32 -91 39 -49 60 -58 77 -35 21 28 15 51 -15 65
-15 6 -35 22 -44 34 -16 21 -16 26 3 76 11 31 17 65 14 78 -5 20 -4 22 7 13
11 -9 22 -1 53 38 22 28 47 52 56 55 9 3 22 17 29 30 12 22 11 28 -3 42 -15
15 -21 12 -82 -52z"/>
<path d="M4277 4163 c-11 -10 -8 -43 3 -43 6 0 10 5 10 11 0 5 5 7 11 4 7 -5
3 -14 -10 -26 -26 -25 -26 -28 4 -61 31 -36 62 -35 102 1 17 15 38 31 46 34 9
3 21 16 27 28 8 15 9 19 1 15 -6 -4 -11 0 -11 9 0 13 -7 11 -35 -11 -19 -14
-35 -33 -35 -40 0 -17 -10 -17 -44 -4 -22 8 -26 16 -26 50 0 32 -4 40 -18 40
-10 0 -22 -3 -25 -7z"/>
<path d="M4549 4120 c-22 -13 -33 -58 -18 -76 31 -38 84 -2 77 54 -3 29 -30
39 -59 22z"/>
<path d="M5000 4065 c-7 -9 -14 -23 -15 -33 -1 -9 -4 -24 -7 -32 -21 -52 -25
-78 -16 -94 9 -16 12 -14 34 15 28 38 30 49 9 49 -8 0 -15 5 -15 10 0 6 7 10
15 10 12 0 35 54 35 83 0 13 -27 8 -40 -8z"/>
<path d="M5125 4016 c-8 -19 -19 -37 -25 -41 -16 -10 -12 -35 6 -35 10 0 14
-6 11 -14 -3 -8 -11 -42 -17 -76 -9 -50 -9 -63 4 -75 23 -24 40 -18 80 27 39
46 33 63 -10 29 -15 -12 -31 -21 -35 -21 -9 0 -6 38 6 78 5 15 3 22 -6 22 -10
1 -10 3 2 10 19 11 44 92 36 115 -11 26 -37 16 -52 -19z"/>
<path d="M3873 4023 c-7 -2 -13 -17 -13 -32 0 -14 -6 -36 -14 -47 -8 -11 -16
-33 -18 -49 -2 -23 -10 -31 -35 -37 -34 -9 -69 -50 -59 -67 4 -6 13 -8 21 -4
19 7 19 -16 1 -43 -8 -11 -14 -35 -14 -53 1 -21 4 -28 9 -19 5 7 9 19 9 27 0
8 7 19 16 25 9 7 16 31 18 60 2 26 9 53 15 59 6 6 11 9 12 7 4 -27 4 -78 -2
-90 -3 -8 -16 -36 -28 -63 -26 -59 -27 -83 -2 -97 38 -20 79 22 46 46 -14 10
-15 18 -5 55 15 54 22 97 22 127 0 24 17 29 36 10 17 -17 32 5 32 45 0 26 -2
27 -22 16 -13 -7 -27 -18 -31 -25 -4 -8 -12 -14 -17 -14 -16 0 -11 22 8 44 17
19 52 100 52 119 0 8 -18 8 -37 0z"/>
<path d="M4706 3993 c-23 -47 -29 -88 -12 -102 12 -10 17 -8 26 8 6 12 8 21 5
21 -3 0 4 17 15 37 25 47 25 63 0 63 -11 0 -25 -12 -34 -27z"/>
<path d="M4530 3968 c-11 -12 -20 -34 -20 -49 0 -15 -14 -53 -30 -84 -22 -41
-27 -61 -20 -70 7 -9 6 -16 -5 -25 -20 -17 -32 -5 -15 15 7 8 8 15 2 15 -13 0
-29 -21 -34 -45 -4 -18 -6 -17 -16 7 -9 21 -8 35 3 62 8 20 15 42 15 51 0 9 9
25 20 37 11 12 20 30 20 40 0 24 -35 58 -60 58 -22 0 -130 -64 -130 -78 0 -4
-21 -30 -47 -57 -25 -28 -47 -60 -48 -73 -1 -12 -6 -21 -11 -20 -5 2 -8 14 -7
28 l2 25 -11 -22 c-6 -13 -14 -23 -18 -23 -3 0 -16 -9 -29 -21 -36 -34 -35
-16 3 55 42 77 44 93 14 98 -16 2 -24 12 -29 34 -8 43 -17 54 -43 54 -45 0
-84 -81 -55 -116 11 -13 10 -22 -7 -52 -10 -20 -22 -40 -27 -43 -4 -3 -4 -19
-1 -37 5 -25 9 -29 19 -19 20 21 37 57 25 57 -5 0 -10 5 -10 11 0 6 7 8 15 5
10 -4 20 3 27 19 11 25 28 34 28 15 0 -6 -13 -36 -30 -67 -40 -75 -38 -96 11
-108 19 -5 32 0 52 19 16 14 34 26 42 26 7 0 17 9 20 20 9 28 25 25 25 -5 0
-16 6 -25 15 -25 8 0 15 -7 15 -15 0 -33 45 -12 99 48 14 15 29 27 34 27 5 0
8 -12 7 -27 -1 -16 -2 -36 -1 -45 2 -30 44 -21 86 17 21 20 38 34 39 33 22
-58 53 -59 113 -4 46 44 47 46 28 60 -21 15 -45 5 -45 -19 0 -10 -40 -30 -46
-22 0 1 -4 19 -7 40 -4 27 -2 37 7 37 11 0 25 32 74 168 7 21 -36 14 -58 -10z
m-156 -64 c30 -11 25 -18 -77 -121 -35 -36 -52 -41 -61 -18 -5 15 54 92 98
127 25 21 21 19 40 12z m-94 -34 c0 -5 -5 -10 -11 -10 -5 0 -7 5 -4 10 3 6 8
10 11 10 2 0 4 -4 4 -10z m-184 -177 c-10 -10 -19 5 -10 18 6 11 8 11 12 0 2
-7 1 -15 -2 -18z"/>
<path d="M4808 3955 c-10 -13 -18 -27 -18 -30 0 -4 -7 -13 -15 -21 -8 -9 -15
-29 -15 -46 0 -23 4 -29 15 -24 16 6 20 -11 16 -70 -2 -30 19 -64 40 -64 5 0
14 9 21 20 7 11 18 20 25 20 17 0 46 46 38 60 -11 17 -37 11 -42 -10 -3 -11
-14 -20 -24 -20 -15 0 -18 6 -13 33 28 174 28 177 8 177 -11 0 -27 -11 -36
-25z m12 -75 c0 -5 -4 -10 -10 -10 -5 0 -10 5 -10 10 0 6 5 10 10 10 6 0 10
-4 10 -10z"/>
<path d="M5046 3880 c-30 -46 -47 -50 -70 -15 l-17 25 -25 -27 c-26 -28 -27
-44 -4 -51 9 -3 11 1 6 14 -6 15 -5 16 5 7 7 -7 13 -20 14 -30 2 -28 14 -43
34 -43 21 0 51 40 51 69 0 10 11 29 25 42 24 24 33 49 16 49 -4 0 -20 -18 -35
-40z"/>
<path d="M4657 3873 c-4 -3 -7 -17 -7 -30 0 -20 -4 -23 -20 -18 -24 8 -40 -22
-19 -36 10 -5 16 -3 20 9 4 10 8 1 12 -26 6 -33 12 -42 27 -42 25 0 73 71 56
82 -6 4 -17 0 -23 -9 -18 -24 -25 -11 -13 22 13 35 -11 71 -33 48z"/>
<path d="M4720 3839 c0 -5 5 -7 10 -4 6 3 10 8 10 11 0 2 -4 4 -10 4 -5 0 -10
-5 -10 -11z"/>
<path d="M3590 3771 c-12 -23 -13 -41 -2 -41 4 0 13 14 19 30 12 33 0 41 -17
11z"/>
<path d="M3625 3728 c-5 -21 -2 -35 11 -49 21 -23 23 -88 2 -104 -7 -6 -18
-19 -24 -30 -13 -24 -47 -34 -38 -12 8 22 -82 31 -132 14 -31 -11 -39 -19 -39
-38 0 -20 5 -24 30 -25 17 0 41 -2 55 -3 l25 -2 -22 -16 c-13 -8 -23 -22 -23
-29 0 -18 -8 -18 -26 1 -12 11 -20 12 -35 5 -10 -6 -19 -7 -19 -3 0 4 -5 2
-11 -4 -14 -14 -49 -5 -49 12 0 7 11 16 25 19 21 5 25 12 25 42 l0 35 -41 -23
c-98 -55 -105 -131 -15 -154 19 -5 31 -2 37 7 8 12 11 12 20 -1 8 -12 12 -12
16 -2 3 9 9 10 18 2 9 -7 20 -3 40 15 20 19 30 23 40 15 10 -8 23 -4 51 15 51
33 94 72 94 85 0 5 4 10 8 10 5 0 21 24 37 54 23 44 27 61 21 95 -8 50 -30 87
-56 94 -15 4 -20 -2 -25 -25z"/>
<path d="M3880 3699 c-17 -32 -22 -69 -9 -69 16 0 59 48 59 64 0 8 -7 17 -16
20 -22 8 -22 8 -34 -15z"/>
<path d="M5059 3588 c-4 -49 11 -88 35 -88 13 0 76 52 76 63 0 14 -29 7 -38
-9 -14 -25 -47 -13 -50 19 -3 27 -21 38 -23 15z"/>
<path d="M5545 3580 c-7 -23 1 -40 20 -40 13 0 25 21 25 46 0 22 -38 17 -45
-6z"/>
<path d="M5835 3545 c-14 -19 -32 -50 -40 -68 -15 -37 -58 -90 -66 -82 -3 3
-2 26 2 53 14 87 6 95 -35 35 -25 -36 -25 -73 0 -39 7 10 15 13 18 7 4 -5 2
-12 -4 -16 -14 -9 -13 -72 2 -81 6 -4 23 6 40 24 28 32 28 32 48 12 12 -12 26
-17 37 -13 20 8 73 60 73 71 0 4 -6 0 -13 -9 -7 -9 -18 -14 -24 -12 -7 3 -13
0 -13 -6 0 -6 -9 -11 -20 -11 -27 0 -25 21 4 53 33 35 56 69 56 82 0 6 -9 16
-19 22 -17 11 -23 8 -46 -22z m1 -63 c-32 -32 -35 -16 -4 23 14 18 23 24 26
16 2 -7 -7 -25 -22 -39z"/>
<path d="M4558 3518 c-27 -22 -48 -46 -48 -54 0 -23 16 -16 46 19 15 17 29 27
31 20 2 -6 13 -22 24 -34 17 -20 22 -21 29 -9 14 21 12 30 -4 30 -8 0 -18 15
-23 34 l-8 34 -47 -40z"/>
<path d="M5662 3541 c-7 -4 -19 -28 -27 -54 -16 -55 -85 -125 -98 -101 -5 9 1
34 17 66 28 57 33 82 14 76 -19 -7 -63 -103 -59 -128 2 -8 -1 -12 -5 -7 -4 4
-16 0 -26 -10 -21 -19 -37 -10 -19 11 7 8 16 28 21 45 7 27 6 31 -10 31 -21 0
-116 -87 -107 -97 4 -3 2 -15 -4 -25 -8 -15 -8 -23 1 -32 17 -16 43 22 35 52
-3 14 -2 21 4 18 5 -3 11 1 15 9 11 30 25 14 23 -27 -2 -32 2 -43 15 -46 10
-2 19 5 23 17 7 24 30 28 39 6 3 -8 10 -15 15 -15 17 0 71 58 72 77 0 12 4 8
11 -10 11 -32 24 -31 47 3 15 23 15 24 -2 17 -16 -6 -18 -3 -12 26 4 17 14 45
22 60 16 32 14 50 -5 38z"/>
<path d="M4021 3509 c-26 -29 -37 -62 -40 -129 -2 -34 -10 -64 -22 -81 -11
-16 -22 -53 -25 -87 -6 -55 -5 -60 15 -67 14 -4 30 0 48 15 25 20 64 73 69 95
2 6 10 36 18 68 18 66 20 107 7 107 -15 0 -25 -21 -29 -63 -4 -47 -18 -87 -31
-87 -10 0 -26 71 -24 105 3 37 11 84 18 95 11 18 33 10 39 -15 4 -14 10 -25
15 -25 15 0 20 27 12 57 -9 36 -42 42 -70 12z m-16 -251 c4 -13 6 -27 5 -33
-1 -5 -3 -15 -3 -21 0 -12 -47 -17 -47 -5 0 20 22 81 29 81 5 0 12 -10 16 -22z"/>
<path d="M4392 3509 c-8 -12 -27 -62 -43 -111 -22 -67 -27 -93 -19 -103 8 -10
8 -19 -1 -33 -10 -16 -10 -26 -1 -46 16 -35 42 -33 84 8 l35 35 12 -26 c12
-27 15 -26 69 21 l22 19 0 -32 c0 -40 23 -40 53 1 22 29 15 57 -9 37 -21 -17
-18 16 7 71 19 41 19 45 3 57 -13 10 -24 9 -54 -7 -37 -19 -110 -98 -110 -120
0 -6 -5 -8 -10 -5 -6 3 -14 -5 -20 -19 -9 -25 -30 -36 -30 -16 0 6 -7 10 -15
10 -20 0 -19 7 6 33 27 28 42 57 31 57 -5 0 -17 -9 -27 -20 -31 -34 -33 -23
-12 50 11 39 24 70 29 70 12 0 10 -11 -7 -44 -15 -29 -6 -62 10 -36 7 12 35
136 35 157 0 20 -24 15 -38 -8z m166 -177 c-28 -32 -51 -51 -60 -52 -17 0 -6
21 27 56 40 41 70 37 33 -4z"/>
<path d="M5303 3453 c-22 -52 -23 -126 -2 -131 11 -2 22 10 34 35 30 68 40 83
52 83 13 0 28 38 19 48 -10 9 -64 -48 -70 -74 -4 -13 -11 -24 -16 -24 -16 0
-12 22 10 55 24 36 25 45 4 45 -8 0 -22 -17 -31 -37z"/>
<path d="M5085 3461 c-52 -32 -95 -89 -95 -126 0 -46 21 -61 54 -40 14 10 26
21 26 26 0 5 5 9 10 9 6 0 10 -11 10 -25 0 -30 19 -32 48 -5 28 27 30 54 2 45
-26 -8 -25 7 0 64 15 33 18 47 9 57 -15 19 -28 18 -64 -5z m35 -39 c0 -4 -15
-23 -34 -41 -47 -46 -68 -36 -26 12 29 34 60 49 60 29z"/>
<path d="M4919 3454 c-10 -13 -10 -17 1 -24 12 -7 12 -11 0 -25 -12 -14 -12
-18 1 -25 11 -7 11 -12 1 -22 -16 -16 -15 -39 2 -32 27 10 -19 -131 -52 -158
-25 -21 -21 0 8 43 16 24 30 47 30 52 0 18 -18 3 -47 -41 -38 -55 -44 -102
-14 -102 34 0 76 72 96 163 3 15 10 25 15 22 5 -3 11 -1 14 4 3 5 -1 12 -10
15 -10 4 -13 13 -9 27 4 13 2 25 -5 29 -10 6 -7 15 9 39 12 17 19 35 16 41 -9
15 -41 12 -56 -6z"/>
<path d="M4851 3402 c-18 -20 -38 -48 -45 -62 -12 -28 -45 -64 -52 -57 -2 2 0
28 6 57 6 30 6 58 2 62 -10 10 -62 -60 -62 -82 0 -11 3 -11 12 -2 20 20 24 14
20 -29 -6 -56 10 -69 41 -35 22 24 28 26 46 14 18 -11 24 -9 51 17 16 16 30
34 30 39 0 8 -3 7 -8 0 -4 -6 -18 -14 -32 -17 -22 -5 -26 -3 -28 19 -1 14 4
27 14 31 16 6 60 83 47 83 -5 0 -23 -17 -42 -38z"/>
<path d="M4676 3408 c-8 -13 -17 -34 -21 -48 -4 -14 -14 -33 -23 -42 -9 -12
-11 -18 -4 -18 7 0 12 -11 12 -25 0 -33 27 -33 42 1 9 20 9 27 -2 34 -13 8 -6
36 28 112 8 19 -19 6 -32 -14z"/>
<path d="M4154 3342 c-33 -23 -69 -88 -71 -130 -5 -68 23 -91 65 -52 12 11 26
20 31 20 12 0 25 39 16 48 -4 4 -15 -3 -25 -15 -20 -26 -60 -31 -60 -8 0 8 9
19 20 25 25 13 70 79 70 102 0 18 -26 24 -46 10z m16 -29 c-1 -14 -30 -47 -36
-41 -6 7 17 48 28 48 5 0 8 -3 8 -7z"/>
<path d="M4090 2893 c-96 -20 -183 -74 -188 -116 -4 -35 24 -97 43 -97 8 0 25
-10 36 -21 19 -19 21 -29 15 -84 -3 -34 -4 -70 0 -79 7 -17 34 -22 34 -6 0 6
9 10 21 10 18 0 20 -5 17 -42 -3 -40 -5 -43 -33 -43 -29 0 -30 -2 -28 -39 2
-21 -4 -47 -12 -59 -8 -12 -15 -29 -15 -39 0 -9 -13 -32 -29 -50 -39 -46 -81
-131 -81 -168 0 -26 3 -30 28 -30 37 0 64 29 100 111 17 37 34 69 39 72 5 3
30 8 57 11 26 4 69 17 96 31 56 28 70 30 116 13 26 -9 36 -9 48 2 20 16 114
209 121 247 20 114 4 245 -37 305 -50 72 -200 103 -348 71z"/>
<path d="M5662 2889 c-69 -35 -125 -125 -156 -249 -9 -36 -25 -83 -36 -105
-11 -21 -20 -52 -20 -69 0 -45 -50 -187 -82 -230 -15 -22 -28 -47 -28 -55 0
-9 -11 -34 -25 -56 -13 -22 -25 -50 -25 -63 0 -12 -7 -39 -16 -60 -8 -20 -15
-54 -16 -74 0 -32 -7 -43 -50 -79 l-51 -42 6 -67 c4 -45 2 -71 -6 -79 -12 -12
-2 -24 28 -34 13 -5 -33 -142 -56 -171 -22 -27 -38 -13 -50 41 -11 52 -53 196
-77 263 -10 30 -25 91 -32 135 -6 44 -19 94 -27 110 -19 37 -59 86 -65 79 -3
-2 -11 2 -18 11 -7 8 -18 15 -24 15 -6 0 -23 11 -37 24 -14 13 -45 35 -69 48
-23 12 -52 29 -64 35 -52 31 -121 6 -200 -70 -40 -39 -56 -61 -56 -80 0 -19
-8 -31 -28 -41 -34 -18 -116 -112 -127 -145 -9 -30 -64 -91 -81 -91 -23 0
-114 -80 -114 -100 0 -14 -7 -20 -21 -20 -41 0 -171 -51 -323 -126 -102 -50
-204 -74 -240 -54 -19 10 -29 8 -62 -9 -21 -12 -43 -21 -49 -21 -5 0 -22 -10
-37 -23 -20 -16 -34 -46 -54 -112 -37 -127 -37 -129 -24 -183 15 -65 57 -106
106 -105 46 1 50 6 31 45 -9 18 -13 37 -9 43 4 5 10 37 13 70 6 56 15 112 25
161 3 15 13 23 34 26 17 3 33 1 35 -3 3 -4 -2 -37 -10 -73 -18 -78 -11 -116
34 -188 36 -56 77 -85 256 -178 127 -66 149 -82 245 -174 120 -117 191 -176
211 -176 7 0 27 14 45 31 40 38 61 34 100 -22 25 -37 27 -43 15 -72 -16 -40
-16 -42 -26 -102 -14 -93 -51 -125 -143 -125 -79 0 -124 -62 -65 -89 32 -15
244 -27 296 -17 20 4 37 13 37 20 0 16 36 49 75 69 17 9 39 29 50 46 10 16 30
35 43 41 39 17 137 97 156 125 15 22 16 32 6 56 -11 26 -9 32 26 75 89 107
168 184 189 184 16 0 32 -16 59 -60 39 -62 101 -121 151 -141 17 -6 67 -12
112 -13 45 0 84 -4 87 -7 4 -3 -5 -23 -19 -43 -28 -41 -32 -91 -11 -121 22
-32 46 -124 46 -178 0 -34 4 -47 13 -45 8 3 13 31 15 81 3 75 4 77 28 77 38 0
144 -104 144 -140 0 -36 15 -40 170 -40 102 0 133 4 168 20 77 35 53 64 -74
86 -48 8 -92 18 -96 20 -5 3 -18 25 -29 50 -12 24 -24 44 -28 44 -10 0 -31 46
-31 68 0 38 53 153 81 176 25 21 37 24 77 20 l47 -5 30 63 c24 49 60 92 178
210 81 81 147 152 147 157 0 5 6 16 14 24 50 49 106 171 106 230 0 24 -83 191
-101 202 -5 4 -9 39 -9 78 0 81 -34 257 -75 392 -15 50 -36 124 -47 165 -11
41 -23 77 -27 80 -22 14 -32 54 -25 93 11 60 8 70 -40 141 -47 68 -64 106 -47
106 14 0 14 37 0 46 -6 3 -8 17 -5 29 3 13 2 26 -3 29 -5 3 -12 30 -16 59 -10
79 -12 84 -63 113 -40 24 -60 28 -147 31 -88 4 -105 2 -143 -18z m348 -649 c0
-10 7 -37 16 -61 36 -102 66 -331 46 -351 -16 -16 -88 28 -119 72 -15 23 -36
50 -45 62 -25 29 -23 43 9 66 l28 20 -23 24 c-28 31 -28 49 2 97 14 21 32 55
40 76 14 32 18 35 31 25 8 -7 15 -20 15 -30z m-1567 -660 c9 -138 5 -236 -10
-251 -27 -27 -127 40 -138 92 -8 35 -21 45 -67 54 -20 4 -45 13 -55 21 -17 13
-14 17 37 63 30 27 71 57 90 67 19 10 51 31 70 46 58 46 64 38 73 -92z m1570
-73 c49 -31 36 -49 -75 -102 -57 -26 -140 -70 -185 -97 -45 -26 -84 -48 -87
-48 -14 0 -4 34 19 68 14 20 25 42 25 49 0 17 70 83 88 83 28 0 93 45 113 78
l20 35 27 -25 c15 -13 39 -32 55 -41z m-1322 -280 c-1 -12 -15 -9 -19 4 -3 6
1 10 8 8 6 -3 11 -8 11 -12z m-1350 -4 c0 -5 2 -27 4 -50 4 -46 -7 -62 -30
-43 -17 14 -19 38 -5 74 9 24 29 36 31 19z"/>
<path d="M4302 2110 c-15 -43 -15 -50 2 -50 16 0 25 38 16 65 -6 16 -9 13 -18
-15z"/>
<path d="M3840 1878 c0 -6 -3 -8 -6 -5 -14 13 -45 -44 -54 -100 -22 -127 -26
-113 29 -113 38 0 52 5 71 25 12 13 44 32 69 40 32 11 58 31 85 63 l39 47 -71
3 c-62 2 -74 6 -91 27 -20 26 -71 35 -71 13z"/>
<path d="M4080 1860 c0 -5 7 -7 15 -4 8 4 15 8 15 10 0 2 -7 4 -15 4 -8 0 -15
-4 -15 -10z"/>
</g>
</svg>
