<?xml version="1.0" standalone="no"?>
<!DOCTYPE svg PUBLIC "-//W3C//DTD SVG 20010904//EN"
 "http://www.w3.org/TR/2001/REC-SVG-20010904/DTD/svg10.dtd">
<svg version="1.0" xmlns="http://www.w3.org/2000/svg"
 width="787.000000pt" height="433.000000pt" viewBox="0 0 787.000000 433.000000"
 preserveAspectRatio="xMidYMid meet">

<g transform="translate(0.000000,433.000000) scale(0.100000,-0.100000)"
fill="#000000" stroke="none">
<path d="M4764 4315 c3 -8 6 -53 7 -99 1 -77 -2 -90 -39 -174 -22 -50 -79
-147 -126 -217 -86 -127 -100 -160 -101 -247 0 -32 -4 -48 -12 -48 -33 0 4
-79 54 -117 30 -23 34 -31 29 -57 -4 -17 -15 -47 -25 -67 -23 -44 -185 -270
-257 -360 -68 -83 -82 -111 -76 -148 6 -45 43 -75 130 -106 42 -15 80 -32 84
-39 12 -17 9 -105 -5 -166 -7 -30 -11 -65 -9 -77 4 -24 55 -73 77 -73 12 0 11
-5 -1 -27 -23 -45 -17 -69 34 -147 l49 -73 -19 -25 c-45 -63 -64 -201 -36
-265 17 -38 84 -108 137 -144 47 -30 48 -35 8 -20 -22 8 -24 7 -20 -10 4 -14
14 -19 39 -19 31 0 34 -3 34 -30 0 -28 -2 -30 -40 -30 -22 0 -40 5 -40 10 0 6
-47 10 -120 10 -73 0 -120 -4 -120 -10 0 -6 -47 -10 -120 -10 l-120 0 0 40 0
40 -40 0 c-29 0 -40 -4 -40 -15 0 -11 -12 -15 -50 -15 -27 0 -50 -4 -50 -10 0
-22 -15 -8 -16 15 -1 14 2 25 7 25 5 0 9 -5 9 -10 0 -6 8 -5 20 2 18 12 20 24
20 127 0 113 0 114 -30 143 -16 15 -30 32 -30 37 0 5 -6 12 -12 14 -8 3 -6 6
5 6 13 1 17 10 17 37 0 48 -20 115 -37 121 -7 3 -13 16 -13 29 0 21 -4 24 -40
24 -29 0 -40 4 -40 15 0 8 -6 15 -12 15 -7 1 -25 17 -40 37 l-28 36 0 -39 -1
-39 -20 38 c-11 21 -19 43 -16 50 3 10 -14 35 -49 71 -6 6 -17 36 -24 66 -14
59 -27 83 -41 74 -5 -3 -9 -16 -9 -30 0 -13 -4 -24 -10 -24 -5 0 -10 6 -10 14
0 8 -13 16 -30 18 -26 4 -29 2 -24 -14 3 -10 1 -18 -4 -18 -5 0 -12 14 -16 32
-5 24 -9 29 -18 20 -25 -25 -98 -12 -98 17 0 24 20 41 50 41 22 1 23 2 7 11
-12 7 -22 7 -30 1 -16 -14 -48 -17 -70 -7 -11 4 -28 2 -43 -5 -20 -11 -24 -21
-24 -57 0 -24 -4 -43 -8 -43 -10 0 -32 -60 -32 -88 0 -12 -4 -22 -10 -22 -5 0
-10 9 -10 19 0 11 -5 23 -11 27 -6 4 -9 30 -7 67 2 38 -1 61 -8 64 -14 5 -46
-70 -33 -75 12 -5 11 -82 -1 -82 -5 0 -10 -18 -10 -40 0 -29 4 -40 15 -40 19
0 19 -20 1 -46 -15 -19 -15 -19 -30 1 -9 11 -13 26 -11 33 2 6 -2 12 -10 12
-11 0 -15 11 -15 40 0 29 -4 40 -15 40 -11 0 -15 -11 -15 -37 -1 -21 -7 -56
-15 -78 -8 -22 -15 -41 -15 -42 0 -2 8 -3 19 -3 15 0 19 -10 24 -52 5 -60 -6
-93 -31 -83 -23 9 -65 -43 -59 -74 5 -28 -10 -81 -24 -81 -5 0 -9 11 -9 25 0
15 -6 25 -15 25 -10 0 -15 -15 -17 -57 -3 -56 -4 -58 -33 -63 -32 -6 -99 25
-89 41 3 5 0 9 -6 9 -6 0 -8 5 -5 10 3 6 0 10 -9 10 -8 0 -16 4 -18 8 -1 4
-22 23 -45 41 -23 19 -47 48 -53 66 -10 32 -44 55 -78 55 -18 0 -56 64 -66
110 -3 14 -15 36 -26 50 l-20 25 0 -22 c0 -24 -14 -31 -25 -13 -3 6 -1 10 6
10 10 0 10 3 1 12 -7 7 -12 20 -12 29 0 9 -7 22 -15 29 -13 10 -15 9 -15 -9 0
-11 -4 -21 -10 -21 -5 0 -10 12 -10 27 0 31 -14 21 -23 -18 -4 -17 2 -41 18
-72 14 -25 25 -58 25 -72 0 -14 5 -25 10 -25 14 0 32 -48 32 -83 0 -15 6 -40
14 -55 7 -15 14 -34 14 -43 0 -9 7 -22 15 -29 9 -7 14 -18 12 -25 -7 -17 21
-77 33 -70 6 4 10 -9 10 -34 l0 -41 -40 0 c-38 0 -40 2 -40 30 0 20 -5 30 -15
30 -11 0 -15 11 -15 40 0 23 -5 40 -11 40 -7 0 -10 -15 -7 -40 l4 -40 -58 0
c-45 0 -58 -3 -58 -15 0 -11 -11 -15 -40 -15 -29 0 -40 4 -40 15 0 13 -24 15
-160 15 -136 0 -160 -2 -160 -15 0 -12 -20 -15 -120 -15 l-120 0 0 25 c0 22
-4 25 -35 25 -47 0 -45 18 3 23 20 2 -15 4 -79 5 l-117 2 -6 -25 c-5 -21 -12
-25 -46 -25 -40 0 -40 0 -40 40 l0 40 -51 0 c-43 0 -55 5 -81 30 -26 27 -28
33 -17 47 10 12 10 15 2 9 -10 -5 -13 4 -13 33 0 40 -1 41 -35 41 -26 0 -45 9
-70 32 -35 31 -35 31 -35 120 0 52 -4 88 -10 88 -5 0 -10 18 -10 40 0 22 5 40
10 40 6 0 10 18 10 40 0 38 2 40 30 40 28 0 30 2 30 40 0 29 -4 40 -15 40 -11
0 -15 11 -15 39 0 30 -4 40 -18 43 -14 3 -11 9 16 33 17 16 32 33 32 37 0 5
-18 8 -40 8 -36 0 -40 3 -40 25 0 23 -4 25 -40 25 -29 0 -40 4 -40 15 0 12 16
15 80 15 l80 0 0 40 0 40 -40 0 c-29 0 -40 -4 -40 -15 0 -11 -11 -15 -40 -15
-29 0 -40 -4 -40 -15 0 -8 -9 -15 -20 -15 -11 0 -20 7 -20 15 0 8 -9 15 -20
15 -11 0 -20 7 -20 15 0 8 9 15 20 15 11 0 20 6 20 13 0 10 -31 12 -140 9
-124 -4 -140 -2 -140 12 0 13 -13 16 -80 16 -74 0 -80 2 -80 20 0 12 -7 35
-16 52 -10 20 -12 33 -5 37 6 4 6 12 2 20 -11 17 -31 6 -31 -17 -1 -9 -14 -42
-30 -72 -17 -30 -30 -63 -30 -72 0 -10 -4 -18 -9 -18 -6 0 -11 -23 -13 -52 -2
-30 -8 -53 -15 -56 -7 -2 -13 3 -13 12 0 9 -7 17 -15 17 -8 1 -25 2 -37 3 -12
0 -23 7 -25 14 -3 8 8 12 36 12 37 0 41 3 41 24 0 13 5 26 11 28 8 3 8 10 -2
26 -10 16 -23 22 -51 22 -38 0 -38 0 -38 -40 l0 -41 -48 3 c-59 4 -82 24 -82
71 0 23 -5 34 -15 34 -8 0 -15 -7 -15 -15 0 -7 -6 -12 -12 -10 -8 3 -14 26
-16 59 -4 77 -8 86 -32 64 -20 -18 -20 -36 -20 -1502 l0 -1483 3935 0 3935 0
0 1045 0 1045 -21 0 c-11 0 -31 -13 -44 -28 -22 -26 -28 -28 -78 -24 -38 3
-57 0 -62 -9 -5 -7 -4 -14 3 -17 7 -2 12 -10 12 -18 0 -10 -12 -14 -41 -14
-32 0 -40 3 -35 15 4 10 -1 15 -16 15 -19 0 -20 -4 -16 -50 4 -40 1 -53 -14
-67 -14 -13 -16 -18 -6 -25 9 -6 7 -10 -9 -14 -13 -4 -23 -13 -23 -20 0 -10
-13 -14 -40 -14 -28 0 -40 4 -40 14 0 10 14 16 43 18 23 2 42 8 42 13 0 6 -19
11 -42 13 -34 2 -43 0 -43 -12 0 -24 -66 -21 -92 4 -12 11 -16 20 -10 20 9 0
9 4 0 19 -7 11 -15 18 -19 16 -3 -3 -15 7 -25 20 -10 14 -24 25 -31 25 -7 0
-13 9 -13 20 0 18 -7 20 -65 20 l-65 0 0 -49 c0 -50 -13 -74 -24 -46 -3 8 -12
15 -21 15 -8 0 -15 7 -15 16 0 8 4 13 9 10 21 -13 45 118 42 231 -2 56 2 93
13 115 8 18 18 49 22 68 3 19 13 44 20 55 8 11 14 29 14 40 0 11 9 37 20 58
11 20 20 52 20 69 0 18 6 43 13 55 49 85 82 137 101 157 68 67 136 243 136
349 0 62 11 179 38 402 4 33 7 128 7 210 l0 150 -49 98 c-28 54 -67 118 -88
142 -21 24 -38 53 -38 65 0 12 -10 30 -22 41 -13 10 -17 18 -10 19 6 0 12 11
12 25 l0 25 -1281 0 c-1140 0 -1280 -2 -1275 -15z m-1429 -1825 c-11 -5 -27
-9 -35 -9 -13 -1 -13 0 0 9 8 5 24 9 35 9 l20 0 -20 -9z m-2275 -40 c0 -22 -4
-40 -10 -40 -5 0 -10 -7 -10 -15 0 -8 -7 -15 -15 -15 -8 0 -15 7 -15 15 0 8 5
15 10 15 6 0 10 18 10 40 0 29 4 40 15 40 11 0 15 -11 15 -40z m2319 11 c12
-7 12 -13 3 -24 -7 -7 -8 -17 -4 -22 9 -10 -40 5 -52 16 -11 9 10 39 28 39 6
0 17 -4 25 -9z m-2389 -116 c0 -8 -7 -15 -15 -15 -8 0 -15 7 -15 15 0 8 7 15
15 15 8 0 15 -7 15 -15z m2290 -81 c0 -8 -9 -14 -20 -14 -22 0 -26 10 -8 28
13 13 28 7 28 -14z m-2240 -134 c0 -29 -4 -40 -15 -40 -11 0 -15 11 -15 40 0
29 4 40 15 40 11 0 15 -11 15 -40z m80 -136 c0 -17 -22 -14 -28 4 -2 7 3 12
12 12 9 0 16 -7 16 -16z m1862 -224 c14 0 18 -5 14 -16 -3 -9 -6 -20 -6 -25 0
-16 -21 -9 -46 16 -18 18 -21 25 -9 25 8 0 15 6 16 13 0 10 2 10 6 0 2 -7 14
-13 25 -13z m-1702 -16 c0 -14 -3 -14 -15 -4 -8 7 -15 14 -15 16 0 2 7 4 15 4
8 0 15 -7 15 -16z m2720 -38 c0 -40 -4 -55 -16 -60 -12 -5 -15 -2 -10 10 3 8
6 36 6 60 0 24 5 44 10 44 6 0 10 -24 10 -54z m-960 -34 c-23 -11 -34 -12 -43
-3 -8 8 -5 11 11 11 13 0 25 7 28 15 5 12 9 13 21 4 11 -10 9 -15 -17 -27z
m-477 -2 c-4 -16 -14 -20 -44 -20 -56 0 -53 28 4 33 23 2 43 4 44 5 0 1 -1 -7
-4 -18z m-883 0 c0 -5 -18 -10 -40 -10 -22 0 -40 5 -40 10 0 6 18 10 40 10 22
0 40 -4 40 -10z m900 -61 c0 -5 -4 -9 -10 -9 -5 0 -10 7 -10 16 0 8 5 12 10 9
6 -3 10 -10 10 -16z m1325 -19 c3 -5 -1 -10 -10 -10 -9 0 -13 5 -10 10 3 6 8
10 10 10 2 0 7 -4 10 -10z m865 0 c0 -5 -6 -10 -14 -10 -8 0 -18 5 -21 10 -3
6 3 10 14 10 12 0 21 -4 21 -10z m-1398 -27 c3 -29 -26 -81 -89 -160 -30 -38
-32 -43 -16 -52 13 -7 23 -5 37 7 15 13 17 13 11 2 -8 -13 -7 -13 8 -1 11 9
15 21 12 35 -4 14 -3 17 3 8 6 -9 16 -2 37 28 38 55 53 61 94 41 27 -13 34
-22 36 -50 2 -19 -1 -28 -5 -21 -5 8 -10 3 -14 -15 -9 -35 -4 -39 22 -18 11
10 29 23 39 29 15 10 16 15 6 33 -10 17 -10 19 1 15 9 -3 16 5 21 23 9 36 24
55 39 46 6 -4 31 -8 56 -9 41 -1 95 -21 127 -46 9 -7 8 -21 -7 -59 -20 -51
-16 -92 12 -102 7 -2 10 -8 6 -12 -4 -4 -14 0 -23 9 -21 21 -29 20 -20 -1 5
-15 4 -16 -6 -5 -15 14 -33 16 -24 2 3 -6 -1 -7 -10 -4 -12 5 -13 10 -6 17 20
20 11 30 -9 12 -11 -10 -18 -20 -16 -24 2 -3 -19 -6 -47 -7 -29 -1 -42 1 -29
3 12 3 20 9 16 14 -3 5 -9 7 -14 4 -24 -15 26 102 55 130 6 6 19 20 29 33 17
20 17 22 3 22 -10 0 -17 -8 -17 -17 -1 -14 -4 -12 -15 7 -12 22 -14 22 -15 5
0 -10 -12 -29 -27 -41 -22 -18 -27 -30 -29 -77 -1 -31 -5 -61 -9 -67 -9 -14
-53 -4 -77 17 -14 13 -20 13 -33 3 -21 -17 -19 -26 5 -26 13 0 19 5 16 13 -8
19 2 16 13 -5 9 -16 5 -18 -33 -18 -26 1 -43 6 -44 14 -1 6 -3 19 -4 27 -1 13
-5 12 -22 -4 -38 -34 -62 -42 -76 -26 -7 8 -16 12 -21 9 -5 -3 -6 2 -2 12 5
14 3 15 -15 5 -12 -7 -22 -9 -22 -5 0 3 -7 1 -15 -6 -11 -9 -15 -9 -15 -1 0 7
-4 10 -9 7 -5 -3 -14 1 -21 9 -8 9 -21 13 -36 9 -15 -4 -24 -2 -24 6 0 6 9 14
20 17 18 5 22 10 19 29 0 4 5 11 13 16 10 7 10 11 1 15 -7 2 -12 14 -12 26 1
17 2 18 6 5 7 -29 17 -21 37 30 22 53 77 112 105 112 14 0 21 -8 23 -27z m108
5 c20 -21 21 -22 49 -5 36 21 41 21 41 2 0 -22 -60 -46 -83 -34 -9 6 -21 8
-25 5 -4 -2 -8 9 -9 25 -3 35 0 36 27 7z m40 2 c0 -5 -5 -10 -11 -10 -5 0 -7
5 -4 10 3 6 8 10 11 10 2 0 4 -4 4 -10z m1285 0 c-3 -5 -10 -10 -16 -10 -5 0
-9 5 -9 10 0 6 7 10 16 10 8 0 12 -4 9 -10z m53 -10 c-9 -13 -16 -16 -23 -9
-7 7 -5 13 5 19 24 15 31 11 18 -10z m-3882 -4 c3 -8 -2 -28 -10 -45 -9 -16
-16 -32 -16 -35 0 -9 80 0 91 11 7 7 21 8 41 2 41 -11 58 -27 58 -54 0 -25
-30 -43 -80 -47 -41 -3 -54 -32 -20 -43 25 -8 82 13 74 27 -3 5 2 8 12 6 13
-2 23 11 39 52 15 41 27 56 43 58 25 4 26 3 12 -32 -12 -33 3 -34 24 -1 33 50
77 19 58 -41 -9 -30 -8 -33 3 -24 8 7 17 20 20 30 7 23 24 29 52 19 22 -8 22
-9 7 -44 -8 -20 -12 -45 -9 -55 7 -24 -21 -35 -34 -12 -8 15 -12 15 -37 2 -25
-14 -28 -14 -47 12 l-21 28 -38 -43 c-31 -35 -39 -39 -48 -27 -5 8 -10 26 -10
40 -1 22 -2 23 -11 7 -13 -23 -59 -44 -86 -39 -30 4 -63 48 -63 81 0 15 7 37
16 50 l16 23 -42 -22 c-28 -14 -46 -32 -56 -56 -38 -93 -47 -109 -51 -92 -4
14 -7 15 -30 3 -45 -23 -53 -13 -66 85 l-3 25 -12 -25 c-6 -14 -20 -36 -30
-49 l-19 -23 -28 26 -29 27 -13 -24 c-7 -14 -20 -28 -29 -31 -26 -10 -64 20
-64 51 0 33 50 144 62 137 13 -8 9 -67 -7 -98 -18 -34 -19 -46 -4 -46 6 0 20
23 32 50 11 28 24 50 28 50 18 0 37 -31 32 -52 -9 -37 14 -8 30 37 19 54 42
61 33 9 l-8 -39 30 42 c50 68 67 67 52 -3 -11 -47 1 -109 19 -109 8 0 21 19
30 43 12 34 13 47 3 62 -17 27 -15 30 13 30 15 0 25 6 25 14 0 7 7 30 15 50
15 36 41 48 51 22z m2871 -8 c-3 -8 -6 -5 -6 6 -1 11 2 17 5 13 3 -3 4 -12 1
-19z m93 2 c8 -15 8 -20 -1 -20 -7 0 -10 -3 -6 -6 3 -4 0 -13 -8 -21 -23 -23
-18 -30 17 -25 28 4 30 6 13 13 -19 7 -19 8 1 8 32 1 37 -25 9 -43 -13 -9 -28
-16 -33 -16 -5 0 -14 -15 -20 -32 -10 -29 -11 -30 -6 -5 9 49 -13 21 -41 -53
-15 -39 -30 -70 -35 -70 -15 0 -18 56 -4 95 15 45 18 84 3 46 -15 -39 -20 -18
-8 38 11 50 21 62 35 39 4 -7 3 -8 -4 -4 -7 4 -12 1 -12 -8 0 -9 5 -16 10 -16
14 0 30 44 19 48 -5 2 -9 8 -9 13 0 6 5 7 10 4 6 -3 10 0 10 9 0 29 45 34 60
6z m-3406 -6 c29 -28 20 -38 -31 -35 -19 2 -63 -33 -63 -50 0 -5 17 -21 38
-36 47 -35 52 -42 52 -75 0 -28 -23 -48 -57 -48 -39 0 -93 21 -93 37 0 13 8
14 50 9 30 -4 50 -3 50 3 0 5 -18 24 -40 41 -32 25 -40 38 -40 64 0 40 24 74
64 92 41 17 51 17 70 -2z m3224 -20 c13 -9 32 -14 43 -11 10 3 19 1 19 -4 0
-5 -19 -9 -42 -9 -33 0 -39 3 -28 11 11 7 5 9 -24 7 -25 -2 -41 2 -43 10 -7
18 48 15 75 -4z m1397 6 c-3 -5 -14 -10 -23 -9 -14 0 -13 2 3 9 27 11 27 11
20 0z m-4130 -10 c3 -5 1 -10 -4 -10 -6 0 -11 5 -11 10 0 6 2 10 4 10 3 0 8
-4 11 -10z m2221 -2 c4 -6 3 -8 -4 -4 -6 3 -15 -2 -21 -11 -5 -10 -13 -14 -17
-10 -4 4 1 14 12 22 23 18 21 17 30 3z m752 -9 c3 -12 2 -12 -6 0 -6 8 -15 10
-22 6 -9 -5 -11 -4 -6 4 10 15 28 10 34 -10z m-2465 -4 c-3 -9 -8 -14 -10 -11
-3 3 -2 9 2 15 9 16 15 13 8 -4z m127 5 c8 -5 11 -10 5 -10 -5 0 -17 5 -25 10
-8 5 -10 10 -5 10 6 0 17 -5 25 -10z m265 0 c-3 -5 -12 -10 -18 -10 -7 0 -6 4
3 10 19 12 23 12 15 0z m79 -2 c-3 -4 -11 -5 -19 -1 -21 7 -19 12 4 10 11 0
18 -5 15 -9z m340 -10 c-5 -7 -1 -9 9 -5 12 5 15 0 14 -21 -1 -15 -6 -26 -10
-24 -23 9 -77 -92 -60 -109 12 -12 65 9 57 22 -3 5 1 6 9 3 10 -3 14 4 14 25
0 18 12 45 33 70 29 38 36 41 63 35 45 -10 67 -26 67 -50 0 -30 -33 -56 -74
-57 -24 -1 -36 -6 -39 -19 -3 -10 0 -18 6 -19 7 0 19 -2 28 -4 8 -1 26 4 40
12 l24 14 -30 -6 c-22 -4 -26 -3 -15 5 8 5 23 10 32 10 32 0 31 -22 -3 -55
-29 -27 -38 -31 -59 -23 -14 5 -33 17 -43 26 -14 13 -20 13 -26 3 -4 -7 -26
-18 -47 -26 -35 -12 -41 -12 -57 4 -10 10 -22 35 -27 55 -7 33 -5 43 20 79 15
23 26 46 23 53 -3 8 5 10 23 6 20 -4 25 -2 19 8 -5 9 -4 11 4 6 6 -4 8 -12 5
-18z m2216 2 c0 -17 -7 -20 -42 -22 l-43 -1 43 -4 c53 -5 55 -23 2 -23 -36 0
-40 -2 -40 -25 0 -25 -1 -25 -80 -25 -86 0 -89 2 -74 58 6 20 12 22 76 22 61
0 71 2 75 20 4 16 14 20 44 20 32 0 39 -3 39 -20z m-3210 0 c0 -5 -2 -10 -4
-10 -3 0 -8 5 -11 10 -3 6 -1 10 4 10 6 0 11 -4 11 -10z m413 -14 c15 -4 32
-17 37 -29 7 -18 2 -28 -23 -53 -18 -17 -34 -28 -37 -24 -3 4 -16 7 -30 6 -29
-1 -39 -30 -14 -40 20 -8 84 14 84 28 0 6 6 4 13 -3 10 -10 6 -17 -16 -37 -15
-13 -35 -24 -43 -24 -8 0 -12 -4 -9 -10 3 -5 4 -10 0 -10 -9 0 -59 33 -67 44
-4 6 -14 4 -25 -5 -10 -8 -31 -21 -48 -28 -28 -12 -31 -11 -55 20 -26 30 -28
53 -14 99 3 8 4 15 2 15 -2 1 11 15 27 33 32 34 62 35 82 3 9 -14 7 -20 -9
-30 -11 -7 -17 -8 -13 -2 3 6 2 11 -2 11 -11 0 -49 -79 -49 -99 1 -8 7 -16 15
-19 8 -3 11 0 7 7 -4 7 -2 9 8 5 18 -7 57 13 55 29 -4 33 3 59 21 77 11 11 17
20 13 20 -5 0 6 8 22 19 17 10 32 15 35 11 3 -4 18 -10 33 -14z m64 18 c-3 -3
-12 -4 -19 -1 -8 3 -5 6 6 6 11 1 17 -2 13 -5z m59 -3 c17 -16 62 -22 67 -8 5
11 6 0 8 -54 0 -24 -19 -51 -31 -44 -5 3 -11 1 -14 -3 -3 -5 -17 -8 -31 -7
-14 2 -23 -1 -20 -5 3 -5 -3 -10 -12 -13 -15 -3 -13 -6 9 -16 22 -11 31 -11
58 3 18 8 36 13 40 11 5 -3 11 3 14 12 4 10 25 40 49 66 l42 48 38 -15 c41
-18 44 -27 22 -80 -8 -20 -15 -38 -15 -41 1 -3 -2 -21 -6 -41 -7 -37 -24 -35
-27 3 -1 19 -3 19 -40 -8 -43 -31 -64 -29 -73 7 -7 28 -12 29 -35 8 -22 -20
-99 -26 -92 -7 3 7 0 13 -5 13 -6 0 -18 14 -26 31 -14 29 -14 34 2 63 9 17 27
39 40 49 12 10 20 23 17 28 -8 11 8 12 21 0z m394 -23 c0 -6 -7 -5 -15 2 -8 7
-15 17 -15 22 0 6 7 5 15 -2 8 -7 15 -17 15 -22z m111 5 c-12 -20 -14 -14 -5
12 4 9 9 14 11 11 3 -2 0 -13 -6 -23z m-341 7 c0 -5 -5 -10 -11 -10 -5 0 -7 5
-4 10 3 6 8 10 11 10 2 0 4 -4 4 -10z m860 -46 l-11 -29 32 33 c44 45 64 39
63 -18 l-1 -44 21 27 c22 27 59 36 71 17 3 -5 -1 -23 -10 -40 -9 -17 -13 -40
-10 -50 7 -23 -14 -27 -33 -8 -10 10 -17 10 -32 0 -29 -18 -36 -15 -52 18
l-15 31 -34 -45 c-19 -25 -39 -46 -46 -46 -22 0 -24 54 -3 113 29 83 41 100
58 84 10 -11 10 -20 2 -43z m1170 41 c0 -10 -11 -15 -35 -15 -24 0 -35 5 -35
15 0 10 11 15 35 15 24 0 35 -5 35 -15z m-2230 1 c0 -3 -4 -8 -10 -11 -5 -3
-10 -1 -10 4 0 6 5 11 10 11 6 0 10 -2 10 -4z m304 -12 c9 -24 7 -27 -9 -10
-17 17 -19 26 -6 26 5 0 12 -7 15 -16z m644 0 c36 -17 38 -29 17 -81 -8 -19
-15 -48 -15 -63 0 -14 -3 -30 -7 -33 -11 -11 -32 13 -27 31 5 14 2 13 -13 -3
-18 -20 -72 -49 -79 -42 -10 10 -33 77 -26 77 4 0 16 14 26 31 18 30 80 99 89
99 2 0 18 -7 35 -16z m1197 -24 c-3 -5 -12 -10 -18 -10 -7 0 -6 4 3 10 19 12
23 12 15 0z m188 -17 c16 -15 -15 -28 -57 -25 -31 3 -46 9 -46 18 0 10 14 14
48 14 27 0 52 -3 55 -7z m-635 -28 c-3 -3 -9 2 -12 12 -6 14 -5 15 5 6 7 -7
10 -15 7 -18z m102 21 c0 -3 -4 -8 -10 -11 -5 -3 -10 -1 -10 4 0 6 5 11 10 11
6 0 10 -2 10 -4z m-980 -10 c0 -3 -4 -8 -10 -11 -5 -3 -10 -1 -10 4 0 6 5 11
10 11 6 0 10 -2 10 -4z m-1240 -10 c0 -2 -7 -7 -16 -10 -8 -3 -12 -2 -9 4 6
10 25 14 25 6z m1125 -6 c-3 -5 -12 -10 -18 -10 -7 0 -6 4 3 10 19 12 23 12
15 0z m-1088 -22 c-3 -8 -6 -5 -6 6 -1 11 2 17 5 13 3 -3 4 -12 1 -19z m-47
-2 c0 -2 -7 -6 -15 -10 -8 -3 -15 -1 -15 4 0 6 7 10 15 10 8 0 15 -2 15 -4z
m2377 -18 c-3 -8 -6 -5 -6 6 -1 11 2 17 5 13 3 -3 4 -12 1 -19z m111 -6 c6
-18 -15 -14 -22 4 -4 10 -1 14 6 12 6 -2 14 -10 16 -16z m-8 -47 c0 -14 -4
-25 -9 -25 -4 0 -6 11 -3 25 2 14 6 25 8 25 2 0 4 -11 4 -25z m-470 -5 c0 -5
-5 -10 -11 -10 -5 0 -7 5 -4 10 3 6 8 10 11 10 2 0 4 -4 4 -10z m-1402 -239
c3 -15 -2 -24 -15 -27 -20 -6 -91 -124 -75 -124 6 0 13 7 16 16 7 19 26 9 26
-15 0 -19 -24 -45 -44 -47 -6 0 -16 -2 -22 -2 -6 -1 -17 -17 -24 -34 -35 -93
-51 -128 -61 -128 -4 0 -5 16 -2 34 8 49 -2 79 -32 93 -22 10 -27 9 -35 -8 -6
-10 -20 -24 -31 -30 -17 -9 -25 -7 -45 12 -28 26 -25 46 16 129 28 54 28 54
35 27 5 -18 1 -43 -9 -70 -19 -50 -20 -61 -5 -51 6 3 20 27 31 51 23 53 51 56
56 5 3 -29 6 -32 30 -26 15 4 28 7 28 8 1 1 24 50 52 109 49 103 53 108 79
104 20 -3 29 -10 31 -26z m1265 22 c-7 -2 -21 -2 -30 0 -10 3 -4 5 12 5 17 0
24 -2 18 -5z m-1150 -53 c-4 -56 -7 -69 -14 -67 -8 3 -99 -109 -99 -121 0 -14
23 -21 53 -15 15 3 27 1 27 -5 0 -22 -108 -29 -116 -7 -5 11 -10 12 -26 4 -31
-16 -35 -1 -7 24 14 12 37 51 50 86 43 115 138 187 132 101z m588 23 c3 -36
-4 -50 -63 -132 -64 -88 -65 -106 -6 -94 33 7 38 -12 6 -21 -43 -11 -86 -7
-92 10 -5 14 -10 13 -40 -5 -42 -26 -80 -27 -106 -1 -29 29 -36 69 -17 103
l17 28 -41 -23 c-32 -18 -46 -35 -61 -73 -38 -94 -37 -93 -37 -38 -1 28 3 63
8 77 7 18 6 28 -5 36 -21 18 -17 30 10 30 19 0 27 8 36 35 6 19 9 38 6 43 -2
4 9 9 25 10 33 3 35 -4 14 -54 l-14 -35 40 4 c22 2 44 8 50 14 19 19 99 -15
99 -41 0 -27 -29 -50 -71 -55 -30 -4 -45 -11 -47 -23 -9 -47 123 -16 135 32
12 51 51 126 80 158 34 35 72 43 74 15z m575 -8 c2 -11 -8 -37 -22 -57 -13
-21 -22 -38 -20 -38 2 0 -16 -21 -40 -47 -24 -27 -44 -53 -44 -59 0 -16 21
-23 52 -17 14 3 28 0 32 -5 3 -6 -15 -13 -45 -17 -38 -5 -54 -3 -67 8 -22 19
-41 11 -54 -22 l-10 -26 -12 27 -11 26 -28 -24 c-38 -32 -65 -31 -73 3 -8 30
13 75 61 130 30 35 34 36 66 27 36 -11 41 -27 24 -87 -6 -23 -5 -26 9 -21 9 3
21 25 27 48 15 57 58 134 88 157 30 24 63 21 67 -6z m84 -22 c0 -8 -7 -28 -16
-45 l-16 -31 36 7 c20 4 36 3 36 -1 0 -10 -57 -43 -73 -43 -12 0 -40 -55 -61
-120 l-11 -35 -3 52 c-2 29 2 62 8 74 9 15 9 24 1 32 -18 18 -13 37 9 37 11 0
20 5 20 12 0 6 9 31 21 55 17 35 24 41 35 32 8 -6 14 -18 14 -26z m-2105 -8
c14 -13 25 -33 25 -44 0 -13 5 -19 14 -15 8 3 17 1 21 -5 4 -7 14 -5 31 5 32
22 38 14 27 -33 -12 -52 4 -115 28 -108 10 3 20 1 23 -4 7 -11 -40 -51 -60
-51 -22 0 -48 50 -46 89 0 20 -2 29 -5 21 -12 -30 -45 -70 -57 -70 -9 0 -13
14 -12 44 1 24 5 42 10 38 5 -3 7 4 4 16 -3 12 -1 23 6 26 7 3 2 13 -13 26
l-24 20 -15 -21 c-11 -17 -16 -18 -23 -8 -13 21 -11 47 7 74 20 31 29 31 59 0z
m389 -31 c23 -9 19 -37 -9 -64 -21 -20 -25 -33 -25 -81 0 -50 -3 -59 -21 -64
-14 -5 -31 0 -50 14 -24 18 -33 20 -50 11 -11 -7 -23 -9 -26 -7 -6 6 22 33 70
67 20 14 38 36 40 50 15 72 31 89 71 74z m580 -46 c8 -11 12 -26 10 -33 -7
-17 -49 -35 -83 -35 -33 0 -47 -23 -25 -41 15 -13 20 -12 87 16 29 12 20 -19
-12 -38 -40 -23 -74 -21 -98 6 -30 33 -36 62 -19 95 25 48 64 72 98 60 16 -6
35 -19 42 -30z m573 10 c35 -29 -5 -78 -64 -78 -37 0 -50 -14 -33 -35 16 -19
37 -19 74 0 40 21 47 9 13 -21 -34 -29 -76 -31 -105 -4 -45 42 -34 105 25 148
28 20 58 17 90 -10z m743 7 c12 8 -8 -114 -21 -127 -8 -8 -36 -24 -62 -36 -45
-21 -51 -22 -73 -7 -28 18 -30 44 -9 86 22 42 45 68 78 89 25 16 32 16 55 4
14 -7 28 -11 32 -9z m155 5 c3 -5 -10 -17 -29 -27 -35 -16 -76 -79 -76 -115 0
-25 -25 -41 -39 -24 -9 11 -7 31 6 87 l18 74 37 0 c20 0 40 3 44 8 10 10 32 9
39 -3z m100 -12 c20 -9 25 -17 21 -32 -31 -117 -40 -145 -47 -140 -5 3 -9 14
-9 25 0 20 -2 19 -31 -5 -39 -33 -63 -33 -77 -1 -10 21 -8 32 11 64 29 52 74
101 92 101 8 0 26 -5 40 -12z m-2571 -47 c4 -5 -6 -37 -20 -70 -28 -65 -45
-69 -58 -15 -13 48 56 122 78 85z m2657 -62 c9 -17 8 -23 -2 -30 -19 -12 -22
-11 -44 5 -23 16 -14 46 14 46 11 0 25 -10 32 -21z m1442 -276 c-7 -3 -13 -12
-13 -21 -1 -19 -29 -73 -30 -56 0 14 25 76 36 87 4 4 10 4 13 1 3 -4 0 -9 -6
-11z m-3813 -168 l0 -64 -40 -12 c-50 -15 -53 -30 -3 -18 21 4 39 6 42 4 7 -8
-49 -25 -80 -25 -48 0 -33 31 23 49 l47 14 -6 43 c-5 41 0 74 12 74 3 0 5 -29
5 -65z m1918 33 c2 -8 -12 -29 -31 -45 l-34 -30 36 -9 c21 -5 36 -15 36 -24 0
-14 -115 -78 -143 -79 -26 -2 -1 18 66 50 l67 33 -45 4 c-64 5 -69 16 -21 47
40 25 60 50 48 61 -9 9 -77 -8 -92 -23 -10 -10 -13 -31 -10 -76 4 -46 2 -54
-4 -32 -5 17 -11 49 -14 71 -5 40 -3 43 32 57 20 9 43 18 51 20 22 6 55 -8 58
-25z m262 -33 l0 -64 -40 -12 c-22 -7 -40 -16 -40 -21 0 -5 10 -6 23 -3 60 18
62 18 50 5 -15 -16 -95 -19 -100 -4 -2 7 19 20 47 30 l50 18 0 58 c0 32 2 58
5 58 3 0 5 -29 5 -65z m1587 28 c-3 -10 -5 -4 -5 12 0 17 2 24 5 18 2 -7 2
-21 0 -30z m-3976 -68 c-4 -50 -9 -73 -14 -62 -4 11 -4 24 0 30 4 7 -8 0 -26
-15 -18 -16 -41 -28 -52 -28 -24 0 -36 27 -20 43 8 8 11 5 11 -11 0 -29 8 -28
53 9 34 28 37 35 37 82 0 28 4 47 8 42 4 -6 6 -46 3 -90z m429 10 c0 -50 -4
-85 -10 -85 -5 0 -10 21 -10 48 0 49 10 122 16 122 2 0 4 -38 4 -85z m-911 33
c-3 -33 0 -43 16 -49 19 -7 19 -8 -2 -8 -19 -1 -23 -7 -24 -33 0 -27 -2 -29
-8 -13 -5 11 -6 24 -3 29 3 5 -7 7 -22 4 -14 -3 -26 -1 -26 3 0 5 11 9 24 9
21 0 24 6 30 50 8 60 19 67 15 8z m-147 20 c-63 -12 -64 -27 -1 -48 88 -30 90
-43 12 -66 -32 -9 -65 -19 -73 -21 -10 -3 -9 0 3 10 11 9 36 19 58 22 21 4 41
10 44 15 2 4 -22 17 -55 29 -88 32 -74 71 25 69 38 0 38 -1 -13 -10z m2181
-61 c-3 -37 -10 -67 -14 -67 -12 0 -11 29 2 90 15 69 20 59 12 -23z m-1033 9
c0 -6 -4 -6 -12 2 -9 9 -15 7 -25 -6 -14 -16 -14 -16 -9 1 3 10 6 26 6 34 0
14 3 14 20 -2 11 -10 20 -23 20 -29z m-810 20 c-10 -13 -40 -12 -40 1 0 3 7 3
15 0 8 -4 17 -2 20 3 4 6 9 10 12 10 3 0 0 -6 -7 -14z m1100 -1 c-14 -16 -46
-20 -54 -6 -3 4 5 6 18 4 13 -3 27 0 30 6 4 6 10 11 13 11 3 0 0 -7 -7 -15z
m3167 -7 c-3 -8 -6 -5 -6 6 -1 11 2 17 5 13 3 -3 4 -12 1 -19z m-2282 -8 c3
-5 1 -10 -4 -10 -6 0 -11 5 -11 10 0 6 2 10 4 10 3 0 8 -4 11 -10z m-2055 -41
c0 -5 -4 -8 -10 -4 -19 12 -60 -7 -61 -29 -1 -17 -2 -18 -6 -3 -8 32 5 47 42
47 19 0 35 -5 35 -11z m230 -11 c0 -13 -5 -30 -10 -38 -8 -12 -10 -9 -10 13 0
32 -10 34 -35 7 -10 -11 -23 -20 -29 -20 -17 1 52 60 69 60 9 0 15 -9 15 -22z
m416 11 c4 -7 -2 -17 -12 -23 -17 -9 -15 -11 16 -17 l35 -6 -37 -2 c-20 0 -43
2 -52 5 -16 6 -22 35 -9 47 10 11 51 8 59 -4z m344 -11 c0 -13 -5 -30 -10 -38
-8 -12 -10 -9 -10 13 0 32 -10 34 -35 7 -10 -11 -23 -20 -29 -20 -17 1 52 60
69 60 9 0 15 -9 15 -22z m71 13 c-9 -6 -10 -10 -1 -13 6 -2 14 -21 17 -43 9
-69 -47 -114 -111 -89 -41 16 9 75 61 73 11 0 6 -5 -12 -11 -46 -16 -57 -28
-44 -44 16 -19 53 -17 72 4 8 9 15 34 15 55 0 32 -3 37 -22 37 -13 0 -26 3
-29 7 -12 12 15 33 42 33 18 0 22 -3 12 -9z m488 -8 c0 -10 -4 -27 -9 -38 -8
-18 -9 -17 -9 8 -1 32 -11 34 -36 7 -10 -11 -23 -20 -29 -20 -17 1 52 60 69
60 8 0 15 -8 14 -17z m78 0 c2 -6 -6 -15 -19 -19 -21 -8 -20 -9 12 -15 l35 -6
-43 -2 c-45 -1 -60 13 -48 45 7 18 57 16 63 -3z m173 2 c0 -9 -9 -15 -24 -15
-35 0 -42 18 -9 23 16 2 29 5 31 6 1 0 2 -6 2 -14z m215 10 c-5 -2 -22 -6 -37
-9 -19 -4 -28 -13 -28 -26 0 -11 -4 -20 -10 -20 -12 0 -12 2 0 34 8 22 16 26
47 25 21 0 34 -2 28 -4z m135 -30 c0 -41 -17 -48 -22 -9 l-3 26 -27 -21 c-40
-32 -48 -24 -8 9 46 40 60 38 60 -5z m480 13 c0 -13 -5 -30 -10 -38 -8 -12
-10 -9 -10 13 0 32 -10 34 -35 7 -20 -23 -37 -27 -29 -7 5 15 54 46 72 47 6 0
12 -10 12 -22z m196 11 c4 -7 -2 -17 -12 -23 -17 -9 -15 -11 16 -17 l35 -6
-37 -2 c-20 0 -43 2 -52 5 -16 6 -22 35 -9 47 10 11 51 8 59 -4z m124 0 c0 -5
-4 -8 -10 -4 -19 12 -60 -7 -61 -29 -1 -17 -2 -18 -6 -3 -8 32 5 47 42 47 19
0 35 -5 35 -11z m-2897 -11 c-31 -15 -29 -30 1 -18 17 6 28 5 34 -3 8 -9 -1
-12 -34 -14 -31 -1 -44 2 -44 12 0 16 28 35 50 34 9 0 6 -5 -7 -11z m68 -31
c-8 -8 -11 -5 -11 9 0 27 14 41 18 19 2 -9 -1 -22 -7 -28z m727 27 c-35 -19
-36 -27 -2 -14 25 10 44 6 44 -8 0 -6 -55 -8 -84 -3 -18 2 27 41 48 41 19 -1
18 -3 -6 -16z m290 0 c-35 -19 -36 -27 -2 -14 14 6 30 8 35 4 19 -12 7 -19
-36 -21 -25 -1 -45 2 -45 7 0 13 41 40 60 40 8 -1 3 -7 -12 -16z m202 0 c0
-14 2 -14 22 0 35 25 48 20 47 -16 -2 -31 -2 -32 -6 -5 l-4 28 -35 -21 c-30
-19 -35 -20 -40 -5 -6 14 -9 14 -30 0 -30 -20 -31 -9 -1 16 27 23 47 24 47 3z
m707 -21 c-3 -10 -5 -4 -5 12 0 17 2 24 5 18 2 -7 2 -21 0 -30z m161 21 c-35
-19 -36 -27 -2 -14 25 10 44 6 44 -9 0 -6 -73 -8 -89 -2 -13 4 36 41 53 41 19
-1 18 -3 -6 -16z m322 -9 c0 -14 -4 -25 -10 -25 -11 0 -14 33 -3 43 11 11 13
8 13 -18z m-1080 1 c0 -8 -4 -18 -10 -21 -5 -3 -10 3 -10 14 0 12 5 21 10 21
6 0 10 -6 10 -14z"/>
<path d="M3307 1506 c-15 -24 -27 -47 -27 -52 0 -5 14 13 31 40 17 26 29 50
27 51 -2 2 -16 -15 -31 -39z"/>
<path d="M3699 1398 c-17 -24 -18 -29 -6 -19 18 14 42 51 33 51 -3 0 -15 -15
-27 -32z"/>
<path d="M3391 1386 l-24 -31 28 27 c16 15 27 29 24 31 -2 3 -15 -10 -28 -27z"/>
<path d="M3546 1375 c-3 -9 0 -15 9 -15 8 0 15 7 15 15 0 8 -4 15 -9 15 -5 0
-11 -7 -15 -15z"/>
<path d="M2043 1408 c-26 -30 -42 -59 -17 -33 27 29 47 55 42 55 -2 0 -14 -10
-25 -22z"/>
<path d="M2724 1393 c-23 -31 -24 -34 -5 -18 22 19 46 55 38 55 -3 0 -17 -17
-33 -37z"/>
<path d="M2085 993 c-25 -38 -32 -59 -16 -49 10 7 53 86 46 86 -2 0 -16 -17
-30 -37z"/>
<path d="M2678 1008 c-8 -13 -23 -39 -32 -58 l-17 -35 23 30 c22 27 51 85 44
85 -2 0 -10 -10 -18 -22z"/>
<path d="M2469 913 c-13 -16 -12 -17 4 -4 16 13 21 21 13 21 -2 0 -10 -8 -17
-17z"/>
<path d="M3236 987 c-28 -47 -32 -62 -16 -52 12 8 51 87 46 93 -2 2 -16 -16
-30 -41z"/>
<path d="M3028 875 c-31 -36 -37 -55 -13 -35 22 18 58 70 48 69 -4 0 -20 -15
-35 -34z"/>
<path d="M1327 933 c-6 -34 -2 -41 11 -16 6 11 7 25 3 32 -6 9 -10 4 -14 -16z"/>
<path d="M1580 855 c-10 -13 -9 -15 11 -15 17 0 20 3 10 9 -11 7 -11 9 0 14 8
3 9 6 3 6 -6 1 -17 -6 -24 -14z"/>
<path d="M2169 913 c-13 -15 -12 -15 9 -4 23 12 28 21 13 21 -5 0 -15 -7 -22
-17z"/>
<path d="M2755 920 c-10 -11 -13 -20 -8 -20 13 0 38 29 31 35 -3 3 -13 -4 -23
-15z"/>
<path d="M3467 889 c-51 -56 -48 -73 6 -48 25 11 47 47 47 74 0 24 -15 17 -53
-26z"/>
<path d="M3749 878 c-30 -40 -31 -41 -5 -18 26 24 52 60 42 60 -2 0 -19 -19
-37 -42z"/>
<path d="M300 2905 c-10 -12 -10 -15 4 -15 9 0 16 7 16 15 0 8 -2 15 -4 15 -2
0 -9 -7 -16 -15z"/>
<path d="M3188 2699 c3 -22 -2 -37 -18 -54 -23 -25 -21 -38 11 -55 18 -10 19
-7 19 65 0 41 -4 75 -8 75 -5 0 -7 -14 -4 -31z"/>
<path d="M3175 2530 c-9 -15 3 -29 25 -27 24 2 24 4 6 23 -17 17 -23 17 -31 4z"/>
<path d="M3485 2490 c3 -5 8 -10 11 -10 2 0 4 5 4 10 0 6 -5 10 -11 10 -5 0
-7 -4 -4 -10z"/>
<path d="M1132 2230 c0 -14 2 -19 5 -12 2 6 2 18 0 25 -3 6 -5 1 -5 -13z"/>
<path d="M7096 1967 c-5 -15 -6 -31 -2 -34 11 -11 18 5 14 34 l-4 28 -8 -28z"/>
<path d="M4605 1630 c3 -5 11 -10 16 -10 6 0 7 5 4 10 -3 6 -11 10 -16 10 -6
0 -7 -4 -4 -10z"/>
</g>
</svg>
