<?xml version="1.0" standalone="no"?>
<!DOCTYPE svg PUBLIC "-//W3C//DTD SVG 20010904//EN"
 "http://www.w3.org/TR/2001/REC-SVG-20010904/DTD/svg10.dtd">
<svg version="1.0" xmlns="http://www.w3.org/2000/svg"
 width="1080.000000pt" height="691.000000pt" viewBox="0 0 1080.000000 691.000000"
 preserveAspectRatio="xMidYMid meet">

<g transform="translate(0.000000,691.000000) scale(0.100000,-0.100000)"
fill="#000000" stroke="none">
<path d="M0 6572 l1 -339 37 -18 c36 -18 36 -18 12 -25 -46 -11 0 -24 78 -21
64 2 73 0 70 -14 -2 -12 9 -22 36 -32 21 -9 50 -27 64 -40 17 -16 37 -23 63
-23 32 0 39 -4 39 -20 0 -35 73 -53 109 -26 11 9 9 12 -9 16 -12 3 13 5 57 5
59 0 86 5 106 18 28 18 36 54 15 75 -8 8 -8 15 2 26 10 13 10 17 -1 20 -40 13
-43 14 -21 15 30 1 18 21 -12 21 -12 0 -26 4 -31 8 -6 5 -37 15 -70 22 -50 11
-69 22 -109 62 -32 31 -52 45 -57 37 -4 -8 -16 -2 -35 18 -18 18 -37 27 -50
25 -14 -2 -29 6 -42 22 -11 15 -24 26 -30 26 -5 0 -15 6 -21 14 -6 8 -31 19
-55 25 -49 12 -99 66 -102 111 -1 14 -7 37 -13 53 -9 22 -8 27 4 27 8 0 15 -4
15 -9 0 -10 77 -31 115 -31 14 0 28 -7 31 -15 4 -8 16 -15 29 -15 12 0 28 -7
35 -15 7 -8 16 -12 21 -10 4 3 14 -5 20 -17 l13 -23 6 24 c5 22 7 23 22 8 8
-9 29 -19 44 -23 16 -4 34 -10 39 -14 6 -5 34 -8 63 -8 28 -1 56 -3 61 -7 14
-8 61 76 61 108 0 38 10 57 31 57 14 0 20 10 25 40 6 37 9 40 39 40 18 0 38 7
46 16 14 17 14 81 -1 119 -9 23 -13 24 -100 24 l-90 0 0 -40 c0 -22 -5 -39
-11 -39 -8 0 -9 13 -5 40 l6 40 -275 0 -275 0 0 -338z m160 -362 c0 -5 -18
-10 -40 -10 -22 0 -40 5 -40 10 0 6 18 10 40 10 22 0 40 -4 40 -10z"/>
<path d="M0 5830 c0 -17 6 -38 14 -46 17 -16 46 -19 46 -4 0 6 -6 10 -14 10
-9 0 -16 12 -18 32 -4 43 -28 50 -28 8z"/>
<path d="M3315 3464 c-8 -9 -15 -27 -15 -41 0 -14 -8 -32 -17 -39 -17 -12 -17
-13 0 -19 13 -6 17 -19 17 -61 0 -30 -4 -54 -10 -54 -5 0 -10 -7 -10 -15 0
-11 12 -15 50 -15 38 0 50 4 50 15 0 8 -9 15 -21 15 -18 0 -20 5 -17 53 3 45
6 52 26 55 31 5 28 32 -4 32 -20 0 -25 4 -20 16 3 9 6 20 6 25 0 5 16 9 35 9
l35 0 0 -94 c0 -74 -3 -95 -15 -100 -32 -12 -13 -26 35 -26 38 0 50 4 50 15 0
8 -7 15 -15 15 -12 0 -15 19 -15 114 l0 115 -65 0 c-44 0 -70 -5 -80 -15z"/>
<path d="M3986 3465 c-3 -9 1 -18 9 -21 12 -5 15 -26 15 -100 0 -94 0 -94 -25
-94 -24 0 -25 2 -25 70 l0 70 -35 0 c-24 0 -35 -5 -35 -15 0 -8 5 -15 10 -15
12 0 13 -80 1 -98 -5 -8 -17 -12 -27 -10 -16 3 -19 14 -22 71 -3 67 -3 67 -32
67 -34 0 -50 -19 -26 -32 12 -7 16 -24 16 -69 0 -55 2 -60 27 -70 14 -5 34 -7
42 -3 9 3 58 5 109 5 77 -2 92 1 92 14 0 8 -7 15 -15 15 -12 0 -15 19 -15 115
l0 115 -29 0 c-17 0 -31 -6 -35 -15z"/>
<path d="M5300 3460 c0 -11 5 -20 10 -20 6 0 10 -38 10 -95 l0 -95 -30 0 -30
0 0 70 0 70 -30 0 c-20 0 -30 -5 -30 -15 0 -8 5 -15 10 -15 6 0 10 -25 10 -55
0 -42 -3 -55 -15 -55 -8 0 -15 -7 -15 -15 0 -12 18 -15 100 -15 82 0 100 3
100 15 0 8 -7 15 -15 15 -12 0 -15 19 -15 115 l0 115 -30 0 c-23 0 -30 -4 -30
-20z"/>
<path d="M6973 3464 c-4 -10 -2 -19 5 -22 8 -2 12 -34 12 -98 0 -77 -3 -94
-15 -94 -8 0 -15 -7 -15 -15 0 -11 12 -15 50 -15 38 0 50 4 50 15 0 8 -7 15
-15 15 -12 0 -15 22 -17 113 -3 108 -4 112 -26 115 -14 2 -25 -3 -29 -14z"/>
<path d="M7773 3464 c-4 -10 -2 -19 5 -22 7 -2 12 -16 12 -31 0 -25 -2 -26
-39 -23 -32 3 -42 0 -61 -25 -17 -22 -21 -37 -17 -72 6 -50 25 -73 58 -72 13
0 45 1 72 1 35 0 47 4 47 15 0 8 -4 15 -10 15 -5 0 -11 49 -12 113 -3 108 -4
112 -26 115 -14 2 -25 -3 -29 -14z m1 -110 c21 -8 22 -77 1 -94 -37 -31 -80
24 -57 75 12 25 27 30 56 19z"/>
<path d="M1832 3448 c6 -39 89 -42 104 -3 8 21 -3 32 -18 17 -15 -15 -58 -16
-58 -2 0 6 -7 10 -16 10 -10 0 -14 -7 -12 -22z"/>
<path d="M2700 3458 c0 -7 4 -19 9 -26 12 -19 81 -11 95 10 13 21 0 36 -16 20
-15 -15 -55 -16 -63 -2 -9 14 -25 12 -25 -2z"/>
<path d="M1213 3440 c-53 -32 -68 -130 -28 -188 20 -27 79 -43 125 -34 30 7
35 12 38 40 4 36 -22 46 -31 12 -4 -15 -14 -20 -36 -20 -47 0 -71 30 -71 88 0
58 20 82 69 82 24 0 34 -5 38 -20 8 -32 33 -24 33 10 0 24 -6 33 -26 40 -39
15 -76 12 -111 -10z"/>
<path d="M5213 3444 c-3 -8 -1 -20 5 -26 16 -16 42 -2 42 22 0 24 -38 28 -47
4z"/>
<path d="M8375 3363 c8 -96 9 -98 24 -88 7 3 11 42 11 91 0 79 -1 84 -21 84
-20 0 -21 -3 -14 -87z"/>
<path d="M2340 3415 c0 -16 -6 -25 -15 -25 -8 0 -15 -7 -15 -15 0 -8 7 -15 15
-15 12 0 15 -14 15 -65 0 -60 2 -66 24 -75 13 -5 33 -6 45 -3 30 8 27 33 -4
33 -24 0 -25 3 -25 55 0 48 2 55 20 55 11 0 20 7 20 15 0 8 -9 15 -20 15 -15
0 -20 7 -20 25 0 18 -5 25 -20 25 -15 0 -20 -7 -20 -25z"/>
<path d="M3690 3415 c0 -16 -6 -25 -15 -25 -8 0 -15 -7 -15 -15 0 -8 7 -15 15
-15 12 0 15 -14 15 -65 0 -55 3 -66 21 -75 26 -14 69 -5 69 14 0 8 -10 16 -22
18 -20 3 -23 10 -26 56 -3 47 -1 52 17 52 12 0 21 7 21 15 0 8 -9 15 -20 15
-15 0 -20 7 -20 25 0 18 -5 25 -20 25 -15 0 -20 -7 -20 -25z"/>
<path d="M6620 3415 c0 -16 -6 -25 -15 -25 -8 0 -15 -7 -15 -15 0 -8 7 -15 15
-15 12 0 15 -14 15 -65 0 -72 16 -91 65 -79 33 8 33 34 0 34 -24 0 -25 3 -25
55 0 48 2 55 20 55 11 0 20 7 20 15 0 8 -9 15 -20 15 -15 0 -20 7 -20 25 0 18
-5 25 -20 25 -15 0 -20 -7 -20 -25z"/>
<path d="M1391 3364 c-22 -28 -28 -83 -11 -114 13 -24 64 -41 100 -33 46 9 38
33 -10 33 -29 0 -42 5 -50 19 -9 18 -6 20 42 23 53 3 53 3 51 36 -2 45 -19 62
-63 62 -30 0 -43 -6 -59 -26z m79 -8 c0 -2 3 -11 6 -20 5 -13 -1 -16 -30 -16
-38 0 -44 8 -24 28 11 11 48 17 48 8z"/>
<path d="M1605 3382 c-10 -10 -5 -22 10 -22 12 0 15 -17 15 -95 0 -77 -3 -95
-15 -95 -9 0 -12 -6 -9 -15 4 -11 21 -15 55 -15 37 0 49 4 49 15 0 8 -9 15
-20 15 -15 0 -20 7 -20 26 0 23 3 25 29 19 64 -14 117 89 77 149 -15 23 -22
25 -91 24 -41 0 -77 -3 -80 -6z m131 -51 c7 -13 9 -34 5 -49 -6 -22 -13 -27
-37 -27 -26 0 -29 3 -32 38 -5 64 38 90 64 38z"/>
<path d="M1832 3378 c-18 -18 -14 -38 8 -38 11 0 20 5 20 11 0 18 45 5 48 -13
3 -14 -3 -18 -25 -18 -38 0 -73 -26 -73 -53 0 -33 14 -49 41 -48 13 0 45 1 72
1 35 0 47 4 47 15 0 8 -4 15 -10 15 -6 0 -10 26 -10 58 0 32 -5 63 -12 70 -7
7 -30 12 -53 12 -23 0 -46 -5 -53 -12z m76 -105 c-4 -22 -58 -31 -58 -10 0 20
10 27 37 27 18 0 24 -5 21 -17z"/>
<path d="M2016 3374 c-22 -21 -29 -57 -22 -100 6 -28 14 -38 43 -50 24 -10 43
-12 61 -6 43 14 39 32 -7 32 -35 0 -43 4 -53 25 -22 50 29 116 54 71 5 -9 16
-16 23 -16 18 0 20 31 3 48 -17 17 -84 15 -102 -4z"/>
<path d="M2172 3378 c-15 -15 -16 -38 -2 -38 6 0 19 5 29 12 22 14 51 4 51
-17 0 -10 -9 -15 -28 -15 -64 0 -97 -63 -48 -95 17 -11 30 -13 47 -7 13 5 39
7 57 5 25 -4 32 -2 32 11 0 9 -4 16 -10 16 -5 0 -10 23 -10 51 0 73 -12 89
-63 89 -24 0 -48 -5 -55 -12z m76 -105 c-4 -22 -58 -31 -58 -10 0 20 10 27 37
27 18 0 24 -5 21 -17z"/>
<path d="M2540 3363 c-18 -22 -21 -37 -17 -72 3 -28 12 -50 23 -58 25 -19 109
-13 109 6 0 10 -12 15 -40 15 -34 1 -41 5 -49 28 -13 36 6 78 34 78 11 0 23
-7 26 -15 8 -21 34 -19 34 3 0 28 -21 42 -61 42 -29 0 -43 -6 -59 -27z"/>
<path d="M2702 3378 c-15 -15 -16 -38 -2 -38 6 0 19 5 29 12 22 14 51 4 51
-17 0 -10 -9 -15 -28 -15 -64 0 -97 -63 -48 -95 17 -11 30 -13 47 -7 13 5 39
7 57 5 25 -4 32 -2 32 11 0 9 -4 16 -10 16 -5 0 -10 23 -10 51 0 73 -12 89
-63 89 -24 0 -48 -5 -55 -12z m76 -105 c-4 -22 -58 -31 -58 -10 0 20 10 27 37
27 18 0 24 -5 21 -17z"/>
<path d="M2952 3378 c-16 -16 -15 -63 1 -76 6 -6 24 -13 40 -17 30 -8 36 -32
11 -42 -10 -4 -22 1 -29 10 -18 25 -35 21 -35 -8 0 -26 14 -31 70 -26 35 3 50
19 50 53 0 25 -6 32 -40 45 -42 17 -54 43 -20 43 11 0 20 -4 20 -10 0 -5 7
-10 15 -10 9 0 15 9 15 25 0 23 -4 25 -43 25 -24 0 -48 -5 -55 -12z"/>
<path d="M3077 3383 c-12 -11 -8 -23 8 -23 12 0 15 -13 15 -60 0 -52 3 -62 24
-75 17 -12 30 -13 49 -6 13 5 34 7 46 4 30 -8 58 4 43 19 -7 7 -12 42 -12 80
l0 68 -35 0 c-24 0 -35 -5 -35 -15 0 -8 5 -15 11 -15 6 0 9 -21 7 -52 -3 -49
-5 -53 -30 -56 l-28 -3 0 70 0 71 -28 0 c-16 0 -32 -3 -35 -7z"/>
<path d="M3521 3364 c-25 -31 -28 -90 -6 -120 25 -37 130 -41 123 -5 -2 12
-12 15 -38 13 -26 -2 -38 2 -48 18 -12 19 -10 20 44 20 l57 0 -6 36 c-8 50
-23 64 -67 64 -30 0 -43 -6 -59 -26z m79 -8 c0 -2 3 -11 6 -20 5 -13 -1 -16
-30 -16 -38 0 -44 8 -24 28 11 11 48 17 48 8z"/>
<path d="M4181 3364 c-23 -29 -28 -83 -10 -115 25 -48 120 -43 140 8 14 37 11
86 -7 111 -23 34 -95 31 -123 -4z m90 -31 c14 -38 -2 -78 -32 -78 -17 0 -26 8
-33 27 -21 60 42 111 65 51z"/>
<path d="M4362 3378 c-18 -18 -14 -38 8 -38 11 0 20 5 20 11 0 18 45 5 48 -13
3 -14 -3 -18 -25 -18 -38 0 -73 -26 -73 -53 0 -36 16 -50 51 -49 19 1 51 1 72
1 26 1 37 5 37 16 0 8 -4 15 -10 15 -6 0 -10 26 -10 58 0 32 -5 63 -12 70 -7
7 -30 12 -53 12 -23 0 -46 -5 -53 -12z m76 -105 c-4 -22 -58 -31 -58 -10 0 20
10 27 37 27 18 0 24 -5 21 -17z"/>
<path d="M4514 3379 c-3 -5 2 -12 10 -15 12 -5 16 -20 16 -60 0 -30 -4 -54
-10 -54 -5 0 -10 -7 -10 -15 0 -11 12 -15 45 -15 33 0 45 4 45 15 0 8 -7 15
-15 15 -21 0 -20 68 1 91 26 29 44 13 44 -42 0 -27 -4 -49 -10 -49 -5 0 -10
-7 -10 -15 0 -11 12 -15 45 -15 47 0 56 9 30 30 -14 12 -17 45 -8 83 3 10 14
17 29 17 22 0 24 -4 24 -50 0 -27 -4 -50 -10 -50 -5 0 -10 -7 -10 -15 0 -11
12 -15 45 -15 33 0 45 4 45 15 0 8 -4 15 -10 15 -5 0 -10 20 -10 44 0 25 -4
56 -9 70 -10 24 -11 24 -136 24 -69 0 -128 -4 -131 -9z"/>
<path d="M4854 3382 c-32 -21 -44 -94 -23 -133 14 -27 54 -41 95 -33 49 9 45
34 -6 34 -29 0 -42 5 -50 20 -10 19 -8 20 46 20 l57 0 -6 36 c-3 20 -11 42
-18 50 -12 15 -76 19 -95 6z m64 -34 c20 -20 14 -28 -23 -28 -19 0 -35 4 -35
8 0 12 22 32 35 32 6 0 16 -5 23 -12z"/>
<path d="M4984 3379 c-3 -5 2 -12 10 -15 12 -5 16 -20 16 -60 0 -30 -4 -54
-10 -54 -5 0 -10 -7 -10 -15 0 -11 12 -15 45 -15 33 0 45 4 45 15 0 8 -7 15
-15 15 -22 0 -21 86 1 94 37 14 44 7 44 -44 0 -27 -4 -50 -10 -50 -5 0 -10 -7
-10 -15 0 -11 12 -15 45 -15 33 0 45 4 45 15 0 8 -4 15 -10 15 -6 0 -10 26
-10 59 0 35 -5 63 -12 69 -16 13 -156 14 -164 1z"/>
<path d="M5421 3364 c-40 -51 -21 -134 34 -148 34 -9 91 19 99 47 21 78 -8
127 -73 127 -31 0 -44 -6 -60 -26z m91 -29 c17 -38 0 -80 -32 -80 -18 0 -27 8
-34 27 -13 36 6 78 34 78 12 0 25 -10 32 -25z"/>
<path d="M5580 3375 c0 -8 5 -15 10 -15 6 0 10 -25 10 -55 0 -30 -4 -55 -10
-55 -5 0 -10 -7 -10 -15 0 -11 12 -15 50 -15 38 0 50 4 50 15 0 8 -9 15 -20
15 -17 0 -20 7 -20 39 0 43 25 75 40 51 13 -21 40 -4 37 22 -4 21 -10 23 -70
25 -54 2 -67 0 -67 -12z"/>
<path d="M5800 3374 c0 -8 5 -14 10 -14 6 0 10 -25 10 -55 0 -30 -4 -55 -10
-55 -5 0 -10 -7 -10 -15 0 -11 12 -15 45 -15 33 0 45 4 45 15 0 8 -7 15 -15
15 -11 0 -15 11 -15 38 0 41 14 62 42 62 15 0 18 -8 18 -49 0 -28 -4 -53 -10
-56 -23 -14 -7 -25 35 -25 33 0 45 4 45 15 0 8 -4 15 -10 15 -6 0 -10 26 -10
59 0 35 -5 63 -12 69 -7 6 -46 10 -85 10 -56 0 -73 -3 -73 -14z"/>
<path d="M6007 3383 c-12 -11 -8 -23 8 -23 12 0 15 -14 15 -63 0 -59 2 -65 26
-76 14 -6 30 -8 36 -5 6 4 32 6 59 5 37 0 49 3 49 14 0 8 -4 15 -10 15 -6 0
-10 30 -10 70 l0 70 -35 0 c-24 0 -35 -5 -35 -15 0 -8 5 -15 10 -15 16 0 12
-86 -5 -100 -30 -25 -45 -4 -45 65 0 65 0 65 -28 65 -16 0 -32 -3 -35 -7z"/>
<path d="M6306 3377 c-23 -17 -33 -96 -17 -126 16 -29 57 -44 99 -36 24 4 32
11 30 23 -2 13 -12 16 -38 14 -26 -2 -38 2 -48 18 -12 19 -10 20 43 20 53 0
55 1 55 28 0 45 -25 72 -69 72 -20 0 -45 -6 -55 -13z m73 -30 c14 -18 4 -27
-31 -27 -26 0 -28 2 -18 20 12 23 33 26 49 7z"/>
<path d="M6471 3376 c-7 -8 -11 -27 -9 -43 2 -21 12 -32 41 -46 40 -19 46 -31
20 -41 -11 -4 -22 -1 -29 8 -17 24 -34 19 -34 -9 0 -20 6 -25 35 -31 48 -9 85
16 85 57 0 26 -5 33 -40 46 -42 17 -54 43 -20 43 11 0 20 -4 20 -10 0 -5 7
-10 15 -10 9 0 15 9 15 25 0 23 -4 25 -44 25 -26 0 -48 -6 -55 -14z"/>
<path d="M6751 3364 c-22 -28 -28 -83 -11 -114 13 -24 62 -40 96 -31 45 12 42
31 -5 31 -30 0 -43 5 -51 19 -9 18 -6 20 42 23 53 3 53 3 51 36 -2 45 -19 62
-63 62 -30 0 -43 -6 -59 -26z m79 -8 c0 -2 3 -11 6 -20 5 -13 -1 -16 -30 -16
-39 0 -39 0 -30 24 5 14 54 24 54 12z"/>
<path d="M7098 3379 c-19 -11 -25 -39 -8 -39 6 0 19 5 29 12 22 14 51 4 51
-17 0 -9 -9 -15 -24 -15 -49 0 -76 -17 -76 -50 0 -39 40 -68 73 -53 12 6 37 8
55 6 25 -4 32 -2 32 11 0 9 -4 16 -10 16 -5 0 -10 23 -10 51 0 70 -12 89 -58
89 -20 0 -45 -5 -54 -11z m70 -106 c-4 -22 -58 -31 -58 -10 0 20 10 27 37 27
18 0 24 -5 21 -17z"/>
<path d="M7310 3376 c0 -8 5 -16 12 -18 6 -2 21 -33 33 -69 18 -54 25 -64 44
-64 19 0 28 12 52 70 36 89 36 95 -1 95 -20 0 -30 -5 -30 -15 0 -8 4 -15 9
-15 6 0 3 -20 -6 -45 -8 -25 -16 -45 -18 -45 -2 0 -12 27 -21 60 -15 55 -19
60 -45 60 -18 0 -29 -5 -29 -14z"/>
<path d="M7527 3375 c-20 -20 -30 -68 -22 -106 9 -38 62 -65 103 -51 43 14 39
32 -7 32 -30 0 -43 5 -51 20 -10 19 -8 20 39 20 27 0 53 5 56 11 9 14 -2 55
-21 73 -20 20 -78 21 -97 1z m73 -19 c0 -2 3 -11 6 -20 5 -13 -1 -16 -30 -16
-39 0 -39 0 -30 24 5 14 54 24 54 12z"/>
<path d="M7891 3364 c-55 -70 3 -167 85 -145 44 11 42 31 -3 31 -36 0 -63 14
-63 32 0 4 23 8 50 8 60 0 71 15 47 66 -15 30 -21 34 -56 34 -31 0 -44 -6 -60
-26z m79 -8 c0 -2 3 -11 6 -20 5 -13 -1 -16 -30 -16 -39 0 -39 0 -30 24 5 14
54 24 54 12z"/>
<path d="M8040 3375 c0 -8 5 -15 10 -15 6 0 10 -25 10 -55 0 -30 -4 -55 -10
-55 -5 0 -10 -7 -10 -15 0 -11 12 -15 50 -15 38 0 50 4 50 15 0 8 -9 15 -20
15 -17 0 -20 7 -20 39 0 43 32 91 38 58 2 -9 9 -17 17 -17 14 0 24 28 18 48
-6 15 -45 16 -61 0 -9 -9 -12 -9 -12 0 0 7 -13 12 -30 12 -20 0 -30 -5 -30
-15z"/>
<path d="M8216 3371 c-43 -47 -24 -143 31 -154 43 -8 85 3 81 22 -2 12 -12 15
-40 13 -28 -3 -39 1 -47 17 -10 19 -8 20 41 23 53 3 53 3 51 36 0 18 -7 39
-13 47 -18 22 -83 19 -104 -4z m72 -23 c20 -20 14 -28 -23 -28 -38 0 -38 0
-29 24 7 19 35 21 52 4z"/>
<path d="M8373 3244 c-3 -8 -1 -20 6 -27 14 -14 47 15 37 32 -10 16 -36 13
-43 -5z"/>
<path d="M2996 3025 c-9 -9 -16 -30 -16 -46 0 -16 -4 -29 -10 -29 -5 0 -10 -7
-10 -15 0 -8 5 -15 10 -15 6 0 10 -25 10 -55 0 -30 -4 -55 -10 -55 -5 0 -10
-7 -10 -15 0 -11 12 -15 50 -15 38 0 50 4 50 15 0 8 -9 15 -20 15 -18 0 -20 7
-20 55 0 52 1 55 25 55 16 0 25 6 25 15 0 9 -9 15 -25 15 -17 0 -25 5 -25 18
0 26 13 41 35 39 12 -1 20 4 20 13 0 22 -58 25 -79 5z"/>
<path d="M3894 3028 c-4 -6 0 -16 9 -23 14 -10 17 -30 17 -104 0 -54 -4 -91
-10 -91 -5 0 -10 -7 -10 -15 0 -14 8 -15 115 -16 11 0 31 12 44 27 19 23 22
36 18 71 -7 62 -22 76 -74 70 l-43 -5 0 49 c0 48 -1 49 -29 49 -17 0 -33 -5
-37 -12z m137 -135 c16 -41 -1 -78 -37 -78 -27 0 -29 3 -32 44 -3 46 7 61 41
61 10 0 22 -11 28 -27z"/>
<path d="M5646 3025 c-3 -9 1 -18 9 -21 23 -9 21 -179 -2 -202 -16 -16 -13
-17 43 -23 32 -4 68 -4 80 -2 47 10 70 105 38 152 -14 20 -23 23 -60 18 l-44
-5 0 49 c0 47 -1 49 -29 49 -17 0 -31 -6 -35 -15z m120 -113 c19 -12 25 -48
14 -76 -8 -22 -15 -27 -38 -24 -23 3 -27 8 -30 41 -4 53 21 81 54 59z"/>
<path d="M5850 3020 c0 -11 5 -20 10 -20 6 0 10 -38 10 -95 0 -78 -3 -95 -15
-95 -8 0 -15 -7 -15 -15 0 -11 12 -15 50 -15 38 0 50 4 50 15 0 8 -7 15 -15
15 -12 0 -15 19 -15 115 l0 115 -30 0 c-23 0 -30 -4 -30 -20z"/>
<path d="M1600 3011 c0 -40 92 -45 106 -6 8 21 -3 32 -18 17 -15 -15 -58 -16
-58 -2 0 6 -7 10 -15 10 -8 0 -15 -9 -15 -19z"/>
<path d="M5990 3011 c-20 -38 -5 -56 22 -27 11 12 16 12 31 -2 25 -22 41 -3
21 26 -19 27 -60 29 -74 3z"/>
<path d="M538 3013 c-26 -4 -41 -33 -18 -33 6 0 10 -35 10 -85 0 -50 -4 -85
-10 -85 -5 0 -10 -7 -10 -15 0 -11 12 -15 50 -15 38 0 50 4 50 15 0 8 -7 15
-15 15 -10 0 -15 10 -15 30 0 25 4 30 24 30 13 0 35 9 50 21 34 27 36 82 4
103 -27 17 -81 26 -120 19z m90 -45 c18 -18 14 -46 -7 -58 -33 -17 -41 -11
-41 30 0 32 4 40 18 40 10 0 23 -5 30 -12z"/>
<path d="M3094 3006 c-8 -21 3 -36 27 -36 15 0 20 6 17 22 -4 27 -35 37 -44
14z"/>
<path d="M3743 3004 c-3 -8 -1 -20 5 -26 16 -16 42 -2 42 22 0 24 -38 28 -47
4z"/>
<path d="M4527 3013 c-4 -3 -7 -15 -7 -25 0 -14 6 -19 23 -16 29 4 38 48 9 48
-10 0 -22 -3 -25 -7z"/>
<path d="M4843 3004 c-3 -8 -1 -20 5 -26 16 -16 42 -2 42 22 0 24 -38 28 -47
4z"/>
<path d="M5494 3005 c-8 -20 4 -35 27 -35 14 0 19 7 19 25 0 18 -5 25 -20 25
-11 0 -23 -7 -26 -15z"/>
<path d="M6504 3005 c-8 -20 4 -35 27 -35 14 0 19 7 19 25 0 18 -5 25 -20 25
-11 0 -23 -7 -26 -15z"/>
<path d="M7434 3005 c-8 -20 4 -35 27 -35 14 0 19 7 19 25 0 18 -5 25 -20 25
-11 0 -23 -7 -26 -15z"/>
<path d="M1070 2975 c0 -16 -6 -25 -15 -25 -8 0 -15 -7 -15 -15 0 -8 7 -15 15
-15 12 0 15 -14 15 -65 0 -60 2 -66 24 -75 13 -5 33 -6 45 -3 30 8 27 33 -4
33 -24 0 -25 3 -25 55 0 48 2 55 20 55 11 0 20 7 20 15 0 8 -9 15 -20 15 -15
0 -20 7 -20 25 0 18 -5 25 -20 25 -15 0 -20 -7 -20 -25z"/>
<path d="M721 2924 c-36 -46 -22 -126 25 -144 37 -14 88 4 103 36 17 39 14 91
-9 114 -31 31 -93 27 -119 -6z m91 -29 c17 -38 0 -80 -32 -80 -18 0 -27 8 -34
27 -13 36 6 78 34 78 12 0 25 -10 32 -25z"/>
<path d="M902 2938 c-15 -15 -16 -38 -2 -38 6 0 19 5 29 12 22 14 51 4 51 -17
0 -10 -9 -15 -28 -15 -37 0 -72 -26 -72 -53 0 -32 14 -49 41 -49 114 2 119 3
119 17 0 8 -4 15 -10 15 -6 0 -10 26 -10 58 0 32 -5 63 -12 70 -7 7 -30 12
-53 12 -23 0 -46 -5 -53 -12z m74 -113 c-3 -8 -17 -15 -31 -15 -35 0 -30 32 5
40 27 7 35 -2 26 -25z"/>
<path d="M1201 2924 c-39 -49 -17 -136 36 -147 39 -7 83 3 83 19 0 10 -13 14
-40 14 -29 0 -42 5 -50 19 -9 18 -6 20 42 23 l53 3 -2 35 c-2 41 -24 60 -69
60 -23 0 -39 -8 -53 -26z m79 -8 c0 -2 3 -11 6 -20 5 -13 -1 -16 -30 -16 -38
0 -44 8 -24 28 11 11 48 17 48 8z"/>
<path d="M1454 2942 c-54 -36 -38 -153 23 -165 39 -7 83 3 83 19 0 10 -13 14
-40 14 -35 0 -42 4 -51 28 -14 36 0 76 29 80 13 2 25 -3 28 -12 3 -9 12 -16
20 -16 17 0 18 32 2 48 -13 13 -76 16 -94 4z"/>
<path d="M1602 2938 c-15 -15 -16 -38 -2 -38 6 0 19 5 29 12 22 14 51 4 51
-17 0 -10 -9 -15 -28 -15 -64 0 -97 -63 -48 -95 17 -11 30 -13 47 -7 13 5 39
7 57 5 25 -4 32 -2 32 11 0 9 -4 16 -10 16 -5 0 -10 23 -10 51 0 73 -12 89
-63 89 -24 0 -48 -5 -55 -12z m76 -105 c-4 -22 -58 -31 -58 -10 0 20 10 27 37
27 18 0 24 -5 21 -17z"/>
<path d="M1852 2938 c-15 -15 -16 -38 -2 -38 6 0 19 5 29 12 22 14 51 4 51
-17 0 -10 -10 -15 -33 -15 -37 0 -67 -25 -67 -56 0 -30 15 -46 41 -45 13 0 45
1 72 1 35 0 47 4 47 15 0 8 -4 15 -10 15 -6 0 -10 26 -10 58 0 32 -5 63 -12
70 -7 7 -30 12 -53 12 -23 0 -46 -5 -53 -12z m76 -105 c-4 -22 -58 -31 -58
-10 0 20 10 27 37 27 18 0 24 -5 21 -17z"/>
<path d="M2026 2934 c-31 -30 -16 -70 30 -83 33 -8 41 -43 12 -49 -11 -2 -18
3 -18 12 0 9 -8 16 -20 16 -31 0 -27 -46 4 -52 103 -20 145 67 51 107 -19 7
-35 19 -35 24 0 14 37 14 45 1 12 -20 35 -10 35 15 0 23 -4 25 -44 25 -27 0
-51 -6 -60 -16z"/>
<path d="M2182 2938 c-15 -15 -16 -38 -2 -38 6 0 19 5 29 12 22 14 51 4 51
-17 0 -10 -9 -15 -28 -15 -37 0 -72 -26 -72 -53 0 -33 14 -49 41 -48 13 0 45
1 72 1 35 0 47 4 47 15 0 8 -4 15 -10 15 -6 0 -10 26 -10 58 0 32 -5 63 -12
70 -7 7 -30 12 -53 12 -23 0 -46 -5 -53 -12z m74 -113 c-3 -8 -17 -15 -31 -15
-35 0 -30 32 5 40 27 7 35 -2 26 -25z"/>
<path d="M2432 2938 c-15 -15 -16 -38 -2 -38 6 0 19 5 29 12 22 14 51 4 51
-17 0 -10 -9 -15 -28 -15 -64 0 -97 -63 -48 -95 17 -11 30 -13 47 -7 13 5 39
7 57 5 25 -4 32 -2 32 11 0 9 -4 16 -10 16 -5 0 -10 23 -10 51 0 73 -12 89
-63 89 -24 0 -48 -5 -55 -12z m76 -102 c-4 -26 -58 -37 -58 -12 0 16 23 33 46
33 9 0 14 -8 12 -21z"/>
<path d="M2590 2934 c0 -8 5 -14 10 -14 6 0 10 -25 10 -55 0 -30 -4 -55 -10
-55 -5 0 -10 -7 -10 -15 0 -11 12 -15 45 -15 33 0 45 4 45 15 0 8 -7 15 -15
15 -20 0 -21 83 -1 99 27 23 46 2 46 -50 0 -27 -4 -49 -10 -49 -5 0 -10 -7
-10 -15 0 -11 11 -15 40 -15 29 0 40 4 40 15 0 8 -4 15 -10 15 -5 0 -10 18
-10 39 0 40 22 75 44 68 14 -5 21 -107 7 -107 -6 0 -11 -7 -11 -15 0 -11 12
-15 45 -15 33 0 45 4 45 15 0 8 -4 15 -10 15 -5 0 -10 20 -10 45 0 66 -17 95
-55 95 -17 0 -36 -5 -43 -12 -8 -8 -15 -8 -24 -1 -7 6 -43 11 -80 11 -52 0
-68 -3 -68 -14z"/>
<path d="M3080 2935 c0 -8 5 -15 10 -15 6 0 10 -25 10 -55 0 -42 -3 -55 -15
-55 -8 0 -15 -7 -15 -15 0 -11 12 -15 50 -15 38 0 50 4 50 15 0 8 -7 15 -15
15 -12 0 -15 14 -15 70 l0 70 -30 0 c-20 0 -30 -5 -30 -15z"/>
<path d="M3250 2934 c0 -8 5 -14 10 -14 6 0 10 -25 10 -55 0 -30 -4 -55 -10
-55 -5 0 -10 -7 -10 -15 0 -11 12 -15 45 -15 33 0 45 4 45 15 0 8 -7 15 -15
15 -19 0 -21 68 -2 94 23 32 47 10 47 -45 0 -27 -4 -49 -10 -49 -5 0 -10 -7
-10 -15 0 -11 12 -15 46 -15 l46 0 -16 25 c-31 47 -10 124 29 109 17 -7 22
-104 5 -104 -5 0 -10 -7 -10 -15 0 -11 12 -15 45 -15 33 0 45 4 45 15 0 8 -4
15 -10 15 -5 0 -10 20 -10 45 0 66 -17 95 -55 95 -17 0 -36 -5 -43 -12 -8 -8
-15 -8 -24 -1 -7 6 -43 11 -80 11 -52 0 -68 -3 -68 -14z"/>
<path d="M3572 2938 c-15 -15 -16 -38 -2 -38 6 0 19 5 29 12 22 14 51 4 51
-17 0 -10 -9 -15 -28 -15 -37 0 -72 -26 -72 -53 0 -32 13 -47 41 -47 13 0 45
0 72 0 35 0 47 4 47 15 0 8 -4 15 -10 15 -5 0 -10 23 -10 51 0 73 -12 89 -63
89 -24 0 -48 -5 -55 -12z m76 -100 c-2 -17 -11 -24 -30 -26 -35 -4 -39 24 -5
38 34 14 39 12 35 -12z"/>
<path d="M3730 2935 c0 -8 5 -15 10 -15 6 0 10 -25 10 -55 0 -30 -4 -55 -9
-55 -5 0 -11 -7 -15 -15 -4 -12 4 -15 44 -15 38 0 50 4 50 15 0 8 -7 15 -15
15 -12 0 -15 14 -15 70 l0 70 -30 0 c-20 0 -30 -5 -30 -15z"/>
<path d="M4090 2940 c0 -6 7 -13 15 -16 11 -5 15 -22 15 -65 0 -68 21 -93 68
-79 15 4 42 5 61 2 32 -4 34 -3 28 19 -4 13 -7 52 -7 87 l0 62 -35 0 c-24 0
-35 -5 -35 -15 0 -8 5 -15 11 -15 6 0 9 -21 7 -52 -3 -49 -5 -53 -30 -56 l-28
-3 0 70 0 71 -35 0 c-19 0 -35 -5 -35 -10z"/>
<path d="M4293 2934 c0 -8 6 -14 14 -14 9 0 13 -16 13 -55 0 -30 -4 -55 -10
-55 -5 0 -10 -7 -10 -15 0 -11 12 -15 45 -15 33 0 45 4 45 15 0 8 -7 15 -15
15 -26 0 -20 75 7 94 12 9 25 12 29 8 13 -13 14 -91 1 -104 -21 -21 -13 -28
33 -28 33 0 45 4 45 15 0 8 -4 15 -10 15 -5 0 -10 23 -10 51 0 82 -7 88 -98
88 -62 0 -79 -3 -79 -15z"/>
<path d="M4506 2935 c-3 -9 0 -15 9 -15 11 0 15 -13 15 -55 0 -42 -3 -55 -15
-55 -8 0 -15 -7 -15 -15 0 -11 12 -15 50 -15 38 0 50 4 50 15 0 8 -7 15 -15
15 -12 0 -15 14 -15 70 l0 70 -29 0 c-16 0 -31 -6 -35 -15z"/>
<path d="M4697 2932 c-34 -37 -19 -73 36 -86 15 -3 27 -13 27 -21 0 -8 -2 -15
-4 -15 -2 0 -11 -3 -20 -6 -11 -4 -16 -1 -16 10 0 9 -8 16 -20 16 -14 0 -20
-7 -20 -24 0 -18 7 -25 28 -29 99 -19 143 70 52 107 -43 17 -53 36 -20 36 11
0 20 -4 20 -10 0 -5 9 -10 20 -10 15 0 20 7 20 25 0 23 -4 25 -43 25 -30 0
-49 -6 -60 -18z"/>
<path d="M4826 2935 c-3 -9 0 -15 9 -15 11 0 15 -13 15 -55 0 -42 -3 -55 -15
-55 -8 0 -15 -7 -15 -15 0 -11 12 -15 50 -15 38 0 50 4 50 15 0 8 -7 15 -15
15 -12 0 -15 14 -15 70 l0 70 -29 0 c-16 0 -31 -6 -35 -15z"/>
<path d="M4996 2934 c-3 -8 1 -14 9 -14 11 0 15 -13 15 -55 0 -30 -4 -55 -10
-55 -5 0 -10 -7 -10 -15 0 -11 12 -15 45 -15 33 0 45 4 45 15 0 8 -7 15 -15
15 -20 0 -20 73 0 94 27 27 45 9 45 -45 0 -27 -4 -49 -10 -49 -5 0 -10 -7 -10
-15 0 -11 12 -15 45 -15 46 0 54 7 33 28 -15 15 -21 50 -13 80 4 15 13 22 30
22 23 0 25 -3 25 -50 0 -27 -4 -50 -10 -50 -5 0 -10 -7 -10 -15 0 -11 12 -15
45 -15 33 0 45 4 45 15 0 8 -4 15 -10 15 -5 0 -10 20 -10 44 0 25 -4 56 -9 70
-10 24 -11 24 -135 24 -98 0 -126 -3 -130 -14z"/>
<path d="M5328 2939 c-19 -11 -25 -39 -8 -39 6 0 19 5 29 12 22 14 51 4 51
-17 0 -10 -9 -15 -28 -15 -55 0 -89 -48 -63 -89 5 -8 24 -13 42 -13 19 0 51 1
72 1 27 0 37 5 37 16 0 8 -4 15 -10 15 -5 0 -10 23 -10 51 0 70 -12 89 -58 89
-20 0 -45 -5 -54 -11z m70 -106 c-4 -22 -58 -31 -58 -10 0 20 10 27 37 27 18
0 24 -5 21 -17z"/>
<path d="M5480 2935 c0 -8 5 -15 10 -15 6 0 10 -25 10 -55 0 -42 -3 -55 -15
-55 -8 0 -15 -7 -15 -15 0 -11 12 -15 50 -15 38 0 50 4 50 15 0 8 -7 15 -15
15 -12 0 -15 14 -15 70 l0 70 -30 0 c-20 0 -30 -5 -30 -15z"/>
<path d="M5972 2938 c-15 -15 -16 -38 -2 -38 6 0 19 5 29 12 22 14 51 4 51
-17 0 -10 -9 -15 -28 -15 -60 0 -94 -57 -55 -95 11 -12 25 -15 46 -11 16 3 45
6 63 6 24 0 34 5 34 15 0 8 -4 15 -10 15 -5 0 -10 23 -10 51 0 73 -12 89 -63
89 -24 0 -48 -5 -55 -12z m76 -105 c-4 -20 -35 -30 -50 -15 -15 15 0 32 28 32
19 0 25 -5 22 -17z"/>
<path d="M6130 2934 c0 -8 5 -14 10 -14 6 0 10 -25 10 -55 0 -30 -4 -55 -10
-55 -5 0 -10 -7 -10 -15 0 -11 12 -15 45 -15 33 0 45 4 45 15 0 8 -7 15 -15
15 -21 0 -20 68 1 91 26 29 44 13 44 -42 0 -27 -4 -49 -10 -49 -5 0 -10 -7
-10 -15 0 -11 12 -15 45 -15 33 0 45 4 45 15 0 8 -4 15 -10 15 -5 0 -10 23
-10 51 0 81 -8 88 -95 88 -58 0 -75 -4 -75 -15z"/>
<path d="M6340 2925 c0 -18 5 -25 19 -25 11 0 21 5 23 11 2 6 12 10 22 8 16
-3 12 -11 -23 -54 -66 -80 -62 -85 79 -85 100 0 120 3 120 15 0 8 -7 15 -15
15 -12 0 -15 14 -15 70 l0 70 -30 0 c-20 0 -30 -5 -30 -15 0 -8 5 -15 10 -15
6 0 10 -25 10 -55 0 -58 -12 -69 -36 -37 -13 16 -15 16 -28 0 -13 -18 -46 -25
-46 -10 0 4 16 27 35 51 19 24 35 52 35 62 0 17 -8 19 -65 19 -63 0 -65 -1
-65 -25z"/>
<path d="M6681 2924 c-36 -46 -22 -126 25 -144 33 -13 94 -2 94 16 0 10 -13
14 -40 14 -35 0 -42 4 -51 28 -14 36 0 76 29 80 13 2 25 -3 28 -12 8 -22 34
-20 34 2 0 28 -21 42 -61 42 -29 0 -43 -6 -58 -26z"/>
<path d="M6810 2940 c0 -6 7 -13 15 -16 11 -5 15 -22 15 -65 0 -68 21 -93 68
-80 15 4 44 6 65 3 38 -4 46 5 25 26 -7 7 -10 37 -9 77 l2 65 -35 0 c-25 0
-36 -4 -36 -15 0 -8 5 -15 11 -15 6 0 9 -21 7 -52 -3 -49 -5 -53 -30 -56 l-28
-3 0 70 0 71 -35 0 c-19 0 -35 -5 -35 -10z"/>
<path d="M7112 2930 c-25 -24 -30 -79 -9 -119 15 -31 70 -47 105 -32 33 15 23
37 -16 33 -41 -4 -69 33 -55 75 11 33 34 40 57 18 9 -9 23 -15 31 -13 12 2 12
7 2 28 -17 34 -82 40 -115 10z"/>
<path d="M7271 2924 c-58 -73 8 -177 92 -145 39 15 33 31 -13 31 -29 0 -42 5
-50 20 -10 19 -8 20 39 20 55 0 66 9 57 45 -15 59 -88 76 -125 29z m79 -8 c0
-2 3 -11 6 -20 5 -13 -1 -16 -30 -16 -34 0 -36 2 -26 20 9 17 50 30 50 16z"/>
<path d="M7420 2935 c0 -8 5 -15 10 -15 17 0 12 -107 -5 -114 -32 -12 -13 -26
35 -26 38 0 50 4 50 15 0 8 -7 15 -15 15 -12 0 -15 14 -15 70 l0 70 -30 0
c-20 0 -30 -5 -30 -15z"/>
<path d="M7590 2934 c0 -8 5 -14 10 -14 6 0 10 -38 10 -95 0 -57 -4 -95 -10
-95 -5 0 -10 -7 -10 -15 0 -11 12 -15 50 -15 38 0 50 4 50 15 0 8 -9 15 -20
15 -14 0 -20 7 -20 24 0 21 4 24 35 23 23 -1 42 6 56 20 26 25 34 90 17 123
-13 23 -19 25 -91 27 -60 1 -77 -2 -77 -13z m116 -22 c17 -11 24 -52 13 -79
-7 -19 -15 -24 -37 -21 -23 3 -27 8 -30 41 -4 53 22 81 54 59z"/>
<path d="M7810 2923 c-17 -22 -21 -37 -17 -70 7 -62 21 -74 80 -71 62 4 79 28
20 28 -36 0 -63 13 -63 31 0 5 24 9 53 11 52 3 52 3 50 36 -2 45 -19 62 -63
62 -30 0 -43 -6 -60 -27z m78 -15 c20 -20 14 -28 -23 -28 -19 0 -35 4 -35 8 0
12 22 32 35 32 6 0 16 -5 23 -12z"/>
<path d="M8051 2924 c-58 -74 9 -176 94 -144 37 14 26 34 -20 34 -33 1 -40 5
-48 29 -12 37 5 77 33 77 11 0 23 -7 26 -15 8 -21 34 -19 34 3 0 28 -21 42
-61 42 -29 0 -43 -6 -58 -26z"/>
<path d="M8212 2938 c-15 -15 -16 -38 -2 -38 6 0 19 5 29 12 22 14 51 4 51
-17 0 -10 -9 -15 -28 -15 -54 0 -89 -48 -64 -88 15 -23 152 -21 152 3 0 8 -4
15 -10 15 -6 0 -10 26 -10 58 0 32 -5 63 -12 70 -7 7 -30 12 -53 12 -23 0 -46
-5 -53 -12z m76 -105 c-4 -22 -58 -31 -58 -10 0 20 10 27 37 27 18 0 24 -5 21
-17z"/>
<path d="M8370 2934 c0 -8 5 -14 10 -14 6 0 10 -25 10 -55 0 -30 -4 -55 -10
-55 -5 0 -10 -7 -10 -15 0 -12 13 -15 55 -15 42 0 55 3 55 15 0 9 -9 15 -25
15 -22 0 -25 4 -25 33 0 36 27 81 36 60 11 -25 34 -14 34 16 l0 30 -65 0 c-50
0 -65 -4 -65 -15z"/>
<path d="M8544 2929 c-13 -15 -19 -36 -19 -71 0 -62 20 -80 84 -76 61 4 68 28
8 28 -32 0 -47 5 -51 16 -9 23 -5 25 51 27 48 2 48 2 46 35 0 18 -7 39 -13 47
-19 23 -83 19 -106 -6z m84 -31 c3 -15 -4 -18 -32 -18 -39 0 -39 0 -30 25 9
22 58 16 62 -7z"/>
<path d="M8760 2934 c0 -8 5 -14 10 -14 6 0 10 -25 10 -55 0 -30 -4 -55 -10
-55 -5 0 -10 -7 -10 -15 0 -11 12 -15 45 -15 33 0 45 4 45 15 0 8 -7 15 -15
15 -11 0 -15 12 -15 45 0 35 4 47 21 56 27 14 39 2 46 -48 4 -28 1 -42 -11
-52 -27 -22 -18 -31 29 -31 33 0 45 4 45 15 0 8 -4 15 -10 15 -5 0 -10 20 -10
44 0 25 -4 56 -9 70 -9 23 -14 25 -85 24 -58 0 -76 -3 -76 -14z"/>
<path d="M8966 2935 c-3 -9 0 -15 9 -15 12 0 15 -14 15 -59 0 -66 13 -85 58
-81 15 1 44 1 65 1 35 -1 49 14 30 32 -3 4 -5 36 -4 72 l2 65 -35 0 c-25 0
-36 -4 -36 -15 0 -8 5 -15 11 -15 6 0 9 -21 7 -52 -3 -49 -5 -53 -28 -53 -24
0 -25 3 -28 68 -3 66 -3 67 -31 67 -16 0 -31 -7 -35 -15z"/>
<path d="M2056 2752 c-6 -10 -2 -60 6 -67 9 -9 31 43 25 59 -7 17 -23 21 -31
8z"/>
<path d="M4727 2753 c-10 -17 -4 -63 8 -63 14 0 25 22 25 51 0 18 -24 27 -33
12z"/>
<path d="M1813 2584 c-4 -10 -2 -19 5 -22 15 -5 17 -192 2 -192 -5 0 -10 -7
-10 -15 0 -10 12 -14 45 -13 25 0 48 -2 51 -5 3 -3 19 -1 34 5 35 12 55 63 46
113 -9 45 -28 59 -76 52 l-39 -5 -3 47 c-3 39 -6 46 -26 49 -14 2 -25 -3 -29
-14z m113 -112 c19 -12 25 -48 14 -76 -8 -22 -15 -27 -38 -24 -23 3 -27 8 -30
41 -4 53 21 81 54 59z"/>
<path d="M2106 2591 c-3 -5 1 -16 9 -24 8 -9 15 -26 15 -39 0 -21 -4 -23 -39
-20 -32 3 -42 -1 -60 -23 -40 -51 -18 -146 34 -146 11 1 44 1 73 1 38 1 52 5
52 16 0 8 -4 14 -10 14 -5 0 -11 49 -12 113 l-3 112 -27 3 c-14 2 -29 -1 -32
-7z m8 -117 c17 -7 22 -69 7 -92 -14 -23 -55 -10 -65 20 -18 51 13 89 58 72z"/>
<path d="M8170 2580 c0 -11 5 -20 10 -20 6 0 10 -38 10 -94 0 -74 -3 -95 -15
-100 -32 -12 -13 -26 35 -26 38 0 50 4 50 15 0 8 -7 15 -15 15 -12 0 -15 19
-15 115 l0 115 -30 0 c-23 0 -30 -4 -30 -20z"/>
<path d="M1650 2577 c0 -23 23 -37 61 -37 29 0 39 5 44 21 8 25 -1 37 -17 21
-15 -15 -55 -16 -63 -2 -9 14 -25 12 -25 -3z"/>
<path d="M2950 2576 c0 -37 82 -49 104 -14 13 21 0 36 -16 20 -15 -15 -55 -16
-63 -2 -9 15 -25 12 -25 -4z"/>
<path d="M7130 2570 c0 -35 83 -41 104 -8 13 21 0 36 -16 20 -15 -15 -55 -16
-63 -2 -10 17 -25 11 -25 -10z"/>
<path d="M7572 2569 c-16 -25 -7 -37 16 -23 12 8 22 8 34 0 23 -14 32 -3 18
23 -14 27 -51 27 -68 0z"/>
<path d="M3223 2564 c-3 -8 -1 -20 5 -26 16 -16 42 -2 42 22 0 24 -38 28 -47
4z"/>
<path d="M5454 2565 c-4 -9 -2 -21 4 -27 15 -15 44 -1 40 19 -4 23 -36 29 -44
8z"/>
<path d="M5713 2564 c-3 -8 -1 -20 5 -26 16 -16 42 -2 42 22 0 24 -38 28 -47
4z"/>
<path d="M7404 2565 c-4 -9 -2 -21 4 -27 15 -15 44 -1 40 19 -4 23 -36 29 -44
8z"/>
<path d="M4480 2535 c0 -16 -6 -25 -15 -25 -8 0 -15 -7 -15 -15 0 -8 7 -15 15
-15 11 0 15 -16 17 -67 l3 -68 43 -3 c33 -2 42 0 42 12 0 10 -9 16 -25 16 -24
0 -25 3 -25 55 0 48 2 55 20 55 11 0 20 7 20 15 0 8 -9 15 -20 15 -15 0 -20 7
-20 25 0 18 -5 25 -20 25 -15 0 -20 -7 -20 -25z"/>
<path d="M6290 2535 c0 -16 -6 -25 -15 -25 -8 0 -15 -7 -15 -15 0 -8 7 -15 15
-15 12 0 15 -14 15 -65 0 -72 16 -91 65 -79 33 8 33 34 0 34 -24 0 -25 3 -25
55 0 48 2 55 20 55 11 0 20 7 20 15 0 8 -9 15 -20 15 -15 0 -20 7 -20 25 0 18
-5 25 -20 25 -15 0 -20 -7 -20 -25z"/>
<path d="M7890 2536 c0 -13 -7 -26 -15 -30 -19 -7 -20 -26 0 -26 11 0 15 -16
17 -67 l3 -68 43 -3 c33 -2 42 0 42 12 0 10 -9 16 -25 16 -24 0 -25 3 -25 55
0 48 2 55 20 55 11 0 20 7 20 15 0 8 -9 15 -20 15 -15 0 -20 7 -20 25 0 18 -5
25 -20 25 -14 0 -20 -7 -20 -24z"/>
<path d="M618 2499 c-19 -11 -25 -39 -8 -39 6 0 19 5 29 12 22 14 51 4 51 -17
0 -10 -9 -15 -28 -15 -64 0 -97 -63 -48 -95 17 -11 30 -13 47 -7 13 5 39 7 57
5 25 -4 32 -2 32 11 0 9 -4 16 -10 16 -6 0 -10 26 -10 58 0 32 -5 63 -12 70
-15 15 -76 15 -100 1z m70 -106 c-4 -22 -58 -31 -58 -10 0 20 10 27 37 27 18
0 24 -5 21 -17z"/>
<path d="M750 2496 c0 -8 5 -16 12 -18 6 -2 21 -33 33 -69 19 -55 25 -64 45
-64 20 0 28 11 51 70 35 90 35 95 -1 95 -20 0 -30 -5 -30 -15 0 -8 4 -15 9
-15 6 0 2 -21 -7 -47 l-16 -48 -19 63 c-17 58 -21 62 -48 62 -18 0 -29 -5 -29
-14z"/>
<path d="M974 2502 c-34 -22 -45 -102 -19 -138 17 -26 66 -37 101 -24 37 14
25 34 -21 34 -29 1 -41 6 -43 18 -3 14 6 17 45 20 47 3 48 3 46 36 0 18 -7 39
-13 47 -13 16 -77 20 -96 7z m66 -26 c0 -2 3 -11 6 -20 5 -12 -1 -16 -23 -16
-35 0 -44 7 -36 26 4 12 53 21 53 10z"/>
<path d="M1110 2494 c0 -8 5 -14 10 -14 6 0 10 -25 10 -55 0 -30 -4 -55 -10
-55 -5 0 -10 -7 -10 -15 0 -11 12 -15 45 -15 33 0 45 4 45 15 0 8 -7 15 -15
15 -23 0 -21 86 3 98 30 16 42 3 42 -49 0 -27 -4 -49 -10 -49 -5 0 -10 -7 -10
-15 0 -11 12 -15 45 -15 47 0 56 9 30 30 -33 28 -7 118 30 104 17 -7 22 -104
5 -104 -5 0 -10 -7 -10 -15 0 -11 12 -15 45 -15 33 0 45 4 45 15 0 8 -4 15 -9
15 -4 0 -11 27 -14 59 -3 33 -8 64 -12 70 -9 15 -68 14 -83 -1 -10 -10 -15
-10 -20 -1 -12 19 -152 16 -152 -3z"/>
<path d="M1480 2495 c0 -8 5 -15 10 -15 6 0 10 -25 10 -55 0 -30 -4 -55 -10
-55 -5 0 -10 -7 -10 -15 0 -11 12 -15 50 -15 38 0 50 4 50 15 0 8 -9 15 -20
15 -17 0 -20 7 -20 39 0 43 32 91 38 58 5 -26 29 -20 34 8 3 13 3 27 0 30 -9
9 -48 5 -59 -6 -8 -8 -13 -8 -17 0 -11 17 -56 14 -56 -4z"/>
<path d="M1652 2498 c-15 -15 -16 -38 -2 -38 6 0 19 5 29 12 22 14 51 4 51
-17 0 -10 -9 -15 -28 -15 -64 0 -97 -63 -48 -95 17 -11 30 -13 47 -7 13 5 39
7 57 5 25 -4 32 -2 32 11 0 9 -4 16 -10 16 -5 0 -10 23 -10 51 0 73 -12 89
-63 89 -24 0 -48 -5 -55 -12z m76 -105 c-4 -22 -58 -31 -58 -10 0 20 10 27 37
27 18 0 24 -5 21 -17z"/>
<path d="M2232 2498 c-15 -15 -16 -38 -2 -38 6 0 19 5 29 12 22 14 51 4 51
-17 0 -10 -9 -15 -28 -15 -64 0 -97 -63 -48 -95 17 -11 30 -13 47 -7 13 5 39
7 57 5 25 -4 32 -2 32 11 0 9 -4 16 -10 16 -6 0 -10 26 -10 58 0 32 -5 63 -12
70 -7 7 -30 12 -53 12 -23 0 -46 -5 -53 -12z m76 -105 c-4 -22 -58 -31 -58
-10 0 20 10 27 37 27 18 0 24 -5 21 -17z"/>
<path d="M2390 2494 c0 -8 5 -14 10 -14 6 0 10 -25 10 -55 0 -30 -4 -55 -10
-55 -5 0 -10 -7 -10 -15 0 -11 12 -15 50 -15 38 0 50 4 50 15 0 8 -9 15 -20
15 -17 0 -20 7 -20 39 0 39 28 80 37 54 9 -26 33 -13 33 16 0 29 0 29 -65 29
-50 0 -65 -3 -65 -14z"/>
<path d="M2574 2502 c-32 -21 -43 -82 -23 -126 15 -32 66 -50 103 -37 39 15
32 31 -14 31 -29 0 -42 5 -50 19 -9 18 -6 20 42 23 l53 3 -2 35 c-1 19 -9 40
-19 47 -19 14 -72 17 -90 5z m66 -26 c0 -2 3 -11 6 -20 5 -13 -1 -16 -30 -16
-39 0 -39 0 -30 24 5 14 54 24 54 12z"/>
<path d="M2802 2498 c-7 -7 -12 -25 -12 -41 0 -24 6 -31 40 -44 41 -17 52 -39
24 -50 -10 -4 -22 1 -29 10 -18 25 -35 21 -35 -8 0 -26 14 -31 70 -26 35 3 50
19 50 53 0 25 -6 32 -40 45 -42 17 -54 43 -20 43 11 0 20 -4 20 -10 0 -5 7
-10 15 -10 9 0 15 9 15 25 0 23 -4 25 -43 25 -24 0 -48 -5 -55 -12z"/>
<path d="M2952 2498 c-15 -15 -16 -38 -2 -38 6 0 19 5 29 12 22 14 51 4 51
-17 0 -10 -9 -15 -28 -15 -64 0 -97 -63 -48 -95 17 -11 30 -13 47 -7 13 5 39
7 57 5 25 -4 32 -2 32 11 0 9 -4 16 -10 16 -5 0 -10 24 -10 54 0 36 -5 60 -16
70 -18 19 -85 21 -102 4z m76 -105 c-4 -22 -58 -31 -58 -10 0 20 10 27 37 27
18 0 24 -5 21 -17z"/>
<path d="M3210 2495 c0 -8 5 -15 10 -15 17 0 12 -107 -5 -114 -32 -12 -13 -26
35 -26 38 0 50 4 50 15 0 8 -7 15 -15 15 -12 0 -15 14 -15 70 l0 70 -30 0
c-20 0 -30 -5 -30 -15z"/>
<path d="M3401 2484 c-35 -45 -21 -129 24 -140 34 -8 88 0 93 14 2 8 -9 12
-37 12 -35 0 -43 4 -53 25 -16 35 0 79 30 83 13 2 25 -3 28 -12 8 -22 34 -20
34 2 0 28 -21 42 -61 42 -29 0 -43 -6 -58 -26z"/>
<path d="M3540 2495 c0 -8 5 -15 10 -15 6 0 10 -28 10 -63 0 -58 2 -65 25 -75
15 -7 34 -8 47 -3 13 5 37 6 55 4 l32 -5 -5 53 c-11 116 -12 119 -44 119 -20
0 -30 -5 -30 -15 0 -8 5 -15 11 -15 6 0 9 -21 7 -52 -3 -49 -5 -53 -28 -53
-24 0 -25 3 -28 68 -3 67 -3 67 -32 67 -20 0 -30 -5 -30 -15z"/>
<path d="M3740 2494 c0 -8 5 -14 10 -14 6 0 10 -25 10 -55 0 -30 -4 -55 -10
-55 -5 0 -10 -7 -10 -15 0 -11 12 -15 45 -15 33 0 45 4 45 15 0 8 -7 15 -15
15 -11 0 -15 12 -15 45 0 35 4 47 22 56 18 10 24 8 35 -7 18 -25 17 -90 -2
-98 -30 -11 -14 -26 30 -26 33 0 45 4 45 15 0 8 -4 15 -10 15 -5 0 -10 20 -10
44 0 25 -4 56 -9 70 -9 23 -14 25 -85 24 -58 0 -76 -3 -76 -14z"/>
<path d="M3973 2484 c-22 -22 -25 -32 -20 -72 6 -54 25 -72 78 -72 48 0 79 36
79 91 0 76 -82 108 -137 53z m89 -29 c17 -38 0 -80 -32 -80 -18 0 -27 8 -34
27 -13 36 6 78 34 78 12 0 25 -10 32 -25z"/>
<path d="M4152 2498 c-15 -15 -16 -38 -2 -38 6 0 19 5 29 12 22 14 51 4 51
-17 0 -10 -9 -15 -28 -15 -64 0 -97 -63 -48 -95 17 -11 30 -13 47 -7 13 5 39
7 57 5 25 -4 32 -2 32 11 0 9 -4 16 -10 16 -5 0 -10 24 -10 54 0 36 -5 60 -16
70 -18 19 -85 21 -102 4z m76 -105 c-4 -22 -58 -31 -58 -10 0 20 10 27 37 27
18 0 24 -5 21 -17z"/>
<path d="M4326 2491 c-26 -28 -16 -53 28 -76 21 -11 38 -23 37 -27 0 -5 -1
-12 -1 -18 0 -16 -40 -12 -46 5 -10 25 -34 17 -34 -10 0 -23 3 -25 48 -25 52
0 65 6 75 33 10 27 -2 46 -44 68 -45 22 -50 39 -14 39 14 0 25 -4 25 -10 0 -5
7 -10 16 -10 10 0 14 7 12 23 -4 31 -76 37 -102 8z"/>
<path d="M4617 2492 c-39 -43 -28 -136 18 -148 34 -8 88 -1 93 14 2 8 -10 12
-41 12 -36 0 -46 4 -50 20 -4 17 1 19 47 22 51 3 51 3 49 36 0 18 -7 39 -13
47 -18 21 -83 19 -103 -3z m73 -16 c0 -2 3 -11 6 -20 5 -13 -1 -16 -30 -16
-39 0 -39 0 -30 24 5 14 54 24 54 12z"/>
<path d="M4760 2494 c0 -8 5 -14 10 -14 6 0 10 -25 10 -55 0 -30 -4 -55 -10
-55 -5 0 -10 -7 -10 -15 0 -11 12 -15 45 -15 33 0 45 4 45 15 0 8 -7 15 -15
15 -22 0 -20 79 2 95 29 22 43 7 43 -46 0 -27 -4 -49 -10 -49 -5 0 -10 -7 -10
-15 0 -11 12 -15 45 -15 47 0 56 9 29 31 -12 10 -15 24 -11 53 6 41 21 58 44
49 15 -6 19 -103 3 -103 -5 0 -10 -7 -10 -15 0 -11 12 -15 45 -15 33 0 45 4
45 15 0 8 -4 15 -9 15 -4 0 -11 27 -14 59 -3 33 -8 64 -12 70 -9 15 -82 14
-88 -1 -3 -10 -7 -10 -18 -2 -22 18 -149 16 -149 -2z"/>
<path d="M5230 2494 c0 -8 5 -14 10 -14 6 0 10 -25 10 -55 0 -30 -4 -55 -10
-55 -5 0 -10 -7 -10 -15 0 -11 12 -15 45 -15 33 0 45 4 45 15 0 8 -7 15 -15
15 -24 0 -21 86 4 100 15 7 23 6 35 -6 21 -20 21 -90 1 -98 -30 -11 -14 -26
30 -26 33 0 45 4 45 15 0 8 -4 15 -10 15 -5 0 -10 23 -10 51 0 81 -8 88 -95
87 -58 0 -75 -3 -75 -14z"/>
<path d="M5440 2495 c0 -8 5 -15 10 -15 17 0 12 -107 -5 -114 -32 -12 -13 -26
35 -26 38 0 50 4 50 15 0 8 -7 15 -15 15 -12 0 -15 14 -15 70 l0 70 -30 0
c-20 0 -30 -5 -30 -15z"/>
<path d="M5561 2484 c-55 -70 1 -168 83 -146 47 13 44 32 -3 32 -36 0 -43 4
-52 28 -13 34 0 75 25 80 11 2 23 -3 28 -12 12 -22 38 -20 38 2 0 28 -21 42
-61 42 -29 0 -43 -6 -58 -26z"/>
<path d="M5700 2495 c0 -8 5 -15 10 -15 17 0 12 -107 -5 -114 -32 -12 -13 -26
35 -26 38 0 50 4 50 15 0 8 -7 15 -15 15 -12 0 -15 14 -15 70 l0 70 -30 0
c-20 0 -30 -5 -30 -15z"/>
<path d="M5870 2494 c0 -8 5 -14 10 -14 6 0 10 -38 10 -95 0 -57 -4 -95 -10
-95 -5 0 -10 -7 -10 -15 0 -11 12 -15 50 -15 38 0 50 4 50 15 0 8 -9 15 -20
15 -15 0 -20 7 -20 26 0 23 3 25 24 20 33 -8 71 10 85 41 16 34 14 85 -4 110
-14 20 -24 22 -90 21 -57 0 -75 -4 -75 -14z m116 -22 c18 -12 25 -48 15 -76
-8 -20 -17 -26 -41 -26 -29 0 -30 2 -30 43 0 56 24 81 56 59z"/>
<path d="M6067 2503 c-12 -11 -8 -23 8 -23 12 0 15 -13 15 -59 0 -66 13 -84
57 -82 16 0 47 1 71 0 41 0 51 8 33 27 -6 5 -11 38 -13 74 l-3 65 -32 3 c-25
2 -33 -1 -33 -12 0 -9 5 -16 11 -16 6 0 9 -21 7 -52 -3 -49 -5 -53 -28 -53
-24 0 -25 3 -28 68 -3 66 -3 67 -31 67 -15 0 -31 -3 -34 -7z"/>
<path d="M6421 2484 c-42 -53 -18 -141 39 -145 53 -4 80 1 80 16 0 11 -11 15
-40 15 -29 0 -42 5 -50 19 -9 18 -6 20 42 23 53 3 53 3 51 36 -2 45 -19 62
-63 62 -30 0 -43 -6 -59 -26z m77 -16 c20 -20 14 -28 -23 -28 -33 0 -35 2 -25
20 12 23 30 26 48 8z"/>
<path d="M6570 2494 c0 -8 5 -14 10 -14 6 0 10 -25 10 -55 0 -30 -4 -55 -10
-55 -5 0 -10 -7 -10 -15 0 -12 13 -15 55 -15 44 0 53 3 49 15 -4 8 -15 15 -25
15 -15 0 -19 7 -19 34 0 19 3 41 6 50 7 17 34 22 34 6 0 -12 27 -13 34 -2 3 5
3 18 0 29 -5 18 -14 21 -70 21 -49 0 -64 -3 -64 -14z"/>
<path d="M6754 2502 c-32 -21 -44 -94 -23 -133 14 -27 54 -41 96 -33 24 5 33
11 31 23 -2 12 -12 15 -40 13 -28 -3 -39 1 -47 17 -10 19 -8 20 41 23 53 3 53
3 51 36 0 18 -7 39 -13 47 -13 16 -77 20 -96 7z m64 -34 c20 -20 14 -28 -23
-28 -33 0 -35 2 -25 20 12 23 30 26 48 8z"/>
<path d="M6988 2499 c-21 -12 -24 -62 -5 -76 6 -6 24 -13 40 -17 30 -7 36 -33
11 -43 -10 -4 -22 1 -29 10 -18 25 -35 21 -35 -7 0 -29 41 -43 84 -27 53 21
47 82 -9 101 -38 12 -48 40 -15 40 11 0 20 -4 20 -10 0 -5 7 -10 15 -10 9 0
15 9 15 25 0 22 -4 25 -37 25 -21 0 -46 -5 -55 -11z"/>
<path d="M7132 2498 c-15 -15 -16 -38 -2 -38 6 0 19 5 29 12 22 14 51 4 51
-17 0 -10 -9 -15 -28 -15 -15 0 -38 -7 -50 -16 -39 -27 -22 -86 25 -84 10 0
39 0 66 0 35 0 47 4 47 15 0 8 -4 15 -10 15 -5 0 -10 23 -10 51 0 73 -12 89
-63 89 -24 0 -48 -5 -55 -12z m76 -100 c-4 -31 -58 -40 -58 -9 0 18 8 22 53
30 5 0 7 -9 5 -21z"/>
<path d="M7390 2495 c0 -8 5 -15 10 -15 17 0 12 -107 -5 -114 -32 -12 -13 -26
35 -26 38 0 50 4 50 15 0 8 -7 15 -15 15 -12 0 -15 14 -15 70 l0 70 -30 0
c-20 0 -30 -5 -30 -15z"/>
<path d="M7560 2495 c0 -8 5 -15 10 -15 17 0 12 -107 -5 -114 -32 -12 -13 -26
35 -26 38 0 50 4 50 15 0 8 -7 15 -15 15 -12 0 -15 14 -15 70 l0 70 -30 0
c-20 0 -30 -5 -30 -15z"/>
<path d="M7660 2495 c0 -8 5 -15 10 -15 6 0 10 -25 10 -55 0 -30 -4 -55 -10
-55 -5 0 -10 -7 -10 -15 0 -11 12 -15 45 -15 46 0 58 12 29 28 -22 12 -15 91
9 106 15 9 21 7 33 -8 19 -26 19 -92 -1 -100 -30 -11 -14 -26 30 -26 33 0 45
4 45 15 0 8 -4 15 -9 15 -5 0 -11 27 -13 61 -3 38 -10 64 -19 70 -20 13 -63
11 -77 -3 -9 -9 -12 -9 -12 0 0 7 -13 12 -30 12 -20 0 -30 -5 -30 -15z"/>
<path d="M8026 2491 c-22 -24 -30 -79 -17 -113 11 -31 60 -49 100 -38 42 11
37 30 -8 30 -30 0 -43 5 -51 20 -9 16 -8 20 7 21 10 0 34 1 53 2 33 2 35 4 33
35 0 18 -7 39 -13 47 -18 22 -83 19 -104 -4z m74 -15 c0 -2 3 -11 6 -20 5 -13
-1 -16 -30 -16 -39 0 -39 0 -30 24 5 14 54 24 54 12z"/>
<path d="M8296 2497 c-26 -19 -33 -99 -12 -131 19 -30 74 -43 106 -26 30 16
20 36 -17 32 -19 -2 -37 3 -49 15 -17 17 -16 18 40 21 l58 3 -5 35 c-3 20 -11
42 -18 50 -14 18 -79 18 -103 1z m72 -29 c19 -19 14 -28 -18 -28 -18 0 -30 5
-30 13 0 28 27 36 48 15z"/>
<path d="M8459 2489 c-24 -24 -27 -110 -3 -133 22 -22 59 -30 83 -16 16 8 21
8 21 -2 0 -28 -20 -43 -57 -43 -28 0 -39 -5 -41 -17 -3 -15 4 -18 45 -18 79 0
87 12 91 124 2 53 8 96 13 96 5 0 9 6 9 14 0 10 -18 14 -71 14 -57 1 -74 -3
-90 -19z m99 -51 c7 -62 -48 -95 -69 -41 -15 39 6 75 40 71 20 -2 27 -10 29
-30z"/>
<path d="M8651 2484 c-39 -50 -22 -128 31 -142 37 -10 80 -2 86 16 2 8 -10 12
-37 12 -30 0 -43 5 -51 19 -9 18 -6 20 42 23 53 3 53 3 51 36 -2 45 -19 62
-63 62 -30 0 -43 -6 -59 -26z m87 -26 c3 -15 -4 -18 -32 -18 -39 0 -39 0 -30
25 9 22 58 16 62 -7z"/>
<path d="M8800 2494 c0 -8 5 -14 10 -14 6 0 10 -25 10 -55 0 -30 -4 -55 -10
-55 -5 0 -10 -7 -10 -15 0 -11 12 -15 45 -15 44 0 60 15 30 26 -19 8 -20 87
-1 103 27 23 46 2 46 -50 0 -27 -4 -49 -10 -49 -5 0 -10 -7 -10 -15 0 -11 11
-15 40 -15 29 0 40 4 40 15 0 8 -4 15 -10 15 -16 0 -12 77 5 94 27 27 45 9 45
-45 0 -27 -4 -49 -10 -49 -5 0 -10 -7 -10 -15 0 -11 12 -15 45 -15 33 0 45 4
45 15 0 8 -4 15 -9 15 -5 0 -11 27 -13 61 -3 38 -10 64 -19 70 -20 13 -73 11
-87 -3 -9 -9 -12 -9 -12 -1 0 8 -26 12 -75 11 -58 0 -75 -3 -75 -14z"/>
<path d="M3110 2429 c0 -17 5 -20 37 -17 27 2 39 8 41 21 3 14 -4 17 -37 17
-35 0 -41 -3 -41 -21z"/>
<path d="M7290 2430 c0 -18 5 -21 38 -18 25 2 37 8 37 18 0 10 -12 16 -37 18
-33 3 -38 0 -38 -18z"/>
<path d="M5079 2378 c-6 -11 -4 -88 2 -88 14 0 39 44 39 67 0 16 -6 23 -20 23
-11 0 -21 -1 -21 -2z"/>
<path d="M4358 2313 c-4 -25 -3 -63 3 -63 13 0 31 29 27 46 -3 18 -27 32 -30
17z"/>
<path d="M7907 2312 c-3 -4 -3 -20 0 -35 4 -22 8 -25 19 -16 19 15 18 59 0 59
-8 0 -17 -3 -19 -8z"/>
<path d="M2820 2140 c0 -11 5 -20 10 -20 6 0 10 -38 10 -95 0 -78 -3 -95 -15
-95 -8 0 -15 -7 -15 -15 0 -11 12 -15 50 -15 38 0 50 4 50 15 0 8 -7 15 -15
15 -12 0 -15 19 -15 115 l0 115 -30 0 c-23 0 -30 -4 -30 -20z"/>
<path d="M7570 2141 c0 -12 5 -21 10 -21 6 0 10 -38 10 -95 0 -57 -4 -95 -10
-95 -5 0 -10 -6 -10 -14 0 -20 104 -25 141 -7 42 20 52 106 17 148 -14 17 -74
17 -85 1 -5 -8 -10 9 -13 42 -5 51 -7 55 -32 58 -23 3 -28 -1 -28 -17z m131
-128 c16 -41 -1 -78 -37 -78 -27 0 -29 3 -32 44 -3 46 7 61 41 61 10 0 22 -11
28 -27z"/>
<path d="M2222 2130 c-20 -32 -15 -44 11 -28 16 11 26 12 39 4 23 -14 32 -3
18 23 -14 27 -51 27 -68 1z"/>
<path d="M4370 2136 c0 -37 82 -49 104 -14 13 21 0 36 -16 20 -15 -15 -55 -16
-63 -2 -9 15 -25 12 -25 -4z"/>
<path d="M5820 2136 c0 -37 82 -49 104 -14 13 21 0 36 -16 20 -15 -15 -55 -16
-63 -2 -9 15 -25 12 -25 -4z"/>
<path d="M6840 2131 c0 -30 72 -45 98 -19 17 17 15 38 -3 38 -8 0 -15 -4 -15
-10 0 -5 -11 -10 -24 -10 -14 0 -28 5 -31 10 -10 17 -25 11 -25 -9z"/>
<path d="M1413 2124 c-3 -8 -1 -20 5 -26 16 -16 42 -2 42 22 0 24 -38 28 -47
4z"/>
<path d="M1794 2125 c-4 -9 -2 -21 4 -27 15 -15 44 -1 40 19 -4 23 -36 29 -44
8z"/>
<path d="M2054 2125 c-4 -9 -2 -21 4 -27 15 -15 44 -1 40 19 -4 23 -36 29 -44
8z"/>
<path d="M3464 2125 c-8 -20 4 -35 27 -35 14 0 19 7 19 25 0 18 -5 25 -20 25
-11 0 -23 -7 -26 -15z"/>
<path d="M4643 2124 c-3 -8 -1 -20 5 -26 16 -16 42 -2 42 22 0 24 -38 28 -47
4z"/>
<path d="M6513 2124 c-3 -8 -1 -20 5 -26 16 -16 42 -2 42 22 0 24 -38 28 -47
4z"/>
<path d="M7114 2125 c-8 -20 4 -35 27 -35 14 0 19 7 19 25 0 18 -5 25 -20 25
-11 0 -23 -7 -26 -15z"/>
<path d="M7283 2124 c-3 -8 -1 -20 5 -26 16 -16 42 -2 42 22 0 24 -38 28 -47
4z"/>
<path d="M7784 2126 c-8 -21 3 -36 27 -36 15 0 20 6 17 22 -4 27 -35 37 -44
14z"/>
<path d="M2540 2095 c0 -16 -6 -25 -15 -25 -8 0 -15 -7 -15 -15 0 -8 7 -15 15
-15 12 0 15 -14 15 -65 0 -60 2 -66 24 -75 13 -5 33 -6 45 -3 30 8 27 33 -4
33 -24 0 -25 3 -25 55 0 48 2 55 20 55 11 0 20 7 20 15 0 8 -9 15 -20 15 -15
0 -20 7 -20 25 0 18 -5 25 -20 25 -15 0 -20 -7 -20 -25z"/>
<path d="M5690 2095 c0 -16 -6 -25 -15 -25 -8 0 -15 -7 -15 -15 0 -8 7 -15 15
-15 12 0 15 -14 15 -65 0 -58 2 -67 22 -74 11 -4 32 -6 45 -3 31 6 30 32 -2
32 -24 0 -25 3 -25 55 0 48 2 55 20 55 11 0 20 7 20 15 0 8 -9 15 -20 15 -15
0 -20 7 -20 25 0 18 -5 25 -20 25 -15 0 -20 -7 -20 -25z"/>
<path d="M1265 2050 c-26 -29 -13 -66 30 -80 34 -11 46 -32 24 -45 -5 -4 -18
0 -28 9 -25 23 -41 20 -41 -8 0 -45 95 -42 120 4 15 28 -2 56 -45 75 -38 15
-46 35 -15 35 11 0 20 -4 20 -10 0 -5 9 -10 20 -10 15 0 20 7 20 25 0 23 -4
25 -43 25 -31 0 -49 -6 -62 -20z"/>
<path d="M1400 2055 c0 -8 5 -15 10 -15 6 0 10 -25 10 -55 0 -42 -3 -55 -15
-55 -8 0 -15 -7 -15 -15 0 -11 12 -15 50 -15 38 0 50 4 50 15 0 8 -7 15 -15
15 -12 0 -15 14 -15 70 l0 70 -30 0 c-20 0 -30 -5 -30 -15z"/>
<path d="M1570 2054 c0 -8 5 -14 10 -14 6 0 10 -25 10 -55 0 -30 -4 -55 -10
-55 -5 0 -10 -7 -10 -15 0 -11 12 -15 45 -15 33 0 45 4 45 15 0 8 -7 15 -15
15 -21 0 -20 73 1 95 22 22 37 15 48 -22 6 -23 4 -40 -8 -64 -9 -17 -16 -34
-16 -36 0 -1 20 -3 45 -3 33 0 45 4 45 15 0 8 -4 15 -10 15 -5 0 -10 20 -10
44 0 25 -4 56 -9 70 -9 23 -14 25 -85 24 -58 0 -76 -3 -76 -14z"/>
<path d="M1780 2055 c0 -8 5 -15 10 -15 6 0 10 -25 10 -55 0 -42 -3 -55 -15
-55 -8 0 -15 -7 -15 -15 0 -11 12 -15 50 -15 38 0 50 4 50 15 0 8 -7 15 -15
15 -12 0 -15 14 -15 70 l0 70 -30 0 c-20 0 -30 -5 -30 -15z"/>
<path d="M1901 2044 c-57 -73 11 -175 96 -143 36 13 24 34 -18 31 -29 -3 -37
1 -49 23 -10 18 -11 33 -4 53 11 31 50 43 60 18 8 -22 34 -20 34 2 0 28 -21
42 -61 42 -29 0 -43 -6 -58 -26z"/>
<path d="M2040 2055 c0 -8 5 -15 10 -15 6 0 10 -25 10 -55 0 -42 -3 -55 -15
-55 -8 0 -15 -7 -15 -15 0 -11 12 -15 50 -15 38 0 50 4 50 15 0 8 -7 15 -15
15 -12 0 -15 14 -15 70 l0 70 -30 0 c-20 0 -30 -5 -30 -15z"/>
<path d="M2210 2055 c0 -8 5 -15 10 -15 17 0 12 -107 -5 -114 -32 -12 -13 -26
35 -26 38 0 50 4 50 15 0 8 -7 15 -15 15 -12 0 -15 14 -15 70 l0 70 -30 0
c-20 0 -30 -5 -30 -15z"/>
<path d="M2310 2054 c0 -8 5 -14 10 -14 6 0 10 -25 10 -55 0 -30 -4 -55 -10
-55 -5 0 -10 -7 -10 -15 0 -11 12 -15 45 -15 33 0 45 4 45 15 0 8 -7 15 -15
15 -25 0 -20 86 5 100 27 15 38 6 46 -35 4 -24 1 -43 -10 -60 -9 -13 -16 -27
-16 -30 0 -3 20 -5 45 -5 33 0 45 4 45 15 0 8 -4 15 -10 15 -5 0 -10 23 -10
51 0 81 -8 88 -95 87 -58 0 -75 -3 -75 -14z"/>
<path d="M2671 2044 c-36 -45 -22 -126 23 -144 32 -12 96 -1 96 16 0 9 -13 14
-38 14 -35 0 -62 14 -62 31 0 5 24 9 53 11 l52 3 -2 35 c-2 41 -24 60 -69 60
-23 0 -39 -8 -53 -26z m87 -26 c3 -15 -4 -18 -32 -18 -38 0 -44 8 -24 28 17
17 52 11 56 -10z"/>
<path d="M2941 2044 c-23 -29 -27 -68 -12 -107 12 -32 67 -52 105 -38 39 15
32 31 -14 31 -29 0 -42 5 -50 19 -9 18 -6 20 42 23 53 3 53 3 51 36 -2 45 -19
62 -63 62 -30 0 -43 -6 -59 -26z m87 -26 c3 -15 -4 -18 -32 -18 -38 0 -44 8
-24 28 17 17 52 11 56 -10z"/>
<path d="M3090 2054 c0 -8 5 -14 10 -14 6 0 10 -38 10 -94 0 -76 -3 -95 -16
-100 -29 -11 -3 -26 47 -26 37 0 49 4 49 15 0 8 -9 15 -20 15 -14 0 -20 7 -20
23 0 20 5 23 36 23 69 0 110 92 69 151 -14 20 -24 22 -90 21 -57 0 -75 -4 -75
-14z m116 -22 c19 -12 25 -48 14 -76 -8 -22 -15 -27 -38 -24 -24 3 -27 7 -30
47 -4 52 20 76 54 53z"/>
<path d="M3311 2044 c-58 -73 9 -176 93 -144 39 14 31 30 -14 30 -35 0 -42 4
-51 28 -14 36 0 76 29 80 13 2 25 -3 28 -12 8 -22 34 -20 34 2 0 28 -21 42
-61 42 -29 0 -43 -6 -58 -26z"/>
<path d="M3450 2055 c0 -8 5 -15 10 -15 17 0 12 -107 -5 -114 -32 -12 -13 -26
35 -26 38 0 50 4 50 15 0 8 -7 15 -15 15 -12 0 -15 14 -15 70 l0 70 -30 0
c-20 0 -30 -5 -30 -15z"/>
<path d="M3545 2060 c-3 -6 1 -13 9 -16 12 -5 16 -21 16 -64 0 -34 5 -62 13
-68 18 -15 147 -13 147 2 0 7 -3 16 -6 19 -4 3 -7 30 -7 59 0 29 -2 59 -4 66
-7 18 -63 16 -63 -3 0 -8 5 -15 11 -15 6 0 9 -21 7 -52 -3 -49 -5 -53 -28 -53
-24 0 -25 3 -28 68 -3 67 -3 67 -32 67 -16 0 -32 -5 -35 -10z"/>
<path d="M3750 2055 c0 -8 5 -15 10 -15 6 0 10 -25 10 -55 0 -30 -4 -55 -10
-55 -5 0 -10 -7 -10 -15 0 -11 12 -15 45 -15 33 0 45 4 45 15 0 8 -7 15 -15
15 -11 0 -15 12 -15 45 0 35 4 47 22 56 18 10 24 8 35 -7 18 -24 17 -79 -2
-94 -22 -18 -9 -30 36 -30 28 0 39 4 39 15 0 8 -4 15 -10 15 -5 0 -10 20 -10
44 0 72 -13 96 -54 96 -19 0 -38 -5 -42 -11 -4 -8 -9 -8 -17 0 -16 16 -57 14
-57 -4z"/>
<path d="M3981 2044 c-35 -45 -21 -129 24 -140 34 -8 88 0 93 14 2 8 -9 12
-35 12 -36 0 -63 13 -63 31 0 5 24 9 53 11 52 3 52 3 50 36 -2 45 -19 62 -63
62 -30 0 -43 -6 -59 -26z m87 -26 c3 -15 -4 -18 -32 -18 -38 0 -44 8 -24 28
17 17 52 11 56 -10z"/>
<path d="M4228 2059 c-11 -6 -18 -22 -18 -40 0 -26 6 -33 40 -46 41 -17 52
-39 24 -50 -10 -4 -22 1 -29 10 -18 24 -35 21 -35 -7 0 -18 7 -25 30 -30 35
-7 78 7 86 29 12 31 -5 63 -41 75 -38 12 -48 40 -15 40 11 0 20 -4 20 -10 0
-5 7 -10 15 -10 9 0 15 9 15 25 0 22 -4 25 -37 25 -21 0 -46 -5 -55 -11z"/>
<path d="M4372 2058 c-15 -15 -16 -38 -2 -38 6 0 19 5 29 12 22 13 51 5 51
-15 0 -9 -15 -17 -36 -20 -45 -7 -64 -23 -64 -52 0 -35 19 -44 93 -43 50 0 67
4 67 14 0 8 -4 14 -10 14 -5 0 -10 23 -10 51 0 73 -12 89 -63 89 -24 0 -48 -5
-55 -12z m76 -100 c-2 -17 -11 -24 -30 -26 -32 -4 -39 21 -10 37 29 17 44 13
40 -11z"/>
<path d="M4630 2055 c0 -8 5 -15 10 -15 17 0 12 -107 -5 -114 -32 -12 -13 -26
35 -26 38 0 50 4 50 15 0 8 -7 15 -15 15 -12 0 -15 14 -15 70 l0 70 -30 0
c-20 0 -30 -5 -30 -15z"/>
<path d="M4828 2059 c-10 -5 -18 -17 -18 -24 0 -17 26 -20 35 -5 3 6 17 10 31
10 17 0 24 -5 24 -20 0 -15 -7 -20 -28 -20 -56 0 -95 -58 -59 -88 19 -17 147
-13 147 4 0 8 -4 14 -10 14 -5 0 -10 23 -10 51 0 70 -12 89 -58 89 -20 0 -45
-5 -54 -11z m70 -101 c-4 -31 -58 -40 -58 -9 0 18 14 27 48 30 8 1 12 -8 10
-21z"/>
<path d="M5001 2044 c-47 -59 -10 -146 61 -146 20 0 41 3 47 7 23 13 9 25 -29
25 -34 0 -42 4 -52 25 -16 35 0 79 30 83 13 2 25 -3 28 -12 8 -22 34 -20 34 2
0 28 -21 42 -61 42 -29 0 -43 -6 -58 -26z"/>
<path d="M5167 2052 c-42 -46 -28 -133 23 -151 32 -11 82 -1 88 17 2 8 -10 12
-37 12 -35 0 -43 4 -53 25 -16 35 0 79 30 83 13 2 25 -3 28 -12 3 -9 12 -16
20 -16 17 0 18 32 2 48 -19 19 -82 15 -101 -6z"/>
<path d="M5321 2044 c-37 -47 -21 -125 28 -142 35 -12 91 -3 91 14 0 10 -12
14 -38 14 -35 0 -62 14 -62 31 0 5 24 9 53 11 52 3 52 3 50 36 -2 45 -19 62
-63 62 -30 0 -43 -6 -59 -26z m82 -18 c8 -19 -1 -26 -35 -26 -30 0 -35 9 -16
28 16 16 45 15 51 -2z"/>
<path d="M5465 2062 c-10 -10 -5 -22 10 -22 12 0 15 -17 15 -95 0 -57 -4 -95
-10 -95 -5 0 -10 -7 -10 -15 0 -11 12 -15 50 -15 38 0 50 4 50 15 0 8 -9 15
-20 15 -14 0 -20 7 -20 24 0 21 4 24 36 23 69 -2 111 91 69 150 -14 20 -24 22
-90 21 -41 0 -77 -3 -80 -6z m137 -53 c14 -42 -5 -79 -42 -79 -29 0 -30 2 -30
43 0 24 6 49 12 55 20 20 51 10 60 -19z"/>
<path d="M5828 2059 c-19 -11 -25 -39 -8 -39 6 0 19 5 29 12 22 14 51 4 51
-17 0 -10 -9 -15 -28 -15 -37 0 -72 -26 -72 -53 0 -33 14 -49 41 -48 13 0 45
1 72 1 35 0 47 4 47 15 0 8 -4 15 -10 15 -5 0 -10 23 -10 51 0 70 -12 89 -58
89 -20 0 -45 -5 -54 -11z m68 -114 c-3 -8 -17 -15 -31 -15 -35 0 -30 32 5 40
27 7 35 -2 26 -25z"/>
<path d="M5980 2054 c0 -8 5 -14 10 -14 6 0 10 -25 10 -55 0 -30 -4 -55 -10
-55 -5 0 -10 -7 -10 -15 0 -11 12 -15 45 -15 33 0 45 4 45 15 0 8 -7 15 -15
15 -20 0 -20 73 0 94 27 27 45 9 45 -45 0 -27 -4 -49 -10 -49 -5 0 -10 -7 -10
-15 0 -11 11 -15 39 -15 42 0 64 16 37 26 -21 8 -21 77 -1 98 27 27 45 9 45
-45 0 -27 -4 -49 -10 -49 -5 0 -10 -7 -10 -15 0 -11 12 -15 45 -15 33 0 45 4
45 15 0 8 -4 15 -10 15 -5 0 -10 20 -10 44 0 70 -14 96 -50 96 -17 0 -40 -5
-51 -10 -12 -7 -19 -7 -19 -1 0 6 -31 10 -75 10 -58 0 -75 -4 -75 -15z"/>
<path d="M6366 2054 c-33 -32 -18 -65 38 -88 37 -15 39 -18 23 -33 -15 -16
-18 -15 -35 0 -26 24 -42 21 -42 -8 0 -25 10 -30 55 -27 44 4 63 13 68 34 8
31 -8 56 -48 73 -38 15 -46 35 -15 35 11 0 20 -4 20 -10 0 -5 9 -10 20 -10 15
0 20 7 20 25 0 23 -4 25 -44 25 -27 0 -51 -6 -60 -16z"/>
<path d="M6500 2055 c0 -8 5 -15 10 -15 6 0 10 -25 10 -55 0 -42 -3 -55 -15
-55 -8 0 -15 -7 -15 -15 0 -11 12 -15 50 -15 38 0 50 4 50 15 0 8 -7 15 -15
15 -12 0 -15 14 -15 70 l0 70 -30 0 c-20 0 -30 -5 -30 -15z"/>
<path d="M6692 2058 c-7 -7 -12 -25 -12 -41 0 -24 6 -31 40 -44 41 -17 52 -39
24 -50 -10 -4 -22 1 -29 10 -18 24 -35 21 -35 -7 0 -27 34 -39 78 -27 57 16
56 82 -3 101 -38 12 -48 40 -15 40 11 0 20 -4 20 -10 0 -5 7 -10 15 -10 9 0
15 9 15 25 0 23 -4 25 -43 25 -24 0 -48 -5 -55 -12z"/>
<path d="M6848 2059 c-19 -11 -25 -39 -8 -39 6 0 19 5 29 12 22 14 51 4 51
-17 0 -10 -9 -15 -28 -15 -37 0 -72 -26 -72 -53 0 -32 13 -47 41 -47 13 0 45
0 72 0 35 0 47 4 47 15 0 8 -4 15 -10 15 -5 0 -10 23 -10 51 0 70 -12 89 -58
89 -20 0 -45 -5 -54 -11z m69 -113 c-8 -21 -57 -21 -57 -1 0 18 41 37 54 25 5
-5 6 -16 3 -24z"/>
<path d="M7100 2055 c0 -8 5 -15 10 -15 17 0 12 -107 -5 -114 -32 -12 -13 -26
35 -26 38 0 50 4 50 15 0 8 -7 15 -15 15 -12 0 -15 14 -15 70 l0 70 -30 0
c-20 0 -30 -5 -30 -15z"/>
<path d="M7270 2055 c0 -8 5 -15 10 -15 6 0 10 -25 10 -55 0 -42 -3 -55 -15
-55 -8 0 -15 -7 -15 -15 0 -11 12 -15 50 -15 38 0 50 4 50 15 0 8 -7 15 -15
15 -12 0 -15 14 -15 70 l0 70 -30 0 c-20 0 -30 -5 -30 -15z"/>
<path d="M7366 2055 c-3 -9 0 -15 9 -15 12 0 15 -14 15 -59 0 -61 12 -83 47
-81 10 0 42 0 71 0 52 0 62 6 41 27 -6 6 -12 40 -13 75 l-1 63 -32 3 c-25 2
-33 -1 -33 -12 0 -9 5 -16 11 -16 6 0 9 -21 7 -52 -3 -49 -5 -53 -28 -53 -24
0 -25 3 -28 68 -3 66 -3 67 -31 67 -16 0 -31 -7 -35 -15z"/>
<path d="M7770 2055 c0 -8 5 -15 10 -15 17 0 12 -107 -5 -114 -32 -12 -13 -26
35 -26 38 0 50 4 50 15 0 8 -7 15 -15 15 -12 0 -15 14 -15 70 l0 70 -30 0
c-20 0 -30 -5 -30 -15z"/>
<path d="M7870 2054 c0 -8 5 -14 10 -14 6 0 10 -25 10 -55 0 -30 -4 -55 -10
-55 -5 0 -10 -7 -10 -15 0 -11 12 -15 45 -15 33 0 45 4 45 15 0 8 -7 15 -15
15 -23 0 -21 86 3 98 30 16 42 3 42 -49 0 -27 -4 -49 -10 -49 -5 0 -10 -7 -10
-15 0 -11 11 -15 40 -15 29 0 40 4 40 15 0 8 -4 15 -10 15 -5 0 -10 18 -10 39
0 40 22 75 44 68 14 -5 21 -107 7 -107 -6 0 -11 -7 -11 -15 0 -11 12 -15 45
-15 33 0 45 4 45 15 0 8 -4 15 -10 15 -5 0 -10 20 -10 45 0 66 -17 95 -55 95
-17 0 -36 -5 -43 -12 -8 -8 -15 -8 -24 -1 -7 6 -43 11 -80 11 -52 0 -68 -3
-68 -14z"/>
<path d="M4530 1989 c0 -17 5 -20 37 -17 27 2 39 8 41 21 3 14 -4 17 -37 17
-35 0 -41 -3 -41 -21z"/>
<path d="M7000 1989 c0 -17 5 -20 37 -17 27 2 39 8 41 21 3 14 -4 17 -37 17
-35 0 -41 -3 -41 -21z"/>
<path d="M8182 1918 c2 -15 10 -23 23 -23 30 0 27 39 -3 43 -20 3 -23 0 -20
-20z"/>
<path d="M8272 1918 c2 -15 10 -23 23 -23 30 0 27 39 -3 43 -20 3 -23 0 -20
-20z"/>
<path d="M8357 1926 c-7 -19 18 -40 39 -32 8 3 14 14 12 23 -4 22 -43 29 -51
9z"/>
<path d="M1297 1873 c-5 -10 -2 -62 5 -68 9 -9 31 43 25 59 -7 17 -23 21 -30
9z"/>
<path d="M2556 1872 c-2 -4 -1 -23 3 -42 7 -34 8 -34 19 -13 16 30 15 63 -2
63 -8 0 -17 -3 -20 -8z"/>
<path d="M6398 1873 c-4 -25 -3 -63 3 -63 13 0 31 29 27 46 -3 18 -27 32 -30
17z"/>
<path d="M3109 1071 c-98 -38 -219 -138 -219 -180 0 -33 26 -44 85 -37 30 3
55 3 55 0 0 -16 -93 -134 -106 -134 -7 0 -14 -9 -14 -20 0 -35 35 -6 102 83
67 91 97 106 166 87 23 -6 40 -6 46 0 15 15 -17 22 -79 18 -30 -1 -55 0 -55 3
0 3 25 41 56 84 30 42 49 75 42 73 -12 -4 -46 -44 -121 -142 -25 -32 -33 -36
-75 -36 -44 0 -72 12 -72 32 0 20 79 92 136 124 72 40 121 56 146 48 22 -7 23
-22 1 -46 -14 -15 -14 -18 -1 -18 21 0 48 33 48 58 0 20 -5 22 -47 22 -27 -1
-69 -9 -94 -19z"/>
<path d="M4817 1065 c-100 -41 -207 -132 -207 -175 0 -30 36 -43 97 -35 l54 7
-52 -71 c-28 -39 -58 -71 -65 -71 -8 0 -14 -9 -14 -20 0 -36 36 -5 102 85 67
92 90 104 167 86 24 -5 43 -5 47 0 9 15 -23 22 -85 17 l-59 -4 31 45 c17 25
44 63 60 84 16 20 24 37 19 37 -11 0 -72 -71 -112 -130 -32 -47 -37 -50 -91
-50 -54 0 -76 18 -60 48 30 56 171 147 247 159 41 7 56 -17 29 -47 -10 -11
-13 -20 -7 -20 17 0 52 42 52 62 0 27 -80 23 -153 -7z"/>
<path d="M5884 1066 c-22 -7 -58 -25 -79 -39 l-39 -27 -14 26 c-17 33 -49 44
-125 44 -100 0 -169 -51 -122 -90 15 -12 147 -52 153 -46 9 10 -34 36 -66 41
-58 10 -84 23 -80 43 7 35 136 55 188 29 19 -10 25 -20 24 -45 -2 -25 -18 -49
-75 -109 -79 -85 -169 -215 -169 -244 0 -33 38 -21 83 25 35 37 44 42 55 30
22 -24 60 -27 110 -9 26 10 71 20 100 22 56 5 72 23 20 23 l-32 0 26 28 c51
54 61 97 30 125 -10 10 -29 17 -41 17 -17 0 -8 10 41 48 73 55 102 97 78 112
-18 12 -15 12 -66 -4z m36 -30 c0 -17 -78 -84 -137 -117 -50 -28 -56 -43 -13
-27 17 5 42 7 55 4 34 -9 34 -55 0 -113 l-26 -43 -79 0 c-43 0 -85 -3 -94 -6
-9 -3 3 22 28 59 24 36 56 91 72 122 22 47 39 65 87 96 61 40 107 50 107 25z
m-260 -183 c-40 -75 -138 -213 -150 -213 -33 0 5 71 89 170 26 30 56 65 66 78
30 34 29 27 -5 -35z m80 -143 c-20 -13 -100 -13 -100 0 0 6 26 10 58 10 40 0
53 -3 42 -10z"/>
<path d="M6404 973 c-21 -29 -56 -77 -77 -107 -24 -36 -45 -56 -57 -56 -11 0
-37 -15 -57 -33 -44 -38 -93 -70 -93 -61 0 4 11 22 25 40 25 33 32 54 17 54
-11 0 -49 -29 -39 -30 5 0 -1 -13 -12 -29 -36 -50 -25 -75 21 -50 15 8 22 8
28 -1 6 -9 15 -8 38 4 32 17 50 36 33 36 -5 0 -13 -4 -16 -10 -8 -13 -25 -13
-25 -1 0 11 79 75 85 69 3 -2 -3 -15 -13 -29 -9 -13 -18 -34 -20 -46 -4 -32
28 -30 66 2 37 31 44 31 36 1 -12 -51 54 -38 148 30 55 39 72 41 33 4 -27 -25
-34 -60 -12 -60 17 0 101 55 119 78 12 16 11 16 -7 2 -11 -8 -33 -25 -48 -37
-40 -33 -68 -31 -37 2 14 15 21 31 17 45 -3 11 -1 23 4 26 12 7 12 34 0 34 -5
0 -18 -15 -29 -34 -22 -37 -116 -106 -144 -106 -30 0 -20 23 22 52 38 27 50
51 31 62 -5 3 -42 -19 -82 -48 -40 -30 -77 -52 -81 -50 -17 11 38 102 133 221
22 29 39 58 37 65 -2 6 -22 -11 -44 -39z m16 -189 c-19 -22 -55 -41 -45 -22
16 28 28 38 42 38 13 0 13 -3 3 -16z"/>
<path d="M4007 846 c-3 -8 -3 -17 0 -20 7 -7 33 13 33 25 0 15 -27 10 -33 -5z"/>
<path d="M4111 847 c-6 -8 -8 -17 -4 -20 7 -8 33 11 33 24 0 13 -16 11 -29 -4z"/>
<path d="M5007 846 c-3 -8 -3 -17 0 -20 7 -7 33 13 33 25 0 15 -27 10 -33 -5z"/>
<path d="M5967 846 c-3 -8 -3 -17 0 -20 7 -7 33 13 33 25 0 15 -27 10 -33 -5z"/>
<path d="M3405 834 c-9 -10 -14 -25 -12 -35 3 -10 -3 -25 -12 -33 -22 -20 -25
-65 -5 -73 8 -3 27 3 42 14 15 11 35 22 46 26 15 6 17 4 13 -13 -8 -31 13 -24
67 20 56 47 65 50 37 14 -21 -27 -28 -54 -13 -54 4 0 18 10 32 21 18 15 20 19
7 15 -17 -5 -16 -3 2 20 38 48 19 60 -33 21 -52 -39 -60 -42 -41 -13 24 36 13
43 -18 12 -36 -36 -58 -35 -48 2 17 58 -25 94 -64 56z m50 -23 c6 -20 -3 -51
-15 -51 -10 0 -20 26 -20 51 0 24 27 25 35 0z m-39 -90 c-19 -19 -30 -9 -21
19 5 17 9 19 21 9 13 -11 13 -14 0 -28z"/>
<path d="M4859 813 c-33 -53 -35 -61 -10 -39 30 27 36 14 6 -14 -28 -26 -33
-60 -9 -60 8 0 35 13 59 30 l43 30 -11 -30 c-20 -54 2 -50 95 18 27 19 47 36
44 39 -2 2 -28 -14 -57 -36 -30 -23 -57 -41 -62 -41 -7 0 11 38 35 72 26 36
-3 28 -57 -16 -62 -50 -106 -65 -65 -21 14 15 21 31 17 45 -3 11 -1 23 4 26
12 7 12 34 0 34 -5 0 -20 -17 -32 -37z"/>
<path d="M3133 808 c-4 -7 -8 -19 -9 -25 -1 -7 -12 -24 -23 -39 -23 -29 -27
-44 -11 -44 14 0 111 73 105 78 -2 3 -20 -7 -40 -22 -41 -32 -44 -27 -10 18
23 30 24 46 4 46 -4 0 -11 -6 -16 -12z"/>
<path d="M3782 798 c-17 -13 -51 -38 -76 -56 -49 -35 -59 -31 -26 11 29 37 26
50 -8 33 -16 -8 -35 -23 -43 -32 -13 -16 -12 -17 6 -10 16 6 18 5 8 -5 -18
-18 -16 -49 1 -49 8 0 44 22 80 50 37 27 66 48 66 47 0 -2 -11 -18 -25 -37
-14 -19 -25 -40 -25 -48 0 -16 -1 -17 87 48 l48 35 -23 -32 c-24 -35 -29 -63
-9 -63 7 0 29 11 50 25 l37 26 0 -26 c0 -23 3 -25 22 -19 27 8 80 46 74 52 -3
2 -15 -3 -28 -12 -40 -28 -53 -19 -24 18 25 33 33 56 20 56 -4 0 -26 -17 -49
-39 -44 -40 -85 -67 -85 -55 0 4 11 22 25 40 53 69 19 70 -67 2 -44 -34 -49
-29 -13 14 42 50 30 64 -23 26z"/>
<path d="M5100 810 c-7 -5 -15 -15 -16 -24 -1 -9 -12 -27 -23 -42 -44 -56 -18
-59 50 -7 52 39 60 60 11 24 -42 -30 -47 -26 -17 13 25 33 23 53 -5 36z"/>
<path d="M5295 803 c-16 -9 -51 -33 -78 -55 -27 -21 -52 -36 -55 -34 -3 3 7
21 22 40 26 35 33 56 18 56 -11 0 -49 -29 -39 -30 5 0 -1 -13 -12 -29 -23 -31
-28 -61 -11 -61 6 0 24 7 40 15 20 10 30 12 30 4 0 -7 12 -9 34 -5 23 5 35 3
38 -6 4 -10 10 -10 31 -1 34 16 128 86 122 91 -2 2 -21 -9 -42 -25 -89 -70
-129 -68 -58 3 51 50 27 73 -40 37z m43 -14 c-5 -16 -87 -74 -94 -67 -10 10
58 78 78 78 11 0 18 -5 16 -11z"/>
<path d="M6004 770 c-38 -28 -72 -50 -76 -50 -13 0 -9 16 12 43 22 27 26 47
10 47 -12 0 -70 -101 -64 -112 9 -14 20 -9 88 37 36 25 66 43 66 40 0 -3 -10
-19 -21 -34 -36 -50 -17 -54 43 -9 32 23 56 44 53 46 -2 3 -20 -7 -40 -22 -42
-32 -44 -27 -9 19 39 52 13 50 -62 -5z"/>
<path d="M3214 795 c-10 -8 -15 -15 -11 -15 5 0 -1 -13 -12 -29 -24 -34 -27
-61 -7 -61 8 0 37 16 66 36 28 19 53 34 55 32 1 -2 -1 -13 -6 -26 -7 -18 -14
-22 -30 -17 -15 5 -20 3 -17 -6 3 -8 12 -15 20 -17 17 -3 92 38 84 46 -3 3
-12 -1 -21 -8 -17 -14 -18 -9 -6 43 8 35 0 50 -14 27 -11 -18 -107 -91 -113
-86 -3 3 7 21 22 40 38 51 33 74 -10 41z"/>
<path d="M4055 780 c-16 -16 -26 -30 -22 -30 4 0 2 -11 -3 -25 -6 -15 -6 -26
1 -30 11 -7 77 30 124 70 48 40 19 29 -38 -15 -55 -42 -73 -37 -38 11 39 53
22 67 -24 19z"/>
<path d="M3095 780 c-3 -5 -2 -10 4 -10 5 0 13 5 16 10 3 6 2 10 -4 10 -5 0
-13 -4 -16 -10z"/>
<path d="M4306 761 c-8 -12 30 -21 96 -21 73 0 83 15 15 24 -72 8 -105 8 -111
-3z"/>
</g>
</svg>
