<?xml version="1.0" standalone="no"?>
<!DOCTYPE svg PUBLIC "-//W3C//DTD SVG 20010904//EN"
 "http://www.w3.org/TR/2001/REC-SVG-20010904/DTD/svg10.dtd">
<svg version="1.0" xmlns="http://www.w3.org/2000/svg"
 width="1089.000000pt" height="835.000000pt" viewBox="0 0 1089.000000 835.000000"
 preserveAspectRatio="xMidYMid meet">

<g transform="translate(0.000000,835.000000) scale(0.100000,-0.100000)"
fill="#000000" stroke="none">
<path d="M0 4175 l0 -4175 5445 0 5445 0 0 4175 0 4175 -5445 0 -5445 0 0
-4175z m1755 3248 c14 -16 60 -72 102 -125 42 -54 80 -98 85 -98 4 0 8 54 8
120 0 100 3 122 15 127 9 3 18 3 21 1 2 -3 7 -84 11 -182 l6 -176 -26 0 c-16
0 -30 8 -37 20 -15 28 -180 234 -191 238 -5 2 -9 -55 -9 -127 0 -110 -3 -133
-16 -138 -8 -3 -19 -2 -23 3 -4 5 -5 89 -3 187 4 193 8 202 57 150z m1235 -20
c0 -81 7 -93 51 -93 32 0 39 -3 39 -20 0 -17 -7 -20 -40 -20 l-39 0 -3 -92
c-2 -75 -6 -93 -18 -93 -12 0 -16 19 -20 90 l-5 90 -52 5 -53 6 0 -93 c0 -86
-1 -93 -20 -93 -19 0 -20 7 -20 125 0 104 2 125 15 125 8 0 15 -9 15 -19 0
-23 16 -36 25 -21 3 5 24 10 46 10 l39 0 0 63 c0 66 4 77 27 77 9 0 13 -15 13
-47z m1486 13 c29 -25 36 -37 28 -46 -8 -8 -19 -4 -43 16 l-32 27 -28 -27
c-32 -31 -41 -33 -41 -7 0 18 52 71 69 71 4 0 25 -15 47 -34z m132 -38 l3 -67
42 -3 c30 -2 43 -8 45 -20 3 -15 -4 -18 -44 -18 l-47 0 7 -90 c7 -78 5 -91 -9
-96 -25 -10 -30 2 -35 94 l-5 87 -54 5 -53 6 3 -91 c4 -87 3 -90 -18 -93 -23
-3 -23 -2 -23 122 0 119 1 126 20 126 15 0 20 -7 20 -27 0 -21 3 -24 12 -15 7
7 29 12 50 12 l38 0 0 63 c0 68 5 79 30 75 11 -3 16 -19 18 -70z m4194 5 l3
-68 43 -3 c34 -3 42 -7 42 -23 0 -16 -7 -19 -40 -19 -25 0 -40 -5 -41 -12 -1
-7 -2 -49 -3 -93 -1 -63 -4 -80 -16 -80 -19 0 -28 36 -29 118 l-1 67 -45 0
c-25 0 -48 -1 -51 -2 -4 -2 -6 -43 -5 -91 2 -87 2 -89 -21 -85 -23 3 -23 5
-23 123 0 106 2 120 18 123 11 2 17 -3 17 -17 0 -23 16 -36 25 -21 3 5 24 10
46 10 l39 0 0 70 c0 63 2 70 20 70 17 0 19 -8 22 -67z m-5964 30 c2 -8 -5 -13
-17 -13 -21 0 -35 13 -24 24 10 10 36 3 41 -11z m1917 7 c11 -18 -5 -31 -26
-20 -11 6 -17 15 -14 21 8 12 32 12 40 -1z m1863 -7 c2 -8 -5 -13 -17 -13 -21
0 -35 13 -24 24 10 10 36 3 41 -11z m2023 2 c0 -5 -9 -11 -21 -13 -20 -3 -27
8 -13 22 10 9 34 3 34 -9z m-4611 -5 c0 -5 11 -10 24 -10 14 0 28 5 31 10 12
20 26 10 15 -10 -15 -29 -56 -36 -80 -15 -24 22 -26 35 -5 35 8 0 15 -4 15
-10z m-1960 -148 c-7 -38 -10 -81 -6 -96 13 -51 75 -58 143 -16 l33 19 -5 85
c-4 56 -2 87 6 91 21 14 28 -12 35 -131 5 -96 4 -123 -6 -129 -8 -5 -15 -4
-17 1 -11 32 -19 35 -56 19 -53 -22 -122 -20 -147 5 -11 11 -20 28 -21 38 0 9
-2 26 -4 37 -6 30 12 135 26 151 24 29 32 -2 19 -74z m502 77 c2 -7 -2 -39 -9
-73 -16 -74 -9 -122 18 -137 26 -14 74 -5 117 21 l32 20 0 90 c0 71 3 90 14
90 21 0 24 -20 28 -150 3 -103 1 -115 -14 -118 -13 -2 -18 3 -18 17 0 25 -6
26 -53 6 -53 -22 -122 -20 -147 5 -16 16 -20 33 -20 95 0 43 6 90 14 110 15
35 31 45 38 24z m736 -24 c12 -27 18 -207 7 -224 -12 -20 -35 8 -35 41 l0 30
-30 -26 c-53 -44 -129 -55 -167 -24 -38 31 8 149 77 198 60 43 130 45 148 5z
m487 23 c26 -12 33 -32 14 -44 -6 -3 -16 -1 -22 5 -30 30 -120 -16 -157 -81
-19 -33 -20 -41 -8 -65 12 -25 19 -28 67 -31 38 -2 72 4 113 19 60 22 75 21
65 -4 -9 -23 -95 -47 -168 -47 -58 0 -72 4 -98 26 -50 41 -35 112 37 175 61
54 110 69 157 47z m330 -10 c11 -10 23 -225 14 -240 -12 -19 -29 3 -29 38 0
41 -3 41 -42 9 -53 -45 -139 -55 -169 -19 -18 22 -4 90 27 135 53 77 157 117
199 77z m974 -76 c25 -50 50 -92 54 -92 4 0 29 43 54 95 25 52 49 95 54 95 23
0 16 -31 -26 -128 -52 -117 -66 -138 -88 -129 -20 8 -130 225 -123 244 11 28
30 7 75 -85z m366 88 c21 0 34 -56 36 -153 1 -57 -2 -92 -10 -100 -16 -16 -31
7 -31 46 l0 29 -30 -26 c-53 -44 -129 -55 -167 -24 -19 15 -16 74 7 117 33 65
126 128 168 115 8 -2 20 -4 27 -4z m374 -88 c25 -50 50 -92 54 -92 4 0 29 43
54 95 25 52 49 95 54 95 23 0 16 -31 -26 -128 -52 -116 -66 -138 -87 -129 -20
7 -131 225 -124 243 11 29 29 8 75 -84z m395 73 c35 -23 45 -64 21 -82 -16
-11 -89 -20 -120 -13 -5 1 -24 -1 -42 -5 -30 -5 -33 -9 -33 -40 0 -67 78 -84
170 -36 25 13 42 17 46 10 9 -15 -24 -47 -60 -58 -113 -36 -196 -3 -196 79 0
44 26 104 57 132 44 40 107 45 157 13z m275 8 c38 -32 59 -237 26 -250 -9 -3
-18 -3 -21 0 -3 2 -8 52 -11 111 l-6 106 -36 0 c-20 0 -54 -11 -76 -23 l-40
-23 -5 -84 c-4 -67 -8 -85 -20 -85 -12 0 -15 22 -18 128 -2 119 -1 128 15 125
10 -2 19 -13 21 -26 4 -27 7 -27 40 -3 27 18 77 39 98 40 7 1 21 -7 33 -16z
m662 7 c20 0 38 -63 44 -154 6 -83 4 -97 -10 -102 -9 -4 -18 -4 -21 -1 -7 7
-12 52 -13 141 l-1 79 -49 -5 c-27 -3 -62 -14 -79 -27 -30 -21 -31 -25 -34
-104 -2 -65 -6 -82 -18 -82 -12 0 -15 22 -18 128 -2 119 -1 128 15 125 10 -2
19 -13 21 -26 l3 -23 35 22 c41 25 84 39 102 33 8 -2 18 -4 23 -4z m289 -19
c15 -11 26 -30 28 -48 4 -36 -12 -43 -106 -43 -35 0 -72 -5 -83 -10 -25 -14
-24 -55 2 -81 18 -18 29 -21 71 -16 28 4 66 16 86 27 22 14 38 18 45 11 32
-32 -84 -78 -184 -72 -42 2 -79 43 -79 89 0 123 131 209 220 143z m397 -1 c7
-36 12 -37 60 -5 31 21 47 25 92 23 44 -2 57 -7 59 -20 3 -15 -4 -18 -45 -18
-100 -1 -163 -62 -163 -155 0 -36 -4 -55 -14 -58 -8 -3 -17 -3 -20 0 -3 4 -6
64 -6 135 0 108 2 128 15 128 9 0 18 -12 22 -30z m396 19 c36 -19 67 -51 67
-70 0 -27 -31 -39 -104 -39 -85 0 -116 -12 -116 -45 0 -65 76 -83 167 -40 49
22 73 20 58 -5 -15 -24 -90 -52 -141 -53 -92 -2 -139 52 -115 132 27 93 120
153 184 120z m-3490 -11 c2 -7 5 -51 6 -98 1 -46 5 -88 7 -92 10 -16 -8 -48
-27 -48 -18 0 -19 8 -19 125 0 100 3 125 14 125 8 0 16 -6 19 -12z m1868 -103
c7 -124 5 -135 -22 -135 -18 0 -19 9 -19 126 0 114 2 125 18 122 14 -3 18 -19
23 -113z m1139 90 c22 -23 23 -32 24 -167 1 -117 -3 -150 -17 -183 -27 -60
-45 -74 -109 -87 l-59 -12 3 -46 3 -45 43 -3 c28 -2 42 -8 42 -17 0 -9 -14
-15 -42 -17 l-43 -3 4 -92 c3 -87 2 -93 -17 -93 -25 0 -32 25 -32 113 l0 67
-37 0 c-77 0 -84 36 -8 42 l40 3 0 69 0 70 64 2 c56 1 68 5 87 27 25 29 44
105 44 172 0 49 -11 63 -31 38 -19 -23 -108 -63 -141 -63 -65 0 -73 26 -33
106 31 60 63 97 107 124 44 27 79 25 108 -5z m800 5 c12 -23 15 -22 -66 -20
-52 1 -66 -3 -89 -23 -18 -15 -26 -30 -22 -40 5 -13 18 -15 79 -10 54 4 78 1
92 -10 29 -22 14 -62 -34 -89 -31 -18 -40 -29 -40 -50 0 -22 5 -28 21 -28 31
0 59 -19 59 -40 0 -24 -37 -50 -72 -50 -41 0 -34 18 12 30 46 13 53 30 11 30
-31 0 -47 13 -53 45 -3 17 -10 20 -51 17 -37 -3 -47 0 -47 12 0 9 12 18 28 22
78 18 102 26 124 43 37 31 13 45 -60 34 -77 -12 -112 3 -112 47 0 56 68 99
157 100 42 0 54 -4 63 -20z m-7125 -90 c3 -6 0 -12 -7 -15 -26 -10 -123 -10
-128 0 -10 19 123 34 135 15z m5275 -105 c0 -3 -11 -23 -25 -45 -25 -40 -54
-56 -40 -22 4 9 12 29 17 45 6 16 17 27 29 27 10 0 19 -2 19 -5z m2250 -4 c0
-13 -44 -74 -57 -78 -9 -3 -8 9 4 41 12 31 23 46 35 46 10 0 18 -4 18 -9z
m-4346 -80 c7 -10 -50 -91 -64 -91 -5 0 0 23 12 50 19 46 39 62 52 41z m-3076
-141 c17 -16 32 -37 32 -45 0 -21 -7 -19 -42 11 l-31 25 -26 -25 c-30 -29 -51
-34 -51 -12 0 14 64 76 78 76 4 0 22 -14 40 -30z m612 -165 c0 -159 -2 -185
-15 -185 -9 0 -20 11 -26 24 l-11 24 -52 -24 c-66 -31 -100 -30 -131 1 -72 71
24 195 151 195 l44 0 0 59 c0 68 6 91 26 91 11 0 14 -34 14 -185z m344 8 c6
-169 2 -204 -22 -189 -11 7 -28 326 -19 351 4 8 13 15 20 15 11 0 15 -37 21
-177z m1126 101 l5 -69 43 -3 c28 -2 42 -8 42 -17 0 -9 -14 -15 -42 -17 l-43
-3 4 -92 c3 -87 2 -93 -17 -93 -23 0 -32 33 -32 121 l0 59 -39 0 c-22 0 -44 6
-51 15 -14 17 -5 23 50 27 l35 3 3 60 c3 72 8 88 25 83 7 -3 14 -31 17 -74z
m4975 54 c2 -13 6 -45 7 -73 l3 -50 43 -3 c28 -2 42 -8 42 -17 0 -9 -14 -15
-42 -17 l-43 -3 -1 -90 c0 -82 -2 -90 -20 -90 -17 0 -19 9 -22 87 l-3 87 -47
3 c-34 2 -47 7 -47 18 0 10 13 16 43 18 l42 3 0 68 c0 37 3 71 7 74 14 14 33
6 38 -15z m515 -53 l5 -70 43 -3 c28 -2 42 -8 42 -17 0 -9 -14 -15 -42 -17
l-43 -3 4 -92 c3 -87 2 -93 -17 -93 -25 0 -32 25 -32 113 l0 67 -34 0 c-19 0
-41 3 -49 6 -11 4 -15 -7 -19 -51 -5 -62 -30 -98 -85 -121 -64 -27 -161 -10
-177 31 -3 9 -6 35 -6 57 0 129 143 208 233 128 20 -17 37 -26 43 -20 5 5 27
10 49 12 l40 3 3 73 c2 63 5 73 20 70 13 -3 18 -18 22 -73z m-2742 32 c2 -10
-3 -17 -12 -17 -18 0 -29 16 -21 31 9 14 29 6 33 -14z m-3228 -2 c11 -14 15
-14 37 1 27 17 39 13 30 -10 -8 -20 -56 -32 -76 -19 -18 11 -28 43 -13 43 5 0
15 -7 22 -15z m-2025 -91 c5 -16 10 -31 12 -33 1 -2 16 8 33 22 50 43 176 50
168 9 -2 -13 -12 -16 -43 -14 -49 4 -101 -17 -135 -53 -20 -21 -26 -40 -30
-93 -4 -59 -7 -67 -25 -67 -19 0 -20 8 -23 119 -1 66 0 126 3 134 8 21 29 9
40 -24z m3169 -1 l10 -31 39 26 c50 33 149 39 155 10 3 -15 -4 -18 -38 -18
-51 0 -98 -19 -130 -54 -20 -22 -26 -41 -30 -94 -4 -60 -7 -67 -27 -70 -23 -3
-23 -2 -23 126 0 71 3 132 7 136 13 12 28 0 37 -31z m546 -62 c24 -50 49 -91
55 -91 7 0 31 41 54 90 39 81 56 101 73 84 7 -6 -85 -219 -104 -241 -18 -22
-26 -16 -67 55 -52 89 -85 168 -77 187 9 25 18 14 66 -84z m2908 87 c7 -7 12
-22 12 -35 0 -29 4 -29 46 4 29 21 46 26 97 27 56 1 62 -1 62 -19 0 -17 -6
-19 -37 -17 -43 4 -114 -25 -143 -58 -14 -16 -21 -41 -25 -89 -4 -58 -8 -66
-25 -66 -18 0 -20 8 -23 100 -3 103 3 165 16 165 5 0 13 -5 20 -12z m-6154
-20 c9 -15 15 -59 18 -128 3 -93 1 -105 -14 -108 -15 -3 -18 4 -18 37 0 44 -9
52 -27 23 -26 -43 -151 -70 -181 -40 -18 18 -14 74 7 116 50 98 178 157 215
100z m76 -3 c5 -14 11 -25 14 -25 2 0 24 11 47 25 103 58 140 24 147 -137 4
-94 4 -98 -17 -98 -20 0 -21 5 -21 88 0 128 -4 135 -56 129 -23 -2 -55 -14
-72 -25 -27 -20 -29 -27 -35 -102 -6 -88 -8 -95 -32 -87 -12 5 -15 27 -15 125
0 65 3 122 7 125 12 13 24 7 33 -18z m572 20 c3 -3 -1 -36 -8 -73 -7 -37 -10
-80 -7 -95 10 -50 59 -60 131 -27 l42 19 0 91 c0 74 3 90 15 90 21 0 23 -7 30
-141 5 -101 4 -117 -10 -122 -11 -5 -19 1 -25 18 l-9 24 -43 -19 c-61 -28
-113 -26 -143 5 -21 20 -25 34 -25 85 0 101 25 171 52 145z m726 -7 c26 -26
12 -34 -50 -30 -53 3 -67 1 -90 -18 -16 -12 -28 -30 -28 -41 0 -17 8 -19 84
-19 61 0 87 -4 96 -15 37 -45 -63 -121 -169 -128 -16 -1 -26 4 -29 14 -2 12
11 19 55 28 65 15 103 35 103 56 0 22 -11 24 -74 14 -47 -8 -63 -7 -82 6 -32
21 -32 64 0 94 46 43 157 66 184 39z m279 -18 c8 -15 13 -65 13 -128 0 -93 -2
-103 -17 -100 -12 2 -20 15 -23 42 l-5 38 -20 -22 c-11 -12 -32 -28 -47 -36
-33 -17 -110 -18 -126 -2 -16 16 -15 83 2 116 19 35 84 98 116 111 44 18 93 9
107 -19z m710 4 c34 -26 45 -67 19 -77 -7 -3 -54 -8 -105 -12 -50 -4 -91 -10
-91 -14 0 -3 -3 -16 -6 -28 -4 -14 1 -28 15 -42 28 -28 87 -28 152 0 27 12 52
19 56 16 12 -13 -7 -35 -49 -56 -74 -35 -167 -25 -200 23 -16 24 -8 101 15
139 48 78 130 100 194 51z m762 0 c35 -29 42 -70 14 -78 -10 -3 -55 -8 -101
-12 -65 -5 -85 -11 -92 -25 -14 -26 -12 -37 10 -59 27 -27 87 -26 151 1 52 23
66 21 55 -6 -9 -25 -86 -55 -143 -55 -71 0 -113 34 -113 93 0 54 33 121 73
146 46 30 108 28 146 -5z m505 4 c10 -16 15 -57 17 -128 3 -92 1 -105 -14
-108 -13 -3 -17 4 -17 31 0 46 -8 50 -37 21 -32 -32 -63 -44 -117 -44 -51 0
-66 13 -66 57 0 117 183 250 234 171z m74 -6 c4 -28 10 -28 63 3 102 58 139
23 147 -137 5 -95 4 -98 -17 -98 -22 0 -22 -4 -26 136 -3 79 -8 88 -56 81 -22
-3 -55 -17 -74 -32 -35 -26 -35 -26 -35 -106 0 -71 -2 -80 -17 -77 -16 3 -18
18 -21 118 -1 62 0 120 3 128 7 20 29 9 33 -16z m443 18 c10 -6 19 -17 19 -25
0 -11 -11 -13 -49 -8 -60 7 -95 -1 -121 -27 -40 -40 -27 -50 64 -50 124 0 143
-28 65 -94 -17 -14 -35 -26 -40 -26 -6 0 -9 -12 -7 -27 2 -23 8 -29 35 -31 41
-4 58 -24 44 -50 -12 -23 -64 -44 -86 -36 -25 10 -17 20 22 30 50 12 55 34 9
34 -33 0 -37 3 -43 31 -6 31 -7 31 -49 25 -24 -3 -44 -4 -44 -2 0 3 -3 11 -6
19 -4 11 5 17 38 22 59 10 128 41 128 58 0 22 -25 27 -80 17 -83 -16 -123 14
-101 73 21 54 147 96 202 67z m248 -5 c30 -15 41 -33 41 -66 0 -22 -15 -26
-125 -37 l-80 -7 -3 -32 c-6 -62 82 -83 168 -39 60 29 82 15 34 -23 -38 -30
-91 -44 -147 -38 -71 6 -101 41 -95 108 11 109 119 180 207 134z m321 -7 c0
-14 -31 -52 -90 -109 l-91 -88 93 -3 c75 -2 93 -6 93 -18 0 -12 -21 -16 -118
-18 -159 -4 -161 2 -36 122 l94 91 -92 3 c-68 2 -93 6 -93 16 0 23 13 26 127
26 109 0 113 -1 113 -22z m572 -8 c25 -26 29 -36 24 -62 -10 -51 -53 -98 -120
-129 -33 -16 -69 -29 -79 -29 -17 0 -18 -9 -16 -95 2 -63 -1 -99 -9 -107 -6
-6 -14 -10 -16 -7 -3 3 -8 105 -12 228 l-7 224 24 -6 c14 -4 38 -2 54 2 17 5
52 10 78 10 41 1 53 -4 79 -29z m265 11 c35 -22 50 -55 33 -75 -6 -9 -46 -17
-103 -21 -51 -4 -95 -12 -99 -19 -27 -40 13 -86 75 -86 23 0 60 9 82 20 60 31
87 23 47 -13 -52 -47 -154 -61 -209 -27 -36 22 -48 54 -39 103 20 108 129 169
213 118z m107 -7 c6 -10 11 -20 12 -22 1 -1 21 9 45 23 24 13 59 25 76 25 51
0 65 -32 71 -156 4 -101 4 -104 -17 -104 -20 0 -21 5 -21 94 0 52 -3 101 -6
110 -9 23 -62 20 -109 -7 l-40 -23 -3 -87 c-3 -79 -5 -87 -22 -87 -19 0 -20 8
-20 131 0 132 7 153 34 103z m786 10 c0 -8 -5 -46 -11 -84 -10 -60 -10 -72 5
-95 20 -31 63 -33 124 -5 l42 19 0 91 c0 69 3 90 14 90 17 0 26 -63 26 -176 0
-85 -13 -115 -30 -69 -10 25 -10 25 -40 10 -17 -9 -53 -19 -80 -22 -43 -5 -51
-3 -74 20 -23 23 -26 34 -26 100 0 41 5 88 11 106 11 32 39 43 39 15z m-1646
-111 c7 -119 2 -141 -28 -130 -13 5 -16 27 -16 127 0 110 2 120 19 120 16 0
19 -12 25 -117z m2123 -312 c44 -20 79 -63 68 -81 -4 -7 -21 2 -46 24 -80 73
-129 53 -129 -53 0 -82 3 -84 99 -76 72 7 81 6 81 -9 0 -20 -7 -23 -93 -31
l-68 -7 7 -60 c7 -59 6 -60 -17 -56 -21 3 -24 9 -27 57 l-3 54 -45 -7 c-24 -3
-44 -4 -44 -2 0 3 -2 11 -6 19 -4 10 6 16 35 21 l41 6 0 75 c0 86 13 121 49
134 38 14 51 13 98 -8z m-6947 -91 c0 -55 3 -100 6 -100 3 0 24 16 46 35 89
76 180 84 186 16 5 -48 -14 -86 -69 -135 -47 -43 -139 -81 -176 -74 -26 5 -31
38 -32 206 -1 146 0 152 19 152 19 0 20 -7 20 -100z m940 33 c0 -38 3 -119 7
-180 6 -108 5 -113 -14 -113 -18 0 -20 9 -26 122 -12 210 -10 238 13 238 18 0
20 -7 20 -67z m1810 -3 l0 -70 45 0 c38 0 45 -3 45 -20 0 -17 -7 -20 -45 -20
l-45 0 7 -89 c4 -64 3 -90 -6 -96 -24 -14 -36 17 -40 100 l-3 85 -38 0 c-21 0
-46 3 -55 7 -16 5 -17 -3 -14 -88 4 -89 3 -94 -16 -94 -19 0 -20 8 -23 123 -2
117 -2 122 18 122 15 0 20 -7 20 -26 0 -20 3 -24 13 -16 7 6 30 12 52 14 l40
3 3 68 c3 59 5 67 22 67 18 0 20 -7 20 -70z m397 44 c33 -25 44 -54 21 -54 -7
0 -24 12 -39 26 l-26 25 -27 -32 c-20 -24 -30 -29 -39 -20 -8 8 -2 20 23 46
19 19 38 35 44 35 5 0 24 -11 43 -26z m1263 -21 c0 -81 7 -92 54 -95 58 -4 57
-32 -1 -36 l-43 -3 0 -89 c0 -49 -4 -91 -8 -94 -21 -13 -31 15 -34 94 l-3 85
-52 5 -53 6 0 -92 c0 -50 -3 -94 -7 -97 -13 -13 -33 16 -33 48 l0 33 -30 -28
c-39 -37 -111 -55 -148 -38 -50 24 -41 103 18 171 68 77 171 100 186 42 6 -26
18 -32 29 -15 3 6 24 10 46 10 l39 0 0 63 c0 66 4 77 27 77 9 0 13 -15 13 -47z
m990 37 c0 -15 -30 -27 -114 -44 -76 -16 -125 -41 -109 -57 5 -3 40 -17 78
-29 89 -29 164 -67 172 -86 26 -69 -191 -164 -286 -124 -33 13 -43 30 -31 50
6 9 15 7 38 -10 29 -21 35 -22 88 -12 64 13 139 51 139 71 0 7 -52 34 -119 61
-66 27 -123 53 -129 59 -30 30 43 88 143 115 64 17 130 20 130 6z m-5090 -25
c0 -8 -9 -15 -20 -15 -11 0 -20 7 -20 15 0 8 9 15 20 15 11 0 20 -7 20 -15z
m1770 0 c0 -16 -35 -21 -44 -6 -8 12 4 21 26 21 10 0 18 -7 18 -15z m510 -1
c0 -9 -7 -14 -17 -12 -25 5 -28 28 -4 28 12 0 21 -6 21 -16z m1390 1 c0 -8 -9
-15 -20 -15 -11 0 -20 7 -20 15 0 8 9 15 20 15 11 0 20 -7 20 -15z m703 -15
c9 0 19 5 22 10 3 6 13 10 22 10 14 0 14 -3 -2 -20 -23 -26 -71 -26 -84 -1
-13 23 0 37 15 17 6 -9 18 -16 27 -16z m2412 21 c3 -5 1 -13 -5 -16 -15 -9
-43 3 -35 15 8 13 32 13 40 1z m85 -6 c0 -16 -35 -21 -44 -6 -8 12 4 21 26 21
10 0 18 -7 18 -15z m-1580 -7 c16 -10 24 -10 41 0 25 16 37 8 19 -13 -22 -27
-90 -14 -90 17 0 11 7 10 30 -4z m-5050 -76 c25 -21 38 -80 39 -179 1 -61 -11
-85 -31 -65 -5 5 -12 55 -15 111 -5 81 -9 102 -22 106 -23 7 -75 -9 -111 -35
-29 -21 -30 -24 -30 -99 0 -82 -3 -93 -26 -84 -11 4 -14 32 -14 129 0 107 2
124 16 124 9 0 18 -9 21 -20 7 -26 12 -25 69 5 56 30 74 31 104 7z m253 7 c36
-19 67 -51 67 -71 0 -25 -39 -38 -116 -38 -75 0 -104 -12 -104 -42 0 -59 96
-79 174 -37 39 20 67 14 51 -11 -14 -23 -95 -51 -146 -52 -91 0 -132 48 -110
130 25 94 118 155 184 121z m360 0 c36 -19 67 -51 67 -71 0 -25 -39 -38 -116
-38 -75 0 -104 -12 -104 -42 0 -59 91 -78 172 -37 27 14 44 17 50 11 32 -32
-75 -77 -175 -73 -17 1 -41 13 -59 31 -26 27 -30 36 -25 69 8 60 34 105 79
134 45 29 77 34 111 16z m545 -25 c26 -29 28 -54 8 -93 -29 -55 -93 -97 -195
-127 -10 -3 -12 -26 -10 -101 3 -83 2 -98 -12 -101 -14 -2 -17 16 -22 134 -4
76 -7 177 -7 226 l0 89 33 -5 c17 -3 48 -2 67 3 54 15 112 5 138 -25z m89 6
c7 -36 7 -36 44 -10 41 30 133 48 153 31 30 -25 19 -39 -32 -39 -57 0 -100
-19 -136 -62 -22 -26 -26 -41 -26 -91 0 -52 -2 -59 -19 -59 -11 0 -23 5 -26
10 -3 6 -3 64 1 130 5 92 10 120 21 120 7 0 16 -13 20 -30z m353 5 c0 -30 3
-31 38 -5 46 33 84 36 118 7 29 -25 29 -25 59 -7 17 11 49 22 72 26 55 8 83
-18 83 -78 0 -24 3 -73 7 -110 l6 -68 -28 0 -28 0 6 78 c9 99 -1 136 -36 140
-66 8 -107 -65 -116 -210 -1 -5 -10 -8 -20 -8 -17 0 -19 8 -18 88 1 106 -7
132 -37 132 -52 0 -96 -85 -96 -185 0 -28 -4 -35 -20 -35 -19 0 -20 7 -20 130
0 109 2 130 15 130 9 0 15 -9 15 -25z m1210 15 c25 -13 37 -58 44 -161 5 -74
4 -88 -10 -93 -29 -11 -34 5 -34 109 0 102 -1 105 -24 111 -25 6 -90 -17 -118
-43 -14 -13 -18 -32 -18 -93 0 -81 -3 -92 -26 -83 -11 4 -14 32 -14 130 0 113
2 124 18 121 9 -2 18 -13 20 -25 3 -21 4 -21 59 8 60 31 75 34 103 19z m375
-85 c28 -52 53 -95 56 -95 3 0 25 43 49 95 39 86 59 110 74 86 6 -9 -87 -228
-103 -244 -20 -20 -40 5 -96 113 -51 100 -62 140 -38 140 4 0 31 -43 58 -95z
m1010 81 c17 -12 20 -31 25 -123 6 -102 -1 -140 -21 -127 -5 3 -9 21 -9 40 0
41 -3 41 -42 9 -51 -43 -127 -53 -165 -23 -23 18 -15 81 16 130 53 83 148 129
196 94z m932 6 c22 -14 33 -64 33 -156 0 -51 -3 -95 -6 -99 -16 -15 -34 8 -34
44 l0 38 -31 -29 c-40 -36 -105 -54 -148 -39 -27 10 -31 15 -31 49 0 51 12 80
52 125 48 56 131 89 165 67z m488 -16 c27 -27 38 -82 33 -176 -2 -50 -7 -65
-18 -65 -12 0 -16 20 -20 102 -6 120 -12 131 -68 115 -74 -23 -89 -42 -94
-127 -5 -81 -17 -106 -37 -81 -8 9 -11 50 -9 127 3 99 5 114 21 117 11 2 17
-3 17 -16 0 -29 11 -33 39 -13 27 19 76 39 99 40 7 1 24 -10 37 -23z m107 -7
c-13 -131 -14 -160 -2 -174 18 -22 88 -19 128 5 l32 20 0 91 c0 81 2 90 18 87
14 -3 18 -21 25 -122 5 -65 6 -124 3 -132 -8 -21 -27 -17 -33 6 -6 24 -10 24
-56 5 -20 -8 -55 -15 -77 -15 -75 0 -101 57 -80 177 6 37 14 71 17 76 10 16
28 0 25 -24z m-5951 -99 c7 -117 3 -137 -25 -127 -13 5 -16 27 -16 127 0 110
2 121 18 118 14 -3 18 -20 23 -118z m1762 98 c5 -20 10 -156 8 -210 -1 -11 -9
-18 -21 -18 -19 0 -20 7 -20 125 0 100 3 125 14 125 8 0 16 -10 19 -22z m1051
-9 c3 -17 6 -74 6 -125 0 -87 -1 -94 -20 -94 -19 0 -20 7 -20 125 0 99 3 125
14 125 7 0 16 -14 20 -31z m858 -86 c5 -120 1 -140 -26 -130 -13 5 -16 27 -16
127 0 111 1 120 19 120 17 0 19 -11 23 -117z m3113 45 c4 -40 5 -95 3 -123 -2
-42 -6 -50 -23 -50 -19 0 -20 7 -20 115 -1 125 0 130 20 130 9 0 15 -21 20
-72z m79 41 c3 -17 6 -74 6 -125 0 -87 -1 -94 -20 -94 -19 0 -20 7 -20 125 0
99 3 125 14 125 7 0 16 -14 20 -31z m-2344 -204 c0 -8 -9 -15 -20 -15 -20 0
-26 11 -13 23 12 13 33 7 33 -8z m-410 -68 c0 -17 -48 -87 -60 -87 -13 0 -13
0 10 54 19 42 50 63 50 33z m-3402 -158 c6 -90 10 -98 50 -101 26 -2 38 -8 40
-20 3 -15 -4 -18 -37 -18 l-41 0 0 -95 c0 -88 -1 -95 -20 -95 -18 0 -20 7 -20
58 0 31 -3 73 -6 92 -6 33 -8 35 -45 34 -22 -1 -43 4 -50 12 -13 16 -3 22 51
26 l35 3 3 60 c1 33 5 66 7 73 9 25 30 6 33 -29z m1010 -31 l3 -67 42 -3 c30
-2 43 -8 45 -20 3 -13 -6 -17 -40 -20 l-43 -3 4 -92 c3 -87 2 -93 -17 -93 -23
0 -32 33 -32 121 l0 59 -39 0 c-22 0 -44 6 -51 15 -14 17 -5 23 50 27 l35 3 3
73 c2 63 5 73 20 70 14 -3 18 -16 20 -70z m-2782 41 c3 -6 2 -15 -2 -19 -12
-12 -38 5 -30 19 9 14 23 14 32 0z m3789 -8 c0 -8 -4 -16 -10 -18 -16 -5 -38
14 -30 26 9 16 40 9 40 -8z m2220 0 c0 -8 -4 -16 -10 -18 -16 -5 -38 14 -30
26 9 16 40 9 40 -8z m911 8 c10 -17 -13 -36 -27 -22 -12 12 -4 33 11 33 5 0
12 -5 16 -11z m1460 0 c10 -17 -13 -36 -27 -22 -12 12 -4 33 11 33 5 0 12 -5
16 -11z m-6361 -9 c8 -14 48 -13 63 2 6 6 14 9 18 6 11 -11 -36 -48 -61 -48
-21 0 -45 24 -45 44 0 10 18 7 25 -4z m2535 -2 c16 -10 24 -10 41 0 24 15 34
10 26 -12 -8 -20 -56 -32 -76 -19 -16 10 -28 43 -17 43 4 0 15 -6 26 -12z
m-4004 -101 c10 -18 18 -69 21 -128 6 -95 5 -99 -15 -99 -21 0 -23 8 -35 180
-2 32 -5 35 -37 38 -22 1 -50 -6 -75 -21 l-40 -23 -3 -87 c-2 -77 -5 -88 -20
-85 -15 3 -17 20 -20 131 -2 119 -1 128 15 125 10 -2 19 -13 21 -26 4 -26 6
-27 37 -6 37 24 95 42 117 36 10 -2 26 -18 34 -35z m250 27 c42 -20 67 -64 67
-117 0 -76 -69 -131 -166 -132 -53 0 -61 3 -84 29 -22 25 -25 37 -21 81 5 65
37 111 92 136 51 23 69 23 112 3z m130 -23 c7 -21 14 -29 18 -22 15 24 86 51
136 51 43 0 50 -3 50 -20 0 -17 -7 -20 -40 -20 -54 0 -100 -21 -133 -59 -23
-27 -27 -42 -27 -91 0 -44 -4 -59 -16 -64 -9 -3 -20 -4 -25 0 -5 3 -9 64 -9
135 0 119 2 130 18 127 9 -2 22 -18 28 -37z m421 -2 c12 -25 20 -215 10 -226
-16 -15 -37 9 -37 42 l0 36 -39 -32 c-44 -35 -114 -49 -150 -30 -46 25 -12
146 55 197 44 34 102 54 129 44 11 -4 25 -18 32 -31z m262 -6 c7 -14 14 -68
18 -119 5 -82 4 -94 -11 -100 -9 -4 -19 -4 -22 -1 -3 3 -8 52 -12 108 l-7 104
-35 3 c-22 1 -50 -6 -75 -21 l-40 -23 -5 -84 c-4 -67 -8 -85 -20 -85 -12 0
-15 22 -18 128 -2 119 -1 128 15 125 10 -2 19 -13 21 -26 4 -26 6 -27 37 -6
73 48 132 46 154 -3z m508 6 c6 -13 12 -64 13 -114 2 -118 2 -115 -14 -115
-16 0 -26 21 -26 56 l0 25 -39 -32 c-45 -36 -114 -49 -151 -29 -20 11 -22 18
-18 61 6 57 45 119 95 150 69 43 118 42 140 -2z m1016 -83 c4 -66 5 -126 3
-133 -9 -21 -36 -15 -36 8 0 16 -4 19 -17 14 -10 -4 -41 -15 -70 -23 -65 -19
-106 -5 -122 40 -14 39 -14 66 0 145 9 53 14 63 31 63 16 0 19 -4 13 -22 -3
-13 -9 -56 -12 -97 -5 -64 -3 -76 12 -88 26 -18 62 -16 113 7 l42 19 0 96 c0
86 2 96 18 93 14 -3 18 -21 25 -122z m239 78 c11 -20 17 -59 20 -124 3 -89 2
-95 -17 -95 -18 0 -20 8 -25 105 l-5 105 -46 -1 c-30 0 -56 -7 -77 -22 -30
-22 -31 -26 -34 -105 -3 -69 -6 -82 -20 -85 -16 -3 -18 8 -18 127 0 109 2 131
15 131 8 0 17 -11 21 -25 7 -30 9 -30 42 -6 66 46 115 44 144 -5z m279 27 c18
-15 21 -22 13 -31 -9 -9 -17 -9 -33 0 -44 23 -133 -32 -161 -100 -10 -25 -10
-34 4 -55 14 -22 23 -25 74 -25 31 1 75 8 97 16 53 20 67 21 72 6 8 -22 -85
-56 -159 -56 -68 -1 -106 15 -131 55 -40 64 83 203 184 208 9 1 27 -8 40 -18z
m1487 -19 c12 -18 18 -54 20 -129 4 -99 3 -103 -17 -103 -19 0 -20 6 -23 108
l-3 107 -46 -1 c-30 0 -56 -7 -77 -22 -30 -22 -31 -26 -34 -105 -3 -69 -6 -82
-20 -85 -16 -3 -18 8 -18 127 0 109 2 131 15 131 8 0 17 -11 21 -25 l6 -25 34
21 c70 43 114 43 142 1z m93 -32 c-31 -143 8 -190 117 -140 l42 19 0 90 c0 86
10 116 30 95 5 -5 12 -66 16 -136 6 -118 6 -128 -10 -128 -10 0 -20 9 -23 20
-6 24 -6 24 -45 4 -17 -9 -52 -17 -78 -18 -59 -1 -86 20 -95 74 -7 42 11 158
27 178 21 25 31 -4 19 -58z m1030 39 c21 -14 29 -29 29 -50 0 -16 -1 -29 -2
-30 -2 0 -48 -6 -103 -12 -98 -12 -100 -13 -103 -39 -2 -17 4 -34 19 -49 17
-17 30 -21 68 -17 26 3 62 12 81 21 61 31 83 15 31 -22 -98 -70 -241 -39 -241
53 0 46 16 85 48 120 55 58 114 67 173 25z m115 -7 c10 -33 10 -33 29 -12 38
42 166 55 173 18 3 -15 -4 -18 -38 -18 -51 0 -103 -21 -135 -56 -21 -22 -25
-37 -25 -84 0 -38 -5 -62 -15 -70 -29 -24 -35 0 -35 131 0 119 2 130 18 127 9
-2 22 -18 28 -36z m1008 23 c43 -20 66 -63 66 -120 0 -40 -5 -52 -33 -80 -62
-62 -170 -71 -216 -19 -19 23 -23 36 -19 79 5 65 37 111 92 136 50 23 69 23
110 4z m317 -4 c18 -15 21 -22 13 -31 -9 -9 -17 -9 -33 0 -32 17 -83 -3 -124
-49 -45 -50 -53 -76 -33 -106 14 -22 24 -25 74 -25 31 1 75 8 97 16 53 20 67
21 72 6 8 -22 -85 -56 -159 -56 -68 -1 -106 15 -131 55 -19 30 2 89 49 136 71
71 132 89 175 54z m956 -22 c8 -14 13 -65 13 -127 0 -93 -2 -103 -17 -100 -12
2 -20 16 -23 42 -5 37 -6 38 -20 21 -35 -42 -129 -67 -171 -45 -50 28 -3 161
75 209 72 45 120 45 143 0z m-8646 -90 c4 -63 5 -117 2 -121 -2 -5 -13 -8 -24
-8 -18 0 -19 8 -19 118 0 65 3 122 7 126 20 19 29 -10 34 -115z m263 98 c21
-21 25 -37 31 -128 10 -155 -14 -258 -69 -295 -33 -21 -131 -31 -151 -14 -24
20 -8 30 48 30 95 0 127 46 127 181 l0 82 -22 -20 c-69 -63 -189 -84 -196 -35
-7 48 69 165 133 204 40 24 71 23 99 -5z m2347 -3 c5 -15 11 -72 12 -128 2
-84 -1 -101 -13 -101 -10 0 -16 12 -18 38 -4 42 -11 46 -38 16 -41 -46 -131
-64 -166 -32 -37 33 -12 118 54 179 46 44 67 53 116 54 37 0 44 -3 53 -26z
m1173 -35 c3 -34 6 -91 6 -126 0 -61 -1 -64 -22 -61 -22 3 -23 8 -26 112 -3
118 0 136 21 136 10 0 16 -19 21 -61z m570 55 c9 -3 16 -14 16 -23 0 -15 -9
-16 -62 -13 -53 3 -67 1 -90 -18 -16 -12 -28 -30 -28 -41 0 -17 8 -19 84 -19
99 0 120 -13 94 -58 -32 -56 -198 -112 -198 -67 0 8 12 17 28 20 101 21 139
42 129 69 -6 15 -14 16 -54 10 -91 -15 -123 -3 -123 45 0 32 31 68 74 87 32
14 103 18 130 8z m277 -10 c15 -18 29 -217 18 -236 -15 -23 -39 1 -39 38 l0
37 -22 -20 c-53 -48 -125 -66 -169 -43 -29 16 -25 82 7 137 47 82 168 132 205
87z m1065 6 c8 -8 19 -8 38 0 15 5 51 10 80 10 96 0 134 -60 87 -136 -32 -52
-87 -87 -178 -110 -8 -2 -13 -36 -15 -106 -3 -86 -6 -103 -20 -106 -14 -3 -16
19 -20 220 -2 123 -2 226 0 231 5 10 16 9 28 -3z m308 -36 c3 -26 6 -82 6
-126 0 -77 -1 -79 -22 -76 -22 3 -23 7 -24 113 0 120 2 135 21 135 7 0 15 -19
19 -46z m836 28 c0 -10 -42 -60 -92 -111 l-93 -92 90 2 c74 2 91 -1 93 -14 3
-12 -15 -16 -102 -22 -111 -8 -136 -4 -136 18 0 8 42 55 93 105 l92 92 -91 0
c-95 0 -106 3 -97 26 4 11 31 14 124 14 108 0 119 -2 119 -18z m81 -102 c4
-63 5 -118 2 -122 -2 -5 -13 -8 -24 -8 -18 0 -19 8 -19 126 0 114 2 125 18
122 15 -3 18 -20 23 -118z m1097 96 c6 -13 11 -66 12 -118 2 -122 2 -118 -15
-118 -14 0 -17 7 -19 52 -2 23 -14 21 -54 -10 -38 -29 -109 -40 -142 -22 -19
10 -22 18 -18 59 9 93 98 181 184 181 33 0 43 -4 52 -24z m282 6 c0 -10 -42
-60 -92 -111 l-93 -92 90 2 c74 2 91 -1 93 -14 3 -12 -14 -16 -90 -22 -176
-13 -181 -1 -53 126 l90 89 -91 0 c-95 0 -106 3 -97 26 4 11 31 14 124 14 108
0 119 -2 119 -18z m81 -102 c4 -63 5 -118 2 -122 -2 -5 -13 -8 -24 -8 -18 0
-19 8 -19 126 0 114 2 125 18 122 15 -3 18 -20 23 -118z m-4511 -103 c0 -17
-48 -87 -60 -87 -13 0 -13 0 10 54 19 42 50 63 50 33z m-3320 -382 c0 -175 -1
-185 -19 -185 -12 0 -21 9 -25 25 l-6 24 -53 -24 c-65 -31 -104 -32 -134 -3
-73 68 27 197 155 198 l42 0 0 63 c0 58 11 87 32 87 4 0 8 -83 8 -185z m1258
171 c39 -20 75 -63 69 -80 -5 -11 -14 -7 -41 19 -79 74 -136 51 -136 -54 0
-80 5 -85 81 -76 35 3 72 9 82 11 12 4 17 0 17 -15 0 -16 -9 -21 -47 -26 -27
-3 -63 -8 -80 -11 l-33 -5 7 -59 c5 -56 4 -60 -15 -60 -17 0 -22 8 -28 56 l-6
55 -37 -2 c-67 -5 -85 25 -21 35 l40 6 0 76 c0 75 16 127 42 137 26 10 80 7
106 -7z m2006 -2 c3 -9 6 -56 6 -105 l0 -90 43 35 c82 67 155 84 182 42 27
-40 5 -95 -61 -155 -66 -60 -180 -102 -198 -72 -4 7 -11 329 -7 354 2 13 29 7
35 -9z m1769 -6 c3 -13 7 -95 9 -183 2 -139 1 -160 -13 -163 -13 -2 -17 10
-23 59 -8 81 -8 294 1 302 12 13 21 7 26 -15z m-1460 -23 c-4 -15 -36 -12 -41
3 -3 9 3 13 19 10 13 -1 23 -7 22 -13z m-3327 -85 c18 -12 36 -30 40 -42 11
-36 -17 -51 -108 -56 -89 -5 -108 -13 -108 -45 0 -57 84 -75 169 -37 24 11 47
20 52 20 21 0 6 -27 -27 -50 -28 -19 -53 -25 -105 -28 -65 -4 -70 -3 -99 26
-36 36 -39 76 -11 138 38 83 127 117 197 74z m500 12 c24 -16 33 -53 35 -148
2 -91 0 -99 -17 -99 -15 0 -20 9 -22 39 l-3 39 -34 -33 c-28 -28 -44 -34 -90
-38 -35 -3 -60 0 -70 8 -17 14 -20 66 -6 103 31 80 160 161 207 129z m814 -2
c23 -12 28 -35 31 -150 3 -89 2 -95 -16 -95 -16 0 -20 7 -21 32 0 29 -14 63
-14 35 0 -6 -17 -23 -37 -37 -28 -19 -51 -25 -88 -25 -60 0 -75 12 -75 57 0
105 143 224 220 183z m294 -5 c15 -12 17 -17 7 -29 -11 -14 -15 -14 -36 0 -20
13 -27 13 -57 1 -78 -33 -133 -133 -92 -168 23 -19 101 -17 166 5 32 11 60 17
64 13 30 -30 -83 -72 -177 -65 -105 8 -140 77 -83 159 24 35 80 80 114 92 29
10 75 6 94 -8z m286 0 c30 -16 50 -43 50 -68 0 -22 -54 -37 -129 -37 -69 0
-91 -10 -91 -42 0 -57 83 -74 171 -37 52 23 66 21 55 -6 -9 -24 -86 -55 -139
-55 -95 0 -138 48 -117 131 13 52 34 80 81 108 40 25 79 27 119 6z m366 -22
c-18 -120 -19 -149 -1 -166 9 -9 30 -17 46 -17 36 0 93 23 105 41 5 8 8 50 9
94 0 64 3 80 15 80 12 0 17 -23 26 -100 l11 -100 2 98 c1 81 4 97 17 97 9 0
18 -9 21 -20 7 -25 5 -25 69 6 101 49 131 20 141 -134 6 -98 5 -102 -15 -102
-21 0 -23 8 -35 180 -2 30 -6 35 -29 38 -27 3 -79 -18 -110 -46 -14 -12 -18
-31 -18 -94 0 -77 -1 -79 -22 -77 -13 2 -29 -1 -37 -6 -9 -5 -16 -5 -18 1 -12
35 -20 37 -62 20 -47 -18 -103 -21 -131 -6 -11 6 -24 29 -30 51 -18 65 7 199
37 199 12 0 14 -8 9 -37z m1144 -10 c0 -8 13 -4 36 12 110 75 164 26 164 -147
0 -71 -2 -78 -20 -78 -19 0 -20 7 -20 98 0 63 -4 102 -12 110 -18 18 -59 14
-103 -11 l-40 -23 -3 -87 c-3 -79 -5 -87 -22 -87 -19 0 -20 7 -20 123 0 68 3
127 7 131 9 8 33 -22 33 -41z m441 24 c35 -23 49 -61 30 -80 -6 -6 -52 -13
-103 -16 l-93 -6 -3 -35 c-3 -24 2 -38 14 -47 27 -19 89 -16 145 8 52 23 66
21 55 -6 -9 -24 -86 -55 -139 -55 -91 0 -125 36 -114 122 6 48 30 84 77 116
42 28 88 28 131 -1z m534 9 c11 -8 16 -19 12 -30 -6 -15 -9 -15 -31 -1 -22 15
-27 15 -62 0 -50 -21 -83 -51 -101 -93 -30 -71 35 -107 137 -77 91 27 113 30
108 14 -8 -26 -79 -52 -152 -56 -59 -4 -77 -1 -103 16 -58 36 -56 95 4 162 63
70 144 98 188 65z m296 -9 c35 -23 49 -61 30 -80 -6 -6 -52 -13 -103 -16 l-93
-6 -3 -28 c-2 -17 4 -37 14 -48 23 -26 97 -25 149 1 46 23 76 20 54 -6 -25
-31 -87 -54 -143 -54 -44 0 -60 5 -85 26 -26 21 -31 33 -31 67 0 81 75 167
145 167 18 0 47 -10 66 -23z m358 8 c39 -19 65 -77 58 -127 -10 -72 -74 -118
-167 -118 -41 0 -56 5 -77 26 -23 23 -25 32 -21 83 3 38 11 68 26 88 40 57
122 79 181 48z m122 -15 l11 -29 36 24 c64 41 168 46 160 7 -2 -13 -11 -16
-36 -14 -47 5 -94 -14 -130 -51 -28 -29 -32 -40 -34 -97 -3 -59 -5 -65 -26
-68 -22 -3 -22 -2 -22 127 0 112 2 131 16 131 8 0 20 -13 25 -30z m704 16 c11
-8 16 -19 12 -30 -6 -15 -9 -15 -31 -1 -22 15 -27 15 -62 0 -50 -21 -83 -51
-101 -93 -30 -71 35 -107 137 -77 92 27 110 29 110 12 0 -22 -76 -49 -155 -54
-58 -4 -76 -1 -102 16 -58 36 -56 95 4 162 63 70 144 98 188 65z m305 4 c23
-12 28 -35 31 -150 3 -83 1 -95 -14 -98 -13 -3 -17 4 -17 32 0 39 -10 45 -31
20 -22 -27 -67 -44 -117 -44 -57 0 -72 12 -72 57 0 104 144 224 220 183z m101
-20 l11 -29 36 24 c64 41 168 46 160 7 -2 -13 -11 -16 -36 -14 -46 5 -94 -14
-130 -51 -27 -28 -31 -40 -34 -97 -3 -59 -5 -65 -25 -68 -23 -3 -23 -3 -23
127 0 112 2 131 16 131 8 0 20 -13 25 -30z m409 15 c30 -16 50 -43 50 -68 0
-22 -54 -37 -129 -37 -69 0 -91 -10 -91 -42 0 -57 83 -74 171 -37 52 23 66 21
55 -6 -9 -24 -86 -55 -139 -55 -95 0 -139 49 -117 131 26 99 123 154 200 114z
m540 5 c23 -12 28 -35 31 -150 3 -83 1 -95 -14 -98 -16 -3 -18 1 -21 50 -1 18
-16 37 -16 20 0 -6 -17 -23 -37 -37 -28 -19 -51 -25 -88 -25 -60 0 -75 12 -75
57 0 105 143 224 220 183z m102 -21 c-16 -150 -15 -167 8 -179 28 -15 92 -8
125 14 24 16 25 22 25 107 0 81 2 90 18 87 14 -3 18 -21 25 -127 6 -80 5 -127
-1 -133 -14 -14 -32 -1 -32 22 0 19 -1 19 -42 0 -24 -11 -62 -20 -85 -20 -78
0 -104 56 -83 177 6 37 14 71 17 76 10 16 28 0 25 -24z m-3977 -61 c10 -121 5
-163 -20 -163 -19 0 -20 8 -23 109 -3 119 0 136 22 136 11 0 16 -20 21 -82z
m-1697 -360 c29 -18 52 -61 40 -74 -3 -2 -22 11 -43 30 -42 39 -80 52 -101 35
-22 -18 -35 -82 -26 -125 l8 -39 88 3 c80 3 87 1 84 -15 -3 -15 -18 -20 -82
-27 l-79 -9 7 -58 c6 -57 5 -59 -19 -59 -22 0 -24 4 -27 53 l-3 52 -45 0 c-34
0 -45 4 -48 18 -3 12 3 17 21 17 52 0 57 7 57 86 0 40 5 84 11 98 22 48 91 54
157 14z m732 -48 l0 -70 45 0 c38 0 45 -3 45 -20 0 -17 -7 -20 -45 -20 l-45 0
7 -90 c5 -78 4 -90 -11 -96 -9 -4 -19 -4 -23 -1 -3 4 -8 47 -11 97 l-5 90 -42
0 c-23 0 -45 3 -48 7 -14 14 17 33 54 33 l39 0 0 70 c0 63 2 70 20 70 18 0 20
-7 20 -70z m380 -36 l0 -106 41 37 c44 39 111 74 143 75 31 0 56 -30 56 -66 0
-45 -52 -111 -119 -151 -55 -33 -136 -52 -151 -37 -6 7 -16 304 -11 347 1 4
10 7 21 7 19 0 20 -7 20 -106z m2048 34 l3 -67 42 -3 c30 -2 43 -8 45 -20 3
-15 -4 -18 -44 -18 l-47 0 7 -90 c7 -78 5 -91 -9 -96 -25 -10 -30 2 -35 94
l-5 87 -48 3 c-39 3 -48 6 -45 20 2 12 15 18 46 20 l42 3 0 63 c0 67 5 78 30
74 11 -3 16 -19 18 -70z m-1208 37 c0 -8 -9 -15 -20 -15 -20 0 -26 11 -13 23
12 13 33 7 33 -8z m1358 -2 c2 -8 -5 -13 -17 -13 -21 0 -35 13 -24 24 10 10
36 3 41 -11z m-2996 -102 c55 -62 41 -150 -31 -198 -46 -31 -151 -33 -181 -3
-29 29 -28 120 2 168 46 74 157 92 210 33z m1099 -49 c-14 -78 -8 -118 21
-133 25 -14 73 -5 116 21 l32 20 0 91 c0 68 3 90 13 87 7 -3 16 -38 22 -89
l10 -84 5 80 c4 66 8 80 23 83 11 2 17 -3 17 -16 0 -30 7 -30 69 1 104 51 135
20 135 -137 1 -88 -1 -101 -16 -104 -16 -3 -18 6 -18 85 0 121 -4 133 -47 133
-36 0 -82 -19 -102 -43 -6 -9 -14 -48 -17 -88 -2 -40 -7 -75 -9 -77 -2 -3 -20
-6 -40 -8 -25 -2 -35 1 -35 11 0 23 -16 26 -54 10 -53 -22 -121 -20 -147 6
-19 19 -21 30 -17 114 4 94 20 137 41 116 7 -7 6 -33 -2 -79z m1050 69 c19
-16 21 -22 12 -32 -10 -10 -17 -10 -37 0 -35 19 -86 -1 -130 -50 -42 -46 -50
-101 -17 -119 28 -15 110 -12 156 6 70 27 75 27 75 10 0 -31 -59 -51 -157 -51
-82 0 -95 2 -115 22 -50 51 -8 149 87 204 59 34 94 36 126 10z m123 -43 c-13
-100 -10 -139 11 -154 27 -20 54 -17 105 9 l45 22 3 93 c2 71 6 92 17 92 19 0
23 -20 27 -150 3 -103 1 -115 -14 -118 -11 -2 -18 3 -18 12 0 24 -15 27 -54
11 -52 -22 -121 -20 -146 5 -37 37 -20 240 21 240 8 0 9 -16 3 -62z m957 52
c20 0 40 -65 46 -155 5 -83 4 -95 -11 -101 -9 -4 -19 -4 -22 -1 -4 3 -9 54
-12 113 l-5 106 -47 -4 c-27 -3 -61 -15 -78 -27 -30 -21 -31 -25 -34 -104 -2
-65 -6 -82 -18 -82 -12 0 -15 22 -18 128 -2 119 -1 128 15 125 10 -2 19 -14
21 -26 l4 -23 41 24 c47 27 75 37 95 31 8 -2 18 -4 23 -4z m279 -12 c36 -25
53 -57 40 -78 -5 -9 -40 -16 -97 -20 -49 -3 -94 -10 -101 -14 -19 -12 -14 -54
9 -77 18 -18 29 -21 71 -16 28 4 66 16 86 27 22 14 38 18 45 11 32 -32 -84
-78 -184 -72 -40 2 -79 46 -79 91 0 58 38 121 90 148 24 12 54 22 66 22 11 0
36 -10 54 -22z m-3240 -3 c19 -23 6 -29 -64 -26 -54 2 -67 -1 -91 -22 -18 -15
-26 -30 -22 -40 5 -13 17 -15 75 -10 44 4 76 1 90 -6 32 -17 28 -54 -9 -85
-31 -27 -127 -60 -156 -54 -28 5 -26 27 4 33 67 14 103 26 124 43 37 31 16 43
-62 36 -58 -6 -72 -4 -89 11 -11 10 -20 28 -20 40 0 24 43 69 80 84 40 16 126
13 140 -4z m1383 -102 c5 -120 1 -140 -27 -130 -13 5 -16 27 -16 127 0 110 1
120 19 120 16 0 19 -12 24 -117z m1355 -11 c4 -118 3 -122 -17 -122 -20 0 -21
5 -21 126 0 114 2 125 18 122 15 -3 17 -19 20 -126z m623 -107 c0 -5 -9 -11
-21 -13 -20 -3 -27 8 -13 22 10 9 34 3 34 -9z m-145 -202 c18 -16 34 -36 34
-45 0 -24 -7 -23 -42 8 l-31 25 -26 -25 c-30 -29 -51 -34 -51 -12 0 13 63 76
76 76 3 0 21 -12 40 -27z m-4910 6 c11 -18 -8 -27 -106 -48 -52 -12 -101 -28
-109 -35 -16 -17 -9 -21 134 -76 86 -34 115 -54 115 -80 0 -28 -55 -71 -121
-95 -47 -17 -64 -28 -64 -41 0 -11 8 -20 20 -22 54 -8 65 -13 65 -32 0 -30
-49 -56 -97 -51 -26 2 -12 18 24 27 50 12 55 34 9 34 -33 0 -37 3 -42 30 -5
25 -11 30 -35 30 -59 0 -102 37 -78 66 10 12 14 11 26 -6 25 -35 136 -23 203
23 19 12 35 27 37 34 2 6 -41 28 -104 53 -123 48 -153 64 -153 85 0 34 70 77
165 101 64 16 102 17 111 3z m619 -171 c-2 -158 -5 -183 -18 -186 -10 -2 -19
6 -23 22 -6 27 -18 33 -29 16 -3 -5 -30 -17 -60 -26 -45 -14 -58 -15 -84 -4
-32 13 -42 31 -43 79 -2 63 85 131 169 131 47 0 53 9 53 75 0 52 8 75 25 75
10 0 12 -39 10 -182z m1219 146 c27 -25 35 -39 28 -46 -7 -7 -21 -2 -44 16
l-35 26 -23 -25 c-24 -26 -50 -33 -50 -14 0 13 64 79 77 79 4 0 25 -16 47 -36z
m3686 -149 c0 -159 -2 -185 -15 -185 -9 0 -20 11 -26 24 l-11 24 -52 -24 c-66
-31 -100 -30 -131 1 -69 68 26 194 148 195 l47 0 0 59 c0 68 6 91 26 91 11 0
14 -34 14 -185z m344 9 c7 -171 3 -206 -22 -190 -11 7 -28 326 -19 351 4 8 13
15 20 15 11 0 15 -36 21 -176z m-5756 133 c2 -10 -3 -17 -12 -17 -18 0 -29 16
-21 31 9 14 29 6 33 -14z m2210 0 c2 -10 -3 -17 -12 -17 -18 0 -29 16 -21 31
9 14 29 6 33 -14z m1860 0 c2 -10 -3 -17 -12 -17 -18 0 -29 16 -21 31 9 14 29
6 33 -14z m-2788 -2 c14 -12 19 -12 43 0 29 15 39 1 15 -23 -26 -26 -88 -8
-88 25 0 17 10 16 30 -2z m5125 5 c9 -14 48 -13 63 2 9 9 12 9 12 -3 0 -23
-21 -39 -50 -39 -28 0 -50 16 -50 37 0 15 16 17 25 3z m-4635 -90 l0 -29 36
24 c48 33 98 33 126 2 l21 -24 41 23 c54 31 111 32 130 2 8 -14 17 -66 21
-130 l6 -108 -25 0 -25 0 -3 108 -3 107 -33 3 c-60 6 -95 -45 -108 -156 -5
-51 -10 -62 -25 -62 -17 0 -19 9 -19 94 0 113 -4 126 -39 126 -52 0 -90 -73
-91 -173 0 -35 -21 -60 -37 -44 -6 7 -4 247 3 259 11 18 24 6 24 -22z m780
-70 c28 -55 53 -100 56 -100 2 0 26 43 51 95 25 52 52 95 59 95 8 0 14 -6 14
-14 0 -20 -89 -219 -106 -236 -13 -13 -17 -12 -35 10 -11 14 -42 70 -69 125
-36 73 -46 103 -38 112 6 7 12 13 14 13 2 0 26 -45 54 -100z m740 1 c24 -50
49 -91 55 -91 7 0 31 41 54 90 39 81 71 115 71 75 0 -21 -89 -217 -106 -235
-13 -13 -17 -12 -34 10 -11 14 -42 70 -69 125 -35 72 -46 103 -39 112 6 7 13
11 17 9 3 -2 26 -45 51 -95z m1078 87 c7 -7 12 -22 12 -35 0 -29 5 -29 41 1
49 42 164 49 164 11 0 -17 -6 -19 -42 -17 -26 2 -55 -4 -80 -16 -62 -32 -77
-56 -83 -131 -4 -58 -8 -66 -25 -66 -19 0 -20 7 -21 108 -1 149 5 174 34 145z
m1326 -130 c5 -92 4 -123 -6 -129 -17 -10 -28 -2 -28 22 0 23 2 23 -51 -1 -75
-33 -130 -26 -154 21 -26 50 -10 219 20 219 21 0 25 -14 15 -51 -6 -19 -11
-58 -11 -88 -1 -42 2 -57 17 -68 25 -18 61 -16 112 7 l42 19 0 89 c0 49 3 92
7 95 19 20 31 -22 37 -135z m-5681 9 c3 -83 1 -116 -8 -126 -27 -28 -35 -1
-35 118 0 65 3 120 6 124 3 3 12 3 19 1 9 -4 14 -39 18 -117z m761 101 c10
-16 15 -57 17 -128 3 -92 1 -105 -14 -108 -14 -3 -17 4 -17 37 0 44 -9 52 -27
23 -26 -42 -128 -66 -174 -42 -41 22 -14 124 48 181 65 61 141 77 167 37z
m286 7 c19 -23 -1 -40 -29 -25 -31 16 -79 -2 -123 -48 -62 -64 -62 -114 -1
-131 37 -10 117 -1 153 19 26 14 63 13 58 -2 -12 -40 -163 -71 -232 -48 -99
32 -83 144 32 220 52 34 120 41 142 15z m311 -1 c15 -18 29 -217 18 -236 -15
-23 -39 1 -39 39 l0 37 -27 -26 c-40 -37 -66 -48 -115 -48 -52 0 -68 13 -68
56 0 47 14 77 57 125 58 65 143 90 174 53z m1566 -14 c6 -14 13 -70 14 -125 3
-87 1 -100 -14 -103 -13 -3 -17 4 -17 32 0 45 -10 50 -40 19 -31 -32 -60 -43
-114 -43 -51 0 -66 13 -66 57 0 90 106 196 190 190 26 -1 38 -8 47 -27z m742
15 c16 -8 31 -22 35 -30 6 -16 8 -54 4 -56 -2 0 -48 -6 -103 -12 l-100 -12 -3
-32 c-6 -63 79 -82 170 -39 44 21 67 13 42 -15 -28 -31 -98 -52 -156 -47 -73
7 -102 41 -95 111 10 108 119 178 206 132z m111 -10 c5 -14 11 -25 14 -25 2 0
24 11 47 25 103 58 140 24 147 -137 4 -94 4 -98 -17 -98 -20 0 -21 5 -21 88 0
128 -4 135 -56 129 -23 -2 -55 -14 -72 -25 -27 -20 -29 -27 -35 -102 -6 -88
-8 -95 -32 -87 -12 5 -15 27 -15 125 0 65 3 122 7 125 12 13 24 7 33 -18z
m1049 16 c10 -6 17 -43 23 -118 9 -117 7 -133 -17 -133 -11 0 -15 11 -15 40
l0 41 -40 -32 c-44 -36 -121 -50 -159 -30 -43 23 -18 124 46 182 55 52 125 73
162 50z m81 -16 c5 -14 11 -25 14 -25 2 0 24 11 47 25 103 58 140 24 147 -137
4 -94 4 -98 -17 -98 -20 0 -21 5 -21 98 0 53 -4 103 -9 111 -13 20 -82 9 -121
-19 -27 -19 -30 -27 -30 -74 0 -30 -3 -68 -6 -85 -7 -33 -28 -41 -38 -14 -7
18 -6 211 1 230 8 21 23 15 33 -12z m1308 13 c26 -26 12 -34 -50 -30 -53 3
-67 1 -90 -18 -16 -12 -28 -30 -28 -40 0 -17 9 -20 86 -22 103 -4 122 -18 88
-65 -40 -55 -183 -101 -192 -62 -2 12 11 19 58 29 74 16 119 46 98 66 -11 11
-25 12 -72 3 -48 -9 -61 -8 -82 6 -32 21 -32 64 0 94 46 43 157 66 184 39z
m273 -4 c15 -18 29 -217 18 -236 -15 -23 -39 1 -39 39 l0 37 -27 -26 c-40 -37
-66 -48 -115 -48 -52 0 -68 13 -68 56 0 47 14 77 57 125 58 65 143 90 174 53z
m-4796 -26 c3 -18 5 -73 3 -123 -2 -72 -6 -90 -18 -90 -12 0 -15 22 -18 123
-2 102 0 122 12 122 9 0 18 -13 21 -32z m517 -85 c6 -116 1 -138 -27 -130 -6
2 -11 56 -13 125 -2 114 -1 122 16 122 17 0 20 -11 24 -117z m1860 0 c6 -116
1 -138 -27 -130 -6 2 -11 56 -13 125 -2 114 -1 122 16 122 17 0 20 -11 24
-117z m3228 42 c5 -14 16 -25 25 -25 8 0 15 -4 15 -10 0 -6 10 -5 25 2 20 9
28 9 38 -1 9 -9 7 -16 -12 -30 -15 -12 -22 -24 -18 -34 9 -24 -14 -33 -29 -12
-16 22 -64 47 -79 41 -7 -2 -18 0 -26 5 -12 8 -11 12 6 25 13 9 19 24 17 39
-5 34 25 33 38 0z m-7963 -32 c4 -12 -123 -31 -134 -19 -10 10 2 16 48 25 55
11 81 9 86 -6z m7821 -312 c3 -33 8 -44 23 -48 26 -7 26 -49 -2 -56 -11 -3
-33 -4 -50 -2 -20 3 -29 0 -29 -10 0 -8 -6 -12 -13 -9 -7 2 -23 -9 -36 -26
-15 -21 -29 -30 -44 -28 -19 3 -22 9 -19 41 2 27 -1 37 -12 37 -20 0 -46 38
-39 57 6 15 49 14 86 -2 13 -5 17 -2 17 15 0 19 2 20 15 10 9 -7 17 -11 18 -9
1 2 10 21 20 42 14 30 22 38 40 35 18 -2 23 -10 25 -47z m-6948 -68 c0 -38 3
-119 7 -180 6 -108 5 -113 -14 -113 -18 0 -20 9 -26 122 -12 210 -10 238 13
238 18 0 20 -7 20 -67z m430 20 c0 -81 7 -93 51 -93 32 0 39 -3 39 -20 0 -17
-7 -20 -43 -20 l-43 0 4 -89 c3 -61 0 -91 -8 -96 -6 -4 -15 -3 -20 1 -6 7 -18
104 -20 171 0 6 -21 13 -50 15 l-50 3 0 -92 c0 -86 -1 -93 -20 -93 -17 0 -20
7 -20 41 l0 41 -35 -30 c-77 -68 -185 -62 -185 10 0 69 81 166 159 189 34 10
44 9 66 -5 14 -9 25 -23 25 -31 0 -8 5 -15 10 -15 6 0 10 5 10 10 0 6 20 10
45 10 l45 0 0 70 c0 63 2 70 20 70 17 0 20 -7 20 -47z m2613 -50 c4 -54 7
-135 7 -181 0 -74 -2 -83 -17 -80 -16 3 -19 22 -25 168 -7 176 -6 190 15 190
11 0 16 -24 20 -97z m2457 24 c0 -41 3 -122 7 -180 6 -102 5 -107 -14 -107
-18 0 -20 9 -26 122 -12 210 -10 238 13 238 18 0 20 -7 20 -73z m-6177 23 c9
0 19 5 22 10 3 6 13 10 22 10 14 0 14 -3 -2 -20 -31 -35 -112 -16 -89 21 5 9
10 8 19 -4 7 -10 19 -17 28 -17z m2597 15 c0 -16 -35 -21 -44 -6 -8 12 4 21
26 21 10 0 18 -7 18 -15z m703 -15 c9 0 19 5 22 10 3 6 13 10 22 10 14 0 14
-3 -2 -20 -31 -35 -112 -16 -89 21 5 9 10 8 19 -4 7 -10 19 -17 28 -17z
m-2443 8 c16 -10 24 -10 41 0 25 16 37 8 19 -13 -11 -13 -80 -22 -80 -11 0 2
-3 11 -6 20 -7 19 0 20 26 4z m-1253 -88 c3 -16 7 -30 9 -30 2 0 19 11 38 24
42 29 117 42 146 26 33 -18 18 -35 -31 -36 -53 -2 -120 -33 -142 -67 -9 -14
-17 -51 -19 -83 -3 -52 -6 -59 -25 -62 -23 -3 -23 -3 -23 127 0 125 1 131 20
131 15 0 22 -9 27 -30z m458 16 c17 -12 21 -31 25 -123 5 -80 3 -112 -6 -122
-11 -12 -15 -10 -23 12 -6 15 -8 34 -5 42 9 22 -4 19 -38 -10 -34 -29 -100
-49 -131 -39 -36 11 -47 25 -47 61 0 108 155 231 225 179z m249 4 c14 -5 26
-17 26 -26 0 -13 -8 -15 -49 -9 -33 4 -59 2 -84 -8 -34 -15 -65 -52 -52 -65 3
-3 41 -5 84 -3 62 2 82 -1 95 -14 23 -23 20 -33 -17 -70 -31 -31 -114 -65
-158 -65 -20 0 -34 29 -16 34 6 2 35 9 62 15 60 14 95 36 95 57 0 13 -11 15
-75 9 -87 -8 -105 0 -105 49 0 42 35 75 97 92 60 16 66 16 97 4z m239 -1 c47
-13 71 -47 62 -89 -14 -62 -98 -131 -178 -145 l-38 -7 1 -92 c2 -122 3 -116
-20 -116 -19 0 -20 7 -20 226 l0 226 28 -6 c15 -3 43 -2 62 3 49 12 60 12 103
0z m883 -14 c28 -18 42 -61 25 -78 -7 -7 -53 -14 -102 -18 -63 -3 -93 -9 -100
-20 -13 -21 -11 -34 9 -58 24 -30 96 -31 157 -1 47 23 62 22 52 -4 -11 -28
-83 -56 -145 -56 -77 0 -112 28 -112 89 0 128 120 209 216 146z m263 14 c17
-6 31 -18 31 -26 0 -12 -9 -14 -49 -8 -33 4 -59 2 -84 -8 -34 -15 -65 -52 -52
-65 3 -3 41 -5 83 -3 68 2 80 0 97 -19 18 -20 18 -21 -2 -47 -26 -36 -104 -74
-156 -76 -69 -3 -53 23 26 42 124 32 132 76 12 65 -70 -6 -73 -6 -89 18 -31
47 10 102 91 124 61 16 55 16 92 3z m282 1 c21 -12 25 -35 8 -46 -6 -3 -16 -1
-22 5 -18 18 -51 13 -98 -18 -75 -47 -98 -130 -42 -152 37 -14 78 -11 140 11
67 23 83 25 83 7 0 -24 -72 -50 -150 -54 -67 -4 -79 -2 -110 19 -60 40 -51
107 22 174 64 57 125 77 169 54z m542 -7 c4 -2 7 -11 7 -20 0 -12 -9 -14 -49
-8 -33 4 -59 2 -84 -8 -34 -15 -65 -52 -52 -65 3 -3 41 -5 84 -3 62 2 82 -1
95 -14 9 -9 16 -20 16 -24 0 -16 -42 -62 -71 -76 -17 -9 -29 -24 -29 -36 0
-20 4 -23 53 -33 40 -9 46 -35 13 -63 -28 -24 -70 -31 -81 -13 -6 10 1 14 48
24 41 9 35 36 -8 36 -32 0 -36 3 -42 30 -5 30 -7 31 -48 24 -34 -5 -43 -3 -48
10 -7 18 -6 19 68 36 59 13 95 35 95 56 0 13 -11 15 -75 9 -87 -8 -105 0 -105
49 0 42 35 75 97 92 42 11 94 10 116 -3z m384 -13 c3 -16 7 -30 9 -30 2 0 19
11 38 24 42 29 117 42 146 26 33 -18 18 -35 -31 -36 -53 -2 -120 -33 -142 -68
-11 -16 -17 -46 -17 -84 0 -51 -3 -60 -19 -65 -11 -3 -22 -2 -25 1 -3 3 -6 63
-6 134 0 122 1 128 20 128 15 0 22 -9 27 -30z m458 16 c17 -12 21 -31 25 -123
5 -80 3 -112 -6 -122 -11 -12 -15 -10 -23 12 -6 15 -8 34 -5 42 9 22 -4 19
-38 -10 -51 -43 -127 -53 -165 -23 -23 18 -15 81 16 130 53 83 148 129 196 94z
m97 -17 c-13 -131 -14 -160 -2 -174 18 -22 88 -19 128 5 l32 20 0 91 c0 81 2
90 18 87 14 -3 18 -21 25 -122 5 -65 6 -124 3 -132 -8 -21 -27 -17 -33 6 -6
24 -10 24 -56 5 -20 -8 -55 -15 -77 -15 -75 0 -101 57 -80 177 6 37 14 71 17
76 10 16 28 0 25 -24z m750 10 c83 -45 -2 -187 -132 -220 l-50 -13 0 -103 c0
-62 -4 -103 -10 -103 -5 0 -10 -4 -10 -10 0 -14 43 -13 58 2 20 20 26 -1 7
-22 -19 -21 -50 -26 -73 -12 -9 6 -13 66 -14 247 l-1 239 57 2 c31 1 60 5 64
9 9 8 78 -2 104 -16z m269 -2 c39 -26 50 -64 23 -84 -10 -8 -45 -13 -83 -13
-94 0 -111 -7 -111 -40 0 -37 24 -60 63 -61 51 -2 69 2 110 22 45 23 66 16 40
-13 -55 -62 -196 -67 -240 -9 -26 34 -7 127 35 175 21 24 69 45 103 46 14 0
41 -10 60 -23z m527 7 c19 -13 21 -19 11 -30 -8 -10 -15 -12 -23 -4 -18 18
-60 11 -103 -16 -70 -46 -95 -117 -51 -148 31 -22 75 -20 153 5 36 12 68 19
71 16 28 -27 -71 -67 -165 -67 -66 0 -117 26 -127 65 -9 38 22 101 71 141 68
55 121 68 163 38z m306 3 c23 -17 35 -75 36 -169 0 -71 -2 -78 -20 -78 -16 0
-20 7 -20 35 0 19 -3 35 -6 35 -3 0 -19 -11 -35 -25 -53 -44 -141 -54 -170
-19 -18 22 -4 93 29 138 29 40 117 96 151 96 10 0 25 -6 35 -13z m103 -17 c3
-16 7 -30 9 -30 2 0 19 11 39 24 62 42 155 46 155 6 0 -15 -8 -18 -43 -18 -47
1 -105 -22 -134 -54 -12 -14 -20 -41 -23 -87 -4 -59 -7 -66 -27 -69 -23 -3
-23 -3 -23 127 0 125 1 131 20 131 15 0 22 -9 27 -30z m419 5 c13 -8 27 -27
30 -42 10 -38 -16 -53 -95 -53 -36 0 -76 -3 -88 -6 -30 -8 -38 -39 -19 -69 14
-21 24 -25 68 -25 32 0 68 8 95 21 46 22 60 21 50 -5 -11 -28 -83 -56 -145
-56 -77 0 -112 28 -112 89 0 128 120 209 216 146z m770 17 c6 -4 16 -16 22
-28 12 -23 18 -206 7 -223 -13 -21 -35 9 -35 48 -1 28 -3 32 -10 19 -29 -49
-146 -80 -184 -49 -22 18 -20 73 4 120 39 78 152 143 196 113z m94 -17 c0 -28
12 -32 30 -11 21 26 78 39 110 26 16 -6 31 -18 34 -26 4 -11 12 -10 45 6 95
50 151 30 151 -52 0 -24 3 -73 7 -110 6 -65 5 -68 -16 -68 -20 0 -21 5 -21 91
0 50 -5 99 -10 110 -14 25 -51 24 -84 -2 -38 -30 -49 -56 -55 -129 -5 -57 -9
-65 -27 -68 -21 -3 -22 1 -21 85 1 107 -7 133 -37 133 -50 0 -95 -85 -96 -182
0 -31 -4 -38 -20 -38 -19 0 -20 7 -20 123 0 68 3 127 7 130 13 14 23 6 23 -18z
m-4089 -100 c6 -122 4 -137 -20 -133 -14 3 -16 22 -19 126 -2 114 -1 123 15
120 16 -3 19 -18 24 -113z m3746 1 c-5 -15 -118 -29 -131 -16 -14 14 -6 19 55
28 59 9 82 6 76 -12z m1806 -132 c33 -47 47 -48 47 -4 0 16 4 31 9 34 11 7 21
-17 21 -50 0 -30 13 -31 33 -1 45 68 84 90 129 75 25 -9 28 -15 28 -53 0 -31
-6 -49 -25 -69 -14 -15 -25 -31 -25 -35 0 -5 11 -16 25 -25 45 -30 24 -90 -35
-97 -25 -3 -110 38 -110 53 0 22 -20 4 -28 -24 l-9 -33 -7 33 c-8 36 -17 40
-37 16 -7 -8 -29 -24 -50 -35 -31 -15 -43 -17 -68 -8 -48 17 -56 84 -11 96 25
7 25 25 0 48 -29 26 -44 79 -30 105 28 53 96 40 143 -26z m-3551 -190 c30 -16
58 -49 58 -66 0 -24 -13 -23 -36 3 -24 26 -67 49 -93 49 -11 0 -27 -10 -35
-22 -20 -27 -21 -117 -3 -142 12 -16 19 -17 72 -7 85 16 105 14 105 -7 0 -16
-12 -20 -82 -28 l-83 -9 3 -57 c4 -53 2 -58 -17 -58 -17 0 -21 6 -21 33 0 17
-3 42 -6 55 -6 21 -11 23 -47 17 -28 -5 -42 -3 -48 6 -6 11 2 17 34 24 l42 11
0 79 c0 91 14 121 60 134 28 7 69 1 97 -15z m-2241 9 c3 -15 7 -68 8 -100 1
-30 3 -32 43 -35 31 -2 44 -8 46 -20 3 -15 -4 -18 -43 -18 l-47 0 3 -92 c3
-87 2 -93 -16 -93 -18 0 -20 8 -23 88 l-3 87 -35 0 c-19 0 -45 5 -56 11 -20
11 -20 9 -17 -83 4 -90 3 -93 -18 -96 -23 -3 -23 -2 -23 123 0 115 2 126 18
123 9 -2 18 -12 20 -24 3 -18 8 -19 50 -14 l47 5 3 60 c1 33 5 66 7 73 5 13
34 17 36 5z m3134 -17 c38 -25 34 -70 -11 -111 -20 -19 -49 -39 -65 -45 -33
-14 -38 -30 -10 -30 11 0 23 -4 26 -10 10 -16 -78 -12 -100 4 -18 13 -16 16
30 42 27 16 67 46 89 67 l41 37 -25 21 c-22 19 -32 20 -85 13 -89 -11 -108
-10 -112 3 -12 33 173 41 222 9z m-3800 -15 c0 -8 -4 -16 -10 -18 -16 -5 -38
14 -30 26 9 16 40 9 40 -8z m511 8 c11 -19 -13 -34 -31 -19 -13 11 -13 15 -3
21 18 12 26 11 34 -2z m5145 -29 c26 -14 55 -75 63 -132 4 -27 11 -48 16 -48
5 0 23 21 40 46 18 25 34 44 36 41 2 -2 -3 -27 -12 -56 -8 -29 -13 -55 -11
-57 2 -3 27 7 55 22 71 37 130 42 160 14 33 -32 29 -72 -13 -115 -20 -19 -47
-38 -60 -41 -30 -7 -30 -13 -7 -53 15 -28 16 -33 2 -58 -12 -22 -24 -29 -56
-31 -50 -4 -81 19 -115 82 -13 25 -29 46 -35 46 -6 0 -19 -16 -30 -35 -25 -46
-38 -45 -19 2 21 51 15 64 -27 52 -61 -17 -114 -11 -147 17 -36 30 -39 51 -10
88 14 18 30 26 51 26 28 0 30 2 23 28 -33 117 18 203 96 162z m-5943 -52 c7
-7 12 -23 12 -37 0 -22 1 -23 18 -9 34 31 82 48 130 48 34 0 52 -5 55 -14 8
-20 -2 -26 -45 -26 -49 0 -96 -20 -128 -54 -20 -22 -26 -41 -30 -94 -4 -59 -7
-67 -25 -67 -19 0 -20 8 -23 133 -2 104 0 132 11 132 7 0 18 -5 25 -12z m362
-19 l0 -31 31 26 c39 33 99 36 127 6 l19 -20 57 26 c105 48 133 21 138 -136 3
-102 2 -105 -19 -108 -23 -3 -23 -2 -23 102 0 95 -2 106 -20 116 -14 8 -28 7
-53 -4 -42 -17 -66 -65 -75 -149 -5 -47 -11 -63 -24 -65 -16 -3 -18 7 -18 95
0 120 -11 143 -55 122 -47 -23 -65 -58 -72 -136 -6 -69 -19 -93 -43 -78 -6 4
-7 239 -1 263 1 1 8 2 16 2 10 0 15 -10 15 -31z m1241 12 c32 -26 15 -48 -24
-30 -34 15 -73 0 -120 -48 -43 -43 -53 -77 -32 -109 13 -20 23 -24 70 -24 30
0 78 9 106 20 29 10 56 17 61 14 44 -28 -111 -82 -195 -68 -54 9 -97 48 -97
88 0 57 79 145 148 166 43 13 58 11 83 -9z m288 -1 c39 -19 51 -36 51 -70 0
-24 -11 -27 -119 -35 l-91 -8 0 -33 c0 -64 69 -82 161 -43 58 25 76 17 36 -17
-60 -52 -173 -57 -214 -9 -49 57 -13 172 67 213 54 27 61 27 109 2z m1882 1
c18 -15 21 -22 13 -31 -9 -9 -17 -9 -33 0 -31 16 -80 -2 -125 -47 -45 -45 -54
-75 -32 -108 14 -22 24 -25 71 -25 30 0 78 9 106 20 54 20 72 19 63 -4 -7 -18
-41 -32 -111 -46 -148 -29 -229 54 -154 157 64 88 152 125 202 84z m-4056 -1
c4 -6 15 -6 31 0 34 13 130 13 155 -1 30 -15 42 -56 29 -95 -15 -45 -89 -110
-142 -124 -23 -7 -49 -14 -56 -16 -10 -3 -13 -28 -11 -100 2 -93 -7 -124 -30
-110 -7 5 -11 81 -11 232 0 188 2 224 14 224 8 0 17 -4 21 -10z m579 -51 c3
-34 6 -91 6 -126 0 -61 -1 -64 -22 -61 -22 3 -23 8 -26 93 -4 105 4 155 22
155 9 0 15 -21 20 -61z m2126 41 c12 -23 14 -23 -67 -20 -55 2 -65 -1 -88 -24
-45 -45 -35 -56 54 -56 44 0 86 -3 95 -6 23 -9 20 -47 -6 -72 -54 -50 -188
-84 -188 -48 0 10 20 19 61 27 120 24 151 92 32 71 -73 -13 -106 0 -111 42 -7
56 65 105 155 106 42 0 54 -4 63 -20z m268 -4 c8 -19 16 -154 13 -223 -2 -23
-31 -14 -33 10 0 12 -2 27 -3 32 -2 6 -3 14 -4 19 0 6 -13 -2 -28 -16 -51 -48
-136 -64 -168 -31 -41 40 11 161 89 208 56 34 119 34 134 1z m811 1 c5 -12 11
-70 12 -127 3 -88 2 -105 -11 -105 -10 0 -16 12 -18 38 -4 42 -11 46 -38 16
-24 -27 -74 -49 -111 -49 -88 0 -98 88 -21 176 46 52 86 74 136 74 35 0 44 -4
51 -23z m-2379 -200 c0 -17 -48 -87 -60 -87 -13 0 -13 1 10 54 18 42 50 64 50
33z m2900 -12 c0 -8 -9 -15 -20 -15 -11 0 -20 7 -20 15 0 8 9 15 20 15 11 0
20 -7 20 -15z m2773 -39 c-4 -18 0 -25 17 -29 32 -8 17 -23 -30 -30 -28 -3
-47 -14 -61 -31 -22 -28 -44 -25 -36 5 3 12 -2 23 -14 29 -10 6 -19 18 -19 27
0 12 7 14 35 10 20 -3 35 -2 35 4 0 6 5 7 10 4 6 -3 13 2 17 12 3 10 11 24 16
31 14 18 35 -3 30 -32z m-5783 -168 c39 -32 51 -58 29 -58 -6 0 -25 11 -41 26
l-31 25 -26 -25 c-30 -29 -41 -32 -41 -14 0 11 58 78 68 78 2 0 21 -15 42 -32z
m-1735 2 c0 -11 -24 -20 -80 -33 -89 -20 -145 -42 -145 -56 0 -5 39 -23 88
-40 115 -42 166 -71 170 -98 10 -70 -213 -152 -296 -109 -32 17 -41 39 -21 51
5 4 18 0 28 -9 26 -24 106 -20 166 8 46 21 84 52 74 60 -2 1 -60 25 -129 52
-135 54 -149 68 -110 109 52 55 255 107 255 65z m2395 -165 c0 -157 -2 -185
-15 -185 -8 0 -17 11 -21 25 -3 14 -7 25 -8 25 0 0 -23 -11 -50 -25 -82 -41
-147 -28 -161 34 -16 74 61 151 160 159 60 5 65 12 65 93 0 45 5 59 22 59 4 0
8 -83 8 -185z m442 102 l3 -62 43 -3 c34 -3 43 -7 40 -19 -2 -12 -14 -17 -43
-17 l-40 -1 3 -92 c2 -86 1 -93 -17 -93 -26 0 -31 18 -31 105 l0 74 -47 3
c-35 2 -48 7 -48 18 0 10 13 16 43 18 l42 3 0 63 c0 109 47 112 52 3z m2468
34 c0 -21 3 -53 6 -70 6 -28 10 -31 45 -31 21 0 41 -5 44 -11 10 -15 2 -19
-41 -22 l-39 -2 -3 -92 c-2 -84 -5 -93 -22 -93 -17 0 -20 9 -22 88 l-3 87 -45
5 c-61 7 -63 34 -2 38 l42 3 0 69 c0 46 4 70 13 73 21 7 27 -3 27 -42z m-660
21 c48 -23 53 -63 13 -104 -36 -38 -79 -56 -173 -72 l-75 -12 -3 -77 c-3 -70
-5 -77 -23 -77 -20 0 -21 4 -17 151 l3 151 33 29 c30 27 37 29 120 29 63 0 97
-5 122 -18z m-2770 -18 c0 -15 -10 -17 -34 -8 -13 5 -14 10 -6 20 14 15 40 8
40 -12z m-1674 -1 c12 -17 15 -17 44 -1 30 17 31 17 28 1 -8 -41 -88 -41 -96
1 -4 21 7 21 24 -1z m780 0 c12 -17 15 -17 44 -1 31 18 43 5 18 -20 -26 -26
-88 -8 -88 25 0 18 10 16 26 -4z m-699 -71 c23 -14 33 -64 33 -158 0 -86 -2
-95 -17 -92 -12 2 -20 15 -23 42 l-5 38 -20 -22 c-30 -34 -69 -50 -119 -50
-73 0 -91 34 -60 108 36 88 160 167 211 134z m324 -22 l11 -29 36 24 c64 41
168 46 160 7 -2 -13 -11 -16 -36 -14 -46 5 -94 -14 -130 -51 -27 -28 -31 -40
-34 -97 -3 -59 -5 -65 -25 -68 -23 -3 -23 -3 -23 127 0 112 2 131 16 131 8 0
20 -13 25 -30z m456 22 c23 -14 33 -64 33 -158 0 -86 -2 -95 -17 -92 -12 2
-20 15 -23 42 l-5 38 -20 -22 c-11 -12 -32 -28 -47 -36 -33 -17 -110 -18 -126
-2 -14 14 -16 67 -3 101 31 81 159 160 208 129z m93 -18 l0 -25 28 19 c15 11
44 23 63 27 29 5 41 2 64 -17 l27 -24 46 23 c93 47 142 21 142 -74 0 -32 3
-82 6 -110 6 -52 6 -53 -20 -53 l-25 0 -3 108 -3 107 -33 3 c-61 6 -112 -79
-112 -188 0 -23 -5 -30 -20 -30 -19 0 -20 7 -20 94 0 108 -5 126 -32 126 -55
0 -87 -50 -95 -151 -5 -64 -8 -70 -27 -67 -12 2 -21 9 -20 16 1 6 2 64 3 127
1 95 4 115 16 115 9 0 15 -10 15 -26z m617 18 c23 -14 33 -64 33 -158 0 -86
-2 -95 -17 -92 -12 2 -20 15 -23 42 l-5 38 -20 -22 c-30 -34 -69 -50 -119 -50
-37 0 -48 5 -61 24 -13 20 -14 32 -5 66 25 92 161 188 217 152z m883 -2 c23
-12 28 -35 31 -150 3 -80 1 -95 -13 -98 -16 -3 -34 41 -23 58 3 5 1 11 -5 15
-5 3 -10 2 -10 -4 0 -6 -17 -22 -37 -36 -28 -19 -51 -25 -88 -25 -60 0 -75 12
-75 57 0 105 143 224 220 183z m516 -24 c32 -32 40 -57 34 -111 -9 -87 -143
-145 -229 -100 -34 17 -41 33 -41 89 0 81 76 156 157 156 38 0 51 -6 79 -34z
m274 24 c23 -12 28 -35 31 -150 3 -83 1 -95 -14 -98 -13 -3 -17 4 -17 32 0 20
-2 36 -5 36 -3 0 -24 -13 -47 -30 -33 -24 -51 -30 -93 -30 -60 0 -75 12 -75
57 0 104 144 224 220 183z m101 -20 l11 -29 36 24 c64 41 168 46 160 7 -2 -13
-11 -16 -36 -14 -47 5 -94 -14 -130 -51 -28 -29 -32 -40 -35 -98 -2 -58 -4
-64 -24 -67 -23 -3 -23 -3 -23 127 0 112 2 131 16 131 8 0 20 -13 25 -30z
m409 15 c31 -16 50 -43 50 -69 0 -20 -59 -36 -135 -36 -63 0 -85 -11 -85 -42
0 -57 83 -74 171 -37 27 12 52 19 56 16 13 -13 -9 -39 -49 -57 -83 -38 -188
-19 -209 37 -22 59 31 167 96 194 32 13 74 10 105 -6z m891 -8 c35 -23 49 -61
30 -80 -6 -6 -52 -13 -103 -16 l-93 -6 -3 -31 c-5 -51 20 -67 90 -61 32 3 70
13 84 22 33 21 63 13 43 -12 -24 -28 -92 -53 -146 -53 -41 0 -58 5 -83 27 -30
25 -32 30 -28 80 5 60 27 96 78 131 42 28 88 28 131 -1z m291 -8 c15 -20 21
-49 25 -128 6 -97 5 -101 -15 -101 -21 0 -23 8 -35 180 -2 30 -6 35 -29 38
-27 3 -79 -18 -110 -46 -14 -12 -18 -31 -18 -94 0 -71 -2 -78 -20 -78 -19 0
-20 7 -20 125 0 118 1 125 20 125 13 0 20 -7 20 -20 0 -26 5 -25 65 5 60 31
91 29 117 -6z m324 2 l6 -30 38 24 c67 43 160 46 160 5 0 -16 -5 -18 -34 -13
-46 7 -97 -11 -132 -48 -25 -26 -30 -41 -34 -97 -4 -60 -7 -67 -27 -70 -23 -3
-23 -3 -23 127 0 125 1 131 20 131 15 0 22 -8 26 -29z m280 2 c-4 -16 -9 -60
-13 -99 -5 -68 -4 -73 17 -84 28 -15 92 -8 125 14 24 16 25 22 25 107 0 81 2
90 18 87 13 -3 19 -18 25 -78 11 -109 6 -185 -13 -185 -8 0 -16 10 -18 22 l-3
21 -42 -19 c-23 -10 -61 -19 -84 -19 -78 0 -104 56 -83 177 13 77 16 83 37 83
12 0 14 -6 9 -27z m-3862 -6 c10 -41 9 -208 -2 -219 -24 -24 -32 6 -32 123 0
95 3 119 14 119 8 0 16 -10 20 -23z m-2419 -87 c0 -11 -16 -16 -58 -20 -93 -8
-109 15 -20 30 62 10 78 8 78 -10z m8184 -73 c39 -32 55 -154 26 -193 -27 -36
-19 -54 24 -54 27 0 46 -7 66 -26 24 -22 27 -31 22 -67 -4 -31 -14 -49 -37
-69 -42 -35 -66 -38 -162 -21 -44 7 -83 11 -86 8 -3 -2 5 -30 17 -61 12 -31
19 -59 17 -62 -3 -2 -20 19 -37 47 -18 28 -35 51 -40 51 -4 0 -23 -28 -42 -62
-49 -88 -73 -108 -139 -115 -52 -5 -55 -4 -82 28 -32 37 -30 71 5 120 23 33
18 49 -16 49 -32 0 -104 57 -127 102 -18 33 -18 39 -4 72 18 44 72 71 125 62
42 -7 137 -52 163 -78 26 -26 34 -2 15 44 -16 38 -32 118 -24 118 3 0 27 -33
53 -72 l48 -73 17 82 c27 127 54 170 114 186 26 7 66 -1 84 -16z m-3564 -48
c0 -8 -10 -15 -22 -17 -25 -4 -30 7 -11 26 15 15 33 10 33 -9z m3302 -5 c-3
-3 -12 -4 -19 -1 -8 3 -5 6 6 6 11 1 17 -2 13 -5z m-789 -141 c2 -14 8 -20 18
-16 8 3 14 0 14 -6 0 -8 11 -10 35 -5 28 5 35 3 35 -10 0 -9 -7 -19 -15 -22
-8 -4 -15 -17 -15 -29 0 -13 -4 -26 -9 -30 -10 -5 -37 17 -43 35 -2 6 -23 14
-46 17 -48 6 -65 22 -32 30 17 5 20 10 15 35 -6 27 -5 29 17 26 15 -2 24 -11
26 -25z m-5076 -110 l3 -68 43 -3 c34 -3 42 -7 42 -23 0 -16 -7 -19 -40 -19
-45 0 -41 11 -43 -115 -2 -55 -5 -70 -17 -70 -12 0 -17 21 -24 93 l-9 92 -42
0 c-23 0 -45 3 -48 7 -14 14 17 33 54 33 l39 0 0 70 c0 63 2 70 20 70 17 0 19
-8 22 -67z m508 20 c0 -81 7 -92 53 -95 30 -2 43 -8 45 -20 3 -15 -4 -18 -42
-18 l-45 0 -3 -92 c-2 -75 -6 -93 -18 -93 -12 0 -16 19 -20 90 l-5 90 -40 3
c-60 4 -70 9 -55 27 7 9 29 15 51 15 l39 0 0 63 c0 66 4 77 27 77 9 0 13 -15
13 -47z m360 -134 c0 -166 -1 -180 -17 -177 -10 2 -19 13 -21 26 -2 12 -4 22
-5 22 -1 0 -24 -11 -51 -25 -67 -34 -118 -33 -145 1 -27 34 -26 57 1 105 28
50 111 94 162 86 31 -5 34 -3 40 25 3 17 6 47 6 68 0 37 6 50 22 50 4 0 8 -81
8 -181z m-528 42 c57 -63 43 -148 -31 -198 -46 -31 -137 -32 -175 -2 -22 18
-26 28 -26 76 0 70 25 113 83 143 57 29 112 22 149 -19z m763 25 c35 -15 55
-42 55 -74 0 -24 -25 -32 -105 -32 -91 0 -105 -6 -105 -46 0 -67 79 -83 171
-34 43 22 55 21 46 -4 -9 -23 -49 -45 -99 -54 -61 -12 -102 -4 -133 24 -59 54
-7 192 85 227 26 9 49 8 85 -7z m336 -35 c5 -20 9 -76 7 -126 -2 -72 -6 -90
-18 -90 -10 0 -16 13 -18 41 l-3 41 -28 -27 c-37 -38 -101 -55 -147 -40 -32
11 -34 15 -34 53 1 101 116 206 207 189 16 -3 26 -15 34 -41z m82 23 c-2 -10
-7 -45 -11 -77 -16 -109 9 -142 90 -118 72 22 78 32 78 133 0 80 2 89 18 86
14 -3 18 -21 25 -122 4 -66 5 -126 3 -133 -8 -21 -36 -15 -36 7 0 24 -7 25
-53 5 -20 -8 -56 -15 -81 -15 -37 0 -48 5 -66 28 -20 24 -22 36 -18 107 4 82
20 129 41 122 7 -2 11 -13 10 -23z m414 11 c30 -21 43 -74 43 -173 0 -74 -2
-83 -17 -80 -15 3 -19 19 -23 108 l-5 105 -48 -1 c-31 0 -56 -7 -75 -21 -25
-18 -27 -27 -32 -104 -4 -66 -8 -84 -20 -84 -12 0 -15 22 -18 128 -2 108 0
127 13 127 8 0 17 -11 21 -25 6 -23 7 -23 30 -8 21 13 89 41 104 43 3 0 15 -7
27 -15z m311 -20 c12 -27 18 -207 7 -224 -12 -20 -35 8 -35 41 l0 30 -30 -26
c-53 -44 -129 -55 -167 -24 -34 27 4 139 63 186 38 30 97 51 130 44 12 -2 26
-14 32 -27z m82 -210 c0 -8 -9 -15 -20 -15 -20 0 -26 11 -13 23 12 13 33 7 33
-8z m2527 -134 c55 -34 84 -103 119 -278 7 -34 21 -28 45 20 12 23 32 55 45
70 16 19 24 41 24 67 0 43 -10 54 -41 45 -24 -8 -20 -31 6 -27 10 2 14 -1 10
-7 -10 -17 -32 -13 -39 6 -5 11 -1 22 10 30 36 26 64 7 64 -44 0 -39 3 -40 37
-13 29 22 48 25 59 9 4 -8 0 -9 -15 -4 -26 8 -81 -42 -81 -74 0 -12 -9 -47
-20 -78 -27 -76 -26 -78 15 -53 85 53 161 83 222 88 57 4 66 2 100 -24 49 -36
53 -42 53 -87 0 -47 -23 -93 -64 -130 -33 -30 -105 -67 -130 -67 -20 0 -21
-24 -3 -42 78 -78 25 -198 -88 -198 -74 0 -130 47 -191 163 -19 37 -39 67 -44
67 -5 0 -28 -32 -52 -72 -50 -84 -60 -72 -24 28 14 37 23 70 21 72 -2 2 -49
-4 -104 -13 -131 -22 -164 -16 -218 41 -37 38 -43 50 -43 87 0 34 6 49 28 69
32 30 82 49 110 41 27 -7 36 12 18 39 -49 78 -31 232 32 271 36 22 100 21 139
-2z m1249 -149 c23 -15 36 -56 32 -105 -3 -45 0 -52 17 -55 53 -10 64 -52 26
-96 -14 -16 -26 -18 -85 -13 l-68 6 6 -37 c5 -31 5 -34 -5 -17 -21 36 -65 62
-53 30 7 -18 -31 -81 -56 -95 -27 -15 -66 -12 -80 5 -16 19 -16 68 -1 73 22 7
11 30 -20 41 -66 23 -91 96 -44 127 22 15 32 15 68 5 23 -7 53 -19 65 -28 31
-20 38 -11 24 34 -6 20 -10 39 -8 41 2 2 16 -13 31 -32 32 -42 45 -45 45 -12
0 90 58 161 106 128z m-901 -21 c-8 -13 -32 -14 -39 -2 -4 5 3 7 14 4 12 -3
20 0 20 8 0 7 3 10 6 6 3 -3 3 -10 -1 -16z m-2154 -23 c50 -14 118 -72 135
-115 19 -45 17 -110 -5 -158 -37 -80 -140 -153 -189 -134 -29 11 -38 35 -21
56 38 46 149 93 149 63 0 -5 -7 -10 -17 -10 -28 0 -113 -61 -113 -81 0 -10 6
-19 13 -19 30 1 96 41 113 69 10 17 21 31 25 31 14 0 39 82 39 129 0 148 -208
221 -299 105 -28 -36 -28 -88 2 -109 12 -10 16 -15 8 -13 -8 2 -23 16 -34 30
-25 34 -16 77 26 118 47 46 101 59 168 38z m-1829 -56 c-49 -32 -83 -75 -124
-157 -17 -33 -41 -74 -54 -91 -13 -17 -20 -34 -17 -38 4 -3 0 -6 -7 -6 -7 0
-27 -10 -44 -23 -48 -36 -65 -42 -27 -9 23 19 32 35 28 45 -4 11 -2 14 8 11
15 -6 63 54 97 121 11 22 38 64 59 93 22 28 37 52 34 52 -3 0 -28 -11 -55 -25
-62 -31 -147 -116 -159 -158 -9 -31 -9 -31 -10 -5 -1 34 50 101 114 151 52 39
118 65 169 66 29 1 29 1 -12 -27z m-2042 11 c-33 -6 -50 -21 -66 -58 l-13 -30
-1 27 c0 33 42 69 79 67 l26 -2 -25 -4z m403 -40 c3 -5 -30 -8 -74 -8 -78 0
-78 0 -119 -40 -46 -45 -110 -134 -114 -158 -1 -8 -7 -21 -13 -28 -33 -43 -18
-78 35 -81 36 -1 36 -1 5 -5 -39 -5 -69 9 -76 37 -7 29 43 124 99 188 25 29
44 55 41 59 -3 3 -35 -5 -70 -16 -58 -20 -68 -27 -95 -71 l-30 -49 30 -3 31
-3 -27 -33 c-29 -34 -48 -35 -39 -2 8 30 -4 25 -61 -28 -68 -61 -163 -112
-211 -112 -51 0 -95 44 -95 95 0 39 19 83 44 104 23 19 20 5 -3 -18 -23 -23
-36 -80 -27 -116 8 -33 59 -59 101 -51 33 7 128 67 178 114 30 29 22 42 -25
42 -16 0 -28 4 -28 9 0 5 23 7 53 4 50 -4 53 -3 74 29 37 56 38 65 5 60 -18
-2 -33 2 -42 12 -12 15 -10 16 14 6 41 -15 72 -3 85 33 10 30 10 30 7 5 -4
-35 5 -35 109 1 79 28 227 42 238 24z m2797 -28 c26 -23 25 -46 -1 -79 l-20
-26 23 0 c36 -1 105 -36 123 -63 10 -16 15 -40 13 -64 -3 -35 -7 -40 -53 -63
-46 -23 -63 -25 -205 -28 -88 -2 -165 -8 -177 -14 -13 -6 -26 -8 -30 -5 -3 4
-1 7 5 7 7 0 12 7 12 15 0 8 8 15 19 15 22 0 104 85 155 163 37 56 57 77 36
37 -12 -23 -8 -25 23 -9 39 20 77 62 77 85 0 18 -8 25 -37 33 -67 18 -147 -12
-202 -74 -34 -39 -37 -61 -9 -79 15 -9 24 -5 50 21 25 25 30 35 21 44 -9 9
-19 8 -40 -6 l-28 -18 19 21 c39 45 79 15 51 -37 -24 -47 -78 -56 -97 -16 -22
49 32 119 119 151 49 18 127 12 153 -11z m-2959 -52 c-10 -16 -43 -50 -72 -78
-44 -42 -41 -37 17 27 74 82 87 95 55 51z m329 0 c0 -3 -11 -21 -25 -39 -14
-18 -25 -34 -25 -36 0 -3 84 -4 188 -4 152 0 195 -3 232 -17 l45 -17 -45 5
c-25 3 -84 8 -132 12 -86 6 -87 6 -81 -16 3 -14 -4 -35 -22 -61 -19 -27 -25
-45 -20 -60 6 -20 5 -21 -15 -10 -15 8 -30 8 -50 2 -22 -8 -32 -7 -48 6 -19
15 -19 17 16 64 39 55 56 58 23 5 -20 -33 -28 -67 -15 -67 3 0 18 7 34 16 22
14 50 55 79 118 2 5 -41 6 -99 2 -89 -5 -107 -9 -128 -28 -29 -27 -52 -77 -52
-113 0 -29 4 -30 59 -10 53 18 53 9 -1 -15 -30 -13 -47 -16 -60 -9 -24 13 -23
70 2 111 27 44 26 48 -12 49 -31 1 -31 2 9 11 34 7 49 19 78 58 32 43 65 65
65 43z m-821 -27 c-2 -2 -15 -9 -29 -16 -23 -12 -24 -12 -11 3 7 10 20 17 29
17 8 0 13 -2 11 -4z m1312 -39 c-13 -13 -26 -3 -16 12 3 6 11 8 17 5 6 -4 6
-10 -1 -17z m1140 0 c-13 -13 -26 -3 -16 12 3 6 11 8 17 5 6 -4 6 -10 -1 -17z
m1309 8 c0 -8 -7 -15 -16 -15 -14 0 -14 3 -4 15 7 8 14 15 16 15 2 0 4 -7 4
-15z m-3160 -64 c0 -10 -14 -35 -30 -56 -25 -31 -28 -40 -18 -53 11 -13 9 -14
-14 -9 -15 4 -38 3 -51 -2 -18 -7 -30 -6 -45 7 -19 15 -19 16 16 64 39 55 56
58 23 5 -20 -33 -28 -67 -15 -67 24 0 65 41 88 87 25 52 46 62 46 24z m1980 9
c0 -24 4 -25 35 -4 50 33 72 -4 34 -57 -29 -42 -22 -64 21 -62 28 1 31 -1 17
-8 -10 -6 -30 -9 -45 -7 -36 4 -40 37 -12 85 11 19 19 38 16 41 -10 9 -61 -30
-113 -86 -39 -43 -55 -54 -63 -46 -9 9 2 27 45 74 33 36 54 67 51 76 -3 8 -1
14 4 14 6 0 10 -9 10 -20z m1307 0 c5 -18 7 -18 35 -4 58 30 75 -1 34 -61 -33
-48 -25 -69 23 -61 25 4 31 2 21 -4 -8 -5 -30 -10 -48 -10 -46 0 -51 23 -20
82 14 26 21 48 16 48 -15 0 -70 -41 -96 -72 -13 -16 -30 -28 -37 -28 -7 0 -15
-9 -18 -21 -3 -12 -10 -18 -15 -15 -18 11 -1 42 44 87 40 39 61 81 32 63 -7
-4 -8 -3 -4 4 11 18 27 14 33 -8z m-3868 -6 c-11 -14 -10 -18 6 -30 10 -8 14
-14 8 -14 -17 0 -36 28 -29 45 3 8 11 15 17 15 8 0 7 -5 -2 -16z m1092 -29
c37 8 37 -4 -1 -43 -47 -49 -34 -81 22 -51 11 6 22 8 25 6 3 -3 -9 -13 -27
-22 -55 -28 -96 5 -64 52 11 18 13 28 5 36 -13 13 -15 50 -3 61 4 4 8 -4 10
-19 3 -23 7 -26 33 -20z m1112 7 c-5 -11 0 -13 25 -7 40 8 40 -3 2 -43 -47
-49 -34 -81 22 -51 11 6 22 8 25 6 3 -3 -9 -13 -26 -22 -57 -29 -96 20 -53 68
16 19 16 20 -5 15 -13 -4 -20 -1 -18 6 2 6 6 24 10 40 5 22 9 26 15 16 4 -7 6
-20 3 -28z m2228 -7 c37 8 37 -4 -1 -43 -47 -49 -34 -81 22 -51 11 6 22 8 25
6 3 -3 -9 -13 -26 -22 -24 -12 -36 -13 -51 -5 -21 11 -28 54 -10 65 15 9 12
28 -3 22 -10 -4 -13 2 -10 21 8 47 16 59 21 29 3 -26 6 -28 33 -22z m-1601 13
c0 -5 9 -6 21 -3 l20 7 -20 -41 c-34 -66 -23 -90 27 -55 26 18 29 12 6 -10
-20 -20 -53 -20 -75 0 -13 12 -22 13 -38 5 -25 -14 -68 -14 -76 -1 -9 15 23
77 49 93 38 25 86 28 86 5z m1475 12 c11 -18 -4 -44 -40 -70 -33 -24 -46 -50
-25 -50 6 0 27 7 46 15 24 10 34 11 32 3 -6 -17 -55 -31 -83 -24 -49 12 -38
78 21 116 33 23 40 24 49 10z m-3085 -50 c-29 -40 -23 -66 14 -63 20 2 26 -1
19 -8 -17 -17 -57 -6 -68 19 -6 14 -15 20 -25 17 -8 -4 5 15 30 40 48 48 66
46 30 -5z m1155 23 c-8 -16 -20 -35 -27 -44 -13 -19 -4 -49 15 -49 8 0 24 9
37 20 32 28 38 25 10 -5 -30 -32 -70 -30 -85 3 -6 14 -15 20 -25 17 -8 -3 6
14 30 39 51 52 68 59 45 19z m1290 -27 c-38 -65 -17 -88 41 -44 l29 22 -24
-27 c-31 -34 -68 -35 -83 -2 -6 13 -16 22 -22 18 -6 -3 9 15 33 40 25 26 47
45 49 43 2 -3 -8 -25 -23 -50z m-2048 -12 c-11 -11 -82 -23 -105 -17 -18 4
-21 8 -10 14 14 10 125 12 115 3z m-1032 -44 c-3 -5 -14 -10 -23 -9 -14 0 -13
2 3 9 27 11 27 11 20 0z m380 0 c-3 -5 -14 -10 -23 -9 -14 0 -13 2 3 9 27 11
27 11 20 0z m2102 -37 c-4 -3 -1 -13 6 -22 11 -14 10 -14 -5 -2 -16 12 -16 31
-1 31 4 0 3 -3 0 -7z"/>
<path d="M3186 7281 c-33 -22 -86 -96 -86 -121 0 -24 20 -40 52 -40 53 0 142
118 124 165 -8 21 -56 18 -90 -4z"/>
<path d="M3991 7265 c-67 -61 -82 -137 -29 -143 54 -6 138 81 138 145 0 31 -2
33 -35 33 -26 0 -45 -9 -74 -35z"/>
<path d="M5359 7276 c-46 -31 -88 -109 -73 -133 6 -10 25 -19 42 -21 25 -3 39
5 71 37 39 39 69 110 56 131 -11 18 -60 11 -96 -14z"/>
<path d="M6110 7285 c-11 -13 -5 -15 50 -15 45 0 61 3 58 13 -7 19 -92 21
-108 2z"/>
<path d="M7334 7285 c-17 -13 -13 -14 50 -15 60 0 67 2 56 15 -16 19 -80 19
-106 0z"/>
<path d="M8154 7285 c-17 -13 -13 -14 49 -15 37 0 67 4 67 9 0 24 -86 29 -116
6z"/>
<path d="M7665 7278 c-65 -51 -113 -158 -71 -158 53 0 142 74 152 127 10 55
-31 71 -81 31z"/>
<path d="M2014 6726 c-60 -27 -100 -114 -58 -130 20 -8 89 10 127 32 21 13 27
24 27 52 0 59 -31 74 -96 46z"/>
<path d="M8804 6761 c-37 -23 -56 -65 -52 -117 4 -49 34 -67 92 -54 75 17 116
67 102 124 -16 63 -80 85 -142 47z"/>
<path d="M1479 6747 c-47 -32 -81 -85 -77 -122 3 -27 7 -30 40 -33 32 -3 42 2
77 38 40 41 60 93 47 125 -8 22 -48 18 -87 -8z"/>
<path d="M3145 6760 c-29 -11 -93 -85 -101 -115 -10 -38 2 -55 37 -55 43 0 92
39 119 94 34 71 11 103 -55 76z"/>
<path d="M3838 6759 c-33 -19 -18 -29 42 -29 33 0 60 4 60 8 0 29 -66 43 -102
21z"/>
<path d="M4598 6759 c-33 -19 -18 -29 42 -29 33 0 60 4 60 8 0 29 -66 43 -102
21z"/>
<path d="M5110 6748 c-48 -33 -82 -85 -78 -123 3 -26 8 -30 35 -33 25 -2 40 5
71 33 96 86 72 190 -28 123z"/>
<path d="M5878 6759 c-33 -19 -18 -29 40 -29 64 0 78 6 61 27 -13 15 -76 17
-101 2z"/>
<path d="M6755 6773 c-11 -3 -30 -14 -42 -26 -19 -17 -23 -31 -23 -85 l0 -64
32 6 c102 20 175 109 129 155 -20 20 -52 25 -96 14z"/>
<path d="M7028 6759 c-33 -19 -18 -29 40 -29 64 0 78 6 61 27 -13 15 -76 17
-101 2z"/>
<path d="M1672 6203 c-74 -50 -123 -143 -74 -143 52 0 190 119 179 154 -8 23
-62 17 -105 -11z"/>
<path d="M5725 6224 c-85 -44 -134 -138 -85 -164 30 -16 66 -2 104 40 42 47
63 104 46 125 -16 19 -28 19 -65 -1z"/>
<path d="M2294 6230 c-47 -19 -36 -30 30 -30 66 0 83 10 47 30 -23 12 -48 12
-77 0z"/>
<path d="M2654 6230 c-47 -19 -36 -30 30 -30 66 0 83 10 47 30 -23 12 -48 12
-77 0z"/>
<path d="M3125 6228 c-35 -19 -45 -41 -45 -100 0 -54 2 -58 23 -58 59 1 157
75 157 120 0 31 -28 50 -73 50 -23 0 -51 -6 -62 -12z"/>
<path d="M6235 6225 c-59 -28 -105 -86 -105 -133 0 -40 27 -49 76 -26 70 33
125 150 78 168 -19 7 -13 8 -49 -9z"/>
<path d="M7165 6224 c-82 -42 -130 -131 -90 -164 35 -29 122 31 151 105 13 36
14 48 4 60 -16 19 -27 19 -65 -1z"/>
<path d="M1518 5694 c-35 -19 -58 -63 -58 -112 0 -50 14 -62 71 -62 81 0 141
59 125 124 -15 61 -77 83 -138 50z"/>
<path d="M2053 5678 c-35 -25 -83 -93 -83 -118 0 -45 56 -53 106 -15 39 30 78
106 69 135 -9 27 -52 26 -92 -2z"/>
<path d="M2809 5663 c-75 -68 -86 -143 -21 -143 57 0 147 115 129 165 -12 29
-64 18 -108 -22z"/>
<path d="M6968 5689 c-26 -15 -22 -25 10 -23 15 0 44 2 66 2 33 2 37 4 26 17
-14 17 -76 20 -102 4z"/>
<path d="M8103 5690 c-41 -24 -53 -48 -53 -102 0 -56 13 -68 71 -68 81 0 141
59 125 124 -16 64 -80 85 -143 46z"/>
<path d="M9362 5679 c-43 -28 -86 -101 -78 -134 5 -21 12 -25 41 -25 27 0 44
9 74 39 39 39 65 99 54 127 -8 20 -53 17 -91 -7z"/>
<path d="M1024 5690 c-45 -18 -124 -135 -109 -160 25 -41 144 37 164 107 15
51 -8 72 -55 53z"/>
<path d="M3329 5677 c-47 -32 -81 -85 -77 -122 3 -26 8 -30 35 -33 56 -6 133
80 133 148 0 26 -3 30 -29 30 -15 0 -43 -10 -62 -23z"/>
<path d="M5353 5678 c-35 -25 -83 -93 -83 -118 0 -45 56 -53 106 -15 39 30 78
106 69 135 -9 27 -52 26 -92 -2z"/>
<path d="M6590 5692 c-35 -17 -35 -18 -38 -89 -2 -40 1 -73 5 -73 32 0 91 27
124 57 88 80 19 160 -91 105z"/>
<path d="M8744 5681 c-81 -50 -113 -152 -51 -159 55 -6 143 93 135 151 -4 29
-44 33 -84 8z"/>
<path d="M1238 5120 c-44 -24 -68 -55 -68 -91 0 -34 21 -42 74 -28 79 21 96
35 96 79 0 29 -5 42 -19 50 -27 14 -40 12 -83 -10z"/>
<path d="M4785 5154 c-44 -23 -95 -74 -112 -113 -21 -50 -5 -58 59 -29 87 40
154 126 117 149 -19 12 -30 11 -64 -7z"/>
<path d="M1519 5150 l-24 -19 68 -1 c37 0 67 4 67 8 0 35 -75 43 -111 12z"/>
<path d="M2045 5151 c-39 -23 -83 -75 -91 -107 -10 -39 2 -54 40 -54 45 0 98
45 120 101 29 73 -3 101 -69 60z"/>
<path d="M2849 5147 c-45 -31 -79 -83 -79 -123 0 -32 2 -34 35 -34 65 0 153
109 132 164 -9 23 -49 20 -88 -7z"/>
<path d="M3419 5150 l-24 -19 68 -1 c37 0 67 4 67 8 0 35 -75 43 -111 12z"/>
<path d="M5368 5159 c-33 -19 -18 -29 42 -29 33 0 60 4 60 8 0 29 -66 43 -102
21z"/>
<path d="M6198 5159 c-33 -19 -18 -29 42 -29 45 0 60 4 60 14 0 26 -67 36
-102 15z"/>
<path d="M6554 5161 c-37 -23 -56 -65 -52 -117 2 -31 9 -42 30 -52 38 -18 102
0 141 39 25 26 29 35 24 67 -12 72 -80 102 -143 63z"/>
<path d="M7699 5146 c-47 -32 -81 -87 -77 -123 2 -23 8 -29 36 -31 61 -6 136
75 130 140 -4 43 -39 48 -89 14z"/>
<path d="M8199 5150 l-24 -19 68 -1 c37 0 67 4 67 8 0 35 -75 43 -111 12z"/>
<path d="M8750 5148 c-48 -33 -82 -85 -78 -123 3 -26 8 -30 35 -33 25 -2 40 5
71 33 96 86 72 190 -28 123z"/>
<path d="M4492 4602 c-50 -33 -92 -88 -92 -119 0 -31 23 -30 87 7 57 33 103
85 103 118 0 32 -47 29 -98 -6z"/>
<path d="M3448 4624 c-54 -29 -77 -123 -40 -157 39 -35 132 -14 166 37 55 85
-35 170 -126 120z"/>
<path d="M6984 4615 c-17 -13 -13 -14 50 -15 60 0 67 2 56 15 -16 19 -80 19
-106 0z"/>
<path d="M2630 4049 c-46 -28 -59 -48 -60 -85 0 -40 17 -47 75 -29 72 21 95
40 95 78 0 60 -46 75 -110 36z"/>
<path d="M7544 4056 c-60 -27 -100 -114 -58 -130 20 -8 89 10 127 32 23 14 27
23 27 58 0 56 -30 68 -96 40z"/>
<path d="M2940 4078 c-74 -50 -107 -149 -52 -156 63 -9 135 61 136 132 1 37
-2 41 -24 44 -15 2 -41 -7 -60 -20z"/>
<path d="M3555 4088 c-61 -33 -111 -104 -101 -144 9 -36 65 -33 110 6 38 34
70 102 61 131 -7 21 -39 25 -70 7z"/>
<path d="M5100 4078 c-48 -33 -82 -85 -78 -123 3 -26 8 -30 35 -33 25 -2 40 5
71 33 96 86 72 190 -28 123z"/>
<path d="M5848 4089 c-33 -19 -18 -29 40 -29 64 0 78 6 61 27 -13 15 -76 17
-101 2z"/>
<path d="M7009 4077 c-47 -32 -81 -85 -77 -122 3 -26 7 -30 36 -33 61 -6 132
70 132 142 0 33 -2 36 -29 36 -15 0 -43 -10 -62 -23z"/>
<path d="M8685 4088 c-61 -33 -111 -104 -101 -144 9 -36 65 -33 110 6 38 34
70 102 61 131 -7 21 -39 25 -70 7z"/>
<path d="M2675 3556 c-63 -27 -121 -119 -98 -155 37 -59 168 45 161 129 -3 40
-18 46 -63 26z"/>
<path d="M1793 3549 c-50 -24 -93 -83 -93 -126 0 -50 40 -54 103 -11 52 37 87
138 51 152 -20 8 -12 9 -61 -15z"/>
<path d="M2253 3550 c-32 -19 -33 -22 -33 -85 0 -61 1 -65 23 -65 30 1 98 33
119 56 53 60 36 114 -35 114 -24 0 -56 -8 -74 -20z"/>
<path d="M3140 3552 l-35 -17 64 -3 c71 -3 85 3 57 24 -25 18 -43 17 -86 -4z"/>
<path d="M5105 3555 c-61 -28 -105 -84 -105 -131 0 -42 26 -52 76 -28 66 31
121 151 78 168 -19 7 -13 8 -49 -9z"/>
<path d="M5883 3550 c-32 -19 -33 -22 -33 -85 0 -61 1 -65 23 -65 35 1 102 35
125 65 24 30 29 74 10 93 -19 19 -89 14 -125 -8z"/>
<path d="M6204 3560 c-48 -19 -36 -30 32 -30 66 0 67 0 49 20 -19 21 -46 24
-81 10z"/>
<path d="M7055 3556 c-37 -16 -92 -77 -101 -111 -21 -86 72 -81 136 6 33 47
41 103 14 113 -9 3 -16 6 -17 6 -1 -1 -16 -7 -32 -14z"/>
<path d="M7540 3552 l-35 -17 64 -3 c71 -3 85 3 57 24 -25 18 -43 17 -86 -4z"/>
<path d="M8343 3550 c-41 -18 -103 -95 -103 -126 0 -25 32 -46 59 -39 58 14
137 127 115 163 -15 23 -24 24 -71 2z"/>
<path d="M10195 3310 c3 -5 8 -10 11 -10 2 0 4 5 4 10 0 6 -5 10 -11 10 -5 0
-7 -4 -4 -10z"/>
<path d="M10086 3217 c3 -10 9 -15 12 -12 3 3 0 11 -7 18 -10 9 -11 8 -5 -6z"/>
<path d="M9065 2900 c-3 -5 -2 -10 4 -10 5 0 13 5 16 10 3 6 2 10 -4 10 -5 0
-13 -4 -16 -10z"/>
<path d="M9350 2899 c0 -5 5 -7 10 -4 6 3 10 8 10 11 0 2 -4 4 -10 4 -5 0 -10
-5 -10 -11z"/>
<path d="M9407 2724 c-3 -5 1 -15 9 -22 16 -14 18 -5 5 17 -5 7 -11 9 -14 5z"/>
<path d="M5026 3017 c-11 -8 -15 -17 -9 -20 17 -10 114 5 110 17 -5 17 -79 19
-101 3z"/>
<path d="M3023 3032 c-50 -15 -63 -38 -63 -107 0 -76 5 -79 87 -41 129 60 108
186 -24 148z"/>
<path d="M5809 3007 c-47 -32 -81 -85 -77 -122 3 -26 7 -30 35 -33 27 -3 40 4
77 42 44 43 67 100 51 125 -10 18 -50 12 -86 -12z"/>
<path d="M6619 3007 c-47 -32 -81 -85 -77 -122 3 -26 8 -30 35 -33 56 -6 133
80 133 148 0 26 -3 30 -29 30 -15 0 -43 -10 -62 -23z"/>
<path d="M4775 2456 c-49 -22 -77 -59 -73 -97 3 -33 5 -34 42 -32 21 2 57 13
80 25 33 19 42 30 44 54 3 34 -18 64 -46 64 -9 -1 -30 -7 -47 -14z"/>
<path d="M6973 2595 c-34 -15 -47 -42 -41 -91 3 -28 4 -29 59 -27 100 5 181
51 164 95 -14 37 -119 51 -182 23z"/>
<path d="M2705 2481 c-39 -23 -83 -75 -91 -107 -10 -39 2 -54 41 -54 62 0 142
102 127 163 -6 22 -39 22 -77 -2z"/>
<path d="M3485 2481 c-39 -23 -83 -75 -91 -107 -10 -39 2 -54 40 -54 45 0 98
45 120 101 29 73 -3 101 -69 60z"/>
<path d="M4195 2481 c-39 -23 -83 -75 -91 -107 -10 -39 2 -54 42 -54 30 0 44
7 75 40 58 60 72 140 25 140 -11 0 -35 -8 -51 -19z"/>
<path d="M5070 2478 c-48 -33 -82 -85 -78 -123 3 -26 8 -30 35 -33 25 -2 40 5
71 33 96 86 72 190 -28 123z"/>
<path d="M5544 2490 c-39 -25 -56 -65 -52 -116 4 -52 38 -70 99 -54 93 25 127
104 70 161 -35 35 -72 37 -117 9z"/>
<path d="M5863 2481 c-44 -28 -85 -92 -81 -128 2 -24 8 -28 36 -31 61 -6 136
75 130 140 -2 27 -8 34 -28 36 -14 1 -39 -7 -57 -17z"/>
<path d="M6359 2480 l-24 -19 68 -1 c37 0 67 4 67 8 0 35 -75 43 -111 12z"/>
<path d="M7248 2489 c-33 -19 -18 -29 42 -29 33 0 60 4 60 8 0 29 -66 43 -102
21z"/>
<path d="M10040 2315 c-11 -13 -10 -14 4 -9 9 3 16 10 16 15 0 13 -6 11 -20
-6z"/>
<path d="M10160 1939 c0 -5 9 -9 20 -9 11 0 20 2 20 4 0 2 -9 6 -20 9 -11 3
-20 1 -20 -4z"/>
<path d="M4754 1916 c-41 -18 -64 -52 -64 -93 0 -33 6 -37 45 -33 29 3 108 39
117 53 12 18 9 62 -4 75 -16 16 -55 15 -94 -2z"/>
<path d="M4228 1954 c-54 -29 -77 -123 -40 -157 38 -34 132 -14 166 35 40 57
1 138 -66 138 -18 -1 -45 -7 -60 -16z"/>
<path d="M5030 1945 c-11 -13 -5 -15 50 -15 45 0 61 3 58 13 -7 19 -92 21
-108 2z"/>
<path d="M5343 1941 c-37 -23 -83 -87 -83 -116 0 -58 64 -61 119 -6 39 39 69
110 56 131 -10 16 -58 11 -92 -9z"/>
<path d="M6154 1938 c-48 -34 -76 -81 -72 -120 2 -28 7 -34 31 -36 16 -2 39 5
57 18 38 27 82 102 78 132 -4 33 -53 36 -94 6z"/>
<path d="M9430 1340 c0 -5 5 -10 11 -10 5 0 7 5 4 10 -3 6 -8 10 -11 10 -2 0
-4 -4 -4 -10z"/>
<path d="M8656 1146 c3 -9 11 -16 16 -16 13 0 5 23 -10 28 -7 2 -10 -2 -6 -12z"/>
<path d="M9330 1119 c0 -5 5 -7 10 -4 6 3 10 8 10 11 0 2 -4 4 -10 4 -5 0 -10
-5 -10 -11z"/>
<path d="M10171 1294 c0 -11 3 -14 6 -6 3 7 2 16 -1 19 -3 4 -6 -2 -5 -13z"/>
<path d="M9920 1290 c0 -5 5 -10 11 -10 5 0 7 5 4 10 -3 6 -8 10 -11 10 -2 0
-4 -4 -4 -10z"/>
<path d="M9935 1160 c-3 -5 -1 -10 4 -10 6 0 11 5 11 10 0 6 -2 10 -4 10 -3 0
-8 -4 -11 -10z"/>
<path d="M6333 1189 c-22 -6 -50 -32 -88 -79 -30 -38 -63 -73 -72 -79 -36 -19
-1 -23 124 -12 170 14 215 29 234 79 18 48 -29 87 -117 96 -27 3 -64 1 -81 -5z"/>
<path d="M5730 1104 c-61 -55 -48 -84 20 -49 30 15 65 67 53 79 -14 13 -35 5
-73 -30z"/>
<path d="M7229 1104 c-22 -25 -22 -26 -3 -16 12 6 24 18 28 27 8 21 3 19 -25
-11z"/>
</g>
</svg>
