<?xml version="1.0" standalone="no"?>
<!DOCTYPE svg PUBLIC "-//W3C//DTD SVG 20010904//EN"
 "http://www.w3.org/TR/2001/REC-SVG-20010904/DTD/svg10.dtd">
<svg version="1.0" xmlns="http://www.w3.org/2000/svg"
 width="764.000000pt" height="654.000000pt" viewBox="0 0 764.000000 654.000000"
 preserveAspectRatio="xMidYMid meet">

<g transform="translate(0.000000,654.000000) scale(0.100000,-0.100000)"
fill="#000000" stroke="none">
<path d="M3500 5814 c0 -9 -5 -34 -12 -55 -9 -33 -15 -39 -39 -39 -45 0 -115
-96 -94 -129 10 -16 46 -13 67 6 17 15 18 15 18 0 0 -10 6 -17 14 -17 19 0 63
37 54 46 -4 4 -14 1 -23 -6 -20 -17 -20 -15 20 101 19 56 35 104 35 106 0 1
-9 3 -20 3 -12 0 -20 -7 -20 -16z m-44 -142 c-18 -34 -64 -78 -73 -69 -15 15
60 113 78 102 5 -4 3 -17 -5 -33z"/>
<path d="M5999 5828 c0 -2 -2 -18 -5 -36 -4 -36 -23 -77 -31 -69 -2 3 -18 1
-34 -5 -36 -12 -79 -72 -79 -110 0 -23 4 -28 25 -28 13 0 34 10 46 23 17 17
21 18 16 4 -9 -26 19 -33 43 -12 11 10 20 23 20 29 0 6 -5 5 -12 -2 -27 -27
-25 -7 8 84 38 108 41 124 19 124 -8 0 -15 -1 -16 -2z m-39 -143 c0 -19 -59
-85 -75 -85 -19 0 -8 32 27 74 29 35 48 39 48 11z"/>
<path d="M1418 5787 c12 -14 -42 -197 -58 -197 -6 0 -10 -4 -10 -10 0 -5 19
-10 41 -10 36 0 40 2 29 15 -10 12 -10 24 -1 55 10 35 16 40 41 40 17 0 30 -4
30 -10 0 -21 16 -9 27 20 10 28 2 42 -12 20 -8 -13 -65 -13 -65 0 0 6 6 26 14
44 12 29 18 33 42 28 16 -3 32 -9 35 -15 9 -13 29 0 29 19 0 11 -17 14 -76 14
-60 0 -74 -3 -66 -13z"/>
<path d="M3582 5788 c-7 -7 -12 -16 -12 -20 0 -12 28 -10 36 3 10 17 -10 31
-24 17z"/>
<path d="M4076 5793 c-12 -12 -6 -33 9 -33 8 0 15 6 15 14 0 17 -14 28 -24 19z"/>
<path d="M1606 5783 c-12 -12 -6 -33 9 -33 8 0 15 6 15 14 0 17 -14 28 -24 19z"/>
<path d="M2935 5780 c-4 -7 -18 -10 -31 -7 -16 3 -24 0 -24 -9 0 -19 44 -18
60 1 7 9 10 18 7 21 -3 3 -8 0 -12 -6z"/>
<path d="M3235 5779 c-4 -6 -4 -13 -1 -16 8 -8 36 5 36 17 0 13 -27 13 -35 -1z"/>
<path d="M4297 5729 c-18 -18 -23 -29 -15 -31 10 -4 9 -16 -5 -54 -9 -27 -17
-52 -17 -56 0 -17 38 -6 60 17 23 25 16 37 -8 13 -15 -15 -15 -6 0 43 8 27 17
39 30 39 10 0 18 5 18 10 0 6 -7 10 -15 10 -8 0 -12 6 -9 14 10 25 -10 22 -39
-5z"/>
<path d="M4645 5740 c-3 -11 -13 -20 -21 -20 -10 0 -13 -7 -8 -24 3 -13 1 -32
-4 -43 -19 -37 -23 -73 -9 -73 17 0 70 40 63 48 -3 2 -12 -1 -21 -8 -18 -15
-19 -9 -3 41 7 26 17 39 29 39 10 0 21 5 24 10 3 6 -1 10 -9 10 -9 0 -16 6
-16 14 0 24 -18 28 -25 6z"/>
<path d="M5184 5735 c-4 -8 -12 -15 -20 -15 -8 0 -14 -4 -14 -10 0 -5 4 -10 9
-10 6 0 1 -25 -10 -57 -10 -31 -19 -58 -19 -60 0 -11 40 0 59 18 24 23 21 40
-4 19 -18 -15 -19 -9 -3 41 7 26 17 39 29 39 10 0 21 5 24 10 3 6 -3 10 -14
10 -14 0 -19 5 -15 15 4 8 1 15 -5 15 -7 0 -14 -7 -17 -15z"/>
<path d="M2905 5723 c-38 -10 -64 -35 -90 -86 -25 -50 -25 -52 -6 -55 11 -2
32 5 48 15 15 10 24 12 19 5 -10 -17 18 -26 43 -12 12 6 21 16 21 22 0 7 -5 6
-15 -2 -22 -18 -20 7 5 65 11 26 20 49 20 51 0 5 -18 4 -45 -3z m5 -30 c0 -15
-37 -64 -59 -79 -33 -24 -22 24 17 69 15 17 42 23 42 10z"/>
<path d="M4203 5720 c-33 -8 -44 -16 -81 -64 -28 -36 -30 -76 -3 -76 11 0 26
7 35 15 8 8 18 15 21 15 4 0 5 -7 1 -15 -6 -18 16 -20 45 -5 22 12 26 32 4 24
-20 -8 -19 5 5 61 27 63 29 59 -27 45z m7 -26 c0 -16 -44 -75 -62 -85 -18 -10
-20 -9 -15 6 4 9 7 20 7 24 0 16 42 61 56 61 8 0 14 -3 14 -6z"/>
<path d="M4443 5719 c-38 -11 -80 -62 -89 -107 -6 -27 -4 -32 14 -32 11 0 25
7 32 15 7 8 16 15 21 15 5 0 6 -7 3 -15 -8 -19 24 -20 49 -1 23 18 22 29 -3
21 -20 -6 -20 -6 0 40 21 49 25 76 13 74 -5 0 -22 -5 -40 -10z m10 -26 c7 -7
-14 -45 -44 -76 -22 -24 -34 -6 -18 25 24 46 48 66 62 51z"/>
<path d="M4783 5723 c-60 -11 -138 -143 -85 -143 10 0 28 8 42 17 22 16 23 16
17 0 -7 -20 13 -23 44 -7 22 12 26 35 4 26 -20 -7 -19 3 5 59 11 26 20 49 20
51 0 4 -13 4 -47 -3z m7 -30 c0 -5 -9 -22 -20 -40 -20 -34 -60 -62 -60 -43 0
15 19 51 38 73 15 17 42 23 42 10z"/>
<path d="M6115 5723 c-36 -9 -72 -42 -93 -85 -12 -23 -19 -45 -16 -50 8 -13
36 -9 56 9 17 15 18 15 18 0 0 -24 33 -21 56 4 19 21 19 22 -3 15 l-21 -7 19
51 c10 27 19 55 19 60 0 11 -3 11 -35 3z m-5 -38 c0 -8 -16 -32 -36 -53 l-36
-37 7 30 c10 48 65 98 65 60z"/>
<path d="M1574 5696 c-17 -15 -22 -24 -11 -20 22 8 21 2 -3 -46 -11 -22 -20
-44 -20 -50 0 -14 32 -12 53 4 21 16 22 30 2 22 -19 -7 -19 -7 5 50 25 58 14
75 -26 40z"/>
<path d="M1791 5694 c-35 -29 -57 -90 -39 -111 14 -17 40 -16 64 3 18 15 18
15 -8 9 -25 -5 -28 -3 -28 21 0 14 8 39 17 55 17 29 33 38 33 19 0 -5 7 -10
15 -10 20 0 19 26 -1 34 -21 8 -19 9 -53 -20z"/>
<path d="M1985 5715 c-5 -2 -22 -6 -38 -9 -30 -7 -104 -107 -92 -125 9 -16 37
-13 63 5 20 14 22 14 22 0 0 -19 13 -20 41 -6 22 12 26 35 4 26 -19 -7 -19 -7
5 54 25 65 25 65 -5 55z m-15 -34 c0 -18 -47 -76 -64 -79 -17 -4 -17 -2 0 30
9 18 21 39 26 46 12 14 38 16 38 3z"/>
<path d="M2092 5698 c-20 -20 -22 -20 -22 -5 0 13 -6 17 -22 15 -25 -3 -37
-28 -14 -28 13 0 12 -7 -4 -55 -26 -75 -3 -74 33 1 20 40 32 54 43 50 17 -7
31 21 17 35 -5 5 -17 0 -31 -13z"/>
<path d="M2175 5699 c-57 -46 -71 -129 -21 -129 13 0 29 7 36 15 11 13 9 15
-11 13 -42 -5 -35 28 10 52 26 13 41 27 41 39 0 28 -25 33 -55 10z m35 -7 c0
-10 -22 -32 -32 -32 -5 0 -3 9 4 20 13 20 28 27 28 12z"/>
<path d="M2421 5693 c-32 -25 -33 -25 -27 -5 6 17 3 22 -12 22 -11 0 -26 -8
-33 -17 -12 -15 -12 -16 4 -10 21 8 21 9 -3 -53 -23 -58 -23 -60 -11 -60 5 0
23 21 40 48 27 42 67 79 76 70 2 -2 -5 -23 -16 -47 -30 -67 -24 -85 22 -61 22
13 26 32 4 24 -13 -5 -12 1 4 38 13 31 16 50 9 61 -12 22 -17 22 -57 -10z"/>
<path d="M2537 5700 c-28 -22 -49 -89 -35 -114 27 -48 113 20 106 85 -4 42
-37 56 -71 29z m48 -10 c10 -16 -32 -100 -49 -100 -21 0 -20 16 4 68 19 41 33
52 45 32z"/>
<path d="M3068 5706 c-22 -16 -23 -36 -3 -36 8 0 15 7 15 15 0 8 9 15 20 15
30 0 25 -11 -25 -60 -48 -47 -57 -65 -26 -55 10 3 31 1 46 -5 22 -8 33 -7 51
5 27 17 32 45 9 45 -8 0 -15 -7 -15 -15 0 -16 -27 -20 -48 -6 -10 6 0 21 39
58 l52 50 -49 1 c-27 1 -57 -5 -66 -12z"/>
<path d="M3208 5709 c-22 -12 -24 -31 -3 -22 13 4 12 -3 -5 -46 -11 -29 -20
-54 -20 -56 0 -14 40 -2 56 17 17 19 17 21 2 15 -22 -8 -22 -8 2 53 18 46 18
50 2 50 -9 0 -25 -5 -34 -11z"/>
<path d="M3548 5709 c-22 -12 -24 -31 -2 -22 14 5 14 1 -1 -33 -29 -65 -29
-74 -8 -74 11 0 28 10 39 22 18 21 18 21 0 15 -21 -8 -20 1 8 66 15 35 15 37
-1 37 -10 0 -26 -5 -35 -11z"/>
<path d="M3629 5703 c-12 -15 -12 -16 4 -10 21 8 21 1 2 -53 -8 -23 -15 -46
-15 -51 0 -20 18 -7 38 29 26 46 56 82 70 82 5 0 -1 -26 -14 -57 -25 -62 -18
-77 25 -53 24 12 29 32 6 24 -13 -5 -13 -2 0 30 29 70 10 97 -43 60 -20 -14
-22 -14 -22 0 0 21 -34 20 -51 -1z"/>
<path d="M3884 5699 c-19 -21 -19 -22 3 -15 22 7 22 7 8 -28 -22 -53 -20 -76
9 -76 41 0 119 101 101 130 -12 19 -25 10 -25 -18 0 -30 -53 -102 -65 -90 -5
4 0 27 9 51 9 23 16 48 16 55 0 20 -35 14 -56 -9z"/>
<path d="M4048 5709 c-10 -5 -18 -15 -18 -20 0 -6 5 -7 12 -3 13 8 8 -12 -16
-68 -15 -34 -15 -38 0 -38 21 0 54 18 54 30 0 5 -7 7 -15 4 -13 -5 -13 -2 -1
27 32 80 29 95 -16 68z"/>
<path d="M4963 5698 c-28 -30 -45 -76 -38 -99 8 -23 44 -25 71 -3 18 15 18 15
-8 10 -56 -12 -46 31 13 56 29 12 40 22 37 35 -5 28 -50 28 -75 1z m31 -23
c-26 -19 -31 -9 -8 16 11 12 20 16 22 9 2 -6 -4 -17 -14 -25z"/>
<path d="M5070 5706 c-12 -15 -11 -31 6 -85 7 -22 5 -23 -19 -17 -20 5 -27 3
-27 -9 0 -23 46 -18 64 7 13 18 13 25 1 56 -19 45 -19 45 11 38 19 -5 25 -3
22 6 -7 19 -43 21 -58 4z"/>
<path d="M5267 5696 c-27 -25 -41 -62 -35 -93 4 -24 50 -29 68 -8 12 14 11 16
-13 10 -23 -6 -27 -4 -27 13 0 14 13 26 38 39 45 22 58 63 19 63 -13 0 -36
-11 -50 -24z m34 -17 c-13 -11 -26 -17 -29 -14 -8 8 20 35 37 35 12 -1 11 -5
-8 -21z"/>
<path d="M5458 5706 c-22 -16 -23 -30 -3 -22 8 3 15 4 15 3 0 -1 -7 -20 -15
-42 -8 -22 -14 -46 -15 -52 0 -21 26 -15 58 12 l29 24 -5 -24 c-5 -30 17 -34
41 -7 21 23 22 39 2 22 -8 -7 -15 -10 -15 -6 0 4 7 23 15 43 31 73 11 87 -28
20 -27 -45 -54 -73 -62 -65 -3 3 4 26 15 52 11 26 20 50 20 52 0 9 -36 2 -52
-10z"/>
<path d="M5620 5705 c-10 -12 -10 -15 4 -15 14 0 14 -6 -4 -52 -24 -63 -23
-58 -7 -58 8 0 22 18 32 39 18 41 61 89 70 79 3 -3 -3 -29 -15 -57 -11 -28
-20 -54 -20 -56 0 -14 40 -2 56 17 17 19 17 21 2 15 -22 -8 -22 -8 -3 36 8 20
15 43 15 52 0 22 -40 19 -66 -6 l-23 -21 6 21 c4 16 1 21 -15 21 -11 0 -25 -7
-32 -15z"/>
<path d="M6184 5709 c-3 -6 -1 -15 6 -19 10 -6 9 -18 -4 -56 -19 -56 -19 -54
-7 -54 6 0 22 24 38 53 19 36 34 52 48 52 11 0 21 8 23 18 5 23 -33 23 -47 0
-10 -17 -10 -17 -11 0 0 19 -35 24 -46 6z"/>
<path d="M1659 5679 c-29 -42 -32 -103 -4 -107 11 -1 29 4 40 13 20 15 19 16
-5 13 -43 -5 -37 28 9 52 51 25 57 60 12 60 -22 0 -36 -8 -52 -31z m41 -4 c-7
-8 -17 -15 -23 -15 -5 0 -2 9 8 20 21 23 35 19 15 -5z"/>
<path d="M2656 5694 c-18 -18 -21 -28 -5 -18 11 6 9 -9 -8 -83 -7 -32 17 -30
52 5 l28 27 -7 -27 c-4 -20 -3 -28 7 -28 17 0 57 29 57 42 0 7 -6 6 -15 -2
-20 -16 -19 -2 1 50 17 43 10 69 -10 36 -16 -28 -78 -97 -83 -93 -2 2 4 20 12
40 8 20 15 43 15 52 0 20 -24 19 -44 -1z"/>
<path d="M6267 5614 c-14 -14 -7 -35 11 -32 9 2 17 10 17 17 0 16 -18 25 -28
15z"/>
<path d="M4255 5560 c-3 -5 0 -12 5 -15 8 -5 6 -13 -6 -26 -14 -15 -14 -19 -3
-19 20 0 39 20 39 41 0 19 -26 33 -35 19z"/>
<path d="M1769 5398 c0 -2 -2 -14 -4 -28 -6 -45 -24 -80 -38 -74 -20 7 -92
-49 -106 -85 -23 -54 9 -81 55 -46 22 17 38 20 29 5 -12 -19 26 -23 45 -5 18
16 20 17 20 2 0 -21 19 -22 48 -1 20 14 22 14 22 0 0 -22 23 -20 51 5 l24 20
-22 -6 c-28 -8 -28 -8 -3 50 26 62 26 65 -12 59 -23 -4 -49 -23 -86 -62 l-54
-57 7 35 c4 19 18 64 31 99 28 74 30 91 9 91 -8 0 -15 -1 -16 -2z m-39 -137
c0 -21 -60 -91 -79 -91 -21 0 -11 30 25 70 40 44 54 50 54 21z m140 -5 c0 -8
-12 -28 -26 -45 -44 -53 -60 -35 -23 25 21 35 49 46 49 20z"/>
<path d="M2216 5374 c-14 -16 -30 -41 -37 -56 -6 -15 -18 -28 -25 -28 -17 0
-19 -17 -2 -22 8 -3 7 -21 -5 -70 -27 -108 -34 -120 -56 -108 -14 7 -22 7 -27
-1 -12 -20 14 -34 43 -23 24 8 32 22 59 104 30 92 32 95 61 95 l30 1 -13 -41
c-6 -22 -14 -45 -15 -52 -2 -6 1 -12 6 -13 6 -1 19 16 30 39 13 26 32 47 53
57 18 8 30 19 27 25 -9 14 -31 11 -46 -7 -12 -14 -14 -14 -20 4 -6 14 -14 18
-38 14 -36 -5 -38 4 -15 54 15 31 44 47 44 24 0 -5 7 -10 16 -10 27 0 11 35
-18 38 -18 2 -34 -5 -52 -24z"/>
<path d="M2759 5393 c-1 -5 -1 -11 -1 -14 1 -3 -12 -48 -28 -99 -32 -99 -36
-130 -19 -130 16 0 59 36 52 44 -4 3 -15 -2 -26 -11 -20 -17 -20 -17 -13 2 20
49 66 191 66 203 0 13 -29 17 -31 5z"/>
<path d="M3538 5388 c-9 -7 -26 -32 -38 -55 -12 -24 -29 -43 -39 -44 -15 0
-15 -1 0 -11 15 -10 14 -18 -3 -87 -25 -97 -34 -114 -59 -106 -20 7 -27 -9 -9
-20 16 -10 49 5 61 27 6 11 21 55 33 97 20 69 24 76 49 79 l26 3 -18 -55 c-11
-30 -17 -57 -14 -60 12 -12 40 -6 56 12 19 21 11 38 -10 21 -19 -16 -17 -5 22
103 18 54 31 99 27 101 -20 9 -69 6 -84 -5z m52 -14 c0 -4 -5 -24 -12 -45 -9
-31 -16 -39 -35 -39 -27 0 -30 18 -8 60 9 18 24 30 35 30 11 0 20 -3 20 -6z"/>
<path d="M5723 5386 c9 -22 -24 -98 -39 -92 -21 8 -78 -36 -97 -75 -28 -58 1
-91 49 -54 25 19 35 19 28 0 -8 -19 16 -20 41 -1 17 12 21 12 31 -3 12 -15 15
-15 43 2 27 16 31 16 31 3 0 -22 23 -20 51 5 l24 20 -23 -6 c-21 -6 -23 -4
-17 17 4 12 14 35 21 50 21 41 18 48 -18 41 -40 -7 -53 -17 -90 -67 -15 -21
-28 -36 -28 -31 0 4 -7 2 -15 -5 -28 -23 -26 -4 10 95 19 54 35 102 35 107 0
4 -9 8 -21 8 -14 0 -19 -5 -16 -14z m-33 -119 c0 -30 -73 -107 -87 -93 -7 7
25 64 49 86 25 23 38 26 38 7z m150 -11 c0 -20 -49 -76 -66 -76 -12 0 -12 5 2
33 9 17 21 38 26 45 14 16 38 15 38 -2z"/>
<path d="M1180 5365 c9 -11 9 -24 -3 -62 -27 -86 -29 -104 -12 -129 12 -19 24
-24 59 -24 57 0 86 33 118 133 13 39 30 77 38 84 12 10 8 12 -24 13 -30 0 -36
-3 -28 -13 23 -27 -35 -183 -72 -197 -27 -10 -58 2 -66 26 -10 27 27 145 52
167 20 17 19 17 -27 17 -41 0 -46 -2 -35 -15z"/>
<path d="M2666 5354 c-8 -21 -1 -28 19 -20 9 3 15 11 13 18 -7 19 -25 20 -32
2z"/>
<path d="M4721 5343 c-1 -18 5 -23 22 -23 24 0 47 17 47 34 0 6 -5 5 -12 -2
-16 -16 -45 -15 -51 1 -3 6 -6 2 -6 -10z"/>
<path d="M4850 5310 c-6 -11 -18 -20 -27 -20 -12 0 -13 -3 -4 -13 8 -11 7 -26
-4 -63 -18 -61 -18 -64 -1 -64 20 0 62 37 53 46 -4 5 -12 2 -17 -6 -17 -28
-20 -3 -3 38 11 28 22 42 35 42 10 0 18 5 18 10 0 6 -7 10 -16 10 -10 0 -14 6
-11 15 9 23 -11 28 -23 5z"/>
<path d="M4248 5299 c-10 -10 -15 -24 -12 -32 2 -7 -2 -32 -11 -56 -8 -24 -15
-47 -15 -52 0 -16 27 -10 54 12 30 24 29 36 -3 20 -19 -11 -20 -10 -4 34 11
32 20 45 34 45 10 0 19 5 19 10 0 6 -7 10 -15 10 -9 0 -12 6 -9 15 9 21 -17
17 -38 -6z"/>
<path d="M1403 5287 c-25 -11 -32 -33 -8 -23 19 7 19 7 -5 -54 -23 -58 -23
-60 -11 -60 5 0 23 22 41 49 55 87 84 96 50 17 -11 -26 -20 -52 -20 -57 0 -17
37 -9 56 13 17 19 17 21 2 15 -22 -8 -22 -7 -2 43 16 39 14 70 -5 70 -5 0 -24
-12 -42 -27 -29 -25 -31 -25 -25 -6 8 27 -2 34 -31 20z"/>
<path d="M1954 5278 c-18 -21 -18 -21 0 -15 16 6 17 4 11 -20 -3 -16 -13 -41
-21 -57 -17 -36 -17 -36 0 -36 7 0 26 25 41 55 19 37 34 55 47 55 10 0 18 6
18 13 0 23 -13 28 -30 12 -16 -14 -18 -14 -23 0 -9 21 -20 19 -43 -7z"/>
<path d="M2416 5290 c-37 -11 -64 -36 -86 -81 -25 -49 -12 -71 28 -48 26 15
30 15 39 1 8 -14 13 -13 39 7 26 21 27 23 6 16 -22 -6 -23 -5 -17 17 4 12 14
38 21 57 20 47 21 46 -30 31z m4 -26 c0 -32 -53 -95 -67 -80 -6 6 27 69 41 78
13 9 26 10 26 2z"/>
<path d="M2535 5290 c-43 -17 -58 -46 -51 -95 7 -42 5 -48 -18 -66 -14 -11
-26 -27 -26 -34 0 -23 40 -38 83 -32 72 10 85 52 26 83 -16 8 -29 18 -29 22 0
4 16 20 35 35 19 15 35 37 35 47 0 21 16 25 40 10 12 -8 12 -14 -3 -45 -31
-64 -14 -86 34 -44 l24 20 -22 -6 c-24 -7 -30 4 -14 21 5 5 16 26 24 46 l15
37 -46 -1 c-26 -1 -56 2 -67 5 -11 3 -29 2 -40 -3z m35 -17 c0 -15 -40 -73
-49 -73 -22 0 -20 20 5 49 24 29 44 40 44 24z m-24 -158 c16 -13 17 -16 4 -25
-24 -15 -70 -12 -77 6 -12 31 39 45 73 19z"/>
<path d="M2922 5284 c-45 -31 -69 -118 -36 -131 18 -7 64 12 64 27 0 7 -7 7
-21 0 -27 -15 -33 -8 -25 33 7 38 40 75 51 58 9 -16 25 -14 25 3 0 8 -7 17
-16 20 -20 8 -16 9 -42 -10z"/>
<path d="M3080 5293 c-33 -6 -67 -39 -92 -87 -26 -50 -12 -69 32 -44 25 14 30
15 30 3 0 -22 34 -18 56 6 19 21 19 22 -4 15 l-22 -7 20 51 c21 54 24 71 13
69 -5 -1 -19 -4 -33 -6z m0 -38 c0 -20 -56 -82 -66 -72 -8 8 21 67 40 79 17
12 26 9 26 -7z"/>
<path d="M3254 5266 c-26 -26 -34 -42 -34 -70 0 -41 15 -52 55 -42 52 13 86
114 46 136 -28 14 -29 14 -67 -24z m56 -6 c0 -29 -32 -90 -47 -90 -19 0 -16
40 7 78 22 36 40 42 40 12z"/>
<path d="M3643 5265 c-29 -29 -34 -40 -31 -72 3 -32 7 -38 28 -41 54 -6 112
95 75 131 -23 24 -32 22 -72 -18z m57 0 c0 -22 -26 -81 -39 -89 -23 -15 -31 5
-16 41 24 58 55 84 55 48z"/>
<path d="M3836 5290 c-50 -15 -96 -73 -96 -120 0 -24 17 -26 48 -4 20 14 22
14 22 0 0 -23 34 -20 56 5 19 21 19 22 -4 15 l-22 -7 25 57 c14 31 25 58 25
60 0 6 -22 3 -54 -6z m14 -26 c0 -26 -64 -93 -77 -81 -6 6 14 46 35 70 14 16
42 24 42 11z"/>
<path d="M3924 5285 c-16 -12 -17 -16 -5 -24 11 -7 11 -16 -2 -55 -16 -45 -7
-73 12 -39 5 10 19 34 29 53 12 21 27 35 38 35 10 0 20 8 22 18 5 23 -33 23
-47 0 -10 -17 -10 -17 -11 -1 0 24 -14 29 -36 13z"/>
<path d="M4047 5267 c-38 -39 -50 -78 -32 -104 11 -14 18 -16 41 -8 15 6 29
16 32 23 3 11 0 12 -16 3 -29 -15 -32 -14 -32 12 0 16 11 26 41 39 33 14 40
22 37 40 -5 35 -33 33 -71 -5z m36 -13 c-27 -20 -39 -17 -18 6 10 11 22 17 27
14 5 -3 1 -12 -9 -20z"/>
<path d="M4334 5285 c-15 -12 -16 -16 -5 -24 11 -7 11 -16 -3 -57 -19 -56 -19
-54 -6 -54 5 0 21 22 35 50 20 39 23 54 15 75 -11 29 -11 29 -36 10z"/>
<path d="M4456 5270 c-38 -34 -55 -82 -36 -105 16 -19 44 -19 60 0 11 13 9 15
-11 13 -15 -2 -24 3 -27 14 -2 13 8 22 37 34 43 17 63 50 40 65 -21 13 -25 11
-63 -21z m34 -15 c-7 -8 -17 -15 -23 -15 -5 0 -2 9 8 20 21 23 35 19 15 -5z"/>
<path d="M4571 5270 c-30 -30 -49 -89 -36 -109 10 -17 51 -13 66 5 12 15 11
16 -8 10 -29 -9 -37 7 -23 48 14 44 38 66 50 45 8 -11 12 -11 22 -1 10 10 10
15 -2 22 -24 16 -37 12 -69 -20z"/>
<path d="M4765 5295 c-5 -2 -22 -6 -38 -9 -32 -8 -87 -78 -87 -113 0 -27 10
-29 50 -8 27 14 30 14 30 0 0 -18 19 -19 43 -1 21 16 22 27 2 20 -20 -8 -19 5
5 61 25 59 25 60 -5 50z m-15 -33 c0 -17 -52 -82 -65 -82 -12 0 -12 5 -4 27 6
16 18 36 26 45 16 18 43 24 43 10z"/>
<path d="M4949 5285 c-37 -20 -64 -80 -50 -111 21 -47 84 -19 110 49 14 37 14
43 -5 61 -19 19 -22 19 -55 1z m37 -37 c-8 -41 -32 -78 -51 -78 -20 0 -19 16
5 68 24 52 56 60 46 10z"/>
<path d="M5130 5293 c-49 -9 -119 -103 -99 -134 7 -12 13 -12 39 3 25 14 30
15 30 3 0 -21 24 -18 51 6 l24 20 -23 -6 -22 -6 20 51 c21 54 24 71 13 69 -5
-1 -19 -4 -33 -6z m0 -38 c0 -8 -16 -32 -35 -53 -29 -31 -35 -34 -35 -17 0 11
8 32 17 45 28 41 53 52 53 25z"/>
<path d="M5209 5279 c-18 -15 -19 -19 -6 -15 14 5 16 1 11 -22 -4 -15 -11 -37
-15 -50 -24 -65 2 -55 36 13 18 38 32 55 43 53 9 -2 18 5 20 15 4 18 -22 24
-33 7 -3 -5 -11 -10 -16 -10 -6 0 -8 4 -4 9 12 20 -14 20 -36 0z"/>
<path d="M5365 5290 c-37 -14 -68 -57 -69 -97 -1 -32 2 -38 22 -41 24 -4 52
13 52 30 0 6 -6 5 -15 -2 -8 -6 -19 -9 -25 -5 -19 12 -10 35 17 46 52 20 81
60 51 72 -7 2 -22 1 -33 -3z m15 -19 c0 -13 -29 -35 -37 -28 -7 8 15 37 28 37
5 0 9 -4 9 -9z"/>
<path d="M5913 5278 c-16 -20 -17 -21 0 -15 21 8 21 1 2 -53 -18 -50 -18 -60
-5 -60 6 0 22 25 36 55 18 38 32 55 45 55 11 0 19 6 19 13 0 26 -14 27 -37 5
-16 -15 -22 -17 -18 -7 10 26 -21 30 -42 7z"/>
<path d="M6149 5285 c-28 -15 -63 -82 -57 -111 5 -27 50 -30 73 -4 19 21 8 29
-13 8 -22 -22 -36 5 -23 45 14 41 42 70 48 50 6 -18 33 -16 33 1 0 8 -7 17
-16 20 -19 7 -14 8 -45 -9z"/>
<path d="M6310 5293 c-42 -13 -64 -31 -87 -70 -25 -44 -25 -73 0 -73 8 0 20 7
27 15 7 8 16 15 21 15 5 0 9 -7 9 -15 0 -21 24 -19 45 5 18 20 18 21 1 14 -20
-8 -18 5 10 75 8 18 14 35 14 37 0 5 -21 4 -40 -3z m0 -32 c0 -17 -46 -76 -63
-79 -15 -3 -16 0 -6 25 6 15 18 36 26 45 17 19 43 24 43 9z"/>
<path d="M6380 5280 c-23 -20 -24 -21 -4 -17 20 4 21 3 9 -37 -20 -64 -21 -68
-10 -72 6 -2 21 20 35 49 18 37 32 53 48 55 12 2 22 10 22 17 0 22 -17 26 -35
9 -15 -15 -17 -15 -28 1 -12 15 -15 15 -37 -5z"/>
<path d="M6529 5287 c-33 -17 -71 -94 -58 -118 5 -11 17 -19 25 -19 21 0 54
19 54 31 0 6 -7 6 -19 -1 -28 -14 -31 -13 -31 13 0 16 10 26 40 39 27 11 40
23 40 36 0 26 -21 33 -51 19z m31 -13 c0 -9 -32 -33 -44 -34 -5 0 -1 9 9 20
18 20 35 26 35 14z"/>
<path d="M4387 5284 c-14 -14 -7 -25 13 -22 12 2 21 8 21 13 0 12 -24 18 -34
9z"/>
<path d="M5415 5190 c-3 -4 -2 -15 1 -24 3 -9 1 -23 -6 -31 -7 -8 -8 -15 -3
-15 15 0 43 34 43 52 0 18 -26 32 -35 18z"/>
<path d="M2830 4965 c0 -8 -13 -55 -30 -105 -33 -101 -37 -128 -16 -136 39
-15 138 90 123 130 -7 18 -39 21 -68 6 -20 -11 -22 -17 28 108 3 7 -3 12 -16
12 -12 0 -21 -6 -21 -15z m50 -115 c0 -20 -28 -65 -55 -90 l-28 -25 7 35 c9
46 76 117 76 80z"/>
<path d="M3909 4973 c-1 -5 -1 -11 0 -15 0 -4 -15 -53 -34 -110 -19 -57 -30
-107 -25 -111 12 -13 48 1 60 24 11 20 -3 28 -15 9 -3 -5 -10 -10 -14 -10 -5
0 9 48 30 108 21 59 39 108 39 110 0 6 -40 1 -41 -5z"/>
<path d="M2353 4955 c-11 -8 -28 -33 -37 -55 -12 -30 -21 -40 -38 -40 -20 0
-20 -1 -5 -12 15 -12 15 -19 -6 -98 -21 -80 -24 -85 -50 -85 -29 0 -37 -15
-14 -29 30 -19 63 21 95 117 17 51 37 93 44 93 30 3 32 6 11 14 -21 9 -22 11
-9 42 18 41 43 59 55 39 11 -17 32 -5 24 14 -7 19 -43 19 -70 0z"/>
<path d="M1066 4925 c-31 -31 -36 -57 -5 -29 20 18 21 18 35 -1 13 -18 14 -18
14 6 0 45 -15 54 -44 24z"/>
<path d="M3641 4936 c-9 -10 -9 -16 -1 -21 17 -10 37 12 24 25 -8 8 -15 6 -23
-4z"/>
<path d="M4316 4933 c-4 -9 -4 -18 -2 -21 8 -7 36 6 36 17 0 16 -28 20 -34 4z"/>
<path d="M4414 4936 c-8 -22 3 -33 18 -18 9 9 9 15 0 24 -9 9 -13 7 -18 -6z"/>
<path d="M1260 4930 c-11 -7 -12 -12 -3 -21 13 -13 33 -4 33 17 0 16 -9 18
-30 4z"/>
<path d="M2640 4920 c0 -13 5 -20 13 -17 6 2 12 10 12 17 0 7 -6 15 -12 18 -8
2 -13 -5 -13 -18z"/>
<path d="M3540 4925 c0 -8 7 -15 15 -15 8 0 15 7 15 15 0 8 -7 15 -15 15 -8 0
-15 -7 -15 -15z"/>
<path d="M4590 4924 c0 -9 5 -14 12 -12 18 6 21 28 4 28 -9 0 -16 -7 -16 -16z"/>
<path d="M4203 4883 c-12 -13 -20 -30 -17 -38 4 -8 -1 -33 -10 -56 -16 -38
-14 -59 3 -59 13 0 63 42 57 48 -3 2 -12 -1 -21 -8 -12 -10 -15 -10 -15 2 0
35 23 78 41 78 10 0 19 5 19 10 0 6 -7 10 -16 10 -10 0 -14 6 -11 15 10 24 -6
23 -30 -2z"/>
<path d="M5328 4885 c-16 -13 -23 -26 -17 -32 5 -5 1 -30 -11 -60 -12 -31 -16
-54 -10 -58 12 -7 42 8 61 31 12 15 12 16 -9 10 -26 -9 -26 -8 -7 37 8 19 24
38 37 42 19 6 20 8 6 12 -9 2 -18 13 -20 23 -3 17 -5 17 -30 -5z"/>
<path d="M5743 4883 c-12 -13 -20 -30 -17 -38 4 -8 -1 -34 -10 -57 -21 -51 -9
-69 28 -44 28 18 36 39 11 30 -18 -7 -19 2 -4 45 7 20 18 31 30 31 10 0 19 5
19 10 0 6 -7 10 -16 10 -10 0 -14 6 -11 15 10 24 -6 23 -30 -2z"/>
<path d="M1143 4874 c-12 -13 -18 -26 -13 -29 5 -3 0 -30 -10 -60 -12 -36 -15
-57 -8 -61 12 -8 60 26 66 47 5 12 3 12 -12 0 -23 -19 -27 -11 -14 32 8 24 17
37 29 37 10 0 21 5 24 10 3 6 -1 10 -9 10 -9 0 -16 9 -16 20 0 25 -9 24 -37
-6z"/>
<path d="M1868 4875 c-16 -14 -23 -26 -17 -32 6 -6 4 -26 -6 -52 -8 -24 -15
-50 -15 -57 0 -22 24 -16 51 12 24 26 24 26 2 20 -22 -7 -22 -6 -10 30 7 20
24 42 38 50 17 10 19 13 7 14 -9 0 -18 9 -20 19 -3 19 -4 18 -30 -4z"/>
<path d="M4930 4885 c0 -8 -4 -15 -8 -15 -5 0 -17 -7 -28 -15 -16 -13 -16 -14
-1 -9 9 3 17 2 17 -3 0 -20 -61 -178 -70 -181 -24 -8 -7 -22 26 -22 31 0 35 2
24 15 -18 21 5 75 32 75 25 0 75 50 84 84 7 30 -9 56 -37 56 -11 0 -19 7 -19
15 0 8 -4 15 -10 15 -5 0 -10 -7 -10 -15z m35 -93 c-11 -20 -28 -38 -38 -40
-21 -4 -19 8 9 77 14 33 15 34 32 18 16 -17 16 -20 -3 -55z"/>
<path d="M1435 4878 c-4 -10 -15 -20 -26 -23 -10 -4 -19 -11 -19 -16 0 -5 3
-8 8 -6 16 5 13 -17 -14 -94 -16 -45 -34 -83 -41 -86 -25 -10 -12 -23 23 -23
30 0 34 3 29 19 -9 30 5 71 25 71 25 0 77 51 86 84 7 28 -9 56 -32 56 -7 0
-17 8 -23 18 -9 16 -10 16 -16 0z m35 -87 c-13 -33 -37 -57 -46 -48 -5 5 0 29
22 96 4 12 7 12 21 -2 14 -13 14 -20 3 -46z"/>
<path d="M1787 4873 c-5 -7 -19 -13 -32 -13 -15 0 -36 -15 -59 -42 -52 -61
-46 -120 9 -84 22 15 25 15 25 1 0 -21 24 -19 51 6 l24 20 -23 -6 -22 -6 20
52 c20 50 24 100 7 72z m-27 -47 c0 -8 -12 -28 -26 -45 -44 -52 -61 -34 -24
27 20 33 50 44 50 18z"/>
<path d="M3152 4869 c-45 -17 -81 -85 -66 -124 9 -22 48 -19 69 6 19 20 19 20
-8 10 -31 -12 -37 -6 -30 29 6 34 43 79 50 63 7 -18 33 -16 33 1 0 19 -20 25
-48 15z"/>
<path d="M3397 4866 c-21 -16 -22 -30 -1 -22 17 6 14 -8 -12 -71 -9 -24 -10
-34 -1 -40 6 -3 12 -2 14 3 19 51 53 99 71 102 12 2 22 10 22 17 0 24 -18 26
-39 3 -17 -18 -21 -19 -21 -5 0 22 -12 27 -33 13z"/>
<path d="M3615 4862 c-22 -12 -26 -17 -14 -20 15 -3 15 -8 -3 -54 -10 -28 -16
-53 -13 -56 9 -9 58 20 63 38 5 13 3 13 -13 0 -17 -14 -17 -13 -10 10 4 14 14
38 22 54 19 37 6 49 -32 28z"/>
<path d="M3988 4864 c-46 -24 -77 -111 -47 -129 16 -10 56 3 63 20 4 13 2 14
-14 5 -27 -14 -30 -13 -30 13 0 16 11 26 41 39 32 14 40 22 37 39 -4 29 -16
32 -50 13z m32 -8 c0 -3 -7 -12 -16 -20 -23 -23 -40 -19 -19 4 16 18 35 26 35
16z"/>
<path d="M4111 4868 c-61 -22 -96 -138 -42 -138 19 0 74 39 56 40 -6 0 -16 -5
-23 -12 -22 -22 -36 5 -23 45 14 41 42 70 48 50 6 -18 33 -16 33 1 0 19 -20
25 -49 14z"/>
<path d="M4295 4862 c-22 -12 -26 -17 -14 -20 15 -3 15 -8 -4 -52 -11 -27 -17
-53 -13 -57 10 -10 58 18 64 37 4 12 2 13 -9 3 -25 -25 -28 -13 -8 34 27 62
23 76 -16 55z"/>
<path d="M4395 4868 c-29 -16 -31 -18 -16 -27 10 -7 8 -17 -8 -50 -31 -59 -15
-80 30 -40 17 15 19 19 7 15 -22 -7 -22 -7 2 53 21 53 17 66 -15 49z"/>
<path d="M4663 4869 c-13 -5 -23 -13 -23 -18 0 -6 6 -8 14 -5 12 5 11 -5 -5
-45 -10 -28 -19 -56 -19 -61 0 -22 21 -8 39 28 23 45 65 95 73 87 3 -3 -3 -29
-14 -57 -25 -66 -18 -83 14 -33 14 22 37 54 52 70 32 37 35 17 6 -49 -22 -51
-13 -67 25 -42 28 19 33 31 9 22 -12 -5 -15 -2 -9 11 21 53 26 75 21 88 -6 16
-30 11 -57 -12 -14 -12 -17 -11 -22 7 -6 22 -27 19 -61 -9 -18 -15 -19 -15
-13 1 8 22 -2 28 -30 17z"/>
<path d="M5081 4867 c-13 -6 -32 -29 -42 -51 -43 -96 48 -119 97 -24 18 35 18
53 -2 72 -18 18 -21 19 -53 3z m35 -39 c-8 -41 -32 -78 -51 -78 -20 0 -19 16
6 67 25 52 55 60 45 11z"/>
<path d="M5466 4870 c-50 -15 -96 -73 -96 -120 0 -26 21 -26 51 1 l24 20 -23
-6 c-22 -6 -23 -5 -17 17 12 36 38 67 57 68 19 0 15 -22 -7 -50 -13 -16 -14
-54 -2 -66 9 -9 57 16 57 28 0 5 -10 6 -21 3 -12 -4 -19 -3 -16 2 3 5 15 32
26 61 22 55 20 58 -33 42z"/>
<path d="M5619 4853 c-30 -25 -31 -26 -25 -5 5 16 3 22 -8 22 -23 0 -46 -11
-46 -22 0 -6 7 -7 16 -4 17 6 14 -8 -12 -71 -19 -49 1 -49 29 -1 27 47 77 98
77 80 0 -6 -9 -34 -20 -62 -11 -28 -20 -53 -20 -55 0 -14 40 -2 56 17 17 19
17 21 2 15 -22 -8 -22 -7 -2 43 16 39 14 70 -5 70 -5 0 -24 -12 -42 -27z"/>
<path d="M5841 4854 c-71 -59 -46 -166 25 -108 18 15 18 15 -8 10 -51 -11 -48
29 4 54 41 20 59 47 38 60 -21 14 -25 13 -59 -16z m34 -14 c-10 -11 -23 -20
-28 -20 -6 0 -2 9 8 20 10 11 23 20 28 20 6 0 2 -9 -8 -20z"/>
<path d="M6270 4873 c-33 -6 -79 -49 -97 -91 -22 -53 -2 -67 47 -32 l28 20 -5
-20 c-7 -27 17 -26 48 1 l24 20 -23 -6 -22 -7 20 54 c22 58 24 69 13 67 -5 -1
-19 -4 -33 -6z m0 -37 c0 -20 -49 -76 -66 -76 -12 0 -12 5 2 33 9 17 21 38 26
45 14 16 38 15 38 -2z"/>
<path d="M6428 4864 c-16 -8 -28 -19 -28 -24 0 -15 11 -12 26 7 22 32 25 7 4
-41 -31 -72 -22 -96 23 -62 21 16 22 30 2 22 -16 -6 -20 5 -6 20 4 5 13 23 19
41 14 42 -2 57 -40 37z"/>
<path d="M6528 4860 c-21 -16 -22 -21 -10 -52 18 -51 16 -59 -14 -52 -20 5
-25 3 -22 -7 8 -25 46 -22 63 5 15 23 16 28 1 57 -20 41 -21 39 9 39 27 0 34
15 10 23 -7 3 -24 -2 -37 -13z"/>
<path d="M6660 4872 c-68 -22 -107 -142 -46 -142 13 0 29 7 36 15 11 13 9 15
-11 13 -36 -4 -38 29 -2 43 52 20 81 60 51 71 -7 3 -20 3 -28 0z m10 -20 c0
-11 -22 -32 -32 -32 -5 0 -4 9 2 20 11 20 30 28 30 12z"/>
<path d="M1039 4849 c-19 -16 -20 -19 -6 -15 10 3 17 3 15 -2 -25 -56 -39
-104 -34 -109 9 -10 58 18 64 35 3 11 0 12 -16 3 -21 -11 -21 -11 -3 29 10 22
21 43 24 47 12 11 7 33 -7 33 -8 0 -24 -9 -37 -21z"/>
<path d="M1244 4860 c-28 -11 -40 -30 -20 -30 13 0 12 -6 -4 -42 -23 -51 -25
-68 -6 -68 16 0 69 40 62 48 -3 2 -12 -1 -21 -8 -19 -16 -20 1 -1 38 20 39 29
72 19 71 -4 0 -18 -4 -29 -9z"/>
<path d="M1582 4854 c-45 -31 -66 -100 -37 -124 36 -30 105 28 107 91 2 46
-30 61 -70 33z m43 -14 c10 -16 -32 -100 -51 -100 -13 0 -15 6 -11 30 7 33 35
80 48 80 4 0 11 -4 14 -10z"/>
<path d="M1972 4860 c-30 -12 -69 -97 -55 -119 6 -9 16 -17 24 -18 18 -3 55
24 46 34 -4 4 -13 1 -19 -5 -18 -18 -28 -14 -28 12 0 17 7 26 25 30 14 4 35
16 46 27 16 16 18 23 8 35 -13 16 -15 16 -47 4z m13 -30 c-10 -11 -20 -18 -23
-15 -7 6 18 35 31 35 5 0 2 -9 -8 -20z"/>
<path d="M2168 4853 c-46 -29 -67 -116 -32 -130 58 -22 142 88 99 131 -20 20
-33 20 -67 -1z m52 -17 c0 -37 -38 -96 -61 -96 -16 0 -10 44 11 78 20 33 50
44 50 18z"/>
<path d="M2396 4849 c-58 -46 -73 -129 -22 -129 13 0 29 7 36 15 11 13 9 15
-11 13 -39 -5 -36 28 5 47 35 17 53 45 41 65 -9 15 -19 12 -49 -11z m22 -19
c-13 -20 -28 -27 -28 -12 0 10 22 32 32 32 5 0 3 -9 -4 -20z"/>
<path d="M2488 4856 c-22 -16 -23 -30 -3 -22 12 4 14 0 9 -22 -4 -15 -11 -35
-15 -44 -5 -9 -9 -24 -9 -32 0 -31 18 -15 38 34 14 34 29 53 46 60 15 5 26 14
26 19 0 16 -28 20 -41 5 -10 -12 -13 -12 -23 0 -9 13 -14 13 -28 2z"/>
<path d="M2617 4854 c-29 -16 -37 -30 -11 -20 17 7 13 -16 -13 -68 -20 -39 -4
-55 31 -32 15 9 26 21 26 27 0 7 -6 6 -17 -2 -15 -12 -16 -12 -11 6 3 11 13
37 22 57 19 43 11 52 -27 32z"/>
<path d="M2934 4849 c-19 -21 -19 -22 3 -15 l21 7 -19 -51 c-17 -45 -17 -51
-3 -57 9 -3 27 6 45 23 l31 29 -7 -27 c-9 -35 11 -38 44 -7 25 23 21 40 -4 19
-13 -11 -12 -3 4 39 25 62 25 61 6 61 -8 0 -15 -6 -15 -13 0 -16 -67 -97 -80
-97 -5 0 0 19 10 43 11 23 20 48 20 55 0 20 -35 14 -56 -9z"/>
<path d="M3228 4859 c-22 -12 -24 -31 -3 -23 19 8 19 -4 0 -36 -18 -32 -19
-70 -2 -70 8 0 24 11 37 25 23 25 16 37 -8 13 -17 -17 -15 -7 8 52 18 46 18
50 2 50 -9 0 -25 -5 -34 -11z"/>
<path d="M3309 4833 c-23 -38 -31 -90 -16 -100 11 -7 57 25 57 39 0 9 -3 9
-12 0 -24 -24 -27 -11 -8 34 11 25 20 50 20 55 0 20 -19 7 -41 -28z"/>
<path d="M3511 4856 c-9 -11 -9 -15 1 -18 10 -4 9 -13 -4 -42 -31 -64 -15 -88
30 -46 28 26 28 34 2 20 -20 -11 -20 -11 -4 27 28 64 28 73 6 73 -11 0 -25 -6
-31 -14z"/>
<path d="M4555 4858 c-17 -10 -17 -12 -3 -17 15 -5 15 -10 -4 -54 -11 -26 -18
-51 -14 -55 10 -9 58 19 64 38 5 13 3 13 -11 1 -22 -17 -21 -13 3 49 18 46 18
50 2 50 -9 0 -26 -6 -37 -12z"/>
<path d="M5179 4853 c-12 -15 -12 -16 4 -10 21 8 21 1 2 -53 -18 -50 -18 -60
-5 -60 6 0 19 17 28 38 35 76 42 84 58 71 11 -9 14 -7 14 10 0 21 -24 29 -35
11 -3 -5 -11 -10 -16 -10 -6 0 -7 5 -4 10 11 17 -32 11 -46 -7z"/>
<path d="M6109 4854 c-10 -12 -10 -22 -1 -48 18 -50 16 -59 -14 -52 -19 5 -25
3 -22 -6 8 -24 46 -21 63 6 15 22 15 27 1 55 -21 39 -20 41 10 41 14 0 23 4
19 10 -9 15 -41 12 -56 -6z"/>
<path d="M6353 4863 c-7 -2 -13 -9 -13 -14 0 -6 5 -7 10 -4 15 9 12 -20 -5
-62 -28 -67 -11 -75 25 -10 40 68 31 110 -17 90z"/>
<path d="M3677 4773 c-4 -3 -2 -12 4 -20 9 -10 8 -18 -6 -33 -24 -26 -1 -26
25 0 16 16 18 25 10 40 -11 21 -22 25 -33 13z"/>
<path d="M5923 4758 c4 -14 0 -29 -10 -40 -18 -20 -11 -23 16 -8 25 13 34 39
20 56 -18 21 -32 17 -26 -8z"/>
<path d="M4157 4714 c-4 -4 -2 -13 4 -20 7 -8 7 -14 -1 -19 -20 -12 -10 -26
11 -15 13 7 19 19 17 32 -3 22 -19 33 -31 22z"/>
<path d="M6078 4714 c-4 -3 -4 -12 -1 -20 3 -8 0 -21 -7 -29 -15 -19 0 -20 24
-2 10 7 17 22 15 32 -4 19 -21 30 -31 19z"/>
<path d="M1101 4694 c2 -11 0 -25 -5 -32 -12 -19 1 -27 19 -12 18 15 16 51 -3
58 -9 3 -13 -3 -11 -14z"/>
<path d="M2175 4510 c-7 -12 2 -30 16 -30 5 0 9 9 9 20 0 21 -15 27 -25 10z"/>
<path d="M2743 4505 c-3 -9 -3 -18 0 -21 9 -9 27 6 27 22 0 19 -19 18 -27 -1z"/>
<path d="M3114 4506 c-8 -22 3 -33 18 -18 9 9 9 15 0 24 -9 9 -13 7 -18 -6z"/>
<path d="M3323 4505 c-3 -9 -3 -18 0 -21 9 -9 27 6 27 22 0 19 -19 18 -27 -1z"/>
<path d="M4413 4505 c-3 -9 -3 -18 0 -21 9 -9 27 6 27 22 0 19 -19 18 -27 -1z"/>
<path d="M5067 4505 c-8 -18 11 -31 25 -17 11 11 3 32 -12 32 -4 0 -10 -7 -13
-15z"/>
<path d="M2994 4455 c-13 -14 -18 -27 -13 -32 6 -6 3 -24 -6 -46 -17 -40 -20
-77 -6 -77 13 0 61 40 61 52 0 6 -6 5 -15 -2 -22 -18 -25 -10 -12 32 8 26 19
39 37 44 19 6 21 8 8 11 -10 3 -18 13 -18 24 0 24 -10 23 -36 -6z"/>
<path d="M3610 4460 c-6 -11 -18 -20 -28 -21 -16 0 -16 -1 -1 -11 16 -11 15
-16 -3 -65 -12 -29 -18 -56 -15 -59 10 -10 67 26 67 42 0 14 -3 14 -15 4 -20
-16 -20 -1 0 46 8 20 19 33 24 30 5 -4 12 -2 15 3 3 5 -1 12 -10 15 -8 3 -13
10 -9 15 3 5 1 12 -4 16 -6 3 -15 -4 -21 -15z"/>
<path d="M4954 4455 c-13 -14 -18 -27 -13 -32 6 -6 3 -24 -6 -46 -17 -40 -20
-77 -6 -77 14 0 61 40 61 52 0 6 -10 3 -21 -8 -22 -19 -22 -19 -15 6 17 61 29
80 50 81 17 1 17 2 4 6 -10 2 -18 13 -18 24 0 24 -10 23 -36 -6z"/>
<path d="M4573 4445 c-23 -23 -31 -41 -13 -30 16 10 12 -7 -21 -98 -19 -52
-38 -88 -48 -90 -9 -3 4 -5 29 -6 25 0 40 3 33 7 -18 12 -1 66 22 71 32 6 61
30 80 65 21 39 15 63 -20 76 -14 5 -25 14 -25 20 0 15 -12 10 -37 -15z m63
-58 c-7 -35 -33 -67 -54 -67 -9 0 -12 6 -7 18 4 9 11 29 15 44 12 40 19 48 36
41 12 -4 14 -14 10 -36z"/>
<path d="M2416 4451 c-4 -6 -18 -11 -31 -11 -17 0 -36 -15 -65 -51 -22 -28
-40 -57 -40 -65 0 -23 28 -28 55 -10 29 19 36 20 33 5 -5 -21 19 -20 43 1 24
21 24 21 2 15 l-22 -6 25 57 c16 35 22 60 16 66 -6 6 -12 6 -16 -1z m-16 -37
c0 -26 -64 -93 -77 -81 -6 6 14 46 35 70 14 16 42 24 42 11z"/>
<path d="M5365 4451 c-3 -6 -16 -11 -29 -11 -42 0 -122 -108 -97 -133 5 -5 20
-3 37 6 25 13 30 13 40 -1 11 -15 14 -14 36 0 22 14 25 14 34 1 14 -23 53 -7
60 23 4 14 1 37 -5 50 -14 31 -7 44 19 37 23 -6 27 12 5 21 -39 15 -64 -28
-45 -78 13 -36 5 -48 -25 -36 -14 5 -32 7 -42 3 -13 -5 -15 -3 -9 13 22 54 38
106 33 110 -3 3 -8 1 -12 -5z m-25 -45 c0 -8 -12 -28 -26 -45 -44 -52 -61 -34
-24 27 20 33 50 44 50 18z"/>
<path d="M2056 4437 c-14 -10 -17 -22 -13 -43 13 -69 13 -69 -10 -66 -16 2
-23 -2 -23 -12 0 -20 30 -21 54 -3 19 14 19 48 1 90 -6 14 -2 17 19 17 29 0
35 14 10 24 -20 8 -17 8 -38 -7z"/>
<path d="M2149 4430 c-20 -16 -21 -19 -6 -20 16 0 16 -3 -3 -40 -19 -38 -26
-70 -15 -70 14 0 65 32 65 40 0 14 -14 12 -29 -2 -7 -7 -3 11 8 40 31 78 26
91 -20 52z"/>
<path d="M2478 4443 c-9 -2 -19 -11 -22 -19 -4 -11 -1 -14 13 -9 19 6 19 5 0
-47 -21 -58 -23 -68 -11 -68 4 0 19 22 34 48 15 26 37 57 49 67 l22 20 -8 -25
c-4 -14 -14 -40 -21 -59 -27 -66 -8 -72 29 -8 14 23 37 53 52 67 l27 25 -7
-25 c-4 -14 -14 -37 -21 -52 -14 -26 -19 -58 -9 -58 2 0 16 5 30 12 26 12 36
34 10 25 -11 -5 -12 -1 -5 19 6 14 14 34 20 44 12 22 3 50 -16 50 -8 0 -23 -9
-34 -20 -23 -23 -34 -26 -27 -6 9 22 -21 28 -49 10 -22 -15 -24 -15 -24 0 0
16 -2 17 -32 9z"/>
<path d="M2725 4437 c-10 -8 -15 -19 -12 -24 4 -6 0 -30 -8 -53 -8 -23 -12
-46 -10 -51 7 -11 52 10 59 28 4 11 1 11 -14 3 -25 -13 -25 -12 0 45 29 67 25
80 -15 52z"/>
<path d="M2818 4436 c-22 -17 -23 -27 -2 -19 18 7 15 -8 -11 -74 -7 -17 -11
-34 -8 -37 8 -8 33 14 33 28 0 15 70 99 77 92 3 -2 -4 -30 -16 -61 -12 -31
-21 -58 -21 -60 0 -12 30 -3 51 16 17 15 19 19 7 15 -22 -7 -23 10 -3 44 31
54 4 91 -39 51 -28 -26 -36 -27 -29 -1 6 23 -13 26 -39 6z"/>
<path d="M3095 4438 c-29 -16 -31 -18 -16 -27 10 -7 8 -17 -9 -51 -26 -51 -15
-72 24 -46 15 9 26 21 26 27 0 7 -6 6 -17 -2 -15 -12 -16 -12 -11 6 3 11 13
37 22 57 17 41 11 52 -19 36z"/>
<path d="M3172 4438 c-15 -15 -16 -32 -2 -23 14 9 13 -5 -5 -55 -17 -50 -18
-60 -6 -60 6 0 23 26 39 58 20 39 35 56 46 54 10 -2 16 4 16 18 0 24 -13 26
-31 4 -11 -14 -13 -14 -21 0 -11 19 -20 20 -36 4z"/>
<path d="M3301 4434 c-15 -11 -19 -19 -12 -24 8 -5 7 -17 -4 -43 -17 -41 -19
-67 -6 -67 13 0 63 42 57 48 -3 2 -12 -1 -21 -8 -20 -16 -19 -11 5 46 23 53
16 72 -19 48z"/>
<path d="M3502 4436 c-29 -16 -62 -65 -62 -92 0 -33 25 -49 55 -36 14 7 25 16
25 22 0 7 -6 8 -19 1 -10 -6 -21 -7 -25 -4 -15 15 -3 34 33 53 46 23 53 32 45
54 -7 19 -21 20 -52 2z m28 -15 c0 -13 -29 -35 -37 -28 -7 8 15 37 28 37 5 0
9 -4 9 -9z"/>
<path d="M3698 4423 c-37 -38 -54 -88 -38 -108 17 -21 44 -19 65 5 19 21 8 29
-12 9 -6 -6 -16 -8 -22 -5 -22 14 -10 35 32 58 27 15 42 30 42 43 0 31 -37 30
-67 -2z m32 -18 c-7 -8 -17 -15 -23 -15 -5 0 -2 9 8 20 21 23 35 19 15 -5z"/>
<path d="M3794 4428 c-17 -19 -17 -21 -1 -15 9 4 17 5 17 4 0 -2 -7 -27 -16
-56 -8 -29 -12 -56 -8 -59 4 -4 8 -2 10 3 3 6 18 33 34 62 21 36 35 51 45 47
10 -4 15 0 15 15 0 25 -13 27 -33 6 -13 -13 -16 -13 -21 0 -8 21 -20 19 -42
-7z"/>
<path d="M3928 4439 c-10 -5 -18 -15 -18 -20 0 -6 5 -7 10 -4 14 9 12 -9 -6
-54 -21 -53 -12 -76 12 -32 11 19 34 51 51 70 38 43 43 27 13 -43 -22 -51 -13
-67 25 -42 28 18 33 31 10 22 -8 -3 -15 -4 -15 -2 0 2 7 20 15 39 8 20 15 43
15 52 0 28 -30 29 -59 1 l-28 -27 4 25 c6 28 -2 31 -29 15z"/>
<path d="M4114 4432 c-24 -20 -54 -73 -54 -95 0 -27 28 -41 55 -29 14 7 25 16
25 22 0 7 -6 8 -19 1 -21 -12 -31 -5 -31 20 0 10 10 19 25 23 14 4 35 16 46
27 16 16 18 23 8 35 -15 18 -29 17 -55 -4z m36 -11 c0 -13 -29 -35 -37 -28 -7
8 15 37 28 37 5 0 9 -4 9 -9z"/>
<path d="M4295 4430 c-16 -18 -17 -25 -7 -54 18 -49 16 -57 -14 -50 -20 5 -25
3 -22 -7 8 -25 45 -22 63 4 14 22 14 27 0 60 -16 38 -14 41 19 37 11 -1 17 3
14 12 -7 21 -33 20 -53 -2z"/>
<path d="M4391 4434 c-14 -10 -19 -19 -12 -23 7 -5 5 -22 -7 -53 -9 -26 -13
-50 -10 -54 9 -9 58 23 58 37 0 8 -5 7 -15 -1 -20 -16 -19 -11 5 45 30 69 26
80 -19 49z"/>
<path d="M4704 4428 c-17 -19 -17 -21 -1 -15 21 8 21 1 2 -53 -18 -50 -18 -60
-5 -60 5 0 18 20 29 45 23 53 41 73 59 67 7 -2 12 5 12 17 0 25 -13 27 -31 5
-11 -14 -13 -14 -21 0 -12 21 -21 20 -44 -6z"/>
<path d="M4832 4416 c-37 -43 -46 -69 -32 -96 14 -26 42 -26 66 2 19 21 19 21
-1 14 -34 -13 -40 -12 -40 7 0 10 17 27 40 40 45 25 55 60 19 65 -14 2 -31 -9
-52 -32z m48 5 c0 -13 -29 -35 -37 -28 -7 8 15 37 28 37 5 0 9 -4 9 -9z"/>
<path d="M5039 4428 c-18 -16 -19 -19 -6 -15 15 6 17 3 11 -16 -3 -12 -13 -35
-21 -51 -8 -15 -11 -32 -6 -37 11 -11 55 11 61 31 5 13 3 13 -11 1 -22 -18
-21 -3 2 50 28 61 14 77 -30 37z"/>
<path d="M5147 4430 c-49 -39 -55 -130 -9 -130 62 0 114 111 68 142 -18 12
-32 9 -59 -12z m48 -27 c-11 -48 -29 -78 -49 -81 -16 -4 -18 0 -13 27 8 40 35
81 54 81 12 0 13 -7 8 -27z"/>
<path d="M5539 4437 c-22 -17 -59 -78 -59 -98 0 -29 27 -44 55 -31 14 7 25 16
25 22 0 7 -6 7 -20 0 -16 -9 -22 -8 -27 6 -7 18 2 26 57 56 20 12 30 24 28 35
-4 22 -37 27 -59 10z m31 -16 c0 -13 -29 -35 -37 -28 -7 8 15 37 28 37 5 0 9
-4 9 -9z"/>
<path d="M5607 4333 c-4 -3 -7 -12 -7 -20 0 -17 26 -17 33 1 8 21 -11 35 -26
19z"/>
<path d="M2014 4274 c4 -9 1 -23 -5 -31 -19 -22 0 -29 22 -7 22 22 17 54 -8
54 -10 0 -13 -6 -9 -16z"/>
<path d="M4259 4288 c0 -2 -2 -17 -3 -35 -3 -23 0 -30 10 -26 26 10 29 63 3
63 -5 0 -9 -1 -10 -2z"/>
<path d="M4914 4272 c4 -11 2 -23 -4 -27 -20 -12 -10 -26 11 -15 22 13 23 50
0 58 -9 3 -11 -1 -7 -16z"/>
<path d="M3620 4049 c-64 -26 -108 -100 -96 -164 17 -91 156 -84 200 9 21 45
21 108 -1 134 -22 25 -69 34 -103 21z m75 -26 c36 -35 -1 -154 -57 -184 -28
-15 -67 -3 -77 25 -14 35 6 108 39 144 32 36 69 42 95 15z"/>
<path d="M4719 4037 c8 -11 6 -28 -9 -72 -36 -105 -22 -145 51 -145 55 0 92
38 114 116 9 32 25 71 36 87 l20 27 -38 0 c-26 0 -34 -3 -24 -9 31 -20 -32
-182 -79 -201 -39 -16 -70 1 -70 39 0 40 37 144 57 159 14 10 10 12 -26 12
-35 0 -41 -3 -32 -13z"/>
<path d="M1059 4027 c13 -16 -32 -175 -55 -193 -24 -19 -16 -24 34 -24 111 0
180 45 189 122 5 42 3 50 -25 78 -27 27 -37 30 -92 30 -51 0 -60 -3 -51 -13z
m119 -21 c6 -3 12 -18 15 -32 13 -70 -44 -144 -110 -144 -40 0 -39 -10 -7 115
10 39 22 73 27 76 9 7 56 -3 75 -15z"/>
<path d="M5766 4016 c-22 -34 -20 -43 3 -22 18 17 20 17 30 -1 10 -16 11 -14
9 11 -4 38 -21 43 -42 12z"/>
<path d="M1751 4016 c-9 -10 -9 -16 -1 -21 17 -10 37 12 24 25 -8 8 -15 6 -23
-4z"/>
<path d="M3210 4014 c0 -9 5 -14 12 -12 18 6 21 28 4 28 -9 0 -16 -7 -16 -16z"/>
<path d="M1320 4005 c0 -34 57 -29 69 6 4 12 2 12 -13 0 -14 -12 -22 -12 -37
-3 -16 10 -19 9 -19 -3z"/>
<path d="M2465 4011 c-3 -5 -1 -12 5 -16 12 -7 30 2 30 16 0 12 -27 12 -35 0z"/>
<path d="M4403 4005 c6 -16 53 -17 66 -2 9 12 5 14 -29 13 -22 0 -39 -5 -37
-11z"/>
<path d="M6584 3975 c-4 -8 -13 -15 -21 -15 -12 0 -13 -3 -4 -14 8 -10 7 -24
-4 -56 -8 -23 -15 -49 -15 -56 0 -22 24 -16 50 11 24 25 16 36 -9 13 -11 -11
-12 -8 -6 12 17 58 25 70 45 70 11 0 20 5 20 10 0 6 -7 10 -15 10 -8 0 -15 7
-15 15 0 8 -5 15 -10 15 -6 0 -13 -7 -16 -15z"/>
<path d="M2027 3959 c-10 -11 -15 -24 -12 -30 4 -5 -1 -32 -10 -60 -20 -58
-14 -69 22 -49 30 17 44 44 18 33 -14 -5 -16 -2 -11 15 3 12 9 31 12 42 3 11
14 20 25 20 10 0 19 5 19 10 0 6 -7 10 -16 10 -10 0 -14 6 -10 15 8 21 -15 17
-37 -6z"/>
<path d="M2356 3965 c-3 -8 -12 -15 -21 -15 -18 0 -20 -17 -3 -22 8 -3 6 -19
-7 -56 -21 -59 -15 -73 22 -52 33 19 42 40 14 33 -20 -5 -20 -4 -4 36 11 27
22 41 35 41 10 0 18 5 18 10 0 6 -7 10 -16 10 -10 0 -14 6 -10 15 3 9 0 15 -8
15 -8 0 -16 -7 -20 -15z"/>
<path d="M6270 3971 c0 -5 -9 -13 -20 -16 -11 -3 -20 -11 -20 -16 0 -6 5 -7
10 -4 16 10 12 -9 -20 -97 -17 -46 -38 -89 -47 -95 -14 -11 -11 -13 25 -13 38
0 41 2 31 18 -15 24 4 72 29 72 27 0 67 34 81 69 15 36 1 71 -29 71 -11 0 -20
5 -20 10 0 6 -4 10 -10 10 -5 0 -10 -4 -10 -9z m45 -70 c-8 -31 -44 -73 -57
-65 -9 6 -5 27 18 83 12 29 16 32 30 20 10 -8 13 -21 9 -38z"/>
<path d="M2858 3954 c-28 -14 -38 -34 -18 -34 6 0 10 5 10 10 0 6 7 10 15 10
13 0 13 -5 -1 -37 -34 -78 -29 -97 17 -73 22 12 26 35 5 27 -10 -4 -9 6 5 43
22 58 11 77 -33 54z"/>
<path d="M4012 3959 c-20 -6 -44 -25 -62 -51 -47 -64 -36 -112 16 -73 25 19
35 19 28 0 -9 -23 30 -19 52 6 19 22 19 22 -5 14 -13 -4 -21 -3 -18 2 3 5 15
32 26 61 22 56 21 57 -37 41z m11 -40 c-6 -22 -62 -83 -70 -75 -8 7 6 42 28
70 25 32 49 35 42 5z"/>
<path d="M4169 3943 c-30 -26 -31 -26 -25 -5 5 16 3 22 -8 22 -23 0 -46 -11
-46 -22 0 -6 7 -8 15 -4 18 7 18 7 1 -35 -36 -88 -26 -110 17 -36 27 45 64 84
72 75 3 -3 -4 -26 -15 -52 -11 -26 -20 -52 -20 -57 0 -13 34 -11 48 3 17 17
15 29 -3 22 -12 -5 -11 2 5 37 11 24 20 49 20 55 0 24 -31 22 -61 -3z"/>
<path d="M4422 3959 c-37 -11 -92 -79 -92 -116 0 -27 20 -30 56 -7 22 15 24
15 18 0 -9 -24 29 -21 52 5 19 22 19 22 -5 14 -13 -4 -21 -3 -18 2 3 5 15 32
26 61 22 56 21 57 -37 41z m10 -37 c-9 -24 -33 -54 -56 -72 -18 -14 -19 -13
-12 15 4 17 17 40 28 53 26 27 50 30 40 4z"/>
<path d="M5384 3960 c-41 -16 -76 -98 -54 -125 21 -26 57 -18 84 18 46 60 26
128 -30 107z m30 -19 c8 -12 -13 -72 -32 -93 -35 -41 -41 24 -6 77 17 26 29
31 38 16z"/>
<path d="M1349 3953 c-49 -8 -125 -95 -112 -129 7 -18 21 -18 56 0 23 13 27
13 27 0 0 -17 14 -18 41 -4 23 13 26 32 3 23 -18 -7 -15 8 12 76 16 39 17 42
7 40 -5 -1 -20 -4 -34 -6z m1 -38 c0 -16 -69 -89 -77 -81 -8 7 6 42 28 70 22
28 49 35 49 11z"/>
<path d="M1740 3952 c-27 -8 -42 -25 -30 -32 7 -4 4 -22 -10 -55 -11 -26 -18
-50 -16 -53 3 -2 19 1 36 8 37 15 53 36 22 28 -27 -7 -27 -7 -1 43 22 45 22
69 -1 61z"/>
<path d="M1833 3940 c-52 -31 -72 -122 -28 -128 11 -1 29 4 40 13 19 15 19 15
-7 9 -25 -5 -28 -3 -28 17 0 18 10 28 40 41 27 11 40 23 40 36 0 28 -23 33
-57 12z m37 -8 c0 -13 -23 -32 -39 -32 -11 0 -10 4 4 20 19 21 35 26 35 12z"/>
<path d="M2143 3949 c-49 -18 -84 -122 -47 -136 19 -7 46 7 53 28 4 12 2 12
-12 1 -9 -8 -20 -11 -26 -8 -13 8 -1 46 15 46 7 0 26 11 41 24 25 22 26 26 13
39 -11 11 -22 12 -37 6z m4 -36 c-9 -9 -19 -14 -22 -11 -3 3 2 13 11 22 9 9
19 14 22 11 3 -3 -2 -13 -11 -22z"/>
<path d="M2604 3935 c-18 -17 -22 -25 -11 -21 21 7 21 8 2 -44 -23 -65 -7 -77
45 -34 l31 27 -7 -27 c-4 -18 -2 -26 7 -26 20 1 49 25 49 40 0 10 -4 9 -17 -1
-14 -12 -15 -12 -10 1 20 50 29 91 22 98 -4 4 -10 1 -12 -6 -8 -21 -67 -95
-80 -99 -7 -3 -4 15 8 48 24 64 13 81 -27 44z"/>
<path d="M2779 3939 c-23 -20 -23 -20 -2 -14 l21 6 -19 -51 c-21 -57 -23 -70
-9 -70 13 0 53 90 54 123 1 32 -13 34 -45 6z"/>
<path d="M3026 3945 c-11 -8 -17 -18 -13 -21 4 -4 13 -1 22 6 19 16 19 11 0
-33 -8 -20 -15 -46 -15 -57 0 -44 75 -8 105 50 18 36 20 73 3 67 -7 -2 -12
-11 -10 -20 6 -32 -49 -110 -65 -93 -4 3 1 28 10 54 9 26 17 50 17 55 0 12
-34 7 -54 -8z"/>
<path d="M3181 3946 c-9 -11 -9 -15 0 -18 8 -3 8 -12 -3 -33 -38 -74 -27 -99
23 -54 19 16 20 19 6 15 -15 -5 -17 -2 -11 17 3 12 13 34 20 49 8 15 14 29 14
33 0 11 -38 4 -49 -9z"/>
<path d="M3269 3939 c-8 -16 -8 -28 0 -46 19 -41 14 -54 -15 -47 -20 5 -25 3
-22 -7 7 -22 42 -22 63 1 18 19 18 22 2 56 -22 45 -22 47 8 40 18 -5 25 -2 25
9 0 24 -47 19 -61 -6z"/>
<path d="M3866 3944 c-20 -19 -20 -28 -1 -63 17 -34 11 -43 -23 -34 -18 4 -23
2 -20 -8 7 -21 43 -22 63 -3 16 17 16 28 -1 83 -6 21 -5 23 14 19 15 -4 22 -2
22 8 0 19 -35 18 -54 -2z"/>
<path d="M4269 3939 c-8 -16 -8 -28 0 -46 16 -35 14 -53 -6 -50 -10 1 -20 -2
-23 -8 -9 -18 37 -17 55 1 16 17 16 28 -1 83 -6 21 -5 23 14 19 15 -4 22 -2
22 8 0 23 -48 17 -61 -7z"/>
<path d="M4919 3943 c-12 -15 -12 -16 4 -10 20 8 19 -4 -9 -72 -17 -40 -17
-41 -5 -41 5 0 20 19 34 43 27 46 64 84 73 75 3 -4 -5 -29 -17 -57 -24 -58
-21 -70 16 -53 26 12 36 35 10 26 -12 -5 -11 2 5 37 11 24 20 50 20 57 0 20
-42 14 -68 -10 l-24 -23 6 23 c6 17 3 22 -12 22 -11 0 -26 -8 -33 -17z"/>
<path d="M5169 3943 c-12 -15 -12 -16 4 -10 21 8 21 1 2 -53 -8 -23 -15 -46
-15 -51 0 -18 17 -8 28 17 17 37 65 94 79 94 8 0 3 -19 -12 -55 -27 -59 -20
-76 21 -54 26 13 33 35 9 25 -18 -7 -18 2 0 34 35 61 5 92 -48 50 -25 -20 -25
-20 -20 0 7 26 -28 28 -48 3z"/>
<path d="M5479 3939 l-24 -20 23 6 c23 7 23 6 7 -30 -28 -68 -11 -100 30 -55
10 11 22 20 27 20 5 0 6 -9 3 -20 -4 -13 -2 -20 7 -20 18 0 58 29 58 42 0 7
-6 6 -15 -2 -11 -9 -15 -9 -15 -1 0 6 7 28 15 48 17 41 19 53 6 53 -6 0 -20
-18 -32 -40 -13 -22 -33 -47 -46 -55 -27 -18 -27 -19 -8 35 8 23 15 46 15 51
0 16 -27 10 -51 -12z"/>
<path d="M5744 3945 c-17 -13 -17 -14 -2 -15 16 0 15 -3 -2 -42 -32 -70 -20
-88 30 -47 24 20 24 20 3 16 l-21 -5 19 45 c10 25 19 49 19 54 0 14 -24 11
-46 -6z"/>
<path d="M5829 3943 c-12 -15 -12 -16 4 -10 20 8 19 -4 -9 -72 -17 -40 -17
-41 -5 -41 5 0 20 19 34 43 30 50 77 97 77 76 0 -8 -9 -34 -20 -58 -11 -24
-20 -47 -20 -52 0 -17 37 -9 56 12 19 21 19 22 -3 15 l-22 -7 20 40 c10 22 19
47 19 56 0 23 -40 19 -68 -7 l-24 -23 6 23 c6 17 3 22 -12 22 -11 0 -26 -8
-33 -17z"/>
<path d="M6011 3933 c-55 -69 -27 -147 34 -98 19 16 19 16 -7 10 -25 -5 -28
-3 -28 21 0 26 28 84 42 84 4 0 10 -4 13 -10 9 -15 25 -12 25 5 0 27 -56 18
-79 -12z"/>
<path d="M6133 3938 c-49 -54 -57 -104 -18 -114 25 -6 55 9 55 28 0 6 -6 5
-15 -2 -8 -6 -19 -9 -25 -5 -21 13 -9 35 27 50 38 16 53 30 53 53 0 21 -55 14
-77 -10z m37 -13 c-7 -8 -17 -15 -23 -15 -5 0 -2 9 8 20 21 23 35 19 15 -5z"/>
<path d="M6388 3946 c-22 -16 -23 -30 -3 -22 8 3 15 2 15 -3 0 -5 -7 -25 -15
-44 -8 -20 -15 -41 -15 -47 0 -18 28 -11 60 16 l31 27 -7 -27 c-8 -33 15 -36
42 -4 17 19 17 21 2 15 -22 -8 -22 -8 2 53 16 40 17 50 6 50 -8 0 -18 -9 -21
-21 -8 -24 -63 -89 -76 -89 -4 0 -2 15 5 33 27 66 29 77 9 77 -10 0 -26 -7
-35 -14z"/>
<path d="M1410 3935 c-10 -12 -10 -15 4 -15 19 0 19 2 1 -50 -8 -23 -15 -46
-15 -51 0 -16 20 -9 27 9 4 9 17 34 30 54 20 33 27 38 58 35 19 -1 35 -3 35
-3 0 -1 -7 -21 -15 -44 -8 -23 -15 -46 -15 -51 0 -17 29 -9 60 17 l31 27 -7
-27 c-8 -33 12 -35 45 -5 24 23 21 40 -4 19 -19 -16 -19 -15 5 48 15 40 17 52
7 52 -8 0 -18 -10 -24 -23 -13 -29 -62 -87 -73 -87 -5 0 -3 15 4 33 28 67 29
77 7 77 -11 0 -27 -7 -35 -16 -15 -14 -16 -14 -16 0 0 19 -31 21 -48 4 -9 -9
-12 -9 -12 0 0 17 -35 15 -50 -3z"/>
<path d="M1919 3929 c-8 -16 -8 -28 0 -46 19 -41 14 -54 -15 -47 -20 5 -25 3
-22 -7 7 -21 43 -22 63 -3 16 17 16 28 -1 83 -6 21 -5 23 14 19 15 -4 22 -2
22 8 0 23 -48 17 -61 -7z"/>
<path d="M2435 3938 c-17 -10 -17 -12 -3 -17 15 -5 14 -11 -8 -56 -13 -27 -24
-51 -24 -52 0 -11 42 1 61 18 24 20 24 20 2 14 l-23 -6 20 43 c30 67 23 84
-25 56z"/>
<path d="M2195 3891 c-3 -5 -2 -12 3 -15 12 -7 92 6 92 15 0 12 -87 11 -95 0z"/>
<path d="M3341 3850 c-16 -9 -6 -30 15 -30 15 0 20 25 6 34 -4 2 -14 1 -21 -4z"/>
<path d="M4497 3853 c-13 -12 -7 -33 8 -33 8 0 15 9 15 20 0 20 -11 26 -23 13z"/>
<path d="M6637 3853 c-13 -12 -7 -33 8 -33 8 0 15 9 15 20 0 20 -11 26 -23 13z"/>
<path d="M3833 3790 c4 -16 0 -28 -11 -36 -15 -12 -15 -13 -1 -14 36 0 52 57
20 68 -10 3 -12 -1 -8 -18z"/>
<path d="M1886 3791 c-4 -5 -1 -13 4 -16 8 -5 6 -13 -6 -26 -20 -22 -7 -25 20
-6 10 7 17 22 15 32 -5 21 -24 31 -33 16z"/>
<path d="M2307 3793 c-3 -3 -3 -11 0 -19 3 -8 0 -21 -7 -29 -17 -20 4 -20 24
1 9 8 16 21 16 29 0 14 -24 27 -33 18z"/>
<path d="M1980 3615 c0 -34 -28 -87 -41 -79 -29 18 -115 -81 -107 -124 5 -26
37 -26 64 -1 l24 22 0 -21 c0 -27 21 -28 43 -4 21 23 22 39 2 22 -22 -18 -19
-4 18 104 19 53 32 98 29 101 -14 14 -32 2 -32 -20z m-40 -115 c0 -23 -56 -90
-76 -90 -12 0 -12 5 2 33 18 36 53 77 66 77 4 0 8 -9 8 -20z"/>
<path d="M4775 3629 c-4 -6 -5 -13 -2 -15 3 -3 -10 -51 -29 -106 -18 -55 -31
-105 -28 -109 8 -14 30 -11 44 6 7 8 16 15 21 15 5 0 9 -7 9 -15 0 -21 23 -19
53 5 25 20 25 20 20 0 -7 -27 18 -26 48 1 l24 20 -22 -6 c-28 -8 -28 -8 -3 46
27 61 26 71 -7 63 -42 -10 -72 -32 -95 -70 -11 -19 -24 -32 -28 -29 -5 3 -11
1 -15 -5 -3 -5 -10 -10 -15 -10 -5 0 7 46 26 102 19 56 34 106 34 110 0 12
-28 10 -35 -3z m115 -134 c0 -19 -56 -82 -66 -73 -10 10 15 67 35 78 23 13 31
12 31 -5z"/>
<path d="M5840 3616 c0 -12 -5 -37 -11 -55 -8 -24 -16 -30 -29 -26 -23 7 -83
-43 -100 -85 -24 -57 7 -78 61 -39 20 14 27 16 23 6 -3 -8 -1 -18 5 -21 12 -8
49 13 56 33 5 11 3 12 -10 1 -35 -29 -28 1 43 198 2 7 -4 12 -17 12 -15 0 -21
-6 -21 -24z m-30 -105 c0 -11 -50 -84 -64 -93 -36 -24 -34 7 5 60 28 38 59 56
59 33z"/>
<path d="M6153 3618 c-11 -13 -28 -38 -37 -55 -9 -18 -24 -33 -34 -33 -16 -1
-16 -1 -1 -10 16 -9 15 -16 -3 -87 -26 -103 -34 -116 -58 -103 -16 8 -20 7
-20 -4 0 -22 16 -28 43 -15 26 12 46 54 68 142 9 37 18 51 38 59 21 9 23 12 9
15 -22 5 -23 25 -3 63 16 30 40 40 47 18 2 -6 9 -8 16 -4 18 11 2 36 -22 36
-13 0 -32 -10 -43 -22z"/>
<path d="M810 3612 c-73 -41 -103 -161 -50 -204 44 -36 122 -17 164 40 28 37
33 121 10 150 -26 32 -80 38 -124 14z m94 -18 c20 -19 20 -64 2 -108 -22 -52
-51 -76 -91 -76 -46 0 -60 31 -44 96 21 83 92 130 133 88z"/>
<path d="M3870 3619 c-88 -37 -130 -150 -75 -204 19 -20 34 -25 73 -25 42 0
52 4 67 26 18 28 12 47 -8 21 -30 -40 -95 -38 -117 3 -14 26 -5 82 17 117 33
50 120 72 130 33 3 -11 9 -20 13 -20 9 0 22 42 15 48 -10 10 -92 11 -115 1z"/>
<path d="M2789 3611 c19 -12 -36 -192 -61 -199 -39 -10 -3 -22 66 -22 72 0 96
10 96 39 0 12 -3 11 -18 -2 -18 -17 -92 -24 -92 -9 0 25 23 82 33 83 23 2 42
-3 49 -14 9 -15 14 -8 23 33 7 34 7 35 -12 18 -11 -10 -29 -18 -41 -18 -19 0
-21 4 -16 28 11 46 24 62 49 62 13 0 30 -7 39 -15 20 -20 26 -19 26 5 0 18 -7
20 -77 20 -49 0 -73 -4 -64 -9z"/>
<path d="M1614 3596 c-8 -22 3 -33 18 -18 9 9 9 15 0 24 -9 9 -13 7 -18 -6z"/>
<path d="M2396 3585 c-22 -33 -20 -42 5 -19 17 15 22 16 29 4 12 -20 20 -9 13
18 -7 29 -27 28 -47 -3z"/>
<path d="M3454 3596 c-8 -22 3 -33 18 -18 9 9 9 15 0 24 -9 9 -13 7 -18 -6z"/>
<path d="M3547 3603 c-13 -12 -7 -33 8 -33 8 0 15 9 15 20 0 20 -11 26 -23 13z"/>
<path d="M4047 3585 c-19 -26 -10 -34 11 -13 10 10 15 10 22 -2 14 -22 12 -30
-7 -36 -59 -19 -99 -60 -109 -114 -6 -25 -3 -30 13 -30 11 0 28 9 37 19 17 19
17 19 -3 14 -12 -3 -21 -1 -21 3 0 17 40 75 55 81 26 10 30 -6 8 -35 -14 -19
-19 -37 -16 -55 6 -32 14 -33 44 -6 17 15 19 19 7 15 -22 -7 -22 6 1 63 14 35
16 52 8 83 -11 44 -25 47 -50 13z"/>
<path d="M5237 3595 c-8 -19 13 -31 23 -14 9 14 4 29 -10 29 -4 0 -10 -7 -13
-15z"/>
<path d="M5581 3596 c-9 -10 -9 -16 -1 -21 17 -10 37 12 24 25 -8 8 -15 6 -23
-4z"/>
<path d="M6446 3603 c-12 -12 -6 -33 9 -33 8 0 15 6 15 14 0 17 -14 28 -24 19z"/>
<path d="M6656 3603 c-12 -12 -6 -33 9 -33 8 0 15 6 15 14 0 17 -14 28 -24 19z"/>
<path d="M1502 3553 c-7 -13 -20 -23 -29 -23 -12 0 -13 -3 -5 -13 8 -10 7 -27
-5 -65 -9 -28 -14 -55 -10 -59 9 -8 59 28 65 48 3 9 -3 7 -18 -6 -22 -18 -23
-19 -17 -2 4 11 10 30 13 44 4 13 18 29 33 35 20 9 22 12 9 15 -9 2 -18 14
-20 26 l-3 22 -13 -22z"/>
<path d="M3352 3553 c-7 -13 -20 -23 -29 -23 -12 0 -14 -3 -6 -11 8 -8 7 -26
-4 -65 -9 -30 -13 -57 -9 -61 8 -8 58 29 64 48 3 9 -2 8 -17 -5 -25 -22 -27
-12 -6 37 8 19 24 38 37 42 19 6 20 8 6 12 -9 2 -18 14 -20 26 l-3 22 -13 -22z"/>
<path d="M1075 3527 c-21 -21 -24 -29 -11 -24 12 5 17 3 14 -5 -3 -7 -15 -44
-28 -83 -12 -38 -32 -80 -43 -92 l-20 -23 37 0 c32 0 36 3 31 19 -8 26 11 71
31 71 9 0 32 16 51 35 39 39 42 80 8 99 -11 6 -24 16 -30 23 -7 8 -18 3 -40
-20z m61 -50 c-6 -32 -32 -67 -49 -67 -10 0 -5 38 12 82 15 40 45 27 37 -15z"/>
<path d="M4174 3545 c-4 -8 -12 -15 -20 -15 -8 0 -14 -4 -14 -10 0 -5 4 -10
10 -10 5 0 1 -23 -11 -52 -25 -63 -14 -80 31 -48 17 12 29 25 25 28 -3 3 -11
0 -17 -6 -23 -23 -25 -12 -9 33 10 29 22 45 33 45 9 0 20 5 23 10 3 6 -1 10
-9 10 -9 0 -16 7 -16 15 0 8 -5 15 -10 15 -6 0 -13 -7 -16 -15z"/>
<path d="M1237 3519 c-34 -26 -55 -92 -37 -114 30 -36 92 2 112 67 11 36 10
42 -7 54 -25 19 -38 18 -68 -7z m50 -29 c-8 -40 -36 -80 -54 -80 -19 0 -11 51
12 87 23 35 49 31 42 -7z"/>
<path d="M1358 3526 c-22 -16 -23 -30 -2 -22 17 6 14 -8 -12 -71 -9 -24 -10
-34 -1 -40 6 -3 12 -2 14 3 2 5 17 32 33 61 21 36 35 51 45 47 9 -4 15 0 15 8
0 27 -13 28 -38 6 -22 -21 -24 -21 -20 -4 4 24 -12 29 -34 12z"/>
<path d="M1591 3523 c-16 -11 -19 -18 -11 -23 9 -5 6 -18 -9 -48 -12 -23 -21
-46 -21 -52 0 -17 26 -11 51 11 17 15 19 19 7 15 -22 -7 -22 -7 2 53 21 55 15
69 -19 44z"/>
<path d="M1678 3501 c-32 -33 -39 -46 -36 -73 2 -26 8 -34 26 -36 23 -4 52 13
52 30 0 5 -8 4 -19 -1 -10 -6 -21 -7 -25 -4 -15 15 -3 34 33 53 48 24 57 36
41 55 -18 22 -29 19 -72 -24z m52 10 c0 -13 -29 -35 -37 -28 -7 8 15 37 28 37
5 0 9 -4 9 -9z"/>
<path d="M2050 3513 c-58 -53 -57 -134 2 -120 14 4 28 14 32 22 4 13 2 14 -14
5 -11 -6 -25 -8 -30 -5 -21 13 -8 36 30 51 38 15 58 43 45 64 -11 17 -33 11
-65 -17z m30 -18 c-7 -8 -17 -15 -23 -15 -5 0 -2 9 8 20 21 23 35 19 15 -5z"/>
<path d="M2237 3529 c-21 -12 -23 -31 -2 -23 12 5 11 -4 -5 -52 -23 -67 -23
-64 -10 -64 5 0 21 23 36 51 14 28 34 54 45 56 10 3 19 11 19 19 0 23 -18 25
-34 2 -13 -18 -16 -19 -16 -6 0 22 -12 28 -33 17z"/>
<path d="M2410 3533 c-33 -6 -67 -39 -92 -87 -26 -50 -12 -68 32 -43 26 16 30
16 30 3 0 -19 31 -21 48 -4 10 10 15 10 21 -1 6 -9 18 -11 35 -7 30 7 43 44
27 74 -16 30 -13 42 9 42 11 0 20 4 20 9 0 18 -17 20 -39 4 -17 -11 -22 -22
-18 -42 13 -64 13 -66 -8 -63 -11 2 -30 4 -42 4 l-21 0 19 45 c20 47 24 74 12
72 -5 -1 -19 -4 -33 -6z m0 -37 c0 -8 -12 -28 -26 -45 -44 -52 -61 -34 -24 27
20 33 50 44 50 18z"/>
<path d="M2938 3529 c-22 -12 -24 -31 -3 -23 19 8 19 5 -5 -55 -25 -63 -10
-75 23 -19 14 24 37 54 52 68 l27 25 -7 -25 c-4 -14 -14 -40 -21 -59 -17 -40
-17 -51 -4 -51 5 0 17 15 26 33 18 35 63 87 76 87 4 0 -2 -25 -14 -55 -23 -62
-20 -74 17 -57 26 12 36 36 11 26 -12 -5 -11 4 4 44 22 57 13 78 -26 60 -13
-6 -24 -15 -24 -20 0 -4 -4 -8 -10 -8 -5 0 -10 6 -10 14 0 26 -21 29 -44 7
-27 -25 -34 -26 -32 -5 1 21 -14 26 -36 13z"/>
<path d="M3193 3505 c-29 -29 -34 -40 -31 -72 2 -31 7 -39 27 -41 54 -8 117
104 76 135 -27 19 -33 17 -72 -22z m57 -7 c0 -29 -37 -91 -51 -86 -6 2 -10 7
-10 11 1 4 1 15 1 26 0 20 36 71 51 71 5 0 9 -10 9 -22z"/>
<path d="M3431 3524 c-15 -11 -19 -19 -12 -24 8 -5 6 -19 -8 -50 -27 -62 -14
-79 30 -39 19 16 20 19 6 15 -15 -5 -17 -2 -11 17 3 12 13 35 21 51 18 36 5
51 -26 30z"/>
<path d="M4261 3515 c-37 -32 -58 -89 -41 -110 16 -19 44 -19 60 0 11 13 9 15
-11 13 -40 -5 -36 29 7 49 47 22 65 49 44 63 -21 14 -25 13 -59 -15z m29 -20
c-7 -8 -17 -15 -23 -15 -5 0 -2 9 8 20 21 23 35 19 15 -5z"/>
<path d="M4371 3527 c-14 -6 -26 -19 -29 -27 -4 -12 -2 -13 9 -2 24 23 27 12
9 -36 -25 -66 -14 -84 35 -58 55 30 101 126 60 126 -10 0 -15 -10 -15 -28 0
-26 -22 -69 -44 -84 -21 -14 -25 4 -10 42 9 21 14 48 12 59 -3 18 -6 19 -27 8z"/>
<path d="M4562 3529 c-20 -6 -44 -25 -62 -51 -47 -64 -36 -112 16 -73 23 17
35 19 32 4 -5 -21 19 -20 43 1 l24 21 -23 -6 -23 -7 17 39 c21 49 29 83 18 82
-5 0 -24 -5 -42 -10z m8 -34 c0 -19 -56 -82 -65 -73 -10 10 2 41 26 66 23 26
39 28 39 7z"/>
<path d="M4983 3505 c-29 -29 -34 -40 -31 -72 4 -46 33 -56 64 -22 l19 22 -23
-12 c-33 -17 -42 -6 -30 37 11 43 38 75 45 55 6 -18 33 -16 33 1 0 12 -20 26
-37 26 -3 0 -21 -16 -40 -35z"/>
<path d="M5142 3517 c-19 -19 -22 -19 -22 -4 0 22 -23 22 -41 0 -12 -15 -12
-16 5 -10 13 5 17 3 13 -7 -16 -41 -27 -99 -21 -105 4 -3 8 -1 10 4 3 6 18 33
34 62 21 36 35 51 45 47 9 -4 15 0 15 9 0 26 -15 27 -38 4z"/>
<path d="M5303 3529 c-13 -5 -23 -13 -23 -18 0 -6 7 -8 15 -5 19 8 19 -4 -1
-51 -22 -53 -13 -80 12 -36 10 19 34 51 51 70 38 43 43 27 13 -43 -25 -59 -8
-69 24 -13 27 46 76 98 76 80 0 -6 -6 -26 -14 -44 -26 -64 -28 -79 -13 -79 8
0 25 9 38 21 17 15 19 19 7 15 -22 -7 -22 1 -3 47 8 20 15 41 15 46 0 19 -30
19 -54 0 -21 -17 -26 -18 -26 -5 0 26 -21 29 -51 7 -22 -17 -29 -18 -29 -7 0
21 -11 25 -37 15z"/>
<path d="M5554 3519 c-21 -13 -24 -19 -11 -19 21 0 21 -3 3 -38 -7 -15 -17
-37 -20 -49 -9 -30 13 -31 45 -2 17 15 19 19 7 15 -23 -7 -22 2 2 58 22 53 15
63 -26 35z"/>
<path d="M5924 3530 c-30 -12 -66 -74 -62 -107 4 -33 33 -42 63 -18 19 15 19
15 -7 9 -25 -5 -28 -3 -28 18 0 18 8 27 35 37 44 16 63 46 38 59 -10 5 -28 6
-39 2z m26 -20 c0 -5 -9 -14 -20 -20 -22 -12 -27 -1 -8 18 14 14 28 16 28 2z"/>
<path d="M6195 3508 c-58 -54 -57 -133 1 -113 15 6 29 17 32 25 4 12 2 13 -9
3 -20 -19 -39 -16 -39 7 0 13 13 26 39 39 42 22 56 42 38 60 -17 17 -24 14
-62 -21z m45 3 c0 -13 -29 -35 -37 -28 -7 8 15 37 28 37 5 0 9 -4 9 -9z"/>
<path d="M6351 3518 c-18 -18 -21 -19 -21 -5 0 22 -36 22 -44 1 -4 -12 -2 -15
9 -10 18 7 18 8 0 -44 -30 -85 -14 -91 28 -9 15 29 29 45 45 47 12 2 22 10 22
17 0 24 -18 26 -39 3z"/>
<path d="M6532 3524 c-45 -31 -69 -118 -36 -131 18 -7 64 12 64 27 0 7 -6 8
-19 0 -28 -15 -31 -13 -31 18 0 22 13 50 36 81 2 2 10 -2 19 -9 18 -15 30 -7
22 15 -8 19 -27 19 -55 -1z"/>
<path d="M6631 3523 c-18 -12 -20 -17 -10 -24 11 -6 10 -15 -4 -44 -18 -38
-22 -65 -9 -65 4 0 21 9 37 21 25 17 26 19 7 14 l-23 -7 17 39 c32 75 28 96
-15 66z"/>
<path d="M6771 3518 c-18 -18 -21 -19 -21 -5 0 9 -4 17 -9 17 -18 0 -41 -12
-41 -22 0 -6 6 -8 14 -5 13 5 12 -1 0 -44 -22 -73 -12 -81 22 -19 20 38 36 56
52 58 12 2 22 10 22 17 0 24 -18 26 -39 3z"/>
<path d="M6858 3524 c-49 -26 -78 -117 -42 -131 18 -7 64 12 64 27 0 7 -6 8
-19 0 -28 -14 -31 -13 -31 13 0 16 11 26 41 39 32 14 40 22 37 39 -4 29 -16
32 -50 13z m32 -14 c0 -9 -32 -30 -46 -30 -4 0 1 9 11 20 19 21 35 26 35 10z"/>
<path d="M3509 3513 c-12 -15 -12 -16 4 -10 16 6 16 4 1 -31 -36 -81 -26 -104
26 -61 24 20 24 20 3 14 -28 -8 -28 -4 -3 45 11 22 20 44 20 50 0 16 -36 12
-51 -7z"/>
<path d="M5200 3515 c-10 -12 -10 -15 3 -15 14 0 14 -6 -3 -46 -11 -25 -20
-50 -20 -55 0 -15 20 -10 48 12 25 20 25 21 5 15 l-23 -7 20 46 c11 26 20 51
20 56 0 15 -36 10 -50 -6z"/>
<path d="M6410 3515 c-10 -12 -10 -15 3 -15 14 0 14 -5 -3 -42 -32 -70 -20
-88 30 -47 24 20 24 20 3 14 -28 -8 -28 -4 -3 45 11 22 20 44 20 50 0 15 -36
12 -50 -5z"/>
<path d="M2555 3420 c-7 -12 2 -30 16 -30 5 0 9 9 9 20 0 21 -15 27 -25 10z"/>
<path d="M3587 3424 c-14 -14 -7 -35 11 -32 9 2 17 10 17 17 0 16 -18 25 -28
15z"/>
<path d="M6927 3423 c-13 -12 -7 -33 8 -33 8 0 15 9 15 20 0 20 -11 26 -23 13z"/>
<path d="M1443 3344 l-1 -37 21 21 c17 17 18 23 7 36 -19 24 -26 19 -27 -20z"/>
<path d="M3295 3370 c-4 -6 -4 -14 -1 -17 3 -3 1 -12 -6 -20 -19 -23 2 -28 24
-5 21 20 21 23 6 38 -11 11 -18 13 -23 4z"/>
<path d="M1841 3191 c-10 -6 -10 -10 -1 -13 9 -3 7 -21 -9 -72 -12 -37 -21
-79 -21 -91 0 -30 35 -55 76 -55 53 0 87 38 113 125 13 41 29 82 37 89 19 20
4 27 -32 16 -16 -4 -23 -9 -16 -9 17 -1 15 -28 -8 -98 -25 -72 -56 -106 -95
-101 -45 5 -51 27 -30 103 10 38 26 76 36 86 9 9 15 20 12 23 -9 9 -46 7 -62
-3z"/>
<path d="M3365 3190 c-3 -5 0 -10 5 -12 7 -2 3 -29 -10 -73 -31 -104 -41 -125
-58 -125 -29 0 -1 -14 33 -17 36 -2 55 11 30 20 -12 5 -12 12 -1 44 10 30 19
39 41 41 15 2 31 -2 36 -9 10 -17 16 -11 24 26 6 25 5 28 -6 18 -13 -13 -69
-18 -69 -7 0 4 5 24 12 45 10 35 15 39 44 39 21 0 34 -6 39 -17 6 -17 7 -17
17 0 5 10 7 21 4 24 -9 9 -135 12 -141 3z"/>
<path d="M4834 3157 c-2 -55 -44 -177 -62 -177 -8 0 -12 -3 -9 -7 12 -12 150
-2 179 13 77 40 91 161 21 193 -13 6 -47 11 -76 11 -52 0 -52 0 -53 -33z m113
8 c43 -30 36 -113 -13 -157 -23 -20 -99 -35 -107 -21 -5 8 21 103 48 181 6 17
46 15 72 -3z"/>
<path d="M2594 3166 c-8 -22 3 -33 18 -18 9 9 9 15 0 24 -9 9 -13 7 -18 -6z"/>
<path d="M2810 3123 c-8 -13 -21 -23 -29 -23 -10 0 -11 -3 -2 -14 8 -10 7 -22
-4 -49 -17 -40 -20 -77 -6 -77 13 0 63 42 57 48 -3 2 -12 -1 -21 -8 -18 -15
-19 -9 -4 41 8 27 20 41 38 48 16 6 20 10 9 10 -9 1 -18 11 -20 24 l-3 22 -15
-22z"/>
<path d="M4440 3120 c-6 -11 -18 -20 -28 -20 -14 0 -14 -2 -3 -9 13 -8 12 -17
-2 -62 -21 -64 -10 -80 29 -44 26 23 26 25 7 20 -22 -6 -22 -6 -5 36 9 22 25
45 36 49 19 8 19 9 2 9 -12 1 -16 6 -13 16 9 23 -11 28 -23 5z"/>
<path d="M5692 3123 c-7 -13 -20 -23 -30 -23 -13 0 -14 -2 -4 -9 12 -7 11 -18
-4 -65 -10 -30 -14 -59 -11 -63 9 -8 59 28 65 48 3 9 -2 8 -17 -5 -25 -23 -25
-22 -5 37 12 36 21 47 37 48 16 1 18 2 5 6 -9 2 -18 14 -20 26 l-3 22 -13 -22z"/>
<path d="M2326 3115 c-3 -9 -16 -20 -28 -25 -19 -7 -20 -9 -4 -9 13 -1 16 -6
12 -18 -43 -118 -62 -160 -75 -170 -8 -7 -13 -13 -10 -14 2 0 19 -3 37 -6 30
-4 33 -2 27 15 -11 36 4 69 34 75 15 3 39 18 54 33 22 22 27 35 25 63 -2 29
-8 37 -25 39 -13 2 -23 10 -23 18 0 19 -16 18 -24 -1z m44 -76 c-11 -38 -28
-59 -46 -59 -19 0 -17 17 6 69 16 35 23 41 34 32 11 -9 12 -20 6 -42z"/>
<path d="M2048 3099 c-10 -5 -18 -15 -18 -20 0 -6 5 -7 10 -4 14 8 12 -12 -5
-60 -17 -46 -18 -55 -7 -55 15 0 58 86 57 114 -2 34 -12 40 -37 25z"/>
<path d="M2109 3091 c-13 -11 -21 -23 -16 -27 4 -4 14 1 21 12 25 33 29 8 7
-41 -20 -45 -26 -75 -17 -75 16 0 56 21 56 29 0 6 -7 8 -15 4 -13 -4 -12 4 5
47 28 70 10 92 -41 51z"/>
<path d="M2458 3099 c-10 -5 -18 -15 -18 -20 0 -6 5 -7 10 -4 14 8 12 -12 -5
-60 -17 -47 -18 -55 -6 -55 6 0 23 26 39 57 20 40 34 57 50 58 40 3 45 -9 24
-59 -13 -27 -17 -48 -11 -52 12 -7 59 22 59 37 0 7 -6 6 -16 -2 -15 -12 -16
-11 -9 11 4 14 13 40 21 57 15 37 6 49 -22 29 -16 -12 -20 -12 -31 3 -11 15
-13 15 -29 -1 -15 -15 -19 -15 -28 -3 -8 10 -16 11 -28 4z"/>
<path d="M2676 3080 c-19 -17 -38 -44 -41 -61 -12 -55 34 -79 71 -38 19 22 19
22 -4 10 -12 -7 -27 -9 -32 -6 -20 12 -9 34 27 52 46 23 64 50 43 63 -22 14
-26 13 -64 -20z m44 1 c0 -13 -29 -35 -37 -28 -7 8 15 37 28 37 5 0 9 -4 9 -9z"/>
<path d="M2895 3088 c-37 -29 -59 -82 -45 -108 12 -22 40 -26 58 -8 18 18 14
30 -7 19 -10 -6 -21 -7 -25 -4 -15 15 -3 34 34 53 45 23 60 47 39 61 -20 12
-23 12 -54 -13z m35 -7 c0 -13 -29 -35 -37 -28 -7 8 15 37 28 37 5 0 9 -4 9
-9z"/>
<path d="M2989 3089 c-17 -15 -19 -19 -6 -15 21 7 21 -4 2 -51 -27 -64 -12
-91 17 -30 21 43 68 98 78 92 5 -3 0 -26 -10 -51 -19 -44 -25 -74 -15 -74 2 0
16 5 30 12 26 12 36 34 10 24 -18 -7 -18 2 0 34 17 30 19 66 4 76 -6 3 -24 -3
-40 -15 -29 -21 -29 -21 -29 -1 0 26 -12 25 -41 -1z"/>
<path d="M3502 3098 c-14 -14 -16 -32 -2 -23 15 9 12 -20 -5 -62 -10 -24 -12
-40 -5 -47 6 -6 14 2 24 25 22 51 49 84 69 85 9 1 17 -2 17 -7 0 -5 7 -6 15
-3 19 8 19 2 0 -43 -28 -65 -5 -82 44 -32 l31 30 -6 -30 c-4 -17 -2 -31 3 -31
14 0 53 30 53 42 0 7 -6 6 -15 -2 -19 -16 -19 -11 5 50 23 59 6 71 -24 16 -20
-38 -63 -82 -71 -74 -3 3 4 26 15 52 25 55 19 74 -16 51 -23 -15 -26 -14 -41
0 -14 15 -17 14 -38 -5 -20 -19 -23 -19 -22 -4 2 21 -15 28 -31 12z"/>
<path d="M3789 3090 l-24 -21 23 6 22 6 -20 -51 c-11 -28 -20 -55 -20 -60 0
-20 18 -9 29 18 14 34 77 109 85 101 3 -3 -4 -29 -15 -58 -27 -71 -19 -87 16
-31 62 100 100 116 60 25 -27 -60 -20 -77 20 -51 28 18 33 31 10 22 -18 -7
-18 2 0 34 17 30 19 66 4 76 -6 3 -24 -3 -40 -15 -22 -17 -29 -18 -29 -7 0 26
-21 29 -52 6 -25 -18 -29 -19 -26 -4 5 25 -16 27 -43 4z"/>
<path d="M4050 3097 c-27 -14 -41 -41 -16 -31 20 8 20 5 1 -39 -29 -70 -13
-87 38 -39 29 26 30 26 24 5 -3 -13 -1 -26 4 -29 13 -7 59 23 59 38 0 9 -3 9
-12 0 -24 -24 -27 -11 -8 34 11 25 20 50 20 55 0 19 -20 8 -35 -21 -15 -29
-66 -82 -72 -76 -2 2 5 27 16 55 21 56 17 66 -19 48z"/>
<path d="M4215 3094 c-11 -11 -15 -26 -12 -43 13 -64 13 -66 -10 -64 -26 3
-31 -15 -7 -24 9 -3 24 3 37 15 19 19 20 25 9 55 -17 49 -16 59 9 52 15 -5 20
-3 17 6 -7 20 -24 21 -43 3z"/>
<path d="M4333 3100 c-48 -19 -84 -123 -47 -137 18 -7 64 12 64 27 0 7 -6 8
-19 1 -21 -12 -31 -5 -31 19 0 9 17 24 41 34 31 14 39 23 37 39 -4 24 -15 29
-45 17z m27 -16 c0 -9 -32 -33 -44 -34 -5 0 -1 9 9 20 18 20 35 26 35 14z"/>
<path d="M4526 3078 c-40 -38 -51 -77 -32 -103 12 -17 18 -17 40 -7 14 6 26
16 26 22 0 7 -6 8 -19 1 -10 -6 -21 -7 -25 -4 -15 15 -3 34 34 53 45 23 60 47
39 61 -21 13 -27 11 -63 -23z m44 3 c0 -13 -29 -35 -37 -28 -7 8 15 37 28 37
5 0 9 -4 9 -9z"/>
<path d="M5046 3094 c-20 -20 -20 -28 -1 -20 18 7 18 11 -1 -53 -25 -87 -11
-78 48 28 11 21 22 29 32 25 10 -4 16 -1 16 9 0 23 -16 29 -33 12 -20 -19 -27
-19 -27 0 0 19 -14 19 -34 -1z"/>
<path d="M5212 3099 c-57 -17 -116 -123 -76 -136 6 -2 22 6 35 17 24 21 24 21
2 15 -28 -8 -29 1 -3 43 35 57 77 58 43 0 -34 -59 -9 -103 33 -57 19 22 19 22
-5 14 -13 -4 -21 -3 -18 2 3 5 15 32 26 61 22 56 21 57 -37 41z"/>
<path d="M5315 3087 c-18 -15 -27 -32 -26 -50 1 -15 1 -39 2 -54 0 -18 -7 -33
-20 -42 -12 -7 -21 -22 -21 -32 0 -40 91 -47 125 -9 15 17 14 20 -12 44 -15
14 -31 26 -35 26 -17 0 -6 26 15 35 12 6 30 25 39 44 9 19 22 37 28 41 7 4 -2
10 -20 14 -46 9 -46 9 -75 -17z m55 -4 c0 -15 -40 -73 -50 -73 -14 0 -12 16 5
50 14 27 45 42 45 23z m-14 -164 c16 -26 -55 -40 -75 -15 -10 11 -7 17 10 30
23 15 50 9 65 -15z"/>
<path d="M5467 3102 c-45 -18 -77 -122 -41 -136 25 -9 31 -8 63 20 39 33 52
91 26 111 -21 14 -22 15 -48 5z m33 -34 c0 -29 -37 -91 -51 -86 -6 2 -10 7
-10 11 1 4 1 15 1 26 0 20 36 71 51 71 5 0 9 -10 9 -22z"/>
<path d="M5579 3089 c-15 -15 -19 -27 -14 -42 20 -65 19 -68 -10 -61 -21 5
-27 4 -23 -7 8 -25 45 -22 63 4 12 19 13 30 5 51 -15 42 -13 55 10 49 23 -6
27 12 5 21 -9 3 -25 -4 -36 -15z"/>
<path d="M5795 3098 c-51 -30 -79 -98 -51 -126 12 -13 20 -13 41 -4 14 6 25
17 25 23 0 8 -4 8 -15 -1 -17 -14 -35 -5 -35 18 1 10 18 25 43 37 29 14 42 26
42 40 0 23 -22 29 -50 13z m25 -17 c0 -13 -29 -35 -37 -28 -7 8 15 37 28 37 5
0 9 -4 9 -9z"/>
<path d="M3134 2989 c-3 -6 -2 -15 4 -21 13 -13 32 -2 32 18 0 16 -26 19 -36
3z"/>
<path d="M4604 2989 c-10 -17 13 -36 27 -22 12 12 4 33 -11 33 -5 0 -12 -5
-16 -11z"/>
<path d="M5854 2989 c-10 -17 13 -36 27 -22 12 12 4 33 -11 33 -5 0 -12 -5
-16 -11z"/>
<path d="M4389 2943 c-1 -5 -1 -16 0 -25 1 -10 -3 -18 -9 -18 -6 0 -8 -5 -4
-11 10 -16 48 26 41 45 -6 16 -26 22 -28 9z"/>
<path d="M1807 2723 c-4 -3 -7 -17 -7 -29 0 -39 -21 -74 -45 -74 -45 0 -116
-87 -102 -124 9 -23 47 -20 75 7 l24 22 -6 -22 c-5 -16 -3 -23 6 -23 18 0 58
29 58 42 0 6 -6 6 -15 -2 -28 -23 -26 -4 10 96 19 55 35 102 35 107 0 9 -24 9
-33 0z m-37 -125 c0 -36 -70 -111 -88 -94 -8 8 17 53 46 82 27 26 42 31 42 12z"/>
<path d="M2950 2720 c-8 -5 -12 -12 -8 -15 3 -4 -9 -52 -28 -108 -39 -117 -39
-117 -16 -117 22 1 52 23 52 40 0 9 -6 7 -20 -5 -11 -10 -20 -16 -20 -14 0 3
16 52 35 109 43 128 43 135 5 110z"/>
<path d="M3386 2718 c-2 -7 -17 -58 -35 -114 -17 -55 -31 -105 -31 -112 0 -18
35 -14 53 6 24 26 21 39 -3 17 -27 -24 -26 -16 14 102 19 56 32 104 28 107 -9
10 -22 7 -26 -6z"/>
<path d="M5459 2728 c0 -2 -3 -16 -5 -31 -9 -55 -23 -77 -47 -77 -33 0 -74
-35 -92 -76 -26 -62 6 -84 60 -42 l27 21 -6 -21 c-6 -17 -3 -22 12 -22 10 0
26 8 35 18 21 23 22 39 2 22 -28 -23 -26 -4 10 96 19 55 35 102 35 107 0 6
-29 11 -31 5z m-39 -129 c0 -17 -21 -51 -48 -76 -53 -49 -58 -15 -6 45 35 41
54 52 54 31z"/>
<path d="M1406 2709 c-57 -16 -62 -64 -11 -120 41 -45 42 -52 14 -80 -25 -25
-51 -21 -64 9 -12 27 -25 29 -25 4 0 -27 20 -42 57 -42 72 0 96 73 43 128 -16
18 -30 40 -30 50 0 42 55 58 69 20 8 -20 10 -21 16 -6 13 33 -19 50 -69 37z"/>
<path d="M2326 2693 c-12 -12 -6 -33 9 -33 8 0 15 6 15 14 0 17 -14 28 -24 19z"/>
<path d="M4176 2676 c-21 -33 -20 -43 2 -23 15 13 21 14 31 4 10 -10 12 -7 9
12 -4 34 -22 36 -42 7z"/>
<path d="M1530 2675 c0 -8 7 -15 15 -15 8 0 15 7 15 15 0 8 -7 15 -15 15 -8 0
-15 -7 -15 -15z"/>
<path d="M5020 2674 c0 -9 5 -14 12 -12 18 6 21 28 4 28 -9 0 -16 -7 -16 -16z"/>
<path d="M5530 2674 c0 -17 22 -14 28 4 2 7 -3 12 -12 12 -9 0 -16 -7 -16 -16z"/>
<path d="M5977 2684 c-8 -8 1 -24 14 -24 5 0 9 7 9 15 0 15 -12 20 -23 9z"/>
<path d="M1893 2666 c2 -6 16 -11 32 -11 16 0 30 5 32 11 2 6 -12 10 -32 10
-20 0 -34 -4 -32 -10z"/>
<path d="M2614 2635 c-4 -8 -12 -15 -20 -15 -17 0 -19 -17 -3 -22 8 -3 5 -20
-10 -52 -11 -27 -21 -52 -21 -57 0 -18 37 -8 60 16 23 25 16 37 -8 13 -15 -15
-15 -6 0 43 8 27 17 39 30 39 10 0 18 5 18 10 0 6 -7 10 -15 10 -9 0 -12 6 -9
15 4 8 1 15 -5 15 -7 0 -14 -7 -17 -15z"/>
<path d="M3454 2635 c-4 -8 -13 -15 -21 -15 -12 0 -13 -3 -4 -14 8 -10 7 -24
-4 -56 -8 -23 -15 -49 -15 -56 0 -22 24 -16 50 11 24 25 16 36 -9 13 -11 -11
-12 -8 -6 12 17 58 25 70 45 70 11 0 20 5 20 10 0 6 -7 10 -15 10 -8 0 -15 7
-15 15 0 8 -5 15 -10 15 -6 0 -13 -7 -16 -15z"/>
<path d="M4282 2625 c-13 -13 -18 -25 -12 -27 7 -2 6 -17 -5 -47 -18 -53 -19
-71 -2 -71 17 1 61 39 54 47 -4 3 -14 0 -24 -8 -15 -12 -16 -12 -10 4 4 11 10
30 13 44 4 13 18 29 33 35 21 9 23 12 9 15 -10 3 -18 11 -18 19 0 19 -11 16
-38 -11z"/>
<path d="M4606 2638 c-4 -10 -16 -20 -27 -23 -10 -4 -19 -11 -19 -16 0 -6 5
-7 10 -4 6 3 10 2 10 -3 0 -21 -63 -182 -71 -182 -5 0 -9 -4 -9 -10 0 -5 14
-10 31 -10 25 0 29 3 24 19 -8 28 11 71 33 71 27 0 67 34 81 69 15 35 1 71
-29 71 -10 0 -20 8 -23 18 -4 16 -4 16 -11 0z m37 -72 c-2 -32 -42 -81 -55
-68 -4 4 -1 29 8 56 12 34 21 46 33 44 11 -3 15 -13 14 -32z"/>
<path d="M4916 2635 c-3 -8 -12 -15 -21 -15 -17 0 -21 -16 -5 -22 7 -2 5 -19
-5 -47 -8 -24 -15 -50 -15 -57 0 -22 24 -16 50 11 24 25 16 36 -9 13 -11 -11
-13 -10 -7 5 3 11 9 30 12 44 4 13 18 29 33 35 21 9 23 12 9 15 -10 3 -18 11
-18 19 0 19 -16 18 -24 -1z"/>
<path d="M5874 2635 c-4 -8 -12 -15 -20 -15 -8 0 -14 -4 -14 -10 0 -5 4 -10 9
-10 6 0 1 -25 -9 -55 -11 -31 -15 -57 -10 -60 12 -7 42 8 60 29 15 19 0 22
-18 4 -15 -15 -15 -6 0 43 7 26 17 39 29 39 10 0 21 5 24 10 3 6 -1 10 -9 10
-9 0 -16 7 -16 15 0 8 -5 15 -10 15 -6 0 -13 -7 -16 -15z"/>
<path d="M1912 2619 c-37 -11 -92 -79 -92 -116 0 -27 16 -29 48 -7 20 14 22
14 22 0 0 -23 34 -20 56 5 19 21 19 22 -4 15 l-22 -7 20 51 c30 75 30 75 -28
59z m8 -37 c0 -19 -59 -86 -68 -78 -9 9 7 51 28 74 25 27 40 28 40 4z"/>
<path d="M3265 2623 c-46 -12 -105 -79 -105 -120 0 -29 30 -31 55 -3 20 22 8
28 -14 8 -11 -11 -12 -8 -7 17 8 34 43 75 63 75 17 0 16 -11 -3 -38 -8 -12
-17 -36 -19 -52 -3 -24 0 -30 14 -30 10 0 26 10 37 21 19 21 19 22 -3 15 l-22
-7 24 60 c24 62 23 64 -20 54z"/>
<path d="M3836 2620 c-37 -12 -64 -37 -88 -84 -26 -50 -12 -69 32 -44 25 14
30 15 30 3 0 -21 24 -18 51 6 l24 20 -22 -6 c-28 -8 -28 -8 -3 50 30 69 29 70
-24 55z m4 -37 c-1 -18 -22 -47 -53 -72 -15 -12 -17 -11 -17 5 0 27 37 84 55
84 8 0 15 -8 15 -17z"/>
<path d="M4186 2620 c-37 -12 -64 -37 -88 -84 -26 -50 -12 -69 32 -44 25 14
30 15 30 3 0 -18 14 -19 41 -5 22 12 26 32 4 24 -19 -8 -19 -5 5 51 30 69 29
70 -24 55z m4 -35 c0 -8 -16 -32 -35 -53 -27 -29 -35 -33 -35 -18 0 26 39 86
56 86 8 0 14 -7 14 -15z"/>
<path d="M1510 2609 c-11 -7 -12 -12 -3 -15 8 -4 6 -18 -8 -50 -10 -25 -19
-50 -19 -55 0 -14 22 -10 45 7 16 12 17 16 6 23 -14 9 -12 20 14 84 8 20 -11
23 -35 6z"/>
<path d="M1986 2611 c-4 -5 -1 -11 5 -13 9 -3 7 -18 -4 -56 -20 -69 -6 -75 26
-10 21 41 23 54 14 69 -13 20 -32 25 -41 10z"/>
<path d="M2047 2613 c-12 -11 -8 -21 13 -26 15 -4 20 0 20 14 0 18 -20 26 -33
12z"/>
<path d="M2112 2608 c-15 -15 -16 -32 -2 -23 12 8 13 9 -5 -47 -17 -58 -6 -68
39 -33 l33 25 -5 -25 c-6 -32 17 -34 44 -3 17 19 17 21 2 15 -22 -8 -22 -6 -3
40 28 66 13 88 -19 29 -21 -39 -63 -82 -71 -74 -3 3 4 26 15 52 11 26 20 50
20 52 0 9 -37 3 -48 -8z"/>
<path d="M2288 2606 c-22 -16 -23 -27 -3 -20 20 8 19 1 -5 -46 -11 -22 -20
-44 -20 -50 0 -16 26 -12 51 10 17 14 19 18 7 14 -22 -8 -22 -6 2 51 11 26 20
49 20 51 0 9 -36 2 -52 -10z"/>
<path d="M2386 2589 c-29 -34 -41 -71 -32 -94 7 -20 50 -19 67 1 11 13 9 14
-14 9 -23 -6 -27 -4 -27 14 0 14 13 27 40 41 26 13 40 27 40 40 0 32 -44 25
-74 -11z m35 -12 c-16 -16 -26 0 -10 19 9 11 15 12 17 4 2 -6 -1 -17 -7 -23z"/>
<path d="M2496 2605 c-20 -20 -20 -28 -1 -65 15 -30 8 -44 -18 -34 -8 3 -18 1
-22 -5 -10 -17 23 -25 51 -13 17 9 24 20 24 41 0 16 -4 33 -10 36 -18 11 -11
36 10 33 10 -2 20 2 22 7 5 17 -39 17 -56 0z"/>
<path d="M2703 2598 c-32 -36 -45 -68 -39 -94 7 -28 46 -33 67 -8 11 13 9 14
-14 9 -23 -6 -27 -4 -27 14 0 14 10 25 33 34 17 8 38 21 45 30 32 38 -31 52
-65 15z m47 4 c0 -5 -9 -17 -20 -27 -22 -20 -26 -14 -10 16 11 19 30 26 30 11z"/>
<path d="M2996 2589 c-27 -32 -36 -92 -15 -104 14 -9 59 3 59 15 0 5 -10 9
-22 7 -14 -1 -23 4 -26 15 -2 13 8 22 37 34 57 23 68 64 16 64 -14 0 -34 -12
-49 -31z m44 -4 c-13 -14 -26 -23 -28 -20 -7 7 29 45 41 45 6 0 0 -11 -13 -25z"/>
<path d="M3530 2595 c-16 -17 -24 -37 -24 -67 -1 -39 1 -43 25 -46 17 -2 34 6
52 24 27 26 45 84 32 103 -12 20 -61 12 -85 -14z m60 -5 c0 -26 -37 -100 -50
-100 -16 0 -20 17 -10 50 16 56 60 92 60 50z"/>
<path d="M3657 2613 c-13 -12 -7 -25 8 -19 18 7 18 7 1 -35 -38 -93 -24 -111
21 -26 19 35 34 52 47 52 25 0 33 23 11 31 -10 4 -22 -1 -30 -12 -13 -18 -14
-18 -15 -1 0 17 -30 24 -43 10z"/>
<path d="M4005 2586 c-49 -64 -17 -136 40 -91 19 16 19 16 -7 10 -25 -5 -28
-3 -28 21 0 26 28 84 42 84 4 0 10 -4 13 -10 9 -15 25 -12 25 5 0 10 -10 15
-29 15 -22 0 -37 -9 -56 -34z"/>
<path d="M4376 2589 c-29 -34 -41 -71 -32 -94 7 -20 50 -19 67 1 11 13 9 14
-14 9 -23 -6 -27 -4 -27 14 0 15 10 26 33 36 60 25 74 65 22 65 -14 0 -34 -12
-49 -31z m54 13 c0 -5 -9 -17 -20 -27 -16 -14 -20 -15 -20 -4 0 16 19 39 32
39 4 0 8 -4 8 -8z"/>
<path d="M4719 2599 c-19 -17 -20 -19 -5 -15 15 5 17 3 12 -16 -27 -91 -15
-110 36 -61 l29 27 -3 -23 c-4 -32 14 -36 43 -11 l24 21 -23 -6 -22 -7 20 54
c23 62 23 58 11 58 -5 0 -20 -17 -32 -37 -23 -38 -61 -75 -68 -68 -2 2 4 22
13 45 9 22 16 45 16 50 0 17 -27 11 -51 -11z"/>
<path d="M4996 2609 c-13 -8 -15 -14 -7 -18 9 -6 6 -21 -9 -56 -11 -26 -18
-50 -16 -53 8 -7 66 19 66 30 0 6 -7 7 -16 4 -17 -7 -13 16 12 66 8 15 14 29
14 33 0 8 -24 5 -44 -6z"/>
<path d="M5083 2613 c-7 -2 -13 -9 -13 -14 0 -4 7 -6 15 -2 13 4 13 -3 -5 -48
-23 -61 -24 -69 -10 -69 5 0 18 17 29 38 19 37 81 104 81 87 0 -5 -10 -33 -22
-62 -24 -59 -20 -72 17 -55 27 12 35 35 9 25 -14 -5 -14 -2 0 32 31 73 9 100
-42 53 l-25 -23 6 23 c5 22 -9 28 -40 15z"/>
<path d="M5501 2606 c-9 -11 -9 -15 0 -18 8 -3 6 -18 -9 -51 -19 -42 -19 -49
-6 -54 9 -3 25 4 37 17 19 19 19 22 4 16 -15 -5 -17 -2 -11 17 3 12 13 34 20
49 8 15 14 29 14 33 0 11 -38 4 -49 -9z"/>
<path d="M5593 2613 c-7 -2 -13 -9 -13 -15 0 -6 7 -8 15 -4 18 7 18 7 1 -35
-35 -85 -27 -110 12 -41 23 42 72 95 80 88 2 -3 -6 -30 -19 -60 -25 -62 -21
-75 16 -58 26 12 36 35 10 26 -12 -5 -11 3 6 40 11 25 17 51 14 56 -11 17 -43
11 -66 -12 l-22 -23 6 23 c5 22 -10 28 -40 15z"/>
<path d="M5944 2605 c-17 -13 -17 -14 -1 -15 21 0 21 2 -3 -48 -11 -22 -20
-46 -20 -52 0 -17 26 -12 51 11 24 20 24 20 2 14 l-23 -6 20 43 c11 24 20 49
20 56 0 16 -22 15 -46 -3z"/>
<path d="M6029 2603 c-12 -15 -12 -16 4 -10 21 8 21 4 0 -55 -9 -26 -13 -51
-9 -55 5 -5 11 -2 13 5 12 32 70 107 86 110 16 3 15 -2 -7 -52 -27 -60 -21
-77 20 -55 26 14 33 32 9 23 -8 -4 -15 -4 -15 -1 0 2 7 21 15 40 8 20 15 43
15 52 0 22 -40 19 -66 -6 l-23 -21 6 21 c4 16 1 21 -15 21 -11 0 -26 -8 -33
-17z"/>
<path d="M6223 2598 c-32 -36 -45 -68 -39 -94 7 -28 46 -33 67 -8 11 13 9 14
-14 9 -23 -6 -27 -4 -27 14 0 14 10 25 33 34 17 8 38 21 45 30 32 38 -31 52
-65 15z m47 4 c0 -5 -9 -17 -20 -27 -22 -20 -26 -14 -10 16 11 19 30 26 30 11z"/>
<path d="M2775 2559 c-4 -6 -5 -12 -2 -15 7 -8 87 8 87 17 0 13 -78 11 -85 -2z"/>
<path d="M6307 2514 c-14 -14 -7 -35 11 -32 9 2 17 10 17 17 0 16 -18 25 -28
15z"/>
<path d="M1354 2430 c-1 -24 1 -28 12 -19 17 14 18 49 2 49 -7 0 -13 -13 -14
-30z"/>
<path d="M2464 2443 c4 -9 1 -20 -6 -24 -7 -4 -9 -11 -5 -15 10 -11 37 16 37
37 0 11 -7 19 -16 19 -11 0 -14 -5 -10 -17z"/>
<path d="M4864 2444 c4 -9 1 -23 -5 -30 -14 -17 2 -19 19 -2 17 17 15 48 -4
48 -11 0 -14 -5 -10 -16z"/>
<path d="M2387 2268 c-3 -18 -17 -68 -33 -110 -23 -65 -25 -80 -14 -93 27 -33
95 12 119 77 8 21 6 31 -5 43 -19 19 -23 19 -46 -2 -22 -20 -22 -13 -3 51 18
61 19 66 1 66 -8 0 -16 -14 -19 -32z m53 -100 c0 -24 -46 -93 -63 -96 -27 -5
-21 29 14 71 31 38 49 47 49 25z"/>
<path d="M3959 2298 c0 -2 -2 -14 -4 -28 -7 -51 -24 -80 -47 -80 -61 -1 -131
-118 -82 -137 9 -3 29 4 46 17 24 17 30 19 25 7 -3 -9 -2 -19 4 -23 12 -7 59
22 59 37 0 8 -5 7 -15 -1 -9 -7 -18 -11 -20 -8 -3 2 11 48 30 102 19 53 35
101 35 106 0 8 -29 15 -31 8z m-39 -136 c0 -20 -62 -92 -79 -92 -16 0 -14 10
10 50 34 54 69 76 69 42z"/>
<path d="M4129 2293 c-1 -5 -1 -11 -1 -14 1 -4 -12 -44 -29 -90 -34 -93 -35
-132 -3 -137 42 -6 121 87 107 125 -6 16 -37 17 -64 3 -24 -13 -24 -12 1 50
11 28 20 55 20 60 0 12 -29 14 -31 3z m51 -127 c0 -17 -41 -76 -62 -90 -26
-16 -31 -2 -15 37 20 47 77 87 77 53z"/>
<path d="M4830 2272 c-49 -24 -80 -75 -80 -129 0 -120 149 -125 202 -7 25 57
18 105 -19 134 -32 25 -57 25 -103 2z m88 -14 c7 -7 12 -33 12 -59 0 -54 -30
-107 -73 -127 -60 -29 -96 35 -66 115 24 65 94 104 127 71z"/>
<path d="M1351 2270 c16 -9 15 -16 -7 -85 -33 -105 -20 -135 63 -135 50 0 85
39 111 127 12 39 29 79 38 87 14 15 12 16 -23 16 -27 0 -34 -3 -24 -9 13 -8
12 -18 -4 -73 -26 -89 -57 -128 -100 -128 -52 0 -59 24 -34 107 11 37 30 76
41 86 20 17 19 17 -28 17 -36 -1 -45 -3 -33 -10z"/>
<path d="M2927 2269 c8 -8 5 -28 -8 -72 -33 -107 -25 -135 39 -144 71 -10 100
23 139 152 8 28 22 56 31 63 13 10 10 12 -22 12 -33 0 -37 -2 -26 -15 21 -26
-32 -162 -74 -190 -36 -24 -76 -5 -76 35 0 46 30 133 52 153 20 17 19 17 -23
17 -31 0 -40 -3 -32 -11z"/>
<path d="M3581 2254 c-26 -33 -28 -53 -3 -31 14 13 21 14 30 5 9 -9 12 -8 12
8 0 40 -16 47 -39 18z"/>
<path d="M2002 2250 c-17 -27 -15 -35 4 -19 13 10 17 10 24 -1 12 -20 20 -9
13 18 -7 27 -24 28 -41 2z"/>
<path d="M5106 2238 c-18 -32 -18 -32 0 -16 17 17 19 17 38 0 18 -16 19 -16
13 1 -4 10 -7 25 -7 33 0 25 -25 15 -44 -18z"/>
<path d="M5924 2256 c-8 -22 3 -33 18 -18 9 9 9 15 0 24 -9 9 -13 7 -18 -6z"/>
<path d="M2656 2205 c-3 -8 -13 -15 -23 -15 -12 0 -14 -3 -6 -11 8 -8 6 -26
-7 -65 -11 -30 -15 -56 -10 -59 12 -7 70 22 70 36 0 6 -7 6 -20 -1 -24 -13
-25 -8 -3 42 11 24 24 38 35 38 10 0 18 5 18 10 0 6 -7 10 -16 10 -10 0 -14 6
-10 15 3 9 0 15 -8 15 -8 0 -16 -7 -20 -15z"/>
<path d="M1616 2173 c-26 -26 -28 -27 -21 -5 4 16 2 22 -9 22 -22 0 -46 -11
-46 -21 0 -4 7 -6 15 -3 18 7 18 5 1 -37 -23 -58 -28 -79 -17 -79 6 0 19 17
30 38 20 39 81 103 81 85 0 -6 -9 -30 -20 -54 -11 -24 -20 -50 -20 -56 0 -19
25 -15 51 8 24 20 24 20 2 14 l-22 -6 22 51 c18 44 19 52 7 60 -21 14 -22 13
-54 -17z"/>
<path d="M2013 2190 c-41 -9 -58 -24 -78 -63 -16 -32 -20 -77 -7 -77 5 0 17 7
28 15 23 17 35 19 32 4 -5 -21 19 -20 43 1 16 13 18 18 7 14 -23 -8 -23 10 2
65 27 58 29 55 -27 41z m7 -25 c0 -14 -30 -62 -49 -77 -40 -33 -34 17 7 65 14
16 42 24 42 12z"/>
<path d="M2257 2179 c-29 -22 -38 -24 -34 -7 4 22 -35 20 -60 -4 l-25 -23 7
23 c6 21 4 23 -21 20 -15 -2 -29 -9 -32 -16 -2 -7 2 -10 12 -6 20 8 20 5 -4
-56 -23 -58 -23 -60 -10 -60 5 0 21 19 34 43 28 47 76 97 76 79 0 -6 -9 -34
-20 -62 -23 -58 -23 -60 -11 -60 5 0 20 19 34 43 27 45 77 97 77 80 0 -6 -9
-30 -20 -54 -11 -24 -20 -50 -20 -56 0 -20 25 -15 51 8 17 15 19 19 7 15 -22
-7 -22 1 -3 47 8 20 15 41 15 46 0 19 -30 19 -53 0z"/>
<path d="M2555 2185 c-37 -15 -60 -42 -69 -78 -12 -50 28 -74 70 -42 18 15 18
15 -7 9 -15 -3 -30 -1 -33 4 -11 18 4 37 44 54 28 11 40 23 40 37 0 27 -10 31
-45 16z m25 -13 c0 -13 -23 -32 -39 -32 -11 0 -10 4 4 20 19 21 35 26 35 12z"/>
<path d="M3220 2192 c-8 -2 -24 -12 -34 -21 -18 -15 -19 -15 -13 2 4 11 1 17
-7 17 -22 0 -46 -11 -46 -21 0 -4 7 -6 15 -3 19 8 19 5 -5 -52 -30 -68 -9 -81
24 -16 22 44 63 88 73 78 2 -2 -6 -29 -18 -60 -12 -31 -19 -59 -16 -63 9 -8
57 14 57 26 0 6 -6 8 -14 5 -12 -5 -11 4 4 44 20 53 13 75 -20 64z"/>
<path d="M3412 2190 c-29 -12 -54 -68 -41 -92 16 -29 10 -54 -16 -66 -33 -15
-33 -49 0 -64 19 -8 35 -8 64 0 61 19 60 43 -1 86 -20 15 -20 15 16 49 20 19
36 42 36 51 0 9 7 16 15 16 8 0 15 5 15 10 0 6 -9 10 -19 10 -11 0 -25 2 -33
4 -7 3 -23 1 -36 -4z m38 -17 c0 -15 -40 -73 -50 -73 -16 0 -11 25 11 54 20
25 39 34 39 19z m-25 -156 c25 -19 11 -37 -30 -37 -39 0 -52 14 -35 35 15 19
41 19 65 2z"/>
<path d="M3590 2193 c-33 -6 -79 -50 -97 -92 -20 -46 -4 -62 37 -38 26 16 30
16 30 3 0 -19 19 -20 43 -2 21 16 22 27 2 20 -19 -8 -19 -5 5 56 22 57 23 61
13 59 -5 -1 -19 -4 -33 -6z m0 -29 c0 -24 -58 -96 -71 -88 -18 10 33 94 57 94
8 0 14 -3 14 -6z"/>
<path d="M3736 2179 c-14 -11 -26 -25 -26 -31 0 -7 11 -1 25 12 34 32 39 21
15 -34 -11 -26 -20 -54 -20 -62 0 -21 24 -17 46 8 18 21 18 21 0 15 -15 -6
-17 -4 -11 10 24 58 28 72 22 87 -8 21 -19 20 -51 -5z"/>
<path d="M5257 2180 c-30 -24 -41 -25 -33 -4 5 12 0 15 -21 12 -14 -2 -28 -9
-31 -16 -2 -7 2 -10 12 -6 20 8 20 5 -4 -51 -22 -52 -24 -65 -10 -65 5 0 19
19 31 43 20 39 68 92 76 84 2 -2 -6 -30 -18 -61 -12 -31 -19 -59 -16 -63 9 -8
57 14 57 26 0 6 -7 8 -16 4 -14 -5 -14 -2 0 32 29 69 17 99 -27 65z"/>
<path d="M5395 2190 c-44 -17 -78 -79 -64 -117 10 -28 30 -29 60 -2 23 19 23
20 2 10 -31 -16 -33 -15 -33 23 0 36 37 91 46 69 8 -18 34 -16 34 1 0 18 -20
25 -45 16z"/>
<path d="M5637 2189 c-21 -12 -23 -31 -2 -23 15 6 11 -15 -14 -78 -19 -50 7
-39 36 14 19 37 34 53 48 53 11 0 21 8 23 18 5 23 -33 23 -47 0 -10 -17 -10
-17 -11 -1 0 23 -12 28 -33 17z"/>
<path d="M5806 2190 c-34 -11 -63 -36 -82 -72 -29 -55 -11 -85 31 -54 17 12
21 12 30 -1 9 -13 16 -13 33 -4 25 13 30 33 7 24 -13 -4 -13 3 5 48 28 76 29
74 -24 59z m4 -31 c0 -26 -41 -78 -62 -79 -14 0 -8 24 12 58 19 30 50 44 50
21z"/>
<path d="M5894 2175 c-26 -23 -27 -25 -7 -20 22 6 22 6 7 -42 -42 -129 -45
-133 -73 -127 -24 6 -25 5 -10 -10 18 -20 42 -13 62 18 23 34 68 189 58 199
-5 5 -21 -3 -37 -18z"/>
<path d="M6046 2190 c-34 -11 -63 -36 -82 -72 -29 -56 -11 -86 32 -53 25 19
35 19 28 0 -7 -17 9 -19 37 -5 23 13 26 32 4 23 -13 -4 -13 3 5 48 28 76 29
74 -24 59z m4 -35 c0 -8 -16 -32 -35 -53 -29 -31 -34 -34 -35 -17 0 28 37 85
55 85 8 0 15 -7 15 -15z"/>
<path d="M6179 2173 c-12 -16 -19 -20 -16 -10 9 25 -21 34 -41 12 -16 -17 -16
-17 1 -12 21 8 21 1 2 -53 -17 -48 -18 -60 -7 -60 4 0 20 25 36 55 19 37 35
55 47 55 11 0 19 6 19 14 0 27 -18 26 -41 -1z"/>
<path d="M6255 2167 c-39 -39 -53 -80 -35 -102 16 -19 31 -19 56 0 18 14 18
15 -6 12 -18 -1 -26 3 -28 18 -2 16 6 24 33 33 46 17 63 47 35 62 -18 10 -26
6 -55 -23z m45 4 c0 -13 -29 -35 -37 -28 -7 8 15 37 28 37 5 0 9 -4 9 -9z"/>
<path d="M1801 2171 c-10 -18 -6 -31 11 -31 4 0 8 7 8 15 0 8 9 15 20 15 29 0
25 -9 -27 -63 -27 -27 -41 -47 -33 -46 8 2 30 -1 47 -5 18 -4 41 -5 52 -1 24
7 35 35 21 49 -8 8 -12 4 -16 -12 -7 -23 -29 -28 -54 -12 -12 8 -5 19 40 59
l55 50 -57 1 c-46 0 -59 -4 -67 -19z"/>
<path d="M3667 2183 c-12 -12 -7 -23 7 -17 12 5 11 -5 -5 -45 -21 -56 -23 -71
-11 -71 13 0 45 72 48 108 2 25 -1 32 -15 32 -10 0 -21 -3 -24 -7z"/>
<path d="M4242 2178 c-17 -17 -15 -29 3 -22 13 5 13 2 0 -30 -17 -40 -20 -76
-6 -76 5 0 24 12 41 26 l31 27 -7 -28 c-6 -25 -5 -27 17 -20 29 9 49 24 49 37
0 6 -7 5 -15 -2 -25 -21 -27 -6 -5 45 22 52 18 74 -9 37 -32 -47 -80 -97 -81
-84 0 7 7 29 15 49 8 19 15 39 15 44 0 13 -34 11 -48 -3z"/>
<path d="M4407 2183 c-12 -12 -7 -22 8 -17 19 8 19 5 -5 -56 -23 -58 -23 -60
-10 -60 5 0 19 17 30 38 24 46 55 82 69 82 14 0 14 -1 -9 -55 -11 -26 -20 -51
-20 -56 0 -16 27 -10 51 12 24 20 24 20 2 14 l-23 -6 20 43 c11 24 20 49 20
56 0 20 -42 14 -68 -10 l-25 -23 6 23 c4 18 1 22 -17 22 -13 0 -26 -3 -29 -7z"/>
<path d="M5084 2175 c-17 -13 -17 -14 -1 -15 16 0 16 -2 1 -37 -26 -61 -28
-73 -11 -73 8 0 25 9 38 21 24 20 24 20 2 14 l-23 -6 20 43 c11 24 20 49 20
56 0 16 -22 15 -46 -3z"/>
<path d="M5468 2179 c-22 -12 -24 -31 -3 -23 19 7 19 4 1 -32 -34 -69 -18 -91
34 -47 l33 28 -7 -28 c-4 -17 -2 -27 4 -27 17 0 60 31 60 43 0 7 -4 7 -12 -1
-25 -25 -27 -11 -8 40 21 57 17 77 -9 38 -26 -40 -73 -91 -79 -86 -2 3 3 23
12 46 9 22 16 45 16 50 0 13 -20 12 -42 -1z"/>
<path d="M2701 2076 c-8 -10 -9 -16 -1 -21 13 -8 30 3 30 21 0 18 -14 18 -29
0z"/>
<path d="M4567 2083 c-13 -12 -7 -33 8 -33 8 0 15 9 15 20 0 20 -11 26 -23 13z"/>
<path d="M6337 2084 c-14 -14 -7 -35 11 -32 9 2 17 10 17 17 0 16 -18 25 -28
15z"/>
<path d="M3303 1856 c3 -8 -8 -52 -24 -97 -34 -95 -35 -132 -3 -137 28 -4 83
43 100 85 18 41 18 40 -7 53 -16 9 -26 8 -45 -5 -29 -19 -29 -19 -4 45 25 64
25 70 -1 70 -14 0 -19 -5 -16 -14z m57 -119 c0 -22 -59 -97 -75 -97 -19 0 -19
13 0 50 23 44 75 76 75 47z"/>
<path d="M1124 1844 c8 -26 -48 -185 -70 -201 -19 -14 -17 -15 21 -15 38 0 41
2 26 11 -11 7 -10 20 9 77 12 38 26 73 30 77 4 5 11 -28 15 -72 4 -45 10 -81
15 -81 4 0 31 33 60 73 30 39 55 74 57 76 2 2 5 2 7 0 9 -9 -37 -141 -50 -146
-25 -9 -15 -18 18 -16 53 3 54 3 39 12 -15 10 -13 20 20 134 13 44 25 67 35
67 8 0 13 4 10 9 -15 24 -56 -6 -112 -79 -32 -43 -62 -76 -65 -74 -4 2 -10 38
-14 79 -4 41 -10 75 -15 75 -5 0 -16 3 -25 7 -14 5 -16 2 -11 -13z"/>
<path d="M2672 1843 c-64 -31 -97 -112 -72 -173 45 -109 210 -27 210 103 0 74
-65 106 -138 70z m98 -22 c40 -75 -46 -207 -117 -180 -45 17 -37 109 13 169
31 36 87 42 104 11z"/>
<path d="M4570 1850 c-20 -3 -30 -8 -24 -13 14 -8 -37 -185 -56 -197 -7 -4 1
-9 19 -12 17 -2 36 -1 43 4 10 6 8 8 -4 8 -10 0 -18 2 -18 4 0 20 62 191 72
197 19 12 7 16 -32 9z"/>
<path d="M1448 1825 c-22 -30 -23 -42 -2 -24 13 10 17 10 24 -1 13 -21 22 -6
14 24 -8 32 -14 32 -36 1z"/>
<path d="M1892 1820 c-28 -37 -28 -48 -1 -24 16 14 23 15 26 7 8 -23 20 -13
15 12 -7 37 -16 38 -40 5z"/>
<path d="M5555 1755 c-37 -52 -75 -101 -86 -108 -25 -18 -17 -25 22 -19 17 3
26 8 20 11 -7 5 -2 20 14 43 20 29 30 36 52 34 22 -3 29 -9 31 -31 2 -15 -1
-32 -7 -38 -17 -17 -13 -22 19 -21 29 1 57 14 30 14 -10 0 -12 22 -8 105 5 84
3 105 -8 105 -7 0 -43 -43 -79 -95z m61 10 c-5 -26 -12 -35 -26 -35 -25 0 -25
5 1 47 25 41 34 37 25 -12z"/>
<path d="M2024 1826 c-8 -22 3 -33 18 -18 9 9 9 15 0 24 -9 9 -13 7 -18 -6z"/>
<path d="M2947 1815 c-19 -26 -11 -34 12 -12 11 10 14 10 18 0 8 -23 20 -13
15 12 -6 32 -22 31 -45 0z"/>
<path d="M3814 1826 c-8 -22 3 -33 18 -18 9 9 9 15 0 24 -9 9 -13 7 -18 -6z"/>
<path d="M6414 1826 c-8 -22 3 -33 18 -18 9 9 9 15 0 24 -9 9 -13 7 -18 -6z"/>
<path d="M3570 1817 c0 -24 39 -32 59 -12 15 16 14 17 -7 10 -13 -4 -29 -2
-37 5 -12 10 -15 9 -15 -3z"/>
<path d="M3712 1783 c-7 -13 -20 -23 -30 -23 -14 0 -14 -2 -3 -9 11 -7 11 -16
-3 -57 -18 -53 -20 -74 -7 -74 13 0 63 42 57 48 -3 2 -13 -1 -22 -9 -15 -12
-16 -11 -9 11 18 58 26 71 47 80 16 6 18 9 6 9 -9 1 -18 11 -20 24 l-3 22 -13
-22z"/>
<path d="M4886 1775 c-3 -8 -13 -15 -22 -15 -12 0 -14 -3 -6 -13 8 -9 7 -24
-3 -52 -16 -46 -19 -75 -6 -75 13 0 63 42 57 48 -3 2 -12 -1 -21 -8 -18 -15
-19 -9 -4 41 8 27 20 41 38 48 17 6 20 10 9 10 -10 1 -18 8 -18 16 0 8 -4 15
-9 15 -5 0 -11 -7 -15 -15z"/>
<path d="M1480 1772 c0 -7 -10 -12 -22 -12 -28 -1 -52 -18 -84 -61 -26 -36
-32 -79 -10 -79 7 0 25 9 40 21 l26 20 0 -20 c0 -24 1 -25 35 -9 29 13 34 32
5 23 -18 -6 -18 -3 6 51 17 40 22 60 15 67 -8 8 -11 7 -11 -1z m-20 -37 c0
-28 -50 -85 -74 -85 -9 0 14 54 31 72 15 17 43 25 43 13z"/>
<path d="M1536 1758 c-12 -7 -14 -13 -8 -17 8 -5 7 -21 -3 -56 -22 -72 -14
-74 29 -6 36 56 66 83 66 61 0 -5 -9 -32 -20 -59 -22 -56 -13 -72 25 -47 30
20 32 30 6 21 -19 -6 -19 -4 2 45 16 39 18 53 9 62 -9 9 -19 7 -42 -10 -34
-26 -41 -27 -34 -8 7 19 -8 26 -30 14z"/>
<path d="M1710 1741 c-30 -30 -38 -59 -20 -77 14 -14 1 -51 -26 -69 -13 -8
-24 -21 -24 -29 0 -34 100 -40 133 -7 18 18 18 19 -9 45 -16 14 -32 26 -36 26
-5 0 -8 7 -8 15 0 8 6 15 14 15 19 0 56 47 56 71 0 11 7 19 17 19 29 0 4 13
-32 17 -29 3 -42 -2 -65 -26z m50 -6 c0 -19 -29 -65 -41 -65 -14 0 -10 28 7
55 18 28 34 33 34 10z m-9 -151 c10 -13 10 -17 -2 -25 -8 -5 -23 -9 -34 -9
-11 0 -26 4 -34 9 -20 13 3 41 34 41 12 0 28 -7 36 -16z"/>
<path d="M1900 1763 c-61 -11 -143 -143 -88 -143 5 0 23 10 40 21 26 19 29 20
26 4 -5 -26 16 -29 43 -5 l24 21 -23 -6 -22 -7 20 54 c22 58 24 69 13 67 -5
-1 -19 -4 -33 -6z m-6 -57 c-16 -32 -51 -62 -61 -52 -16 15 48 103 67 91 5 -3
3 -19 -6 -39z"/>
<path d="M1997 1754 c-28 -15 -38 -30 -12 -20 20 7 19 -7 -5 -46 -19 -31 -27
-68 -15 -68 4 0 19 7 35 15 32 16 41 32 14 21 -18 -7 -17 5 10 66 19 43 11 52
-27 32z"/>
<path d="M2108 1754 c-49 -26 -78 -117 -42 -131 18 -7 64 12 64 27 0 7 -6 8
-19 0 -28 -14 -31 -13 -31 14 0 17 7 26 25 30 14 4 35 16 46 27 16 16 18 23 8
35 -14 17 -17 17 -51 -2z m32 -14 c0 -9 -32 -30 -46 -30 -4 0 1 9 11 20 19 21
35 26 35 10z"/>
<path d="M2197 1759 c-22 -13 -22 -30 -1 -22 18 7 15 -8 -12 -74 -7 -18 -9
-35 -4 -38 8 -5 22 15 54 78 15 28 24 36 38 31 12 -3 18 0 18 10 0 25 -18 27
-39 4 -17 -18 -21 -19 -21 -5 0 22 -12 27 -33 16z"/>
<path d="M2339 1755 c-52 -28 -81 -117 -43 -132 18 -7 64 12 64 27 0 7 -6 8
-19 1 -21 -12 -31 -5 -31 19 0 11 16 23 41 33 33 13 40 20 37 38 -4 28 -16 32
-49 14z m31 -15 c0 -9 -32 -30 -46 -30 -4 0 1 9 11 20 19 21 35 26 35 10z"/>
<path d="M2929 1749 c-17 -15 -19 -19 -6 -15 21 7 21 7 -3 -45 -31 -70 -24
-87 21 -49 17 14 19 18 7 14 -22 -8 -22 -6 2 47 32 70 24 88 -21 48z"/>
<path d="M3028 1763 c-9 -2 -19 -10 -21 -17 -4 -9 1 -12 13 -9 18 5 18 3 -1
-46 -10 -28 -19 -56 -19 -61 0 -22 16 -8 38 34 25 46 68 93 77 84 3 -3 -4 -26
-16 -52 -30 -69 -20 -92 15 -36 32 50 66 90 77 90 4 0 -3 -27 -16 -60 -25 -65
-19 -82 20 -56 28 19 33 31 9 22 -11 -4 -15 -2 -12 6 30 79 32 88 20 100 -9 9
-19 7 -42 -10 -23 -17 -30 -19 -30 -8 0 26 -21 29 -51 7 -29 -21 -29 -21 -29
-1 0 20 -2 21 -32 13z"/>
<path d="M3427 1759 c-21 -12 -23 -31 -2 -23 12 5 11 -4 -5 -50 -21 -61 -9
-89 15 -34 23 54 49 84 68 80 10 -2 17 3 17 12 0 25 -16 27 -44 5 -17 -14 -24
-16 -20 -6 7 20 -7 28 -29 16z"/>
<path d="M3593 1759 c-40 -12 -93 -75 -93 -111 0 -32 2 -33 40 -13 25 13 29
13 34 0 7 -20 19 -19 47 6 l24 20 -22 -6 c-28 -8 -28 -8 -3 50 30 70 30 70
-27 54z m7 -33 c0 -8 -12 -28 -26 -45 -44 -52 -61 -34 -24 27 20 33 50 44 50
18z"/>
<path d="M3789 1750 c-16 -14 -18 -18 -6 -14 16 6 16 3 -3 -41 -21 -49 -25
-75 -12 -75 14 0 52 31 52 42 0 6 -7 5 -16 -3 -15 -12 -16 -11 -9 11 4 14 14
38 22 54 20 38 4 53 -28 26z"/>
<path d="M3879 1751 c-22 -18 -23 -22 -11 -53 18 -51 16 -59 -14 -52 -20 5
-25 3 -22 -7 7 -22 32 -22 59 0 22 18 23 22 11 53 -19 50 -19 53 7 50 15 -3
22 1 19 9 -7 21 -23 21 -49 0z"/>
<path d="M4030 1763 c-32 -6 -67 -38 -90 -84 -25 -48 -13 -66 29 -45 35 18 42
31 11 21 -26 -8 -26 10 0 53 12 20 28 32 41 32 l21 0 -20 -33 c-21 -36 -24
-78 -6 -84 6 -2 22 6 35 17 l24 21 -23 -6 -22 -7 20 54 c22 58 24 69 13 67 -5
-1 -19 -4 -33 -6z"/>
<path d="M4104 1748 c-17 -19 -17 -21 -1 -15 21 8 22 -7 3 -61 -22 -61 -1 -61
28 -1 18 39 22 58 15 75 -11 30 -21 30 -45 2z"/>
<path d="M4172 1758 c-18 -18 -15 -25 11 -24 12 0 22 7 22 15 0 19 -18 24 -33
9z"/>
<path d="M4235 1737 c-27 -27 -35 -43 -35 -71 0 -23 5 -39 15 -42 16 -7 71 24
61 33 -3 3 -12 0 -20 -6 -8 -7 -20 -10 -26 -6 -21 13 -9 34 33 57 27 15 42 30
42 43 0 33 -33 29 -70 -8z m38 -9 c-13 -12 -26 -18 -30 -14 -4 4 1 14 11 22
31 22 43 17 19 -8z"/>
<path d="M4648 1748 c-32 -28 -48 -58 -48 -92 0 -30 30 -42 59 -24 26 16 28
32 2 18 -28 -14 -31 -13 -31 13 0 19 9 28 41 40 33 13 40 20 37 39 -4 31 -27
33 -60 6z m42 -2 c0 -3 -7 -12 -16 -20 -23 -23 -40 -19 -19 4 16 18 35 26 35
16z"/>
<path d="M4739 1750 c-17 -14 -19 -18 -6 -14 21 7 21 -7 2 -61 -28 -78 -9 -75
33 5 19 38 34 54 45 52 11 -2 17 4 17 18 0 26 -8 25 -37 -2 -17 -16 -22 -18
-18 -6 10 25 -11 30 -36 8z"/>
<path d="M5035 1763 c-42 -9 -67 -29 -92 -70 -37 -64 -15 -98 34 -51 l23 21 0
-21 c0 -28 11 -28 41 -1 18 15 19 19 6 15 -14 -5 -16 -1 -11 22 4 15 13 39 20
54 21 40 21 40 -21 31z m-5 -28 c0 -28 -50 -85 -74 -85 -9 0 14 54 31 72 15
17 43 25 43 13z"/>
<path d="M5106 1754 c-20 -20 -20 -28 -1 -20 19 7 19 1 -1 -58 -9 -26 -13 -50
-9 -54 4 -4 9 -2 12 3 19 51 61 110 76 107 10 -2 17 3 17 12 0 22 -16 28 -30
11 -16 -19 -30 -19 -30 0 0 19 -14 19 -34 -1z"/>
<path d="M5236 1740 c-41 -37 -56 -85 -32 -108 12 -13 20 -13 41 -4 14 6 25
17 25 23 0 8 -4 8 -15 -1 -17 -14 -35 -5 -35 19 0 10 13 22 34 29 41 15 58 34
50 56 -9 24 -29 20 -68 -14z m44 0 c0 -9 -32 -30 -46 -30 -4 0 1 9 11 20 19
21 35 26 35 10z"/>
<path d="M5707 1759 c-21 -12 -23 -31 -2 -23 12 5 11 -4 -5 -50 -10 -30 -15
-58 -10 -61 5 -3 23 21 40 54 20 37 37 58 45 55 17 -7 30 15 17 28 -6 6 -17 2
-31 -13 -17 -18 -21 -20 -21 -6 0 22 -12 27 -33 16z"/>
<path d="M5833 1759 c-13 -5 -23 -13 -23 -18 0 -6 7 -8 16 -4 13 5 15 2 9 -18
-4 -13 -14 -37 -22 -53 -10 -19 -11 -32 -5 -38 7 -7 17 3 31 30 21 41 69 97
77 89 3 -2 -4 -28 -16 -56 -11 -28 -20 -56 -20 -61 0 -22 18 -7 40 33 22 40
69 91 77 83 2 -2 -6 -24 -17 -50 -32 -76 -24 -96 21 -55 19 16 20 19 6 15 -13
-4 -17 -2 -13 6 38 93 29 128 -24 90 -23 -17 -30 -19 -30 -8 0 26 -19 28 -52
5 -25 -18 -30 -19 -25 -6 8 21 -2 27 -30 16z"/>
<path d="M6097 1759 c-41 -24 -64 -123 -31 -136 53 -20 129 91 89 131 -19 18
-33 20 -58 5z m39 -41 c-8 -41 -32 -78 -51 -78 -20 0 -19 16 5 68 24 52 56 60
46 10z"/>
<path d="M6209 1750 c-17 -14 -19 -18 -6 -14 21 8 21 0 1 -60 -19 -56 -12 -72
13 -26 25 47 73 101 84 95 4 -3 -2 -30 -16 -60 -26 -60 -19 -77 20 -51 28 19
33 31 9 22 -12 -5 -15 -2 -9 11 21 53 26 75 21 88 -8 21 -20 19 -57 -12 -29
-25 -31 -25 -25 -6 10 30 -8 36 -35 13z"/>
<path d="M6389 1749 c-13 -11 -18 -18 -11 -14 17 9 15 -6 -8 -59 -22 -51 -13
-67 25 -42 28 18 33 31 10 22 -19 -7 -19 -7 5 53 22 56 14 71 -21 40z"/>
<path d="M6484 1736 c-30 -30 -35 -41 -32 -73 3 -43 22 -52 53 -28 20 14 19
15 -4 12 -13 -1 -26 3 -28 10 -5 13 9 26 55 54 21 12 32 26 30 37 -6 30 -37
25 -74 -12z m39 -8 c-13 -12 -26 -18 -30 -14 -4 4 1 14 11 22 31 22 43 17 19
-8z"/>
<path d="M2397 1646 c-7 -16 1 -26 20 -26 7 0 13 9 13 20 0 23 -25 27 -33 6z"/>
<path d="M4317 1645 c-7 -16 8 -29 23 -20 15 9 12 35 -4 35 -8 0 -16 -7 -19
-15z"/>
<path d="M5314 1649 c-3 -6 -2 -15 2 -19 12 -12 38 5 30 19 -9 14 -23 14 -32
0z"/>
<path d="M6567 1645 c-7 -16 8 -29 23 -20 15 9 12 35 -4 35 -8 0 -16 -7 -19
-15z"/>
<path d="M3657 1604 c-3 -3 -3 -13 0 -21 3 -8 0 -19 -8 -24 -11 -7 -11 -9 3
-9 24 0 42 35 24 49 -7 6 -15 8 -19 5z"/>
<path d="M3843 1591 c3 -11 1 -24 -4 -27 -19 -11 -9 -24 12 -14 23 13 23 50 0
58 -10 3 -12 -1 -8 -17z"/>
<path d="M2869 1469 c-21 -18 -21 -20 -4 -14 26 9 35 9 60 -1 20 -7 20 -7 1
14 -24 27 -28 27 -57 1z"/>
<path d="M3550 1434 c0 -37 -23 -92 -36 -87 -35 13 -114 -70 -114 -121 0 -27
29 -30 61 -7 29 21 29 21 29 1 0 -11 3 -20 8 -20 14 0 52 31 52 43 0 8 -3 8
-12 -1 -27 -27 -25 -6 12 98 37 103 38 110 20 110 -12 0 -20 -7 -20 -16z m-30
-112 c0 -15 -51 -82 -70 -92 -32 -17 -25 23 11 65 28 32 59 46 59 27z"/>
<path d="M4422 1433 c0 -10 -13 -56 -29 -103 -30 -84 -31 -130 -3 -130 23 0
69 31 89 59 41 57 16 110 -35 76 -13 -8 -25 -15 -28 -15 -3 0 6 27 20 60 29
72 29 70 5 70 -12 0 -20 -7 -19 -17z m58 -111 c0 -20 -61 -102 -76 -102 -23 0
-10 47 24 83 25 26 52 36 52 19z"/>
<path d="M2868 1432 c-11 -2 -15 -9 -11 -19 9 -22 -37 -165 -60 -185 -19 -17
-18 -18 24 -18 28 0 39 3 31 9 -11 7 -8 25 14 95 15 48 33 93 40 101 24 23 14
28 -38 17z"/>
<path d="M4146 1431 c-4 -5 -1 -11 5 -13 15 -5 -38 -178 -59 -195 -13 -11 -9
-13 29 -13 33 1 40 3 28 10 -15 9 -14 18 11 97 15 48 35 92 44 98 9 7 13 15 9
18 -10 10 -61 8 -67 -2z"/>
<path d="M4575 1410 c-8 -13 4 -32 16 -25 12 8 12 35 0 35 -6 0 -13 -4 -16
-10z"/>
<path d="M2928 1339 c-10 -5 -18 -15 -18 -20 0 -6 5 -7 10 -4 14 9 13 -4 -6
-59 -9 -26 -14 -49 -11 -52 3 -3 21 18 40 48 57 89 93 106 57 27 -33 -74 -24
-99 21 -58 19 16 20 19 5 15 -14 -5 -17 -3 -11 11 21 53 26 75 21 88 -8 21
-20 19 -54 -10 l-29 -24 5 24 c5 27 -3 30 -30 14z"/>
<path d="M3104 1316 c-26 -26 -34 -42 -34 -70 0 -23 5 -39 15 -42 16 -7 71 24
61 33 -3 3 -11 1 -19 -5 -24 -20 -37 0 -27 40 13 46 34 65 54 49 16 -13 32 2
21 19 -12 19 -37 10 -71 -24z"/>
<path d="M3206 1334 c-20 -19 -20 -25 -2 -18 13 5 13 -1 0 -43 -23 -76 -11
-83 25 -15 27 50 38 61 52 57 13 -4 19 -1 19 9 0 25 -18 28 -40 6 -15 -15 -20
-16 -20 -6 0 23 -17 28 -34 10z"/>
<path d="M3324 1315 c-40 -42 -48 -99 -15 -110 23 -7 48 2 55 21 4 11 2 12
-13 5 -10 -6 -21 -7 -25 -4 -16 16 -3 40 32 58 24 13 37 27 37 40 0 34 -34 29
-71 -10z m56 9 c0 -9 -32 -33 -44 -34 -5 0 -1 9 9 20 18 20 35 26 35 14z"/>
<path d="M3604 1314 c-57 -60 -39 -139 22 -99 30 19 31 30 3 14 -17 -8 -23 -8
-29 2 -12 18 -1 38 25 45 31 8 59 39 52 59 -10 25 -38 17 -73 -21z m41 -4
c-10 -11 -23 -20 -28 -20 -6 0 -2 9 8 20 10 11 23 20 28 20 6 0 2 -9 -8 -20z"/>
<path d="M3712 1338 c-14 -14 -16 -32 -2 -23 14 8 12 -12 -5 -60 -22 -63 -1
-61 31 2 20 39 35 57 46 55 21 -3 29 10 18 28 -7 12 -13 10 -34 -9 -20 -19
-24 -20 -23 -5 2 21 -15 28 -31 12z"/>
<path d="M3841 1323 c-60 -54 -58 -143 3 -115 14 6 26 17 26 23 0 8 -4 8 -15
-1 -8 -6 -19 -9 -25 -5 -21 13 -9 34 33 57 27 15 42 30 42 43 0 30 -30 29 -64
-2z m32 -15 c-13 -12 -25 -19 -29 -15 -10 10 16 37 34 37 13 0 12 -4 -5 -22z"/>
<path d="M4214 1326 c-26 -23 -27 -24 -7 -19 23 5 23 5 8 -31 -17 -40 -20 -76
-6 -76 5 0 24 12 42 27 29 25 31 25 25 6 -4 -12 -3 -24 2 -27 11 -7 52 21 52
36 0 7 -6 6 -15 -2 -20 -16 -19 -11 5 45 24 55 24 55 6 55 -7 0 -19 -13 -26
-29 -15 -37 -70 -91 -70 -69 0 9 7 32 16 53 21 50 6 64 -32 31z"/>
<path d="M4549 1330 c-17 -16 -19 -20 -6 -16 21 7 21 8 -3 -42 -21 -43 -26
-72 -11 -72 13 0 63 42 57 48 -3 2 -12 -1 -21 -8 -20 -16 -19 -11 5 46 24 55
14 75 -21 44z"/>
<path d="M4637 1339 c-21 -12 -23 -31 -2 -23 13 5 13 -1 -1 -46 -21 -69 -12
-85 16 -30 26 53 50 81 61 75 12 -8 22 16 11 27 -6 6 -17 2 -31 -13 -17 -18
-21 -20 -21 -6 0 22 -12 27 -33 16z"/>
<path d="M4754 1316 c-26 -26 -34 -42 -34 -69 0 -20 5 -39 11 -42 12 -8 69 14
69 27 0 5 -9 4 -19 -2 -28 -14 -31 -13 -31 15 0 18 7 26 24 31 32 8 60 39 53
59 -10 24 -36 18 -73 -19z m41 -6 c-10 -11 -23 -20 -28 -20 -6 0 -2 9 8 20 10
11 23 20 28 20 6 0 2 -9 -8 -20z"/>
<path d="M3917 1225 c-7 -16 8 -29 23 -20 15 9 12 35 -4 35 -8 0 -16 -7 -19
-15z"/>
<path d="M4842 1224 c4 -21 22 -23 26 -1 2 10 -3 17 -13 17 -10 0 -15 -6 -13
-16z"/>
<path d="M2285 700 c-22 -4 -32 -8 -21 -9 16 -1 18 -8 14 -57 -3 -32 -11 -59
-19 -64 -21 -14 -9 -18 61 -20 81 -4 163 1 132 7 -20 4 -23 9 -20 46 3 37 6
42 28 44 14 1 19 0 12 -3 -7 -3 -17 -14 -22 -25 -9 -17 -7 -19 17 -19 45 0 58
13 41 40 -12 20 -19 21 -76 17 -68 -5 -86 -13 -61 -27 11 -6 14 -19 11 -40 -4
-28 -22 -53 -22 -31 0 6 -7 11 -15 11 -11 0 -15 12 -15 51 0 28 5 59 10 70 12
21 12 21 -55 9z"/>
<path d="M2537 704 c-13 -13 5 -24 39 -24 24 0 34 4 32 13 -5 13 -60 22 -71
11z"/>
<path d="M3187 704 c-13 -13 5 -24 39 -24 24 0 34 4 32 13 -5 13 -60 22 -71
11z"/>
<path d="M3508 702 c-13 -5 -15 -11 -8 -22 15 -24 12 -27 -27 -26 -31 1 -39
-3 -51 -27 -8 -16 -11 -40 -7 -54 6 -24 9 -25 51 -20 24 2 44 1 44 -2 0 -4 14
-6 31 -3 22 3 27 8 20 15 -16 16 -14 134 2 140 6 3 1 5 -13 6 -14 0 -33 -3
-42 -7z m5 -89 c11 -11 -14 -33 -38 -33 -29 0 -38 10 -24 27 12 14 51 18 62 6z"/>
<path d="M4165 700 c-22 -4 -32 -8 -22 -9 14 -1 17 -11 17 -50 0 -31 -6 -55
-15 -65 -23 -23 -19 -26 40 -26 30 0 55 5 55 10 0 6 -7 10 -15 10 -11 0 -15
12 -15 51 0 28 5 59 10 70 12 21 12 21 -55 9z"/>
<path d="M5095 700 c-3 -5 0 -13 9 -16 21 -8 61 -1 61 11 0 14 -62 19 -70 5z"/>
<path d="M5195 700 c-3 -5 0 -13 9 -16 21 -8 61 -1 61 11 0 14 -62 19 -70 5z"/>
<path d="M3009 690 c13 -8 23 -120 11 -120 -5 0 -10 -4 -10 -9 0 -5 25 -13 55
-16 46 -6 59 -4 75 10 23 21 26 50 7 62 -7 4 -13 24 -13 43 l1 35 -67 0 c-37
0 -63 -2 -59 -5z m104 -17 c10 -10 -13 -33 -34 -33 -21 0 -33 15 -24 30 7 11
48 14 58 3z m12 -83 c0 -17 -34 -24 -54 -11 -7 5 -10 14 -6 20 10 17 60 9 60
-9z"/>
<path d="M2545 650 c-16 -4 -24 -8 -17 -9 17 -1 15 -56 -3 -75 -13 -13 -5 -15
70 -18 74 -3 85 -1 85 14 0 24 11 48 21 48 5 0 9 -15 9 -34 0 -34 13 -46 48
-46 12 0 13 3 4 12 -7 7 -12 36 -12 65 0 57 -9 65 -47 38 -12 -8 -23 -11 -25
-6 -2 5 -19 12 -38 15 -19 4 -30 4 -24 -1 16 -12 25 -93 11 -93 -29 1 -39 18
-35 59 4 43 3 44 -47 31z"/>
<path d="M2786 648 c-21 -12 -32 -74 -15 -94 10 -12 26 -14 83 -9 68 5 93 13
69 22 -15 5 -18 73 -3 73 6 0 10 3 10 8 0 10 -125 10 -144 0z m84 -36 c0 -15
-24 -32 -46 -32 -28 0 -42 19 -23 31 18 11 69 12 69 1z"/>
<path d="M3195 650 c-16 -4 -24 -8 -17 -9 17 -1 15 -56 -3 -75 -13 -13 -5 -15
70 -18 81 -3 85 -2 85 18 0 12 7 27 15 34 13 11 15 7 15 -23 0 -35 12 -47 48
-47 12 0 13 3 4 12 -7 7 -12 36 -12 65 0 46 -3 53 -19 53 -11 0 -27 -10 -35
-22 -12 -17 -16 -18 -16 -6 0 15 -27 28 -60 28 -10 0 -11 -3 -4 -8 16 -10 25
-92 11 -92 -29 1 -39 18 -35 59 4 43 3 44 -47 31z"/>
<path d="M3581 644 c-17 -13 -21 -22 -16 -43 12 -52 85 -82 115 -46 18 21 5
45 -24 45 -33 0 -44 -20 -21 -37 16 -11 16 -13 3 -13 -16 0 -28 20 -28 47 0
13 9 15 45 11 37 -5 45 -3 45 11 0 9 -5 22 -12 29 -17 17 -80 15 -107 -4z m77
-6 c-3 -7 -13 -13 -23 -13 -10 0 -20 6 -22 13 -3 7 5 12 22 12 17 0 25 -5 23
-12z"/>
<path d="M3733 653 c-23 -4 -33 -23 -13 -23 14 0 12 -63 -2 -79 -11 -11 -9
-13 12 -7 14 3 41 6 60 7 24 1 28 3 13 6 -19 4 -23 11 -23 43 0 25 5 40 16 44
25 9 26 8 8 -19 -16 -24 -16 -25 9 -25 31 0 57 9 57 20 0 33 -62 47 -137 33z"/>
<path d="M4246 653 c16 -12 25 -91 10 -96 -6 -2 4 -6 22 -9 26 -4 32 -1 32 13
0 24 11 49 21 49 5 0 9 -15 9 -34 0 -34 13 -46 48 -46 12 0 13 3 4 12 -7 7
-12 36 -12 65 0 46 -3 53 -19 53 -11 0 -27 -10 -37 -22 -11 -16 -15 -17 -11
-5 5 12 1 17 -11 17 -9 0 -28 3 -42 6 -14 3 -20 2 -14 -3z"/>
<path d="M4416 647 c-27 -20 -14 -45 26 -49 25 -2 34 -8 36 -25 2 -13 -1 -23
-7 -23 -6 0 -11 7 -11 15 0 18 -55 21 -66 4 -16 -26 59 -39 110 -19 18 7 26
17 26 34 0 21 -5 25 -37 28 -28 2 -38 8 -39 21 -1 12 -1 13 3 2 3 -9 16 -15
34 -15 24 0 30 4 27 18 -4 22 -75 29 -102 9z"/>
<path d="M4562 637 c-12 -13 -22 -29 -22 -36 0 -21 48 -61 74 -61 46 0 85 77
54 108 -21 21 -82 14 -106 -11z m93 -26 c7 -13 -27 -31 -59 -31 -32 0 -42 16
-19 29 23 13 70 14 78 2z"/>
<path d="M4687 652 c16 -10 28 -82 14 -82 -6 0 -11 -4 -11 -10 0 -5 16 -10 36
-10 29 0 35 3 30 16 -7 17 9 44 27 44 5 0 7 -14 4 -34 -6 -35 4 -46 41 -46 14
0 14 2 3 9 -16 10 -10 45 13 76 21 29 26 16 11 -27 l-13 -38 42 1 c22 1 33 3
24 6 -16 4 -17 7 -3 34 12 22 13 34 5 49 -13 24 -33 25 -65 4 -23 -15 -25 -15
-25 0 0 20 -24 21 -40 1 -7 -8 -17 -15 -22 -15 -6 0 -8 7 -4 15 4 12 -3 15
-37 15 -23 0 -37 -4 -30 -8z"/>
<path d="M4926 649 c17 -22 25 -87 11 -92 -7 -2 3 -6 21 -9 26 -4 32 -1 32 13
0 24 11 49 21 49 5 0 9 -15 9 -34 0 -22 6 -36 16 -40 24 -9 46 -7 39 4 -4 6
30 10 94 10 61 0 101 4 101 10 0 6 -5 10 -11 10 -7 0 -10 17 -7 46 3 41 1 45
-17 40 -11 -3 -29 -6 -40 -7 -11 0 -14 -3 -7 -6 13 -5 16 -51 4 -71 -5 -7 -16
-10 -26 -6 -14 5 -17 16 -14 51 3 40 1 44 -17 39 -11 -3 -29 -6 -40 -6 -15 0
-16 -3 -7 -9 20 -12 11 -75 -10 -79 -15 -3 -18 4 -18 47 0 44 -3 51 -19 51
-11 0 -27 -10 -35 -22 -13 -18 -16 -19 -16 -5 0 9 -6 17 -12 17 -7 0 -24 3
-38 7 -21 5 -23 4 -14 -8z"/>
<path d="M3960 620 c0 -5 19 -10 43 -10 31 0 38 3 27 10 -20 13 -70 13 -70 0z"/>
</g>
</svg>
