<?xml version="1.0" standalone="no"?>
<!DOCTYPE svg PUBLIC "-//W3C//DTD SVG 20010904//EN"
 "http://www.w3.org/TR/2001/REC-SVG-20010904/DTD/svg10.dtd">
<svg version="1.0" xmlns="http://www.w3.org/2000/svg"
 width="826.000000pt" height="844.000000pt" viewBox="0 0 826.000000 844.000000"
 preserveAspectRatio="xMidYMid meet">

<g transform="translate(0.000000,844.000000) scale(0.100000,-0.100000)"
fill="#000000" stroke="none">
<path d="M0 4220 l0 -4220 4133 2 c2272 2 3971 4 3775 5 l-357 3 -51 51 c-27
27 -50 56 -50 63 0 8 9 33 19 57 22 47 16 73 -19 84 -14 4 -20 15 -20 36 0 18
-4 28 -10 24 -6 -4 -9 -12 -8 -19 2 -7 -9 -26 -23 -43 -21 -25 -29 -29 -44
-20 -63 35 -165 23 -179 -21 -4 -12 -19 -23 -36 -27 -17 -4 -30 -10 -30 -14 0
-5 -13 -27 -29 -51 -23 -35 -28 -50 -24 -81 l6 -39 -172 0 -171 0 0 28 c0 66
105 311 185 433 43 66 64 84 66 57 2 -29 19 51 20 97 1 28 6 64 12 80 5 17 10
68 12 115 3 62 1 77 -6 55 -5 -16 -9 -50 -10 -75 -1 -25 -8 -56 -16 -68 -8
-14 -12 -34 -9 -47 8 -32 -47 -76 -85 -68 -21 4 -32 -4 -65 -42 -21 -26 -53
-64 -70 -84 -17 -20 -33 -41 -35 -47 -8 -20 -94 -137 -140 -188 -25 -28 -51
-65 -58 -83 -7 -18 -29 -44 -48 -59 -26 -20 -33 -32 -31 -52 4 -37 25 -38 45
-2 20 37 106 168 165 252 22 32 48 60 58 63 10 3 20 18 23 33 8 34 82 112 108
112 27 0 24 -30 -9 -92 -16 -29 -37 -78 -47 -108 -10 -30 -28 -76 -41 -102
-13 -26 -24 -56 -24 -67 0 -18 -11 -49 -43 -119 -10 -21 -15 -22 -155 -22
l-144 0 6 26 c5 17 3 23 -4 19 -5 -3 -10 -15 -10 -26 0 -18 -8 -19 -121 -19
-67 0 -139 5 -161 12 -31 9 -44 9 -59 0 -10 -7 -26 -12 -34 -12 -24 0 -74 62
-75 93 0 38 -24 35 -50 -7 -11 -19 -30 -38 -40 -41 -10 -3 -22 -15 -25 -26 -5
-15 -16 -19 -50 -19 -40 0 -43 2 -38 23 l6 22 -25 -22 -24 -23 -910 0 -909 0
-2 54 c-1 37 3 58 13 67 8 6 14 20 14 30 0 14 -7 19 -29 19 -36 0 -39 -5 -45
-61 -3 -24 -10 -59 -16 -77 l-12 -33 -76 3 c-76 3 -76 3 -82 33 -16 75 -58
121 -122 131 -30 5 -38 1 -88 -50 -36 -36 -63 -56 -78 -56 -13 0 -37 -14 -54
-30 l-30 -30 -249 0 -249 0 6 42 c4 24 13 50 20 59 30 34 17 69 -46 131 -74
72 -105 81 -154 43 -29 -22 -34 -31 -30 -55 3 -15 1 -37 -6 -49 -9 -19 -7 -29
15 -66 16 -28 31 -42 39 -39 9 3 18 -6 25 -27 9 -27 14 -30 35 -25 14 3 28 2
31 -4 4 -7 -370 -10 -1149 -10 -1145 0 -1156 1 -1156 20 0 11 -4 20 -10 20 -5
0 -10 -9 -10 -20 0 -19 -7 -20 -145 -20 l-145 0 0 4200 0 4200 4100 0 c3638 0
4100 2 4100 15 0 13 -466 15 -4130 15 l-4130 0 0 -4220z m6896 -3667 c-10 -10
-19 5 -10 18 6 11 8 11 12 0 2 -7 1 -15 -2 -18z m-4226 -367 c0 -2 -7 -9 -15
-16 -12 -10 -15 -10 -15 4 0 9 7 16 15 16 8 0 15 -2 15 -4z"/>
<path d="M1937 8043 c-13 -12 -7 -43 8 -43 9 0 15 9 15 25 0 24 -10 32 -23 18z"/>
<path d="M2129 7941 c-22 -21 -39 -48 -39 -59 0 -11 18 -37 40 -58 22 -21 40
-46 40 -56 0 -55 -108 -80 -120 -28 -5 22 -7 23 -13 7 -12 -31 -8 -46 14 -57
44 -24 159 49 159 101 0 11 -18 37 -40 56 -47 43 -51 73 -14 102 34 27 40 26
69 -3 23 -23 25 -23 30 -5 10 29 -2 39 -47 39 -34 0 -47 -6 -79 -39z"/>
<path d="M2314 7945 c-4 -15 -1 -32 7 -41 14 -17 50 -15 57 4 2 7 0 12 -5 11
-23 -4 -33 3 -33 26 0 32 -18 32 -26 0z"/>
<path d="M3000 7935 c0 -39 14 -47 24 -12 9 35 7 47 -9 47 -10 0 -15 -11 -15
-35z"/>
<path d="M4112 7957 c-26 -32 5 -78 43 -63 17 6 17 8 -3 21 -11 9 -22 25 -24
37 -3 19 -4 20 -16 5z"/>
<path d="M5055 7952 c-16 -8 -37 -18 -45 -22 -8 -4 -16 -17 -18 -28 -2 -12
-21 -35 -43 -53 -68 -53 -89 -124 -47 -153 16 -12 26 -13 42 -4 20 11 20 11
-2 19 -18 7 -22 16 -22 47 0 71 64 121 90 71 10 -17 7 -30 -13 -70 -28 -58
-20 -63 21 -13 31 38 48 102 32 118 -17 17 -11 28 10 21 15 -5 22 0 30 20 12
31 13 65 3 64 -5 0 -21 -8 -38 -17z"/>
<path d="M2553 7908 c-29 -57 -73 -175 -73 -196 0 -18 42 -32 58 -20 10 8 9
13 -5 23 -16 12 -16 17 -2 61 12 39 22 53 49 67 32 16 33 18 13 23 -20 6 -20
8 -7 40 31 73 5 75 -33 2z"/>
<path d="M2684 7949 c-8 -14 11 -33 25 -25 16 10 13 36 -3 36 -8 0 -18 -5 -22
-11z"/>
<path d="M2784 7949 c-8 -14 11 -33 25 -25 16 10 13 36 -3 36 -8 0 -18 -5 -22
-11z"/>
<path d="M3275 7950 c-3 -5 -4 -14 0 -20 8 -13 35 -1 35 16 0 16 -26 19 -35 4z"/>
<path d="M3571 7903 c-17 -31 -41 -88 -53 -126 -22 -67 -22 -69 -4 -83 14 -10
24 -10 38 -3 20 11 20 11 -1 25 -19 14 -19 17 -6 55 16 45 33 65 67 79 l23 9
-22 7 c-27 7 -27 11 -8 44 17 29 19 50 6 50 -5 0 -23 -26 -40 -57z"/>
<path d="M4670 7910 c-13 -27 -27 -50 -32 -50 -5 0 -7 -4 -4 -8 3 -5 -4 -32
-14 -61 -25 -66 -25 -88 1 -102 17 -9 23 -8 30 2 5 9 3 17 -6 22 -8 4 -15 12
-15 17 0 19 42 120 48 116 4 -2 16 0 27 5 19 8 19 8 -2 15 -18 5 -21 10 -13
24 24 44 30 70 16 70 -7 0 -23 -22 -36 -50z"/>
<path d="M4800 7941 c0 -24 34 -22 38 2 2 12 -3 17 -17 17 -14 0 -21 -6 -21
-19z"/>
<path d="M5540 7939 c0 -24 23 -21 28 4 2 10 -3 17 -12 17 -10 0 -16 -9 -16
-21z"/>
<path d="M2326 7872 c-3 -5 0 -15 8 -21 13 -11 11 -49 -3 -61 -4 -3 -11 -16
-17 -30 -15 -33 -1 -70 26 -70 20 0 28 16 11 22 -6 2 0 31 12 65 17 49 19 67
11 80 -13 21 -39 29 -48 15z"/>
<path d="M4122 7871 c-10 -6 -10 -10 3 -21 16 -13 12 -49 -8 -62 -6 -3 -11
-26 -11 -50 -1 -38 2 -43 22 -46 20 -3 23 0 17 18 -4 11 1 46 11 77 21 67 5
109 -34 84z"/>
<path d="M2626 7791 c-15 -44 -25 -85 -21 -90 9 -16 42 -13 49 4 3 8 1 15 -4
15 -16 0 -11 42 10 89 24 51 25 61 7 61 -8 0 -25 -34 -41 -79z"/>
<path d="M2745 7858 c-43 -117 -53 -159 -40 -165 8 -3 22 -3 30 1 16 6 21 26
6 26 -6 0 1 32 15 72 13 39 24 73 24 75 0 9 -31 1 -35 -9z"/>
<path d="M2916 7861 c-4 -5 -1 -11 4 -13 6 -2 1 -32 -15 -77 -30 -89 -30 -84
-5 -71 11 6 20 15 20 21 0 19 77 119 92 119 14 0 9 -37 -11 -90 -18 -48 -18
-50 -1 -50 10 0 22 9 25 21 10 31 65 110 82 116 25 10 26 -5 4 -68 -22 -66
-21 -79 9 -79 22 0 39 22 22 28 -18 6 -14 33 9 71 38 62 6 104 -47 62 -32 -25
-44 -26 -44 -6 0 26 -30 29 -60 6 -31 -22 -41 -26 -39 -13 4 21 -3 32 -20 32
-11 0 -22 -4 -25 -9z"/>
<path d="M3220 7813 c-12 -32 -24 -73 -27 -90 -5 -30 -3 -33 21 -33 25 0 38
24 16 32 -5 2 2 34 15 73 29 83 28 75 11 75 -8 0 -24 -24 -36 -57z"/>
<path d="M3325 7848 c6 -23 3 -35 -29 -110 -21 -49 -4 -58 27 -13 13 19 27 32
31 28 4 -4 4 -1 1 8 -6 17 49 79 71 79 19 0 18 -8 -8 -75 -23 -61 -17 -82 22
-70 17 5 19 9 9 21 -10 12 -8 26 10 70 13 30 20 61 17 69 -8 21 -43 19 -73 -5
-32 -25 -41 -25 -39 -3 0 12 -7 19 -22 21 -19 3 -22 0 -17 -20z"/>
<path d="M3731 7852 c16 -26 -3 -52 -37 -52 -28 0 -32 24 -6 39 9 6 13 11 9
11 -38 1 -93 -84 -83 -127 4 -13 18 -28 33 -34 22 -8 30 -6 47 11 19 19 19 20
2 14 -13 -5 -23 -1 -32 11 -26 36 -17 50 49 70 54 18 62 23 62 45 0 20 -6 26
-28 28 -26 3 -27 2 -16 -16z"/>
<path d="M3978 7863 c6 -2 12 -13 12 -24 0 -12 7 -19 20 -19 21 0 24 8 14 34
-4 9 -17 16 -33 15 -14 0 -20 -3 -13 -6z"/>
<path d="M4402 7851 c16 -26 -5 -51 -43 -51 l-29 0 17 28 18 27 -25 -16 c-14
-8 -34 -34 -44 -56 -11 -23 -28 -44 -39 -47 -24 -6 -17 -31 9 -31 10 0 29 -6
42 -13 20 -11 27 -11 48 3 27 17 32 27 9 19 -21 -8 -45 14 -45 40 0 18 11 25
53 39 28 10 57 18 63 19 13 2 14 29 1 46 -5 6 -18 12 -28 12 -16 0 -17 -3 -7
-19z"/>
<path d="M4553 7846 c13 -15 26 -21 31 -16 15 15 -2 40 -28 40 l-24 0 21 -24z"/>
<path d="M4765 7858 c-29 -75 -53 -154 -49 -160 8 -12 42 -10 50 3 3 6 2 14
-4 18 -7 4 -3 29 13 76 14 39 25 71 25 73 0 9 -32 0 -35 -10z"/>
<path d="M5185 7848 c3 -13 -5 -50 -19 -85 -22 -56 -23 -63 -8 -63 10 0 31 25
50 58 31 55 67 90 80 78 3 -4 -4 -35 -16 -69 -23 -67 -21 -117 4 -96 8 6 14
25 14 41 0 18 4 27 11 23 6 -4 9 -1 7 8 -3 16 57 97 72 97 15 0 12 -33 -5 -73
-21 -51 -19 -77 4 -77 22 0 41 22 23 28 -12 4 9 74 29 98 14 17 -6 54 -30 54
-10 0 -26 -9 -36 -20 -10 -11 -22 -20 -26 -20 -4 0 -11 9 -14 20 -8 26 -29 25
-66 -1 l-29 -20 0 20 c0 16 -6 21 -25 21 -21 0 -24 -4 -20 -22z"/>
<path d="M5506 7861 c-16 -25 -56 -153 -51 -161 3 -6 15 -10 25 -10 21 0 39
22 23 27 -13 5 -9 36 12 96 8 23 15 45 15 50 0 10 -18 9 -24 -2z"/>
<path d="M5586 7861 c-4 -5 -1 -11 4 -13 7 -2 1 -29 -15 -71 -14 -37 -25 -72
-25 -78 0 -20 38 11 54 45 35 73 96 123 96 79 0 -10 -9 -41 -20 -69 -20 -54
-18 -64 11 -64 22 0 36 20 20 30 -9 5 -8 18 5 51 10 24 21 46 25 49 12 9 -10
50 -27 50 -9 0 -32 -9 -50 -21 l-34 -21 0 21 c0 22 -33 30 -44 12z"/>
<path d="M5796 7861 c-4 -5 -1 -11 5 -13 7 -2 2 -26 -16 -67 -14 -35 -24 -70
-21 -77 9 -22 50 -16 76 11 25 27 21 32 -11 15 -30 -17 -33 9 -6 60 12 25 21
53 19 63 -4 18 -37 24 -46 8z"/>
<path d="M5907 7823 c-41 -82 -42 -122 -5 -136 21 -8 33 9 19 27 -12 14 -9 32
13 95 19 51 20 61 6 61 -5 0 -20 -21 -33 -47z"/>
<path d="M6006 7861 c-4 -5 -1 -11 5 -13 7 -2 1 -28 -15 -72 -24 -63 -26 -94
-6 -81 4 3 21 29 38 58 35 62 66 92 87 84 13 -6 13 -13 -5 -57 -26 -65 -26
-90 -1 -90 25 0 38 20 21 30 -11 7 -8 20 13 61 19 39 23 57 16 71 -13 23 -38
23 -69 -2 -26 -20 -41 -25 -39 -12 4 21 -3 32 -20 32 -11 0 -22 -4 -25 -9z"/>
<path d="M6288 7864 c6 -3 12 -14 12 -24 0 -24 -19 -38 -53 -38 -24 0 -26 3
-15 17 7 9 20 21 28 28 8 7 10 13 4 13 -24 0 -76 -68 -81 -108 -5 -35 -2 -42
21 -57 22 -15 29 -15 42 -4 14 12 14 14 -4 20 -11 4 -22 20 -25 36 -3 15 -5
28 -4 28 1 0 29 9 62 20 52 17 60 23 60 45 0 21 -5 25 -30 27 -16 1 -24 0 -17
-3z"/>
<path d="M4476 7838 c-22 -31 -21 -35 15 -68 20 -18 30 -34 26 -44 -8 -21 -53
-21 -65 0 -7 13 -10 13 -21 1 -10 -12 -8 -18 10 -30 13 -10 18 -20 13 -28 -10
-16 -12 -59 -3 -59 14 0 30 30 27 50 -2 17 7 27 37 44 53 30 55 50 9 90 -34
29 -37 35 -25 50 8 9 9 16 3 16 -6 0 -18 -10 -26 -22z"/>
<path d="M2262 7838 c-16 -16 -15 -28 2 -28 7 0 16 9 19 20 6 23 -3 26 -21 8z"/>
<path d="M3903 7828 c-50 -55 -57 -108 -18 -134 23 -15 27 -15 57 4 l32 20
-35 -1 c-32 -2 -34 0 -37 36 -2 26 3 46 18 67 25 35 13 40 -17 8z"/>
<path d="M4052 7838 c-17 -17 -15 -28 6 -28 11 0 18 7 18 20 0 23 -7 25 -24 8z"/>
<path d="M2275 7780 c-3 -5 -1 -10 4 -10 6 0 11 5 11 10 0 6 -2 10 -4 10 -3 0
-8 -4 -11 -10z"/>
<path d="M2221 7753 c-14 -12 -19 -25 -15 -40 8 -28 44 -37 60 -15 10 14 9 18
-7 24 -22 8 -24 19 -7 36 19 19 -7 15 -31 -5z"/>
<path d="M4017 7752 c-22 -25 -21 -49 2 -62 15 -8 24 -6 36 7 16 16 16 17 -4
25 -18 6 -20 11 -11 28 13 25 -1 26 -23 2z"/>
<path d="M6346 7728 c-2 -7 -6 -25 -9 -40 -4 -26 -3 -26 20 -11 15 10 23 24
21 36 -4 24 -26 35 -32 15z"/>
<path d="M2478 7635 l-4 -35 22 21 c23 22 22 49 -1 49 -7 0 -15 -15 -17 -35z"/>
<path d="M7227 7608 c-6 -21 -2 -36 7 -27 10 11 16 49 8 49 -5 0 -12 -10 -15
-22z"/>
<path d="M7284 7585 c-9 -14 -14 -28 -10 -32 8 -9 46 27 46 44 0 21 -18 15
-36 -12z"/>
<path d="M2986 7480 c9 -78 26 -100 18 -25 -3 33 -11 65 -16 70 -6 6 -7 -10
-2 -45z"/>
<path d="M7224 7481 c-12 -14 -27 -44 -34 -66 -23 -73 -80 -219 -116 -298 -40
-85 -56 -144 -44 -152 11 -7 49 42 57 74 9 38 54 135 66 142 5 4 7 11 4 16 -5
8 7 72 31 163 5 19 21 59 36 88 31 61 31 72 0 33z"/>
<path d="M4820 7388 c-10 -24 -25 -59 -33 -80 -14 -32 -19 -36 -50 -35 -47 1
-104 -43 -129 -101 -32 -72 1 -104 57 -57 l30 25 -34 -7 -33 -6 7 34 c10 47
61 99 98 99 24 0 28 -3 22 -17 -13 -30 -45 -126 -45 -134 0 -17 43 -21 58 -5
15 15 15 16 -1 16 -9 0 -17 3 -17 8 0 12 76 204 94 237 9 17 16 38 16 48 0 31
-21 18 -40 -25z"/>
<path d="M216 7391 c-18 -19 -16 -51 2 -51 14 0 34 52 24 62 -5 5 -16 0 -26
-11z"/>
<path d="M2446 7358 c-18 -41 18 -84 49 -58 16 14 16 15 -6 20 -14 3 -26 16
-30 30 -5 21 -7 22 -13 8z"/>
<path d="M2866 7363 c-12 -12 -6 -31 12 -35 12 -4 18 1 19 13 2 18 -20 33 -31
22z"/>
<path d="M5956 7363 c-13 -14 -5 -33 14 -33 11 0 20 6 20 14 0 15 -24 28 -34
19z"/>
<path d="M3128 7315 c-12 -25 -26 -45 -30 -45 -4 0 -8 -7 -8 -16 0 -8 -10 -44
-22 -80 -20 -56 -21 -66 -8 -74 21 -13 33 -12 56 5 15 12 15 14 2 9 -37 -13
-30 75 9 118 9 10 24 18 35 18 10 0 18 5 18 10 0 6 -9 10 -20 10 -23 0 -25 17
-5 44 17 23 20 46 5 46 -6 0 -20 -20 -32 -45z"/>
<path d="M3819 7315 c-11 -25 -24 -45 -30 -45 -5 0 -9 -6 -7 -12 1 -7 -6 -37
-16 -65 -9 -29 -16 -63 -14 -75 4 -29 39 -36 59 -12 12 16 12 17 -3 12 -25
-10 -31 19 -13 73 13 39 21 49 46 54 33 7 38 22 9 27 -19 3 -19 3 0 46 16 36
17 42 4 42 -8 0 -24 -20 -35 -45z"/>
<path d="M5821 7315 c-12 -25 -26 -45 -31 -45 -6 0 -10 -6 -8 -12 1 -7 -6 -37
-16 -65 -9 -29 -16 -63 -14 -75 4 -28 39 -36 58 -13 11 13 10 15 -4 9 -17 -6
-20 2 -16 46 3 40 28 79 55 86 30 7 33 24 5 24 -17 0 -19 3 -10 19 24 46 30
71 16 71 -8 0 -23 -20 -35 -45z"/>
<path d="M2300 7270 c0 -5 5 -10 10 -10 6 0 10 -9 10 -20 0 -24 28 -27 37 -4
4 11 -1 22 -12 30 -22 16 -45 18 -45 4z"/>
<path d="M2450 7275 c0 -3 6 -14 12 -25 11 -17 9 -27 -13 -68 -14 -26 -24 -54
-22 -64 5 -20 27 -30 48 -22 14 6 13 8 -2 20 -13 10 -14 13 -4 14 8 0 12 3 8
6 -3 4 2 28 12 53 20 55 13 91 -19 91 -11 0 -20 -2 -20 -5z"/>
<path d="M2642 7272 c-19 -3 -21 -6 -11 -18 8 -9 10 -38 7 -84 -6 -76 6 -90
40 -48 9 11 39 45 65 75 39 44 46 57 36 69 -16 20 -29 17 -29 -6 0 -28 -23
-70 -52 -97 l-24 -23 4 64 c4 67 1 74 -36 68z"/>
<path d="M2970 7270 c0 -5 5 -10 10 -10 16 0 12 -43 -9 -83 -28 -54 -13 -95
29 -82 18 6 18 8 5 21 -13 14 -13 19 1 52 24 55 28 80 14 97 -14 17 -50 20
-50 5z"/>
<path d="M3270 7275 c0 -4 7 -13 15 -21 15 -15 11 -41 -9 -59 -23 -21 -26 -82
-4 -96 25 -17 40 -10 32 14 -10 31 -8 51 12 93 13 26 15 41 7 53 -10 16 -53
29 -53 16z"/>
<path d="M3540 7272 c0 -4 6 -14 13 -21 10 -10 7 -16 -12 -32 -21 -17 -61 -26
-61 -14 0 3 8 18 17 33 l17 27 -28 -25 c-61 -55 -74 -120 -28 -144 26 -14 30
-13 58 10 23 20 24 23 6 14 -29 -14 -52 2 -52 35 0 17 9 24 43 34 48 14 87 37
87 51 0 14 -30 40 -46 40 -8 0 -14 -4 -14 -8z"/>
<path d="M3654 7261 c-18 -11 -35 -24 -39 -30 -11 -18 4 -47 31 -61 16 -9 24
-21 22 -34 -4 -28 -47 -34 -65 -10 -10 14 -16 15 -25 6 -15 -15 7 -42 34 -42
32 0 98 39 98 58 0 9 -17 31 -37 48 -33 27 -36 34 -24 48 17 20 50 21 57 1 7
-18 34 -20 34 -2 0 18 -21 37 -39 37 -9 0 -30 -9 -47 -19z"/>
<path d="M3970 7272 c0 -4 6 -14 13 -21 10 -10 7 -16 -12 -32 -24 -20 -61 -26
-61 -10 0 5 7 14 15 21 22 18 18 32 -4 18 -26 -16 -61 -80 -61 -112 0 -42 50
-59 86 -30 16 13 16 15 2 10 -29 -9 -44 2 -46 34 -2 27 2 30 40 40 47 13 88
36 88 50 0 14 -30 40 -46 40 -8 0 -14 -4 -14 -8z"/>
<path d="M4353 7272 c-18 -3 -20 -6 -12 -20 8 -13 5 -33 -15 -81 -31 -76 -30
-71 -12 -71 8 0 26 21 41 48 37 63 64 92 87 92 21 0 20 -11 -8 -79 -8 -18 -14
-39 -14 -46 0 -19 37 -25 51 -9 9 11 8 14 -5 14 -21 0 -21 2 9 60 29 57 29 60
11 85 -13 18 -15 17 -61 -10 -32 -18 -46 -23 -43 -13 9 21 -4 34 -29 30z"/>
<path d="M4915 7271 c-3 -6 -1 -11 4 -11 13 0 15 -52 2 -65 -5 -6 -14 -27 -19
-48 -9 -32 -8 -38 9 -47 13 -8 25 -8 37 -1 9 6 11 11 5 11 -18 0 -16 26 4 83
13 36 15 52 7 65 -13 20 -40 27 -49 13z"/>
<path d="M5110 7260 c-30 -24 -40 -25 -40 -5 0 10 -10 15 -27 15 -20 0 -24 -3
-16 -11 11 -11 -9 -86 -36 -138 -10 -18 -9 -21 9 -21 11 0 20 5 20 11 0 5 18
37 41 70 35 51 44 60 67 57 21 -2 27 1 27 16 0 27 -16 29 -45 6z"/>
<path d="M5270 7269 c-14 -4 -19 -7 -12 -8 21 -2 14 -33 -33 -150 -49 -123
-51 -131 -32 -131 7 0 22 26 34 58 18 51 23 57 46 54 44 -5 113 43 143 100 18
35 18 53 -2 73 -15 14 -20 14 -59 -10 -52 -30 -58 -31 -50 -6 7 24 -3 30 -35
20z m113 -41 c6 -16 -19 -76 -40 -100 -18 -20 -68 -24 -79 -6 -4 6 2 19 14 28
12 10 19 20 16 22 -2 3 9 19 25 37 30 32 56 40 64 19z"/>
<path d="M5489 7273 c-10 -3 -15 -15 -15 -36 0 -18 -10 -56 -22 -84 -18 -44
-19 -53 -7 -53 9 0 21 11 27 25 6 14 15 25 20 25 4 0 8 5 8 12 0 6 11 26 26
45 18 24 33 33 55 33 19 0 29 5 29 14 0 25 -21 29 -48 9 -46 -33 -51 -34 -45
-14 5 21 -4 29 -28 24z"/>
<path d="M5690 7272 c0 -4 5 -13 12 -20 16 -16 -17 -52 -49 -52 -27 0 -29 7
-6 32 29 32 7 30 -25 -2 -31 -31 -49 -86 -38 -115 3 -8 17 -20 31 -25 21 -8
30 -6 48 12 19 18 19 20 3 14 -24 -8 -46 10 -46 40 0 19 9 25 55 39 62 18 85
44 59 69 -16 17 -44 22 -44 8z"/>
<path d="M5923 7269 c-6 -8 -23 -48 -37 -89 l-25 -75 21 -8 c26 -9 50 9 29 23
-12 7 -11 18 8 69 24 66 26 106 4 80z"/>
<path d="M6054 7270 c-37 -15 -83 -70 -90 -107 -13 -69 28 -91 95 -49 64 41
91 115 55 150 -17 18 -29 19 -60 6z m37 -31 c23 -44 -43 -147 -80 -125 -18 12
-12 76 10 112 24 39 53 44 70 13z"/>
<path d="M6220 7270 c0 -5 7 -10 15 -10 8 0 15 -7 15 -15 0 -8 9 -15 20 -15
26 0 26 26 1 40 -25 13 -51 13 -51 0z"/>
<path d="M2825 7260 c-12 -19 -45 -124 -45 -142 0 -23 27 -35 43 -19 9 9 9 14
-2 20 -12 8 -10 21 12 80 21 56 24 71 12 71 -7 0 -17 -4 -20 -10z"/>
<path d="M4130 7256 c9 -12 7 -25 -9 -62 -33 -74 -34 -93 -5 -100 18 -5 32 0
50 16 27 27 25 37 -5 21 -30 -16 -34 1 -11 50 28 63 26 89 -6 89 -22 0 -24 -2
-14 -14z"/>
<path d="M4238 7228 c-42 -82 -31 -158 19 -129 10 6 12 11 6 11 -18 0 -16 41
2 76 17 33 20 84 5 84 -5 0 -20 -19 -32 -42z"/>
<path d="M6182 7247 c-30 -32 -28 -52 8 -77 37 -26 38 -48 3 -56 -18 -5 -30
-2 -38 10 -15 19 -35 21 -35 3 0 -19 21 -37 43 -37 24 0 97 40 97 54 0 6 -17
27 -37 48 -33 34 -36 41 -25 58 16 26 10 25 -16 -3z"/>
<path d="M2232 7226 c-35 -40 -48 -86 -32 -115 13 -25 48 -27 76 -5 19 15 19
15 -2 9 -15 -4 -26 1 -36 17 -18 28 -9 70 23 104 12 13 18 24 12 24 -6 0 -24
-15 -41 -34z"/>
<path d="M2386 7241 c-17 -19 -17 -21 -2 -27 22 -8 28 -1 24 26 l-3 22 -19
-21z"/>
<path d="M3215 7247 c-10 -8 -15 -19 -11 -25 12 -19 23 -14 28 13 6 29 7 29
-17 12z"/>
<path d="M4857 7242 c-10 -10 -14 -22 -10 -25 12 -13 21 -7 25 18 6 30 6 30
-15 7z"/>
<path d="M2912 7237 c-9 -11 -10 -17 -2 -22 15 -9 23 -1 18 21 -3 15 -4 16
-16 1z"/>
<path d="M2351 7156 c-13 -13 -21 -32 -19 -43 5 -25 41 -28 62 -4 17 19 17 19
-3 14 -16 -4 -21 -1 -21 14 0 10 5 24 12 31 7 7 8 12 2 12 -6 0 -21 -11 -33
-24z"/>
<path d="M2881 7159 c-27 -26 -25 -63 5 -67 11 -2 27 4 34 13 10 12 10 15 -3
15 -22 0 -31 18 -16 36 19 23 5 26 -20 3z"/>
<path d="M3187 7169 c-24 -14 -37 -51 -25 -66 14 -17 43 -16 58 2 10 13 9 15
-9 15 -28 0 -27 25 1 44 26 18 4 22 -25 5z"/>
<path d="M4827 7169 c-24 -14 -37 -51 -25 -66 15 -19 52 -16 65 6 10 16 9 18
-6 14 -27 -7 -36 15 -15 38 19 21 10 25 -19 8z"/>
<path d="M4503 7135 c0 -8 4 -12 9 -9 5 3 6 10 3 15 -9 13 -12 11 -12 -6z"/>
<path d="M3063 7073 c-7 -3 -13 -19 -13 -36 0 -29 1 -30 16 -15 18 18 15 57
-3 51z"/>
<path d="M5754 7068 c-4 -7 -9 -22 -10 -35 -2 -20 0 -22 17 -13 20 11 26 45
10 55 -5 3 -13 0 -17 -7z"/>
<path d="M2834 6915 c-9 -23 4 -207 15 -218 14 -14 19 17 23 128 3 88 1 100
-15 103 -9 2 -20 -4 -23 -13z"/>
<path d="M5093 6753 c-24 -61 -35 -77 -49 -76 -57 8 -137 -54 -154 -119 -18
-65 16 -89 64 -44 27 25 37 47 11 26 -24 -20 -44 -6 -36 27 10 46 53 93 87 96
34 2 34 -2 5 -87 -27 -76 -27 -76 9 -76 29 0 41 15 19 22 -14 5 43 176 77 230
26 42 31 78 11 78 -8 0 -27 -34 -44 -77z"/>
<path d="M3072 6768 c-34 -34 6 -92 44 -63 18 14 18 14 -3 15 -22 0 -40 31
-28 50 8 14 2 13 -13 -2z"/>
<path d="M2740 6755 c-10 -12 -9 -16 5 -21 19 -8 40 9 31 25 -10 15 -21 14
-36 -4z"/>
<path d="M3482 6758 c-18 -18 -15 -28 8 -28 13 0 20 7 20 20 0 23 -10 26 -28
8z"/>
<path d="M5817 6764 c-14 -14 -7 -35 11 -32 9 2 17 10 17 17 0 16 -18 25 -28
15z"/>
<path d="M4582 6715 c-12 -25 -27 -45 -32 -45 -6 0 -9 -4 -5 -10 3 -5 -4 -38
-16 -73 -13 -35 -20 -71 -16 -80 8 -21 35 -21 61 -2 19 15 19 15 -2 15 -28 0
-29 28 -4 87 13 32 23 43 39 43 12 0 25 5 28 10 4 6 -5 10 -19 10 -24 0 -25 2
-14 25 6 13 14 23 17 21 3 -2 7 7 7 20 3 39 -20 28 -44 -21z"/>
<path d="M5352 6715 c-12 -25 -27 -45 -32 -45 -6 0 -8 -5 -5 -10 3 -6 -4 -39
-16 -75 -18 -53 -19 -68 -9 -80 16 -19 34 -19 49 -1 9 10 8 15 -4 20 -20 7
-19 28 6 81 14 29 28 45 40 45 10 0 21 5 24 10 4 6 -5 10 -20 10 l-27 0 21 34
c24 38 27 56 8 56 -7 0 -23 -20 -35 -45z"/>
<path d="M2573 6670 c-12 -5 -30 -21 -39 -36 -18 -27 -18 -27 18 -58 30 -25
35 -34 27 -48 -13 -23 -37 -23 -61 -1 -15 13 -21 14 -31 4 -9 -10 -8 -15 7
-27 26 -19 39 -18 86 6 50 25 51 46 5 90 -26 26 -32 37 -24 47 16 18 59 17 59
-2 0 -8 7 -15 15 -15 20 0 19 36 -1 44 -20 8 -34 7 -61 -4z"/>
<path d="M2705 6670 c-8 -12 -55 -151 -55 -161 0 -14 40 -17 51 -3 8 10 8 14
0 14 -17 0 -13 40 9 89 11 24 20 49 20 57 0 16 -16 19 -25 4z"/>
<path d="M2889 6657 c-19 -12 -45 -43 -58 -68 -24 -45 -24 -48 -8 -73 21 -32
57 -34 83 -5 19 22 19 22 -2 11 -33 -17 -57 15 -49 62 11 56 93 114 89 62 -1
-10 6 -16 17 -16 23 0 26 35 3 44 -26 10 -39 7 -75 -17z"/>
<path d="M3073 6666 c22 -17 22 -38 -3 -86 -25 -49 -25 -67 0 -80 26 -14 45
-3 29 16 -9 11 -9 24 0 54 6 22 16 40 21 40 9 0 7 41 -4 58 -4 7 -19 12 -34
12 -25 -1 -25 -2 -9 -14z"/>
<path d="M3304 6668 c-12 -5 -27 -22 -34 -36 -11 -24 -9 -29 20 -55 17 -15 30
-35 28 -45 -4 -23 -42 -27 -62 -6 -14 13 -20 14 -29 5 -9 -10 -8 -16 7 -27 27
-19 45 -18 84 6 49 30 51 48 9 84 -42 35 -46 51 -17 66 15 8 24 6 40 -10 23
-23 40 -26 40 -7 0 33 -43 46 -86 25z"/>
<path d="M3439 6659 c-14 -28 -49 -129 -49 -144 0 -19 38 -25 51 -9 8 10 8 14
0 14 -16 0 -13 28 9 88 11 29 20 57 20 62 0 18 -19 11 -31 -11z"/>
<path d="M3530 6669 c-15 -4 -18 -7 -8 -8 14 -1 15 -6 7 -37 -6 -19 -19 -55
-29 -80 l-19 -44 23 2 c16 2 22 7 18 17 -4 10 -1 12 8 6 8 -5 11 -4 6 3 -6 11
41 89 68 111 17 15 36 7 36 -15 0 -8 -9 -32 -20 -54 -28 -55 -26 -70 10 -70
17 0 30 5 30 10 0 6 -4 10 -10 10 -15 0 -12 21 13 71 17 35 21 52 13 68 -5 11
-14 21 -20 21 -14 0 -79 -39 -89 -54 -4 -6 -5 1 -1 15 7 32 -2 39 -36 28z"/>
<path d="M3809 6661 c24 -24 22 -51 -7 -84 -8 -9 -12 -20 -9 -23 9 -10 77 61
77 80 0 9 4 16 9 16 5 0 16 3 25 6 23 9 21 -33 -5 -91 -21 -47 -21 -49 -3 -62
17 -13 63 -19 51 -7 -3 3 5 17 19 31 29 29 33 44 4 18 -10 -9 -26 -15 -35 -12
-13 6 -13 13 5 57 31 78 28 88 -22 83 -24 -2 -47 -4 -53 -4 -5 -1 -25 2 -44 7
l-34 7 22 -22z"/>
<path d="M4136 6673 c-14 -4 -16 -7 -6 -13 13 -8 8 -27 -37 -147 -3 -7 1 -13
9 -13 8 0 27 22 41 48 38 70 70 102 96 95 16 -4 21 -1 21 16 0 28 -16 27 -57
-5 l-35 -26 4 22 c3 25 -6 30 -36 23z"/>
<path d="M4354 6658 c14 -22 14 -27 -3 -59 -31 -57 -31 -94 -1 -102 24 -6 36
9 21 27 -8 10 -5 27 11 66 24 58 18 82 -21 88 -21 3 -22 2 -7 -20z"/>
<path d="M4735 6660 c18 -20 18 -22 -3 -64 -25 -50 -28 -79 -8 -95 19 -16 50
-3 36 14 -12 14 -5 55 17 98 18 36 3 67 -34 67 -26 0 -26 0 -8 -20z"/>
<path d="M5208 6668 c16 -16 15 -54 -2 -81 -26 -42 -28 -75 -6 -87 24 -13 45
-4 32 13 -6 8 -2 35 11 74 22 69 15 93 -26 93 -16 0 -18 -3 -9 -12z"/>
<path d="M5470 6657 c-36 -24 -64 -65 -75 -109 -5 -21 -2 -30 19 -43 32 -21
57 -14 108 33 49 44 62 75 47 105 -23 44 -50 48 -99 14z m58 -37 c6 -71 -73
-142 -88 -80 -13 50 27 123 64 118 16 -2 22 -12 24 -38z"/>
<path d="M5621 6672 c-19 -3 -21 -6 -10 -13 12 -7 10 -21 -13 -84 -19 -54 -23
-75 -13 -75 16 0 29 16 61 76 29 57 51 76 75 69 21 -7 35 13 21 27 -7 7 -22 4
-46 -12 -29 -17 -36 -19 -36 -6 0 19 -9 23 -39 18z"/>
<path d="M5776 6671 c-3 -5 -15 -39 -27 -76 -11 -37 -23 -74 -26 -81 -3 -10 3
-14 20 -14 28 0 45 16 25 22 -9 3 -6 22 10 69 13 35 24 68 25 73 3 12 -20 19
-27 7z"/>
<path d="M5886 6654 c-41 -28 -77 -93 -69 -125 9 -32 40 -43 76 -28 l32 14
-29 5 c-18 3 -32 14 -37 28 -7 20 -4 24 26 37 19 8 51 22 70 30 26 11 33 19
28 32 -15 40 -44 42 -97 7z m58 -18 c-5 -13 -46 -36 -64 -36 -18 0 -11 20 15
46 20 20 29 23 40 14 8 -6 12 -17 9 -24z"/>
<path d="M3016 6649 c-21 -17 -25 -24 -14 -30 20 -13 28 -11 28 9 0 10 5 23
12 30 20 20 3 14 -26 -9z"/>
<path d="M3739 6641 c-30 -31 -38 -68 -17 -89 15 -15 58 -16 58 -2 0 6 -4 10
-10 10 -5 0 -14 9 -20 21 -9 16 -7 27 9 55 25 42 19 43 -20 5z"/>
<path d="M4025 6628 c-9 -24 -19 -62 -22 -84 -3 -34 -1 -42 14 -46 31 -8 44 1
31 22 -10 15 -9 29 5 67 9 26 17 56 17 66 0 32 -27 17 -45 -25z"/>
<path d="M4290 6652 c-13 -11 -20 -24 -16 -30 11 -19 26 -14 26 8 0 10 8 24
18 29 9 6 12 11 6 11 -7 0 -22 -8 -34 -18z"/>
<path d="M5149 6651 c-18 -15 -21 -22 -12 -31 13 -14 36 -4 27 12 -4 6 1 17
11 25 11 7 14 13 8 13 -6 0 -21 -9 -34 -19z"/>
<path d="M4671 6646 c-11 -13 -11 -20 -3 -28 8 -8 13 -7 18 5 10 27 0 41 -15
23z"/>
<path d="M2972 6557 c-28 -29 -28 -54 -1 -62 15 -5 28 -1 42 14 l21 21 -22 0
c-25 0 -26 3 -12 31 15 26 -2 24 -28 -4z"/>
<path d="M4246 6561 c-21 -23 -18 -65 4 -69 9 -1 24 4 35 13 20 14 20 15 -2
21 -26 7 -27 8 -13 35 14 25 -2 25 -24 0z"/>
<path d="M4630 6555 c-19 -21 -22 -30 -14 -43 16 -24 39 -26 60 -5 17 17 17
18 -4 21 -24 4 -29 21 -10 40 7 7 8 12 2 12 -6 0 -21 -11 -34 -25z"/>
<path d="M5107 6562 c-21 -23 -22 -58 -1 -66 18 -7 54 10 54 25 0 6 -4 8 -8 5
-4 -2 -14 -1 -22 4 -12 7 -12 12 -2 22 6 6 12 16 12 20 0 14 -16 9 -33 -10z"/>
<path d="M3701 6526 c-19 -22 -2 -43 45 -56 24 -7 44 -17 44 -22 0 -21 -50
-58 -79 -58 -40 0 -55 27 -36 64 10 18 10 25 2 20 -68 -39 -60 -104 14 -104
28 0 104 38 126 62 24 26 8 49 -48 69 -24 8 -43 21 -41 27 3 16 -13 15 -27 -2z"/>
<path d="M2509 6478 c0 -2 -2 -18 -4 -36 -3 -32 -2 -32 16 -16 23 20 25 54 4
54 -8 0 -15 -1 -16 -2z"/>
<path d="M5536 6421 c-4 -7 -5 -15 -2 -18 9 -9 19 4 14 18 -4 11 -6 11 -12 0z"/>
<path d="M410 6280 c0 -5 5 -10 11 -10 5 0 7 5 4 10 -3 6 -8 10 -11 10 -2 0
-4 -4 -4 -10z"/>
<path d="M4888 6201 c-19 -16 -45 -52 -58 -80 -13 -29 -30 -51 -39 -52 -11 0
-12 -2 -4 -6 9 -3 11 -14 6 -31 -12 -51 -74 -187 -95 -209 -23 -24 -64 -31
-70 -11 -4 12 -28 3 -28 -11 0 -4 10 -12 23 -18 45 -20 112 46 177 176 39 79
48 90 75 94 16 3 32 3 34 1 2 -2 -8 -36 -22 -76 -14 -40 -24 -74 -22 -76 11
-12 34 12 60 63 32 62 65 91 92 81 9 -4 20 -1 24 6 19 30 18 -4 -1 -58 -11
-32 -20 -66 -20 -75 0 -33 30 -29 68 7 20 20 26 29 13 21 -41 -27 -53 -12 -31
41 10 26 24 46 31 44 9 -2 8 2 -2 14 -8 9 -12 19 -9 22 13 14 -86 9 -108 -6
-22 -14 -25 -14 -33 0 -7 12 -19 15 -49 11 -49 -7 -58 9 -35 63 30 72 95 115
95 63 0 -14 5 -19 18 -17 9 2 17 12 17 23 0 16 -8 21 -37 23 -28 2 -43 -3 -70
-27z"/>
<path d="M6180 6210 c0 -5 5 -10 10 -10 6 0 10 5 10 10 0 6 -4 10 -10 10 -5 0
-10 -4 -10 -10z"/>
<path d="M3435 6168 c-13 -34 -1 -63 28 -66 15 -2 27 1 27 7 0 6 -5 11 -10 11
-6 0 -17 15 -25 33 -11 25 -15 29 -20 15z"/>
<path d="M3973 6160 c-13 -31 -6 -57 18 -63 27 -7 46 19 20 28 -12 3 -21 17
-24 33 l-3 27 -11 -25z"/>
<path d="M2925 6120 c-14 -27 -30 -50 -36 -50 -5 0 -7 -5 -4 -10 4 -6 -4 -39
-16 -74 -19 -54 -21 -67 -10 -80 7 -9 19 -16 26 -16 14 0 42 30 29 30 -31 1
-34 17 -13 73 18 48 26 57 53 63 29 6 30 7 9 15 -27 10 -27 15 -8 49 17 29 19
50 5 50 -5 0 -21 -22 -35 -50z"/>
<path d="M3697 6150 c-8 -14 -21 -37 -28 -52 -7 -16 -19 -28 -28 -28 -11 0
-12 -3 -4 -8 9 -6 7 -17 -6 -47 -10 -22 -21 -55 -24 -73 -6 -28 -3 -34 18 -44
19 -8 28 -8 41 2 14 13 14 15 -5 22 -18 6 -20 13 -15 35 17 67 33 91 66 99 28
6 30 8 13 14 -11 4 -23 5 -28 3 -4 -2 0 14 9 36 20 49 14 76 -9 41z"/>
<path d="M4134 6159 c-8 -14 11 -33 25 -25 16 10 13 36 -3 36 -8 0 -18 -5 -22
-11z"/>
<path d="M4546 6148 c-8 -13 -20 -35 -27 -50 -7 -16 -16 -28 -21 -28 -5 0 -7
-4 -4 -9 4 -5 -3 -30 -14 -56 -27 -62 -26 -102 1 -110 14 -5 27 -1 37 9 15 15
15 16 0 16 -26 0 -29 29 -7 79 16 38 28 51 52 59 26 8 28 10 10 11 -27 1 -29
23 -8 61 8 14 14 28 15 33 0 15 -20 6 -34 -15z"/>
<path d="M4667 6163 c-4 -3 -7 -12 -7 -20 0 -17 26 -17 33 1 8 21 -11 35 -26
19z"/>
<path d="M3445 6080 c-18 -7 -19 -8 -2 -15 22 -9 22 -26 -4 -74 -27 -53 -23
-85 14 -89 15 -2 27 1 27 7 0 6 -5 11 -11 11 -13 0 -4 49 17 88 18 35 18 46
-3 64 -12 10 -25 13 -38 8z"/>
<path d="M2614 6063 c-36 -18 -84 -87 -84 -120 0 -13 11 -29 25 -39 22 -15 30
-15 53 -4 26 13 26 14 4 18 -12 2 -27 13 -33 24 -14 27 0 41 66 65 42 16 50
23 50 43 0 31 -35 37 -81 13z m40 -31 c-6 -9 -25 -18 -43 -20 -30 -3 -31 -2
-19 17 6 11 21 24 33 29 26 13 43 -2 29 -26z"/>
<path d="M2770 6073 c-26 -10 -50 -35 -50 -54 0 -10 15 -29 33 -43 27 -21 30
-28 21 -43 -14 -21 -55 -19 -67 2 -4 9 -12 13 -18 10 -17 -11 -9 -35 15 -46
18 -9 31 -7 63 10 60 30 62 49 12 92 l-43 36 28 18 c28 18 28 18 47 -6 14 -19
21 -21 30 -12 27 27 -25 53 -71 36z"/>
<path d="M3039 6059 c-39 -23 -79 -83 -79 -118 0 -11 11 -28 25 -37 22 -14 30
-15 53 -4 24 12 25 14 7 18 -48 10 -61 51 -22 69 42 20 92 38 100 35 5 -1 7
10 5 25 -4 36 -39 41 -89 12z m48 -23 c-9 -12 -27 -22 -46 -24 -30 -3 -31 -2
-19 17 14 23 48 40 66 33 10 -3 10 -9 -1 -26z"/>
<path d="M3260 6073 c-26 -10 -50 -35 -50 -54 0 -10 14 -28 30 -41 34 -24 37
-39 15 -58 -13 -11 -21 -10 -44 8 -16 11 -31 18 -35 15 -13 -13 -5 -34 18 -44
18 -9 31 -7 63 10 57 28 60 46 18 85 -40 37 -43 51 -14 66 23 13 50 6 47 -11
-2 -6 3 -14 10 -16 6 -3 12 0 12 7 0 6 6 8 13 4 6 -4 3 2 -7 14 -18 21 -45 26
-76 15z"/>
<path d="M3766 6073 c-14 -4 -16 -7 -6 -13 11 -7 8 -23 -13 -81 -14 -41 -24
-75 -22 -77 12 -12 35 12 64 67 17 33 40 65 50 70 20 11 61 4 61 -10 0 -5 9
-9 20 -9 13 0 17 5 14 14 -8 21 33 41 52 25 14 -11 11 -47 -5 -59 -4 -3 -11
-16 -17 -30 -15 -33 -1 -70 26 -70 22 0 26 10 9 27 -7 7 -3 27 14 65 17 38 22
60 15 71 -11 21 -50 22 -89 1 -29 -14 -32 -14 -44 3 -14 17 -15 17 -47 0 -29
-17 -33 -17 -44 -3 -6 9 -13 15 -15 15 -2 -1 -13 -4 -23 -6z"/>
<path d="M4076 6009 c-33 -90 -34 -109 -2 -109 14 0 28 5 31 10 3 6 1 10 -4
10 -16 0 -13 41 3 59 7 9 16 35 19 59 8 67 -17 52 -47 -29z"/>
<path d="M4213 6059 c-72 -46 -93 -129 -41 -159 25 -13 29 -13 44 1 14 15 14
17 -9 23 -14 3 -27 14 -30 25 -5 20 5 42 19 43 5 0 14 2 19 4 94 30 108 41 84
70 -16 20 -49 17 -86 -7z m54 -5 c7 -20 -5 -32 -45 -43 -39 -12 -42 0 -7 34
28 29 43 31 52 9z"/>
<path d="M4357 6063 c-44 -28 -45 -51 -2 -88 35 -29 36 -32 21 -48 -16 -16
-38 -14 -64 6 -9 7 -16 7 -23 0 -15 -15 34 -47 60 -38 30 9 71 45 71 61 0 8
-16 30 -35 48 -36 32 -36 32 -16 50 23 21 51 15 51 -10 0 -8 6 -14 13 -11 6 2
12 12 12 23 0 26 -51 30 -88 7z"/>
<path d="M4625 6068 c-29 -75 -53 -154 -49 -160 6 -9 38 -11 47 -2 3 3 1 14
-4 23 -8 12 -5 30 10 69 12 29 21 59 21 67 0 18 -19 20 -25 3z"/>
<path d="M5166 6041 c-14 -21 -28 -62 -32 -90 l-7 -51 32 0 c27 0 30 2 20 18
-9 14 -7 33 9 85 11 37 16 69 11 72 -4 3 -19 -12 -33 -34z"/>
<path d="M5266 6073 c-15 -4 -16 -7 -5 -14 14 -8 5 -42 -36 -141 -5 -13 -2
-18 9 -18 9 0 16 -4 16 -9 0 -10 30 -19 47 -14 14 5 -3 63 -18 63 -15 0 34 80
59 97 33 23 39 9 18 -45 -10 -26 -21 -58 -24 -71 -8 -39 19 -20 51 35 31 53
65 94 79 94 13 0 9 -34 -7 -73 -23 -55 -20 -77 10 -77 26 0 35 25 13 33 -10 3
-6 19 13 59 39 79 15 114 -45 67 l-27 -22 -15 22 c-19 26 -23 26 -66 -3 -34
-23 -35 -23 -34 -3 1 22 -9 27 -38 20z"/>
<path d="M5602 6060 c-61 -38 -91 -119 -56 -154 22 -22 35 -20 80 13 49 35 74
72 74 109 0 54 -40 67 -98 32z m56 -17 c21 -36 -24 -123 -63 -123 -23 0 -25 4
-25 44 0 71 62 127 88 79z"/>
<path d="M5816 6053 c18 -20 27 -24 36 -15 16 16 -8 42 -38 42 l-23 0 25 -27z"/>
<path d="M3388 6059 c-21 -12 -24 -39 -5 -39 6 0 17 11 24 25 12 27 8 30 -19
14z"/>
<path d="M5747 6052 c-25 -27 -21 -48 16 -76 26 -21 30 -29 21 -42 -14 -24
-40 -25 -60 -3 -9 10 -21 16 -25 13 -17 -10 -9 -34 15 -45 18 -9 31 -7 65 11
59 30 62 47 15 86 -35 30 -38 36 -26 54 15 25 1 26 -21 2z"/>
<path d="M3337 5962 c-33 -37 -8 -84 32 -62 25 13 27 26 5 34 -10 4 -13 13 -9
26 8 25 -7 26 -28 2z"/>
<path d="M3877 5962 c-35 -39 -10 -85 34 -62 25 14 24 26 -2 33 -17 5 -19 9
-9 26 13 26 -1 27 -23 3z"/>
<path d="M5865 5942 c-6 -4 -10 -21 -10 -38 0 -27 2 -30 17 -21 18 12 27 35
21 55 -5 14 -13 15 -28 4z"/>
<path d="M6927 5893 c-12 -11 -8 -23 8 -23 8 0 15 7 15 15 0 16 -12 20 -23 8z"/>
<path d="M4309 5878 c-6 -13 -6 -58 0 -58 13 0 31 24 31 42 0 14 -26 27 -31
16z"/>
<path d="M1660 5698 c0 -34 14 -88 21 -88 10 0 12 60 3 84 -7 19 -24 21 -24 4z"/>
<path d="M4050 5678 c0 -19 2 -20 10 -8 13 19 13 30 0 30 -5 0 -10 -10 -10
-22z"/>
<path d="M2618 5618 c15 -15 16 -54 2 -63 -17 -10 -11 -25 10 -25 14 0 20 7
20 23 0 13 5 28 11 34 13 13 -14 43 -39 43 -12 0 -13 -3 -4 -12z"/>
<path d="M4007 5623 c-3 -5 -22 -51 -42 -103 -21 -52 -41 -99 -46 -104 -5 -6
-9 -17 -9 -25 0 -9 -7 -29 -15 -45 -9 -16 -14 -30 -13 -31 2 -1 13 -7 25 -14
44 -23 72 -13 129 43 57 58 68 91 38 120 -14 14 -19 14 -54 -4 -21 -11 -46
-30 -54 -42 -28 -39 -17 -4 28 97 25 55 43 103 40 107 -6 10 -21 10 -27 1z
m34 -213 c-8 -61 -58 -111 -95 -97 -24 9 -19 27 20 80 26 36 41 47 57 45 17
-2 21 -9 18 -28z"/>
<path d="M5763 5618 c-4 -7 -34 -78 -65 -157 -54 -134 -57 -145 -40 -157 49
-38 150 20 179 103 20 57 -21 82 -75 45 -47 -33 -59 -38 -45 -20 7 8 10 17 7
20 -6 7 21 65 42 88 17 20 29 90 15 90 -5 0 -13 -6 -18 -12z m37 -198 c0 -50
-54 -114 -92 -108 -36 5 -32 29 13 81 43 50 79 62 79 27z"/>
<path d="M2551 5595 c-16 -14 -42 -50 -57 -80 -14 -30 -30 -55 -34 -55 -5 0
-6 -8 -3 -18 2 -10 -9 -52 -25 -93 -55 -137 -86 -173 -131 -150 -26 14 -31 14
-31 -3 0 -23 36 -29 68 -12 41 21 80 71 110 138 13 32 29 58 34 58 5 0 8 6 7
13 -4 25 13 46 44 53 27 6 29 7 11 17 -10 5 -21 11 -23 13 -10 8 34 107 56
124 14 11 21 20 15 20 -6 0 -24 -11 -41 -25z"/>
<path d="M6475 5568 c-20 -59 -55 -173 -55 -182 0 -6 17 18 38 54 41 71 62
116 62 130 0 15 -40 12 -45 -2z"/>
<path d="M2254 5545 c-4 -15 -1 -32 7 -41 14 -17 50 -15 57 4 2 7 0 12 -5 11
-23 -4 -33 3 -33 26 0 32 -18 32 -26 0z"/>
<path d="M2723 5563 c-21 -7 -15 -33 7 -33 11 0 20 6 20 14 0 18 -11 25 -27
19z"/>
<path d="M4842 5558 c-18 -18 -14 -28 8 -28 11 0 20 6 20 14 0 21 -15 27 -28
14z"/>
<path d="M5172 5533 c3 -33 6 -38 27 -38 30 0 39 21 11 28 -12 3 -20 13 -20
26 0 12 -5 21 -11 21 -6 0 -9 -16 -7 -37z"/>
<path d="M5432 5558 c-18 -18 -14 -28 8 -28 11 0 20 6 20 14 0 21 -15 27 -28
14z"/>
<path d="M6373 5563 c-21 -7 -15 -33 7 -33 11 0 20 6 20 14 0 18 -11 25 -27
19z"/>
<path d="M6230 5510 c-13 -27 -27 -50 -32 -50 -5 0 -7 -4 -4 -9 3 -4 -4 -35
-16 -68 -25 -67 -20 -93 16 -93 30 0 42 15 20 24 -40 15 13 136 60 136 21 1
21 1 1 12 -11 6 -21 12 -23 13 -1 1 5 18 13 38 18 44 18 47 2 47 -8 0 -24 -22
-37 -50z"/>
<path d="M1450 5470 c0 -11 5 -20 10 -20 6 0 10 9 10 20 0 11 -4 20 -10 20 -5
0 -10 -9 -10 -20z"/>
<path d="M2262 5471 c-11 -7 -11 -9 2 -14 20 -8 21 -56 1 -63 -8 -4 -12 -10
-9 -16 3 -5 -2 -19 -13 -30 -10 -12 -13 -18 -6 -15 7 5 13 -1 15 -15 2 -15 11
-24 26 -26 25 -4 26 -3 12 32 -6 18 -6 26 1 26 6 0 7 5 4 10 -4 6 0 22 9 35
34 51 4 105 -42 76z"/>
<path d="M4673 5464 c-18 -7 -37 -24 -44 -36 -10 -19 -8 -25 20 -50 18 -16 31
-36 29 -46 -4 -23 -42 -27 -62 -6 -14 13 -20 14 -29 5 -9 -10 -7 -17 11 -31
14 -12 19 -21 11 -25 -6 -4 -8 -17 -5 -28 3 -12 0 -28 -7 -36 -6 -9 1 -5 16 9
17 15 26 31 24 42 -4 12 8 25 39 43 54 32 56 54 9 89 -42 32 -43 43 -9 58 22
10 28 10 39 -5 15 -21 35 -22 35 -2 0 12 -31 37 -42 34 -2 0 -17 -7 -35 -15z"/>
<path d="M5180 5470 c-8 -5 -10 -10 -4 -10 22 0 24 -31 4 -68 -35 -65 -20
-117 28 -97 11 5 13 9 5 12 -18 7 -15 42 7 88 16 33 17 43 6 59 -16 25 -27 28
-46 16z"/>
<path d="M5963 5473 c-10 -3 -10 -9 0 -24 16 -26 -10 -52 -48 -47 l-27 3 23
30 24 30 -33 -24 c-42 -29 -67 -80 -58 -115 8 -32 42 -47 74 -33 25 12 31 32
6 23 -22 -9 -44 11 -44 40 0 18 7 24 34 29 44 9 96 41 96 60 0 17 -29 34 -47
28z"/>
<path d="M2108 5460 c12 -5 22 -14 22 -20 0 -5 7 -10 16 -10 9 0 14 7 12 18
-2 12 -14 18 -38 19 -30 2 -32 1 -12 -7z"/>
<path d="M2560 5413 c-36 -96 -28 -145 20 -113 13 9 13 11 0 20 -13 8 -12 17
8 72 26 74 26 78 8 78 -8 0 -24 -25 -36 -57z"/>
<path d="M2675 5458 c-2 -7 -13 -38 -25 -68 -26 -71 -26 -100 -1 -100 23 0 40
22 23 28 -16 5 -15 37 1 54 6 7 14 20 16 28 2 8 7 27 11 43 7 21 5 27 -6 27
-8 0 -17 -6 -19 -12z"/>
<path d="M2846 5461 c-4 -5 -1 -11 5 -13 7 -2 2 -25 -15 -65 -14 -34 -23 -69
-20 -77 11 -28 48 -18 84 24 l36 41 -4 -41 c-4 -37 -2 -40 21 -40 23 0 25 3
20 33 -3 19 2 49 11 71 32 77 12 106 -24 35 -29 -55 -69 -99 -93 -99 -13 0
-17 5 -13 16 3 9 9 27 12 40 3 13 9 22 13 20 3 -2 7 11 8 30 3 28 -1 34 -16
34 -11 0 -22 -4 -25 -9z"/>
<path d="M3056 5461 c-4 -5 -1 -11 5 -13 11 -4 4 -30 -36 -130 -5 -13 -2 -18
8 -18 8 0 27 21 42 48 66 113 125 127 80 19 -22 -54 -20 -77 9 -77 13 0 26 7
30 15 3 8 1 15 -4 15 -15 0 -12 24 10 74 10 25 17 53 14 61 -9 21 -41 19 -76
-6 l-29 -21 -6 21 c-5 21 -37 29 -47 12z"/>
<path d="M3395 5458 c-45 -25 -75 -71 -75 -115 0 -50 43 -69 84 -38 11 8 28
15 38 15 11 0 18 7 18 18 0 10 7 27 15 38 18 23 19 66 3 82 -15 15 -56 15 -83
0z m43 -10 c19 -19 14 -62 -11 -99 -30 -44 -54 -49 -68 -13 -13 37 -6 65 27
97 30 30 35 32 52 15z"/>
<path d="M3537 5464 c-3 -3 -3 -12 0 -20 5 -14 -2 -39 -31 -106 -24 -56 -1
-57 34 -1 44 72 71 103 86 103 19 0 18 -10 -6 -72 -23 -61 -24 -68 -9 -68 14
0 34 25 54 65 22 47 50 77 68 74 14 -4 14 -8 0 -44 -8 -22 -17 -55 -20 -72 -4
-28 -2 -33 15 -33 11 0 25 7 32 15 10 12 10 15 -4 15 -9 0 -16 4 -16 10 0 12
33 84 42 90 4 3 5 16 1 28 -7 28 -43 29 -68 2 -10 -11 -21 -20 -25 -20 -4 0
-10 9 -13 20 -7 27 -39 25 -75 -5 l-29 -24 5 24 c3 20 0 25 -15 25 -11 0 -22
-3 -26 -6z"/>
<path d="M4135 5451 c3 -11 -3 -37 -13 -58 -33 -64 -32 -103 1 -103 22 0 54
26 72 60 6 11 3 10 -12 -2 -11 -10 -27 -18 -37 -18 -19 0 -16 20 10 72 21 40
18 68 -7 68 -16 0 -19 -4 -14 -19z"/>
<path d="M4244 5439 c-17 -33 -22 -52 -31 -111 -5 -36 -4 -38 20 -38 14 0 29
5 32 10 3 6 1 10 -4 10 -13 0 -15 52 -2 66 5 5 12 28 16 52 8 51 -7 56 -31 11z"/>
<path d="M4336 5461 c-4 -5 -1 -11 6 -13 9 -3 5 -23 -15 -73 -15 -38 -23 -73
-18 -78 8 -8 61 53 61 70 0 5 13 24 28 43 36 42 66 38 53 -8 -5 -16 -14 -39
-20 -50 -19 -36 -14 -62 13 -62 13 0 26 7 30 15 3 9 0 15 -9 15 -19 0 -19 24
0 40 9 7 13 15 10 18 -3 3 2 13 11 23 23 26 11 69 -19 69 -12 0 -33 -9 -47
-20 -26 -20 -41 -25 -39 -12 4 21 -3 32 -20 32 -11 0 -22 -4 -25 -9z"/>
<path d="M4775 5395 c-29 -80 -28 -105 4 -105 25 0 38 20 20 30 -11 7 -10 19
6 67 28 83 28 83 12 83 -9 0 -25 -29 -42 -75z"/>
<path d="M5042 5440 c34 -31 48 -27 28 9 -6 13 -21 21 -36 21 l-25 0 33 -30z"/>
<path d="M5366 5399 c-31 -84 -33 -109 -7 -109 24 0 48 26 29 32 -10 4 -10 15
4 54 30 89 30 94 15 94 -9 0 -25 -28 -41 -71z"/>
<path d="M5477 5464 c-3 -3 -3 -12 0 -20 3 -7 -5 -38 -17 -68 -13 -30 -20 -61
-17 -70 9 -24 50 -19 70 9 l18 25 -30 -6 c-26 -6 -29 -4 -24 15 3 11 10 18 16
14 6 -3 7 -1 3 6 -4 6 0 25 8 43 9 17 16 37 16 45 0 13 -31 18 -43 7z"/>
<path d="M5582 5431 c-11 -21 -18 -42 -15 -45 4 -3 2 -6 -3 -6 -5 0 -10 -18
-12 -40 -3 -43 13 -59 46 -45 11 5 13 9 5 12 -17 6 -15 27 6 93 10 30 17 58
14 63 -9 15 -22 6 -41 -32z"/>
<path d="M6063 5460 c-12 -5 -27 -18 -33 -30 -10 -18 -7 -25 26 -55 23 -22 34
-39 31 -49 -8 -21 -46 -20 -69 1 -16 15 -21 15 -28 3 -13 -21 8 -40 45 -40 23
0 43 9 66 31 l33 31 -44 40 c-41 38 -43 41 -25 54 25 18 44 18 51 -1 6 -15 44
-21 44 -7 0 28 -52 40 -97 22z"/>
<path d="M6321 5443 c-18 -39 -41 -114 -41 -135 0 -22 33 -24 50 -3 7 8 8 15
3 15 -14 0 -5 76 12 110 18 36 19 40 2 40 -8 0 -20 -12 -26 -27z"/>
<path d="M2047 5439 c-19 -26 -12 -53 19 -70 16 -8 24 -20 22 -33 -4 -28 -47
-34 -65 -10 -10 14 -16 15 -25 6 -16 -16 8 -42 40 -42 33 0 92 37 92 58 0 9
-17 31 -37 48 -33 27 -36 34 -24 48 8 9 9 16 3 16 -6 0 -17 -9 -25 -21z"/>
<path d="M4968 5449 c-28 -16 -22 -51 14 -80 28 -23 30 -29 19 -43 -17 -20
-45 -21 -61 -1 -17 21 -30 19 -30 -5 0 -22 35 -41 60 -32 8 3 27 14 43 24 36
26 35 59 -3 81 -31 18 -40 51 -17 60 6 3 8 6 2 6 -5 0 -18 -4 -27 -10z"/>
<path d="M2202 5438 c-16 -16 -15 -28 2 -28 7 0 16 9 19 20 6 23 -3 26 -21 8z"/>
<path d="M5117 5443 c-12 -11 -8 -33 6 -33 7 0 13 9 13 20 0 20 -7 25 -19 13z"/>
<path d="M2177 5364 c-40 -27 -45 -49 -14 -68 12 -8 22 -8 34 0 25 16 28 33 4
27 -42 -11 -15 44 29 60 13 5 13 6 0 6 -9 1 -32 -11 -53 -25z"/>
<path d="M5081 5356 c-29 -31 -24 -60 10 -64 33 -4 47 23 17 31 -20 6 -20 7
-4 31 21 33 7 34 -23 2z"/>
<path d="M6392 5328 c-7 -7 -12 -18 -12 -25 0 -18 29 -16 37 3 8 21 -10 37
-25 22z"/>
<path d="M6017 5273 c-4 -3 -7 -16 -7 -28 0 -11 -6 -27 -12 -34 -11 -11 -10
-12 2 -6 33 17 48 37 43 56 -5 20 -15 24 -26 12z"/>
<path d="M80 5201 c0 -5 6 -14 14 -20 12 -10 13 -8 9 8 -5 21 -23 30 -23 12z"/>
<path d="M4065 4974 c-14 -32 -28 -69 -32 -82 -4 -18 -11 -22 -26 -18 -30 8
-93 -22 -127 -61 -26 -29 -31 -42 -28 -76 4 -62 32 -61 93 4 26 28 45 43 41
33 -18 -46 -18 -71 0 -78 10 -4 24 -1 33 9 14 13 13 15 -3 15 -13 0 -16 5 -10
23 4 12 9 24 13 27 3 3 8 12 10 20 7 31 8 36 15 55 12 30 59 129 66 135 10 9
5 43 -7 47 -7 3 -23 -20 -38 -53z m-55 -128 c0 -18 -65 -102 -85 -110 -29 -11
-35 -7 -35 24 0 42 53 100 91 100 18 0 29 -5 29 -14z"/>
<path d="M5190 5008 c-38 -89 -116 -308 -110 -308 19 0 39 13 34 21 -3 5 0 9
5 9 6 0 11 6 11 13 0 25 59 97 80 97 25 0 25 -7 0 -70 -25 -63 -25 -66 2 -74
27 -7 49 11 29 23 -11 7 -11 15 -1 47 7 22 17 45 22 51 13 16 2 63 -15 63 -16
0 -78 -38 -95 -59 -12 -14 -12 -14 -4 4 5 11 19 43 32 70 12 28 28 64 36 82 8
17 14 36 14 42 0 20 -30 11 -40 -11z"/>
<path d="M5506 5021 c-13 -20 -116 -292 -116 -305 0 -19 37 -27 50 -11 8 10 7
14 -2 17 -10 4 -9 16 5 59 31 92 81 209 88 209 4 0 5 9 2 20 -6 21 -18 26 -27
11z"/>
<path d="M1694 4976 c-38 -17 -74 -61 -74 -91 0 -13 17 -39 42 -63 39 -38 41
-43 29 -65 -30 -56 -111 -62 -111 -9 l-1 27 -15 -28 c-17 -31 -6 -57 23 -57
12 0 13 -3 3 -15 -6 -8 -9 -19 -5 -24 3 -6 1 -21 -6 -33 -11 -22 -11 -22 15 2
18 16 25 31 22 45 -4 16 2 24 26 34 45 20 98 70 98 92 0 11 -18 37 -40 59 -47
46 -52 81 -15 106 30 20 56 15 71 -13 8 -17 13 -20 22 -11 19 19 14 38 -14 48
-31 12 -32 12 -70 -4z"/>
<path d="M5702 4983 c-32 -6 -92 -66 -92 -93 0 -14 16 -38 40 -60 47 -43 50
-70 14 -99 -45 -35 -94 -23 -94 24 0 16 -2 17 -10 5 -5 -8 -10 -25 -10 -36 0
-57 106 -37 161 29 28 34 23 60 -21 100 -22 20 -40 45 -40 56 0 50 86 85 97
41 7 -26 27 -21 31 7 2 14 -4 22 -20 27 -13 3 -25 5 -28 5 -3 -1 -15 -4 -28
-6z"/>
<path d="M4800 4970 c-10 -6 -11 -10 -2 -10 6 0 12 -8 12 -18 0 -24 -42 -132
-75 -189 -14 -25 -23 -48 -21 -51 16 -15 38 19 71 113 24 65 41 102 46 93 3
-7 19 -57 35 -110 22 -78 32 -98 46 -98 12 0 18 8 18 25 0 29 36 129 74 203
19 38 23 52 13 52 -14 0 -59 -90 -70 -140 -4 -14 -12 -33 -19 -43 -12 -17 -16
-10 -37 65 -13 46 -28 91 -33 101 -10 19 -35 22 -58 7z"/>
<path d="M6370 4970 c-13 -8 -12 -10 3 -10 9 0 17 -2 17 -4 0 -3 -20 -60 -45
-127 -25 -67 -43 -124 -41 -127 2 -2 22 -6 44 -9 53 -7 116 22 171 79 72 74
84 153 29 192 -25 18 -153 22 -178 6z m124 -10 c80 -30 37 -183 -65 -236 -37
-19 -85 -15 -82 6 4 30 30 90 36 83 7 -6 11 19 8 45 -1 7 7 24 18 39 12 14 21
36 21 49 0 27 20 31 64 14z"/>
<path d="M1833 4955 c-3 -9 -3 -18 0 -22 10 -10 37 6 37 22 0 20 -29 20 -37 0z"/>
<path d="M2737 4964 c-14 -14 -7 -35 11 -32 9 2 17 10 17 17 0 16 -18 25 -28
15z"/>
<path d="M2836 4948 c-8 -13 -20 -35 -27 -50 -7 -16 -16 -28 -21 -28 -4 0 -8
-9 -8 -19 0 -11 -10 -44 -21 -75 -18 -45 -19 -59 -9 -71 16 -19 44 -19 60 0
10 13 9 15 -10 15 -19 0 -21 4 -14 32 13 61 36 98 61 98 13 0 23 5 23 10 0 6
-9 10 -20 10 -17 0 -19 3 -10 19 21 40 29 70 20 76 -5 3 -16 -5 -24 -17z"/>
<path d="M3427 4964 c-14 -15 -6 -34 14 -34 14 0 19 5 17 17 -3 18 -20 27 -31
17z"/>
<path d="M3670 4950 c-9 -17 -8 -20 9 -20 19 0 35 23 24 34 -11 11 -22 6 -33
-14z"/>
<path d="M4330 4938 c-11 -18 -20 -38 -20 -44 0 -6 -7 -17 -15 -24 -9 -7 -13
-15 -11 -17 2 -3 -4 -26 -15 -51 -25 -58 -22 -106 7 -110 11 -2 27 4 34 13 10
12 10 15 -3 15 -28 0 -29 20 -7 76 18 44 27 54 46 54 13 0 24 5 24 10 0 6 -9
10 -20 10 -17 0 -19 3 -10 19 36 68 28 110 -10 49z"/>
<path d="M4460 4936 c0 -26 5 -36 20 -41 21 -7 40 0 40 14 0 5 -9 11 -20 14
-12 3 -20 14 -20 26 0 12 -4 21 -10 21 -5 0 -10 -15 -10 -34z"/>
<path d="M5073 4955 c-3 -9 -3 -18 0 -22 10 -10 37 6 37 22 0 20 -29 20 -37 0z"/>
<path d="M5387 4964 c-14 -14 -7 -35 11 -32 9 2 17 10 17 17 0 16 -18 25 -28
15z"/>
<path d="M5832 4958 c-18 -18 -15 -28 8 -28 13 0 20 7 20 20 0 23 -10 26 -28
8z"/>
<path d="M6096 4839 c-53 -59 -66 -101 -40 -130 21 -23 57 -25 75 -2 12 14 12
16 -2 11 -9 -3 -21 -3 -28 1 -15 10 -25 61 -12 61 6 0 35 9 66 21 72 27 75 65
8 82 -18 4 -32 -5 -67 -44z m74 1 c0 -20 -27 -40 -54 -40 -26 0 -18 28 12 44
36 20 42 20 42 -4z"/>
<path d="M1785 4825 c-31 -68 -37 -128 -15 -132 21 -4 49 17 33 24 -19 7 -16
48 8 100 14 32 17 49 10 56 -7 7 -18 -7 -36 -48z"/>
<path d="M1977 4872 c-12 -2 -16 -10 -12 -21 3 -10 -6 -48 -20 -84 -21 -57
-23 -67 -9 -67 9 0 18 9 21 20 3 11 9 20 13 20 5 0 12 9 15 20 10 33 55 80 76
80 24 0 24 -7 -1 -61 -24 -54 -25 -75 -4 -83 22 -8 50 14 32 25 -10 6 -10 14
-1 36 39 97 38 92 21 109 -17 18 -43 9 -84 -28 -21 -19 -21 -19 -17 5 5 27 -3
36 -30 29z"/>
<path d="M2187 4872 c-12 -2 -16 -10 -12 -21 3 -10 -4 -39 -15 -65 -26 -61
-25 -83 1 -91 16 -5 29 1 53 24 17 17 25 31 19 31 -7 0 -15 -4 -18 -10 -3 -5
-14 -10 -25 -10 -13 0 -17 5 -13 20 3 11 10 20 15 20 5 0 7 4 4 8 -3 5 2 21
10 36 24 47 17 67 -19 58z"/>
<path d="M2487 4872 c-11 -2 -16 -9 -13 -18 3 -7 -4 -40 -16 -73 -12 -32 -18
-66 -15 -75 9 -23 39 -19 59 8 16 22 16 23 -9 18 -23 -4 -24 -2 -18 19 4 13
12 26 16 27 5 2 7 8 4 13 -3 4 1 20 10 33 19 29 9 54 -18 48z"/>
<path d="M2704 4872 c-10 -6 -67 -163 -61 -168 15 -12 46 -12 57 1 10 12 10
15 -4 15 -21 0 -20 18 5 74 21 48 23 91 3 78z"/>
<path d="M2967 4873 c-4 -3 1 -12 11 -19 16 -12 16 -15 -5 -53 -29 -51 -30
-97 -3 -106 29 -9 43 3 25 21 -13 14 -13 19 1 52 24 55 28 80 14 97 -13 16
-32 19 -43 8z"/>
<path d="M3180 4871 c-9 -3 -16 -21 -17 -41 -1 -20 -11 -57 -22 -83 -12 -29
-16 -47 -9 -47 13 0 52 42 56 61 7 28 54 79 73 79 24 0 24 -12 -3 -78 -19 -46
-20 -55 -8 -62 19 -12 22 -12 40 0 13 9 13 11 1 19 -12 8 -11 19 8 71 21 56
21 64 8 78 -14 13 -19 13 -52 -7 -43 -25 -45 -25 -45 -7 0 19 -11 25 -30 17z"/>
<path d="M3393 4867 c-14 -18 -53 -126 -53 -147 0 -25 30 -34 49 -15 14 13 14
15 -2 15 -19 0 -21 12 -8 38 14 27 29 65 36 89 7 25 -8 39 -22 20z"/>
<path d="M3535 4870 c-3 -5 1 -10 9 -10 10 0 16 -9 16 -21 0 -15 4 -19 16 -15
9 3 18 6 20 6 13 0 1 31 -15 40 -25 13 -38 13 -46 0z"/>
<path d="M3638 4867 c-9 -9 -24 -43 -33 -75 -9 -31 -18 -64 -21 -73 -6 -21 31
-32 46 -14 8 9 7 14 -2 17 -9 3 -6 20 11 67 12 34 21 69 19 78 -3 15 -4 15
-20 0z"/>
<path d="M3749 4857 c-19 -12 -45 -43 -58 -70 -22 -44 -22 -49 -7 -72 27 -41
60 -33 122 29 30 30 54 61 54 69 0 22 -39 67 -59 67 -10 0 -33 -10 -52 -23z
m59 -37 c6 -74 -76 -143 -88 -75 -10 52 28 118 64 113 16 -2 22 -12 24 -38z"/>
<path d="M4166 4871 c-3 -5 1 -11 9 -15 20 -7 19 -29 -5 -68 -26 -43 -26 -85
0 -93 26 -8 48 5 27 16 -13 8 -13 14 -4 42 7 17 16 35 21 39 15 10 11 69 -5
79 -18 11 -36 11 -43 0z"/>
<path d="M4460 4874 c0 -4 7 -12 16 -19 15 -10 14 -16 -5 -58 -22 -48 -62 -84
-81 -72 -8 5 -6 14 5 31 19 29 3 32 -26 3 -24 -24 -22 -62 4 -67 11 -2 32 8
48 24 27 26 29 27 29 7 0 -21 35 -42 48 -29 3 4 5 26 3 50 -1 29 3 47 13 55
19 16 20 40 2 64 -12 16 -56 25 -56 11z"/>
<path d="M5025 4827 c-36 -78 -42 -122 -19 -131 10 -4 24 -1 33 9 14 13 14 15
-2 15 -20 0 -16 28 14 99 13 30 16 48 9 55 -6 6 -18 -9 -35 -47z"/>
<path d="M5351 4866 c-6 -7 -23 -46 -36 -87 -19 -56 -22 -75 -13 -81 18 -11
21 -10 44 7 17 13 17 14 2 15 -20 0 -26 40 -7 40 6 0 9 6 6 14 -3 7 0 22 7 32
28 41 25 94 -3 60z"/>
<path d="M5803 4872 c-13 -8 -47 -92 -56 -139 -7 -37 17 -53 42 -28 10 10 11
15 3 15 -18 0 -14 36 9 81 21 43 23 84 2 71z"/>
<path d="M5890 4870 c-8 -5 -11 -12 -8 -16 4 -3 -4 -37 -18 -74 -28 -78 -28
-80 -11 -80 10 0 41 36 42 50 0 3 11 22 23 43 48 76 90 66 58 -13 -9 -22 -16
-49 -16 -61 0 -27 28 -36 48 -15 15 15 15 16 -1 16 -14 0 -16 6 -11 28 4 15
14 38 23 52 19 28 16 69 -5 77 -16 6 -79 -31 -94 -55 -7 -13 -8 -9 -4 14 7 34
-4 48 -26 34z"/>
<path d="M6670 4873 c0 -5 5 -14 10 -19 17 -17 1 -42 -32 -49 -39 -9 -43 -3
-22 32 l18 28 -32 -30 c-18 -16 -38 -46 -44 -67 -10 -33 -9 -41 7 -58 22 -25
57 -26 78 -2 15 16 14 17 -16 17 -27 0 -32 4 -33 26 -2 23 3 28 51 43 62 19
84 40 68 64 -11 18 -53 29 -53 15z"/>
<path d="M6793 4853 c-73 -47 -96 -144 -38 -159 26 -7 69 19 118 69 34 36 36
80 5 101 -30 21 -37 20 -85 -11z m60 -14 c14 -22 -17 -105 -45 -120 -59 -32
-67 59 -10 124 18 21 40 19 55 -4z"/>
<path d="M2279 4828 c-12 -23 -23 -61 -26 -84 -4 -36 -1 -43 16 -49 30 -9 43
2 29 25 -10 15 -9 29 5 67 31 87 14 116 -24 41z"/>
<path d="M2579 4828 c-12 -23 -23 -61 -26 -84 -4 -36 -1 -43 16 -49 29 -9 43
2 30 24 -9 13 -7 31 5 73 9 31 16 61 16 67 0 24 -21 9 -41 -31z"/>
<path d="M4597 4864 c-14 -15 -6 -34 14 -34 14 0 19 5 17 17 -3 18 -20 27 -31
17z"/>
<path d="M2907 4853 c-10 -9 -8 -43 2 -43 5 0 11 11 13 25 5 24 -2 32 -15 18z"/>
<path d="M3490 4847 c-58 -46 -80 -126 -41 -147 28 -14 46 -13 71 8 l21 17
-33 0 c-30 0 -33 3 -36 33 -2 20 5 45 18 67 23 38 23 41 0 22z"/>
<path d="M4112 4848 c-17 -17 -15 -38 3 -38 9 0 15 9 15 25 0 29 -1 30 -18 13z"/>
<path d="M4412 4848 c-16 -16 -15 -38 1 -38 6 0 13 11 13 25 2 29 2 29 -14 13z"/>
<path d="M4087 4774 c-26 -14 -47 -49 -47 -78 0 -19 56 -7 77 16 18 20 17 20
-5 13 -21 -6 -23 -4 -20 16 2 13 14 29 28 36 14 7 18 13 10 12 -8 0 -28 -7
-43 -15z"/>
<path d="M2872 4764 c-16 -11 -22 -24 -20 -42 4 -37 37 -40 68 -6 l25 27 -24
-13 c-33 -17 -51 2 -26 30 22 24 9 26 -23 4z"/>
<path d="M4540 4721 c-10 -19 -8 -21 15 -21 19 0 26 5 23 17 -5 25 -25 27 -38
4z"/>
<path d="M1883 4634 c-8 -20 8 -36 26 -25 15 10 8 41 -9 41 -6 0 -13 -7 -17
-16z"/>
<path d="M6120 4555 c0 -8 7 -15 15 -15 8 0 15 7 15 15 0 8 -7 15 -15 15 -8 0
-15 -7 -15 -15z"/>
<path d="M7340 4500 c0 -5 5 -10 10 -10 6 0 10 5 10 10 0 6 -4 10 -10 10 -5 0
-10 -4 -10 -10z"/>
<path d="M7374 4456 c-10 -27 2 -43 14 -19 8 14 9 24 2 28 -6 3 -13 -1 -16 -9z"/>
<path d="M3895 4374 c0 -62 16 -84 51 -70 18 8 18 9 -3 17 -25 9 -29 29 -13
59 13 24 3 50 -19 50 -13 0 -16 -11 -16 -56z"/>
<path d="M3809 4388 c-16 -18 -36 -52 -45 -75 -9 -24 -20 -43 -25 -43 -4 0 -7
-8 -6 -18 1 -23 -59 -176 -85 -217 -15 -22 -9 -19 20 12 22 24 50 69 63 100
31 78 48 103 70 103 26 0 32 17 9 23 -26 7 -21 41 15 103 31 52 25 56 -16 12z"/>
<path d="M6203 4378 c-14 -17 -65 -179 -59 -186 3 -3 14 15 24 39 11 24 27 50
36 58 8 7 13 17 10 22 -3 5 1 16 9 24 17 16 16 47 0 52 -5 2 -15 -2 -20 -9z"/>
<path d="M2750 4371 c0 -5 6 -11 13 -14 9 -3 8 -13 -5 -41 -10 -20 -18 -41
-18 -47 0 -5 -18 -46 -40 -90 -32 -65 -37 -80 -23 -77 11 2 27 29 46 78 15 41
35 91 43 110 l16 35 34 -109 c18 -59 35 -111 38 -114 11 -10 36 21 36 44 0 51
76 214 93 198 3 -4 5 3 4 15 -1 24 -19 28 -36 7 -6 -8 -24 -49 -39 -92 -15
-44 -32 -80 -37 -82 -5 -2 -19 36 -32 83 -13 48 -26 91 -29 96 -7 12 -64 12
-64 0z"/>
<path d="M4228 4374 c-5 -4 -8 -20 -8 -35 0 -35 32 -56 50 -34 10 12 10 15 -2
15 -8 0 -19 14 -24 31 -5 17 -12 27 -16 23z"/>
<path d="M4470 4370 c-13 -8 -12 -10 3 -10 9 0 17 -3 17 -7 0 -5 -20 -61 -44
-126 l-44 -118 22 -9 c66 -25 210 51 252 133 13 25 44 38 44 18 0 -5 -11 -34
-25 -65 -30 -69 -31 -72 -4 -87 19 -10 26 -7 53 21 26 27 27 30 7 20 -40 -20
-46 2 -17 59 30 62 26 85 -15 76 -24 -5 -29 -3 -30 12 -3 75 -28 93 -128 93
-42 0 -83 -5 -91 -10z m135 -10 c37 -14 45 -46 28 -104 -19 -63 -49 -103 -95
-127 -75 -39 -104 -22 -73 43 12 25 25 57 28 70 4 13 14 42 24 64 9 21 18 42
19 47 1 4 2 9 3 12 2 8 38 6 66 -5z"/>
<path d="M6680 4360 c-9 -16 -9 -25 -1 -33 16 -16 46 4 46 29 0 27 -31 29 -45
4z"/>
<path d="M3027 4355 c-4 -8 -2 -17 4 -21 12 -7 41 15 33 27 -8 14 -31 11 -37
-6z"/>
<path d="M3437 4364 c-14 -14 -7 -35 11 -32 9 2 17 10 17 17 0 16 -18 25 -28
15z"/>
<path d="M1983 4304 c-8 -21 13 -42 28 -27 13 13 5 43 -11 43 -6 0 -13 -7 -17
-16z"/>
<path d="M5894 4295 c-4 -9 -19 -15 -42 -15 -34 0 -35 -1 -16 -14 26 -20 8
-50 -35 -54 -35 -4 -38 3 -13 31 16 19 16 20 -4 9 -26 -14 -51 -51 -69 -101
l-13 -38 34 -12 c27 -10 38 -9 64 4 16 8 30 17 30 18 0 1 -15 2 -32 2 -27 0
-34 4 -36 23 -5 31 23 51 71 52 32 0 41 5 55 30 17 30 42 41 42 18 0 -7 -9
-33 -20 -57 -27 -58 -26 -87 2 -94 12 -4 22 -5 23 -4 0 1 14 18 30 37 17 19
21 27 9 17 -19 -15 -54 -24 -54 -12 0 2 9 27 20 55 11 28 20 60 20 71 0 18 -4
20 -31 14 -28 -6 -30 -5 -24 14 7 24 -3 29 -11 6z"/>
<path d="M2980 4236 c-18 -43 -40 -113 -40 -128 0 -11 42 -9 60 2 13 8 12 10
-3 10 -20 0 -18 23 7 84 9 21 16 47 16 57 0 33 -20 20 -40 -25z"/>
<path d="M3081 4271 c-9 -6 -10 -10 -1 -13 8 -2 4 -24 -14 -72 -31 -82 -31
-82 -5 -89 21 -6 25 0 33 45 5 31 49 93 72 102 20 8 18 -19 -6 -83 -12 -29
-19 -56 -16 -58 12 -12 34 8 54 49 31 64 68 106 82 92 8 -8 6 -25 -9 -65 -12
-30 -21 -60 -21 -66 0 -15 46 -17 55 -3 3 6 1 10 -6 10 -15 0 -3 64 18 96 17
27 9 64 -15 64 -9 0 -28 -9 -42 -20 -30 -24 -40 -25 -40 -5 0 26 -30 29 -60 6
-36 -26 -40 -26 -40 -1 0 21 -16 26 -39 11z"/>
<path d="M3395 4263 c-9 -24 -55 -156 -55 -160 0 -8 60 -2 65 7 3 6 0 10 -8
10 -14 0 -16 27 -4 47 6 10 36 101 37 111 0 11 -29 -2 -35 -15z"/>
<path d="M3535 4270 c-3 -6 1 -7 10 -4 11 5 18 0 22 -15 6 -22 27 -28 38 -11
4 6 1 17 -5 25 -14 17 -56 20 -65 5z"/>
<path d="M3915 4260 c17 -19 16 -21 -9 -69 -33 -63 -33 -78 0 -93 20 -10 27
-9 34 2 5 9 5 17 -1 21 -7 4 -5 28 6 72 19 74 15 87 -22 87 -25 0 -26 -1 -8
-20z"/>
<path d="M4021 4271 c-9 -6 -10 -10 -2 -12 12 -4 3 -37 -33 -121 -26 -60 5
-49 44 15 48 78 69 98 97 91 19 -5 23 -2 23 15 0 26 -16 27 -57 1 -33 -20 -33
-20 -33 0 0 21 -16 26 -39 11z"/>
<path d="M4234 4265 c18 -14 19 -18 7 -53 -8 -20 -19 -44 -26 -52 -20 -23 -1
-60 30 -60 26 0 35 15 13 22 -9 3 -6 20 9 63 26 68 18 95 -25 95 -26 -1 -26
-1 -8 -15z"/>
<path d="M4926 4273 c-14 -4 -16 -7 -6 -13 10 -6 7 -23 -14 -80 -15 -40 -24
-75 -21 -78 6 -6 45 28 45 39 0 15 60 97 75 102 24 10 24 -5 3 -71 -12 -34
-18 -65 -15 -69 8 -7 58 44 55 55 -4 11 46 81 61 87 25 10 25 -4 3 -68 -12
-34 -22 -65 -22 -69 0 -11 42 -9 60 2 13 8 12 10 -2 10 -23 0 -22 8 2 65 36
84 19 114 -44 76 l-35 -22 -11 21 c-13 25 -25 25 -60 0 l-29 -20 -6 20 c-3 11
-9 19 -13 19 -4 -1 -16 -4 -26 -6z"/>
<path d="M5231 4271 c-9 -6 -10 -11 -2 -15 7 -5 2 -29 -14 -75 -29 -79 -29
-81 -12 -81 7 0 20 15 29 33 26 54 77 117 94 117 18 0 16 -19 -7 -97 -15 -49
-10 -58 27 -49 25 7 25 8 8 21 -18 13 -18 15 8 68 22 46 25 58 14 72 -15 21
-43 14 -84 -20 l-28 -24 4 30 c4 30 -9 38 -37 20z"/>
<path d="M5512 4263 c18 -20 14 -33 -17 -51 -18 -10 -18 -11 -2 -12 10 0 31 7
47 15 24 13 28 19 21 38 -5 14 -18 23 -37 25 -27 4 -28 3 -12 -15z"/>
<path d="M5618 4272 c-33 -7 -27 -28 9 -29 19 -1 37 -4 40 -7 4 -3 -13 -23
-38 -44 -24 -20 -56 -48 -72 -62 l-28 -25 28 -1 c15 0 44 -4 64 -8 33 -7 38
-5 59 24 l23 33 -24 -16 c-24 -15 -89 -13 -89 3 0 14 27 19 39 7 8 -8 11 -8
11 0 0 6 -5 13 -12 15 -6 2 6 17 27 34 47 36 78 65 73 69 -6 5 -93 11 -110 7z"/>
<path d="M1300 4251 c0 -30 11 -51 26 -51 17 0 17 -1 3 39 -12 34 -29 42 -29
12z"/>
<path d="M4813 4223 c-11 -27 -23 -63 -27 -81 -5 -28 -2 -34 17 -41 31 -12 54
7 30 24 -15 11 -16 15 -3 30 8 10 13 19 11 19 -2 1 2 19 8 41 14 51 14 55 -3
55 -7 0 -23 -21 -33 -47z"/>
<path d="M5442 4237 c-40 -41 -57 -88 -43 -116 16 -28 45 -34 81 -16 37 19 38
24 5 17 -14 -2 -32 1 -40 8 -22 18 -19 51 5 57 20 5 28 23 10 23 -17 0 -11 18
12 40 12 11 17 20 12 20 -6 0 -24 -15 -42 -33z"/>
<path d="M6036 4248 c-9 -12 -16 -27 -16 -32 0 -5 -8 -18 -17 -29 -10 -11 -13
-17 -6 -14 8 5 10 -4 6 -32 -4 -32 -2 -39 15 -43 27 -7 53 8 34 21 -12 7 -11
19 2 70 9 35 16 67 16 72 0 16 -19 9 -34 -13z"/>
<path d="M3483 4238 c-50 -56 -59 -121 -19 -140 21 -9 31 -7 58 11 l33 22 -29
-7 c-21 -5 -32 -2 -41 10 -16 21 -4 79 21 107 9 10 13 19 7 19 -5 0 -19 -10
-30 -22z"/>
<path d="M3840 4245 c-13 -16 -5 -38 13 -32 13 4 20 47 8 47 -5 0 -14 -7 -21
-15z"/>
<path d="M4164 4245 c-3 -8 -3 -19 1 -25 11 -18 25 -11 25 15 0 27 -17 34 -26
10z"/>
<path d="M2375 4200 c-3 -5 -5 -10 -3 -10 2 -1 43 -3 91 -6 103 -7 152 6 67
17 -82 11 -148 10 -155 -1z"/>
<path d="M3840 4183 c-28 -10 -50 -36 -50 -58 0 -30 27 -39 56 -20 29 19 31
29 5 20 -30 -9 -34 22 -4 45 25 20 23 24 -7 13z"/>
<path d="M4130 4160 c-26 -26 -25 -46 1 -61 18 -9 25 -7 43 11 18 19 18 22 3
17 -22 -8 -34 18 -17 38 19 23 -6 19 -30 -5z"/>
<path d="M6107 4133 c-14 -13 -6 -33 13 -33 13 0 20 7 20 20 0 19 -20 27 -33
13z"/>
<path d="M2870 4085 c0 -8 5 -15 10 -15 6 0 10 7 10 15 0 8 -4 15 -10 15 -5 0
-10 -7 -10 -15z"/>
<path d="M4450 4013 c0 -22 2 -25 10 -13 13 20 13 40 0 40 -5 0 -10 -12 -10
-27z"/>
<path d="M3940 4016 c0 -7 7 -19 15 -26 12 -10 16 -9 21 3 3 9 3 21 -1 27 -9
15 -35 12 -35 -4z"/>
<path d="M7222 4004 c2 -15 9 -29 16 -32 10 -3 13 4 10 24 -2 15 -9 29 -16 32
-10 3 -13 -4 -10 -24z"/>
<path d="M7474 4015 c-9 -23 14 -45 26 -25 5 8 8 19 7 24 -6 17 -27 18 -33 1z"/>
<path d="M3545 4009 c-5 -7 -1 -17 10 -26 23 -16 27 -16 51 2 18 14 18 14 -6
15 -15 0 -31 5 -37 11 -8 8 -13 7 -18 -2z"/>
<path d="M2895 3991 c-17 -16 -28 -18 -72 -12 -29 4 -56 5 -60 2 -5 -3 -19
-26 -32 -51 -18 -36 -22 -56 -18 -90 26 -220 27 -223 53 -257 16 -21 32 -32
40 -29 41 16 105 16 151 1 45 -15 54 -15 94 -1 24 9 52 16 61 16 9 0 29 18 45
39 24 34 35 41 77 47 98 13 117 67 71 204 -38 114 -54 129 -149 143 -76 11
-79 11 -93 -10 l-15 -22 -39 19 c-48 25 -89 25 -114 1z m155 -226 c0 -8 -4
-15 -10 -15 -5 0 -10 7 -10 15 0 8 5 15 10 15 6 0 10 -7 10 -15z"/>
<path d="M3770 3980 c0 -5 5 -10 11 -10 5 0 7 5 4 10 -3 6 -8 10 -11 10 -2 0
-4 -4 -4 -10z"/>
<path d="M6196 3954 c-10 -25 4 -37 20 -17 17 23 17 33 0 33 -8 0 -17 -7 -20
-16z"/>
<path d="M6833 3948 c-5 -7 -27 -30 -49 -51 l-41 -38 -52 17 c-43 14 -56 14
-82 4 -23 -10 -33 -10 -42 -1 -34 34 -68 -9 -47 -63 15 -41 3 -50 -37 -26 -46
27 -63 14 -63 -49 0 -50 19 -94 68 -162 18 -24 32 -48 32 -55 0 -17 23 -24
105 -31 68 -5 74 -4 85 16 6 13 25 27 41 33 27 9 29 14 24 39 -5 21 -3 29 7
29 22 -1 46 -25 50 -50 5 -36 35 -38 49 -3 11 27 31 137 29 158 -1 6 -4 44 -7
85 -3 50 -10 78 -19 83 -8 4 -14 23 -14 42 0 36 -20 48 -37 23z"/>
<path d="M7467 3886 c-4 -10 -5 -21 -2 -24 9 -9 17 6 13 25 -3 17 -4 17 -11
-1z"/>
<path d="M7451 3824 c0 -11 3 -14 6 -6 3 7 2 16 -1 19 -3 4 -6 -2 -5 -13z"/>
<path d="M7400 3732 c0 -26 11 -34 27 -21 20 17 16 39 -7 39 -13 0 -20 -7 -20
-18z"/>
<path d="M2685 3691 c-6 -11 9 -23 19 -14 9 9 7 23 -3 23 -6 0 -12 -4 -16 -9z"/>
<path d="M7071 3613 c1 -44 3 -52 9 -33 12 36 12 90 0 90 -6 0 -10 -25 -9 -57z"/>
<path d="M4455 3598 c-8 -32 -2 -163 8 -163 10 0 16 175 5 181 -4 3 -10 -6
-13 -18z"/>
<path d="M5960 3575 c0 -40 -3 -45 -22 -46 -17 -1 -18 -3 -6 -6 12 -3 18 -17
20 -45 2 -23 8 -43 13 -45 6 -2 10 34 11 92 1 52 -2 95 -7 95 -5 0 -9 -20 -9
-45z"/>
<path d="M4363 3593 c-16 -6 -18 -153 -3 -153 6 0 10 14 10 30 0 26 4 30 28
31 l27 1 -25 11 c-20 9 -24 18 -22 41 3 25 6 28 32 22 23 -4 28 -2 23 9 -5 14
-44 19 -70 8z"/>
<path d="M5120 3521 c0 -47 4 -81 10 -81 6 0 10 1 10 3 12 90 10 134 -4 146
-14 12 -16 5 -16 -68z"/>
<path d="M5606 3592 c-2 -4 -6 -39 -7 -77 -3 -81 9 -97 57 -74 42 20 40 59 -3
79 -22 10 -33 22 -33 38 0 28 30 30 37 2 7 -26 23 -26 23 0 0 26 -61 53 -74
32z m52 -91 c21 -13 10 -46 -16 -49 -19 -3 -22 1 -22 27 0 31 13 39 38 22z"/>
<path d="M4885 3581 c-3 -5 -1 -12 5 -16 5 -3 10 1 10 9 0 18 -6 21 -15 7z"/>
<path d="M5265 3581 c-3 -5 -1 -12 5 -16 5 -3 10 1 10 9 0 18 -6 21 -15 7z"/>
<path d="M5720 3574 c0 -8 5 -12 10 -9 6 4 8 11 5 16 -9 14 -15 11 -15 -7z"/>
<path d="M4626 3559 c-10 -35 -3 -125 9 -120 6 1 8 8 7 15 -12 38 -11 56 5 65
13 7 15 13 7 18 -7 5 -14 17 -16 28 -4 18 -6 17 -12 -6z"/>
<path d="M4502 3493 c1 -52 15 -69 38 -48 12 11 20 13 25 6 3 -6 13 -11 21
-11 12 0 12 4 4 20 -6 12 -8 29 -5 40 3 10 1 21 -4 25 -6 3 -14 -9 -19 -27 -4
-18 -16 -34 -25 -36 -13 -3 -15 3 -10 32 4 29 2 36 -10 36 -12 0 -16 -9 -15
-37z"/>
<path d="M4686 3490 c1 -48 17 -71 36 -52 10 10 10 15 1 20 -6 4 -13 20 -15
36 -5 45 -23 42 -22 -4z"/>
<path d="M4749 3518 c0 -7 -2 -23 -5 -35 -3 -18 23 -62 30 -51 7 9 -7 98 -15
98 -5 0 -9 -6 -10 -12z"/>
<path d="M4803 3483 c0 -24 4 -43 8 -43 11 0 22 38 14 50 -3 5 6 12 20 16 36
9 31 22 -9 21 -34 -1 -34 -2 -33 -44z"/>
<path d="M4880 3487 c0 -43 6 -60 19 -53 10 6 0 96 -10 96 -5 0 -9 -19 -9 -43z"/>
<path d="M5180 3485 c0 -53 12 -59 25 -12 7 22 17 33 33 35 19 3 22 -1 22 -32
0 -19 4 -37 8 -40 6 -4 8 55 3 84 -2 11 -45 9 -58 -2 -9 -7 -13 -7 -13 1 0 6
-4 11 -10 11 -5 0 -10 -20 -10 -45z"/>
<path d="M5310 3484 c0 -52 21 -58 30 -8 7 42 35 39 34 -3 -1 -22 3 -33 12
-33 20 0 19 79 -1 86 -8 4 -22 1 -29 -5 -10 -8 -16 -9 -21 -1 -14 23 -25 7
-25 -36z"/>
<path d="M5469 3516 c7 -9 11 -25 8 -36 -3 -11 2 -27 10 -36 20 -20 22 -17 14
36 -4 34 -11 46 -26 49 -17 3 -18 1 -6 -13z"/>
<path d="M5710 3485 c0 -29 4 -45 13 -45 8 0 11 14 9 45 -2 25 -8 45 -13 45
-5 0 -9 -20 -9 -45z"/>
<path d="M5768 3485 c4 -49 17 -52 27 -5 9 43 35 39 35 -5 0 -22 5 -35 13 -35
9 0 11 12 9 40 -5 46 -14 55 -41 40 -13 -7 -22 -7 -26 0 -13 22 -20 8 -17 -35z"/>
<path d="M6055 3514 c9 -9 18 -14 21 -11 9 9 -6 27 -22 27 -13 0 -13 -2 1 -16z"/>
<path d="M6102 3483 c0 -24 4 -43 9 -43 12 0 23 46 14 60 -3 6 -3 10 2 9 20
-3 43 2 43 10 0 5 -16 9 -35 8 -34 -1 -34 -2 -33 -44z"/>
<path d="M7050 3509 c0 -11 5 -17 10 -14 6 3 10 13 10 21 0 8 -4 14 -10 14 -5
0 -10 -9 -10 -21z"/>
<path d="M5892 3508 c-26 -26 -1 -91 28 -73 15 10 12 25 -6 25 -12 0 -15 7
-12 30 3 17 4 30 3 30 0 0 -6 -5 -13 -12z"/>
<path d="M6007 3503 c-13 -12 -7 -40 13 -58 11 -10 23 -15 27 -11 4 4 2 11 -5
15 -7 4 -14 18 -17 31 -5 27 -9 32 -18 23z"/>
<path d="M5015 3480 c27 -12 35 -12 35 0 0 6 -12 10 -27 9 -25 0 -26 -1 -8 -9z"/>
<path d="M7311 3458 c-8 -18 -23 -45 -33 -60 -11 -16 -15 -28 -9 -28 12 0 56
65 66 98 10 34 -8 26 -24 -10z"/>
<path d="M5426 3462 c-7 -12 22 -38 31 -28 4 3 0 14 -9 22 -9 10 -18 12 -22 6z"/>
<path d="M1620 3336 c-12 -34 -13 -83 -1 -90 13 -9 34 95 22 107 -7 7 -14 1
-21 -17z"/>
<path d="M3896 3301 c-4 -7 -5 -15 -2 -18 9 -9 19 4 14 18 -4 11 -6 11 -12 0z"/>
<path d="M1300 3255 c0 -8 5 -15 10 -15 6 0 10 7 10 15 0 8 -4 15 -10 15 -5 0
-10 -7 -10 -15z"/>
<path d="M7018 3230 c-5 -33 15 -70 37 -70 20 0 29 54 13 79 -19 31 -45 27
-50 -9z"/>
<path d="M2740 3176 c0 -24 12 -46 21 -40 15 9 10 54 -6 54 -8 0 -15 -6 -15
-14z"/>
<path d="M5671 3144 c-13 -30 -15 -91 -2 -99 11 -6 31 55 31 92 0 32 -15 36
-29 7z"/>
<path d="M3364 3125 c-17 -26 -12 -45 11 -45 16 0 35 30 35 54 0 24 -28 19
-46 -9z"/>
<path d="M1538 3128 c-7 -18 2 -39 13 -32 12 7 12 44 0 44 -5 0 -11 -6 -13
-12z"/>
<path d="M6080 3120 c0 -19 3 -21 12 -12 9 9 9 15 0 24 -9 9 -12 7 -12 -12z"/>
<path d="M7303 3103 c-18 -6 -16 -23 1 -23 17 0 30 16 19 23 -5 2 -14 2 -20 0z"/>
<path d="M7573 3095 c-3 -9 -3 -18 0 -21 9 -9 27 6 27 22 0 19 -19 18 -27 -1z"/>
<path d="M4606 3018 c-28 -79 -30 -88 -18 -88 9 0 56 149 50 156 -3 2 -17 -28
-32 -68z"/>
<path d="M6597 3084 c-8 -8 1 -24 14 -24 5 0 9 7 9 15 0 15 -12 20 -23 9z"/>
<path d="M5977 3073 c-13 -12 -7 -63 7 -63 19 0 28 28 16 51 -12 21 -14 22
-23 12z"/>
<path d="M2860 2990 c-6 -11 -7 -20 -2 -20 10 0 32 21 32 32 0 16 -19 8 -30
-12z"/>
<path d="M3861 2974 c0 -11 3 -14 6 -6 3 7 2 16 -1 19 -3 4 -6 -2 -5 -13z"/>
<path d="M3185 2949 c-4 -6 -5 -13 -2 -16 7 -7 27 6 27 18 0 12 -17 12 -25 -2z"/>
<path d="M3848 2915 c-16 -25 -45 -115 -39 -120 12 -7 53 82 49 107 -2 13 -6
18 -10 13z"/>
<path d="M1540 2880 c0 -32 14 -40 24 -14 10 27 7 44 -9 44 -10 0 -15 -10 -15
-30z"/>
<path d="M5500 2860 c0 -5 5 -10 10 -10 6 0 10 5 10 10 0 6 -4 10 -10 10 -5 0
-10 -4 -10 -10z"/>
<path d="M3555 2850 c-7 -12 2 -30 16 -30 5 0 9 9 9 20 0 21 -15 27 -25 10z"/>
<path d="M6120 2840 c0 -11 5 -20 10 -20 6 0 10 9 10 20 0 11 -4 20 -10 20 -5
0 -10 -9 -10 -20z"/>
<path d="M5722 2839 c2 -6 8 -10 13 -10 5 0 11 4 13 10 2 6 -4 11 -13 11 -9 0
-15 -5 -13 -11z"/>
<path d="M1054 2795 c-4 -8 -12 -15 -20 -15 -8 0 -14 -4 -14 -10 0 -13 17 -13
25 0 4 6 11 8 16 5 14 -9 29 4 22 20 -7 19 -22 19 -29 0z"/>
<path d="M3781 2773 c-7 -8 -11 -16 -8 -19 2 -2 10 2 17 11 17 20 9 27 -9 8z"/>
<path d="M7756 2768 c-20 -32 -31 -78 -17 -78 11 0 24 21 41 64 12 34 -5 44
-24 14z"/>
<path d="M3556 2753 c-12 -12 -6 -33 9 -33 8 0 15 6 15 14 0 17 -14 28 -24 19z"/>
<path d="M6500 2740 c0 -11 5 -20 10 -20 6 0 10 9 10 20 0 11 -4 20 -10 20 -5
0 -10 -9 -10 -20z"/>
<path d="M2512 2707 c-17 -18 -34 -45 -38 -60 -3 -16 -13 -31 -20 -34 -20 -7
-76 22 -92 46 -19 31 -46 26 -68 -14 -16 -29 -16 -39 -6 -68 7 -18 12 -42 12
-53 1 -24 39 -70 66 -78 13 -4 26 -1 34 9 10 12 10 15 -4 15 -10 0 -14 5 -11
10 3 6 21 10 39 10 26 0 38 7 52 28 10 15 24 33 31 40 8 8 11 23 7 38 -4 17 2
36 20 64 44 67 29 100 -22 47z"/>
<path d="M1580 2720 c0 -5 7 -10 15 -10 8 0 15 5 15 10 0 6 -7 10 -15 10 -8 0
-15 -4 -15 -10z"/>
<path d="M3701 2704 c-13 -7 -30 -26 -37 -43 -13 -30 -52 -50 -73 -36 -6 3
-12 18 -12 33 -2 25 -2 25 -6 4 -5 -26 30 -72 54 -72 8 0 27 10 42 21 29 21
51 19 51 -5 0 -8 7 -19 15 -26 18 -15 20 -60 2 -60 -6 0 -27 4 -45 9 -18 6
-40 7 -48 4 -17 -6 -19 -44 -2 -61 17 -17 73 -15 88 3 28 34 61 5 40 -35 -20
-38 -5 -67 37 -73 33 -4 41 -1 64 25 14 17 33 29 45 28 33 -4 39 -1 51 28 9
19 10 49 4 103 -14 125 -56 176 -106 129 -21 -19 -28 -21 -55 -12 -31 11 -60
7 -60 -9 0 -15 -30 -10 -36 6 -4 8 -1 22 6 30 17 21 10 24 -19 9z"/>
<path d="M1760 2685 c0 -9 5 -15 11 -13 6 2 11 8 11 13 0 5 -5 11 -11 13 -6 2
-11 -4 -11 -13z"/>
<path d="M6770 2654 c0 -17 22 -14 28 4 2 7 -3 12 -12 12 -9 0 -16 -7 -16 -16z"/>
<path d="M5312 2643 c-6 -10 -10 -35 -9 -56 1 -34 2 -37 14 -20 6 10 19 26 28
35 9 9 15 25 13 35 -4 24 -34 28 -46 6z"/>
<path d="M8135 2620 c-18 -20 -13 -60 9 -60 19 0 56 44 48 56 -14 21 -40 23
-57 4z"/>
<path d="M7780 2615 c0 -8 5 -15 10 -15 6 0 10 7 10 15 0 8 -4 15 -10 15 -5 0
-10 -7 -10 -15z"/>
<path d="M3045 2586 c-11 -8 -16 -19 -12 -30 11 -27 37 -31 60 -8 17 17 18 23
7 36 -15 20 -31 20 -55 2z"/>
<path d="M3146 2584 c-9 -23 -8 -24 13 -24 21 0 45 23 34 33 -12 13 -41 7 -47
-9z"/>
<path d="M1320 2553 c0 -15 5 -35 10 -43 7 -11 10 -6 10 22 0 20 -4 40 -10 43
-6 4 -10 -6 -10 -22z"/>
<path d="M6490 2544 c0 -8 5 -12 10 -9 6 3 10 10 10 16 0 5 -4 9 -10 9 -5 0
-10 -7 -10 -16z"/>
<path d="M590 2535 c0 -8 5 -15 10 -15 6 0 10 7 10 15 0 8 -4 15 -10 15 -5 0
-10 -7 -10 -15z"/>
<path d="M1910 2535 c0 -8 7 -15 15 -15 8 0 15 7 15 15 0 8 -7 15 -15 15 -8 0
-15 -7 -15 -15z"/>
<path d="M4561 2489 c-51 -55 -131 -212 -131 -257 0 -19 9 -47 20 -62 11 -16
23 -42 26 -59 9 -42 30 -58 55 -43 29 19 36 -12 15 -67 -34 -89 -32 -100 8
-48 21 27 42 60 48 73 15 31 26 30 64 -7 l32 -31 40 21 c23 12 50 21 60 21 11
0 31 6 44 13 36 19 148 120 146 132 -2 5 8 25 20 42 32 45 22 54 -45 46 -43
-5 -54 -3 -49 6 12 18 -53 118 -83 130 -14 5 -42 13 -61 18 -22 6 -36 16 -39
28 -6 33 -55 75 -94 82 -32 5 -39 1 -76 -38z"/>
<path d="M3075 2481 c-3 -5 -1 -12 5 -16 5 -3 10 1 10 9 0 18 -6 21 -15 7z"/>
<path d="M6711 2471 c-13 -24 -14 -61 -1 -81 15 -24 33 3 34 51 1 46 -16 62
-33 30z"/>
<path d="M2687 2473 c-4 -3 -7 -19 -7 -34 0 -22 4 -26 20 -22 14 4 20 14 20
34 0 27 -17 39 -33 22z"/>
<path d="M2452 2430 c0 -14 2 -19 5 -12 2 6 2 18 0 25 -3 6 -5 1 -5 -13z"/>
<path d="M6210 2413 c0 -34 1 -36 16 -21 10 10 14 23 9 37 -10 34 -25 24 -25
-16z"/>
<path d="M3662 2418 c5 -15 58 -24 58 -10 0 11 -24 22 -47 22 -8 0 -13 -6 -11
-12z"/>
<path d="M1610 2401 c0 -5 3 -17 6 -26 5 -13 8 -14 15 -3 13 20 11 38 -6 38
-8 0 -15 -4 -15 -9z"/>
<path d="M2456 2338 c-5 -21 -5 -46 -1 -55 6 -17 7 -17 21 1 16 22 19 56 5 56
-5 0 -11 8 -14 18 -2 10 -7 2 -11 -20z"/>
<path d="M6147 2356 c-31 -24 -51 -126 -24 -126 7 0 20 24 29 53 9 28 20 60
23 70 8 20 -3 22 -28 3z"/>
<path d="M6246 2329 c-16 -39 -14 -59 4 -59 11 0 40 64 40 86 0 29 -29 12 -44
-27z"/>
<path d="M1714 2333 c-9 -15 -15 -16 -53 -4 -36 10 -46 10 -66 -3 -30 -19 -39
-49 -25 -76 14 -26 7 -36 -30 -43 -39 -8 -57 -44 -42 -86 9 -24 7 -35 -6 -53
-30 -41 -43 -69 -36 -79 3 -5 1 -16 -5 -23 -8 -9 -7 -22 4 -47 46 -101 48
-103 125 -141 l75 -36 3 25 c2 13 9 26 16 29 17 7 126 -43 126 -58 0 -6 9 -3
19 6 11 10 24 15 30 12 25 -16 79 45 73 81 -2 7 11 19 27 27 67 35 93 111 68
198 -9 29 -22 84 -28 121 -21 110 -69 142 -142 93 -19 -13 -43 -26 -54 -28
-10 -2 -18 -12 -18 -22 0 -11 -5 -21 -12 -23 -19 -7 -27 45 -13 73 10 18 11
30 2 49 -14 29 -23 31 -38 8z"/>
<path d="M596 2333 c-12 -12 -6 -33 9 -33 8 0 15 6 15 14 0 17 -14 28 -24 19z"/>
<path d="M2963 2330 c-20 -8 -23 -17 -23 -59 0 -50 0 -50 -25 -41 -49 19 -106
-23 -87 -64 11 -26 7 -35 -27 -57 -22 -14 -24 -22 -25 -107 -1 -82 1 -92 17
-92 9 0 22 -11 28 -24 20 -42 48 -50 98 -25 l44 21 22 -28 c25 -31 50 -28 64
9 12 31 37 51 56 43 11 -4 20 3 28 22 17 39 34 54 56 47 13 -4 26 4 45 30 18
23 35 35 51 35 26 0 75 19 75 29 0 3 -14 15 -31 26 -28 18 -55 52 -47 60 4 4
39 8 65 6 16 -1 23 -8 25 -28 2 -17 10 -29 21 -31 24 -5 21 21 -8 64 -14 20
-25 45 -25 55 0 28 -46 75 -91 93 -37 15 -43 15 -76 0 -19 -10 -37 -23 -40
-31 -8 -21 -24 -15 -59 22 -26 29 -39 35 -70 34 -22 0 -49 -4 -61 -9z"/>
<path d="M5507 2302 c-23 -26 -21 -31 11 -29 19 2 27 8 27 21 0 27 -18 30 -38
8z"/>
<path d="M495 2301 c-3 -5 -1 -12 5 -16 5 -3 10 1 10 9 0 18 -6 21 -15 7z"/>
<path d="M2647 2303 c-11 -10 -8 -51 3 -58 6 -4 10 8 10 29 0 37 -2 41 -13 29z"/>
<path d="M6340 2285 c-8 -9 -8 -15 -2 -15 12 0 26 19 19 26 -2 2 -10 -2 -17
-11z"/>
<path d="M5080 2260 c0 -24 36 -63 53 -57 17 5 21 45 7 63 -19 22 -60 18 -60
-6z"/>
<path d="M2461 2244 c0 -11 3 -14 6 -6 3 7 2 16 -1 19 -3 4 -6 -2 -5 -13z"/>
<path d="M6750 2249 c0 -5 5 -7 10 -4 6 3 10 8 10 11 0 2 -4 4 -10 4 -5 0 -10
-5 -10 -11z"/>
<path d="M7437 2254 c-4 -4 -7 -14 -7 -23 0 -11 3 -12 11 -4 6 6 10 16 7 23
-2 6 -7 8 -11 4z"/>
<path d="M6240 2163 c0 -21 12 -43 24 -43 12 0 56 41 56 52 0 3 -18 5 -40 4
-24 0 -40 -6 -40 -13z"/>
<path d="M2450 2151 c0 -5 5 -13 10 -16 6 -3 10 -2 10 4 0 5 -4 13 -10 16 -5
3 -10 2 -10 -4z"/>
<path d="M6676 2136 c3 -9 11 -16 16 -16 13 0 5 23 -10 28 -7 2 -10 -2 -6 -12z"/>
<path d="M6720 2135 c0 -8 5 -15 10 -15 6 0 10 7 10 15 0 8 -4 15 -10 15 -5 0
-10 -7 -10 -15z"/>
<path d="M7374 2136 c-14 -11 -36 -13 -80 -9 -40 4 -64 2 -68 -6 -10 -16 -46
-14 -52 4 -10 25 -43 17 -63 -16 -10 -17 -28 -37 -38 -44 -11 -8 -33 -49 -48
-91 -26 -72 -27 -81 -17 -134 7 -31 12 -66 12 -78 0 -12 11 -29 26 -39 24 -16
27 -16 38 -1 11 15 14 15 27 -4 8 -11 22 -31 32 -43 9 -13 17 -30 17 -38 0 -9
5 -19 10 -22 6 -3 10 1 10 9 0 10 8 15 22 13 17 -1 24 5 29 28 5 24 7 27 13
13 10 -22 26 -24 26 -3 0 19 56 21 64 3 3 -7 3 -3 0 10 -5 22 -3 23 28 17 27
-5 43 1 86 30 30 19 57 35 62 35 4 0 10 7 14 15 3 8 10 15 17 15 6 0 20 10 31
23 18 20 19 20 13 2 -16 -46 -17 -56 -1 -80 21 -31 29 -31 46 -1 10 20 10 31
1 54 -9 21 -10 40 -3 65 8 27 7 40 -4 54 -7 10 -14 24 -14 32 0 7 -20 44 -45
82 -31 46 -51 66 -60 62 -8 -3 -15 -9 -15 -14 0 -5 -9 -9 -20 -9 -12 0 -30 16
-46 40 -15 22 -27 40 -28 40 -1 0 -11 -6 -22 -14z m-169 -157 c6 -19 0 -38 -9
-28 -10 12 -16 49 -7 49 5 0 13 -9 16 -21z"/>
<path d="M2450 2041 c-8 -25 -10 -50 -5 -68 5 -15 8 -45 7 -66 -2 -37 27 -109
49 -122 19 -12 24 6 6 20 -14 10 -19 26 -19 62 1 26 -6 58 -14 71 -15 23 -7
56 16 64 12 4 -6 78 -19 78 -4 0 -14 -18 -21 -39z"/>
<path d="M4985 2060 c4 -6 11 -8 16 -5 14 9 11 15 -7 15 -8 0 -12 -5 -9 -10z"/>
<path d="M6520 2014 c0 -17 22 -14 28 4 2 7 -3 12 -12 12 -9 0 -16 -7 -16 -16z"/>
<path d="M2700 1985 c-9 -11 -9 -22 0 -50 15 -46 30 -36 30 21 0 46 -9 54 -30
29z"/>
<path d="M6147 1979 c-19 -26 -14 -39 14 -39 26 0 36 28 17 47 -14 13 -17 12
-31 -8z"/>
<path d="M3574 1943 c-11 -27 -20 -51 -22 -55 -2 -5 1 -8 7 -8 12 0 51 72 51
95 0 30 -18 14 -36 -32z"/>
<path d="M4610 1960 c0 -11 7 -20 15 -20 8 0 15 6 15 14 0 8 -7 16 -15 20 -10
4 -15 -1 -15 -14z"/>
<path d="M4671 1966 c-7 -9 -11 -39 -9 -78 2 -49 7 -63 20 -66 31 -6 44 89 19
137 -14 25 -15 25 -30 7z"/>
<path d="M3470 1930 c0 -19 3 -21 12 -12 9 9 9 15 0 24 -9 9 -12 7 -12 -12z"/>
<path d="M4933 1918 c-20 -25 -23 -64 -11 -135 7 -40 15 -73 18 -73 3 0 11 14
17 30 6 17 15 30 21 30 5 0 22 -30 37 -67 28 -67 62 -125 77 -131 4 -2 8 -13
8 -23 0 -11 5 -29 11 -41 14 -27 2 -36 -16 -12 -13 17 -14 14 -12 -33 2 -47 5
-53 23 -53 15 0 24 8 28 25 9 35 -11 115 -38 150 -24 31 -75 170 -96 263 -16
70 -44 99 -67 70z"/>
<path d="M5460 1904 c0 -8 5 -12 10 -9 6 3 10 10 10 16 0 5 -4 9 -10 9 -5 0
-10 -7 -10 -16z"/>
<path d="M4037 1904 c-8 -8 1 -24 14 -24 5 0 9 7 9 15 0 15 -12 20 -23 9z"/>
<path d="M4490 1875 c-7 -14 -10 -28 -7 -31 4 -4 11 6 17 21 14 36 7 42 -10
10z"/>
<path d="M2220 1850 c0 -11 5 -20 10 -20 6 0 10 9 10 20 0 11 -4 20 -10 20 -5
0 -10 -9 -10 -20z"/>
<path d="M3410 1820 c-8 -5 -25 -10 -37 -10 -20 0 -23 -5 -23 -38 0 -49 8 -57
30 -29 15 19 51 87 47 87 -1 0 -9 -5 -17 -10z"/>
<path d="M5966 1798 c-9 -12 -16 -28 -16 -35 0 -7 -10 -18 -22 -24 -30 -16
-29 -14 -22 -33 6 -15 9 -15 30 5 13 12 29 19 37 16 11 -4 16 5 21 31 11 69 1
82 -28 40z"/>
<path d="M4446 1792 c-3 -6 -1 -14 5 -17 15 -10 25 3 12 16 -7 7 -13 7 -17 1z"/>
<path d="M5608 1745 c-24 -14 -27 -21 -33 -102 -4 -49 -9 -91 -11 -95 -6 -9
-64 11 -85 28 -37 32 -141 1 -158 -46 -13 -40 1 -135 25 -161 28 -32 78 -49
154 -54 55 -4 63 -25 26 -75 -131 -181 -181 -273 -147 -269 7 0 103 120 166
206 37 51 42 54 74 51 27 -4 40 1 53 16 22 27 23 44 1 42 -10 0 -18 6 -18 14
0 10 8 14 27 12 20 -2 32 5 48 28 12 16 30 30 41 30 21 0 25 20 9 36 -14 14 3
59 23 67 24 9 15 150 -12 202 -12 21 -21 45 -21 51 0 31 -115 44 -162 19z
m-228 -320 c0 -8 -4 -15 -10 -15 -5 0 -10 7 -10 15 0 8 5 15 10 15 6 0 10 -7
10 -15z"/>
<path d="M6366 1704 c-17 -16 -20 -44 -10 -81 5 -19 9 -21 26 -12 11 6 24 24
30 40 5 16 14 29 19 29 18 0 8 17 -16 28 -32 15 -31 15 -49 -4z"/>
<path d="M1820 1685 c-1 -5 -3 -50 -4 -98 -3 -100 11 -132 58 -132 28 -1 31 6
17 33 -6 9 -23 60 -40 112 -16 52 -30 91 -31 85z"/>
<path d="M3030 1671 c0 -6 5 -13 10 -16 6 -3 10 1 10 9 0 9 -4 16 -10 16 -5 0
-10 -4 -10 -9z"/>
<path d="M5971 1664 c0 -11 3 -14 6 -6 3 7 2 16 -1 19 -3 4 -6 -2 -5 -13z"/>
<path d="M6165 1660 c-8 -26 7 -45 30 -36 21 8 16 50 -7 54 -10 2 -19 -5 -23
-18z"/>
<path d="M647 1663 c-4 -3 -7 -15 -7 -25 0 -26 24 -17 28 10 3 21 -8 29 -21
15z"/>
<path d="M4419 1618 c0 -13 -2 -38 -4 -57 -2 -22 0 -29 6 -20 5 8 9 26 9 41 0
14 5 28 12 30 6 2 8 10 4 16 -12 19 -26 14 -27 -10z"/>
<path d="M3311 1606 c-8 -10 -7 -17 3 -26 17 -13 36 -6 36 15 0 19 -27 26 -39
11z"/>
<path d="M4910 1606 c-8 -10 -10 -28 -6 -51 10 -51 24 -51 32 1 7 50 -5 74
-26 50z"/>
<path d="M6500 1579 c0 -11 5 -17 10 -14 6 3 10 13 10 21 0 8 -4 14 -10 14 -5
0 -10 -9 -10 -21z"/>
<path d="M7150 1565 c0 -8 5 -15 10 -15 6 0 10 7 10 15 0 8 -4 15 -10 15 -5 0
-10 -7 -10 -15z"/>
<path d="M1127 1554 c-8 -8 1 -24 14 -24 5 0 9 7 9 15 0 15 -12 20 -23 9z"/>
<path d="M2530 1540 c0 -5 5 -10 10 -10 6 0 10 5 10 10 0 6 -4 10 -10 10 -5 0
-10 -4 -10 -10z"/>
<path d="M680 1510 c0 -5 5 -10 10 -10 6 0 10 5 10 10 0 6 -4 10 -10 10 -5 0
-10 -4 -10 -10z"/>
<path d="M7116 1474 c-15 -45 -14 -64 4 -64 12 0 40 77 34 95 -10 26 -22 17
-38 -31z"/>
<path d="M2966 1501 c-7 -10 20 -41 35 -41 6 0 9 10 7 22 -3 24 -32 36 -42 19z"/>
<path d="M5822 1453 c4 -39 28 -42 28 -4 0 21 -5 31 -16 31 -11 0 -14 -8 -12
-27z"/>
<path d="M4376 1444 c-10 -26 5 -39 21 -19 7 11 13 22 13 27 0 15 -28 8 -34
-8z"/>
<path d="M4005 1407 c-4 -10 -5 -21 -1 -24 10 -10 18 4 13 24 -4 17 -4 17 -12
0z"/>
<path d="M4390 1386 c0 -8 4 -17 9 -20 10 -7 23 19 14 28 -11 11 -23 6 -23 -8z"/>
<path d="M5837 1377 c-18 -28 -15 -67 4 -67 14 0 21 24 17 61 l-3 33 -18 -27z"/>
<path d="M6262 1335 c-7 -17 -15 -42 -17 -56 -3 -15 -17 -52 -31 -83 -26 -58
-26 -89 3 -100 9 -4 24 1 35 11 16 14 18 26 12 89 -5 49 -3 83 6 103 6 16 10
38 8 48 -3 14 -6 11 -16 -12z"/>
<path d="M4322 1324 c-22 -15 -28 -47 -16 -91 8 -28 34 -30 34 -3 0 10 12 30
26 44 27 25 26 39 -5 55 -13 7 -24 6 -39 -5z"/>
<path d="M5890 1300 c0 -5 5 -10 10 -10 6 0 10 5 10 10 0 6 -4 10 -10 10 -5 0
-10 -4 -10 -10z"/>
<path d="M650 1285 c0 -8 7 -15 15 -15 8 0 15 7 15 15 0 8 -7 15 -15 15 -8 0
-15 -7 -15 -15z"/>
<path d="M6823 1282 c-14 -9 -58 -103 -68 -144 -7 -27 7 -39 20 -18 3 6 18 7
32 4 23 -6 25 -5 19 22 -4 20 0 38 14 59 34 51 23 102 -17 77z"/>
<path d="M4161 1246 c-16 -20 -10 -61 9 -61 18 0 25 37 12 60 -8 14 -10 15
-21 1z"/>
<path d="M4381 1224 c0 -11 3 -14 6 -6 3 7 2 16 -1 19 -3 4 -6 -2 -5 -13z"/>
<path d="M657 1194 c-8 -8 1 -24 14 -24 5 0 9 7 9 15 0 15 -12 20 -23 9z"/>
<path d="M4377 1194 c-9 -16 2 -157 13 -168 7 -7 10 -3 10 11 0 25 38 93 51
93 5 0 12 -7 15 -15 4 -8 10 -15 15 -15 5 0 9 7 9 15 0 8 3 15 8 15 7 0 42
-133 42 -163 0 -24 27 -21 33 3 6 25 -8 84 -29 123 -8 15 -14 35 -13 45 3 32
-1 42 -16 42 -8 0 -15 -9 -15 -21 0 -17 -4 -19 -22 -13 -13 4 -35 7 -50 6 -20
0 -29 6 -36 26 -4 14 -11 21 -15 16z"/>
<path d="M5194 1169 c-8 -14 21 -43 35 -35 19 12 13 46 -8 46 -11 0 -23 -5
-27 -11z"/>
<path d="M6080 1171 c0 -5 5 -13 10 -16 6 -3 10 -2 10 4 0 5 -4 13 -10 16 -5
3 -10 2 -10 -4z"/>
<path d="M5123 1154 c-8 -22 15 -43 27 -24 5 8 10 21 10 28 0 17 -30 15 -37
-4z"/>
<path d="M646 1125 c-6 -17 17 -31 34 -20 8 5 8 11 -1 21 -15 18 -25 18 -33
-1z"/>
<path d="M2765 1130 c3 -5 8 -10 11 -10 2 0 4 5 4 10 0 6 -5 10 -11 10 -5 0
-7 -4 -4 -10z"/>
<path d="M4305 1123 c-51 -7 -59 -11 -45 -28 7 -8 16 -12 21 -9 5 3 9 -2 9
-10 0 -25 22 -66 36 -66 14 0 37 71 32 97 -3 19 -12 21 -53 16z"/>
<path d="M7441 1074 c-25 -21 -34 -24 -46 -14 -7 6 -26 10 -41 8 -40 -4 -49
-47 -22 -103 21 -44 36 -50 123 -58 11 -1 25 -6 32 -10 16 -10 89 7 108 27 9
9 22 16 29 16 7 0 20 8 30 19 15 16 15 19 1 31 -9 8 -41 16 -71 18 -53 4 -55
6 -50 29 16 60 -40 82 -93 37z"/>
<path d="M1062 1073 c5 -25 28 -28 28 -4 0 12 -6 21 -16 21 -9 0 -14 -7 -12
-17z"/>
<path d="M1190 1075 c0 -8 5 -15 10 -15 6 0 10 7 10 15 0 8 -4 15 -10 15 -5 0
-10 -7 -10 -15z"/>
<path d="M4250 1051 c0 -12 5 -21 10 -21 6 0 10 6 10 14 0 8 -4 18 -10 21 -5
3 -10 -3 -10 -14z"/>
<path d="M1613 1003 c14 -137 26 -181 40 -140 2 6 11 -2 20 -20 27 -52 20 -96
-11 -70 -13 10 -15 8 -9 -13 4 -14 7 -29 7 -33 0 -4 12 -6 26 -5 22 3 28 -3
46 -47 12 -29 21 -80 23 -120 6 -143 23 -297 34 -308 14 -14 14 26 1 108 -5
33 -12 129 -15 213 -5 161 -11 185 -62 246 -18 22 -24 39 -22 67 4 43 -9 65
-18 31 -8 -31 -20 -27 -28 9 -5 22 -2 36 10 49 15 16 15 21 1 54 -9 21 -22 36
-32 36 -14 0 -16 -8 -11 -57z"/>
<path d="M1917 1054 c-14 -14 -7 -35 11 -32 9 2 17 10 17 17 0 16 -18 25 -28
15z"/>
<path d="M2847 1015 c-9 -19 -21 -35 -27 -35 -5 0 -10 -6 -10 -12 0 -9 17 -13
50 -14 l50 -1 0 33 c0 72 -35 88 -63 29z"/>
<path d="M2224 1025 c-8 -19 2 -45 16 -45 5 0 10 14 10 30 0 31 -16 41 -26 15z"/>
<path d="M3881 1022 c-4 -10 -11 -30 -15 -45 -7 -31 -36 -46 -103 -52 -48 -5
-109 -28 -133 -50 -9 -8 -33 -14 -55 -13 -49 2 -90 -40 -80 -81 4 -14 11 -28
16 -32 5 -3 7 -13 3 -22 -3 -9 1 -29 9 -45 7 -16 12 -43 10 -59 -4 -26 0 -35
26 -54 23 -17 28 -26 20 -35 -6 -7 -8 -18 -4 -24 14 -23 99 -8 248 42 49 17
91 28 94 25 7 -8 -27 -108 -45 -129 -11 -13 -11 -20 -1 -37 12 -17 10 -25 -9
-51 -19 -24 -22 -41 -19 -78 2 -26 8 -45 13 -42 15 7 35 73 29 98 -4 15 -1 22
10 22 8 0 15 5 15 12 0 7 10 44 21 83 39 129 68 230 74 258 3 16 16 32 30 39
30 13 40 54 26 105 -6 21 -11 57 -11 80 0 38 -4 45 -37 67 -49 31 -120 41
-132 18z"/>
<path d="M5850 1029 c0 -5 5 -7 10 -4 6 3 10 8 10 11 0 2 -4 4 -10 4 -5 0 -10
-5 -10 -11z"/>
<path d="M7017 1006 c-4 -10 -5 -21 -2 -24 9 -9 17 6 13 25 -3 17 -4 17 -11
-1z"/>
<path d="M6607 983 c-36 -25 -38 -26 -76 -11 -38 15 -40 15 -60 -6 -11 -12
-23 -41 -27 -65 -4 -23 -12 -47 -18 -52 -53 -44 -92 -69 -107 -69 -11 0 -21
-10 -25 -24 -5 -20 -13 -26 -42 -28 -30 -2 -38 -7 -40 -27 -2 -13 2 -34 9 -47
9 -18 9 -27 0 -37 -9 -11 -7 -20 9 -40 11 -14 20 -30 20 -36 0 -6 4 -11 8 -11
14 0 33 -63 22 -74 -13 -13 -13 -26 0 -26 9 0 43 56 45 75 1 6 7 8 15 6 62
-16 108 -17 150 -2 57 20 56 19 42 33 -7 7 -12 18 -12 25 0 23 18 14 37 -17
20 -35 21 -35 53 -9 l25 20 -22 16 c-13 8 -23 19 -23 24 0 15 60 40 81 34 18
-6 20 -4 14 15 -10 33 13 104 37 115 32 15 45 42 30 57 -11 11 -18 8 -37 -15
l-25 -28 -15 37 c-8 20 -15 43 -15 52 0 8 -8 21 -17 28 -16 11 -17 16 -5 46
32 78 28 83 -31 41z"/>
<path d="M663 993 c-7 -3 -13 -21 -13 -42 0 -20 -5 -42 -11 -48 -8 -8 -8 -17
0 -31 15 -29 37 -33 56 -12 14 15 16 29 10 69 -7 51 -21 72 -42 64z"/>
<path d="M6093 960 c0 -25 2 -35 4 -22 2 12 2 32 0 45 -2 12 -4 2 -4 -23z"/>
<path d="M1292 974 c4 -21 22 -23 26 -1 2 10 -3 17 -13 17 -10 0 -15 -6 -13
-16z"/>
<path d="M4450 973 c0 -23 15 -39 24 -25 3 5 -1 18 -9 28 -14 18 -14 18 -15
-3z"/>
<path d="M5835 970 c-8 -13 3 -30 21 -30 18 0 18 14 0 29 -10 8 -16 9 -21 1z"/>
<path d="M5722 900 c-29 -39 -28 -53 3 -38 27 12 42 45 28 59 -5 5 -18 -3 -31
-21z"/>
<path d="M4390 873 c0 -16 -3 -45 -6 -65 -5 -31 -4 -38 10 -38 13 0 16 12 16
65 0 37 -4 65 -10 65 -5 0 -10 -12 -10 -27z"/>
<path d="M5440 885 c0 -8 5 -15 10 -15 6 0 10 7 10 15 0 8 -4 15 -10 15 -5 0
-10 -7 -10 -15z"/>
<path d="M3404 876 c-9 -24 12 -44 28 -28 10 10 8 16 -5 29 -15 15 -17 15 -23
-1z"/>
<path d="M5790 879 c0 -5 5 -7 10 -4 6 3 10 8 10 11 0 2 -4 4 -10 4 -5 0 -10
-5 -10 -11z"/>
<path d="M2632 860 c0 -14 2 -19 5 -12 2 6 2 18 0 25 -3 6 -5 1 -5 -13z"/>
<path d="M5905 860 c-7 -12 22 -12 50 0 17 7 15 9 -12 9 -17 1 -35 -3 -38 -9z"/>
<path d="M2216 845 c-6 -18 2 -45 15 -45 12 0 12 47 0 54 -5 3 -11 -1 -15 -9z"/>
<path d="M6096 834 c4 -13 1 -31 -5 -38 -7 -8 -8 -17 -3 -20 5 -3 14 6 20 19
13 27 28 32 35 13 6 -17 13 -9 20 22 6 23 3 25 -33 26 -37 2 -39 0 -34 -22z"/>
<path d="M5560 820 c0 -23 10 -26 28 -8 18 18 15 28 -8 28 -13 0 -20 -7 -20
-20z"/>
<path d="M4312 808 c7 -19 38 -22 38 -4 0 10 -9 16 -21 16 -12 0 -19 -5 -17
-12z"/>
<path d="M2030 770 c0 -5 5 -10 10 -10 6 0 10 5 10 10 0 6 -4 10 -10 10 -5 0
-10 -4 -10 -10z"/>
<path d="M4921 743 c-1 -13 -5 -23 -11 -23 -5 0 -17 -14 -26 -32 -9 -18 -23
-38 -30 -46 -18 -17 -18 -42 0 -56 16 -13 28 -93 15 -101 -4 -3 -18 6 -31 20
-12 14 -29 25 -38 25 -9 0 -22 6 -29 13 -10 10 -14 9 -22 -6 -6 -9 -28 -26
-50 -38 -26 -13 -44 -31 -51 -50 -7 -22 -15 -28 -28 -24 -57 18 -105 -58 -75
-119 17 -34 19 -56 5 -56 -5 0 -10 -12 -10 -27 0 -25 1 -25 18 -10 27 25 60
21 92 -12 29 -29 66 -41 126 -41 29 0 34 -3 34 -24 0 -13 7 -27 16 -30 18 -7
90 10 98 23 3 5 23 12 43 15 56 10 98 35 118 70 10 17 31 45 48 63 24 26 35
31 58 26 26 -5 29 -3 29 22 0 15 -7 40 -17 55 -15 27 -15 29 5 55 32 40 29 79
-8 105 -23 16 -34 19 -49 11 -11 -6 -21 -16 -24 -23 -3 -10 -7 -10 -20 1 -21
17 -22 39 -1 62 9 10 13 23 9 29 -5 8 -15 4 -31 -13 -20 -22 -30 -25 -61 -20
-21 3 -45 9 -53 13 -8 5 -28 6 -43 3 -23 -4 -27 -2 -27 16 0 12 8 38 18 59 13
25 16 45 11 62 -7 24 -7 24 -8 3z"/>
<path d="M6087 743 c-8 -8 -9 -63 -1 -63 9 0 34 28 34 38 0 14 -26 33 -33 25z"/>
<path d="M1241 708 c-5 -13 -12 -30 -14 -39 -3 -9 -21 -19 -42 -22 -19 -3 -52
-16 -71 -28 -32 -19 -35 -26 -32 -55 l4 -34 -62 0 c-70 0 -88 -13 -86 -61 1
-31 40 -107 74 -145 16 -18 17 -27 9 -63 -5 -23 -17 -51 -26 -61 -23 -25 -11
-60 20 -60 27 0 39 27 31 68 -11 52 6 59 71 30 106 -47 118 -49 165 -26 53 25
79 48 71 60 -9 16 19 28 39 17 23 -12 89 20 106 53 24 43 13 177 -16 210 -8
10 -18 37 -22 60 -19 99 -41 119 -87 77 l-22 -22 -30 32 c-34 37 -68 40 -80 9z
m-86 -238 c3 -5 1 -10 -4 -10 -6 0 -11 5 -11 10 0 6 2 10 4 10 3 0 8 -4 11
-10z"/>
<path d="M1086 691 c-4 -7 -5 -15 -2 -18 9 -9 19 4 14 18 -4 11 -6 11 -12 0z"/>
<path d="M1648 667 c-14 -28 -21 -54 -30 -121 -6 -40 20 -25 26 15 4 23 13 51
21 62 16 23 20 63 7 71 -4 3 -15 -10 -24 -27z"/>
<path d="M2130 666 c0 -8 5 -18 10 -21 6 -3 10 3 10 14 0 12 -4 21 -10 21 -5
0 -10 -6 -10 -14z"/>
<path d="M5491 646 c-14 -17 -1 -28 19 -16 11 7 12 12 4 20 -8 8 -14 7 -23 -4z"/>
<path d="M4310 620 c0 -5 5 -10 10 -10 6 0 10 -9 10 -20 0 -11 5 -20 11 -20 6
0 8 7 5 16 -3 9 -6 22 -6 30 0 8 -7 14 -15 14 -8 0 -15 -4 -15 -10z"/>
<path d="M2653 613 c-18 -7 -16 -28 2 -43 13 -10 19 -10 35 5 30 27 3 55 -37
38z"/>
<path d="M3430 600 c0 -11 7 -20 15 -20 8 0 15 9 15 20 0 11 -7 20 -15 20 -8
0 -15 -9 -15 -20z"/>
<path d="M4047 614 c-9 -9 4 -35 14 -28 5 3 9 12 9 20 0 14 -12 19 -23 8z"/>
<path d="M657 603 c-4 -3 -7 -15 -7 -25 0 -26 24 -17 28 10 3 21 -8 29 -21 15z"/>
<path d="M2876 595 c-3 -8 -1 -15 4 -15 6 0 10 7 10 15 0 8 -2 15 -4 15 -2 0
-6 -7 -10 -15z"/>
<path d="M4177 593 c-4 -3 -7 -17 -7 -30 0 -33 24 -24 28 10 3 26 -7 35 -21
20z"/>
<path d="M5861 587 c-13 -17 -4 -50 13 -44 15 5 20 37 9 48 -6 6 -14 4 -22 -4z"/>
<path d="M592 554 c4 -21 22 -23 26 -1 2 10 -3 17 -13 17 -10 0 -15 -6 -13
-16z"/>
<path d="M820 559 c0 -5 5 -7 10 -4 6 3 10 8 10 11 0 2 -4 4 -10 4 -5 0 -10
-5 -10 -11z"/>
<path d="M2210 536 c0 -25 12 -46 26 -46 17 0 18 32 2 48 -16 16 -28 15 -28
-2z"/>
<path d="M2060 495 c0 -8 5 -15 10 -15 6 0 10 7 10 15 0 8 -4 15 -10 15 -5 0
-10 -7 -10 -15z"/>
<path d="M640 456 c0 -9 7 -16 16 -16 17 0 14 22 -4 28 -7 2 -12 -3 -12 -12z"/>
<path d="M3998 453 c-9 -10 -18 -27 -22 -38 -5 -18 -1 -20 42 -19 71 1 72 2
72 33 0 43 -62 58 -92 24z"/>
<path d="M1564 447 c-8 -22 6 -39 24 -28 9 6 9 11 -2 27 -14 18 -15 18 -22 1z"/>
<path d="M2870 440 c0 -5 5 -10 11 -10 5 0 7 5 4 10 -3 6 -8 10 -11 10 -2 0
-4 -4 -4 -10z"/>
<path d="M3186 441 c-4 -7 -5 -15 -2 -18 9 -9 19 4 14 18 -4 11 -6 11 -12 0z"/>
<path d="M2927 396 c-5 -15 -6 -31 -3 -34 8 -8 18 25 14 45 -3 13 -6 10 -11
-11z"/>
<path d="M5905 399 c-10 -15 3 -25 16 -12 7 7 7 13 1 17 -6 3 -14 1 -17 -5z"/>
<path d="M1726 343 c9 -51 14 -54 14 -10 0 20 -5 39 -11 42 -7 5 -8 -5 -3 -32z"/>
<path d="M2375 350 c4 -6 11 -8 16 -5 14 9 11 15 -7 15 -8 0 -12 -5 -9 -10z"/>
<path d="M5973 304 c-8 -21 13 -42 28 -27 13 13 5 43 -11 43 -6 0 -13 -7 -17
-16z"/>
<path d="M4295 300 c-3 -5 -1 -18 4 -27 9 -16 10 -14 11 10 0 28 -5 34 -15 17z"/>
<path d="M6125 290 c-3 -6 1 -13 10 -16 19 -8 30 0 20 15 -8 14 -22 14 -30 1z"/>
<path d="M550 270 c0 -5 9 -10 21 -10 11 0 17 5 14 10 -3 6 -13 10 -21 10 -8
0 -14 -4 -14 -10z"/>
<path d="M6040 260 c0 -19 3 -21 12 -12 9 9 9 15 0 24 -9 9 -12 7 -12 -12z"/>
<path d="M5925 260 c-3 -5 1 -10 10 -10 9 0 13 5 10 10 -3 6 -8 10 -10 10 -2
0 -7 -4 -10 -10z"/>
<path d="M1731 244 c0 -11 3 -14 6 -6 3 7 2 16 -1 19 -3 4 -6 -2 -5 -13z"/>
<path d="M1550 235 c0 -9 9 -15 21 -15 18 0 19 2 9 15 -7 8 -16 15 -21 15 -5
0 -9 -7 -9 -15z"/>
<path d="M1980 230 c0 -5 5 -10 10 -10 6 0 10 5 10 10 0 6 -4 10 -10 10 -5 0
-10 -4 -10 -10z"/>
<path d="M1796 183 c9 -65 14 -67 14 -5 0 30 -4 52 -11 52 -7 0 -8 -16 -3 -47z"/>
<path d="M2126 178 c7 -36 20 -55 30 -45 10 10 -9 70 -24 75 -8 2 -10 -6 -6
-30z"/>
<path d="M6038 197 c-12 -29 -10 -73 3 -60 6 6 9 26 7 44 -2 26 -5 30 -10 16z"/>
<path d="M5170 190 c0 -5 7 -10 16 -10 8 0 12 5 9 10 -3 6 -10 10 -16 10 -5 0
-9 -4 -9 -10z"/>
<path d="M6400 171 c-6 -16 -10 -38 -7 -48 4 -17 4 -17 11 2 4 11 12 28 17 37
11 22 12 38 0 38 -5 0 -14 -13 -21 -29z"/>
<path d="M2882 165 c0 -16 2 -22 5 -12 2 9 2 23 0 30 -3 6 -5 -1 -5 -18z"/>
<path d="M5010 118 c0 -19 2 -20 10 -8 13 19 13 30 0 30 -5 0 -10 -10 -10 -22z"/>
<path d="M450 115 c0 -8 7 -15 15 -15 8 0 15 7 15 15 0 8 -7 15 -15 15 -8 0
-15 -7 -15 -15z"/>
<path d="M2160 100 c0 -5 5 -10 10 -10 6 0 10 5 10 10 0 6 -4 10 -10 10 -5 0
-10 -4 -10 -10z"/>
<path d="M4350 79 c0 -11 5 -17 10 -14 6 3 10 13 10 21 0 8 -4 14 -10 14 -5 0
-10 -9 -10 -21z"/>
<path d="M6381 84 c0 -11 3 -14 6 -6 3 7 2 16 -1 19 -3 4 -6 -2 -5 -13z"/>
<path d="M4989 64 c-10 -13 -10 -17 2 -25 23 -14 29 -11 29 16 0 29 -12 32
-31 9z"/>
</g>
</svg>
