<?xml version="1.0" standalone="no"?>
<!DOCTYPE svg PUBLIC "-//W3C//DTD SVG 20010904//EN"
 "http://www.w3.org/TR/2001/REC-SVG-20010904/DTD/svg10.dtd">
<svg version="1.0" xmlns="http://www.w3.org/2000/svg"
 width="897.000000pt" height="629.000000pt" viewBox="0 0 897.000000 629.000000"
 preserveAspectRatio="xMidYMid meet">

<g transform="translate(0.000000,629.000000) scale(0.100000,-0.100000)"
fill="#000000" stroke="none">
<path d="M3806 6261 c-20 -38 -20 -40 3 -34 11 3 21 -2 24 -11 4 -10 19 -15
44 -14 21 0 50 -5 65 -11 15 -6 34 -8 42 -5 7 3 16 -2 20 -11 4 -11 12 -15 22
-11 9 4 28 -1 42 -10 18 -12 27 -13 30 -6 5 17 22 15 22 -2 0 -22 19 -29 37
-15 13 11 17 10 28 -5 10 -13 20 -16 37 -10 28 9 153 4 153 -6 0 -1 17 -3 37
-4 27 -2 43 -10 59 -29 11 -15 29 -27 40 -27 10 0 19 -4 19 -10 0 -16 36 -12
51 6 10 13 10 17 -2 25 -11 7 -11 9 3 9 19 0 32 35 26 67 -2 14 -17 20 -68 26
-36 4 -96 14 -135 22 -38 8 -97 19 -130 24 -33 5 -123 21 -200 35 -77 13 -166
28 -197 31 -56 7 -57 6 -72 -24z m735 -192 c10 -6 8 -9 -8 -9 -17 0 -23 6 -23
23 0 16 3 18 9 8 5 -7 15 -17 22 -22z"/>
<path d="M5473 6249 c-2 -33 1 -40 15 -37 12 2 18 15 20 41 3 30 0 37 -15 37
-15 0 -19 -8 -20 -41z"/>
<path d="M7324 6203 c4 -49 11 -130 17 -182 6 -51 8 -120 4 -152 -7 -55 -6
-59 14 -59 16 0 21 6 21 25 0 14 4 25 10 25 5 0 12 -11 16 -25 7 -28 22 -33
30 -10 5 11 10 13 19 5 7 -6 35 -9 61 -7 27 3 58 1 69 -3 11 -5 14 -9 8 -9
-15 -1 -12 -35 2 -39 6 -1 11 9 13 23 3 26 44 51 62 40 5 -3 11 -1 15 4 8 14
44 9 50 -7 4 -11 8 -12 20 -2 13 11 15 6 16 -31 0 -34 2 -39 9 -24 5 11 11 33
15 48 5 25 10 28 30 23 16 -4 27 -1 33 10 8 14 12 10 22 -20 12 -37 17 -41 35
-28 19 14 55 94 55 122 0 41 20 48 21 8 1 -18 1 -36 0 -40 0 -4 5 -5 13 -2 8
3 16 20 19 37 3 18 13 76 22 131 9 54 24 110 33 124 9 15 11 23 5 19 -9 -6
-13 -2 -13 12 0 12 5 21 10 21 6 0 10 -5 10 -11 0 -27 17 4 18 33 1 31 0 32
-14 14 -12 -17 -14 -18 -14 -3 0 16 -30 17 -381 17 l-381 0 6 -87z"/>
<path d="M8836 6193 c-15 -216 -23 -289 -31 -307 -7 -16 -5 -18 8 -13 9 3 19
2 22 -4 4 -5 12 -9 18 -7 11 2 59 -7 100 -18 16 -5 17 10 17 220 l0 226 -64 0
-64 0 -6 -97z"/>
<path d="M4320 6096 c0 -2 7 -7 16 -10 8 -3 12 -2 9 4 -6 10 -25 14 -25 6z"/>
<path d="M5285 6013 c-16 -3 -110 -41 -124 -49 -1 -2 0 -7 4 -13 4 -8 12 -8
27 0 18 9 24 8 35 -6 10 -15 17 -16 35 -7 41 19 148 4 148 -21 0 -6 7 -2 15
10 16 22 34 24 88 9 18 -5 32 -4 42 4 22 18 18 27 -12 27 -49 0 -107 15 -135
34 -25 18 -74 23 -123 12z"/>
<path d="M8066 5965 c-9 -26 -7 -32 5 -12 6 10 9 21 6 23 -2 3 -7 -2 -11 -11z"/>
<path d="M8790 5935 c0 -8 5 -15 10 -15 6 0 10 7 10 15 0 8 -4 15 -10 15 -5 0
-10 -7 -10 -15z"/>
<path d="M5814 5914 c3 -9 6 -18 6 -20 0 -2 13 -4 29 -4 17 0 33 -5 36 -10 4
-6 16 -8 26 -5 11 4 26 1 34 -5 12 -10 18 -10 30 0 12 10 21 10 38 1 12 -6 36
-11 52 -11 34 1 123 -17 175 -35 37 -12 70 -10 70 6 0 5 -11 9 -23 9 -13 0
-46 7 -73 15 -27 8 -89 22 -139 30 -49 8 -128 22 -175 30 -47 8 -87 15 -89 15
-2 0 0 -7 3 -16z"/>
<path d="M5710 5860 c0 -5 -9 -10 -19 -10 -26 0 -29 -6 -43 -93 l-11 -76 -28
15 c-35 18 -48 1 -22 -28 36 -42 88 -87 99 -88 7 0 15 7 18 15 5 13 10 14 27
5 11 -7 24 -9 27 -5 12 12 8 98 -5 103 -21 6 -15 29 8 35 14 4 20 11 16 21 -3
8 -2 18 3 21 13 8 2 55 -18 78 -16 18 -52 23 -52 7z m7 -142 c5 -7 14 -25 21
-40 18 -43 -4 -33 -26 12 -18 38 -16 55 5 28z"/>
<path d="M6330 5831 c0 -10 30 -24 37 -17 3 2 -5 9 -16 16 -12 6 -21 7 -21 1z"/>
<path d="M7321 5754 c0 -11 3 -14 6 -6 3 7 2 16 -1 19 -3 4 -6 -2 -5 -13z"/>
<path d="M7471 5700 c0 -32 2 -40 9 -29 5 9 6 28 0 45 -8 27 -8 26 -9 -16z"/>
<path d="M7311 5686 c-1 -34 2 -47 9 -40 7 7 7 24 1 50 l-9 39 -1 -49z"/>
<path d="M5805 5710 c4 -6 11 -8 16 -5 14 9 11 15 -7 15 -8 0 -12 -5 -9 -10z"/>
<path d="M7512 5695 c0 -16 2 -22 5 -12 2 9 2 23 0 30 -3 6 -5 -1 -5 -18z"/>
<path d="M5560 5660 c0 -5 5 -10 11 -10 5 0 7 5 4 10 -3 6 -8 10 -11 10 -2 0
-4 -4 -4 -10z"/>
<path d="M5201 5491 c-21 -29 -29 -81 -12 -81 5 0 16 10 25 23 13 17 16 18 12
4 -3 -10 -6 -32 -6 -48 0 -34 -17 -38 -30 -6 -8 20 -9 21 -10 2 -1 -11 -7 9
-14 44 -10 56 -14 65 -34 66 -32 2 -47 -28 -33 -67 6 -17 11 -33 11 -36 0 -2
-18 12 -40 32 -22 20 -42 36 -44 36 -3 0 0 -15 5 -32 13 -46 12 -50 -12 -37
-14 7 -25 7 -31 1 -6 -6 7 -20 36 -38 25 -16 46 -33 46 -37 0 -5 14 -6 31 -2
28 6 30 5 24 -14 -8 -25 9 -28 31 -6 9 8 28 15 44 15 28 0 64 38 66 70 0 8 4
32 8 53 7 33 5 42 -15 63 -29 31 -33 30 -58 -5z"/>
<path d="M5786 5488 c-3 -13 -7 -45 -10 -73 -9 -93 -27 -177 -46 -215 -11 -21
-16 -40 -13 -44 4 -3 2 -6 -4 -6 -20 0 -21 -37 -2 -76 10 -22 18 -44 19 -50 0
-6 6 -17 14 -23 12 -10 10 -20 -11 -63 -17 -36 -21 -54 -14 -61 18 -18 13 -27
-14 -27 -14 0 -25 -5 -25 -10 0 -6 -11 -15 -25 -20 -14 -5 -25 -14 -25 -20 0
-5 -9 -10 -20 -10 -11 0 -20 -4 -20 -10 0 -5 -5 -10 -12 -10 -9 0 -9 3 0 12 7
7 12 18 12 26 0 10 -5 9 -17 -4 -10 -10 -18 -24 -18 -33 0 -14 -40 -37 -144
-85 -27 -13 -38 -23 -32 -29 7 -7 22 -2 43 14 18 14 52 31 76 39 23 7 42 17
42 22 0 4 7 8 15 8 8 0 35 9 60 21 43 20 65 19 65 -3 0 -24 -116 -88 -217
-119 -59 -19 -63 -22 -46 -34 28 -21 94 -8 119 23 16 20 30 26 60 26 29 0 44
6 58 23 12 16 24 22 37 18 13 -4 19 -2 19 9 0 9 8 16 18 16 9 0 23 9 30 20 7
11 22 20 34 20 12 0 28 7 37 15 69 63 97 85 108 85 16 0 163 143 188 183 12
19 15 31 8 38 -7 7 -3 25 13 55 13 24 21 44 18 44 -3 0 -29 -20 -56 -45 -28
-25 -55 -45 -62 -45 -7 0 -10 15 -8 43 3 33 9 45 25 52 36 16 34 63 -5 107
-18 21 -41 49 -52 64 -10 14 -35 34 -55 43 -64 30 -111 63 -111 77 0 12 -29
34 -44 34 -3 0 -8 -10 -10 -22z m204 -434 c0 -8 -19 -13 -24 -6 -3 5 1 9 9 9
8 0 15 -2 15 -3z m-50 -24 c0 -5 -2 -10 -4 -10 -3 0 -8 5 -11 10 -3 6 -1 10 4
10 6 0 11 -4 11 -10z m-113 -75 c-15 -17 -32 -2 -23 20 5 14 9 15 21 5 11 -9
12 -15 2 -25z m143 25 c0 -5 -5 -10 -11 -10 -5 0 -7 5 -4 10 3 6 8 10 11 10 2
0 4 -4 4 -10z m-195 -80 c-3 -5 -13 -10 -21 -10 -8 0 -12 5 -9 10 3 6 13 10
21 10 8 0 12 -4 9 -10z m35 -44 c0 -8 -5 -18 -11 -22 -14 -8 -33 11 -25 25 10
16 36 13 36 -3z m-50 -36 c0 -5 -7 -10 -15 -10 -8 0 -15 5 -15 10 0 6 7 10 15
10 8 0 15 -4 15 -10z"/>
<path d="M6111 5351 c6 -17 15 -29 20 -26 10 7 -4 48 -19 53 -8 2 -9 -5 -1
-27z"/>
<path d="M6082 5304 c1 -9 9 -19 16 -22 9 -3 13 2 10 14 -1 9 -9 19 -16 22 -9
3 -13 -2 -10 -14z"/>
<path d="M4720 5290 c0 -8 9 -26 20 -40 26 -34 25 -46 -3 -27 -12 8 -50 20
-82 27 -33 7 -68 16 -77 21 -13 7 -18 6 -18 -5 0 -8 6 -17 13 -20 6 -3 1 -3
-11 0 -21 5 -23 4 -13 -14 11 -21 48 -36 53 -20 2 5 34 -7 72 -27 37 -20 65
-32 62 -27 -3 6 4 12 16 14 36 5 35 55 -2 98 -17 21 -29 29 -30 20z"/>
<path d="M4786 5253 c8 -32 24 -55 24 -32 0 26 -12 59 -21 59 -5 0 -6 -12 -3
-27z"/>
<path d="M5010 5191 c0 -17 18 -21 24 -6 3 9 0 15 -9 15 -8 0 -15 -4 -15 -9z"/>
<path d="M6743 5160 c-2 -25 1 -30 21 -30 26 0 53 -25 37 -34 -11 -7 -57 9
-65 23 -5 7 -13 7 -25 -1 -17 -10 -17 -12 1 -30 11 -11 17 -26 14 -34 -3 -9 1
-14 13 -14 10 0 21 -7 25 -15 3 -8 12 -15 20 -15 9 0 13 -6 10 -14 -3 -8 0
-17 5 -21 6 -3 8 -12 4 -18 -14 -23 -12 -57 4 -57 14 0 14 -2 -1 -19 -17 -19
-17 -19 4 -14 13 3 25 1 30 -7 6 -9 12 -9 30 0 12 7 33 9 48 5 27 -7 27 -7 4
-16 -12 -5 -25 -15 -28 -24 -4 -8 -14 -15 -25 -15 -20 0 -69 -47 -69 -67 0 -9
20 -11 68 -9 43 2 77 -1 94 -10 15 -8 39 -15 53 -16 19 -2 25 -8 25 -25 0 -12
-5 -25 -11 -28 -6 -4 -8 -12 -6 -19 3 -7 -1 -23 -8 -36 -11 -20 -25 -26 -77
-35 -60 -10 -65 -9 -60 7 2 11 14 18 27 18 12 0 28 7 35 15 11 13 8 15 -21 16
-19 1 -51 1 -71 0 -37 -3 -51 11 -25 23 6 3 -5 4 -25 1 -33 -5 -38 -3 -38 14
0 11 5 23 10 26 18 11 1 22 -27 18 -27 -5 -27 -5 -8 10 28 21 12 32 -25 17
-28 -12 -42 -40 -20 -40 6 0 10 -9 10 -19 0 -11 5 -23 10 -26 22 -14 8 -23
-20 -14 -16 6 -30 15 -30 20 0 14 -55 10 -86 -6 -34 -18 -64 -19 -64 -4 0 6 9
13 19 16 32 8 117 52 102 53 -11 0 -10 4 3 19 15 16 15 19 1 24 -8 4 -15 13
-15 21 0 17 49 46 76 46 16 0 16 1 -2 15 -10 8 -27 15 -36 15 -10 0 -18 6 -18
13 0 6 -8 2 -18 -10 -27 -35 -138 -61 -126 -29 3 9 -4 15 -23 19 -33 6 -64
-23 -102 -93 l-24 -45 24 21 c45 41 94 64 134 64 48 0 77 -15 57 -29 -11 -7
-11 -9 2 -14 25 -10 19 -22 -19 -40 -20 -9 -40 -28 -45 -41 -6 -18 -20 -27
-45 -32 -19 -3 -39 -12 -43 -18 -10 -17 -40 -27 -47 -16 -10 15 -23 12 -29 -8
-3 -10 -20 -23 -38 -30 -35 -13 -30 -28 12 -34 17 -2 26 -10 28 -25 2 -13 13
-24 30 -28 20 -5 23 -8 11 -16 -7 -5 -24 -9 -36 -9 -17 0 -21 4 -16 17 6 15 2
14 -27 -4 -44 -28 -47 -37 -15 -51 27 -13 34 -32 10 -32 -8 0 -15 7 -15 16 0
15 -2 15 -25 0 -34 -22 -40 -20 -21 9 15 23 15 25 1 25 -19 0 -54 -18 -73 -37
-7 -7 -19 -13 -27 -13 -7 0 -15 -7 -19 -15 -3 -8 -12 -15 -21 -15 -11 0 -14 6
-9 25 3 14 2 25 -3 25 -9 0 -16 -6 -63 -58 -16 -17 -28 -22 -46 -18 -25 7 -31
-7 -15 -33 14 -21 71 4 71 32 0 17 5 19 41 14 28 -4 42 -1 45 8 4 9 28 12 85
11 44 0 75 -2 69 -4 -5 -2 -10 -8 -10 -12 0 -5 -19 -27 -42 -49 -34 -31 -40
-42 -31 -52 10 -10 16 -9 31 4 20 18 52 23 52 8 0 -20 -35 -34 -88 -36 -31 -1
-70 -5 -87 -9 l-30 -7 25 15 25 15 -24 9 c-16 5 -20 11 -13 16 6 4 21 2 32 -4
11 -6 30 -8 41 -5 35 11 6 26 -53 28 -49 1 -59 -2 -86 -30 -24 -23 -28 -33
-19 -42 9 -10 7 -12 -13 -9 -17 2 -26 -2 -28 -14 -3 -18 11 -22 63 -19 17 1
17 -1 -3 -9 -13 -6 -26 -19 -29 -30 -3 -12 -14 -20 -27 -21 -40 -2 -71 3 -81
13 -7 6 3 9 29 6 41 -3 63 16 32 28 -9 3 -13 10 -10 15 3 5 -6 9 -21 9 -17 0
-29 -8 -37 -25 -6 -13 -18 -27 -27 -30 -9 -3 -25 -19 -35 -37 -18 -29 -20 -30
-32 -13 -8 11 -14 15 -14 10 0 -5 -9 0 -20 11 -43 43 -50 46 -50 24 0 -11 7
-20 15 -20 20 0 19 -20 -2 -35 -9 -7 -13 -17 -9 -23 11 -18 23 -14 30 10 4 18
8 20 18 10 10 -10 8 -16 -8 -33 -17 -16 -25 -18 -47 -10 -24 9 -26 8 -24 -12
1 -16 -4 -23 -20 -25 -17 -3 -20 1 -16 16 6 25 -11 36 -34 23 -10 -6 -12 -11
-5 -11 15 0 16 -20 1 -20 -6 0 -22 -8 -35 -19 -21 -16 -22 -20 -9 -31 8 -7 12
-16 9 -21 -6 -10 7 -12 30 -3 9 3 16 15 16 25 0 21 26 26 33 7 3 -10 10 -8 25
5 23 21 30 14 27 -28 -2 -26 -6 -30 -28 -27 -23 2 -26 -1 -25 -28 1 -33 9 -38
27 -16 12 14 54 21 175 30 33 3 69 7 82 10 13 3 26 1 29 -5 4 -6 18 -8 32 -4
14 3 31 1 39 -6 10 -8 21 -6 47 10 19 12 43 21 54 21 10 0 23 4 29 9 5 6 41
12 80 15 66 6 72 4 77 -14 5 -21 37 -27 122 -21 39 3 39 2 22 -16 -23 -26 -22
-33 8 -33 28 0 31 -11 13 -40 -7 -10 -9 -23 -4 -27 4 -4 12 0 17 10 26 45 58
-11 35 -62 -13 -31 -46 -71 -58 -71 -4 0 -8 7 -8 16 0 9 -7 14 -17 12 -13 -2
-18 -13 -18 -40 0 -25 -6 -42 -20 -53 -19 -15 -18 -16 24 -13 39 3 44 0 47
-19 3 -20 -1 -23 -26 -23 -18 0 -33 -6 -36 -15 -4 -8 -11 -15 -16 -15 -15 0
-55 -45 -63 -70 -9 -28 -25 -25 -25 5 0 20 -5 25 -25 25 -44 0 -27 -46 21 -59
22 -5 30 -14 32 -35 2 -18 -1 -26 -10 -25 -21 5 -68 -10 -68 -21 0 -6 7 -10
15 -10 32 0 7 -55 -29 -64 -21 -5 -26 -14 -31 -61 -4 -30 -10 -55 -14 -56 -3
0 -18 -3 -33 -5 -16 -3 -33 2 -43 12 -9 9 -19 14 -22 10 -4 -3 2 -13 13 -21
16 -12 17 -14 2 -15 -9 0 -30 12 -47 26 -22 18 -37 23 -52 19 -12 -4 -24 -2
-28 4 -9 14 -108 -3 -130 -23 -21 -17 -41 -10 -41 15 0 16 -3 18 -19 10 -23
-13 -35 -42 -22 -51 6 -3 9 -18 8 -33 -2 -23 5 -31 38 -50 52 -29 75 -49 75
-64 0 -7 4 -13 9 -13 5 0 7 9 4 20 -4 13 0 20 10 20 19 0 26 -19 20 -52 -3
-18 0 -27 14 -32 10 -3 29 -13 42 -20 30 -18 47 -11 55 20 7 25 20 31 31 14
13 -20 36 -9 42 20 7 35 16 37 43 10 24 -24 31 -25 24 -5 -4 9 0 15 9 15 8 0
17 -7 21 -15 3 -8 17 -15 32 -15 31 0 28 -23 -4 -28 -11 -2 -26 -10 -32 -18
-26 -30 26 -14 64 20 33 31 36 37 24 56 -11 18 -10 23 6 36 24 17 53 18 59 2
3 -8 6 -5 6 5 1 24 23 17 27 -8 4 -30 -13 -54 -36 -48 -14 4 -20 0 -20 -10 0
-24 37 -40 79 -33 20 4 50 9 66 12 17 2 1 -7 -35 -21 -46 -18 -76 -23 -101
-19 -26 4 -38 1 -42 -9 -11 -28 -124 -47 -194 -32 -21 5 -43 2 -65 -9 -18 -10
-53 -20 -78 -23 -25 -3 -53 -10 -64 -15 -12 -7 -26 -6 -41 2 -18 10 -27 8 -53
-7 l-32 -20 33 -42 32 -42 80 6 c44 3 109 12 145 20 111 24 159 28 345 29
l180 1 -3 25 c-3 28 25 65 68 92 50 31 182 42 355 29 210 -15 204 -15 214 12
6 17 3 29 -15 50 -25 30 -23 50 3 45 9 -2 29 -41 50 -98 23 -65 47 -110 76
-144 23 -28 35 -46 27 -41 -11 7 -10 2 3 -19 10 -15 16 -30 13 -33 -2 -3 -34
4 -70 16 -35 11 -95 23 -133 26 -109 8 -533 16 -533 10 0 -15 36 -58 59 -69
14 -8 71 -26 126 -41 134 -36 178 -65 121 -79 -33 -8 -268 -21 -341 -18 -33 1
-88 11 -122 22 -75 24 -87 25 -183 10 -41 -6 -97 -13 -125 -15 -62 -5 -135
-25 -135 -36 0 -5 4 -9 9 -9 5 0 17 -8 27 -17 17 -18 67 -32 194 -56 45 -9 65
-17 65 -27 0 -9 12 -16 30 -18 17 -2 37 -9 45 -16 28 -22 71 -36 115 -36 25 0
45 -5 48 -12 4 -10 7 -10 18 -1 20 20 26 16 26 -17 0 -35 -10 -37 -44 -10 -17
13 -33 17 -54 13 -17 -3 -35 0 -44 7 -10 9 -15 9 -15 1 0 -6 5 -11 10 -11 6 0
10 -6 10 -13 0 -16 42 -37 74 -37 13 0 29 -7 36 -15 10 -12 9 -15 -6 -15 -31
0 -84 -38 -84 -60 0 -12 13 -28 33 -40 30 -19 32 -19 36 -2 5 27 19 40 95 89
125 81 202 113 272 113 49 0 68 -5 95 -25 80 -58 83 -57 194 30 39 31 87 61
108 67 52 16 206 -5 312 -42 44 -15 99 -33 123 -39 67 -19 113 -72 155 -180
45 -115 130 -244 245 -371 12 -14 22 -30 22 -37 0 -7 5 -13 12 -13 6 0 29 -18
49 -40 21 -22 46 -40 56 -40 10 0 29 -7 41 -16 14 -10 33 -14 47 -10 13 3 27
1 30 -5 4 -6 18 -8 32 -4 19 4 29 1 40 -15 15 -22 34 -23 75 -5 11 4 25 -1 41
-17 13 -12 63 -43 111 -68 l87 -45 24 30 c14 17 25 38 25 48 0 10 8 17 20 17
11 0 20 3 20 8 0 4 14 15 30 24 l31 17 -1 220 c-1 192 -3 220 -18 226 -9 3
-19 -1 -24 -10 -7 -12 -13 -13 -30 -4 -11 6 -35 8 -52 5 -28 -5 -34 -3 -44 19
-12 26 -23 31 -36 17 -10 -9 -96 -9 -96 1 0 4 4 7 9 7 5 0 12 7 15 16 4 12 1
14 -14 9 -14 -4 -20 -2 -20 8 0 22 27 40 51 34 12 -3 18 -3 15 0 -3 3 -1 14 5
25 8 15 17 18 38 13 22 -5 31 0 48 23 15 21 33 31 63 36 25 4 38 11 34 17 -3
6 -13 8 -21 5 -8 -3 -27 1 -43 10 -22 14 -34 15 -59 6 -37 -13 -38 -10 -9 29
22 29 22 31 5 43 -9 7 -17 17 -17 21 0 4 7 2 15 -5 8 -6 23 -9 35 -5 14 4 28
1 39 -9 16 -14 61 -12 61 3 0 13 -24 31 -42 31 -11 0 -30 11 -44 25 -27 27
-54 33 -54 11 0 -7 -10 -16 -22 -19 -17 -5 -19 -9 -10 -20 10 -12 4 -15 -33
-20 -50 -7 -104 8 -88 24 5 5 34 12 64 16 52 6 79 17 79 34 0 12 -73 -2 -91
-17 -8 -8 -27 -14 -42 -14 -14 0 -28 -4 -31 -9 -3 -4 -24 -11 -46 -15 -24 -4
-40 -12 -40 -20 0 -20 -23 -26 -44 -11 -16 12 -15 14 13 20 17 4 31 11 31 16
0 5 14 9 30 9 20 0 30 5 30 15 0 17 -35 12 -82 -11 -15 -8 -43 -14 -63 -14
-25 0 -44 -8 -61 -25 -14 -14 -29 -25 -34 -25 -6 0 -1 9 10 20 11 11 20 24 20
28 0 14 51 33 71 27 24 -8 40 2 33 20 -4 8 -10 13 -14 10 -11 -7 -40 5 -40 16
0 14 42 10 59 -5 22 -19 53 -24 58 -8 3 6 -1 12 -9 12 -7 0 -19 9 -25 20 -20
31 4 35 38 6 34 -29 74 -34 83 -11 3 8 13 15 23 15 13 0 14 3 6 11 -8 8 -20 8
-40 2 -38 -13 -75 3 -71 31 4 31 20 37 33 13 12 -25 42 -34 57 -19 8 8 0 15
-23 26 -28 12 -30 15 -12 15 12 1 25 5 28 11 4 6 13 5 24 -2 22 -13 51 -4 51
16 0 16 -50 28 -65 16 -6 -5 -17 -5 -25 0 -29 18 -83 -1 -118 -41 -31 -36 -72
-52 -72 -29 0 6 9 10 20 10 13 0 20 7 20 19 0 11 12 28 27 39 14 10 23 24 19
30 -8 13 -76 13 -92 1 -11 -9 -54 -1 -54 11 0 4 11 12 25 18 17 8 25 20 25 37
0 30 -14 32 -33 5 -19 -27 -57 -16 -55 16 3 27 13 31 22 9 8 -22 21 -18 36 11
17 31 3 44 -48 44 -31 0 -33 -2 -28 -27 7 -35 -5 -56 -27 -47 -22 8 -22 24 -1
24 14 0 14 2 3 16 -7 9 -18 25 -24 37 -5 11 -15 22 -22 24 -8 3 -7 -5 3 -26 9
-17 20 -31 25 -31 6 0 7 -4 4 -10 -11 -18 -43 -11 -48 11 -3 12 -10 18 -16 14
-10 -6 -15 7 -12 28 1 4 -7 3 -18 -3 -33 -17 -42 -12 -35 18 9 33 22 44 51 37
12 -3 24 -1 28 5 8 13 35 1 35 -16 0 -9 12 -14 35 -14 19 0 35 -4 35 -10 0 -5
5 -10 10 -10 14 0 12 19 -3 34 -30 30 -73 45 -118 39 -24 -3 -46 -9 -49 -12
-8 -10 -49 -31 -60 -31 -5 0 -10 7 -10 15 0 13 -7 15 -35 9 -28 -5 -35 -3 -35
10 0 23 -42 21 -73 -4 -21 -16 -27 -17 -36 -6 -6 7 -9 21 -5 30 7 19 -16 22
-34 4 -9 -9 -12 -9 -12 0 0 7 -5 12 -11 12 -7 0 -18 8 -25 17 -7 10 -16 14
-21 10 -4 -5 0 -14 10 -21 9 -7 17 -18 17 -23 0 -13 -92 -14 -107 -1 -20 16
-5 28 33 28 21 0 33 4 29 10 -3 6 -17 10 -31 10 -38 0 -27 29 21 56 22 12 41
29 43 38 4 18 -15 21 -37 7 -21 -14 -51 5 -51 32 l-1 22 -18 -22 c-11 -13 -24
-23 -30 -23 -18 0 -12 29 9 42 11 7 20 19 20 27 0 10 -6 8 -21 -8 -14 -15 -27
-20 -41 -16 -21 7 -78 -12 -90 -29 -4 -6 -10 -7 -14 -3 -4 3 -1 13 5 21 15 18
6 36 -19 36 -16 0 -35 25 -32 43 3 14 -49 7 -54 -8 -8 -20 -34 -19 -34 1 0 12
-4 14 -12 7 -20 -15 -60 -9 -96 14 -33 21 -66 21 -79 0 -4 -6 -7 -36 -7 -67
-1 -52 -2 -55 -28 -58 -23 -3 -28 -8 -28 -31 0 -15 5 -32 12 -39 16 -16 -41
-17 -76 -1 -39 18 -40 39 -4 76 33 34 62 43 71 21 3 -7 6 -2 6 12 1 41 -21 60
-70 61 -24 0 -53 4 -64 8 -14 6 -34 -1 -71 -26 -39 -26 -66 -36 -110 -40 -39
-4 -64 -12 -74 -23 -37 -45 -92 -70 -150 -70 -43 0 -63 -5 -80 -20 -34 -30
-38 -14 -5 20 25 26 36 30 82 30 50 0 103 21 103 40 0 11 -54 7 -62 -5 -5 -6
-8 -6 -8 2 0 23 64 63 90 56 19 -5 22 -3 17 10 -8 21 -9 20 43 2 33 -12 51
-13 81 -5 43 12 79 44 79 71 0 10 3 24 6 33 4 11 1 16 -10 16 -21 0 -20 6 3
38 10 15 26 44 34 65 9 20 21 37 26 37 6 0 11 7 11 15 0 8 7 15 15 15 8 0 15
7 15 15 0 9 12 34 27 56 14 22 27 49 28 60 1 10 10 26 21 34 11 8 14 15 7 15
-19 0 -16 17 9 42 14 14 23 18 26 10 5 -17 29 -15 36 4 9 23 -1 34 -32 35 -15
0 -21 3 -13 6 35 14 49 40 44 89 l-4 48 28 -26 28 -27 21 22 c19 21 27 40 41
110 4 20 1 27 -11 27 -19 0 -21 11 -4 28 17 17 -6 62 -32 62 -11 0 -20 -4 -20
-10 0 -5 9 -10 20 -10 11 0 20 -7 20 -15 0 -8 -5 -15 -11 -15 -6 0 -8 -7 -5
-15 3 -9 -1 -18 -8 -21 -11 -4 -12 -13 -6 -36 16 -55 -37 -94 -71 -50 -13 16
-13 16 5 2 18 -14 19 -13 13 27 -4 23 -10 48 -13 57 -4 11 -1 16 10 16 18 0
21 11 7 25 -14 16 -20 82 -8 94 8 8 6 16 -6 29 -21 23 -12 34 18 20 16 -7 29
-7 44 1 25 14 27 29 6 38 -14 5 -14 8 2 26 13 14 15 21 6 24 -24 8 -13 25 12
21 19 -4 25 -1 25 13 0 9 -6 19 -12 21 -9 3 -4 17 15 42 16 20 33 34 38 31 5
-4 9 4 9 15 0 13 8 24 20 27 13 3 20 14 20 28 0 14 7 25 19 28 14 3 18 11 14
26 -4 15 -1 21 12 21 10 0 15 5 12 13 -3 7 4 19 14 26 11 6 17 16 14 20 -2 5
9 23 27 40 27 27 29 32 17 47 -8 9 -14 18 -14 18 0 1 8 12 17 25 17 23 17 26
1 44 -10 11 -13 21 -8 25 45 32 65 108 39 144 -5 7 -9 32 -9 55 0 48 -7 53
-29 21 l-16 -22 0 26 c0 14 6 29 13 31 6 3 2 6 -10 6 -29 1 -38 17 -16 30 16
9 16 10 1 11 -9 0 -29 5 -45 11 -26 10 -27 12 -10 23 21 16 22 26 2 26 -9 0
-18 7 -21 15 -7 17 -59 21 -69 5 -4 -6 -15 -8 -25 -5 -10 3 -21 1 -25 -5 -3
-5 -16 -10 -28 -10 -21 1 -21 1 -4 14 16 12 16 14 1 20 -31 12 -64 7 -58 -9 4
-8 12 -15 20 -15 8 0 14 -4 14 -10 0 -16 -19 -12 -43 10 -12 12 -28 18 -37 14
-8 -3 -22 -7 -30 -8 -63 -9 -117 -20 -125 -26 -16 -12 -55 8 -55 29 0 26 -28
35 -56 16 -29 -19 -69 -6 -77 25 -5 18 -11 21 -30 16 -21 -5 -24 -3 -20 14 3
11 1 20 -3 21 -5 0 -18 2 -29 4 -16 3 -20 -2 -22 -25z m72 -100 c3 -5 1 -10
-4 -10 -6 0 -11 5 -11 10 0 6 2 10 4 10 3 0 8 -4 11 -10z m313 -12 c20 -20 14
-29 -15 -22 -35 8 -37 10 -28 23 8 14 28 14 43 -1z m307 -28 c8 -13 -5 -13
-25 0 -13 8 -13 10 2 10 9 0 20 -4 23 -10z m-397 -22 c17 -17 15 -28 -6 -28
-24 0 -32 8 -25 26 6 17 15 18 31 2z m-178 -48 c0 -5 -9 -10 -21 -10 -11 0
-17 5 -14 10 3 6 13 10 21 10 8 0 14 -4 14 -10z m210 -15 c0 -8 -4 -15 -10
-15 -5 0 -10 -9 -10 -21 0 -11 -4 -17 -10 -14 -14 8 -13 38 2 53 16 16 28 15
28 -3z m47 -57 c-3 -8 -6 -5 -6 6 -1 11 2 17 5 13 3 -3 4 -12 1 -19z m-189
-80 c-5 -16 -48 -24 -48 -9 0 8 17 16 43 20 5 0 7 -5 5 -11z m72 -38 c-20 -13
-40 -13 -40 0 0 6 12 10 28 10 21 0 24 -2 12 -10z m-356 -146 c3 -9 6 -17 6
-19 0 -5 -56 -24 -90 -29 l-35 -6 41 19 c23 10 44 26 47 35 8 20 23 21 31 0z
m76 -24 c0 -5 -2 -10 -4 -10 -3 0 -8 5 -11 10 -3 6 -1 10 4 10 6 0 11 -4 11
-10z m404 -5 c-6 -16 -24 -21 -24 -7 0 11 11 22 21 22 5 0 6 -7 3 -15z m-84
-15 c0 -5 -4 -10 -10 -10 -5 0 -10 5 -10 10 0 6 5 10 10 10 6 0 10 -4 10 -10z
m-584 -25 c-22 -17 -36 -19 -36 -7 0 14 12 22 34 22 21 -1 21 -1 2 -15z m626
-18 c-12 -13 -22 -28 -22 -34 0 -13 -38 -28 -47 -19 -4 3 1 6 10 6 10 0 17 4
17 9 0 16 -20 23 -33 13 -7 -5 -20 -12 -30 -15 -15 -6 -17 -3 -12 13 5 15 3
18 -8 14 -8 -3 -18 -1 -22 5 -4 7 16 11 60 11 47 0 71 5 82 15 24 25 29 8 5
-18z m-651 -8 c20 -10 20 -11 3 -30 -21 -23 -34 -24 -34 -4 0 8 -7 15 -15 15
-18 0 -20 16 -2 23 19 8 27 8 48 -4z m79 -13 c0 -2 -7 -6 -15 -10 -8 -3 -15
-1 -15 4 0 6 7 10 15 10 8 0 15 -2 15 -4z m144 -20 c-10 -8 -21 -12 -23 -10
-3 2 4 11 15 18 10 8 21 12 23 10 3 -2 -4 -11 -15 -18z m486 -14 c0 -9 -6 -12
-16 -8 -9 3 -20 6 -25 6 -5 0 -9 4 -9 10 0 5 11 9 25 8 14 -1 25 -9 25 -16z
m-595 -2 c6 -11 -42 -26 -52 -16 -4 3 1 6 10 6 10 0 17 5 17 10 0 13 17 13 25
0z m228 -17 c-7 -2 -21 -2 -30 0 -10 3 -4 5 12 5 17 0 24 -2 18 -5z m-335 -49
c34 -10 20 -29 -19 -27 -19 0 -44 1 -56 2 -13 1 -23 7 -23 16 0 16 53 21 98 9z
m75 0 c7 -8 -17 -34 -32 -34 -15 0 -14 27 2 33 18 8 23 8 30 1z m-138 -74 c-3
-5 -12 -7 -20 -3 -21 7 -19 13 6 13 11 0 18 -4 14 -10z m65 -10 c0 -13 -20
-13 -40 0 -12 8 -9 10 13 10 15 0 27 -4 27 -10z m50 6 c0 -3 -4 -8 -10 -11 -5
-3 -10 -1 -10 4 0 6 5 11 10 11 6 0 10 -2 10 -4z m-47 -63 c9 -3 17 -9 17 -14
0 -14 -28 -11 -34 4 -3 9 -9 7 -19 -5 -8 -10 -20 -18 -26 -18 -7 0 -10 -4 -7
-8 3 -5 -1 -9 -9 -9 -8 0 -15 4 -15 8 0 4 -9 11 -21 14 -12 4 -17 11 -13 15
14 13 78 29 94 23 8 -3 23 -8 33 -10z m-393 -33 c0 -5 -7 -10 -16 -10 -8 0
-12 5 -9 10 3 6 10 10 16 10 5 0 9 -4 9 -10z m1090 -16 c0 -16 -2 -16 -24 -8
-12 5 -13 9 -3 19 14 15 27 10 27 -11z m-967 -51 c15 -4 16 -7 6 -19 -11 -13
-14 -13 -21 0 -11 20 -48 21 -74 1 -33 -25 -50 -18 -24 10 24 25 46 27 113 8z
m97 -13 c0 -5 -4 -10 -10 -10 -5 0 -10 5 -10 10 0 6 5 10 10 10 6 0 10 -4 10
-10z m880 -60 c0 -5 -7 -10 -15 -10 -8 0 -15 5 -15 10 0 6 7 10 15 10 8 0 15
-4 15 -10z m-972 -17 c2 -7 -4 -13 -12 -13 -9 0 -19 -7 -22 -15 -8 -19 -23
-19 -65 2 l-34 17 44 8 c24 4 46 10 49 13 10 9 35 1 40 -12z m-268 -8 c0 -8
-6 -15 -14 -15 -17 0 -28 14 -19 24 12 12 33 6 33 -9z m94 -12 c-19 -14 -37
-17 -47 -6 -10 9 35 31 52 25 11 -4 10 -8 -5 -19z m-170 -8 c-6 -16 -24 -21
-24 -7 0 11 11 22 21 22 5 0 6 -7 3 -15z m21 -55 c5 0 17 7 27 17 10 9 21 13
25 10 3 -4 -6 -18 -20 -31 -15 -14 -27 -21 -27 -17 0 5 -14 11 -31 15 -27 5
-30 8 -18 22 12 14 14 14 25 0 6 -9 15 -16 19 -16z m-25 -30 c0 -5 -5 -10 -11
-10 -5 0 -7 5 -4 10 3 6 8 10 11 10 2 0 4 -4 4 -10z m-60 -25 c0 -8 -4 -15
-10 -15 -5 0 -10 7 -10 15 0 8 5 15 10 15 6 0 10 -7 10 -15z m855 -181 c7 -41
2 -52 -18 -35 -11 9 -17 8 -27 -4 -7 -8 -19 -15 -26 -15 -10 0 -8 11 8 45 27
56 53 60 63 9z m-71 -69 c16 -12 17 -17 6 -30 -13 -16 -46 -20 -53 -7 -6 10
10 52 20 52 4 0 17 -7 27 -15z m-25 -71 c1 -1 -1 -15 -6 -31 -6 -19 -18 -29
-34 -31 -19 -3 -22 -1 -11 9 18 19 15 39 -8 39 -22 0 -27 16 -7 23 11 5 57 -2
66 -9z m81 -3 c0 -12 -20 -25 -27 -18 -7 7 6 27 18 27 5 0 9 -4 9 -9z m110
-391 c0 -5 -4 -10 -10 -10 -5 0 -10 5 -10 10 0 6 5 10 10 10 6 0 10 -4 10 -10z
m-30 -50 c0 -5 -4 -10 -10 -10 -5 0 -10 5 -10 10 0 6 5 10 10 10 6 0 10 -4 10
-10z m260 -15 c0 -15 -6 -25 -14 -25 -8 0 -16 -5 -18 -10 -2 -6 -26 -13 -55
-16 -45 -6 -52 -4 -62 15 -11 19 -9 21 19 21 17 0 40 -5 51 -10 16 -9 19 -7
19 10 0 11 7 20 15 20 8 0 15 5 15 10 0 6 7 10 15 10 9 0 15 -9 15 -25z m-356
-49 c17 -6 17 -8 4 -24 -8 -9 -18 -25 -21 -35 -6 -15 -13 -17 -36 -12 -24 5
-32 2 -41 -16 -10 -17 -14 -19 -21 -8 -9 16 -24 5 -24 -18 0 -24 -18 -26 -32
-4 -10 16 -8 20 15 32 27 14 42 24 67 47 7 6 18 12 24 12 6 0 11 5 11 10 0 6
-12 10 -27 10 l-28 1 24 13 c16 9 33 11 45 6 12 -5 29 -11 40 -14z m-454 -21
c0 -8 -4 -15 -10 -15 -5 0 -10 7 -10 15 0 8 5 15 10 15 6 0 10 -7 10 -15z
m1360 -16 c0 -15 -21 -21 -48 -14 -15 4 -21 10 -14 12 6 3 12 11 12 19 0 11 5
11 25 2 14 -6 25 -15 25 -19z m-1279 -6 c31 -30 41 -56 12 -31 -10 8 -26 18
-35 21 -10 4 -18 13 -18 22 0 21 8 19 41 -12z m1188 13 c10 -12 8 -13 -8 -9
-12 3 -18 9 -15 14 7 12 10 11 23 -5z m-1336 -71 c-3 -8 -9 -15 -14 -15 -10 0
-12 24 -3 33 11 11 24 -3 17 -18z m234 9 c-3 -3 -12 -4 -19 -1 -8 3 -5 6 6 6
11 1 17 -2 13 -5z m1358 -14 c0 -8 -8 -16 -17 -18 -13 -2 -18 3 -18 18 0 15 5
20 18 18 9 -2 17 -10 17 -18z m-137 -2 c-3 -7 -20 -22 -39 -32 l-34 -19 29 31
c30 33 51 42 44 20z m-1418 -60 c0 -5 -7 -8 -15 -8 -8 0 -15 2 -15 4 0 2 -3
12 -6 21 -6 15 -4 15 15 4 11 -8 21 -17 21 -21z m1600 -113 c0 -9 -55 -5 -70
5 -13 9 -13 11 -1 19 14 9 71 -11 71 -24z m280 -25 c8 -5 12 -11 9 -14 -3 -3
-14 1 -25 9 -21 16 -8 20 16 5z m420 -273 c0 -8 -19 -18 -45 -24 -25 -6 -45
-6 -45 -2 0 5 11 9 24 9 13 0 29 7 36 15 15 19 30 19 30 2z m-180 -47 c0 -5 8
-10 18 -11 13 0 12 -3 -6 -12 -18 -8 -25 -8 -32 3 -5 8 -6 18 -4 22 7 11 24
10 24 -2z m-50 -25 c0 -8 -4 -15 -10 -15 -5 0 -10 7 -10 15 0 8 5 15 10 15 6
0 10 -7 10 -15z m200 -70 c0 -8 -9 -15 -20 -15 -13 0 -20 -7 -20 -18 0 -10 -5
-23 -12 -30 -15 -15 -42 -16 -33 -2 4 6 1 17 -5 25 -10 12 -7 16 13 24 14 5
28 15 32 20 10 16 45 13 45 -4z m-115 -60 c11 -12 28 -25 38 -28 27 -10 21
-37 -8 -37 -18 0 -25 5 -25 20 0 19 -32 45 -43 34 -9 -9 -79 25 -72 36 11 17
88 -1 110 -25z m-132 -1 c16 -20 17 -22 0 -35 -15 -12 -16 -12 -10 3 3 9 -1
22 -8 28 -8 7 -12 17 -9 22 3 5 7 8 8 6 0 -2 9 -12 19 -24z m405 -77 c46 -13
57 -13 80 -1 49 25 112 13 78 -15 -11 -10 -17 -8 -24 6 -10 16 -12 16 -29 1
-10 -9 -25 -17 -33 -19 -25 -4 -100 12 -100 22 0 14 -52 11 -83 -6 -27 -14
-57 -11 -57 6 0 5 6 9 14 9 8 0 16 3 18 8 2 4 14 14 28 23 22 15 25 15 40 -2
8 -9 39 -24 68 -32z m116 47 c34 -13 13 -24 -44 -24 -55 0 -78 11 -47 23 18 8
73 8 91 1z m-470 -50 c10 -26 -4 -37 -25 -18 -15 13 -17 19 -7 26 19 11 25 10
32 -8z m-1524 -30 c0 -2 -7 -4 -15 -4 -8 0 -15 4 -15 10 0 5 7 7 15 4 8 -4 15
-8 15 -10z m1674 1 c-4 -8 -11 -15 -16 -15 -6 0 -5 6 2 15 7 8 14 15 16 15 2
0 1 -7 -2 -15z m155 6 c9 -6 10 -11 2 -15 -13 -8 -31 1 -31 15 0 11 11 11 29
0z m361 -1 c0 -12 -11 -16 -63 -24 -49 -6 -46 16 4 25 53 10 59 10 59 -1z
m-165 -11 c10 -15 -1 -23 -20 -15 -9 3 -13 10 -10 16 8 13 22 13 30 -1z m-542
-19 c-9 -11 -19 -17 -21 -15 -6 6 18 35 29 35 5 0 1 -9 -8 -20z m448 0 c16 0
9 -30 -12 -53 -15 -15 -23 -18 -26 -9 -3 6 -14 12 -26 12 -12 0 -28 4 -36 9
-31 20 33 56 77 44 8 -1 18 -3 23 -3z m-486 -20 c-3 -5 -10 -10 -16 -10 -5 0
-9 5 -9 10 0 6 7 10 16 10 8 0 12 -4 9 -10z m235 -4 c0 -3 -4 -8 -10 -11 -5
-3 -10 -1 -10 4 0 6 5 11 10 11 6 0 10 -2 10 -4z m97 -33 c-7 -8 -21 -11 -30
-7 -27 10 -20 21 13 21 26 0 29 -2 17 -14z m242 1 c2 -2 -7 -13 -21 -24 -14
-10 -31 -33 -38 -50 -7 -16 -16 -30 -21 -30 -18 0 -20 23 -3 48 10 15 17 31
16 36 -7 24 9 38 36 31 15 -4 29 -8 31 -11z m-454 -24 c-3 -5 -16 -10 -28 -9
-21 0 -21 1 -2 9 28 12 37 12 30 0z m295 -52 c0 -13 -23 -5 -28 10 -2 7 2 10
12 6 9 -3 16 -11 16 -16z m-213 6 c-3 -3 -12 -4 -19 -1 -8 3 -5 6 6 6 11 1 17
-2 13 -5z m303 -58 c0 -8 -14 -22 -32 -30 -35 -18 -33 -19 -42 12 -6 16 -3 22
8 22 9 0 16 -5 16 -12 0 -8 6 -6 17 5 21 21 33 22 33 3z m-190 -26 c0 -5 -7
-10 -15 -10 -8 0 -15 5 -15 10 0 6 7 10 15 10 8 0 15 -4 15 -10z m80 -30 c0
-5 -5 -10 -11 -10 -5 0 -7 5 -4 10 3 6 8 10 11 10 2 0 4 -4 4 -10z m175 0 c3
-5 1 -10 -4 -10 -6 0 -11 5 -11 10 0 6 2 10 4 10 3 0 8 -4 11 -10z m177 -16
c-24 -17 -39 -14 -27 5 3 6 16 11 28 11 l21 0 -22 -16z m-538 -43 c-10 -2 -24
5 -31 15 -22 30 -14 36 18 12 25 -19 28 -24 13 -27z m546 14 c18 -11 10 -25
-15 -25 -16 0 -25 -6 -25 -15 0 -18 -29 -20 -34 -2 -13 42 -16 45 -35 40 -27
-7 -27 -21 2 -33 19 -8 18 -9 -13 -10 -19 0 -45 -3 -57 -6 -31 -8 -29 9 3 39
24 22 34 24 96 21 38 -2 73 -6 78 -9z m-370 -35 c0 -5 -7 -10 -16 -10 -8 0
-12 5 -9 10 3 6 10 10 16 10 5 0 9 -4 9 -10z m134 -59 c7 -11 -22 -23 -36 -15
-6 4 -5 10 3 15 18 11 26 11 33 0z m101 -51 c40 -15 21 -30 -23 -18 -20 5 -41
14 -46 19 -13 12 36 12 69 -1z m-85 -34 c0 -3 -4 -8 -10 -11 -5 -3 -10 -1 -10
4 0 6 5 11 10 11 6 0 10 -2 10 -4z"/>
<path d="M5480 5171 c0 -5 7 -11 15 -15 9 -3 15 0 15 9 0 8 -7 15 -15 15 -8 0
-15 -4 -15 -9z"/>
<path d="M7233 5163 c9 -2 25 -2 35 0 9 3 1 5 -18 5 -19 0 -27 -2 -17 -5z"/>
<path d="M7000 5155 c0 -16 50 -53 72 -53 24 0 26 3 17 19 -5 10 -22 21 -37
25 -15 3 -33 7 -39 10 -7 2 -13 1 -13 -1z"/>
<path d="M7170 5125 c7 -8 19 -15 27 -15 13 0 13 3 3 15 -7 8 -19 15 -27 15
-13 0 -13 -3 -3 -15z"/>
<path d="M7350 5130 c0 -5 4 -10 9 -10 6 0 13 5 16 10 3 6 -1 10 -9 10 -9 0
-16 -4 -16 -10z"/>
<path d="M5617 5118 c-9 -7 -26 -43 -36 -80 -18 -62 -18 -69 -3 -102 17 -37
32 -47 32 -21 0 25 18 17 35 -15 16 -30 42 -43 31 -15 -4 10 1 15 14 15 17 0
18 2 5 28 -38 76 -41 89 -43 155 -2 49 -7 55 -35 35z"/>
<path d="M6008 4847 c-16 -13 -28 -26 -28 -29 0 -17 54 2 76 25 l25 27 -23 0
c-13 -1 -35 -11 -50 -23z"/>
<path d="M2558 4830 c-2 -17 -9 -25 -21 -24 -23 2 -22 -18 3 -34 16 -10 20
-23 20 -71 0 -69 15 -118 41 -132 24 -12 26 7 4 31 -32 35 -32 170 0 170 39 0
115 23 115 35 0 10 -9 11 -37 4 -68 -15 -91 -11 -107 18 l-14 28 -4 -25z"/>
<path d="M2920 4845 c-1 -5 -1 -50 0 -99 l2 -90 -27 32 c-31 37 -59 41 -76 11
-16 -32 4 -93 40 -118 48 -34 129 -23 94 13 -5 4 -7 51 -5 104 1 68 -2 106
-12 127 -8 17 -15 26 -16 20z m-30 -197 c28 -54 21 -70 -18 -41 -19 14 -28 30
-30 58 -4 50 15 43 48 -17z"/>
<path d="M1440 4753 l0 -88 -23 28 c-16 21 -30 28 -47 25 -24 -3 -25 -7 -25
-68 0 -58 -2 -65 -20 -65 -18 0 -20 8 -23 62 -4 77 -21 97 -56 64 -23 -22 -25
-22 -34 -4 -6 10 -13 16 -15 13 -9 -9 7 -150 17 -153 9 -2 12 5 36 92 9 33 14
41 21 30 5 -8 7 -30 3 -50 -4 -29 -1 -42 19 -65 23 -27 26 -27 48 -12 20 13
33 14 76 5 57 -12 70 -7 58 20 -5 10 -7 57 -6 105 2 47 0 100 -4 117 -13 59
-25 31 -25 -56z m-14 -129 c9 -34 0 -40 -30 -21 -25 17 -43 68 -30 88 9 16 51
-31 60 -67z"/>
<path d="M3664 4823 c1 -13 -5 -17 -21 -16 -29 3 -29 -10 -2 -29 18 -12 22
-26 26 -96 3 -66 1 -82 -10 -82 -17 0 -38 70 -30 99 6 24 -30 45 -63 37 -28
-7 -43 -32 -52 -89 -10 -59 -37 -62 -52 -7 -26 96 -47 115 -85 74 l-24 -25
-16 25 c-22 33 -38 33 -63 -1 l-19 -27 -12 22 c-14 26 -37 30 -26 5 5 -10 16
-47 25 -83 9 -36 21 -64 26 -63 5 1 12 33 17 70 4 36 10 69 13 72 11 12 34
-34 40 -81 10 -76 43 -75 44 2 0 43 10 80 20 80 8 0 25 -40 34 -83 10 -42 42
-70 66 -57 12 7 21 7 25 0 11 -17 34 -11 57 15 l21 24 24 -25 c19 -20 27 -23
38 -14 10 9 19 9 35 0 29 -16 37 -5 15 20 -13 15 -20 41 -23 99 l-4 78 60 7
c34 4 66 13 73 22 17 21 8 25 -32 14 -54 -16 -87 -12 -99 10 -13 25 -28 26
-26 3z m-70 -152 c-7 -40 -29 -81 -44 -81 -16 0 -12 83 5 107 24 34 47 19 39
-26z"/>
<path d="M6770 4800 c0 -5 5 -10 10 -10 6 0 10 5 10 10 0 6 -4 10 -10 10 -5 0
-10 -4 -10 -10z"/>
<path d="M1005 4780 c-4 -11 -5 -44 -4 -73 1 -29 -1 -58 -4 -64 -11 -17 4 -73
19 -73 7 0 16 10 20 23 15 48 45 49 67 1 10 -19 22 -32 27 -29 7 4 7 13 0 24
-8 16 -17 69 -19 114 -1 9 -7 17 -14 17 -7 0 -21 18 -31 40 -19 44 -50 54 -61
20z m40 -30 c4 -12 16 -30 28 -41 17 -15 19 -23 11 -37 -6 -9 -20 -18 -32 -20
-18 -3 -21 3 -24 57 -3 61 5 79 17 41z"/>
<path d="M5961 4755 c-7 -25 -17 -45 -22 -45 -5 0 -9 -7 -9 -15 0 -8 6 -15 13
-15 14 0 58 29 45 30 -4 0 0 16 8 35 18 45 18 55 -4 55 -12 0 -22 -13 -31 -45z"/>
<path d="M6305 4772 c-17 -15 -41 -34 -55 -43 -14 -9 -21 -21 -17 -25 5 -5 15
0 23 11 8 11 24 19 34 17 14 -2 23 5 30 22 5 14 14 26 20 26 5 0 10 5 10 10 0
16 -13 11 -45 -18z"/>
<path d="M1661 4759 c7 -14 5 -21 -11 -29 -10 -6 -24 -28 -30 -50 -6 -22 -17
-40 -24 -40 -7 0 -18 -11 -24 -25 -6 -14 -18 -25 -26 -25 -31 0 -47 70 -26
111 10 18 12 18 35 3 22 -14 25 -14 25 -1 0 22 -26 39 -50 32 -23 -7 -50 -53
-50 -85 0 -30 30 -79 53 -86 13 -4 28 3 47 21 27 26 28 26 34 7 12 -38 65 -35
80 4 6 15 9 15 30 -5 27 -25 59 -25 64 0 2 12 -3 15 -21 12 -21 -4 -25 0 -35
36 -5 23 -8 50 -5 60 3 12 -3 24 -17 34 -13 9 -17 17 -11 22 19 11 12 20 -19
21 -25 1 -28 -1 -19 -17z m39 -90 c-12 -40 -37 -79 -52 -79 -14 0 -5 94 12
114 9 11 17 13 30 6 15 -8 17 -15 10 -41z"/>
<path d="M2410 4755 c0 -8 -9 -19 -20 -25 -10 -6 -25 -28 -31 -50 -7 -22 -18
-40 -25 -40 -7 0 -15 -9 -19 -19 -7 -25 -34 -35 -51 -20 -18 14 -18 80 -1 103
12 16 14 16 26 2 17 -20 31 -21 31 -1 0 9 -11 21 -25 27 -22 10 -29 9 -46 -9
-30 -30 -35 -91 -10 -130 25 -40 52 -42 79 -8 l20 25 16 -25 c21 -32 39 -32
69 1 l24 26 16 -22 c18 -26 60 -24 65 3 3 15 -1 17 -22 11 -21 -5 -26 -2 -32
22 -4 15 -7 41 -8 58 -2 48 -56 117 -56 71z m25 -84 c-11 -62 -48 -102 -61
-67 -7 18 15 99 29 108 24 15 39 -4 32 -41z"/>
<path d="M1095 4750 c3 -5 8 -10 11 -10 2 0 4 5 4 10 0 6 -5 10 -11 10 -5 0
-7 -4 -4 -10z"/>
<path d="M1150 4750 c0 -5 5 -10 10 -10 6 0 10 5 10 10 0 6 -4 10 -10 10 -5 0
-10 -4 -10 -10z"/>
<path d="M2180 4750 c0 -5 5 -10 10 -10 6 0 10 5 10 10 0 6 -4 10 -10 10 -5 0
-10 -4 -10 -10z"/>
<path d="M3847 4733 c-3 -4 -10 -28 -17 -53 -14 -54 -37 -93 -50 -85 -6 4 -10
33 -10 66 0 78 -24 77 -28 0 -5 -84 37 -129 72 -79 l16 22 16 -22 c10 -15 25
-22 48 -22 33 0 34 1 41 57 10 83 13 88 40 63 30 -28 41 -10 14 24 -23 29 -47
34 -55 11 -8 -20 -24 -19 -24 1 0 9 -6 14 -12 11 -8 -2 -11 -14 -8 -28 10 -55
5 -104 -10 -104 -12 0 -15 14 -15 67 -1 64 -7 89 -18 71z"/>
<path d="M2066 4659 c3 -41 8 -80 10 -87 8 -28 22 0 29 58 4 33 10 62 15 65
12 8 47 -38 54 -71 4 -18 17 -40 28 -50 21 -19 21 -19 13 6 -4 14 -9 45 -12
70 -6 64 -11 76 -25 62 -9 -9 -16 -8 -30 5 -16 14 -22 15 -39 4 -16 -9 -24 -9
-35 0 -12 10 -14 2 -8 -62z"/>
<path d="M3012 4723 c-19 -7 -42 -58 -42 -93 0 -34 30 -70 59 -70 20 0 71 36
71 51 0 14 -20 11 -37 -7 -17 -17 -54 -15 -60 3 -4 12 50 46 59 37 3 -2 11 2
17 10 10 11 9 21 -4 45 -15 29 -33 36 -63 24z m32 -50 c-23 -17 -48 -17 -38 0
19 33 26 38 41 25 13 -10 12 -14 -3 -25z"/>
<path d="M4900 4715 c0 -8 5 -15 11 -15 6 0 9 -9 6 -20 -4 -14 0 -20 11 -20
12 0 13 -3 4 -12 -7 -7 -12 -22 -12 -34 0 -23 42 -40 90 -35 34 3 35 6 12 36
-11 14 -18 33 -15 43 2 11 -7 28 -26 45 -34 30 -81 37 -81 12z"/>
<path d="M1147 4713 c-22 -21 4 -143 30 -143 11 0 13 5 8 18 -5 9 -11 40 -14
69 -7 54 -13 68 -24 56z"/>
<path d="M1946 4701 c-10 -11 -20 -37 -23 -58 -10 -75 71 -110 120 -52 22 28
22 56 -3 97 -23 38 -66 44 -94 13z m72 -23 c17 -17 15 -63 -2 -78 -24 -19 -61
-8 -64 19 -6 42 6 71 31 71 13 0 28 -5 35 -12z"/>
<path d="M6363 4687 c-52 -31 -65 -47 -40 -47 11 1 108 79 97 79 -3 0 -28 -14
-57 -32z"/>
<path d="M6863 4713 c-22 -8 -14 -21 15 -25 22 -3 28 0 28 14 0 17 -17 22 -43
11z"/>
<path d="M6394 4665 c-17 -13 -17 -14 -2 -15 9 0 20 5 23 11 11 17 0 20 -21 4z"/>
<path d="M6235 4630 c-17 -34 -18 -40 -6 -40 16 0 41 31 41 51 0 28 -17 23
-35 -11z"/>
<path d="M5275 4630 c-3 -5 1 -10 9 -10 9 0 16 5 16 10 0 6 -4 10 -9 10 -6 0
-13 -4 -16 -10z"/>
<path d="M5785 4630 c-3 -5 3 -10 14 -10 12 0 21 5 21 10 0 6 -6 10 -14 10 -8
0 -18 -4 -21 -10z"/>
<path d="M6970 4620 c0 -5 7 -7 15 -4 8 4 15 8 15 10 0 2 -7 4 -15 4 -8 0 -15
-4 -15 -10z"/>
<path d="M5640 4600 c20 -13 33 -13 25 0 -3 6 -14 10 -23 10 -15 0 -15 -2 -2
-10z"/>
<path d="M5310 4589 c-25 -10 -25 -10 14 -29 35 -16 66 -17 66 -3 0 6 -43 42
-50 42 -3 0 -16 -5 -30 -10z"/>
<path d="M915 4580 c-3 -5 -1 -10 4 -10 6 0 11 5 11 10 0 6 -2 10 -4 10 -3 0
-8 -4 -11 -10z"/>
<path d="M955 4580 c-3 -5 -1 -10 4 -10 6 0 11 5 11 10 0 6 -2 10 -4 10 -3 0
-8 -4 -11 -10z"/>
<path d="M5960 4566 c0 -7 -7 -19 -15 -26 -9 -7 -13 -15 -11 -18 6 -6 56 39
56 51 0 4 -7 7 -15 7 -8 0 -15 -6 -15 -14z"/>
<path d="M5220 4549 c-95 -44 -95 -44 -75 -47 10 -2 27 1 39 7 11 5 32 11 45
13 13 2 30 13 39 26 18 27 10 27 -48 1z"/>
<path d="M6225 4560 c-3 -5 -2 -10 4 -10 5 0 13 5 16 10 3 6 2 10 -4 10 -5 0
-13 -4 -16 -10z"/>
<path d="M5805 4520 c-10 -11 -13 -20 -7 -20 6 0 16 9 22 20 6 11 9 20 7 20
-2 0 -12 -9 -22 -20z"/>
<path d="M6093 4512 c-28 -4 -31 -22 -4 -22 11 0 21 -5 23 -12 5 -13 38 -4 38
11 0 15 -32 28 -57 23z"/>
<path d="M5662 4490 c1 -13 9 -25 16 -28 17 -5 15 23 -4 39 -14 11 -15 10 -12
-11z"/>
<path d="M6194 4495 c3 -8 -2 -19 -12 -24 -11 -7 -14 -13 -7 -20 14 -14 31 -1
39 32 5 21 3 27 -10 27 -10 0 -14 -5 -10 -15z"/>
<path d="M6257 4503 c-4 -3 -7 -13 -7 -21 0 -11 3 -12 13 -3 8 6 16 9 19 6 3
-3 11 1 18 10 11 13 9 15 -12 15 -14 0 -28 -3 -31 -7z"/>
<path d="M5065 4490 c-11 -17 5 -32 21 -19 8 6 14 15 14 20 0 12 -27 11 -35
-1z"/>
<path d="M5916 4465 c4 -8 8 -15 10 -15 2 0 4 7 4 15 0 8 -4 15 -10 15 -5 0
-7 -7 -4 -15z"/>
<path d="M5585 4460 c-3 -5 1 -10 10 -10 9 0 13 5 10 10 -3 6 -8 10 -10 10 -2
0 -7 -4 -10 -10z"/>
<path d="M1159 4455 c-1 -5 -1 -47 1 -92 1 -46 0 -83 -3 -83 -3 0 -19 14 -37
31 -30 30 -31 31 -50 14 -52 -47 7 -155 83 -155 35 0 58 16 40 29 -5 3 -9 53
-9 111 -1 58 -6 116 -12 130 -6 14 -12 21 -13 15z m-54 -159 c18 -17 45 -83
37 -90 -21 -21 -62 24 -62 69 0 38 4 42 25 21z"/>
<path d="M1760 4434 c0 -21 -4 -25 -20 -21 -30 8 -33 -9 -5 -27 21 -14 25 -24
25 -69 0 -63 15 -120 35 -137 24 -20 31 -2 12 29 -12 20 -17 51 -17 100 l0 71
35 0 c20 0 52 7 71 15 44 18 37 37 -9 24 -60 -17 -96 -12 -107 16 -12 32 -20
32 -20 -1z"/>
<path d="M5516 4429 c-8 -43 -8 -59 3 -59 11 0 21 72 11 83 -4 5 -10 -6 -14
-24z"/>
<path d="M5685 4449 c-4 -6 -5 -13 -2 -16 7 -7 27 6 27 18 0 12 -17 12 -25 -2z"/>
<path d="M5790 4439 c0 -5 5 -7 10 -4 6 3 10 8 10 11 0 2 -4 4 -10 4 -5 0 -10
-5 -10 -11z"/>
<path d="M6023 4438 c-21 -33 -31 -58 -24 -58 5 0 16 11 25 25 9 14 25 25 36
25 10 0 22 5 25 10 9 15 -52 12 -62 -2z"/>
<path d="M5880 4420 c0 -5 7 -10 15 -10 8 0 15 5 15 10 0 6 -7 10 -15 10 -8 0
-15 -4 -15 -10z"/>
<path d="M5115 4410 c-3 -5 1 -10 9 -10 9 0 16 5 16 10 0 6 -4 10 -9 10 -6 0
-13 -4 -16 -10z"/>
<path d="M2925 4390 c-3 -11 -5 -44 -4 -73 1 -29 0 -58 -3 -63 -9 -14 6 -77
19 -81 6 -2 14 10 18 26 4 17 10 31 15 31 5 0 15 2 22 5 9 4 20 -7 31 -30 17
-36 37 -47 37 -21 0 8 -4 18 -10 21 -5 3 -10 25 -10 48 0 32 -9 55 -38 97 -42
60 -67 73 -77 40z m59 -63 c30 -44 32 -53 10 -61 -38 -15 -44 -8 -44 51 0 31
2 54 4 52 3 -3 16 -21 30 -42z"/>
<path d="M5945 4370 c-3 -5 1 -10 9 -10 9 0 16 5 16 10 0 6 -4 10 -9 10 -6 0
-13 -4 -16 -10z"/>
<path d="M910 4360 c0 -5 5 -10 10 -10 6 0 10 5 10 10 0 6 -4 10 -10 10 -5 0
-10 -4 -10 -10z"/>
<path d="M2250 4360 c0 -5 5 -10 10 -10 6 0 10 5 10 10 0 6 -4 10 -10 10 -5 0
-10 -4 -10 -10z"/>
<path d="M3010 4360 c0 -5 7 -10 16 -10 8 0 12 5 9 10 -3 6 -10 10 -16 10 -5
0 -9 -4 -9 -10z"/>
<path d="M4763 4353 c9 -9 20 -13 24 -9 4 4 1 11 -7 16 -25 16 -35 11 -17 -7z"/>
<path d="M826 4345 c-27 -27 -19 -63 21 -100 33 -30 35 -35 19 -41 -10 -4 -27
-2 -37 4 -24 15 -29 15 -29 -2 0 -8 14 -24 30 -36 22 -16 29 -27 25 -41 -4
-11 -2 -19 5 -19 7 0 10 12 8 30 -2 20 4 36 20 51 l24 21 14 -21 c18 -26 39
-28 29 -3 -4 9 -11 43 -15 75 -12 89 -32 95 -32 9 l1 -50 -40 39 c-21 21 -39
43 -39 48 0 21 19 20 34 -1 21 -30 34 -14 16 19 -19 33 -33 38 -54 18z"/>
<path d="M1453 4343 c-18 -7 -16 -23 1 -23 18 0 29 -78 24 -162 -3 -66 14 -84
22 -23 4 32 14 49 46 78 l41 37 9 -32 c13 -46 38 -57 66 -31 23 20 23 20 43 1
21 -20 56 -21 63 0 2 7 -6 12 -22 12 -28 0 -27 -3 -30 90 -2 67 -17 63 -36 -8
-26 -94 -50 -111 -51 -36 0 21 -3 52 -6 68 -5 29 -6 29 -20 10 -14 -19 -15
-19 -30 4 -12 18 -24 22 -62 21 -25 0 -52 -3 -58 -6z m95 -25 c19 -19 14 -53
-11 -76 -30 -28 -37 -20 -37 40 0 40 3 48 18 48 10 0 23 -5 30 -12z"/>
<path d="M2317 4332 c-32 -36 -39 -72 -20 -110 32 -65 69 -68 103 -9 21 37 3
47 -24 12 -38 -48 -64 -23 -57 55 3 36 18 47 41 32 16 -10 20 -10 20 1 0 16
-20 37 -35 37 -7 0 -19 -8 -28 -18z"/>
<path d="M2565 4333 c-54 -53 -43 -176 13 -159 12 4 27 16 33 27 10 20 11 20
29 -1 10 -12 34 -23 53 -26 l35 -4 12 70 c12 72 22 84 40 50 6 -11 15 -20 20
-20 18 0 10 26 -15 50 -24 23 -25 23 -45 5 -18 -16 -20 -16 -26 -1 -14 38 -24
12 -18 -47 5 -54 4 -65 -10 -70 -21 -8 -38 31 -38 86 -1 54 -47 76 -83 40z
m52 -49 c-7 -39 -32 -84 -47 -84 -13 0 -13 76 0 101 6 10 20 19 32 19 18 0 20
-4 15 -36z"/>
<path d="M3251 4327 c-6 -16 -11 -36 -11 -45 0 -9 -10 -33 -22 -52 l-23 -35
-5 62 c-8 99 -31 103 -33 5 -2 -82 24 -112 64 -76 16 14 20 14 43 -1 13 -9 37
-15 53 -13 26 3 29 8 42 71 8 37 18 67 23 67 4 0 8 -24 8 -54 0 -72 25 -106
64 -88 27 12 44 38 32 49 -3 3 -15 -2 -25 -11 -28 -26 -41 -12 -41 45 0 82
-30 114 -64 67 -14 -22 -16 -22 -26 -5 -17 27 -30 11 -19 -23 15 -40 8 -84
-13 -88 -16 -3 -18 5 -18 60 0 77 -14 106 -29 65z"/>
<path d="M3778 4325 l-11 -25 -22 20 c-27 26 -37 16 -19 -18 8 -15 14 -36 14
-48 0 -28 20 -84 30 -84 4 0 11 26 14 58 10 83 15 95 31 82 8 -6 16 -25 19
-41 3 -16 9 -42 12 -59 9 -49 31 -36 38 24 12 102 25 108 50 23 9 -30 25 -62
36 -72 19 -17 21 -17 40 0 11 10 20 25 20 34 0 12 -3 12 -12 3 -27 -27 -44
-13 -61 46 -9 33 -24 65 -33 73 -14 12 -19 10 -40 -15 l-25 -28 -20 26 c-26
33 -46 33 -61 1z"/>
<path d="M5556 4341 c-4 -7 -5 -15 -2 -18 9 -9 19 4 14 18 -4 11 -6 11 -12 0z"/>
<path d="M1252 4333 c-20 -8 -42 -59 -42 -96 0 -37 25 -67 56 -67 26 0 64 27
64 46 0 18 -14 18 -30 -1 -16 -19 -60 -20 -60 -1 0 8 18 23 40 33 44 20 52 49
22 76 -19 17 -28 19 -50 10z m38 -37 c0 -13 -40 -30 -49 -21 -2 3 4 14 14 25
18 20 35 18 35 -4z"/>
<path d="M1878 4323 c-57 -66 -46 -153 19 -153 22 0 73 36 73 51 0 14 -20 11
-37 -7 -17 -17 -54 -15 -60 2 -2 7 17 22 42 34 25 12 45 24 45 26 0 3 -7 18
-15 34 -17 34 -44 39 -67 13z m47 -23 c7 -11 -42 -37 -51 -27 -9 9 15 37 32
37 7 0 16 -4 19 -10z"/>
<path d="M1974 4296 c3 -27 6 -66 6 -87 0 -62 26 -50 34 15 10 87 12 90 52 58
29 -23 34 -33 34 -70 0 -62 21 -49 37 23 19 83 33 92 33 23 0 -73 24 -108 64
-90 14 6 33 9 41 6 17 -7 21 16 6 32 -6 5 -11 33 -13 62 -4 67 -23 63 -23 -5
-1 -53 -14 -81 -34 -69 -6 4 -11 30 -11 57 0 82 -31 114 -64 67 -16 -22 -16
-22 -30 -3 -14 19 -15 19 -22 2 -6 -17 -7 -17 -21 3 -17 25 -39 26 -52 3 -9
-17 -11 -17 -26 2 -16 19 -16 17 -11 -29z"/>
<path d="M3643 4329 c-25 -9 -53 -57 -53 -92 0 -29 39 -67 69 -67 12 0 33 12
48 26 21 21 24 32 20 61 -10 56 -45 87 -84 72z m45 -41 c17 -17 15 -63 -3 -78
-24 -20 -65 -4 -65 26 0 53 38 82 68 52z"/>
<path d="M5483 4326 c-33 -16 -31 -39 2 -24 14 6 25 17 25 25 0 7 -1 12 -2 12
-2 -1 -13 -6 -25 -13z"/>
<path d="M5815 4320 c-10 -11 -16 -22 -13 -25 3 -3 13 4 23 15 10 11 16 22 13
25 -3 3 -13 -4 -23 -15z"/>
<path d="M5353 4323 c-18 -7 -16 -30 4 -37 19 -8 34 10 26 31 -5 14 -10 15
-30 6z"/>
<path d="M6072 4311 c-23 -14 10 -21 54 -11 22 5 50 6 63 3 17 -4 22 -2 17 6
-8 13 -114 15 -134 2z"/>
<path d="M5727 4292 c-19 -20 -22 -32 -9 -32 5 0 14 11 20 25 14 30 11 31 -11
7z"/>
<path d="M5507 4282 c-10 -10 -17 -24 -17 -32 0 -7 10 -1 21 14 24 31 21 45
-4 18z"/>
<path d="M5911 4287 c-11 -14 -6 -27 10 -27 5 0 13 9 19 20 8 16 8 20 -3 20
-8 0 -20 -6 -26 -13z"/>
<path d="M4707 4261 c-15 -6 -15 -8 4 -24 19 -17 22 -17 38 -3 10 9 27 16 39
16 12 0 22 5 22 10 0 11 -73 11 -103 1z"/>
<path d="M5938 4250 c-14 -11 -28 -28 -31 -39 -4 -17 -1 -18 27 -10 17 5 32 9
33 9 1 0 1 14 1 30 -1 17 -2 30 -3 30 -1 0 -14 -9 -27 -20z"/>
<path d="M5854 4246 c-17 -6 -45 -26 -63 -43 -41 -41 -51 -41 -51 -2 0 36 -15
35 -37 -3 -20 -31 -11 -67 12 -48 8 6 18 9 23 6 17 -10 121 16 127 32 4 12 -1
13 -25 9 -17 -4 -30 -2 -30 4 0 5 14 12 30 16 17 3 35 14 41 24 5 11 8 18 7
18 -2 -1 -17 -6 -34 -13z"/>
<path d="M5595 4230 c3 -5 8 -10 11 -10 2 0 4 5 4 10 0 6 -5 10 -11 10 -5 0
-7 -4 -4 -10z"/>
<path d="M4789 4223 c-11 -2 -15 -11 -12 -22 5 -21 -12 -37 -22 -21 -9 15 -42
12 -48 -4 -7 -17 33 -63 58 -67 10 -2 20 -10 23 -17 2 -8 -2 -12 -13 -10 -21
4 -28 -35 -12 -69 21 -48 47 -12 45 62 0 11 3 50 7 88 4 38 4 67 -1 66 -5 -1
-16 -3 -25 -6z"/>
<path d="M5619 4186 c-11 -19 -26 -37 -34 -40 -20 -7 -19 -25 3 -33 9 -4 20
-11 23 -16 8 -11 49 9 49 23 0 6 -9 10 -20 10 -11 0 -20 6 -20 13 0 29 13 57
26 57 8 0 14 5 14 10 0 21 -22 8 -41 -24z"/>
<path d="M5530 4200 c0 -5 5 -10 10 -10 6 0 10 5 10 10 0 6 -4 10 -10 10 -5 0
-10 -4 -10 -10z"/>
<path d="M4054 4171 c1 -33 13 -41 23 -15 3 8 -1 22 -9 31 -14 13 -15 11 -14
-16z"/>
<path d="M5459 4174 c-12 -14 -11 -16 5 -13 11 2 21 10 24 17 5 17 -13 15 -29
-4z"/>
<path d="M5320 4170 c0 -15 21 -23 32 -12 6 6 2 11 -11 15 -12 3 -21 1 -21 -3z"/>
<path d="M5515 4171 c-3 -5 -1 -12 5 -16 5 -3 10 1 10 9 0 18 -6 21 -15 7z"/>
<path d="M5380 4149 c0 -5 5 -7 10 -4 6 3 10 8 10 11 0 2 -4 4 -10 4 -5 0 -10
-5 -10 -11z"/>
<path d="M5430 4129 c0 -11 5 -17 10 -14 6 3 10 13 10 21 0 8 -4 14 -10 14 -5
0 -10 -9 -10 -21z"/>
<path d="M5221 4116 c-15 -18 -10 -29 12 -24 9 2 12 9 8 21 -6 17 -8 18 -20 3z"/>
<path d="M5755 4110 c-4 -6 2 -9 14 -7 29 4 39 17 13 17 -11 0 -24 -5 -27 -10z"/>
<path d="M5373 4083 c-24 -5 -30 -18 -13 -28 14 -9 61 6 57 18 -4 13 -15 15
-44 10z"/>
<path d="M5485 4064 c-19 -19 -29 -23 -39 -15 -14 12 -26 5 -26 -17 0 -8 6
-12 14 -9 7 3 18 1 24 -5 12 -12 32 -2 32 17 0 7 9 17 20 20 11 3 20 13 20 21
0 21 -16 17 -45 -12z"/>
<path d="M5560 4070 c0 -5 5 -10 10 -10 6 0 10 5 10 10 0 6 -4 10 -10 10 -5 0
-10 -4 -10 -10z"/>
<path d="M1338 4048 c-2 -14 -12 -24 -28 -28 l-25 -6 27 -18 c25 -17 27 -23
26 -80 -2 -63 21 -124 50 -134 17 -5 15 18 -4 39 -11 12 -18 44 -22 89 -5 77
-6 76 65 84 52 6 89 24 76 37 -6 6 -20 6 -37 -1 -15 -5 -43 -10 -62 -10 -28 0
-36 5 -44 25 -12 31 -18 32 -22 3z"/>
<path d="M5065 4050 c3 -5 13 -10 21 -10 8 0 14 5 14 10 0 6 -9 10 -21 10 -11
0 -17 -4 -14 -10z"/>
<path d="M5592 4048 c3 -7 13 -15 22 -16 12 -3 17 1 14 10 -3 7 -13 15 -22 16
-12 3 -17 -1 -14 -10z"/>
<path d="M5640 4040 c0 -5 5 -10 10 -10 6 0 10 5 10 10 0 6 -4 10 -10 10 -5 0
-10 -4 -10 -10z"/>
<path d="M5224 4024 c3 -8 6 -25 6 -37 0 -19 2 -20 15 -6 18 17 11 44 -12 53
-11 5 -13 2 -9 -10z"/>
<path d="M5365 4020 c-3 -5 3 -10 15 -10 12 0 18 5 15 10 -3 6 -10 10 -15 10
-5 0 -12 -4 -15 -10z"/>
<path d="M3755 4011 c-4 -7 -9 -47 -12 -90 -5 -70 -3 -81 17 -109 18 -24 30
-30 59 -30 20 0 44 7 53 15 15 14 19 13 41 -4 18 -13 36 -18 61 -15 39 5 45
15 21 38 -11 12 -15 39 -15 104 0 79 -9 115 -23 92 -9 -14 -12 -157 -4 -179 6
-18 5 -23 -7 -23 -18 0 -29 34 -25 76 7 88 -14 101 -31 19 -6 -30 -20 -65 -30
-77 -17 -21 -19 -22 -26 -5 -3 10 -4 35 -1 56 5 39 -6 71 -20 58 -4 -5 -7 -35
-8 -67 0 -33 -3 -60 -8 -60 -17 0 -27 55 -21 115 6 62 -5 111 -21 86z"/>
<path d="M5174 3998 c-4 -6 -2 -14 4 -16 7 -2 12 -10 12 -18 0 -18 16 -18 23
-1 5 12 -14 47 -26 47 -3 0 -9 -5 -13 -12z"/>
<path d="M1070 3992 c0 -4 4 -12 9 -17 6 -6 -1 -22 -19 -41 l-28 -32 -21 29
c-18 24 -29 29 -62 29 -22 0 -49 -5 -61 -11 l-20 -11 21 -14 c19 -14 21 -25
21 -120 0 -57 4 -104 9 -104 12 0 21 25 21 58 0 18 13 38 39 62 l39 36 15 -38
c18 -46 46 -50 74 -12 l19 26 17 -26 c20 -30 39 -33 61 -10 21 20 11 37 -14
24 -24 -13 -29 -4 -37 62 -3 31 -12 58 -21 66 -14 10 -14 16 -4 32 7 11 8 20
3 20 -6 0 -13 -5 -16 -10 -4 -7 -13 -7 -26 0 -10 6 -19 7 -19 2z m-86 -68 c20
-19 20 -34 0 -62 -27 -39 -44 -28 -44 28 0 54 14 65 44 34z m138 -19 c-5 -31
-36 -88 -49 -93 -16 -5 -18 55 -3 93 13 33 57 33 52 0z"/>
<path d="M2074 3982 c6 -17 2 -27 -14 -40 -24 -19 -43 -91 -34 -127 8 -33 52
-45 70 -20 7 10 15 23 17 29 2 6 15 -2 28 -18 22 -25 28 -27 47 -17 12 6 22
18 22 26 0 17 -16 20 -25 5 -3 -5 -10 -10 -14 -10 -11 0 -34 88 -26 99 2 5 -4
20 -15 33 -14 19 -16 28 -8 36 7 7 8 15 4 19 -4 4 -11 1 -16 -7 -7 -12 -11
-12 -26 1 -15 13 -16 12 -10 -9z m38 -87 c-4 -36 -33 -86 -47 -82 -11 4 -11
51 -1 93 5 19 12 25 29 22 18 -2 21 -8 19 -33z"/>
<path d="M5411 3993 c0 -4 4 -16 8 -26 6 -17 8 -17 20 -4 10 13 9 17 -8 27
-12 6 -21 7 -20 3z"/>
<path d="M3700 3970 c0 -5 5 -10 10 -10 6 0 10 5 10 10 0 6 -4 10 -10 10 -5 0
-10 -4 -10 -10z"/>
<path d="M5134 3966 c-14 -11 -16 -17 -7 -26 8 -9 14 -7 23 10 15 28 9 34 -16
16z"/>
<path d="M1252 3958 c-22 -22 -14 -68 18 -96 17 -15 30 -32 30 -39 0 -15 -36
-18 -45 -3 -11 18 -26 10 -23 -12 2 -18 11 -24 36 -26 69 -7 81 38 26 94 -26
25 -33 39 -26 46 8 8 17 4 31 -13 l20 -24 1 23 c0 21 -31 62 -48 62 -4 0 -13
-5 -20 -12z"/>
<path d="M3585 3962 c-36 -8 -47 -23 -28 -38 15 -10 18 -29 18 -115 1 -113 18
-148 30 -59 4 27 11 50 16 50 6 0 21 12 36 26 14 14 26 24 28 22 1 -2 10 -18
19 -35 9 -18 23 -33 31 -33 18 0 18 1 0 36 -8 16 -15 50 -15 77 0 44 -11 60
-25 36 -5 -6 -11 -5 -18 5 -14 19 -64 34 -92 28z m56 -32 c28 -16 25 -64 -6
-84 -14 -9 -25 -15 -25 -14 -1 2 -3 27 -6 56 -4 54 1 61 37 42z"/>
<path d="M5332 3954 c-18 -8 -30 -19 -27 -24 10 -16 22 -12 51 15 30 28 24 30
-24 9z"/>
<path d="M1692 3935 c-11 -14 -23 -45 -26 -70 -12 -78 27 -110 73 -61 l23 25
23 -27 c23 -26 23 -26 44 -8 22 20 19 45 -4 26 -9 -7 -15 -7 -23 2 -12 16 -27
77 -23 100 2 17 -26 38 -53 38 -8 0 -23 -11 -34 -25z m60 -11 c17 -16 -30
-114 -55 -114 -9 0 -2 94 9 112 6 9 38 11 46 2z"/>
<path d="M2383 3934 l-17 -26 -17 23 c-22 29 -35 19 -18 -13 7 -12 17 -47 23
-76 6 -29 16 -53 21 -53 6 0 14 29 18 63 4 35 12 67 17 72 12 12 31 -28 39
-83 4 -31 12 -47 22 -49 13 -2 17 9 21 58 6 89 21 95 47 17 26 -77 44 -96 71
-79 12 7 21 8 25 2 17 -27 105 3 105 36 0 19 -7 18 -37 -5 -13 -11 -31 -17
-39 -14 -26 10 -14 34 26 51 22 9 40 24 40 32 0 23 -29 60 -46 60 -28 0 -64
-47 -64 -83 0 -43 -24 -67 -38 -40 -6 10 -13 35 -17 55 -4 20 -17 46 -30 58
l-22 21 -25 -29 -24 -29 -17 28 c-20 36 -41 37 -64 3z m314 -30 c2 -6 -6 -14
-19 -17 -27 -7 -30 -5 -22 17 7 18 35 18 41 0z"/>
<path d="M3085 3933 c-10 -49 -40 -116 -52 -121 -10 -3 -13 14 -13 62 0 39 -4
66 -10 66 -13 0 -19 -15 -23 -58 -6 -54 -97 -106 -97 -55 0 8 18 22 40 30 45
18 53 48 22 76 -25 23 -39 21 -67 -9 l-24 -25 -16 25 c-20 30 -37 33 -56 10
-11 -14 -13 -14 -21 0 -16 29 -29 17 -22 -19 3 -19 7 -56 8 -82 0 -25 6 -48
13 -50 13 -5 19 12 28 79 3 26 10 50 14 52 13 8 51 -51 51 -78 0 -56 61 -77
105 -35 20 18 21 18 33 -1 15 -25 48 -26 63 -1 12 18 12 18 30 0 23 -23 65
-25 73 -4 4 11 -2 15 -24 15 l-30 0 0 69 c0 72 -15 103 -25 54z m-145 -27 c0
-15 -37 -32 -47 -22 -9 8 17 36 33 36 8 0 14 -6 14 -14z"/>
<path d="M3311 3934 c-29 -37 -28 -95 2 -130 29 -33 66 -28 87 11 l13 25 11
-22 c6 -13 22 -28 36 -35 21 -10 30 -9 55 5 44 26 54 65 30 109 -29 53 -59 60
-96 24 -16 -16 -29 -37 -29 -45 0 -9 -6 -16 -13 -16 -8 0 -20 -11 -27 -25 -15
-28 -45 -33 -54 -9 -9 24 -7 77 4 94 8 13 13 13 31 2 28 -18 37 -7 14 18 -24
27 -39 25 -64 -6z m213 -57 c13 -37 -3 -62 -40 -62 -32 0 -41 24 -29 72 8 35
56 29 69 -10z"/>
<path d="M5230 3950 c0 -5 5 -10 10 -10 6 0 10 5 10 10 0 6 -4 10 -10 10 -5 0
-10 -4 -10 -10z"/>
<path d="M1416 3873 c6 -71 16 -104 28 -92 3 2 9 33 15 68 6 35 13 66 15 69
10 10 45 -43 46 -68 0 -14 7 -36 16 -48 21 -30 77 -30 98 0 19 27 10 45 -12
25 -25 -23 -56 -25 -60 -5 -3 15 44 50 65 48 15 -2 14 31 -1 55 -21 32 -49 32
-75 -1 l-20 -26 -25 28 c-24 28 -24 29 -45 10 -19 -17 -21 -17 -27 -2 -15 39
-23 10 -18 -61z m191 31 c2 -6 -6 -14 -19 -17 -27 -7 -30 -5 -22 17 7 18 35
18 41 0z"/>
<path d="M1840 3929 c0 -3 14 -12 30 -19 17 -7 30 -14 30 -16 0 -2 -11 -27
-25 -56 -14 -28 -25 -58 -25 -65 0 -18 25 -16 54 2 13 9 42 17 65 18 25 1 41
6 41 13 0 16 -36 22 -78 13 -33 -7 -34 -6 -27 19 4 15 15 36 25 47 36 39 30
48 -32 50 -32 1 -58 -2 -58 -6z"/>
<path d="M5430 3930 c0 -5 5 -10 10 -10 6 0 10 5 10 10 0 6 -4 10 -10 10 -5 0
-10 -4 -10 -10z"/>
<path d="M5470 3919 c-8 -15 -8 -24 0 -34 9 -10 6 -15 -9 -20 -12 -3 -26 -3
-32 0 -11 8 -68 -52 -69 -71 0 -6 -7 -17 -15 -24 -10 -9 -15 -32 -15 -75 0
-59 -1 -63 -21 -58 -16 4 -19 11 -15 29 4 13 2 24 -4 24 -11 0 -20 -33 -19
-70 1 -14 -2 -42 -6 -62 -5 -25 -4 -38 3 -38 6 0 13 10 15 23 3 16 5 14 6 -10
0 -17 -3 -35 -9 -38 -5 -3 -10 -2 -10 4 0 6 -16 18 -35 27 -29 13 -38 14 -51
4 -8 -7 -13 -19 -10 -26 3 -7 -1 -18 -9 -24 -8 -6 -11 -18 -8 -26 3 -8 -1 -14
-11 -14 -20 0 -21 -36 -2 -43 10 -4 16 2 18 16 2 16 9 21 25 19 12 -2 24 2 28
8 9 15 25 12 25 -4 0 -8 -15 -25 -32 -37 -44 -31 -60 -52 -45 -61 11 -7 58 23
51 33 -2 3 10 21 26 39 17 19 30 37 30 42 0 4 7 8 15 8 20 0 19 -7 -5 -37 -12
-16 -20 -41 -20 -65 0 -32 7 -46 35 -72 19 -19 35 -36 35 -39 0 -4 -9 -15 -21
-25 -15 -14 -18 -26 -13 -46 8 -34 24 -33 25 2 0 27 0 27 10 3 5 -13 18 -36
29 -51 11 -16 16 -31 11 -34 -14 -9 -79 22 -91 44 -24 45 -55 8 -43 -52 5 -28
4 -29 -23 -23 -16 4 -44 11 -61 17 -18 5 -37 7 -43 3 -5 -3 -10 0 -10 7 -1 30
-60 77 -60 48 0 -5 -7 -10 -15 -10 -8 0 -15 3 -15 8 0 4 -13 13 -30 20 -18 8
-30 21 -30 32 0 21 -17 36 -28 25 -4 -4 -8 -37 -8 -73 -4 -186 -40 -442 -80
-560 -28 -85 -13 -104 44 -53 17 17 46 38 62 48 17 10 28 23 26 29 -2 6 -1 16
4 23 5 9 9 5 14 -13 7 -28 36 -36 36 -11 0 8 9 15 20 15 11 0 20 4 20 10 0 14
53 39 90 42 18 1 35 8 37 15 3 7 11 13 19 13 8 0 14 4 14 9 0 19 32 19 76 1
57 -25 56 -25 49 8 l-6 27 29 -33 c23 -26 35 -32 63 -30 19 2 37 7 41 13 4 5
29 10 55 10 44 0 52 4 96 48 45 46 47 50 30 63 -11 8 -30 11 -49 8 -21 -4 -41
0 -58 11 -24 16 -28 16 -60 1 -38 -18 -46 -19 -46 -8 0 4 14 13 31 21 25 11
29 18 25 37 -13 49 -27 75 -38 72 -20 -7 -35 15 -35 52 0 34 -11 72 -39 135
-7 17 -21 61 -31 100 -10 38 -28 80 -40 94 -30 31 -29 54 3 86 17 17 23 32 19
44 -3 11 -1 22 5 26 6 3 8 10 6 14 -3 4 10 15 29 24 21 10 35 24 37 39 2 15
11 24 26 26 19 3 28 19 23 45 -1 5 15 27 34 49 31 34 35 44 29 71 -3 18 -10
34 -15 35 -5 2 -9 15 -9 28 0 17 6 24 19 24 32 0 34 18 7 44 -14 13 -26 28
-26 35 0 18 -18 13 -30 -10z m-120 -320 c0 -6 -4 -7 -10 -4 -5 3 -10 11 -10
16 0 6 5 7 10 4 6 -3 10 -11 10 -16z m-103 -99 c14 0 14 -3 -2 -20 -25 -28
-53 -26 -50 3 3 30 3 30 21 23 9 -3 23 -6 31 -6z m49 -466 c9 3 14 -1 14 -14
0 -17 3 -18 25 -8 14 6 25 19 25 30 0 24 17 23 25 -1 3 -11 12 -21 19 -24 15
-6 7 -89 -9 -85 -5 1 -9 8 -7 15 2 7 -5 13 -15 14 -11 0 -13 3 -5 6 6 2 12 11
12 18 0 11 -5 11 -27 0 -16 -7 -43 -11 -61 -8 -27 5 -32 9 -26 26 5 16 3 19
-10 14 -21 -8 -20 11 2 36 17 19 17 19 20 -3 2 -14 9 -20 18 -16z m-66 5 c0
-14 -17 -10 -23 5 -4 10 -1 13 9 9 7 -3 14 -9 14 -14z m253 -150 c5 -4 5 -9 0
-12 -4 -3 -17 1 -28 9 -17 13 -18 16 -5 24 10 6 16 5 19 -3 2 -7 8 -15 14 -18z"/>
<path d="M5115 3910 c-3 -5 -1 -10 4 -10 6 0 11 5 11 10 0 6 -2 10 -4 10 -3 0
-8 -4 -11 -10z"/>
<path d="M5220 3900 c0 -13 18 -22 24 -11 3 5 -1 11 -9 15 -8 3 -15 1 -15 -4z"/>
<path d="M5040 3870 c0 -5 9 -14 20 -20 23 -12 26 -5 6 16 -17 16 -26 18 -26
4z"/>
<path d="M5195 3860 c-3 -5 -4 -14 0 -19 3 -6 -3 -14 -12 -20 -11 -6 -13 -11
-5 -11 19 0 55 37 47 49 -8 14 -22 14 -30 1z"/>
<path d="M5314 3853 c-23 -4 -39 -39 -23 -49 11 -6 79 34 79 47 0 9 -17 10
-56 2z"/>
<path d="M5585 3830 c3 -5 8 -10 11 -10 2 0 4 5 4 10 0 6 -5 10 -11 10 -5 0
-7 -4 -4 -10z"/>
<path d="M5240 3799 c0 -11 5 -17 10 -14 6 3 10 13 10 21 0 8 -4 14 -10 14 -5
0 -10 -9 -10 -21z"/>
<path d="M5260 3764 c-6 -14 -10 -33 -10 -42 0 -28 33 13 35 43 1 32 -13 32
-25 -1z"/>
<path d="M5160 3760 c-14 -10 -22 -22 -18 -26 9 -8 58 22 58 36 0 15 -12 12
-40 -10z"/>
<path d="M6376 3754 c-9 -24 -2 -26 12 -4 7 11 8 20 3 20 -5 0 -12 -7 -15 -16z"/>
<path d="M6040 3673 c-68 -10 -72 -13 -66 -38 5 -18 2 -25 -9 -25 -8 0 -15 4
-15 10 0 5 -10 15 -22 21 -18 10 -24 8 -39 -10 -9 -11 -26 -21 -36 -21 -28 0
-50 -32 -48 -71 2 -19 -4 -41 -12 -50 -11 -13 -11 -22 -3 -40 14 -28 72 -68
112 -76 32 -6 34 -14 12 -48 -21 -33 -11 -79 15 -70 14 4 28 -5 52 -34 34 -39
82 -60 94 -41 3 5 18 10 32 10 23 0 24 3 17 28 -4 15 -8 42 -8 61 -1 19 -7 36
-13 38 -24 8 -13 28 26 47 37 17 39 20 37 65 -1 25 2 51 7 58 14 19 12 101 -4
129 -12 24 -17 26 -64 20 -27 -3 -44 -3 -37 0 13 6 17 45 5 43 -5 -1 -19 -3
-33 -6z m-136 -117 c17 -27 6 -45 -14 -21 -7 8 -19 15 -27 15 -13 0 -13 3 -3
15 17 21 25 19 44 -9z"/>
<path d="M1006 3585 c4 -47 4 -85 1 -85 -3 0 -19 14 -37 31 -30 30 -31 31 -50
14 -24 -21 -26 -65 -5 -104 22 -44 113 -79 131 -50 3 6 1 16 -5 22 -14 14 -15
67 -1 67 6 0 10 -7 10 -15 0 -9 7 -29 15 -45 12 -23 23 -30 45 -30 27 0 29 4
41 58 18 84 28 96 29 32 0 -64 20 -100 55 -100 28 0 60 39 45 54 -7 7 -15 4
-24 -9 -8 -12 -19 -16 -31 -11 -15 5 -17 14 -11 55 5 39 3 53 -13 72 l-19 24
-26 -24 c-26 -24 -26 -24 -41 -5 -13 17 -14 12 -9 -56 5 -69 4 -74 -10 -56 -9
11 -16 38 -16 60 0 46 -15 81 -24 56 -2 -8 -7 -22 -9 -30 -3 -8 -6 8 -6 35 -1
59 -18 125 -32 125 -5 0 -7 -33 -3 -85z m-36 -97 c35 -58 21 -89 -20 -48 -21
21 -28 80 -10 80 6 0 19 -15 30 -32z"/>
<path d="M6200 3620 c0 -5 7 -10 16 -10 8 0 12 5 9 10 -3 6 -10 10 -16 10 -5
0 -9 -4 -9 -10z"/>
<path d="M1530 3531 c0 -74 3 -92 21 -115 11 -14 27 -26 35 -26 20 0 18 13 -6
33 -17 14 -20 29 -20 107 0 73 -3 90 -15 90 -12 0 -15 -17 -15 -89z"/>
<path d="M3475 3592 c3 -8 -6 -27 -20 -44 -14 -16 -25 -39 -25 -51 0 -43 -14
-48 -48 -16 -31 29 -42 59 -22 59 5 0 14 -9 20 -20 6 -11 15 -20 20 -20 18 0
10 36 -13 58 -21 20 -25 21 -45 6 -33 -23 -28 -57 14 -93 19 -17 32 -36 29
-41 -8 -13 -45 -13 -45 0 0 6 -4 10 -10 10 -19 0 -10 -39 11 -51 18 -9 27 -7
52 12 21 15 32 18 35 11 2 -7 12 -17 23 -23 16 -8 24 -5 44 17 l25 27 25 -23
c25 -24 51 -22 61 5 9 22 -3 30 -20 16 -12 -10 -17 -8 -26 10 -7 12 -13 39
-14 60 -1 21 -10 47 -20 57 -11 13 -14 22 -7 27 20 12 11 22 -19 21 -21 -1
-29 -5 -25 -14z m37 -87 c-4 -39 -31 -87 -45 -82 -14 5 -12 69 3 98 17 31 46
20 42 -16z"/>
<path d="M5071 3591 c-9 -6 -10 -11 -2 -15 13 -8 31 1 31 15 0 11 -11 11 -29
0z"/>
<path d="M5225 3589 c-4 -6 -5 -13 -2 -16 7 -7 27 6 27 18 0 12 -17 12 -25 -2z"/>
<path d="M1055 3580 c-3 -5 1 -10 9 -10 9 0 16 5 16 10 0 6 -4 10 -9 10 -6 0
-13 -4 -16 -10z"/>
<path d="M1810 3580 c0 -5 5 -10 10 -10 6 0 10 5 10 10 0 6 -4 10 -10 10 -5 0
-10 -4 -10 -10z"/>
<path d="M3020 3580 c0 -5 5 -10 10 -10 6 0 10 5 10 10 0 6 -4 10 -10 10 -5 0
-10 -4 -10 -10z"/>
<path d="M3746 3564 c-25 -25 -19 -63 14 -92 17 -15 30 -32 30 -39 0 -16 -37
-17 -42 -1 -5 13 -28 2 -28 -12 0 -5 11 -17 25 -26 23 -15 27 -15 50 0 35 23
33 59 -5 86 -16 12 -30 30 -30 41 0 25 12 24 28 -1 14 -23 32 -26 32 -6 0 16
-38 66 -50 66 -5 0 -16 -7 -24 -16z"/>
<path d="M1710 3544 c-12 -30 -2 -53 35 -82 32 -25 32 -42 0 -42 -14 0 -25 5
-25 10 0 6 -4 10 -10 10 -20 0 -9 -38 15 -54 14 -9 25 -25 25 -36 0 -11 5 -20
11 -20 6 0 9 13 8 28 -2 17 3 36 14 46 24 25 21 38 -18 76 -34 33 -45 60 -25
60 5 0 14 -9 21 -21 7 -15 14 -18 21 -11 15 15 -17 62 -42 62 -13 0 -24 -10
-30 -26z"/>
<path d="M2002 3563 c-35 -14 -58 -133 -30 -161 19 -19 44 -14 61 11 l15 22
24 -22 c14 -14 37 -23 55 -23 30 0 31 1 38 60 4 33 11 63 17 66 17 11 48 -28
48 -61 0 -38 26 -65 63 -65 27 0 67 30 67 50 0 15 -7 12 -40 -12 -24 -18 -32
-19 -45 -8 -20 17 -4 37 39 48 36 10 44 33 22 67 -21 32 -46 32 -76 0 l-23
-24 -19 24 c-22 28 -46 32 -55 10 -5 -14 -8 -14 -25 2 -20 18 -20 17 -13 -43
5 -48 3 -63 -9 -73 -12 -10 -17 -9 -26 10 -7 12 -13 39 -14 61 -3 52 -33 78
-74 61z m44 -37 c8 -21 -33 -109 -48 -104 -14 5 -12 72 3 100 12 22 38 23 45
4z m269 -7 c9 -13 6 -16 -29 -25 -26 -6 -27 -5 -17 15 12 22 36 28 46 10z"/>
<path d="M2862 3558 c-5 -7 -17 -28 -27 -46 l-17 -34 -20 41 c-11 23 -26 41
-34 41 -11 0 -10 -8 5 -39 11 -21 25 -59 32 -85 6 -26 16 -45 22 -43 6 2 18
31 27 66 10 34 23 68 29 74 13 13 15 37 2 37 -5 0 -13 -6 -19 -12z"/>
<path d="M1420 3540 c-40 -40 -40 -112 1 -143 23 -16 30 -17 50 -6 31 16 50
42 39 53 -5 5 -20 0 -35 -12 -24 -19 -55 -20 -55 -2 0 12 36 40 53 40 24 0 37
30 25 55 -21 40 -48 45 -78 15z m55 -20 c7 -11 -42 -37 -51 -27 -9 9 15 37 32
37 7 0 16 -4 19 -10z"/>
<path d="M2527 3538 c-15 -23 -15 -23 -30 -3 -21 27 -29 16 -17 -26 6 -18 10
-53 10 -77 0 -60 20 -50 38 19 19 75 32 84 32 22 0 -35 6 -58 19 -74 18 -22
22 -23 51 -12 23 9 38 9 52 2 21 -12 64 10 75 37 9 25 -5 27 -32 6 -27 -21
-55 -20 -55 3 0 11 19 22 73 39 23 7 21 30 -6 62 -40 47 -86 11 -97 -76 -4
-37 -9 -45 -25 -45 -17 0 -20 8 -23 60 -4 83 -32 110 -65 63z m193 -22 c0 -15
-37 -32 -47 -22 -9 8 17 36 33 36 8 0 14 -6 14 -14z"/>
<path d="M3106 3541 c-41 -46 -40 -127 2 -150 25 -13 80 7 88 32 9 29 -2 31
-35 6 -23 -17 -34 -20 -42 -12 -18 18 -2 43 32 50 37 7 45 24 29 63 -15 35
-48 40 -74 11z m51 -28 c4 -12 -35 -29 -44 -19 -8 8 18 37 30 33 6 -2 12 -8
14 -14z"/>
<path d="M3868 3543 c-9 -10 -22 -37 -28 -60 -11 -36 -11 -46 3 -67 9 -13 25
-27 35 -30 28 -9 69 9 77 34 10 31 0 35 -30 12 -25 -20 -55 -20 -55 -2 0 15
31 40 50 40 33 0 43 34 19 64 -24 30 -49 33 -71 9z m48 -24 c7 -12 -12 -29
-33 -29 -28 0 -11 36 19 39 4 1 10 -4 14 -10z"/>
<path d="M1806 3534 c-17 -45 9 -144 38 -144 19 0 21 11 5 27 -9 9 -17 57 -18
116 -1 21 -17 22 -25 1z"/>
<path d="M2907 3538 c-22 -18 -39 -66 -31 -92 18 -58 87 -77 121 -33 l17 23
22 -25 c25 -29 42 -24 25 7 -6 12 -11 36 -11 54 0 42 -10 78 -21 78 -5 0 -9
-12 -9 -27 l0 -27 -28 27 c-30 29 -59 34 -85 15z m74 -45 c15 -41 -3 -75 -39
-71 -29 3 -39 29 -28 74 9 35 53 33 67 -3z"/>
<path d="M5040 3517 c0 -8 7 -18 16 -21 11 -4 14 -1 12 11 -4 21 -28 30 -28
10z"/>
<path d="M6146 3314 c-3 -9 -6 -23 -6 -32 1 -15 3 -14 15 2 17 22 20 46 6 46
-5 0 -12 -7 -15 -16z"/>
<path d="M5179 3284 c-10 -12 -10 -17 -1 -23 7 -4 10 -15 6 -24 -7 -20 7 -22
24 -5 15 15 15 9 -1 -33 -7 -19 -12 -41 -11 -49 1 -8 2 -19 3 -25 4 -31 29 53
32 106 4 57 2 62 -17 65 -12 2 -28 -3 -35 -12z"/>
<path d="M1582 3263 c2 -12 -3 -18 -16 -18 -27 0 -32 -22 -7 -30 26 -8 31 -31
28 -114 -2 -77 -21 -92 -37 -29 -22 92 -57 122 -91 77 l-17 -23 -26 30 -26 29
-25 -30 -25 -30 -16 23 c-20 29 -38 18 -19 -12 9 -13 18 -47 22 -75 8 -73 32
-84 39 -19 13 126 36 133 59 19 15 -72 31 -76 40 -9 13 106 27 115 50 34 19
-64 48 -95 73 -80 12 8 22 8 34 0 27 -16 29 -3 7 41 -15 30 -19 56 -17 99 3
57 4 59 32 62 38 5 76 -6 76 -20 0 -6 -9 -21 -20 -33 -12 -13 -23 -42 -27 -72
-5 -44 -2 -54 17 -73 l23 -23 27 29 26 30 18 -24 c20 -26 53 -26 70 0 14 22 1
34 -19 18 -23 -19 -35 -2 -41 61 -4 32 -13 59 -22 67 -14 11 -15 16 -3 34 12
20 11 20 -16 14 -23 -6 -26 -5 -15 5 23 24 12 29 -56 23 -65 -6 -69 -5 -75 15
-6 25 -29 29 -25 4z m172 -151 c-2 -34 -28 -82 -44 -82 -14 0 -12 64 2 95 17
37 43 28 42 -13z"/>
<path d="M2120 3136 c0 -52 -4 -97 -9 -101 -15 -9 -34 34 -34 78 0 29 -5 42
-23 53 -46 31 -93 -16 -97 -96 -2 -64 45 -94 77 -48 l16 22 23 -23 c18 -16 31
-20 50 -16 14 4 28 2 31 -4 4 -6 11 -11 17 -11 14 0 11 30 -6 46 -11 12 -15
39 -15 105 0 72 -3 89 -15 89 -12 0 -15 -17 -15 -94z m-80 4 c12 -8 12 -15 -5
-56 -25 -60 -45 -69 -45 -20 0 38 15 86 27 86 5 0 15 -4 23 -10z"/>
<path d="M7125 3220 c3 -5 8 -10 11 -10 2 0 4 5 4 10 0 6 -5 10 -11 10 -5 0
-7 -4 -4 -10z"/>
<path d="M3276 3211 c-3 -5 -16 -7 -29 -3 -19 5 -20 3 -9 -10 10 -13 9 -18 -4
-28 -21 -18 -44 -65 -44 -90 0 -20 -1 -20 -35 6 -19 14 -35 35 -35 45 0 25 12
24 28 -1 7 -11 17 -20 22 -20 18 0 11 28 -14 57 -24 27 -24 28 -45 9 -31 -28
-26 -62 15 -100 32 -30 34 -34 19 -46 -15 -12 -19 -12 -30 3 -15 20 -35 22
-35 4 0 -16 31 -47 47 -47 6 0 22 9 36 20 22 17 26 18 37 5 17 -21 40 -19 67
7 l23 22 20 -22 c24 -26 36 -27 56 -7 19 19 8 41 -11 25 -23 -19 -34 -3 -41
60 -4 33 -13 65 -20 71 -10 8 -11 16 -3 30 10 19 -4 28 -15 10z m1 -102 c-5
-39 -30 -79 -49 -79 -11 0 1 90 14 108 6 6 17 12 26 12 11 0 13 -9 9 -41z"/>
<path d="M1260 3190 c0 -5 5 -10 10 -10 6 0 10 5 10 10 0 6 -4 10 -10 10 -5 0
-10 -4 -10 -10z"/>
<path d="M2570 3190 c0 -5 5 -10 10 -10 6 0 10 5 10 10 0 6 -4 10 -10 10 -5 0
-10 -4 -10 -10z"/>
<path d="M1164 3165 c-20 -30 -12 -57 27 -89 16 -14 29 -29 29 -34 0 -17 -29
-22 -44 -7 -19 20 -26 19 -26 -4 0 -32 25 -45 60 -31 17 7 34 20 39 28 7 13
10 12 20 -6 7 -12 18 -22 26 -22 11 0 12 5 5 26 -6 14 -13 47 -16 72 -3 26 -9
51 -14 56 -12 12 -24 -38 -16 -69 4 -14 3 -25 -1 -25 -11 0 -73 59 -73 70 0
19 20 19 30 0 12 -23 30 -27 30 -6 0 16 -38 66 -50 66 -5 0 -17 -11 -26 -25z"/>
<path d="M3510 3175 c-22 -27 -15 -67 19 -97 35 -31 38 -43 14 -52 -10 -4 -20
-1 -25 9 -13 21 -28 19 -28 -5 0 -12 10 -25 25 -32 22 -10 30 -8 55 11 l30 22
28 -21 c37 -28 88 -19 97 17 8 35 1 38 -33 13 -31 -23 -52 -20 -52 5 0 17 31
35 59 35 27 0 28 39 3 70 -14 17 -24 21 -41 15 -25 -7 -61 -60 -61 -87 0 -10
-4 -18 -8 -18 -16 0 -62 56 -62 76 1 18 2 18 19 -3 23 -28 31 -29 31 -5 0 19
-34 62 -49 62 -5 0 -14 -7 -21 -15z m173 -49 c4 -9 -2 -17 -14 -21 -27 -9 -35
0 -19 20 16 19 26 19 33 1z"/>
<path d="M2311 3154 c-34 -43 -31 -96 7 -136 25 -27 26 -27 51 -11 14 9 31 24
38 32 11 14 12 14 13 -1 0 -9 10 -24 22 -32 21 -15 24 -14 42 3 18 19 20 19
45 1 18 -12 36 -17 58 -13 l31 5 -13 39 c-8 22 -12 45 -9 52 3 8 0 27 -6 43
-10 27 -12 27 -22 10 -6 -10 -8 -39 -4 -67 6 -40 4 -49 -9 -49 -12 0 -15 14
-15 69 0 39 -5 73 -10 76 -6 3 -12 0 -14 -7 -16 -63 -43 -132 -53 -135 -8 -3
-13 15 -15 58 -2 39 -8 64 -15 67 -9 2 -13 -7 -13 -28 0 -22 -10 -41 -34 -65
-18 -19 -38 -35 -44 -35 -14 0 -33 57 -25 78 12 34 23 42 43 29 27 -16 37 -1
15 23 -24 27 -39 25 -64 -6z"/>
<path d="M2712 3168 c-5 -7 -17 -28 -27 -47 l-17 -35 -13 30 c-12 30 -42 60
-50 52 -3 -3 4 -22 15 -44 11 -21 25 -58 30 -81 15 -61 35 -55 49 15 6 32 18
67 26 78 16 21 19 44 6 44 -5 0 -13 -6 -19 -12z"/>
<path d="M2763 3161 c-41 -34 -43 -140 -3 -161 16 -9 24 -6 42 15 l22 25 22
-21 c25 -23 52 -22 68 3 14 23 1 34 -20 18 -21 -18 -31 -1 -40 68 -9 71 -45
92 -91 53z m55 -42 c3 -27 -31 -89 -49 -89 -15 0 -6 84 11 105 17 21 34 14 38
-16z"/>
<path d="M5580 3101 c-16 -30 -12 -36 10 -16 21 19 26 35 10 35 -5 0 -14 -9
-20 -19z"/>
<path d="M5698 3008 c-6 -24 -15 -45 -19 -48 -4 -3 -11 -18 -14 -33 -7 -27 -7
-27 21 -17 40 15 71 50 54 60 -7 4 -9 16 -6 27 7 22 -1 53 -15 53 -4 0 -14
-19 -21 -42z"/>
<path d="M2938 2995 c2 -14 11 -25 18 -25 17 0 18 22 2 38 -19 19 -26 14 -20
-13z"/>
<path d="M5840 2950 c0 -16 5 -30 10 -30 6 0 10 14 10 30 0 17 -4 30 -10 30
-5 0 -10 -13 -10 -30z"/>
<path d="M5775 2942 c-20 -14 -45 -61 -45 -84 0 -26 16 -13 22 17 2 11 10 20
18 20 9 0 14 8 12 20 -3 16 -2 17 12 6 14 -12 16 -10 16 8 0 21 -16 27 -35 13z"/>
<path d="M7900 2941 c0 -6 5 -13 10 -16 6 -4 8 -11 5 -16 -4 -5 2 -9 13 -9 10
0 21 -3 25 -6 9 -9 85 -12 98 -3 7 4 9 15 5 24 -4 12 -10 14 -19 7 -14 -12
-117 5 -117 19 0 5 -4 9 -10 9 -5 0 -10 -4 -10 -9z"/>
<path d="M1540 2875 c0 -21 -5 -25 -27 -25 l-28 -1 26 -22 c23 -19 27 -32 31
-94 4 -52 2 -76 -7 -83 -16 -13 -20 -8 -35 50 -6 25 -19 53 -27 63 -21 23 -50
22 -58 -3 -8 -27 -21 -25 -41 5 -21 32 -37 32 -58 0 l-17 -26 -19 23 c-22 28
-38 17 -21 -15 7 -13 18 -47 24 -77 17 -77 34 -75 42 5 4 36 11 67 15 70 15 9
31 -23 37 -75 3 -30 12 -54 20 -57 20 -8 23 -2 27 60 3 31 8 62 11 68 10 15
31 -18 39 -62 9 -50 31 -66 89 -66 26 0 47 2 47 5 0 2 -9 15 -20 29 -16 20
-20 41 -20 93 l0 67 41 7 c57 9 78 -8 48 -40 -26 -27 -42 -104 -29 -138 13
-34 33 -37 66 -11 l29 23 22 -20 c24 -22 49 -19 59 7 9 22 -3 30 -20 16 -12
-10 -17 -8 -26 10 -7 12 -12 38 -13 58 0 21 -8 45 -19 57 -13 14 -16 24 -9 29
6 3 11 14 11 23 0 12 -3 13 -12 4 -7 -7 -16 -12 -22 -12 -6 0 -5 5 2 12 24 24
11 29 -58 22 -69 -6 -70 -6 -80 20 -12 33 -20 33 -20 1z m167 -123 c14 -9 2
-65 -20 -96 -21 -29 -39 -11 -31 32 11 64 25 81 51 64z"/>
<path d="M2330 2878 c0 -21 -5 -28 -20 -28 -11 0 -20 -4 -20 -10 0 -5 9 -14
20 -20 17 -9 20 -21 20 -78 0 -72 25 -132 55 -132 20 0 19 7 -5 37 -16 20 -20
41 -20 94 l0 68 38 6 c66 11 95 20 100 33 3 9 -13 11 -67 6 -43 -4 -71 -3 -71
3 0 5 -7 18 -15 29 -14 18 -14 18 -15 -8z"/>
<path d="M2760 2876 c0 -23 -3 -27 -20 -23 -26 7 -26 -16 -1 -34 15 -11 20
-30 24 -92 2 -43 0 -80 -4 -83 -13 -8 -32 37 -32 79 0 69 -66 88 -105 29 l-17
-26 -5 29 c-3 15 -11 30 -17 33 -10 3 -13 -18 -13 -84 0 -86 0 -88 -17 -64 -9
14 -18 27 -19 28 -1 2 -16 -6 -33 -19 -25 -18 -33 -20 -46 -9 -21 17 -3 38 41
46 27 5 34 11 34 30 0 24 -31 64 -50 64 -18 0 -59 -47 -66 -74 -15 -60 36
-124 77 -98 27 17 29 16 29 -18 0 -17 9 -39 21 -51 19 -19 23 -19 36 -6 8 8
17 33 20 55 l5 41 26 -17 c24 -15 25 -15 49 12 l24 28 21 -22 c13 -14 28 -20
40 -17 11 3 31 2 44 -3 30 -12 31 2 4 37 -16 20 -20 41 -20 94 0 65 1 69 25
75 14 3 40 4 58 2 33 -4 57 10 57 32 0 8 -21 9 -70 4 -42 -4 -70 -3 -70 3 0 5
-7 18 -15 29 -14 18 -14 18 -15 -10z m-70 -141 c0 -37 -28 -97 -42 -93 -14 5
-12 55 3 95 12 32 39 30 39 -2z m-193 -2 c4 -12 -35 -29 -44 -19 -8 8 18 37
30 33 6 -2 12 -8 14 -14z"/>
<path d="M3661 2877 c-1 -23 -5 -28 -23 -25 -30 4 -34 -20 -5 -31 24 -9 26
-15 29 -86 2 -43 0 -82 -4 -88 -13 -22 -29 8 -35 66 -5 50 -9 57 -35 68 -25
10 -32 9 -53 -11 -26 -24 -42 -93 -30 -129 11 -37 39 -44 68 -17 26 24 26 24
43 4 11 -11 26 -17 37 -14 11 2 30 1 43 -4 32 -12 37 0 13 36 -14 21 -19 47
-19 96 l0 67 53 8 c28 4 55 6 59 5 4 -1 12 7 18 19 11 19 9 20 -62 13 l-73 -6
-12 28 -11 29 -1 -28z m-77 -156 c-2 -34 -28 -81 -46 -81 -14 0 -3 87 14 107
17 21 33 9 32 -26z"/>
<path d="M3430 2870 c0 -13 -7 -20 -20 -20 -25 0 -26 -13 -1 -31 15 -11 20
-30 24 -92 3 -56 0 -80 -9 -88 -23 -19 -34 1 -34 60 0 78 -22 100 -60 59 -20
-21 -20 -21 -34 -2 -22 29 -28 12 -16 -41 12 -52 5 -98 -11 -74 -5 8 -9 31 -9
51 0 43 -8 68 -22 68 -6 0 -8 -25 -6 -60 3 -62 -1 -70 -22 -45 -8 10 -11 42
-9 97 3 69 1 83 -11 83 -12 0 -16 -19 -18 -97 -1 -54 -7 -98 -12 -98 -10 0
-27 56 -32 105 -2 22 -10 32 -30 39 -38 13 -75 -21 -84 -79 -12 -82 23 -123
69 -81 26 24 26 24 43 4 12 -13 26 -17 41 -13 13 3 32 1 42 -4 10 -6 21 -7 25
-4 4 4 24 6 45 4 l38 -2 13 61 c16 78 30 86 30 18 0 -58 5 -70 35 -86 15 -7
25 -7 38 3 9 7 28 10 42 7 30 -5 31 2 5 35 -16 20 -20 41 -20 94 l0 68 48 7
c60 9 92 21 92 34 0 8 -22 9 -69 4 -64 -6 -69 -5 -76 15 -8 27 -25 27 -25 1z
m-336 -149 c-2 -34 -28 -81 -46 -81 -14 0 -3 87 14 107 17 21 33 9 32 -26z"/>
<path d="M6140 2881 c0 -10 42 -23 49 -15 7 6 -20 24 -36 24 -7 0 -13 -4 -13
-9z"/>
<path d="M5892 2838 c6 -18 28 -21 28 -4 0 9 -7 16 -16 16 -9 0 -14 -5 -12
-12z"/>
<path d="M2570 2810 c0 -5 5 -10 10 -10 6 0 10 5 10 10 0 6 -4 10 -10 10 -5 0
-10 -4 -10 -10z"/>
<path d="M8355 2799 c22 -18 29 -20 36 -8 6 10 2 16 -14 21 -42 12 -50 8 -22
-13z"/>
<path d="M1216 2801 c-4 -5 -2 -12 3 -15 5 -4 12 -2 15 3 4 5 2 12 -3 15 -5 4
-12 2 -15 -3z"/>
<path d="M3232 2801 c2 -7 7 -12 11 -12 12 1 9 15 -3 20 -7 2 -11 -2 -8 -8z"/>
<path d="M7030 2803 c-47 -8 -90 -25 -90 -34 0 -5 3 -9 8 -10 4 0 36 -3 72 -5
36 -3 101 -11 145 -18 67 -11 101 -13 135 -7 2 1 -1 6 -7 12 -6 6 -9 18 -6 25
3 8 -1 16 -8 19 -42 15 -203 27 -249 18z"/>
<path d="M1126 2781 c-27 -30 -20 -67 18 -98 19 -15 32 -31 30 -35 -7 -12 -44
-10 -44 2 0 6 -7 10 -15 10 -22 0 -18 -38 5 -50 27 -15 51 -9 77 17 21 22 22
22 28 3 4 -11 13 -20 22 -20 11 0 13 6 8 23 -4 12 -10 44 -14 71 -3 27 -11 51
-17 53 -15 5 -25 -36 -17 -67 l7 -25 -35 26 c-19 15 -35 37 -37 50 l-3 24 21
-24 c24 -28 42 -18 30 16 -14 34 -44 46 -64 24z"/>
<path d="M1928 2779 c-22 -12 -23 -29 -4 -29 22 0 28 -33 24 -128 -2 -72 0
-87 12 -87 10 0 17 13 20 41 4 31 14 48 43 73 20 18 41 45 45 60 6 21 8 14 12
-34 4 -44 9 -60 20 -60 10 0 17 15 22 49 11 76 15 82 38 61 11 -10 20 -30 20
-45 0 -32 25 -66 55 -74 12 -3 34 3 53 14 27 17 32 25 32 59 0 74 -67 118
-107 71 -17 -20 -17 -19 -45 7 -26 25 -29 26 -47 9 -16 -15 -19 -15 -24 -1 -9
22 -27 19 -27 -5 0 -18 -2 -17 -25 5 -26 27 -84 34 -117 14z m110 -52 c2 -9
-9 -29 -25 -44 l-28 -28 -3 44 c-2 24 -1 50 2 58 6 14 9 14 29 0 12 -8 23 -22
25 -30z m236 -3 c9 -8 16 -25 16 -38 0 -47 -53 -63 -72 -21 -9 19 -8 29 6 50
19 29 29 31 50 9z"/>
<path d="M1 1445 l-1 -1210 167 4 c93 1 294 5 448 7 278 3 542 10 725 19 52 3
147 6 210 8 63 1 121 6 129 11 17 11 209 19 412 16 131 -1 167 2 220 18 35 11
100 25 144 32 44 7 105 19 135 27 45 11 81 11 195 3 77 -6 181 -18 231 -26
108 -17 443 -19 588 -4 78 8 105 15 122 31 13 13 24 17 28 10 4 -5 19 -10 34
-9 15 1 71 -2 124 -6 76 -5 104 -4 133 8 19 8 66 16 104 18 l69 2 -25 19 c-52
41 -51 89 3 77 19 -4 34 -4 34 1 0 5 7 9 15 9 17 0 21 -35 5 -45 -15 -10 -12
-45 5 -45 8 0 12 -6 9 -14 -7 -18 50 -78 97 -101 36 -18 79 -54 79 -65 0 -11
-45 -28 -96 -35 -27 -4 -58 -12 -69 -18 -50 -26 139 -59 475 -83 321 -23 1129
-26 1210 -4 35 9 93 14 158 12 93 -2 102 0 102 16 0 25 36 57 94 83 58 25 115
22 249 -12 166 -43 256 -43 385 0 31 10 90 29 131 42 l73 22 92 -21 c50 -11
109 -24 131 -27 63 -10 213 -60 300 -100 233 -108 287 -115 853 -115 l443 0
-3 52 c-3 49 -5 53 -42 72 -22 12 -41 26 -43 31 -2 6 15 35 37 65 23 30 43 64
46 75 3 11 4 173 2 360 l-3 340 -30 38 c-42 53 -77 70 -177 83 -74 9 -94 16
-137 47 -28 21 -58 37 -67 37 -9 0 -18 9 -21 20 -3 11 -11 20 -18 20 -8 0 -44
16 -81 35 -78 41 -96 43 -109 12 -9 -19 -17 -22 -64 -22 -46 1 -57 5 -75 28
-19 24 -28 27 -81 27 -48 -1 -66 -5 -90 -25 -28 -23 -29 -24 -11 -44 10 -11
22 -18 26 -16 4 2 15 -4 25 -15 16 -17 20 -18 45 -5 15 8 30 25 34 37 l6 23
19 -22 c11 -13 29 -23 40 -23 11 0 34 -12 51 -27 26 -24 29 -33 24 -64 -6 -36
-6 -36 -55 -34 -27 1 -55 7 -61 13 -18 18 -28 15 -38 -13 -9 -24 -12 -25 -79
-21 -38 2 -74 7 -79 10 -21 13 -40 -6 -40 -39 0 -54 -11 -78 -34 -71 -14 3
-30 -5 -50 -25 -33 -32 -33 -52 1 -57 29 -5 21 -27 -10 -28 -13 -1 -30 -2 -36
-3 -21 -2 -14 -34 12 -60 14 -13 25 -32 25 -42 0 -21 -8 -23 -30 -9 -11 7 -21
2 -37 -18 l-22 -27 -24 29 -24 30 -27 -27 c-29 -29 -28 -63 2 -81 12 -7 12
-10 1 -17 -10 -7 -11 -11 -3 -16 16 -11 5 -113 -12 -120 -8 -3 -14 -16 -14
-30 0 -19 4 -24 23 -21 16 2 23 -3 25 -17 1 -11 16 -29 31 -40 l29 -19 -25
-20 c-14 -11 -35 -20 -47 -21 -17 -2 -20 -7 -18 -34 4 -39 -20 -51 -49 -26
-13 13 -17 25 -13 39 6 18 5 19 -10 7 -13 -11 -20 -11 -41 3 -28 18 -24 36 14
68 24 20 29 76 7 84 -20 8 -95 -42 -105 -69 -5 -12 -5 -29 0 -38 9 -18 1 -59
-12 -59 -5 0 -9 9 -9 19 0 11 -4 22 -9 25 -19 12 -34 128 -27 213 11 149 45
259 113 366 41 65 53 97 34 97 -10 0 -110 -113 -137 -155 -10 -16 -21 -32 -25
-35 -3 -3 -21 -30 -41 -60 -41 -65 -50 -73 -102 -88 -31 -9 -44 -8 -67 3 -29
16 -109 21 -109 7 0 -13 -57 -42 -83 -42 -13 0 -30 -7 -38 -16 -19 -24 -58
-40 -125 -53 -53 -10 -68 -9 -105 5 -47 17 -52 17 -116 8 -59 -8 -148 20 -209
67 -28 21 -66 42 -85 45 -82 16 -167 81 -218 165 -12 21 -35 74 -51 119 -38
106 -44 113 -93 107 -73 -10 -96 -60 -56 -122 10 -16 32 -58 49 -93 24 -50 28
-67 20 -82 -14 -26 -27 -25 -41 3 -22 43 -77 87 -109 87 -25 0 -30 4 -30 24 0
19 -4 22 -25 18 -14 -2 -22 -9 -18 -15 3 -5 -1 -15 -10 -21 -8 -7 -17 -25 -19
-41 -3 -28 -6 -30 -38 -27 -43 3 -66 22 -27 22 30 0 38 24 11 34 -27 10 -32 7
-39 -24 -7 -33 -19 -45 -37 -34 -8 5 -6 11 6 19 25 19 1 32 -67 37 -55 4 -88
20 -74 34 4 4 32 6 63 5 63 -2 66 13 4 23 -35 5 -41 10 -38 28 2 17 -7 28 -41
47 -27 15 -46 20 -50 14 -3 -6 -15 -12 -26 -15 -14 -2 -19 -10 -17 -26 3 -22
-21 -32 -32 -14 -10 17 7 52 25 52 25 0 24 14 -4 42 -12 13 -32 36 -45 52 -25
32 -33 30 -36 -8 -1 -30 -14 -33 -42 -10 -13 11 -15 17 -6 20 19 9 14 24 -8
24 -11 0 -19 -6 -17 -12 1 -9 -10 -12 -36 -10 -38 3 -38 3 -35 -30 2 -27 -1
-33 -17 -34 -12 -1 -30 -6 -42 -13 -30 -16 -35 -14 -31 12 2 17 9 22 32 20 27
-2 27 -1 12 16 -9 10 -14 24 -12 32 7 20 -31 62 -49 55 -8 -3 -15 -13 -15 -23
0 -31 -16 -46 -39 -38 -11 3 -21 12 -21 20 0 16 -35 29 -50 20 -15 -9 -2 -25
21 -25 10 0 19 -4 19 -9 0 -5 3 -18 6 -28 4 -14 4 -15 -4 -4 -6 9 -19 11 -35
7 -27 -6 -38 7 -44 56 -3 28 10 35 55 29 10 -2 11 2 2 18 -13 25 -23 26 -40 6
-7 -8 -22 -15 -33 -15 -11 0 -17 -3 -13 -7 3 -4 -7 -21 -24 -38 l-31 -32 21
-25 c11 -15 20 -31 20 -37 0 -14 15 -14 59 -1 32 9 33 8 17 -9 -9 -9 -16 -25
-16 -33 0 -21 -36 -29 -51 -12 -6 8 -23 14 -38 14 -15 0 -32 5 -37 10 -8 8 -9
-3 -4 -35 6 -40 4 -47 -14 -58 -12 -6 -25 -10 -30 -9 -5 2 -19 -6 -31 -18 -13
-12 -28 -18 -38 -14 -19 7 -22 20 -7 29 6 4 8 11 5 16 -3 5 -15 0 -27 -10 -11
-11 -18 -24 -14 -29 3 -5 -6 -20 -19 -32 -30 -28 -33 -45 -6 -30 53 28 78 -1
44 -50 -9 -13 -17 -35 -18 -49 0 -44 -23 -33 -49 23 -24 53 -27 56 -48 44 -13
-7 -28 -20 -35 -28 -9 -12 -8 -16 8 -20 32 -8 23 -24 -20 -35 -46 -12 -64 -25
-33 -25 24 0 30 -28 10 -48 -18 -18 -28 -15 -28 8 0 44 -58 -1 -67 -52 -6 -39
-3 -42 62 -63 19 -6 19 -7 2 -16 -12 -7 -15 -17 -11 -37 4 -15 11 -31 15 -36
17 -19 9 -25 -16 -14 -14 6 -25 18 -25 26 0 18 -29 41 -53 42 -11 0 -22 12
-29 31 -13 37 -35 35 -63 -7 -17 -26 -25 -30 -44 -23 -45 17 -100 97 -101 147
0 18 -5 53 -11 77 -8 31 -8 61 0 112 7 37 18 111 26 163 19 129 38 179 85 225
22 22 40 45 40 51 0 7 13 15 30 19 16 3 42 21 58 40 16 18 39 36 51 40 33 10
43 49 35 135 -4 53 -3 84 6 99 26 49 -3 27 -121 -91 -156 -155 -327 -296 -422
-348 -15 -8 -72 -43 -127 -78 -55 -34 -102 -62 -105 -62 -4 0 -52 -21 -170
-75 -69 -31 -330 -117 -385 -126 -52 -8 -91 -16 -140 -29 -19 -5 -64 -11 -100
-15 -36 -3 -105 -10 -155 -15 -148 -17 -465 -3 -620 26 -398 76 -686 188 -985
385 -124 82 -140 95 -279 220 -147 133 -232 225 -332 359 -195 261 -300 477
-406 830 -8 25 -11 -312 -12 -1175z m8459 -265 c12 -7 17 -16 13 -26 -4 -10 1
-20 10 -26 21 -11 22 -29 2 -21 -10 3 -29 -8 -51 -31 -48 -49 -78 -46 -82 7
-2 26 1 39 12 43 9 3 16 14 16 23 0 14 19 27 58 40 2 1 12 -4 22 -9z m-3628
-72 c-9 -9 -15 -9 -24 0 -9 9 -7 12 12 12 19 0 21 -3 12 -12z m3184 -49 c12
-19 -12 -32 -36 -19 -18 10 -20 14 -9 21 19 12 36 11 45 -2z m675 -19 c22 -12
25 -39 7 -63 -11 -15 -18 -15 -55 -4 -50 15 -68 30 -60 51 9 23 76 33 108 16z
m-3851 -39 c0 -5 -7 -11 -15 -15 -15 -5 -20 5 -8 17 9 10 23 9 23 -2z m560 -7
c0 -8 -4 -12 -10 -9 -5 3 -10 10 -10 16 0 5 5 9 10 9 6 0 10 -7 10 -16z m31
-39 c-1 -15 -24 -12 -29 3 -3 9 2 13 12 10 10 -1 17 -7 17 -13z m2524 -31 c16
-35 16 -36 -10 -70 -14 -19 -30 -34 -36 -34 -19 0 -22 32 -5 67 9 19 14 39 11
44 -7 10 2 29 14 29 5 0 16 -16 26 -36z m-3248 -40 c6 -17 -42 -74 -64 -74
-18 0 -16 25 2 40 8 7 15 18 15 25 0 12 14 22 33 24 4 1 10 -6 14 -15z m743 6
c0 -5 -4 -10 -9 -10 -6 0 -13 5 -16 10 -3 6 1 10 9 10 9 0 16 -4 16 -10z
m-668 -15 c0 -5 -5 -11 -11 -13 -6 -2 -11 4 -11 13 0 9 5 15 11 13 6 -2 11 -8
11 -13z m483 -15 c-3 -5 -10 -10 -16 -10 -5 0 -9 5 -9 10 0 6 7 10 16 10 8 0
12 -4 9 -10z m-502 -26 c4 -4 -1 -21 -11 -38 -29 -54 -33 -57 -48 -45 -20 16
-17 36 5 42 14 3 18 11 14 26 -4 16 -1 21 14 21 11 0 23 -3 26 -6z m782 -23
c27 -10 27 -11 4 -6 -21 4 -28 0 -32 -15 -8 -33 -26 -23 -24 14 1 21 6 31 12
26 6 -4 24 -12 40 -19z m-107 -13 c4 -33 -10 -36 -38 -8 -24 24 -17 42 13 38
16 -2 23 -11 25 -30z m252 -15 c0 -25 0 -26 -20 -8 -11 10 -20 22 -20 27 0 4
9 8 20 8 15 0 20 -7 20 -27z m-1030 7 c0 -5 -4 -10 -10 -10 -5 0 -10 5 -10 10
0 6 5 10 10 10 6 0 10 -4 10 -10z m-155 -46 c0 -12 7 -19 19 -19 27 0 32 -24
8 -41 -13 -9 -18 -21 -15 -34 6 -24 -4 -25 -45 -4 -38 18 -38 19 -12 79 20 46
45 57 45 19z m332 10 c-3 -3 -12 -4 -19 -1 -8 3 -5 6 6 6 11 1 17 -2 13 -5z
m-160 -25 c6 -6 9 -18 6 -25 -3 -8 1 -14 11 -14 23 0 20 -11 -11 -48 -26 -31
-30 -32 -55 -20 -33 16 -42 33 -25 50 7 7 20 25 30 41 19 30 27 33 44 16z
m1128 0 c11 -17 0 -20 -21 -4 -17 13 -17 14 -2 15 9 0 20 -5 23 -11z m172 -5
c6 -17 -24 -84 -38 -84 -4 0 -11 5 -14 10 -3 6 -17 10 -31 10 -36 0 -28 28 15
57 40 27 59 29 68 7z m-1617 -64 c0 -5 -9 -10 -21 -10 -11 0 -17 5 -14 10 3 6
13 10 21 10 8 0 14 -4 14 -10z m3430 2 c0 -17 -25 -32 -54 -32 l-31 0 25 20
c25 20 60 27 60 12z"/>
<path d="M2854 2600 c-1 -20 4 -30 13 -30 10 0 13 9 11 27 -4 37 -23 39 -24 3z"/>
<path d="M3752 2600 c-1 -30 11 -40 23 -20 8 12 -3 50 -14 50 -4 0 -8 -13 -9
-30z"/>
<path d="M2370 2488 c0 -24 -4 -28 -27 -28 l-28 -1 27 -22 c24 -20 27 -30 29
-101 3 -55 0 -81 -8 -83 -11 -4 -36 63 -32 90 3 26 -2 37 -21 47 -29 15 -58 4
-80 -32 -17 -28 -18 -29 -25 -9 -10 33 -43 46 -65 26 -16 -14 -18 -14 -23 0
-13 32 -29 16 -22 -22 14 -77 15 -115 2 -110 -6 2 -16 31 -20 65 -7 46 -13 62
-24 62 -13 0 -15 -10 -11 -50 5 -44 -4 -70 -23 -70 -4 0 -12 21 -18 48 -23 88
-62 118 -93 70 l-15 -22 -27 29 -26 30 -23 -28 c-21 -25 -25 -26 -37 -13 -7 9
-19 16 -26 16 -9 0 -14 12 -14 35 0 37 -18 85 -32 85 -5 0 -6 -37 -2 -85 4
-47 3 -85 -1 -85 -4 0 -16 11 -27 25 -40 51 -82 23 -76 -51 2 -30 -1 -49 -9
-51 -14 -5 -26 30 -26 80 0 38 -23 67 -55 67 -26 0 -60 -47 -67 -94 -11 -72
31 -121 71 -82 8 8 14 19 14 25 0 17 14 13 28 -9 12 -20 46 -27 56 -11 3 5 23
3 43 -5 57 -20 93 -18 93 5 0 11 -4 21 -10 23 -6 2 -7 25 -2 63 l9 60 16 -37
c10 -21 17 -48 17 -62 0 -34 10 -56 25 -56 8 0 15 24 19 71 5 47 11 69 19 66
16 -5 36 -63 36 -104 1 -21 6 -33 15 -33 18 0 22 13 31 83 4 32 11 57 15 57 9
0 30 -46 30 -66 0 -8 7 -29 16 -46 13 -25 20 -29 42 -25 15 3 34 1 42 -3 25
-13 70 0 70 21 0 10 5 41 11 68 l11 51 24 -29 c13 -16 24 -40 24 -54 0 -14 9
-35 19 -48 l19 -24 32 23 c30 23 32 23 50 7 12 -11 28 -15 41 -12 12 3 30 2
40 -4 28 -14 33 7 10 37 -17 21 -21 41 -21 94 l0 68 39 7 c21 3 52 7 70 7 23
1 31 6 31 19 0 16 -7 17 -70 12 -42 -4 -70 -2 -70 4 0 5 -7 18 -15 29 -14 18
-14 18 -15 -8z m-847 -124 c25 -9 -10 -120 -36 -111 -13 4 -11 55 4 94 9 25
10 26 32 17z m787 -10 c0 -22 -45 -104 -57 -104 -15 0 -13 36 3 93 5 15 54 26
54 11z m-646 -26 c21 -32 31 -78 17 -78 -22 0 -51 40 -51 70 0 36 14 39 34 8z"/>
<path d="M3310 2488 c0 -21 -5 -28 -20 -28 -25 0 -26 -16 -1 -29 15 -8 19 -25
23 -91 4 -71 8 -85 31 -108 15 -14 29 -23 33 -19 7 6 4 13 -21 57 -9 14 -15
51 -15 87 l0 61 53 7 c106 15 121 47 17 38 -42 -4 -70 -2 -70 4 0 5 -7 18 -15
29 -14 18 -14 18 -15 -8z"/>
<path d="M5427 2464 c-14 -14 -31 -23 -36 -19 -20 12 -44 -12 -45 -44 -1 -17
1 -32 4 -32 3 -1 15 -3 28 -4 29 -3 36 -10 29 -29 -5 -11 -15 -14 -35 -10 -27
6 -30 3 -36 -29 -5 -27 -2 -41 11 -56 10 -12 21 -21 25 -21 13 0 9 28 -4 33
-7 3 -4 6 8 6 11 1 25 6 32 13 18 18 28 0 13 -23 -17 -28 -11 -31 23 -14 16 8
34 15 40 15 20 0 57 -46 51 -62 -4 -9 4 -36 16 -60 33 -62 33 -187 0 -222 -26
-28 -28 -49 -12 -126 16 -75 22 -158 12 -165 -5 -2 -12 -21 -15 -40 -4 -19
-16 -39 -26 -45 -12 -6 -20 -21 -20 -35 0 -18 -5 -25 -20 -25 -11 0 -20 -7
-20 -15 0 -8 7 -15 16 -15 21 0 124 62 149 90 17 19 17 21 1 39 -27 29 -46
107 -46 183 0 71 11 105 55 163 29 40 36 81 19 121 -8 18 -14 67 -14 108 0 58
-5 83 -20 108 -22 36 -26 88 -9 120 13 24 12 24 -26 34 -26 6 -28 5 -18 -8 14
-16 8 -28 -14 -28 -7 0 -12 8 -11 18 3 36 -3 58 -23 82 -13 16 -19 19 -15 8 3
-11 -2 -22 -14 -28 -11 -6 -20 -16 -20 -23 0 -7 -13 -18 -30 -24 -25 -9 -30
-9 -30 3 0 8 11 19 24 25 13 6 27 21 30 32 8 30 2 31 -27 1z m85 -38 c3 -16 0
-27 -10 -31 -23 -9 -36 10 -23 34 15 28 28 27 33 -3z m-62 -96 c0 -11 -4 -20
-10 -20 -5 0 -10 9 -10 20 0 11 5 20 10 20 6 0 10 -9 10 -20z m50 -44 c0 -8
-5 -18 -11 -22 -14 -8 -33 11 -25 25 10 16 36 13 36 -3z m27 -8 c-3 -8 -6 -5
-6 6 -1 11 2 17 5 13 3 -3 4 -12 1 -19z"/>
<path d="M3135 2350 l8 -100 -36 0 -36 0 -3 73 c-3 76 -17 92 -31 35 -13 -50
-39 -108 -49 -108 -4 0 -8 24 -8 53 0 50 -13 88 -25 75 -11 -11 -17 -77 -11
-112 4 -22 15 -40 28 -47 18 -10 25 -8 40 11 l19 23 22 -20 c17 -15 37 -20 84
-21 55 -2 64 1 93 28 18 17 34 29 35 28 1 -2 8 -13 14 -25 6 -13 18 -23 26
-23 17 0 20 16 5 25 -5 3 -10 28 -10 54 0 26 -7 56 -15 67 -13 17 -14 17 -15
2 0 -22 -13 -23 -30 -3 -16 19 -29 19 -50 0 -16 -15 -18 -12 -24 35 -5 36 -11
50 -22 50 -14 0 -15 -13 -9 -100z m95 -37 c0 -26 -25 -63 -42 -63 -12 0 -10
23 7 64 17 40 35 40 35 -1z"/>
<path d="M2050 2411 c0 -6 5 -13 10 -16 6 -3 10 1 10 9 0 9 -4 16 -10 16 -5 0
-10 -4 -10 -9z"/>
<path d="M2745 2410 c-3 -5 1 -10 10 -10 9 0 13 5 10 10 -3 6 -8 10 -10 10 -2
0 -7 -4 -10 -10z"/>
<path d="M2895 2410 c-3 -5 1 -10 10 -10 9 0 13 5 10 10 -3 6 -8 10 -10 10 -2
0 -7 -4 -10 -10z"/>
<path d="M3270 2411 c0 -6 5 -13 10 -16 6 -3 10 1 10 9 0 9 -4 16 -10 16 -5 0
-10 -4 -10 -9z"/>
<path d="M2656 2391 c-25 -28 -20 -66 14 -94 17 -14 30 -30 30 -35 0 -17 -28
-21 -40 -6 -17 20 -30 18 -30 -5 0 -10 11 -26 25 -35 16 -10 25 -26 25 -42 0
-16 5 -24 13 -21 6 2 11 16 10 31 -1 16 6 35 18 47 19 19 19 19 41 -3 24 -24
36 -11 19 21 -6 11 -11 37 -11 58 0 45 -13 69 -30 58 -8 -5 -10 -21 -6 -46 3
-22 4 -39 1 -39 -16 0 -65 56 -65 74 0 20 1 20 20 -4 22 -29 35 -22 26 14 -9
37 -39 50 -60 27z"/>
<path d="M5315 2400 c3 -5 8 -10 11 -10 2 0 4 5 4 10 0 6 -5 10 -11 10 -5 0
-7 -4 -4 -10z"/>
<path d="M2890 2321 c0 -57 16 -101 38 -101 10 0 12 5 6 18 -4 9 -10 41 -13
71 -8 72 -31 81 -31 12z"/>
<path d="M5290 2290 c0 -5 5 -10 10 -10 6 0 10 5 10 10 0 6 -4 10 -10 10 -5 0
-10 -4 -10 -10z"/>
<path d="M3400 2235 c0 -8 5 -15 10 -15 6 0 10 7 10 15 0 8 -4 15 -10 15 -5 0
-10 -7 -10 -15z"/>
<path d="M5290 2230 c0 -5 10 -14 22 -21 18 -10 20 -9 15 6 -4 9 -7 19 -7 21
0 2 -7 4 -15 4 -8 0 -15 -4 -15 -10z"/>
<path d="M5298 2168 c9 -9 15 -9 24 0 9 9 7 12 -12 12 -19 0 -21 -3 -12 -12z"/>
<path d="M5433 2165 c-18 -20 -5 -45 23 -45 17 0 22 4 18 15 -4 8 -11 12 -16
9 -6 -4 -8 2 -3 15 7 24 -4 27 -22 6z"/>
<path d="M5162 2130 c-26 -24 -28 -36 -7 -44 8 -3 15 -13 15 -23 0 -12 3 -14
11 -6 8 8 8 17 0 31 -15 27 -14 29 9 35 11 3 20 10 20 16 0 18 -24 13 -48 -9z"/>
<path d="M8831 2136 c-6 -8 -10 -20 -9 -27 2 -9 -8 -15 -24 -17 -31 -4 -37
-17 -12 -26 27 -10 54 -7 54 8 0 22 33 29 47 10 12 -17 83 -30 83 -15 0 15
-35 39 -67 46 -19 4 -33 13 -33 21 0 18 -24 18 -39 0z"/>
<path d="M5510 2126 c0 -9 5 -16 10 -16 6 0 10 4 10 9 0 6 -4 13 -10 16 -5 3
-10 -1 -10 -9z"/>
<path d="M5306 2115 c4 -8 10 -12 15 -9 14 8 10 24 -6 24 -9 0 -12 -6 -9 -15z"/>
<path d="M6190 2117 c-121 -50 -130 -55 -130 -84 0 -47 14 -59 41 -37 33 26
123 123 118 128 -2 2 -15 -1 -29 -7z"/>
<path d="M7356 2094 c-24 -23 -19 -52 12 -81 15 -14 26 -31 24 -39 -2 -8 2
-14 8 -14 5 0 10 8 11 18 0 13 2 14 6 2 3 -8 12 -18 19 -23 7 -4 11 -14 8 -22
-4 -8 -1 -15 5 -15 6 0 11 10 11 21 0 21 1 20 21 -5 21 -26 62 -36 57 -13 -4
21 26 76 47 83 16 6 12 8 -18 11 -32 4 -38 8 -34 23 7 27 -3 34 -70 53 -77 21
-88 21 -107 1z"/>
<path d="M8880 2040 c0 -15 39 -27 67 -22 43 8 27 32 -22 32 -25 0 -45 -5 -45
-10z"/>
<path d="M7610 2030 c0 -5 5 -10 11 -10 5 0 7 5 4 10 -3 6 -8 10 -11 10 -2 0
-4 -4 -4 -10z"/>
<path d="M7575 1950 c4 -6 11 -8 16 -5 14 9 11 15 -7 15 -8 0 -12 -5 -9 -10z"/>
<path d="M5280 1939 c0 -5 5 -7 10 -4 6 3 10 8 10 11 0 2 -4 4 -10 4 -5 0 -10
-5 -10 -11z"/>
<path d="M1428 1889 c-25 -19 -28 -27 -28 -83 0 -97 10 -156 27 -156 11 0 13
7 8 30 -9 40 3 90 21 90 18 0 18 10 -2 24 -18 14 -10 42 18 57 31 17 48 -6 48
-62 0 -51 13 -66 24 -26 3 12 6 41 6 64 0 41 -2 43 -44 63 -53 24 -45 24 -78
-1z"/>
<path d="M2871 1886 c-7 -8 -11 -40 -9 -77 2 -35 -1 -79 -5 -96 -8 -29 -6 -34
18 -45 19 -9 28 -9 37 0 7 7 19 12 28 12 28 0 39 19 26 46 -6 13 -17 24 -23
24 -15 0 -17 -26 -3 -35 11 -7 4 -25 -10 -25 -15 0 -28 63 -18 83 13 26 50 17
66 -16 7 -15 17 -25 22 -22 5 3 0 21 -12 41 -18 31 -23 34 -54 28 -29 -5 -34
-3 -34 13 0 11 10 25 23 32 l22 12 -23 -5 c-12 -2 -20 0 -16 5 3 5 14 9 24 9
32 0 31 17 -1 24 -43 8 -45 8 -58 -8z"/>
<path d="M2336 1875 c-3 -8 -15 -15 -26 -15 -13 0 -18 -4 -15 -11 4 -6 13 -8
21 -5 9 3 15 -5 18 -27 13 -83 14 -107 7 -107 -4 0 -16 -6 -26 -14 -16 -12
-17 -16 -6 -30 18 -21 41 -20 70 4 l23 20 -21 18 c-19 16 -20 22 -11 87 6 47
5 74 -2 82 -14 17 -25 16 -32 -2z"/>
<path d="M2970 1880 c0 -21 16 -44 23 -33 4 6 0 19 -8 29 -11 15 -14 16 -15 4z"/>
<path d="M3249 1873 c-1 -4 -1 -32 1 -60 2 -56 -4 -64 -26 -35 -13 16 -13 16
-14 -1 0 -9 -6 -26 -12 -37 -18 -28 9 -76 40 -73 12 2 22 -2 22 -7 0 -6 5 -10
10 -10 6 0 10 14 10 32 l0 31 23 -21 c28 -26 49 -28 45 -4 -2 11 4 18 20 20
29 4 28 28 -3 48 -21 14 -31 15 -51 5 -14 -6 -26 -11 -27 -11 -1 0 -2 28 -2
62 0 52 -3 63 -17 66 -10 2 -19 0 -19 -5z m-7 -175 c-13 -13 -26 8 -17 30 6
16 7 16 17 -1 7 -13 7 -22 0 -29z"/>
<path d="M5223 1853 c-7 -2 -13 -16 -13 -29 0 -13 -4 -24 -9 -24 -5 0 -11 -10
-13 -22 -2 -18 -11 -24 -34 -26 -19 -2 -41 -14 -55 -30 l-24 -26 27 17 c29 18
58 22 58 9 0 -20 -83 -72 -115 -72 -8 0 -15 8 -15 18 0 14 -8 18 -34 18 l-33
0 31 -23 c69 -50 108 -65 149 -59 38 6 39 6 33 -18 -7 -27 21 -46 30 -21 4 8
13 15 21 15 12 0 14 9 9 45 -5 29 -4 45 3 45 6 0 11 7 11 16 0 11 6 14 20 9
20 -6 28 9 10 20 -21 13 -11 63 17 85 24 19 25 22 11 36 -12 13 -20 14 -37 5
-17 -10 -21 -9 -21 4 0 15 -6 17 -27 8z"/>
<path d="M1977 1833 c-12 -11 -8 -31 8 -37 11 -4 15 1 15 19 0 24 -10 32 -23
18z"/>
<path d="M2505 1830 c-10 -16 16 -43 28 -31 11 11 2 41 -12 41 -5 0 -13 -5
-16 -10z"/>
<path d="M3027 1834 c-14 -15 -6 -34 14 -34 14 0 19 5 17 17 -3 18 -20 27 -31
17z"/>
<path d="M1694 1798 c-10 -16 -5 -107 7 -129 20 -37 36 -22 31 29 -3 35 0 51
11 61 14 11 14 14 -4 32 -22 22 -35 24 -45 7z"/>
<path d="M1974 1765 c-8 -20 4 -65 16 -65 6 0 10 18 10 40 0 40 -15 54 -26 25z"/>
<path d="M2505 1770 c-7 -11 15 -110 24 -110 12 0 6 113 -6 117 -6 2 -14 -1
-18 -7z"/>
<path d="M2670 1765 c-7 -8 -8 -19 -3 -27 4 -7 8 -24 8 -38 0 -22 4 -25 42
-27 l42 -2 -6 37 c-10 62 -53 93 -83 57z"/>
<path d="M3025 1770 c-7 -11 15 -110 24 -110 3 0 6 26 5 57 -1 54 -14 78 -29
53z"/>
<path d="M5350 1772 c0 -12 19 -26 26 -19 2 2 -2 10 -11 17 -9 8 -15 8 -15 2z"/>
<path d="M8105 1770 c-3 -5 -1 -10 4 -10 6 0 11 5 11 10 0 6 -2 10 -4 10 -3 0
-8 -4 -11 -10z"/>
<path d="M2557 1729 c2 -24 6 -50 9 -57 5 -18 24 -5 24 16 0 9 5 24 10 32 8
12 11 13 19 1 6 -10 10 -10 16 -1 10 17 -14 38 -52 46 l-31 6 5 -43z"/>
<path d="M3074 1755 c3 -9 6 -34 6 -56 0 -28 4 -39 15 -39 8 0 15 9 15 19 0
34 10 49 31 44 10 -3 19 -1 19 3 -1 22 -20 36 -55 41 -33 4 -37 3 -31 -12z"/>
<path d="M3417 1762 c-2 -4 -2 -28 1 -54 5 -60 25 -63 38 -5 10 40 9 44 -13
54 -13 6 -24 8 -26 5z"/>
<path d="M1576 1751 c-9 -14 3 -58 20 -71 17 -15 39 -3 25 13 -5 7 -11 23 -13
36 -3 26 -22 39 -32 22z"/>
<path d="M1779 1753 c-3 -21 4 -59 13 -70 14 -18 38 -16 38 2 0 8 -4 15 -10
15 -5 0 -7 7 -4 15 4 8 1 22 -6 30 -13 16 -29 20 -31 8z"/>
<path d="M1847 1753 c-12 -12 -7 -50 8 -63 12 -10 13 -6 8 27 -7 44 -7 45 -16
36z"/>
<path d="M1893 1713 c1 -35 6 -49 18 -51 20 -4 34 65 17 85 -23 28 -37 14 -35
-34z"/>
<path d="M2426 1723 c11 -78 26 -85 41 -18 8 36 7 45 -4 50 -34 13 -42 6 -37
-32z"/>
<path d="M1642 1721 c2 -19 8 -36 15 -38 9 -3 10 4 3 28 -13 45 -22 50 -18 10z"/>
<path d="M2097 1733 c-14 -14 -6 -22 27 -29 46 -8 66 5 35 22 -26 15 -52 18
-62 7z"/>
<path d="M1510 1709 c0 -5 5 -7 10 -4 6 3 10 8 10 11 0 2 -4 4 -10 4 -5 0 -10
-5 -10 -11z"/>
<path d="M1985 1670 c3 -5 8 -10 11 -10 2 0 4 5 4 10 0 6 -5 10 -11 10 -5 0
-7 -4 -4 -10z"/>
<path d="M7925 1539 c-22 -4 -41 -5 -43 -4 -2 2 -13 -6 -24 -17 -11 -11 -26
-17 -33 -14 -7 2 -15 -4 -18 -15 -3 -12 -11 -17 -20 -13 -8 3 -18 1 -22 -5 -3
-6 -15 -11 -25 -11 -11 0 -24 -9 -30 -20 -6 -11 -15 -20 -20 -20 -11 0 -60
-40 -106 -86 -16 -17 -40 -35 -52 -38 -31 -10 -27 -24 13 -43 37 -18 46 -33
18 -33 -12 0 -14 -3 -6 -11 8 -8 23 -3 54 18 24 15 46 31 49 35 3 4 26 14 50
23 25 9 64 35 87 58 23 23 52 52 64 63 12 12 34 36 49 53 17 19 38 31 53 31
20 0 57 34 57 53 0 6 -48 3 -95 -4z"/>
<path d="M4962 1347 c-12 -13 -22 -26 -22 -30 0 -14 38 -6 53 11 37 41 6 59
-31 19z"/>
<path d="M4792 1314 c-20 -10 -21 -12 -6 -18 18 -7 39 6 33 21 -2 5 -14 4 -27
-3z"/>
<path d="M7478 1313 c6 -2 18 -2 25 0 6 3 1 5 -13 5 -14 0 -19 -2 -12 -5z"/>
<path d="M5335 1300 c3 -5 8 -10 11 -10 2 0 4 5 4 10 0 6 -5 10 -11 10 -5 0
-7 -4 -4 -10z"/>
<path d="M4890 1284 c0 -9 7 -14 17 -12 25 5 28 28 4 28 -12 0 -21 -6 -21 -16z"/>
<path d="M5009 1287 c-8 -7 -23 -16 -33 -20 -30 -12 -15 -16 29 -8 24 4 40 12
40 20 0 20 -20 24 -36 8z"/>
<path d="M5084 1286 c-3 -9 -13 -16 -21 -16 -10 0 -13 -9 -11 -27 2 -22 9 -29
31 -31 22 -3 27 1 28 20 0 21 1 21 8 4 11 -29 21 -4 12 30 -8 32 -38 44 -47
20z"/>
<path d="M7415 1280 c-10 -11 -24 -20 -32 -20 -7 0 -13 -4 -13 -10 0 -20 53
-10 76 16 29 30 29 34 6 34 -11 0 -27 -9 -37 -20z"/>
<path d="M8580 1260 c-8 -5 -12 -12 -8 -15 10 -10 49 5 43 16 -8 11 -16 11
-35 -1z"/>
<path d="M7895 1238 c-24 -14 -45 -40 -39 -50 5 -8 84 42 84 54 0 11 -21 9
-45 -4z"/>
<path d="M4915 1200 c3 -5 8 -10 11 -10 2 0 4 5 4 10 0 6 -5 10 -11 10 -5 0
-7 -4 -4 -10z"/>
<path d="M5900 1200 c-13 -8 -12 -10 3 -10 9 0 17 5 17 10 0 12 -1 12 -20 0z"/>
<path d="M5325 1155 c0 -13 5 -29 11 -35 17 -17 34 10 23 38 -11 30 -35 28
-34 -3z"/>
<path d="M5830 1160 c0 -5 4 -10 9 -10 6 0 13 5 16 10 3 6 -1 10 -9 10 -9 0
-16 -4 -16 -10z"/>
<path d="M7500 1152 c-8 -2 -30 -11 -49 -20 -18 -8 -56 -20 -83 -27 l-49 -11
-30 -89 c-17 -50 -28 -100 -26 -112 2 -13 -2 -24 -9 -27 -18 -7 -18 -21 2 -40
8 -9 11 -16 5 -16 -13 0 -37 -77 -27 -87 4 -4 21 7 39 25 26 27 30 35 20 50
-15 24 5 57 117 192 45 56 111 152 108 159 -2 4 -10 6 -18 3z"/>
<path d="M5612 1139 c-26 -10 -31 -43 -4 -35 11 4 32 -8 61 -34 67 -61 142
-68 101 -10 -29 40 -128 90 -158 79z"/>
<path d="M6070 1137 c0 -9 13 -22 30 -30 26 -13 31 -13 41 0 10 12 10 16 -2
24 -8 5 -19 9 -26 9 -6 0 -18 3 -27 6 -10 4 -16 1 -16 -9z"/>
<path d="M6165 1100 c-4 -11 -24 -29 -46 -40 -25 -13 -39 -27 -39 -40 0 -15
24 -78 37 -99 6 -9 33 23 33 40 0 16 7 18 50 15 51 -4 63 7 38 32 -6 6 -9 14
-6 18 7 6 77 7 112 2 10 -2 21 3 23 10 3 8 -6 12 -26 12 -17 0 -31 5 -31 11 0
6 15 9 37 7 21 -1 38 2 40 9 3 7 -26 13 -87 18 -49 4 -93 11 -96 16 -10 16
-32 9 -39 -11z"/>
<path d="M7838 1093 c-20 -5 -31 -30 -17 -39 15 -9 59 16 59 33 0 13 -10 15
-42 6z"/>
<path d="M4590 1080 c0 -5 7 -10 15 -10 8 0 15 5 15 10 0 6 -7 10 -15 10 -8 0
-15 -4 -15 -10z"/>
<path d="M5500 1075 c-16 -19 -9 -49 13 -53 11 -2 17 3 17 17 0 11 5 23 11 27
8 4 7 9 -2 15 -19 12 -25 11 -39 -6z"/>
<path d="M6536 1068 c-8 -24 -19 -153 -17 -193 2 -50 23 -74 46 -55 13 11 15
26 9 92 -6 76 -6 79 20 99 15 12 25 28 22 35 -3 8 -1 14 5 14 6 0 7 5 4 10 -9
15 -85 12 -89 -2z"/>
<path d="M7029 1067 l-77 -10 -12 -61 c-6 -34 -18 -83 -26 -110 -8 -27 -14
-64 -14 -82 0 -17 -6 -37 -14 -44 -15 -12 -14 -39 2 -94 l8 -29 27 26 c30 31
42 81 33 137 -3 22 -3 40 2 40 4 0 7 18 7 39 0 51 28 80 103 110 94 37 102 43
102 68 0 26 -10 27 -141 10z"/>
<path d="M6660 1060 c20 -13 100 -13 100 0 0 6 -26 10 -57 10 -41 0 -54 -3
-43 -10z"/>
<path d="M5570 955 c0 -22 4 -25 33 -25 21 0 36 7 44 19 10 16 9 18 -6 14 -11
-3 -22 0 -25 6 -4 6 -16 11 -27 11 -14 0 -19 -7 -19 -25z"/>
<path d="M6170 900 c0 -5 5 -10 10 -10 6 0 10 5 10 10 0 6 -4 10 -10 10 -5 0
-10 -4 -10 -10z"/>
<path d="M7155 890 c3 -5 8 -10 11 -10 2 0 4 5 4 10 0 6 -5 10 -11 10 -5 0 -7
-4 -4 -10z"/>
<path d="M7730 880 c0 -5 4 -10 9 -10 6 0 13 5 16 10 3 6 -1 10 -9 10 -9 0
-16 -4 -16 -10z"/>
<path d="M6170 849 c0 -5 5 -7 10 -4 6 3 10 8 10 11 0 2 -4 4 -10 4 -5 0 -10
-5 -10 -11z"/>
<path d="M6506 812 c-2 -4 -1 -14 5 -22 7 -12 9 -10 9 8 0 23 -5 28 -14 14z"/>
<path d="M7166 811 c-4 -5 -2 -12 3 -15 5 -4 12 -2 15 3 4 5 2 12 -3 15 -5 4
-12 2 -15 -3z"/>
<path d="M7760 810 c-13 -8 -12 -10 3 -10 9 0 17 5 17 10 0 12 -1 12 -20 0z"/>
<path d="M6545 758 c6 -35 5 -41 -6 -30 -33 31 -74 -4 -44 -38 8 -9 12 -20 8
-24 -11 -11 26 -36 53 -36 34 0 48 24 36 60 -10 27 -9 30 9 30 10 0 19 4 19 9
0 17 -20 23 -34 12 -11 -9 -15 -4 -20 24 -10 52 -29 45 -21 -7z"/>
<path d="M6410 770 c0 -5 5 -10 10 -10 6 0 10 5 10 10 0 6 -4 10 -10 10 -5 0
-10 -4 -10 -10z"/>
<path d="M6800 731 c0 -6 5 -13 10 -16 6 -3 10 1 10 9 0 9 -4 16 -10 16 -5 0
-10 -4 -10 -9z"/>
<path d="M4142 674 c4 -21 22 -23 26 -1 2 10 -3 17 -13 17 -10 0 -15 -6 -13
-16z"/>
<path d="M7100 220 c0 -5 5 -10 11 -10 5 0 7 5 4 10 -3 6 -8 10 -11 10 -2 0
-4 -4 -4 -10z"/>
</g>
</svg>
