<?xml version="1.0" standalone="no"?>
<!DOCTYPE svg PUBLIC "-//W3C//DTD SVG 20010904//EN"
 "http://www.w3.org/TR/2001/REC-SVG-20010904/DTD/svg10.dtd">
<svg version="1.0" xmlns="http://www.w3.org/2000/svg"
 width="1151.000000pt" height="844.000000pt" viewBox="0 0 1151.000000 844.000000"
 preserveAspectRatio="xMidYMid meet">

<g transform="translate(0.000000,844.000000) scale(0.100000,-0.100000)"
fill="#000000" stroke="none">
<path d="M0 4220 l0 -4220 5755 0 5755 0 0 4220 0 4220 -5755 0 -5755 0 0
-4220z m2725 1825 c64 -12 126 -46 146 -79 20 -33 25 -90 10 -129 -35 -91
-223 -207 -336 -207 l-35 0 0 213 0 213 88 -1 c48 -1 105 -6 127 -10z m5513
-73 l3 -82 50 0 c35 0 51 -4 56 -15 8 -22 -2 -28 -55 -35 l-47 -5 0 -105 c0
-98 -1 -105 -20 -105 -18 0 -20 8 -25 105 l-5 105 -53 3 c-37 2 -55 8 -59 19
-8 21 14 33 65 33 l42 0 0 78 c0 82 4 95 30 90 12 -3 16 -21 18 -86z m-190 41
c-4 -20 -18 -26 -37 -14 -18 12 -5 31 20 31 14 0 19 -6 17 -17z m-4298 -2 c0
-18 33 -21 57 -6 13 9 29 15 36 12 17 -5 -39 -57 -63 -57 -24 0 -63 36 -55 50
8 12 25 13 25 1z m692 -137 c9 -86 12 -230 4 -243 -11 -18 -36 -13 -36 7 0 29
-8 31 -61 11 -27 -11 -71 -19 -98 -19 -43 0 -53 4 -76 32 -26 31 -27 36 -22
118 6 104 21 150 49 150 17 0 19 -5 14 -27 -20 -95 -28 -162 -23 -184 10 -39
54 -54 114 -40 90 23 93 27 93 145 0 56 3 106 7 110 16 16 28 -5 35 -60z m996
34 l3 -26 42 24 c62 35 138 27 152 -17 6 -17 9 -17 45 7 41 27 103 40 143 30
35 -8 45 -44 50 -178 l5 -118 -29 0 -29 0 2 120 c3 129 -1 140 -48 140 -68 0
-123 -89 -124 -201 0 -41 -4 -58 -15 -63 -35 -13 -40 2 -40 124 0 131 -6 146
-55 134 -58 -13 -83 -63 -96 -191 -5 -58 -8 -63 -30 -63 l-24 0 2 148 c1 89 6
150 12 154 18 12 31 3 34 -24z m1682 13 c5 -11 10 -29 10 -40 0 -27 1 -27 55
11 37 26 57 33 108 36 50 3 66 1 76 -12 21 -26 -1 -40 -56 -37 -61 2 -129 -31
-160 -78 -18 -27 -23 -48 -23 -101 0 -58 -3 -68 -19 -73 -11 -2 -24 0 -30 6
-12 12 -16 263 -5 291 8 22 31 20 44 -3z m-3965 -15 c21 -32 34 -269 16 -280
-21 -13 -41 15 -41 57 l0 41 -32 -31 c-18 -17 -44 -36 -58 -43 -31 -17 -125
-17 -145 0 -19 16 -20 80 -1 124 48 116 216 200 261 132z m336 14 c22 -12 25
-33 5 -49 -10 -9 -16 -8 -26 4 -46 55 -210 -58 -210 -145 0 -11 9 -29 20 -40
28 -28 115 -27 202 2 70 22 90 20 72 -10 -28 -44 -222 -69 -284 -37 -36 19
-60 52 -60 85 0 52 70 144 139 180 40 21 111 26 142 10z m375 -15 c21 -32 34
-268 15 -279 -21 -13 -41 15 -41 57 l0 40 -27 -28 c-15 -15 -41 -34 -58 -42
-36 -19 -129 -21 -150 -3 -19 16 -20 80 -1 124 49 116 216 200 262 131z m642
13 c7 -7 12 -20 12 -31 0 -10 3 -17 8 -15 4 2 31 16 60 31 69 36 116 34 146
-6 18 -25 21 -45 25 -153 3 -120 2 -124 -18 -124 -26 0 -30 18 -34 150 l-2
105 -30 3 c-41 5 -97 -13 -128 -42 -25 -24 -27 -31 -27 -115 0 -91 -5 -106
-34 -95 -14 5 -16 28 -16 148 0 156 5 177 38 144z m805 -18 c58 -50 66 -137
20 -206 -25 -39 -91 -64 -167 -64 -61 0 -70 3 -97 29 -24 24 -29 38 -29 76 0
80 42 153 105 181 17 7 53 13 82 14 44 0 58 -5 86 -30z m1094 22 c22 -14 31
-57 34 -177 4 -115 3 -120 -16 -120 -16 0 -21 8 -23 35 -5 58 -11 67 -28 42
-38 -54 -156 -83 -213 -53 -21 12 -23 18 -19 66 8 100 124 214 218 214 19 1
40 -3 47 -7z m611 -25 c20 -21 23 -35 29 -162 7 -158 -4 -229 -42 -287 -31
-47 -66 -65 -141 -73 -46 -5 -64 -3 -79 9 -17 13 -18 17 -5 26 8 5 41 10 72
10 73 0 111 29 133 103 14 49 21 178 9 189 -3 3 -28 -9 -55 -28 -77 -52 -173
-71 -199 -39 -17 21 -6 72 29 126 90 143 184 190 249 126z m576 23 c62 -23 87
-88 44 -111 -12 -6 -67 -15 -122 -18 -96 -6 -101 -7 -104 -30 -6 -41 7 -68 38
-81 39 -16 109 -7 167 22 31 16 46 19 54 11 16 -16 4 -30 -49 -57 -168 -84
-311 10 -243 159 20 44 65 93 96 106 28 11 89 11 119 -1z m347 0 c10 -6 19
-19 19 -29 0 -16 -8 -17 -80 -13 -77 4 -80 4 -110 -26 -16 -17 -30 -38 -30
-48 0 -15 9 -16 75 -11 41 3 90 1 109 -4 68 -19 52 -80 -32 -127 -34 -19 -42
-29 -42 -53 0 -26 3 -29 31 -29 68 0 91 -42 43 -79 -32 -25 -104 -29 -104 -6
0 10 10 15 31 15 33 0 69 15 69 30 0 5 -19 10 -42 12 -40 3 -43 5 -51 40 -8
35 -9 36 -55 35 -36 -2 -47 2 -50 14 -2 12 7 18 35 23 106 19 181 62 155 88
-9 9 -30 9 -84 0 -59 -9 -76 -8 -100 4 -40 21 -40 79 1 118 48 46 165 71 212
46z m124 -123 c9 -147 7 -161 -23 -165 -22 -3 -22 -3 -22 142 0 137 1 146 19
146 17 0 20 -11 26 -123z m364 -116 c11 -7 8 -18 -14 -56 -25 -42 -49 -64 -60
-53 -5 5 46 118 54 118 3 0 12 -4 20 -9z m-3353 -267 c42 -35 54 -57 36 -68
-5 -3 -24 8 -43 24 -19 16 -38 29 -42 30 -4 0 -21 -14 -37 -31 -27 -30 -50
-32 -50 -4 0 11 76 84 88 85 2 0 24 -16 48 -36z m2413 -3 c32 -27 42 -43 38
-55 -6 -16 -10 -15 -38 6 -61 46 -58 45 -87 10 -30 -36 -52 -42 -52 -13 0 17
71 91 88 91 4 0 27 -18 51 -39z m-1496 -184 c-1 -114 -4 -211 -8 -216 -7 -13
-35 -3 -35 13 -1 34 -17 37 -71 11 -73 -34 -131 -33 -166 1 -22 22 -25 32 -20
71 6 56 30 89 92 128 39 24 59 30 106 30 l59 0 0 68 c0 71 13 111 33 104 9 -3
12 -59 10 -210z m-2183 136 c0 -38 4 -73 8 -80 4 -6 28 -13 52 -15 37 -2 45
-6 45 -23 0 -17 -8 -20 -47 -23 -42 -3 -48 -6 -49 -25 0 -12 -1 -60 -2 -107
-2 -78 -4 -85 -22 -85 -18 0 -20 8 -25 105 l-5 105 -53 3 c-37 2 -55 8 -59 19
-8 22 16 34 62 31 l40 -3 3 83 c3 80 4 82 27 82 24 0 25 -3 25 -67z m1520 10
c0 -93 5 -102 59 -105 38 -3 46 -6 46 -23 0 -17 -8 -20 -47 -23 l-47 -3 -3
-107 c-3 -99 -4 -107 -23 -107 -18 0 -20 8 -25 105 l-5 105 -53 3 c-37 2 -55
8 -59 19 -8 21 14 33 65 33 l42 0 0 80 c0 79 0 80 25 80 24 0 25 -3 25 -57z
m2410 -10 c0 -38 4 -73 8 -80 4 -6 28 -13 52 -15 37 -2 45 -6 45 -23 0 -17 -8
-21 -50 -25 l-50 -5 0 -105 c0 -98 -1 -105 -20 -105 -18 0 -20 8 -25 105 l-5
105 -53 3 c-37 2 -55 8 -59 19 -8 21 14 33 65 33 l42 0 0 80 c0 79 0 80 25 80
24 0 25 -2 25 -67z m1140 18 c0 -27 3 -62 6 -79 6 -29 10 -31 53 -34 38 -3 46
-6 46 -23 0 -17 -8 -20 -48 -23 l-49 -3 3 -100 c3 -102 -5 -127 -35 -116 -13
5 -16 25 -16 112 l0 105 -54 0 c-30 0 -58 5 -61 10 -13 21 17 40 61 40 l44 0
0 73 c0 79 3 87 32 87 15 0 18 -8 18 -49z m-6492 12 c5 -17 -26 -29 -40 -15
-6 6 -7 15 -3 22 9 14 37 9 43 -7z m1114 -10 c19 -17 21 -17 50 0 17 10 33 15
37 11 9 -8 -47 -54 -66 -54 -21 0 -53 29 -53 47 0 18 10 16 32 -4z m-1397
-176 c9 -143 4 -201 -17 -205 -12 -2 -18 3 -18 16 0 30 -9 32 -53 11 -26 -11
-65 -19 -100 -19 -48 0 -62 4 -82 25 -23 22 -25 32 -24 107 1 99 17 161 43
166 16 3 18 -1 13 -35 -4 -21 -9 -72 -13 -114 -6 -72 -5 -77 17 -93 13 -9 37
-16 54 -16 33 0 115 34 127 53 4 7 8 55 8 108 0 99 3 111 25 103 9 -4 15 -38
20 -107z m959 73 c13 -47 13 -47 39 -22 55 51 185 72 207 33 14 -26 -2 -35
-55 -32 -55 3 -118 -23 -155 -65 -27 -31 -30 -41 -30 -103 0 -72 -14 -99 -45
-87 -12 4 -15 31 -15 154 0 82 3 152 7 156 15 15 38 -1 47 -34z m3846 -122 c4
-79 4 -147 -1 -152 -13 -14 -39 2 -39 24 l0 20 -52 -21 c-68 -27 -144 -28
-170 -1 -30 29 -39 91 -28 174 14 98 18 108 42 108 17 0 19 -4 14 -32 -3 -18
-9 -70 -12 -114 -7 -80 -6 -82 20 -99 32 -21 95 -14 144 15 l32 20 0 104 c0
74 4 106 13 109 24 9 30 -14 37 -155z m84 122 c13 -47 13 -47 39 -22 32 31 90
52 139 52 51 0 71 -11 66 -36 -3 -15 -11 -18 -49 -16 -59 4 -121 -21 -159 -64
-27 -31 -30 -41 -30 -103 0 -72 -14 -99 -45 -87 -12 4 -15 31 -15 154 0 82 3
152 7 156 15 15 38 -1 47 -34z m-5456 -3 c3 -26 25 -37 36 -18 10 16 96 51
126 51 17 0 37 -9 49 -21 23 -25 41 -119 41 -217 0 -70 -1 -72 -25 -72 l-25 0
0 111 c0 130 -7 149 -56 149 -36 0 -102 -28 -121 -52 -6 -7 -14 -57 -18 -111
-6 -83 -10 -98 -24 -95 -14 3 -16 23 -19 143 -1 76 0 145 3 153 8 22 30 8 33
-21z m1417 9 c21 -32 34 -269 16 -280 -21 -13 -41 15 -41 58 -1 32 -3 37 -11
24 -5 -10 -31 -30 -56 -45 -53 -31 -138 -38 -167 -14 -20 17 -21 80 -2 125 48
116 216 200 261 132z m650 10 c16 -12 20 -33 26 -147 4 -74 4 -138 -1 -143
-20 -21 -40 4 -40 50 l0 46 -38 -34 c-48 -44 -117 -63 -171 -48 -41 11 -51 24
-51 68 0 58 79 164 150 202 42 23 99 25 125 6z m572 -12 c13 -20 18 -57 23
-146 3 -66 2 -125 -1 -130 -13 -20 -39 1 -40 32 -1 16 -3 35 -4 40 -1 6 -3 13
-4 17 0 4 -8 -3 -17 -15 -26 -37 -93 -66 -151 -65 -66 0 -83 14 -83 66 0 106
117 225 222 227 30 0 41 -6 55 -26z m584 6 c24 -20 24 -20 5 -35 -17 -13 -21
-13 -36 0 -9 8 -24 15 -34 15 -30 0 -91 -38 -129 -79 -44 -49 -50 -96 -16
-127 27 -24 115 -24 179 1 25 9 58 19 73 22 24 5 28 3 25 -13 -6 -31 -107 -65
-193 -66 -110 0 -155 30 -155 104 0 35 40 109 76 139 67 58 162 76 205 39z
m359 10 c24 -13 29 -45 33 -185 2 -104 1 -110 -18 -110 -17 0 -21 8 -25 48
l-5 49 -25 -27 c-47 -50 -119 -72 -179 -55 -58 16 -66 54 -27 135 52 111 175
183 246 145z m1143 -1 c62 -32 85 -82 51 -110 -10 -8 -56 -15 -122 -19 l-107
-5 -3 -42 c-2 -33 1 -44 20 -57 34 -24 102 -20 170 11 42 18 62 23 70 15 15
-15 2 -29 -55 -58 -88 -45 -216 -32 -247 25 -37 71 23 203 110 243 24 11 89 9
113 -3z m1263 3 c24 -16 32 -53 35 -172 4 -120 3 -125 -16 -125 -16 0 -21 8
-23 43 -2 23 -7 42 -11 42 -4 0 -18 -11 -31 -25 -57 -60 -202 -67 -216 -10
-18 71 53 187 140 230 49 25 100 32 122 17z m819 -6 c41 -17 70 -67 56 -95
-12 -22 -58 -31 -163 -31 -84 0 -85 -1 -79 -65 4 -59 101 -73 190 -29 38 19
56 23 63 16 16 -16 -8 -41 -57 -63 -87 -38 -182 -31 -222 16 -49 56 -17 180
60 236 45 33 96 38 152 15z m343 -2 c39 -27 21 -36 -70 -38 -95 -1 -128 -17
-128 -64 0 -24 1 -25 72 -20 79 6 136 -5 145 -29 13 -33 -24 -80 -83 -108 -69
-33 -156 -40 -162 -14 -2 12 8 18 43 22 58 8 142 44 150 65 11 29 -11 35 -87
24 -66 -10 -76 -10 -98 7 -60 44 -25 118 70 151 68 24 118 25 148 4z m557 2
c41 -17 70 -67 56 -95 -12 -22 -58 -31 -163 -31 l-76 0 -7 -30 c-19 -86 83
-117 201 -60 75 37 87 -7 12 -46 -81 -42 -195 -36 -235 11 -49 56 -17 180 60
236 45 33 96 38 152 15z m-6840 -130 c4 -74 4 -139 1 -145 -4 -6 -16 -11 -27
-11 -18 0 -19 8 -19 145 0 136 1 145 19 145 17 0 20 -12 26 -134z m-100 4 c0
-19 -141 -38 -158 -21 -15 15 -3 24 46 32 66 11 112 6 112 -11z m7101 -115 c8
-19 -43 -105 -61 -105 -12 0 -11 9 6 52 11 29 23 56 25 60 8 13 24 9 30 -7z
m-6770 -261 c24 -20 44 -42 44 -50 0 -26 -19 -24 -53 6 -38 33 -57 32 -82 -6
-19 -29 -45 -32 -45 -5 0 16 73 91 88 91 2 0 24 -16 48 -36z m917 -190 c-2
-115 -3 -212 -3 -216 0 -20 -32 -5 -42 20 -7 15 -13 28 -14 30 0 1 -27 -10
-59 -24 -80 -37 -130 -37 -161 -1 -30 35 -32 89 -4 134 37 61 135 106 208 95
l32 -4 0 72 c0 74 13 114 33 107 9 -3 11 -59 10 -213z m885 200 c46 -19 92
-62 92 -85 0 -27 -18 -32 -30 -10 -14 27 -90 71 -123 71 -39 0 -60 -39 -60
-108 0 -79 15 -106 56 -98 18 3 62 8 100 12 63 6 67 6 67 -14 0 -17 -8 -22
-47 -27 -27 -3 -70 -9 -97 -13 l-50 -7 3 -67 c2 -67 2 -68 -23 -68 -25 0 -26
3 -26 53 0 28 -4 57 -8 64 -4 7 -28 11 -57 10 -39 -2 -50 1 -53 15 -3 14 7 18
48 24 l51 7 -7 53 c-9 76 3 148 31 178 28 31 76 34 133 10z m5140 0 c46 -19
92 -62 92 -85 0 -30 -16 -29 -46 2 -53 56 -118 76 -144 44 -22 -27 -30 -87
-19 -144 l11 -53 36 5 c21 4 67 9 105 13 63 6 67 6 67 -14 0 -17 -8 -22 -47
-27 -27 -3 -70 -9 -97 -13 l-50 -7 3 -67 c2 -67 2 -68 -23 -68 -25 0 -26 3
-26 53 0 28 -4 57 -8 64 -4 7 -28 11 -57 10 -39 -2 -50 1 -53 15 -3 14 7 18
47 24 l51 7 -6 71 c-14 158 46 220 164 170z m-6690 -76 l3 -78 43 0 c27 0 48
-6 56 -15 18 -22 3 -33 -50 -37 l-45 -3 0 -105 c0 -98 -1 -105 -20 -105 -18 0
-20 8 -23 85 -3 131 -3 130 -67 130 -48 0 -55 3 -55 19 0 17 8 20 53 23 l52 3
3 83 c3 79 4 83 25 80 20 -3 22 -9 25 -80z m5406 51 c3 -17 6 -53 6 -80 l0
-48 48 -3 c39 -3 47 -6 47 -23 0 -16 -8 -21 -45 -25 l-45 -5 0 -105 0 -105
-25 0 c-25 0 -25 0 -28 107 l-3 107 -57 3 c-43 2 -57 7 -57 18 0 11 15 16 55
20 l55 5 -4 72 c-3 78 1 93 28 93 13 0 21 -10 25 -31z m-6549 -9 c0 -19 -35
-26 -46 -9 -4 7 -5 17 -2 22 8 14 48 3 48 -13z m8013 3 c5 -17 -26 -29 -40
-15 -6 6 -7 15 -3 22 9 14 37 9 43 -7z m-5150 -85 c7 -7 12 -25 12 -40 0 -34
5 -34 44 -5 80 61 223 64 201 5 -5 -12 -17 -14 -50 -10 -35 3 -56 -1 -97 -22
-74 -36 -91 -64 -98 -156 -5 -68 -7 -75 -27 -78 -23 -3 -23 -3 -23 151 0 168
5 188 38 155z m652 -24 c0 -29 5 -30 37 -4 51 40 144 34 158 -10 5 -17 10 -16
62 11 71 37 127 37 154 -1 14 -20 18 -50 21 -150 l3 -125 -25 0 -25 0 0 123
c0 136 -5 147 -60 136 -67 -14 -103 -72 -113 -182 -7 -73 -8 -77 -31 -77 -24
0 -24 1 -22 92 4 157 -9 186 -73 159 -45 -19 -69 -73 -74 -163 -4 -73 -18
-101 -45 -90 -18 7 -14 297 5 308 18 11 28 1 28 -27z m1708 23 c6 -6 13 -24
17 -40 9 -33 10 -33 46 -2 33 27 87 45 139 45 44 0 63 -12 58 -36 -3 -15 -11
-18 -49 -16 -59 4 -121 -21 -159 -64 -27 -31 -30 -41 -30 -103 0 -72 -14 -99
-45 -87 -12 4 -15 31 -15 154 0 82 3 152 7 155 10 10 19 8 31 -6z m-5383 -9
c26 -12 34 -43 13 -51 -7 -2 -23 3 -35 10 -33 22 -79 7 -130 -40 -46 -42 -73
-84 -73 -112 0 -9 12 -27 26 -40 36 -34 107 -33 189 0 72 30 85 31 85 6 0 -25
-86 -59 -169 -68 -45 -4 -67 -1 -103 15 -86 38 -97 91 -38 177 65 95 161 137
235 103z m726 2 c21 -12 26 -46 7 -53 -7 -2 -21 2 -30 10 -30 27 -83 8 -144
-51 -45 -43 -54 -58 -54 -87 0 -40 7 -52 37 -68 35 -18 103 -12 168 14 72 30
98 32 93 8 -4 -23 -104 -63 -173 -70 -58 -6 -110 7 -149 38 -68 54 9 211 126
259 31 12 95 12 119 0z m375 -11 c15 -16 19 -44 25 -147 4 -70 3 -131 -1 -136
-19 -20 -40 3 -40 44 0 22 -3 40 -6 40 -4 0 -22 -13 -40 -30 -56 -48 -158 -64
-200 -29 -18 15 -18 70 0 114 8 18 34 55 58 81 71 78 164 107 204 63z m1162
-6 c15 -11 31 -32 36 -47 17 -46 -8 -58 -128 -65 -57 -3 -107 -9 -111 -12 -3
-4 -7 -21 -7 -39 -2 -75 90 -97 191 -47 59 30 93 27 64 -5 -69 -77 -230 -88
-283 -21 -51 65 5 216 94 254 33 14 114 4 144 -18z m1098 -5 c-3 -18 -9 -69
-12 -114 -6 -68 -4 -83 10 -97 24 -24 83 -21 136 6 l45 22 3 108 c2 96 4 107
21 107 22 0 29 -42 33 -205 3 -97 2 -100 -19 -103 -18 -3 -23 2 -23 17 0 25
-7 26 -62 4 -23 -9 -63 -17 -90 -17 -39 -1 -52 4 -75 27 -26 26 -28 32 -27
110 2 108 18 167 46 167 18 0 19 -4 14 -32z m1024 17 c67 -35 92 -140 47 -206
-12 -18 -37 -44 -55 -56 -61 -41 -166 -42 -214 -4 -20 17 -23 28 -23 94 0 69
3 78 31 114 17 21 46 46 65 55 42 22 110 23 149 3z m338 -1 c42 -29 27 -39
-62 -39 -76 0 -87 -2 -111 -25 -33 -31 -31 -66 5 -63 137 11 200 -3 200 -44 0
-45 -122 -118 -210 -125 -29 -3 -36 1 -38 18 -3 18 3 22 42 26 63 7 141 48
141 73 0 21 -2 22 -121 14 -92 -7 -122 49 -63 116 49 56 169 83 217 49z m567
-8 c12 -18 18 -61 22 -156 l6 -132 -24 4 c-21 3 -24 9 -27 49 l-3 47 -32 -29
c-61 -56 -159 -74 -203 -38 -18 15 -18 80 0 123 48 116 216 200 261 132z m874
13 c38 -13 51 -35 51 -84 0 -84 -79 -159 -199 -190 l-44 -11 -1 -119 c-1 -116
-2 -120 -23 -123 -22 -3 -23 -1 -23 75 0 43 -3 163 -7 267 l-6 188 39 -6 c21
-3 53 -2 69 3 42 13 106 13 144 0z m137 -26 c-3 -21 -9 -71 -12 -111 -6 -61
-4 -76 11 -92 25 -27 89 -26 140 3 l40 23 3 107 c2 97 4 107 21 107 23 0 29
-38 33 -200 3 -94 1 -105 -15 -108 -12 -2 -20 4 -24 17 -6 25 1 25 -77 0 -143
-47 -200 13 -175 185 13 95 17 106 41 106 18 0 19 -4 14 -37z m769 23 c23 -10
41 -27 52 -51 16 -33 16 -36 0 -52 -13 -14 -40 -18 -123 -21 -100 -4 -106 -5
-114 -28 -11 -28 0 -63 25 -84 27 -23 104 -16 164 15 37 18 57 23 64 16 25
-25 -65 -80 -147 -88 -105 -11 -162 38 -154 132 11 128 125 206 233 161z m376
-21 c13 -23 18 -59 21 -150 2 -114 2 -120 -17 -120 -16 0 -21 8 -23 43 -2 23
-5 42 -7 42 -3 0 -25 -15 -50 -34 -63 -49 -148 -59 -192 -24 -16 13 -16 72 0
115 7 18 32 54 57 79 83 86 177 108 211 49z m-7277 -27 c3 -29 6 -95 6 -145 0
-93 0 -93 -25 -93 l-25 0 0 145 c0 135 1 145 19 145 15 0 19 -10 25 -52z
m8021 -71 c9 -147 7 -161 -23 -165 -22 -3 -22 -3 -22 142 0 137 1 146 19 146
17 0 20 -11 26 -123z m83 -154 c-4 -22 -48 -31 -48 -10 0 19 10 27 32 27 13 0
18 -6 16 -17z m218 -331 c7 -4 13 -16 15 -27 3 -11 10 -20 17 -20 7 0 16 -5
20 -12 5 -8 13 -9 22 -3 23 15 50 12 50 -5 0 -8 -9 -20 -20 -27 -13 -9 -18
-19 -14 -35 8 -29 -16 -31 -41 -3 -10 11 -24 20 -32 20 -7 0 -13 5 -13 10 0 6
-10 8 -22 5 -13 -3 -29 -1 -37 4 -16 11 -6 31 16 31 12 0 14 7 10 29 -8 37 3
50 29 33z m-140 -366 c3 -14 3 -34 -1 -45 -5 -16 -1 -23 19 -31 18 -7 26 -17
26 -34 0 -28 -23 -39 -73 -34 -29 2 -32 0 -30 -22 2 -22 1 -23 -8 -7 -14 24
-27 21 -41 -7 -14 -32 -66 -55 -79 -35 -5 8 -7 19 -5 24 2 6 7 17 10 25 4 10
-4 21 -24 32 -36 21 -47 43 -30 63 16 19 49 19 74 0 28 -21 36 -19 36 13 1 23
2 24 11 10 11 -20 29 -24 29 -8 0 6 7 26 14 45 19 44 62 50 72 11z m-2231 -70
c118 -50 168 -151 133 -269 -16 -52 -97 -140 -149 -161 -39 -16 -42 -16 -76 5
l-34 21 28 30 c53 55 142 94 158 68 3 -6 -4 -10 -18 -10 -40 0 -136 -78 -122
-100 18 -29 104 19 148 83 45 66 57 97 57 153 0 70 -35 121 -107 158 -40 20
-125 21 -162 1 -77 -40 -108 -130 -53 -159 15 -8 23 -15 19 -16 -19 -1 -49 23
-58 47 -6 17 -6 37 1 58 28 85 143 129 235 91z m-1975 -44 c-52 -34 -107 -101
-148 -179 -23 -45 -54 -95 -67 -112 -18 -21 -22 -31 -13 -34 8 -3 5 -6 -5 -6
-11 -1 -31 -9 -45 -19 -38 -26 -112 -67 -82 -45 74 53 136 126 201 235 38 64
77 122 87 127 33 20 -9 11 -51 -10 -89 -45 -163 -121 -177 -183 l-8 -31 -1 28
c-1 41 20 75 86 138 78 75 143 106 223 107 l25 1 -25 -17z m-2190 -2 c10 -6 4
-8 -21 -4 -31 5 -39 2 -62 -26 -40 -47 -34 -69 23 -83 35 -9 66 1 78 26 9 18
11 19 11 5 1 -24 5 -23 125 17 109 36 214 47 246 24 11 -8 7 -9 -20 -6 -19 3
-62 0 -95 -5 -46 -7 -68 -16 -93 -41 -37 -36 -123 -159 -126 -182 -1 -9 -8
-21 -14 -27 -16 -16 -15 -53 1 -66 6 -6 28 -12 47 -15 34 -4 34 -4 -7 -5 -35
-2 -45 2 -61 26 -12 17 -17 33 -11 42 4 8 18 37 30 64 12 27 43 74 69 105 68
83 68 82 8 65 -96 -29 -111 -39 -141 -94 l-28 -53 26 5 c37 8 41 -9 9 -43 -34
-36 -46 -37 -38 -4 9 37 -6 31 -72 -30 -32 -30 -92 -72 -132 -92 -67 -34 -75
-35 -112 -24 -21 6 -48 23 -59 38 -36 45 -23 135 25 174 12 10 11 5 -4 -16
-45 -61 -41 -145 8 -170 41 -21 68 -19 128 11 73 36 195 149 155 143 -26 -4
-73 2 -73 10 0 6 23 7 54 4 l54 -6 31 43 c38 53 39 60 2 60 -37 0 -81 35 -81
65 0 28 52 75 83 75 12 0 29 -5 37 -10z m3400 -53 c13 -7 31 -24 39 -39 14
-25 14 -29 -7 -57 -12 -17 -22 -32 -22 -34 0 -3 21 -8 46 -12 93 -14 152 -107
105 -167 -34 -43 -106 -58 -283 -58 -119 -1 -157 -4 -172 -15 -26 -20 -86 -20
-86 -1 0 8 4 18 10 21 6 3 7 -1 4 -9 -5 -12 1 -16 21 -16 18 0 29 6 32 20 3
11 13 20 23 20 18 0 160 142 160 160 0 5 12 26 26 47 24 35 26 36 20 11 -8
-35 -4 -35 47 1 77 53 84 101 17 116 -79 17 -201 -41 -240 -114 -10 -20 -19
-29 -20 -21 0 25 36 76 74 105 66 51 154 68 206 42z m-3178 -84 c-11 -16 -39
-46 -63 -68 -32 -30 -28 -23 17 27 63 72 78 86 46 41z m344 10 c-5 -15 -4 -15
9 1 8 11 15 15 15 9 0 -6 -13 -27 -30 -48 -16 -21 -30 -41 -30 -44 0 -4 93 -7
208 -7 169 0 215 -3 252 -16 l45 -17 -70 7 c-38 4 -154 7 -257 7 l-187 -1 -30
-28 c-36 -34 -61 -84 -61 -120 0 -30 11 -32 69 -11 22 8 41 12 41 9 0 -10 -67
-44 -87 -44 -43 0 -61 83 -27 122 12 13 24 31 27 41 5 14 0 17 -31 18 l-37 1
45 10 c39 9 51 18 87 69 43 59 60 74 49 42z m2678 -29 c9 -25 8 -31 -20 -63
-29 -35 -77 -43 -88 -15 -5 14 -4 15 9 4 20 -17 57 -1 80 34 20 31 12 50 -15
36 -27 -14 -34 -12 -20 5 16 20 46 19 54 -1z m-3534 2 c0 -2 -14 -9 -31 -15
-27 -9 -30 -9 -19 4 11 13 50 22 50 11z m1410 -35 c0 -5 -7 -11 -15 -15 -15
-5 -20 5 -8 17 9 10 23 9 23 -2z m1230 0 c0 -12 -20 -25 -27 -18 -7 7 6 27 18
27 5 0 9 -4 9 -9z m1410 0 c0 -12 -20 -25 -27 -18 -7 7 6 27 18 27 5 0 9 -4 9
-9z m-1272 -69 l3 -22 26 20 c31 24 46 25 63 5 10 -12 8 -22 -14 -55 -14 -22
-26 -49 -26 -61 0 -20 4 -21 42 -16 27 4 37 2 27 -4 -7 -5 -31 -9 -52 -9 -51
0 -57 21 -24 84 15 27 25 52 22 54 -9 9 -61 -31 -117 -90 -31 -33 -61 -57 -67
-54 -17 11 -1 38 52 93 34 35 48 57 43 68 -4 11 -2 15 6 13 7 -3 14 -14 16
-26z m1408 3 l6 -25 25 20 c31 24 46 25 63 5 10 -12 8 -22 -14 -55 -14 -22
-26 -49 -26 -61 0 -20 4 -21 42 -16 27 4 37 2 27 -4 -7 -5 -31 -9 -52 -9 -51
0 -57 21 -24 84 15 27 25 52 22 54 -9 9 -61 -31 -117 -90 -31 -33 -61 -57 -67
-54 -17 11 -1 38 52 93 33 34 48 57 44 67 -4 9 -2 16 3 16 5 0 12 -11 16 -25z
m3038 -2 c13 -10 32 -33 42 -50 24 -46 39 -41 51 15 10 51 11 50 29 -35 6 -32
-1 -37 68 50 35 43 76 56 111 33 37 -24 35 -84 -5 -129 -36 -42 -37 -45 -5
-57 52 -20 37 -102 -22 -113 -29 -5 -90 20 -112 47 -19 23 -41 20 -41 -6 0
-13 -5 -30 -10 -38 -7 -11 -10 -7 -10 17 0 17 -4 35 -10 38 -5 3 -33 -10 -61
-30 -59 -40 -58 -40 -105 -20 -33 13 -35 17 -32 52 2 28 9 41 26 48 25 11 29
40 7 49 -18 6 -45 65 -45 96 0 11 9 29 21 41 24 24 64 21 103 -8z m-7216 -3
c-11 -17 -10 -22 2 -30 10 -7 11 -10 2 -10 -7 0 -15 7 -18 15 -8 19 2 45 16
45 6 0 5 -8 -2 -20z m627 -2 c-4 -13 -18 -40 -32 -60 -16 -24 -23 -44 -18 -57
5 -16 3 -20 -9 -15 -9 3 -16 10 -16 15 0 4 -16 1 -35 -7 -43 -17 -37 -18 -65
6 -21 18 -22 22 -8 33 8 6 25 27 38 46 13 19 26 29 28 23 2 -6 -4 -22 -12 -34
-17 -24 -22 -68 -7 -68 20 0 63 46 86 91 26 50 63 70 50 27z m405 -1 c0 -13
-11 -39 -25 -58 -17 -22 -24 -42 -20 -56 4 -17 2 -21 -10 -17 -8 4 -15 10 -15
15 0 4 -16 1 -35 -7 -43 -17 -37 -18 -65 6 -21 18 -22 22 -8 33 8 6 25 27 38
46 13 19 26 29 28 23 2 -6 -4 -22 -12 -34 -17 -24 -22 -68 -7 -68 19 0 62 44
88 90 31 55 43 62 43 27z m115 -10 c0 -22 14 -26 48 -12 27 11 20 -9 -18 -55
-19 -23 -32 -46 -29 -51 8 -14 37 -11 62 7 12 8 22 10 22 5 0 -17 -47 -43 -71
-39 -34 5 -46 31 -29 65 8 15 16 31 18 36 2 4 -3 7 -10 7 -10 0 -13 10 -10 36
5 37 17 38 17 1z m1235 22 c0 -5 6 -7 13 -3 10 6 10 4 0 -7 -18 -19 -16 -43 2
-35 8 3 22 9 30 12 26 11 17 -21 -15 -51 -47 -45 -39 -85 12 -59 38 19 48 11
14 -11 -30 -20 -65 -17 -80 8 -8 13 -7 25 7 49 20 35 16 48 -9 27 -16 -13 -16
-12 -6 8 7 12 12 33 12 47 0 14 5 26 10 26 6 0 10 -5 10 -11z m2374 -26 c-7
-27 -1 -28 49 -8 28 12 20 -12 -18 -49 -19 -20 -35 -42 -35 -51 0 -20 34 -19
67 2 18 12 25 13 22 4 -8 -23 -54 -44 -83 -37 -20 5 -26 12 -26 35 0 16 7 34
16 42 14 11 14 14 1 23 -8 6 -13 22 -11 36 1 14 3 29 3 33 1 5 6 5 11 2 6 -3
7 -18 4 -32z m-106 0 c3 -19 -48 -74 -80 -86 -10 -3 -10 -7 -1 -17 11 -12 15
-12 88 15 18 7 19 6 4 -9 -23 -25 -82 -32 -102 -11 -27 26 -20 54 23 97 41 42
63 45 68 11z m-3333 -43 c-40 -57 -19 -89 38 -58 20 10 21 10 8 -6 -20 -23
-72 -17 -86 10 -6 11 -17 19 -25 16 -8 -2 7 19 35 47 55 57 72 52 30 -9z
m1265 55 c0 -2 -13 -25 -30 -51 -22 -36 -27 -51 -19 -61 16 -18 32 -16 65 9
l29 22 -24 -27 c-32 -35 -77 -37 -92 -3 -8 17 -17 22 -28 18 -9 -3 7 17 34 45
46 46 65 61 65 48z m476 -7 c5 -8 2 -9 -10 -5 -24 9 -70 -17 -100 -56 -32 -41
-32 -47 -3 -47 29 0 94 44 102 70 3 11 13 20 21 20 8 0 14 5 14 10 0 6 5 10
11 10 5 0 -2 -23 -17 -50 -22 -40 -25 -53 -15 -63 9 -9 18 -8 41 5 33 19 38
17 14 -6 -20 -21 -53 -20 -75 0 -17 15 -22 15 -57 1 -76 -31 -96 17 -34 83 29
30 47 40 70 40 17 0 34 -5 38 -12z m934 7 c0 -2 -13 -25 -30 -51 -22 -36 -27
-51 -19 -61 16 -18 32 -16 59 7 32 28 38 25 10 -5 -31 -33 -76 -34 -91 -1 -8
17 -17 22 -28 18 -9 -3 7 17 34 45 46 46 65 61 65 48z m-2246 -64 c9 -14 -20
-21 -82 -21 -87 0 -46 23 50 29 15 0 29 -3 32 -8z m-1119 -51 c-3 -5 -14 -10
-23 -9 -14 0 -13 2 3 9 27 11 27 11 20 0z m420 0 c-3 -5 -16 -10 -28 -9 -21 0
-21 1 -2 9 28 12 37 12 30 0z m1025 -40 c-8 -5 -19 -10 -25 -10 -5 0 -3 5 5
10 8 5 20 10 25 10 6 0 3 -5 -5 -10z m-53 -16 c-3 -3 -12 -4 -19 -1 -8 3 -5 6
6 6 11 1 17 -2 13 -5z m4374 -121 c33 -19 54 -65 64 -140 4 -29 11 -53 16 -53
4 0 23 23 41 50 18 28 36 50 39 50 4 0 3 -17 -2 -37 -26 -108 -27 -105 29 -69
53 36 124 53 156 38 36 -16 58 -54 50 -86 -9 -36 -60 -86 -96 -93 -37 -7 -45
-25 -24 -55 37 -52 8 -108 -55 -108 -46 0 -86 31 -120 94 -13 26 -30 46 -36
46 -7 0 -22 -18 -33 -41 -28 -53 -38 -42 -15 16 9 26 15 48 12 51 -2 3 -24 0
-48 -5 -93 -22 -147 -9 -177 40 -13 23 -13 32 -3 58 13 29 25 37 72 46 31 6
33 10 20 46 -15 44 -14 95 4 129 22 43 58 51 106 23z m914 -338 c0 -20 6 -31
18 -33 9 -2 17 -10 17 -18 0 -15 -1 -15 -45 -21 -16 -2 -35 -4 -42 -5 -6 -1
-17 -12 -24 -25 -16 -29 -45 -26 -42 5 2 13 -5 26 -17 32 -11 6 -20 18 -20 27
0 13 8 15 40 10 23 -3 40 -1 40 5 0 5 5 6 10 3 6 -4 15 8 21 25 15 40 44 37
44 -5z m140 -499 c46 -46 55 -148 19 -218 -19 -37 -19 -38 21 -38 82 0 128
-57 103 -126 -20 -57 -63 -84 -134 -84 -32 0 -83 7 -111 14 -31 8 -55 10 -59
5 -3 -5 5 -36 17 -69 12 -33 19 -63 16 -66 -3 -3 -20 19 -37 50 -18 31 -37 56
-43 56 -7 0 -23 -23 -37 -51 -55 -113 -129 -164 -203 -140 -71 24 -92 88 -48
150 24 34 22 61 -4 61 -27 0 -103 50 -126 81 -29 41 -35 93 -15 124 25 38 72
58 122 52 47 -5 163 -57 184 -82 7 -8 17 -15 22 -15 11 0 9 10 -20 112 -21 73
-18 92 7 54 9 -13 33 -49 53 -80 35 -53 57 -73 45 -43 -14 38 43 217 79 248
43 37 114 40 149 5z m-288 -52 c-3 -3 -12 -4 -19 -1 -8 3 -5 6 6 6 11 1 17 -2
13 -5z m-859 -126 c7 -7 12 -20 12 -30 0 -11 5 -15 15 -12 8 4 15 1 15 -6 0
-8 12 -10 40 -5 32 5 40 4 40 -9 0 -8 -9 -21 -21 -30 -15 -10 -19 -20 -14 -35
9 -29 -28 -29 -48 0 -10 13 -30 23 -56 26 -49 7 -61 21 -35 40 13 9 18 23 16
43 -4 32 14 40 36 18z m-231 -588 c60 -36 101 -130 128 -292 3 -21 10 -38 15
-38 5 0 21 22 34 49 14 26 36 62 50 79 29 33 36 97 14 122 -11 12 -10 12 5 1
10 -8 17 -27 17 -48 0 -31 2 -34 22 -27 21 6 21 6 5 -10 -9 -10 -19 -29 -23
-44 -3 -15 -14 -55 -25 -90 -10 -34 -19 -65 -19 -67 0 -12 25 -3 63 24 66 44
168 81 228 81 89 0 149 -51 149 -128 0 -51 -17 -86 -62 -128 -37 -36 -127 -83
-145 -77 -25 9 -22 -18 7 -63 36 -57 38 -99 7 -145 -32 -48 -93 -64 -164 -44
-44 13 -60 25 -94 68 -23 28 -55 80 -71 114 -17 36 -34 60 -41 57 -7 -2 -30
-36 -52 -74 -37 -64 -55 -84 -55 -61 0 6 11 41 25 79 37 104 39 102 -70 73
-65 -17 -186 -14 -215 6 -43 30 -79 77 -86 113 -14 69 55 138 139 140 43 0 44
5 17 78 -23 60 -24 81 -9 152 7 33 22 62 44 85 28 31 38 35 81 35 31 0 61 -7
81 -20z m222 -73 c-2 -1 -13 -9 -24 -17 -19 -14 -19 -14 -6 3 7 9 18 17 24 17
6 0 8 -1 6 -3z m1 -49 c0 -4 -6 -8 -14 -8 -8 0 -17 4 -20 8 -2 4 4 8 15 8 10
0 19 -4 19 -8z m141 -15 c13 -16 12 -17 -3 -4 -10 7 -18 15 -18 17 0 8 8 3 21
-13z m11 -55 c-13 -13 -42 -3 -42 14 0 9 3 9 11 -2 9 -13 12 -13 22 3 7 10 14
12 16 6 2 -6 -1 -15 -7 -21z m993 12 c17 -19 19 -37 12 -125 -1 -20 3 -30 13
-31 35 -2 40 -5 55 -28 13 -19 13 -28 4 -49 -18 -39 -61 -53 -123 -40 -60 13
-71 7 -56 -32 13 -35 6 -45 -11 -13 -12 22 -28 38 -40 38 -4 0 -9 -12 -12 -27
-10 -48 -57 -94 -96 -95 -61 -2 -86 55 -45 103 16 18 9 29 -17 29 -28 0 -89
64 -89 92 0 26 24 54 50 59 28 5 94 -12 123 -33 36 -26 43 -18 28 33 -16 54
-7 61 20 15 26 -45 49 -47 49 -6 0 38 25 101 47 118 25 18 68 15 88 -8z"/>
<path d="M2578 6009 c-16 -9 -18 -28 -18 -174 0 -189 -5 -181 91 -142 114 48
199 132 199 198 0 42 -51 90 -120 112 -58 19 -126 22 -152 6z"/>
<path d="M3008 5847 c-56 -42 -95 -118 -80 -153 15 -32 56 -32 109 3 57 36
103 125 87 167 -11 28 -68 20 -116 -17z"/>
<path d="M3719 5848 c-57 -43 -97 -118 -81 -154 14 -30 48 -32 102 -4 47 24
92 95 94 148 1 35 -1 37 -35 40 -28 2 -46 -4 -80 -30z"/>
<path d="M5185 5885 c-72 -26 -118 -102 -101 -170 13 -50 93 -62 164 -26 50
25 72 56 72 98 0 47 -19 80 -55 98 -39 18 -30 18 -80 0z"/>
<path d="M6292 5863 c-47 -23 -112 -111 -112 -153 0 -17 32 -40 57 -40 64 0
153 101 153 173 0 35 -2 37 -32 37 -18 0 -48 -8 -66 -17z"/>
<path d="M6905 5862 c-62 -38 -134 -144 -121 -178 13 -35 117 5 166 64 35 42
48 95 30 117 -16 20 -39 19 -75 -3z"/>
<path d="M7514 5880 c-37 -8 -54 -18 -54 -31 0 -12 137 -12 144 0 14 22 -43
41 -90 31z"/>
<path d="M5830 5212 c-51 -23 -90 -73 -90 -114 0 -44 27 -51 103 -28 81 25 99
44 95 101 l-3 44 -45 2 c-25 1 -52 -1 -60 -5z"/>
<path d="M2809 5227 c-57 -43 -96 -118 -81 -152 15 -34 65 -33 114 0 45 30 93
123 84 160 -10 38 -62 34 -117 -8z"/>
<path d="M3483 5243 c-64 -36 -123 -135 -103 -173 14 -26 65 -26 108 0 45 28
92 104 92 152 0 36 -2 38 -33 38 -18 0 -46 -8 -64 -17z"/>
<path d="M4030 5228 c-58 -44 -97 -119 -82 -153 15 -34 65 -33 114 0 41 28 92
120 86 157 -2 18 -10 24 -39 26 -28 2 -46 -4 -79 -30z"/>
<path d="M4999 5239 c-35 -21 -92 -94 -103 -135 -8 -28 17 -54 50 -54 72 0
154 93 154 175 0 33 -2 35 -32 35 -18 0 -49 -10 -69 -21z"/>
<path d="M6139 5240 l-24 -19 78 -1 c42 0 77 4 77 8 0 36 -93 44 -131 12z"/>
<path d="M7413 5244 c-60 -30 -123 -136 -103 -174 14 -26 65 -26 108 0 45 28
92 104 92 152 0 36 -1 38 -32 38 -18 0 -47 -8 -65 -16z"/>
<path d="M8246 5256 c-69 -20 -57 -36 28 -36 74 0 90 7 64 27 -22 17 -52 20
-92 9z"/>
<path d="M9123 5250 c-45 -18 -24 -30 52 -30 41 0 75 4 75 8 0 29 -76 42 -127
22z"/>
<path d="M3369 4578 c-66 -38 -96 -131 -46 -143 26 -7 133 28 159 52 21 19 25
82 6 101 -19 19 -79 14 -119 -10z"/>
<path d="M2575 4631 c-55 -24 -133 -139 -119 -176 9 -23 41 -37 67 -29 67 20
141 116 135 176 -3 29 -7 33 -33 35 -16 1 -39 -2 -50 -6z"/>
<path d="M3699 4620 l-24 -19 78 -1 c42 0 77 4 77 8 0 36 -93 44 -131 12z"/>
<path d="M5829 4627 c-67 -45 -90 -137 -44 -182 41 -42 118 -27 185 35 24 22
30 36 30 70 0 87 -93 129 -171 77z"/>
<path d="M6733 4611 c-72 -52 -111 -141 -77 -175 21 -21 54 -15 105 20 52 36
98 129 83 168 -10 26 -66 20 -111 -13z"/>
<path d="M7613 4639 c-49 -14 -63 -42 -63 -127 l0 -74 33 6 c51 10 134 54 151
81 60 91 -1 149 -121 114z"/>
<path d="M8529 4620 l-24 -19 78 -1 c42 0 77 4 77 8 0 36 -93 44 -131 12z"/>
<path d="M8905 4625 c-45 -24 -72 -53 -96 -101 -23 -48 -19 -78 12 -95 41 -22
117 29 155 104 33 65 29 101 -11 105 -16 1 -43 -5 -60 -13z"/>
<path d="M9787 3559 c4 -13 8 -18 11 -10 2 7 -1 18 -6 23 -8 8 -9 4 -5 -13z"/>
<path d="M6873 3369 c-19 -5 -45 -25 -60 -46 -16 -20 -50 -61 -78 -91 l-50
-54 120 7 c208 11 295 44 295 111 0 32 -4 37 -52 59 -56 26 -117 31 -175 14z"/>
<path d="M5940 3225 c-7 -9 -10 -18 -7 -21 3 -3 10 4 17 15 13 25 8 27 -10 6z"/>
<path d="M7350 3225 c-7 -9 -10 -18 -7 -21 3 -3 10 4 17 15 13 25 8 27 -10 6z"/>
<path d="M10740 3250 c0 -5 5 -10 11 -10 5 0 7 5 4 10 -3 6 -8 10 -11 10 -2 0
-4 -4 -4 -10z"/>
<path d="M7853 3288 c-24 -32 -24 -41 0 -19 15 14 27 26 27 28 0 8 -19 2 -27
-9z"/>
<path d="M9651 2924 c0 -11 3 -14 6 -6 3 7 2 16 -1 19 -3 4 -6 -2 -5 -13z"/>
<path d="M9525 2800 c-3 -5 -1 -10 4 -10 6 0 11 5 11 10 0 6 -2 10 -4 10 -3 0
-8 -4 -11 -10z"/>
<path d="M9890 2614 c0 -3 7 -12 15 -20 16 -17 18 -14 9 10 -6 15 -24 23 -24
10z"/>
<path d="M10270 1940 c0 -5 5 -10 11 -10 5 0 7 5 4 10 -3 6 -8 10 -11 10 -2 0
-4 -4 -4 -10z"/>
<path d="M10810 1874 c0 -8 5 -12 10 -9 6 4 8 11 5 16 -9 14 -15 11 -15 -7z"/>
<path d="M10315 1590 c3 -5 8 -10 11 -10 2 0 4 5 4 10 0 6 -5 10 -11 10 -5 0
-7 -4 -4 -10z"/>
<path d="M9181 1394 c0 -11 3 -14 6 -6 3 7 2 16 -1 19 -3 4 -6 -2 -5 -13z"/>
<path d="M9910 1114 c0 -8 5 -12 10 -9 6 4 8 11 5 16 -9 14 -15 11 -15 -7z"/>
<path d="M9810 880 c-9 -6 -10 -10 -3 -10 6 0 15 5 18 10 8 12 4 12 -15 0z"/>
</g>
</svg>
