<svg xmlns="http://www.w3.org/2000/svg" viewBox="0 0 286.49 288.56"><defs><style>.cls-1{fill:#f0c9a7;}</style></defs><title>checkmark</title><g id="Layer_2" data-name="Layer 2"><g id="Layer_1-2" data-name="Layer 1"><path class="cls-1" d="M273.52,135.48c-.19-3.18-.35-7-.64-10.8-.29-4,.16-7.87,4.8-8.46,5-.64,6.24,3.45,6.87,7.41a137.17,137.17,0,0,1-.11,46.62C273.69,229,231.86,272.3,173.56,285.32,96.26,302.58,16,249.09,2.66,171c-10-58.49,8-107.42,55.81-142.49,46-33.76,96.38-37.15,148.1-11.94,4.62,2.25,6.59,5.83,4.75,8.91-2.54,4.26-6.24,3.5-10,1.87q-42.06-18-86.16-5.77C67.85,34.7,32,75.8,25.49,124.4,18,180.81,47.31,232.8,99.17,255c50.36,21.57,111.22,6.38,145.53-36.39C264,194.53,273.24,166.87,273.52,135.48Z"/><path class="cls-1" d="M145.14,154c6.08-6.38,11.76-12.39,17.5-18.36,34.35-35.7,71-69,109-100.69,3.46-2.89,5.79-2.16,8.41.56s3,5.1.21,8.48a1360.22,1360.22,0,0,1-126,133c-5.45,5-11.75,5.13-16.64-.43-15.35-17.45-30.42-35.15-45.72-52.64-2.78-3.18-2-5.63.59-8.12s5-3.3,8.17-.46c12.82,11.32,25.84,22.41,38.78,33.59C141.19,150.46,142.89,152,145.14,154Z"/></g></g></svg>