<svg xmlns="http://www.w3.org/2000/svg" viewBox="0 0 261.21 65.05"><defs><style>.cls-1{fill:#fff;}</style></defs><title>decor-recenzie-ev</title><g id="Layer_2" data-name="Layer 2"><g id="Ebene_1" data-name="Ebene 1"><path class="cls-1" d="M151.1,34.31h-6.42l2.6-2.61a.49.49,0,0,0,0-.69.51.51,0,0,0-.69,0l-3.29,3.3H141L145.35,30a.49.49,0,0,0-.69-.69l-5,5h-7.51a4.86,4.86,0,0,0-1.08-2.59l3.6-3.6h7.08a.49.49,0,1,0,0-1h-6.11l1.61-1.61h4.66a.49.49,0,0,0,0-1h-3.68l6.25-6.26a.48.48,0,0,0,0-.68.49.49,0,0,0-.69,0l-6.25,6.25V20.2a.49.49,0,0,0-1,0v4.65L135,26.46V20.35a.49.49,0,0,0-.49-.48.48.48,0,0,0-.48.48v7.08l-3.6,3.6A4.92,4.92,0,0,0,127.79,30V22.45l5-5a.49.49,0,1,0-.69-.69l-4.32,4.32V18.8l3.29-3.29a.49.49,0,0,0,0-.69.48.48,0,0,0-.68,0l-2.61,2.6V11a.49.49,0,0,0-1,0v6.42l-2.6-2.6a.49.49,0,1,0-.69.69l3.29,3.29v2.27l-4.32-4.32a.48.48,0,0,0-.68,0,.49.49,0,0,0,0,.69l5,5V30A4.92,4.92,0,0,0,124.24,31l-3.6-3.6V20.35a.49.49,0,0,0-.49-.48.48.48,0,0,0-.48.48v6.11l-1.61-1.61V20.2a.48.48,0,0,0-.49-.48.47.47,0,0,0-.48.48v3.68l-6.26-6.25a.49.49,0,0,0-.69,0,.5.5,0,0,0,0,.68l6.26,6.26h-3.68a.49.49,0,1,0,0,1h4.65L119,27.15h-6.11a.49.49,0,0,0,0,1H120l3.6,3.6a4.77,4.77,0,0,0-1.07,2.59H115l-5-5a.49.49,0,0,0-.69.69l4.32,4.32h-2.28L108,31a.5.5,0,0,0-.68,0,.49.49,0,0,0,0,.69l2.6,2.61h-6.42a.48.48,0,0,0-.49.48.49.49,0,0,0,.49.49h6.42l-2.6,2.6a.49.49,0,0,0,0,.69.48.48,0,0,0,.68,0l3.29-3.29h2.28l-4.32,4.32a.48.48,0,0,0,0,.68.49.49,0,0,0,.69,0l5-5h7.52a4.77,4.77,0,0,0,1.07,2.58l-3.6,3.6h-7.08a.49.49,0,0,0,0,1H119L117.37,44h-4.65a.49.49,0,1,0,0,1h3.68l-6.26,6.26a.5.5,0,0,0,0,.68.49.49,0,0,0,.69,0l6.26-6.25v3.68a.48.48,0,0,0,.48.49.49.49,0,0,0,.49-.49V44.73l1.61-1.61v6.11a.47.47,0,0,0,.48.48.48.48,0,0,0,.49-.48V42.15l3.6-3.6a4.84,4.84,0,0,0,2.58,1.07v7.52l-5,5a.49.49,0,0,0,0,.69.48.48,0,0,0,.68,0l4.32-4.32v2.28l-3.29,3.29a.48.48,0,0,0,0,.68.49.49,0,0,0,.69,0l2.6-2.6v6.42a.49.49,0,0,0,1,0V52.16l2.61,2.6a.48.48,0,1,0,.68-.68l-3.29-3.29V48.51l4.32,4.32a.49.49,0,0,0,.69-.69l-5-5V39.62a4.84,4.84,0,0,0,2.59-1.07l3.6,3.6v7.08a.47.47,0,0,0,.48.48.48.48,0,0,0,.49-.48V43.12l1.61,1.61v4.65a.49.49,0,1,0,1,0V45.7L143.78,52a.49.49,0,0,0,.69,0,.48.48,0,0,0,0-.68L138.22,45h3.68a.49.49,0,0,0,0-1h-4.66l-1.61-1.61h6.11a.49.49,0,1,0,0-1h-7.08l-3.6-3.6a4.86,4.86,0,0,0,1.08-2.58h7.51l5,5a.49.49,0,0,0,.69,0,.48.48,0,0,0,0-.68L141,35.28h2.27l3.29,3.29a.49.49,0,0,0,.69-.69l-2.6-2.6h6.42a.49.49,0,0,0,.48-.49A.48.48,0,0,0,151.1,34.31Zm-23.79,4.36a3.88,3.88,0,1,1,3.88-3.88A3.89,3.89,0,0,1,127.31,38.67Z"/><path class="cls-1" d="M35.35,50a.47.47,0,0,0-.26-.39,25.07,25.07,0,0,1-7.42-6,28.19,28.19,0,0,0,5.49-3.27.5.5,0,0,0,.19-.43.49.49,0,0,0-.26-.39A21.77,21.77,0,0,1,25,31.86a17,17,0,0,0,3.63-2.35.49.49,0,0,0-.07-.79,13.3,13.3,0,0,1-4.92-5.3,9.91,9.91,0,0,0,2.09-1.58.49.49,0,0,0-.08-.76c-1.78-1.15-3.07-3.49-3.84-6.95a.48.48,0,0,0-.42-.38.49.49,0,0,0-.49.28c-1.49,3.21-3.26,5.22-5.25,6a.48.48,0,0,0-.29.3.52.52,0,0,0,.06.42,10.59,10.59,0,0,0,1.7,2,13.44,13.44,0,0,1-5.94,4.11.47.47,0,0,0-.32.31.48.48,0,0,0,.08.45,16.65,16.65,0,0,0,3,3.07,21.7,21.7,0,0,1-9.52,5.75.46.46,0,0,0-.33.32.48.48,0,0,0,.09.46,27.53,27.53,0,0,0,4.65,4.37A25,25,0,0,1,.36,45.78a.51.51,0,0,0-.34.33.48.48,0,0,0,.1.46c4.87,5.58,10.4,8.77,16.2,9.54l-.64,5.83a.49.49,0,1,0,1,.11l.63-5.84c5.83.5,11.92-1.43,17.87-5.83A.48.48,0,0,0,35.35,50ZM16.91,55.21h0c-5.62-.61-10.84-3.54-15.54-8.7A26.59,26.59,0,0,0,10,41.93a.46.46,0,0,0,.18-.39.49.49,0,0,0-.2-.39,25.93,25.93,0,0,1-4.52-4,23.3,23.3,0,0,0,9.62-6.19.49.49,0,0,0,.14-.38A.52.52,0,0,0,15,30.2a14.9,14.9,0,0,1-2.86-2.68,15,15,0,0,0,6-4.55.48.48,0,0,0,.12-.36.53.53,0,0,0-.19-.34,8,8,0,0,1-1.55-1.61,11.22,11.22,0,0,0,4.63-5,11.28,11.28,0,0,0,3.43,5.92,8,8,0,0,1-1.85,1.24.55.55,0,0,0-.26.28.5.5,0,0,0,0,.38,15,15,0,0,0,4.94,5.75,14.44,14.44,0,0,1-3.37,2,.55.55,0,0,0-.28.3.53.53,0,0,0,0,.41A23.28,23.28,0,0,0,32,40a26,26,0,0,1-5.28,3,.47.47,0,0,0-.28.33.51.51,0,0,0,.09.43A26.85,26.85,0,0,0,34,50.05C28.26,54.09,22.53,55.82,16.91,55.21Z"/><path class="cls-1" d="M84.76,20.88h0a3.17,3.17,0,0,0-2.13-1.28,3.08,3.08,0,0,0-1.65.19A40.37,40.37,0,0,1,76.44,14c-1.88-2.75-3.24-4.74-7.12-6.22A14.06,14.06,0,0,0,55.61,9.74c-3.77,3-5.55,7.85-5.11,13.81a6.66,6.66,0,0,0,0,3.93,3.47,3.47,0,0,0,2,2,.47.47,0,0,0,.31,0,.35.35,0,0,0,.14-.06.49.49,0,0,0,.24-.38c0-.24.52-5.82,9.62-8.35.08,0,8.48-2.2,12.59,2.63a.52.52,0,0,0,.42.17.51.51,0,0,0,.38-.25,3.29,3.29,0,0,0,.35-1A8.72,8.72,0,0,0,79,23.62a3.29,3.29,0,0,0,3,2.44,3,3,0,0,0,1-.1,3.08,3.08,0,0,0,1.11-.53A3.25,3.25,0,0,0,84.76,20.88Zm-9.2,1.21a11.56,11.56,0,0,0-8-2.88,20.32,20.32,0,0,0-5,.55c-8,2.21-9.8,6.72-10.22,8.5a2.44,2.44,0,0,1-.87-1.13c-.75-1.93.5-4.76.53-4.82s.06-.12.1-.2l.08-.16c2.93-4.83,6.86-7.35,11.67-7.5a15.17,15.17,0,0,1,6.43,1.23h0c2.85,1.28,4.64,2.86,5.2,4.55A3.67,3.67,0,0,1,75.56,22.09Zm1-1A4.43,4.43,0,0,0,76.39,20c-.64-2-2.56-3.74-5.73-5.17a16,16,0,0,0-6.84-1.33c-3.52.1-8.51,1.54-12.39,7.75.13-4.58,1.77-8.3,4.79-10.69A13,13,0,0,1,69,8.74h0c3.59,1.37,4.81,3.16,6.65,5.86a42.08,42.08,0,0,0,4.48,5.7,3.27,3.27,0,0,0-1.16,2.24A8.07,8.07,0,0,1,76.61,21.13Zm6.9,3.51a2.25,2.25,0,0,1-1.46.43,2.22,2.22,0,0,1-1.69-.91A2.28,2.28,0,0,1,80.82,21a2.24,2.24,0,0,1,3.15.48A2.28,2.28,0,0,1,83.51,24.64Z"/><path class="cls-1" d="M62.45,26.28a.37.37,0,0,1-.33-.09A2.43,2.43,0,0,0,60,25.64a2.39,2.39,0,0,0-1.62,1.51.38.38,0,0,1-.24.24.34.34,0,0,1-.2,0,.41.41,0,0,1-.19-.22.55.55,0,0,1,0-.36,3.14,3.14,0,0,1,1.53-1.72,2.5,2.5,0,0,1,.52-.19,2.85,2.85,0,0,1,1.42,0,3.31,3.31,0,0,1,1.3.7.55.55,0,0,1,.18.31.45.45,0,0,1-.06.28A.3.3,0,0,1,62.45,26.28Z"/><path class="cls-1" d="M69.92,24.38a.38.38,0,0,1-.33-.09,2.37,2.37,0,0,0-2.14-.55,2.41,2.41,0,0,0-1.62,1.5.36.36,0,0,1-.24.24.27.27,0,0,1-.2,0,.39.39,0,0,1-.19-.21.56.56,0,0,1,0-.36,3.16,3.16,0,0,1,1.53-1.73,3.24,3.24,0,0,1,.52-.19,3,3,0,0,1,1.42,0,3.29,3.29,0,0,1,1.3.69.57.57,0,0,1,.18.32.4.4,0,0,1-.06.27A.33.33,0,0,1,69.92,24.38Z"/><path class="cls-1" d="M76.87,28a.49.49,0,0,0-.45-.2.47.47,0,0,0-.4.29c-.61,1.41-2.37,1.31-5.18,1-.94-.09-1.94-.19-3-.2a3.32,3.32,0,0,0-6.16,1.6c-.87.51-1.68,1.1-2.45,1.65-2.19,1.57-3.59,2.49-4.81,1.63a.51.51,0,0,0-.53,0,.5.5,0,0,0-.25.46c0,.24,0,.58,0,1,0,4.22.11,15.45,9.16,18.18,1.14.35,2.14.59,3,.8,1.58.38,2.72.66,3,1.18a1.34,1.34,0,0,1,0,1,.49.49,0,0,0,.59.61l.06,0c.38-.14,9.27-3.64,11.7-11.71C82.84,40.09,81.36,34.27,76.87,28Zm-12.41.37a2.25,2.25,0,0,1,2.29.57,1.4,1.4,0,0,1,.28.54,1.26,1.26,0,0,1,0,.43,2.44,2.44,0,0,1-4.16,1.07,1.32,1.32,0,0,1-.18-.4,1.35,1.35,0,0,1,0-.6A2.25,2.25,0,0,1,64.46,28.33ZM80.34,45C78.46,51.23,72.21,54.66,70,55.71a1.72,1.72,0,0,0-.24-.85c-.52-.88-1.77-1.18-3.65-1.63-.87-.21-1.86-.45-3-.79-8.35-2.53-8.43-13.22-8.46-17.25V35c1.63.51,3.36-.73,5.17-2,.69-.5,1.43-1,2.2-1.5a3.39,3.39,0,0,0,6-1.56c.92,0,1.84.11,2.7.2,2.35.23,4.6.45,5.75-.93C80.46,35,81.76,40.27,80.34,45Z"/><path class="cls-1" d="M44.83,65.05a3.54,3.54,0,1,1,3.54-3.53A3.53,3.53,0,0,1,44.83,65.05Zm0-6.09a2.56,2.56,0,1,0,2.56,2.56A2.56,2.56,0,0,0,44.83,59Z"/><path class="cls-1" d="M94,59.24a3.54,3.54,0,1,1,3.54-3.53A3.54,3.54,0,0,1,94,59.24Zm0-6.09a2.56,2.56,0,1,0,2.56,2.56A2.56,2.56,0,0,0,94,53.15Z"/><path class="cls-1" d="M39.13,10.55H37.06V8.48a.49.49,0,0,0-1,0v2.07H34a.49.49,0,0,0,0,1h2.07V13.6a.49.49,0,0,0,1,0V11.53h2.07a.49.49,0,0,0,0-1Z"/><path class="cls-1" d="M222.17,7.07a3.54,3.54,0,1,1,3.53-3.54A3.54,3.54,0,0,1,222.17,7.07Zm0-6.1a2.56,2.56,0,1,0,2.56,2.56A2.56,2.56,0,0,0,222.17,1Z"/><path class="cls-1" d="M163,52.23H161V50.16a.49.49,0,0,0-1,0v2.07h-2.07a.49.49,0,1,0,0,1H160v2.07a.49.49,0,0,0,1,0V53.21H163a.49.49,0,0,0,0-1Z"/><path class="cls-1" d="M98.09,13.22H96V11.15a.49.49,0,0,0-1,0v2.07H93a.49.49,0,0,0,0,1H95v2.07a.49.49,0,0,0,1,0V14.2h2.07a.49.49,0,1,0,0-1Z"/><path class="cls-1" d="M206.21,17.38a2.33,2.33,0,0,0-1-.07c-2.13.26-6.21,3.23-13.22,9.62a8.39,8.39,0,0,1-.25-1c.87-.51,2.61-1.59,1.85-5.72a8.78,8.78,0,0,0-.38-1.89,4,4,0,0,0,1.81-3.53c-.31-2.62-3.86-4.2-8.25-3.67s-7.46,2.9-7.14,5.52a3.93,3.93,0,0,0,2.6,3,8.53,8.53,0,0,0,.08,1.93c.25,4.19,2.19,4.82,3.15,5.12a8.54,8.54,0,0,1,0,1c-8.33-4.55-13-6.46-15.13-6.21a2.44,2.44,0,0,0-.91.3,1.9,1.9,0,0,0-.85,2.35c.34,1.45,1.81,3.62,3.25,3.56.11,0,.21,0,.35.41a8.74,8.74,0,0,1,.24,1.95c0,.41,0,.81.08,1.14.24,1.54,1.73,1.82,2.71,2a5.13,5.13,0,0,1,1,.25c.21.09.21.82.22,1.35a3.87,3.87,0,0,0,.65,2.66c.73.86,2.17,1.17,4.64,1-1.5,4.83-3,13.54-2.6,16.89.34,2.85,5,3.12,6.57,3.21a46.37,46.37,0,0,0,6.56-.17h.32l.11,0a47.19,47.19,0,0,0,6.42-1.4c1.47-.45,6-1.83,5.61-4.68-.4-3.35-3.93-11.45-6.54-15.78,2.45-.42,3.77-1.06,4.28-2.07a3.89,3.89,0,0,0,0-2.73c-.12-.52-.29-1.23-.11-1.37a4.34,4.34,0,0,1,.92-.48c.91-.41,2.29-1,2.15-2.58a11.52,11.52,0,0,0-.18-1.14,7.76,7.76,0,0,1-.23-1.95c0-.43.13-.45.24-.47,1.41-.29,2.32-2.74,2.3-4.24A1.9,1.9,0,0,0,206.21,17.38Zm-25.58-.84c-.24-2,2.59-4,6.3-4.44s6.93.81,7.17,2.82a2.89,2.89,0,0,1-1.24,2.47,5,5,0,0,0-1.31-1.63,5.63,5.63,0,0,0-4.24-1.08h-.14a5.64,5.64,0,0,0-3.87,2.06,5,5,0,0,0-.87,1.89A2.9,2.9,0,0,1,180.63,16.54Zm24.46,6.2c-1.8.37-.73,3.26-.6,4.6s-1.75,1.48-2.71,2.21c-1.22.94.48,3.17-.16,4.44-.46.91-2.38,1.36-3.93,1.6a.72.72,0,0,0-.5,1.09c3.05,4.93,6.27,13,6.6,15.71.39,3.22-9.79,4.8-11.3,5h0l-.1,0h-.1c-1.52.15-11.78,1-12.17-2.18-.33-2.74.89-11.32,2.68-16.82a.73.73,0,0,0-.75-1c-1.56.14-3.53.16-4.19-.62-.93-1.08.2-3.65-1.22-4.27-1.09-.48-3-.24-3.14-1.5s.15-4.4-1.68-4.33c-1.09.05-3.25-3.48-1.88-4.09a1.08,1.08,0,0,1,.54-.18c2.62-.32,10.51,3.88,14.88,6.27a.67.67,0,0,0,.43.08.73.73,0,0,0,.64-.64,5.22,5.22,0,0,0-.09-2.19c-.51-.48-2.77.05-3-4.51-.71-4.76,2.63-5.67,4-5.83h.15c1.34-.16,4.81-.07,5.24,4.72.83,4.49-1.49,4.52-1.86,5.11a5.15,5.15,0,0,0,.42,2.14.73.73,0,0,0,.78.47.66.66,0,0,0,.4-.18c3.67-3.36,10.34-9.31,13-9.63a1.29,1.29,0,0,1,.57.05C207.42,18.59,206.15,22.53,205.09,22.74Z"/><path class="cls-1" d="M260.28,25.43l-10.6-2.3a9.29,9.29,0,0,0,3.69-1.06,3.58,3.58,0,0,0,1.07-4.93,4,4,0,0,0-5-1.36,14.24,14.24,0,0,0-3.57,2.62A10.66,10.66,0,0,1,251,12.93a.49.49,0,0,0,.24-.64.49.49,0,0,0-.65-.24,11.47,11.47,0,0,0-5.1,4.94,10.88,10.88,0,0,0-2-5.15.49.49,0,0,0-.68-.13.48.48,0,0,0-.13.67,9.53,9.53,0,0,1,1.86,5.8,14.09,14.09,0,0,0-2.2-3.93,4,4,0,0,0-5.15-.85,3.57,3.57,0,0,0-1.07,4.92,9.2,9.2,0,0,0,2.92,2.5l-10.59-2.3a1.19,1.19,0,0,0-1.41.91l-1.5,6.94a1.17,1.17,0,0,0,.9,1.4l.62.14L221.38,54a1.22,1.22,0,0,0,.93,1.44l28.24,6.12a1.22,1.22,0,0,0,1.44-.93l5.66-26.13.62.14a1.19,1.19,0,0,0,1.41-.91l1.5-6.94A1.17,1.17,0,0,0,260.28,25.43Zm-10.46-8.77a3.06,3.06,0,0,1,2-.22,2.89,2.89,0,0,1,1.83,1.23,2.59,2.59,0,0,1-.77,3.58c-1.74,1.12-6.35,1.3-7.61.53-.14-.08-.21-.17-.21-.24C245.2,19.77,248.24,17.42,249.82,16.66ZM237.7,14.22a2.84,2.84,0,0,1,2.17-.36,3.11,3.11,0,0,1,1.71,1c1.12,1.35,2.91,4.74,2.33,6.43,0,.07-.12.11-.29.13-1.47.18-5.58-1.89-6.7-3.63A2.59,2.59,0,0,1,237.7,14.22Zm-1.54,43.27-13.64-3a.24.24,0,0,1-.19-.29L228,28.12l13.88,3Zm5.92-27.32-13.88-3-.95-.21-.62-.13a.2.2,0,0,1-.16-.25l1.5-6.95a.22.22,0,0,1,.25-.16l15.45,3.35Zm9,30.29a.25.25,0,0,1-.29.19l-13.64-3,5.71-26.36,13.88,3Zm7.69-26.89a.22.22,0,0,1-.25.16l-.62-.14-.95-.2-13.88-3L244.62,23l15.45,3.35a.19.19,0,0,1,.16.24Z"/><path class="cls-1" d="M157.62,15.54A3.54,3.54,0,1,1,161.16,12,3.54,3.54,0,0,1,157.62,15.54Zm0-6.09A2.56,2.56,0,1,0,160.18,12,2.56,2.56,0,0,0,157.62,9.45Z"/></g></g></svg>