<?xml version="1.0" encoding="utf-8"?>
<!-- Generator: Adobe Illustrator 21.0.0, SVG Export Plug-In . SVG Version: 6.00 Build 0)  -->
<svg version="1.1" id="Layer_1" xmlns="http://www.w3.org/2000/svg" xmlns:xlink="http://www.w3.org/1999/xlink" x="0px" y="0px"
	 viewBox="0 0 117.8 117.8" style="enable-background:new 0 0 117.8 117.8;" xml:space="preserve">
<style type="text/css">
	.st0{fill:#21160E;}
</style>
<title>drop-down-maro</title>
<path class="st0" d="M58.9,0c32.5,0,58.9,26.4,58.9,58.9s-26.4,58.9-58.9,58.9S0,91.4,0,58.9v0l0,0C0,26.4,26.4,0,58.9,0L58.9,0z
	 M22.7,64c-2.2,2.2-2.2,5.8,0,8l0,0l4,4c2.2,2.2,5.8,2.2,8,0l0,0l24.2-24l24.1,24.1c2.2,2.2,5.8,2.2,8,0l0,0l4-4
	c2.2-2.2,2.2-5.8,0-8l0,0L62.9,31.9c-2.2-2.3-5.8-2.3-8.1-0.1c0,0,0,0,0,0l0,0L22.7,64z"/>
</svg>
