<svg xmlns="http://www.w3.org/2000/svg" width="38.281" height="30.66" viewBox="0 0 38.281 30.66">
  <metadata><?xpacket begin="﻿" id="W5M0MpCehiHzreSzNTczkc9d"?>
<x:xmpmeta xmlns:x="adobe:ns:meta/" x:xmptk="Adobe XMP Core 5.6-c138 79.159824, 2016/09/14-01:09:01        ">
   <rdf:RDF xmlns:rdf="http://www.w3.org/1999/02/22-rdf-syntax-ns#">
      <rdf:Description rdf:about=""/>
   </rdf:RDF>
</x:xmpmeta>
                                                                                                    
                                                                                                    
                                                                                                    
                                                                                                    
                                                                                                    
                                                                                                    
                                                                                                    
                                                                                                    
                                                                                                    
                                                                                                    
                                                                                                    
                                                                                                    
                                                                                                    
                                                                                                    
                                                                                                    
                                                                                                    
                                                                                                    
                                                                                                    
                                                                                                    
                                                                                                    
                           
<?xpacket end="w"?></metadata>
<defs>
    <style>
      .cls-1 {
        fill: #fff;
        fill-rule: evenodd;
      }
    </style>
  </defs>
  <path id="_" data-name="”" class="cls-1" d="M790.215,5004.72q7.846-1.41,11.562-6.99a22.3,22.3,0,0,0,3.714-12.64q0-5.505-2.383-8.27a7.5,7.5,0,0,0-5.886-2.75,7.718,7.718,0,0,0-7.988,8.19q0,6.495,6.867,7.63a2.67,2.67,0,0,1,2.383,2.97,6.631,6.631,0,0,1-2.453,5.22,15.366,15.366,0,0,1-6.377,3.11Zm22,0q7.846-1.41,11.562-6.99a22.3,22.3,0,0,0,3.714-12.64q0-5.505-2.383-8.27a7.5,7.5,0,0,0-5.886-2.75,7.718,7.718,0,0,0-7.988,8.19q0,6.495,6.867,7.63a2.67,2.67,0,0,1,2.382,2.97,6.633,6.633,0,0,1-2.452,5.22,15.366,15.366,0,0,1-6.377,3.11Z" transform="translate(-789.219 -4974.06)"/>
</svg>
